<svg width="24" height="24" viewBox="0 0 24 24" fill="none" xmlns="http://www.w3.org/2000/svg">
<path d="M19.1471 10.8975C19.0417 11.0028 18.8987 11.062 18.7496 11.062C18.6006 11.062 18.4576 11.0028 18.3521 10.8975L12.5621 5.10843V20.25C12.5621 20.3992 12.5029 20.5423 12.3974 20.6477C12.2919 20.7532 12.1488 20.8125 11.9996 20.8125C11.8505 20.8125 11.7074 20.7532 11.6019 20.6477C11.4964 20.5423 11.4371 20.3992 11.4371 20.25V5.10843L5.64714 10.8975C5.54051 10.9969 5.39947 11.0509 5.25375 11.0484C5.10802 11.0458 4.96898 10.9868 4.86592 10.8837C4.76286 10.7806 4.70383 10.6416 4.70126 10.4959C4.69869 10.3502 4.75278 10.2091 4.85214 10.1025L11.6021 3.35249C11.7076 3.24716 11.8506 3.18799 11.9996 3.18799C12.1487 3.18799 12.2917 3.24716 12.3971 3.35249L19.1471 10.1025C19.2525 10.208 19.3116 10.3509 19.3116 10.5C19.3116 10.6491 19.2525 10.792 19.1471 10.8975Z" fill="black"/>
</svg>
