<svg width="24" height="24" viewBox="0 0 24 24" fill="none" xmlns="http://www.w3.org/2000/svg">
<path d="M19.3121 8.25V16.5C19.3121 16.6492 19.2529 16.7923 19.1474 16.8977C19.0419 17.0032 18.8988 17.0625 18.7496 17.0625C18.6005 17.0625 18.4574 17.0032 18.3519 16.8977C18.2464 16.7923 18.1871 16.6492 18.1871 16.5V8.25C18.1871 7.0068 17.6933 5.81451 16.8142 4.93544C15.9351 4.05636 14.7428 3.5625 13.4996 3.5625C12.2564 3.5625 11.0642 4.05636 10.1851 4.93544C9.306 5.81451 8.81214 7.0068 8.81214 8.25V19.6416L12.3521 16.1025C12.4588 16.0031 12.5998 15.949 12.7455 15.9516C12.8913 15.9542 13.0303 16.0132 13.1334 16.1163C13.2364 16.2193 13.2955 16.3584 13.298 16.5041C13.3006 16.6498 13.2465 16.7909 13.1471 16.8975L8.64714 21.3975C8.54167 21.5028 8.3987 21.562 8.24964 21.562C8.10058 21.562 7.95761 21.5028 7.85214 21.3975L3.35214 16.8975C3.25278 16.7909 3.19869 16.6498 3.20126 16.5041C3.20383 16.3584 3.26286 16.2193 3.36592 16.1163C3.46898 16.0132 3.60802 15.9542 3.75375 15.9516C3.89947 15.949 4.04051 16.0031 4.14714 16.1025L7.68714 19.6416V8.25C7.68714 6.70843 8.29953 5.23 9.38958 4.13994C10.4796 3.04989 11.9581 2.4375 13.4996 2.4375C15.0412 2.4375 16.5196 3.04989 17.6097 4.13994C18.6998 5.23 19.3121 6.70843 19.3121 8.25Z" fill="black"/>
</svg>
