<svg width="24" height="24" viewBox="0 0 24 24" fill="none" xmlns="http://www.w3.org/2000/svg">
<path d="M19.8979 4.89751L14.8579 9.93751H18.0004C18.1495 9.93751 18.2926 9.99677 18.3981 10.1023C18.5036 10.2077 18.5629 10.3508 18.5629 10.5C18.5629 10.6492 18.5036 10.7923 18.3981 10.8978C18.2926 11.0032 18.1495 11.0625 18.0004 11.0625H13.5004C13.3512 11.0625 13.2081 11.0032 13.1026 10.8978C12.9971 10.7923 12.9379 10.6492 12.9379 10.5V6.00001C12.9379 5.85082 12.9971 5.70775 13.1026 5.60226C13.2081 5.49677 13.3512 5.43751 13.5004 5.43751C13.6495 5.43751 13.7926 5.49677 13.8981 5.60226C14.0036 5.70775 14.0629 5.85082 14.0629 6.00001V9.14251L19.1029 4.10251C19.2095 4.00315 19.3505 3.94905 19.4963 3.95163C19.642 3.9542 19.781 4.01323 19.8841 4.11629C19.9871 4.21935 20.0462 4.35839 20.0487 4.50411C20.0513 4.64984 19.9972 4.79088 19.8979 4.89751ZM10.5004 12.9375H6.00036C5.85118 12.9375 5.7081 12.9968 5.60261 13.1023C5.49712 13.2077 5.43786 13.3508 5.43786 13.5C5.43786 13.6492 5.49712 13.7923 5.60261 13.8978C5.7081 14.0032 5.85118 14.0625 6.00036 14.0625H9.14286L4.10286 19.1025C4.04759 19.154 4.00327 19.2161 3.97252 19.2851C3.94178 19.3541 3.92525 19.4286 3.92392 19.5041C3.92258 19.5796 3.93648 19.6547 3.96477 19.7247C3.99306 19.7947 4.03517 19.8584 4.08858 19.9118C4.14199 19.9652 4.20562 20.0073 4.27566 20.0356C4.3457 20.0639 4.42072 20.0778 4.49625 20.0765C4.57178 20.0751 4.64626 20.0586 4.71526 20.0278C4.78426 19.9971 4.84636 19.9528 4.89786 19.8975L9.93786 14.8575V18C9.93786 18.1492 9.99712 18.2923 10.1026 18.3978C10.2081 18.5032 10.3512 18.5625 10.5004 18.5625C10.6495 18.5625 10.7926 18.5032 10.8981 18.3978C11.0036 18.2923 11.0629 18.1492 11.0629 18V13.5C11.0629 13.3508 11.0036 13.2077 10.8981 13.1023C10.7926 12.9968 10.6495 12.9375 10.5004 12.9375Z" fill="black"/>
</svg>
