<svg width="24" height="24" viewBox="0 0 24 24" fill="none" xmlns="http://www.w3.org/2000/svg">
<path d="M15.3971 18.3525C15.5025 18.458 15.5616 18.6009 15.5616 18.75C15.5616 18.8991 15.5025 19.042 15.3971 19.1475L12.3971 22.1475C12.2917 22.2528 12.1487 22.312 11.9996 22.312C11.8506 22.312 11.7076 22.2528 11.6021 22.1475L8.60214 19.1475C8.50278 19.0409 8.44869 18.8998 8.45126 18.7541C8.45383 18.6084 8.51287 18.4693 8.61592 18.3663C8.71898 18.2632 8.85802 18.2042 9.00375 18.2016C9.14948 18.199 9.29051 18.2531 9.39714 18.3525L11.4371 20.3916V3.61031L9.39714 5.64749C9.29051 5.74685 9.14948 5.80095 9.00375 5.79837C8.85802 5.7958 8.71898 5.73677 8.61592 5.63371C8.51287 5.53065 8.45383 5.39161 8.45126 5.24589C8.44869 5.10016 8.50278 4.95912 8.60214 4.85249L11.6021 1.85249C11.7076 1.74716 11.8506 1.68799 11.9996 1.68799C12.1487 1.68799 12.2917 1.74716 12.3971 1.85249L15.3971 4.85249C15.4524 4.90399 15.4967 4.96609 15.5275 5.03509C15.5582 5.10409 15.5748 5.17857 15.5761 5.2541C15.5774 5.32963 15.5635 5.40465 15.5352 5.47469C15.5069 5.54473 15.4648 5.60836 15.4114 5.66177C15.358 5.71519 15.2944 5.75729 15.2243 5.78559C15.1543 5.81388 15.0793 5.82777 15.0037 5.82644C14.9282 5.8251 14.8537 5.80857 14.7847 5.77783C14.7157 5.74709 14.6536 5.70276 14.6021 5.64749L12.5621 3.60843V20.3897L14.6021 18.3506C14.7079 18.2455 14.851 18.1867 15 18.187C15.1491 18.1874 15.2919 18.2469 15.3971 18.3525Z" fill="black"/>
</svg>
