<svg width="24" height="24" viewBox="0 0 24 24" fill="none" xmlns="http://www.w3.org/2000/svg">
<path d="M19.8975 16.1025C20.0028 16.208 20.062 16.3509 20.062 16.5C20.062 16.6491 20.0028 16.792 19.8975 16.8975L16.8975 19.8975C16.7909 19.9969 16.6498 20.051 16.5041 20.0484C16.3584 20.0458 16.2193 19.9868 16.1163 19.8837C16.0132 19.7807 15.9542 19.6416 15.9516 19.4959C15.949 19.3502 16.0031 19.2091 16.1025 19.1025L18.1416 17.0625H4.5C4.35082 17.0625 4.20774 17.0032 4.10225 16.8978C3.99676 16.7923 3.9375 16.6492 3.9375 16.5C3.9375 16.3508 3.99676 16.2077 4.10225 16.1023C4.20774 15.9968 4.35082 15.9375 4.5 15.9375H18.1416L16.1025 13.8975C16.0031 13.7909 15.949 13.6498 15.9516 13.5041C15.9542 13.3584 16.0132 13.2194 16.1163 13.1163C16.2193 13.0132 16.3584 12.9542 16.5041 12.9516C16.6498 12.9491 16.7909 13.0031 16.8975 13.1025L19.8975 16.1025ZM7.1025 10.8975C7.20913 10.9969 7.35017 11.051 7.49589 11.0484C7.64162 11.0458 7.78066 10.9868 7.88372 10.8837C7.98678 10.7807 8.04581 10.6416 8.04838 10.4959C8.05095 10.3502 7.99686 10.2091 7.8975 10.1025L5.85844 8.06251H19.5C19.6492 8.06251 19.7923 8.00324 19.8977 7.89775C20.0032 7.79226 20.0625 7.64919 20.0625 7.50001C20.0625 7.35082 20.0032 7.20775 19.8977 7.10226C19.7923 6.99677 19.6492 6.93751 19.5 6.93751H5.85844L7.8975 4.89751C7.99686 4.79088 8.05095 4.64984 8.04838 4.50411C8.04581 4.35839 7.98678 4.21935 7.88372 4.11629C7.78066 4.01323 7.64162 3.9542 7.49589 3.95163C7.35017 3.94905 7.20913 4.00315 7.1025 4.10251L4.1025 7.10251C3.99716 7.20798 3.93799 7.35094 3.93799 7.50001C3.93799 7.64907 3.99716 7.79204 4.1025 7.89751L7.1025 10.8975Z" fill="black"/>
</svg>
