<svg width="24" height="24" viewBox="0 0 24 24" fill="none" xmlns="http://www.w3.org/2000/svg">
<path d="M8.60298 5.64749C8.49764 5.54202 8.43848 5.39906 8.43848 5.24999C8.43848 5.10093 8.49764 4.95796 8.60298 4.85249L11.603 1.85249C11.7085 1.74716 11.8514 1.68799 12.0005 1.68799C12.1495 1.68799 12.2925 1.74716 12.398 1.85249L15.398 4.85249C15.4532 4.90399 15.4976 4.96609 15.5283 5.03509C15.5591 5.10409 15.5756 5.17857 15.5769 5.2541C15.5783 5.32963 15.5644 5.40465 15.5361 5.47469C15.5078 5.54473 15.4657 5.60836 15.4123 5.66177C15.3588 5.71519 15.2952 5.75729 15.2252 5.78559C15.1551 5.81388 15.0801 5.82777 15.0046 5.82644C14.9291 5.8251 14.8546 5.80857 14.7856 5.77783C14.7166 5.74709 14.6545 5.70276 14.603 5.64749L12.563 3.60843V8.99999C12.563 9.14918 12.5037 9.29225 12.3982 9.39774C12.2927 9.50323 12.1497 9.56249 12.0005 9.56249C11.8513 9.56249 11.7082 9.50323 11.6027 9.39774C11.4972 9.29225 11.438 9.14918 11.438 8.99999V3.60843L9.39798 5.64749C9.29251 5.75283 9.14954 5.812 9.00048 5.812C8.85142 5.812 8.70845 5.75283 8.60298 5.64749ZM14.603 18.3525L12.563 20.3916V15C12.563 14.8508 12.5037 14.7077 12.3982 14.6022C12.2927 14.4968 12.1497 14.4375 12.0005 14.4375C11.8513 14.4375 11.7082 14.4968 11.6027 14.6022C11.4972 14.7077 11.438 14.8508 11.438 15V20.3916L9.39798 18.3525C9.29135 18.2531 9.15032 18.199 9.00459 18.2016C8.85886 18.2042 8.71983 18.2632 8.61677 18.3663C8.51371 18.4693 8.45467 18.6084 8.4521 18.7541C8.44953 18.8998 8.50362 19.0409 8.60298 19.1475L11.603 22.1475C11.7085 22.2528 11.8514 22.312 12.0005 22.312C12.1495 22.312 12.2925 22.2528 12.398 22.1475L15.398 19.1475C15.4973 19.0409 15.5514 18.8998 15.5489 18.7541C15.5463 18.6084 15.4873 18.4693 15.3842 18.3663C15.2811 18.2632 15.1421 18.2042 14.9964 18.2016C14.8506 18.199 14.7096 18.2531 14.603 18.3525ZM22.148 11.6025L19.148 8.60249C19.0414 8.50313 18.9003 8.44904 18.7546 8.45161C18.6089 8.45418 18.4698 8.51322 18.3668 8.61628C18.2637 8.71934 18.2047 8.85838 18.2021 9.0041C18.1995 9.14983 18.2536 9.29086 18.353 9.39749L20.392 11.4375H15.0005C14.8513 11.4375 14.7082 11.4968 14.6027 11.6022C14.4972 11.7077 14.438 11.8508 14.438 12C14.438 12.1492 14.4972 12.2923 14.6027 12.3977C14.7082 12.5032 14.8513 12.5625 15.0005 12.5625H20.392L18.353 14.6025C18.2977 14.654 18.2534 14.7161 18.2226 14.7851C18.1919 14.8541 18.1754 14.9286 18.174 15.0041C18.1727 15.0796 18.1866 15.1546 18.2149 15.2247C18.2432 15.2947 18.2853 15.3584 18.3387 15.4118C18.3921 15.4652 18.4557 15.5073 18.5258 15.5356C18.5958 15.5639 18.6708 15.5778 18.7464 15.5764C18.8219 15.5751 18.8964 15.5586 18.9654 15.5278C19.0344 15.4971 19.0965 15.4528 19.148 15.3975L22.148 12.3975C22.2533 12.292 22.3125 12.1491 22.3125 12C22.3125 11.8509 22.2533 11.708 22.148 11.6025ZM3.60892 12.5625H9.00048C9.14967 12.5625 9.29274 12.5032 9.39823 12.3977C9.50372 12.2923 9.56298 12.1492 9.56298 12C9.56298 11.8508 9.50372 11.7077 9.39823 11.6022C9.29274 11.4968 9.14967 11.4375 9.00048 11.4375H3.60892L5.64798 9.39749C5.74734 9.29086 5.80143 9.14983 5.79886 9.0041C5.79629 8.85838 5.73726 8.71934 5.6342 8.61628C5.53114 8.51322 5.3921 8.45418 5.24637 8.45161C5.10065 8.44904 4.95961 8.50313 4.85298 8.60249L1.85298 11.6025C1.74764 11.708 1.68848 11.8509 1.68848 12C1.68848 12.1491 1.74764 12.292 1.85298 12.3975L4.85298 15.3975C4.95961 15.4969 5.10065 15.5509 5.24637 15.5484C5.3921 15.5458 5.53114 15.4868 5.6342 15.3837C5.73726 15.2807 5.79629 15.1416 5.79886 14.9959C5.80143 14.8502 5.74734 14.7091 5.64798 14.6025L3.60892 12.5625Z" fill="black"/>
</svg>
