<svg width="24" height="24" viewBox="0 0 24 24" fill="none" xmlns="http://www.w3.org/2000/svg">
<path d="M11.8121 12.75V18.75C11.8121 18.8992 11.7529 19.0423 11.6474 19.1477C11.5419 19.2532 11.3988 19.3125 11.2496 19.3125C11.1005 19.3125 10.9574 19.2532 10.8519 19.1477C10.7464 19.0423 10.6871 18.8992 10.6871 18.75V14.1084L4.14714 20.6475C4.04051 20.7469 3.89947 20.801 3.75375 20.7984C3.60802 20.7958 3.46898 20.7368 3.36592 20.6337C3.26286 20.5307 3.20383 20.3916 3.20126 20.2459C3.19869 20.1002 3.25278 19.9591 3.35214 19.8525L9.8912 13.3125H5.24964C5.10046 13.3125 4.95738 13.2532 4.85189 13.1477C4.7464 13.0423 4.68714 12.8992 4.68714 12.75C4.68714 12.6008 4.7464 12.4577 4.85189 12.3523C4.95738 12.2468 5.10046 12.1875 5.24964 12.1875H11.2496C11.3988 12.1875 11.5419 12.2468 11.6474 12.3523C11.7529 12.4577 11.8121 12.6008 11.8121 12.75ZM19.4996 3.1875H7.49964C7.15154 3.1875 6.8177 3.32578 6.57156 3.57192C6.32542 3.81806 6.18714 4.1519 6.18714 4.5V9C6.18714 9.14918 6.2464 9.29226 6.35189 9.39775C6.45738 9.50324 6.60046 9.5625 6.74964 9.5625C6.89882 9.5625 7.0419 9.50324 7.14739 9.39775C7.25288 9.29226 7.31214 9.14918 7.31214 9V4.5C7.31214 4.45027 7.33189 4.40258 7.36706 4.36742C7.40222 4.33225 7.44991 4.3125 7.49964 4.3125H19.4996C19.5494 4.3125 19.5971 4.33225 19.6322 4.36742C19.6674 4.40258 19.6871 4.45027 19.6871 4.5V16.5C19.6871 16.5497 19.6674 16.5974 19.6322 16.6326C19.5971 16.6677 19.5494 16.6875 19.4996 16.6875H14.9996C14.8505 16.6875 14.7074 16.7468 14.6019 16.8523C14.4964 16.9577 14.4371 17.1008 14.4371 17.25C14.4371 17.3992 14.4964 17.5423 14.6019 17.6477C14.7074 17.7532 14.8505 17.8125 14.9996 17.8125H19.4996C19.8477 17.8125 20.1816 17.6742 20.4277 17.4281C20.6739 17.1819 20.8121 16.8481 20.8121 16.5V4.5C20.8121 4.1519 20.6739 3.81806 20.4277 3.57192C20.1816 3.32578 19.8477 3.1875 19.4996 3.1875Z" fill="black"/>
</svg>
