<svg width="24" height="24" viewBox="0 0 24 24" fill="none" xmlns="http://www.w3.org/2000/svg">
<path d="M12.563 3.75V20.25C12.563 20.3992 12.5037 20.5423 12.3982 20.6477C12.2927 20.7532 12.1497 20.8125 12.0005 20.8125C11.8513 20.8125 11.7082 20.7532 11.6027 20.6477C11.4972 20.5423 11.438 20.3992 11.438 20.25V3.75C11.438 3.60082 11.4972 3.45774 11.6027 3.35225C11.7082 3.24676 11.8513 3.1875 12.0005 3.1875C12.1497 3.1875 12.2927 3.24676 12.3982 3.35225C12.5037 3.45774 12.563 3.60082 12.563 3.75ZM9.00048 11.4375H2.85892L4.89798 9.3975C4.99734 9.29087 5.05143 9.14983 5.04886 9.00411C5.04629 8.85838 4.98726 8.71934 4.8842 8.61628C4.78114 8.51322 4.6421 8.45419 4.49637 8.45162C4.35065 8.44905 4.20961 8.50314 4.10298 8.6025L1.10298 11.6025C0.997644 11.708 0.938477 11.8509 0.938477 12C0.938477 12.1491 0.997644 12.292 1.10298 12.3975L4.10298 15.3975C4.20961 15.4969 4.35065 15.551 4.49637 15.5484C4.6421 15.5458 4.78114 15.4868 4.8842 15.3837C4.98726 15.2807 5.04629 15.1416 5.04886 14.9959C5.05143 14.8502 4.99734 14.7091 4.89798 14.6025L2.85892 12.5625H9.00048C9.14967 12.5625 9.29274 12.5032 9.39823 12.3977C9.50372 12.2923 9.56298 12.1492 9.56298 12C9.56298 11.8508 9.50372 11.7077 9.39823 11.6023C9.29274 11.4968 9.14967 11.4375 9.00048 11.4375ZM22.898 11.6025L19.898 8.6025C19.7914 8.50314 19.6503 8.44905 19.5046 8.45162C19.3589 8.45419 19.2198 8.51322 19.1168 8.61628C19.0137 8.71934 18.9547 8.85838 18.9521 9.00411C18.9495 9.14983 19.0036 9.29087 19.103 9.3975L21.142 11.4375H15.0005C14.8513 11.4375 14.7082 11.4968 14.6027 11.6023C14.4972 11.7077 14.438 11.8508 14.438 12C14.438 12.1492 14.4972 12.2923 14.6027 12.3977C14.7082 12.5032 14.8513 12.5625 15.0005 12.5625H21.142L19.103 14.6025C19.0477 14.654 19.0034 14.7161 18.9726 14.7851C18.9419 14.8541 18.9254 14.9286 18.924 15.0041C18.9227 15.0796 18.9366 15.1547 18.9649 15.2247C18.9932 15.2947 19.0353 15.3584 19.0887 15.4118C19.1421 15.4652 19.2057 15.5073 19.2758 15.5356C19.3458 15.5639 19.4208 15.5778 19.4964 15.5764C19.5719 15.5751 19.6464 15.5586 19.7154 15.5278C19.7844 15.4971 19.8465 15.4528 19.898 15.3975L22.898 12.3975C23.0033 12.292 23.0625 12.1491 23.0625 12C23.0625 11.8509 23.0033 11.708 22.898 11.6025Z" fill="black"/>
</svg>
