<svg width="24" height="24" viewBox="0 0 24 24" fill="none" xmlns="http://www.w3.org/2000/svg">
<path d="M16.1025 12.3525L19.6416 8.81251H8.25C7.0068 8.81251 5.81451 9.30637 4.93544 10.1854C4.05636 11.0645 3.5625 12.2568 3.5625 13.5C3.5625 14.7432 4.05636 15.9355 4.93544 16.8146C5.81451 17.6936 7.0068 18.1875 8.25 18.1875H16.5C16.6492 18.1875 16.7923 18.2468 16.8977 18.3523C17.0032 18.4577 17.0625 18.6008 17.0625 18.75C17.0625 18.8992 17.0032 19.0423 16.8977 19.1478C16.7923 19.2532 16.6492 19.3125 16.5 19.3125H8.25C6.70843 19.3125 5.23 18.7001 4.13994 17.6101C3.04989 16.52 2.4375 15.0416 2.4375 13.5C2.4375 11.9584 3.04989 10.48 4.13994 9.38995C5.23 8.29989 6.70843 7.68751 8.25 7.68751H19.6416L16.1025 4.14751C16.0031 4.04088 15.949 3.89984 15.9516 3.75411C15.9542 3.60839 16.0132 3.46935 16.1163 3.36629C16.2193 3.26323 16.3584 3.2042 16.5041 3.20163C16.6498 3.19905 16.7909 3.25315 16.8975 3.35251L21.3975 7.85251C21.5028 7.95798 21.562 8.10094 21.562 8.25001C21.562 8.39907 21.5028 8.54204 21.3975 8.64751L16.8975 13.1475C16.7909 13.2469 16.6498 13.301 16.5041 13.2984C16.3584 13.2958 16.2193 13.2368 16.1163 13.1337C16.0132 13.0307 15.9542 12.8916 15.9516 12.7459C15.949 12.6002 16.0031 12.4591 16.1025 12.3525Z" fill="black"/>
</svg>
