<svg width="24" height="24" viewBox="0 0 24 24" fill="none" xmlns="http://www.w3.org/2000/svg">
<path d="M19.3121 7.49999V15.75C19.3121 17.2916 18.6998 18.77 17.6097 19.8601C16.5196 20.9501 15.0412 21.5625 13.4996 21.5625C11.9581 21.5625 10.4796 20.9501 9.38958 19.8601C8.29953 18.77 7.68714 17.2916 7.68714 15.75V4.35843L4.14714 7.89749C4.04051 7.99685 3.89947 8.05095 3.75375 8.04837C3.60802 8.0458 3.46898 7.98677 3.36592 7.88371C3.26286 7.78065 3.20383 7.64161 3.20126 7.49588C3.19869 7.35016 3.25278 7.20912 3.35214 7.10249L7.85214 2.60249C7.95761 2.49716 8.10058 2.43799 8.24964 2.43799C8.3987 2.43799 8.54167 2.49716 8.64714 2.60249L13.1471 7.10249C13.2024 7.15399 13.2467 7.21609 13.2775 7.28509C13.3082 7.35409 13.3248 7.42857 13.3261 7.5041C13.3274 7.57963 13.3135 7.65465 13.2852 7.72469C13.2569 7.79473 13.2148 7.85836 13.1614 7.91177C13.108 7.96519 13.0444 8.00729 12.9743 8.03558C12.9043 8.06388 12.8293 8.07777 12.7537 8.07644C12.6782 8.0751 12.6037 8.05857 12.5347 8.02783C12.4657 7.99708 12.4036 7.95276 12.3521 7.89749L8.81214 4.35843V15.75C8.81214 16.9932 9.306 18.1855 10.1851 19.0646C11.0642 19.9436 12.2564 20.4375 13.4996 20.4375C14.7428 20.4375 15.9351 19.9436 16.8142 19.0646C17.6933 18.1855 18.1871 16.9932 18.1871 15.75V7.49999C18.1871 7.35081 18.2464 7.20774 18.3519 7.10225C18.4574 6.99676 18.6005 6.93749 18.7496 6.93749C18.8988 6.93749 19.0419 6.99676 19.1474 7.10225C19.2529 7.20774 19.3121 7.35081 19.3121 7.49999Z" fill="black"/>
</svg>
