<svg width="24" height="24" viewBox="0 0 24 24" fill="none" xmlns="http://www.w3.org/2000/svg">
<path d="M21.563 13.5C21.5612 15.041 20.9483 16.5185 19.8586 17.6081C18.7689 18.6978 17.2915 19.3108 15.7505 19.3125H7.50048C7.3513 19.3125 7.20822 19.2532 7.10273 19.1478C6.99724 19.0423 6.93798 18.8992 6.93798 18.75C6.93798 18.6008 6.99724 18.4577 7.10273 18.3523C7.20822 18.2468 7.3513 18.1875 7.50048 18.1875H15.7505C16.9937 18.1875 18.186 17.6936 19.065 16.8146C19.9441 15.9355 20.438 14.7432 20.438 13.5C20.438 12.2568 19.9441 11.0645 19.065 10.1854C18.186 9.30637 16.9937 8.81251 15.7505 8.81251H4.35892L7.89798 12.3525C7.95325 12.404 7.99757 12.4661 8.02832 12.5351C8.05906 12.6041 8.07559 12.6786 8.07693 12.7541C8.07826 12.8296 8.06436 12.9047 8.03607 12.9747C8.00778 13.0447 7.96567 13.1084 7.91226 13.1618C7.85885 13.2152 7.79522 13.2573 7.72518 13.2856C7.65514 13.3139 7.58012 13.3278 7.50459 13.3265C7.42906 13.3251 7.35458 13.3086 7.28558 13.2778C7.21658 13.2471 7.15448 13.2028 7.10298 13.1475L2.60298 8.64751C2.49764 8.54204 2.43848 8.39907 2.43848 8.25001C2.43848 8.10094 2.49764 7.95798 2.60298 7.85251L7.10298 3.35251C7.20961 3.25315 7.35065 3.19905 7.49637 3.20163C7.6421 3.2042 7.78114 3.26323 7.8842 3.36629C7.98726 3.46935 8.04629 3.60839 8.04886 3.75411C8.05143 3.89984 7.99734 4.04088 7.89798 4.14751L4.35892 7.68751H15.7505C17.2915 7.68924 18.7689 8.30219 19.8586 9.39187C20.9483 10.4815 21.5612 11.959 21.563 13.5Z" fill="black"/>
</svg>
