<svg width="24" height="24" viewBox="0 0 24 24" fill="none" xmlns="http://www.w3.org/2000/svg">
<path d="M13.6879 9.75001V6.00001C13.6879 5.85082 13.7471 5.70775 13.8526 5.60226C13.9581 5.49677 14.1012 5.43751 14.2504 5.43751C14.3995 5.43751 14.5426 5.49677 14.6481 5.60226C14.7536 5.70775 14.8129 5.85082 14.8129 6.00001V8.39157L19.1029 4.10251C19.2095 4.00315 19.3505 3.94905 19.4963 3.95163C19.642 3.9542 19.781 4.01323 19.8841 4.11629C19.9871 4.21935 20.0462 4.35839 20.0487 4.50411C20.0513 4.64984 19.9972 4.79088 19.8979 4.89751L15.6079 9.18751H18.0004C18.1495 9.18751 18.2926 9.24677 18.3981 9.35226C18.5036 9.45775 18.5629 9.60082 18.5629 9.75001C18.5629 9.89919 18.5036 10.0423 18.3981 10.1478C18.2926 10.2532 18.1495 10.3125 18.0004 10.3125H14.2504C14.1012 10.3125 13.9581 10.2532 13.8526 10.1478C13.7471 10.0423 13.6879 9.89919 13.6879 9.75001ZM9.75036 13.6875H6.00036C5.85118 13.6875 5.7081 13.7468 5.60261 13.8523C5.49712 13.9577 5.43786 14.1008 5.43786 14.25C5.43786 14.3992 5.49712 14.5423 5.60261 14.6478C5.7081 14.7532 5.85118 14.8125 6.00036 14.8125H8.39286L4.10286 19.1025C4.04759 19.154 4.00327 19.2161 3.97252 19.2851C3.94178 19.3541 3.92525 19.4286 3.92392 19.5041C3.92258 19.5796 3.93648 19.6547 3.96477 19.7247C3.99306 19.7947 4.03517 19.8584 4.08858 19.9118C4.14199 19.9652 4.20562 20.0073 4.27566 20.0356C4.3457 20.0639 4.42072 20.0778 4.49625 20.0765C4.57178 20.0751 4.64626 20.0586 4.71526 20.0278C4.78426 19.9971 4.84636 19.9528 4.89786 19.8975L9.18786 15.6075V18C9.18786 18.1492 9.24712 18.2923 9.35261 18.3978C9.4581 18.5032 9.60117 18.5625 9.75036 18.5625C9.89954 18.5625 10.0426 18.5032 10.1481 18.3978C10.2536 18.2923 10.3129 18.1492 10.3129 18V14.25C10.3129 14.1008 10.2536 13.9577 10.1481 13.8523C10.0426 13.7468 9.89954 13.6875 9.75036 13.6875ZM15.6079 14.8125H18.0004C18.1495 14.8125 18.2926 14.7532 18.3981 14.6478C18.5036 14.5423 18.5629 14.3992 18.5629 14.25C18.5629 14.1008 18.5036 13.9577 18.3981 13.8523C18.2926 13.7468 18.1495 13.6875 18.0004 13.6875H14.2504C14.1012 13.6875 13.9581 13.7468 13.8526 13.8523C13.7471 13.9577 13.6879 14.1008 13.6879 14.25V18C13.6879 18.1492 13.7471 18.2923 13.8526 18.3978C13.9581 18.5032 14.1012 18.5625 14.2504 18.5625C14.3995 18.5625 14.5426 18.5032 14.6481 18.3978C14.7536 18.2923 14.8129 18.1492 14.8129 18V15.6075L19.1029 19.8975C19.2095 19.9969 19.3505 20.051 19.4963 20.0484C19.642 20.0458 19.781 19.9868 19.8841 19.8837C19.9871 19.7807 20.0462 19.6416 20.0487 19.4959C20.0513 19.3502 19.9972 19.2091 19.8979 19.1025L15.6079 14.8125ZM9.75036 5.43751C9.60117 5.43751 9.4581 5.49677 9.35261 5.60226C9.24712 5.70775 9.18786 5.85082 9.18786 6.00001V8.39157L4.89786 4.10251C4.79123 4.00315 4.65019 3.94905 4.50447 3.95163C4.35874 3.9542 4.2197 4.01323 4.11664 4.11629C4.01358 4.21935 3.95455 4.35839 3.95198 4.50411C3.94941 4.64984 4.0035 4.79088 4.10286 4.89751L8.39286 9.18751H6.00036C5.85118 9.18751 5.7081 9.24677 5.60261 9.35226C5.49712 9.45775 5.43786 9.60082 5.43786 9.75001C5.43786 9.89919 5.49712 10.0423 5.60261 10.1478C5.7081 10.2532 5.85118 10.3125 6.00036 10.3125H9.75036C9.89954 10.3125 10.0426 10.2532 10.1481 10.1478C10.2536 10.0423 10.3129 9.89919 10.3129 9.75001V6.00001C10.3129 5.85082 10.2536 5.70775 10.1481 5.60226C10.0426 5.49677 9.89954 5.43751 9.75036 5.43751Z" fill="black"/>
</svg>
