<svg width="24" height="24" viewBox="0 0 24 24" fill="none" xmlns="http://www.w3.org/2000/svg">
<path d="M22.1471 12.3975L19.1471 15.3975C19.0405 15.4969 18.8994 15.551 18.7537 15.5484C18.608 15.5458 18.4689 15.4868 18.3659 15.3837C18.2628 15.2807 18.2038 15.1416 18.2012 14.9959C18.1986 14.8502 18.2527 14.7091 18.3521 14.6025L20.3911 12.5625H3.6099L5.64896 14.6025C5.70422 14.654 5.74855 14.7161 5.77929 14.7851C5.81004 14.8541 5.82657 14.9286 5.8279 15.0041C5.82923 15.0796 5.81534 15.1547 5.78705 15.2247C5.75876 15.2947 5.71665 15.3584 5.66324 15.4118C5.60982 15.4652 5.5462 15.5073 5.47616 15.5356C5.40612 15.5639 5.33109 15.5778 5.25557 15.5765C5.18004 15.5751 5.10555 15.5586 5.03655 15.5278C4.96756 15.4971 4.90545 15.4528 4.85396 15.3975L1.85396 12.3975C1.74862 12.292 1.68945 12.1491 1.68945 12C1.68945 11.8509 1.74862 11.708 1.85396 11.6025L4.85396 8.60251C4.96059 8.50315 5.10162 8.44905 5.24735 8.45163C5.39308 8.4542 5.53211 8.51323 5.63517 8.61629C5.73823 8.71935 5.79727 8.85839 5.79984 9.00412C5.80241 9.14984 5.74832 9.29088 5.64896 9.39751L3.60802 11.4375H20.3893L18.3502 9.39751C18.2508 9.29088 18.1968 9.14984 18.1993 9.00412C18.2019 8.85839 18.2609 8.71935 18.364 8.61629C18.4671 8.51323 18.6061 8.4542 18.7518 8.45163C18.8975 8.44905 19.0386 8.50315 19.1452 8.60251L22.1452 11.6025C22.2508 11.7077 22.3103 11.8506 22.3106 11.9996C22.311 12.1487 22.2522 12.2918 22.1471 12.3975Z" fill="black"/>
</svg>
