<svg width="24" height="24" viewBox="0 0 24 24" fill="none" xmlns="http://www.w3.org/2000/svg">
<path d="M20.8125 4.50001V9.00001C20.8125 9.14919 20.7532 9.29227 20.6477 9.39775C20.5423 9.50324 20.3992 9.56251 20.25 9.56251H15.75C15.6008 9.56251 15.4577 9.50324 15.3523 9.39775C15.2468 9.29227 15.1875 9.14919 15.1875 9.00001C15.1875 8.85082 15.2468 8.70775 15.3523 8.60226C15.4577 8.49677 15.6008 8.43751 15.75 8.43751H18.8925L17.2003 6.75001C15.7716 5.31503 13.8318 4.50579 11.8069 4.50001H11.7638C9.75624 4.49367 7.82689 5.27767 6.39281 6.68251C6.34062 6.73699 6.27801 6.78041 6.20869 6.81019C6.13938 6.83998 6.06478 6.85552 5.98934 6.85588C5.9139 6.85625 5.83915 6.84143 5.76955 6.81232C5.69995 6.78321 5.63692 6.74039 5.58421 6.68642C5.5315 6.63245 5.49018 6.56842 5.46271 6.49816C5.43525 6.42789 5.4222 6.35282 5.42435 6.2774C5.42649 6.20199 5.44378 6.12778 5.47519 6.05919C5.5066 5.9906 5.55149 5.92902 5.60719 5.87813C7.24966 4.26488 9.46152 3.36357 11.7638 3.36938H11.8125C14.1356 3.3753 16.3613 4.30367 18 5.95032L19.6875 7.63782V4.50001C19.6875 4.35082 19.7468 4.20775 19.8523 4.10226C19.9577 3.99677 20.1008 3.93751 20.25 3.93751C20.3992 3.93751 20.5423 3.99677 20.6477 4.10226C20.7532 4.20775 20.8125 4.35082 20.8125 4.50001ZM17.6072 17.3175C16.174 18.7244 14.2446 19.5105 12.2362 19.5056H12.1931C10.1682 19.4999 8.22838 18.6906 6.79969 17.2556L5.1075 15.5625H8.25C8.39918 15.5625 8.54226 15.5032 8.64775 15.3978C8.75324 15.2923 8.8125 15.1492 8.8125 15C8.8125 14.8508 8.75324 14.7077 8.64775 14.6023C8.54226 14.4968 8.39918 14.4375 8.25 14.4375H3.75C3.60082 14.4375 3.45774 14.4968 3.35225 14.6023C3.24676 14.7077 3.1875 14.8508 3.1875 15V19.5C3.1875 19.6492 3.24676 19.7923 3.35225 19.8978C3.45774 20.0032 3.60082 20.0625 3.75 20.0625C3.89918 20.0625 4.04226 20.0032 4.14775 19.8978C4.25324 19.7923 4.3125 19.6492 4.3125 19.5V16.3575L6 18.0497C7.63873 19.6963 9.86438 20.6247 12.1875 20.6306H12.2362C14.5385 20.6364 16.7503 19.7351 18.3928 18.1219C18.4485 18.071 18.4934 18.0094 18.5248 17.9408C18.5562 17.8722 18.5735 17.798 18.5757 17.7226C18.5778 17.6472 18.5647 17.5721 18.5373 17.5019C18.5098 17.4316 18.4685 17.3676 18.4158 17.3136C18.3631 17.2596 18.3 17.2168 18.2304 17.1877C18.1608 17.1586 18.0861 17.1438 18.0107 17.1441C17.9352 17.1445 17.8606 17.16 17.7913 17.1898C17.722 17.2196 17.6594 17.263 17.6072 17.3175Z" fill="black"/>
</svg>
