<svg width="24" height="24" viewBox="0 0 24 24" fill="none" xmlns="http://www.w3.org/2000/svg">
<path d="M10.8971 16.1025C11.0025 16.208 11.0616 16.3509 11.0616 16.5C11.0616 16.6491 11.0025 16.792 10.8971 16.8975L7.89714 19.8975C7.79167 20.0028 7.6487 20.062 7.49964 20.062C7.35058 20.062 7.20761 20.0028 7.10214 19.8975L4.10214 16.8975C4.00278 16.7909 3.94869 16.6498 3.95126 16.5041C3.95383 16.3584 4.01286 16.2193 4.11592 16.1163C4.21898 16.0132 4.35802 15.9542 4.50375 15.9516C4.64947 15.949 4.79051 16.0031 4.89714 16.1025L6.93714 18.1416V4.5C6.93714 4.35082 6.9964 4.20774 7.10189 4.10225C7.20738 3.99676 7.35046 3.9375 7.49964 3.9375C7.64882 3.9375 7.7919 3.99676 7.89739 4.10225C8.00288 4.20774 8.06214 4.35082 8.06214 4.5V18.1416L10.1021 16.1025C10.2076 15.9972 10.3506 15.938 10.4996 15.938C10.6487 15.938 10.7917 15.9972 10.8971 16.1025ZM19.8971 7.1025L16.8971 4.1025C16.7917 3.99716 16.6487 3.93799 16.4996 3.93799C16.3506 3.93799 16.2076 3.99716 16.1021 4.1025L13.1021 7.1025C13.0028 7.20913 12.9487 7.35017 12.9513 7.49589C12.9538 7.64162 13.0129 7.78066 13.1159 7.88372C13.219 7.98678 13.358 8.04581 13.5037 8.04838C13.6495 8.05095 13.7905 7.99686 13.8971 7.8975L15.9371 5.85844V19.5C15.9371 19.6492 15.9964 19.7923 16.1019 19.8977C16.2074 20.0032 16.3505 20.0625 16.4996 20.0625C16.6488 20.0625 16.7919 20.0032 16.8974 19.8977C17.0029 19.7923 17.0621 19.6492 17.0621 19.5V5.85844L19.1021 7.8975C19.2088 7.99686 19.3498 8.05095 19.4955 8.04838C19.6413 8.04581 19.7803 7.98678 19.8834 7.88372C19.9864 7.78066 20.0455 7.64162 20.048 7.49589C20.0506 7.35017 19.9965 7.20913 19.8971 7.1025Z" fill="black"/>
</svg>
