<svg width="24" height="24" viewBox="0 0 24 24" fill="none" xmlns="http://www.w3.org/2000/svg">
<path d="M21.3971 17.6475L18.3971 20.6475C18.2917 20.7528 18.1487 20.812 17.9996 20.812C17.8506 20.812 17.7076 20.7528 17.6021 20.6475L14.6021 17.6475C14.5028 17.5409 14.4487 17.3998 14.4513 17.2541C14.4538 17.1084 14.5129 16.9693 14.6159 16.8663C14.719 16.7632 14.858 16.7042 15.0037 16.7016C15.1495 16.699 15.2905 16.7531 15.3971 16.8525L17.4371 18.8916V12.9853L11.9996 7.54781L6.56214 12.9853V18.8916L8.60214 16.8525C8.70877 16.7531 8.84981 16.699 8.99553 16.7016C9.14126 16.7042 9.2803 16.7632 9.38336 16.8663C9.48642 16.9693 9.54545 17.1084 9.54802 17.2541C9.55059 17.3998 9.4965 17.5409 9.39714 17.6475L6.39714 20.6475C6.29167 20.7528 6.1487 20.812 5.99964 20.812C5.85058 20.812 5.70761 20.7528 5.60214 20.6475L2.60214 17.6475C2.50278 17.5409 2.44869 17.3998 2.45126 17.2541C2.45383 17.1084 2.51286 16.9693 2.61592 16.8663C2.71898 16.7632 2.85802 16.7042 3.00375 16.7016C3.14947 16.699 3.29051 16.7531 3.39714 16.8525L5.43714 18.8916V12.75C5.43727 12.6009 5.49662 12.4579 5.60214 12.3525L11.4371 6.51656V2.25C11.4371 2.10082 11.4964 1.95774 11.6019 1.85225C11.7074 1.74676 11.8505 1.6875 11.9996 1.6875C12.1488 1.6875 12.2919 1.74676 12.3974 1.85225C12.5029 1.95774 12.5621 2.10082 12.5621 2.25V6.51656L18.3971 12.3525C18.5027 12.4579 18.562 12.6009 18.5621 12.75V18.8916L20.6021 16.8525C20.7088 16.7531 20.8498 16.699 20.9955 16.7016C21.1413 16.7042 21.2803 16.7632 21.3834 16.8663C21.4864 16.9693 21.5455 17.1084 21.548 17.2541C21.5506 17.3998 21.4965 17.5409 21.3971 17.6475Z" fill="black"/>
</svg>
