<svg width="24" height="24" viewBox="0 0 24 24" fill="none" xmlns="http://www.w3.org/2000/svg">
<path d="M21.563 10.5C21.5612 12.041 20.9483 13.5185 19.8586 14.6081C18.7689 15.6978 17.2915 16.3108 15.7505 16.3125H4.35892L7.89798 19.8525C7.95325 19.904 7.99757 19.9661 8.02832 20.0351C8.05906 20.1041 8.07559 20.1786 8.07693 20.2541C8.07826 20.3296 8.06436 20.4047 8.03607 20.4747C8.00778 20.5447 7.96567 20.6084 7.91226 20.6618C7.85885 20.7152 7.79522 20.7573 7.72518 20.7856C7.65514 20.8139 7.58012 20.8278 7.50459 20.8264C7.42906 20.8251 7.35458 20.8086 7.28558 20.7778C7.21658 20.7471 7.15448 20.7028 7.10298 20.6475L2.60298 16.1475C2.49764 16.042 2.43848 15.8991 2.43848 15.75C2.43848 15.6009 2.49764 15.458 2.60298 15.3525L7.10298 10.8525C7.20961 10.7531 7.35065 10.699 7.49637 10.7016C7.6421 10.7042 7.78114 10.7632 7.8842 10.8663C7.98726 10.9693 8.04629 11.1084 8.04886 11.2541C8.05143 11.3998 7.99734 11.5409 7.89798 11.6475L4.35892 15.1875H15.7505C16.9937 15.1875 18.186 14.6936 19.065 13.8146C19.9441 12.9355 20.438 11.7432 20.438 10.5C20.438 9.2568 19.9441 8.06451 19.065 7.18544C18.186 6.30636 16.9937 5.8125 15.7505 5.8125H7.50048C7.3513 5.8125 7.20822 5.75324 7.10273 5.64775C6.99724 5.54226 6.93798 5.39918 6.93798 5.25C6.93798 5.10082 6.99724 4.95774 7.10273 4.85225C7.20822 4.74676 7.3513 4.6875 7.50048 4.6875H15.7505C17.2915 4.68924 18.7689 5.30218 19.8586 6.39186C20.9483 7.48154 21.5612 8.95896 21.563 10.5Z" fill="black"/>
</svg>
