<svg width="24" height="24" viewBox="0 0 24 24" fill="none" xmlns="http://www.w3.org/2000/svg">
<path d="M19.9819 16.7897C19.9052 16.9176 19.7808 17.0098 19.6361 17.046C19.4915 17.0822 19.3383 17.0595 19.2104 16.9828L12.5626 12.9938V20.25C12.5626 20.3992 12.5033 20.5423 12.3978 20.6477C12.2923 20.7532 12.1492 20.8125 12.0001 20.8125C11.8509 20.8125 11.7078 20.7532 11.6023 20.6477C11.4968 20.5423 11.4376 20.3992 11.4376 20.25V12.9938L4.78975 16.9828C4.70207 17.0348 4.60202 17.0624 4.50006 17.0625C4.3768 17.0629 4.2568 17.0229 4.15852 16.9485C4.06024 16.8741 3.98912 16.7694 3.9561 16.6507C3.92308 16.5319 3.92999 16.4056 3.97576 16.2911C4.02153 16.1767 4.10363 16.0804 4.20944 16.0172L10.9069 12L4.21038 7.98281C4.08233 7.90598 3.99004 7.78143 3.95382 7.63656C3.91761 7.49169 3.94042 7.33836 4.01725 7.21031C4.09408 7.08226 4.21863 6.98998 4.3635 6.95376C4.50838 6.91754 4.6617 6.94036 4.78975 7.01719L11.4376 11.0063V3.75C11.4376 3.60082 11.4968 3.45774 11.6023 3.35225C11.7078 3.24676 11.8509 3.1875 12.0001 3.1875C12.1492 3.1875 12.2923 3.24676 12.3978 3.35225C12.5033 3.45774 12.5626 3.60082 12.5626 3.75V11.0063L19.2104 7.01719C19.3384 6.94036 19.4918 6.91754 19.6366 6.95376C19.7815 6.98998 19.906 7.08226 19.9829 7.21031C20.0597 7.33836 20.0825 7.49169 20.0463 7.63656C20.0101 7.78143 19.9178 7.90598 19.7898 7.98281L13.0932 12L19.7898 16.0172C19.8531 16.0553 19.9084 16.1054 19.9524 16.1649C19.9963 16.2243 20.0281 16.2918 20.046 16.3636C20.0638 16.4353 20.0674 16.5099 20.0564 16.583C20.0454 16.6561 20.0201 16.7264 19.9819 16.7897Z" fill="black"/>
</svg>
