<svg width="24" height="24" viewBox="0 0 24 24" fill="none" xmlns="http://www.w3.org/2000/svg">
<path d="M23.7417 9.22125C23.6635 8.98758 23.5211 8.78065 23.3307 8.62414C23.1404 8.46763 22.9099 8.36786 22.6655 8.33625C20.8487 8.09154 19.1043 7.46534 17.5467 6.49875L18.6811 5.36344C18.899 5.16774 19.0748 4.92968 19.1977 4.6638C19.3206 4.39792 19.3881 4.10979 19.3959 3.81698C19.4038 3.52418 19.3519 3.23284 19.2435 2.96074C19.135 2.68865 18.9723 2.4415 18.7652 2.23438C18.558 2.02726 18.3109 1.86451 18.0388 1.75606C17.7667 1.64761 17.4754 1.59574 17.1825 1.60361C16.8897 1.61147 16.6016 1.67891 16.3357 1.80181C16.0698 1.92471 15.8318 2.1005 15.6361 2.31844L14.2495 3.70031C13.9486 3.35063 13.763 3.09469 13.6945 2.99719C13.5847 2.8404 13.4418 2.70954 13.276 2.6138C13.1102 2.51806 12.9255 2.45975 12.7348 2.44295C12.5441 2.42616 12.352 2.45129 12.172 2.51659C11.9921 2.58188 11.8285 2.68576 11.693 2.82094L8.07047 6.44719C7.93544 6.58296 7.83175 6.74663 7.76668 6.92672C7.70161 7.10681 7.67674 7.29895 7.6938 7.48968C7.71086 7.6804 7.76945 7.86508 7.86545 8.03076C7.96145 8.19644 8.09255 8.3391 8.24953 8.44875C8.34328 8.51719 8.60297 8.70281 8.95266 9.00375L0.817968 17.1366C0.518088 17.4384 0.314217 17.8222 0.232022 18.2397C0.149827 18.6572 0.192984 19.0897 0.356058 19.4827C0.519131 19.8757 0.794832 20.2116 1.14845 20.4483C1.50207 20.6849 1.91779 20.8116 2.34328 20.8125C2.62619 20.8134 2.90646 20.758 3.16781 20.6497C3.42917 20.5414 3.66642 20.3823 3.86578 20.1816L11.7511 12.2972C12.7177 13.8548 13.3439 15.5992 13.5886 17.4159C13.6202 17.6603 13.72 17.8909 13.8765 18.0812C14.033 18.2715 14.2399 18.414 14.4736 18.4922C14.7048 18.5715 14.9536 18.584 15.1916 18.5283C15.4296 18.4726 15.647 18.3509 15.8189 18.1772L23.4295 10.5666C23.6027 10.3943 23.7238 10.1767 23.779 9.93878C23.8342 9.70085 23.8213 9.45218 23.7417 9.22125ZM16.4292 3.11344C16.6262 2.94172 16.881 2.85118 17.1421 2.86011C17.4033 2.86904 17.6513 2.97678 17.8361 3.16155C18.0209 3.34633 18.1286 3.59435 18.1375 3.85551C18.1465 4.11666 18.0559 4.37147 17.8842 4.56844L16.5933 5.85844C16.0383 5.45093 15.5132 5.00416 15.022 4.52156L16.4292 3.11344ZM3.06797 19.3866C2.871 19.5583 2.61619 19.6488 2.35504 19.6399C2.09388 19.631 1.84586 19.5232 1.66108 19.3384C1.47631 19.1537 1.36857 18.9056 1.35964 18.6445C1.35071 18.3833 1.44125 18.1285 1.61297 17.9316L9.76922 9.77531C10.2524 10.2655 10.6998 10.7896 11.108 11.3438L3.06797 19.3866ZM22.6317 9.77062L15.0202 17.3822C14.9967 17.4072 14.9665 17.4248 14.9331 17.4328C14.8998 17.4408 14.8649 17.4388 14.8327 17.4272C14.7978 17.416 14.767 17.3949 14.744 17.3664C14.721 17.3379 14.7068 17.3033 14.7033 17.2669C13.8905 11.1937 9.40266 7.88531 8.89359 7.52813C8.87055 7.5125 8.85127 7.49195 8.83717 7.46795C8.82306 7.44395 8.81447 7.41711 8.81203 7.38937C8.80941 7.36241 8.81285 7.3352 8.8221 7.30974C8.83134 7.28427 8.84616 7.26119 8.86547 7.24219L12.4908 3.61688C12.5255 3.58246 12.5722 3.56295 12.6211 3.5625H12.638C12.6656 3.56483 12.6924 3.57328 12.7164 3.58722C12.7404 3.60116 12.761 3.62026 12.7767 3.64313C13.1339 4.15219 16.4423 8.64 22.5155 9.45562C22.5519 9.45919 22.5865 9.47333 22.615 9.49632C22.6435 9.51931 22.6646 9.55014 22.6758 9.585C22.6874 9.61686 22.6894 9.65142 22.6816 9.68441C22.6737 9.71741 22.6564 9.74738 22.6317 9.77062Z" fill="black"/>
</svg>
