<svg width="24" height="24" viewBox="0 0 24 24" fill="none" xmlns="http://www.w3.org/2000/svg">
<path d="M17.0385 12L19.7694 9.26906C20.1013 8.9385 20.3648 8.54572 20.5448 8.1132C20.7247 7.68069 20.8176 7.21693 20.8181 6.74847C20.8185 6.28002 20.7266 5.81607 20.5476 5.38318C20.3685 4.95029 20.1059 4.55696 19.7746 4.22571C19.4434 3.89447 19.0501 3.6318 18.6172 3.45275C18.1843 3.27371 17.7203 3.1818 17.2519 3.18228C16.7834 3.18277 16.3197 3.27564 15.8871 3.45558C15.4546 3.63553 15.0618 3.89901 14.7313 4.23094L12.0003 6.96188L9.2694 4.23094C8.93884 3.89901 8.54606 3.63553 8.11354 3.45558C7.68102 3.27564 7.21726 3.18277 6.74881 3.18228C6.28035 3.1818 5.8164 3.27371 5.38351 3.45275C4.95062 3.6318 4.5573 3.89447 4.22605 4.22571C3.8948 4.55696 3.63214 4.95029 3.45309 5.38318C3.27404 5.81607 3.18213 6.28002 3.18262 6.74847C3.1831 7.21693 3.27598 7.68069 3.45592 8.1132C3.63586 8.54572 3.89934 8.9385 4.23127 9.26906L6.96221 12L4.23127 14.7309C3.89934 15.0615 3.63586 15.4543 3.45592 15.8868C3.27598 16.3193 3.1831 16.7831 3.18262 17.2515C3.18213 17.72 3.27404 18.1839 3.45309 18.6168C3.63214 19.0497 3.8948 19.443 4.22605 19.7743C4.5573 20.1055 4.95062 20.3682 5.38351 20.5472C5.8164 20.7263 6.28035 20.8182 6.74881 20.8177C7.21726 20.8172 7.68102 20.7244 8.11354 20.5444C8.54606 20.3645 8.93884 20.101 9.2694 19.7691L12.0003 17.0381L14.7313 19.7691C15.0618 20.101 15.4546 20.3645 15.8871 20.5444C16.3197 20.7244 16.7834 20.8172 17.2519 20.8177C17.7203 20.8182 18.1843 20.7263 18.6172 20.5472C19.0501 20.3682 19.4434 20.1055 19.7746 19.7743C20.1059 19.443 20.3685 19.0497 20.5476 18.6168C20.7266 18.1839 20.8185 17.72 20.8181 17.2515C20.8176 16.7831 20.7247 16.3193 20.5448 15.8868C20.3648 15.4543 20.1013 15.0615 19.7694 14.7309L17.0385 12ZM15.5272 5.02688C15.7522 4.79471 16.0212 4.60964 16.3185 4.48243C16.6157 4.35522 16.9353 4.28843 17.2586 4.28593C17.5819 4.28343 17.9025 4.34527 18.2017 4.46787C18.5009 4.59047 18.7727 4.77136 19.0013 5.00001C19.2299 5.22867 19.4107 5.50052 19.5332 5.79974C19.6557 6.09895 19.7175 6.41955 19.7149 6.74286C19.7123 7.06618 19.6454 7.38575 19.5181 7.68296C19.3908 7.98018 19.2057 8.2491 18.9735 8.47406L16.2425 11.205L12.7963 7.75781L15.5272 5.02688ZM15.4475 12L12.0003 15.4472L8.55315 12L12.0003 8.55281L15.4475 12ZM5.02721 8.47313C4.79239 8.24877 4.60477 7.97975 4.47537 7.68187C4.34597 7.38399 4.27741 7.06325 4.27371 6.7385C4.27001 6.41374 4.33124 6.09153 4.45382 5.79077C4.57639 5.49002 4.75783 5.21679 4.98748 4.98714C5.21713 4.75749 5.49035 4.57605 5.79111 4.45348C6.09186 4.33091 6.41408 4.26967 6.73883 4.27337C7.06358 4.27708 7.38432 4.34564 7.6822 4.47503C7.98009 4.60443 8.24911 4.79205 8.47346 5.02688L11.2044 7.75781L7.75815 11.205L5.02721 8.47313ZM8.47346 18.9731C8.24911 19.208 7.98009 19.3956 7.6822 19.525C7.38432 19.6544 7.06358 19.7229 6.73883 19.7266C6.41408 19.7303 6.09186 19.6691 5.79111 19.5465C5.49035 19.424 5.21713 19.2425 4.98748 19.0129C4.75783 18.7832 4.57639 18.51 4.45382 18.2092C4.33124 17.9085 4.27001 17.5863 4.27371 17.2615C4.27741 16.9368 4.34597 16.616 4.47537 16.3181C4.60477 16.0203 4.79239 15.7512 5.02721 15.5269L7.75815 12.7959L11.2044 16.2422L8.47346 18.9731ZM18.9735 18.9731C18.5164 19.43 17.8966 19.6866 17.2503 19.6866C16.6041 19.6866 15.9843 19.43 15.5272 18.9731L12.7953 16.2422L16.2425 12.795L18.9735 15.5269C19.4303 15.984 19.6869 16.6038 19.6869 17.25C19.6869 17.8962 19.4303 18.516 18.9735 18.9731ZM11.0628 12C11.0628 11.8146 11.1178 11.6333 11.2208 11.4792C11.3238 11.325 11.4703 11.2048 11.6416 11.1339C11.8129 11.0629 12.0014 11.0443 12.1832 11.0805C12.3651 11.1167 12.5321 11.206 12.6633 11.3371C12.7944 11.4682 12.8836 11.6352 12.9198 11.8171C12.956 11.999 12.9374 12.1875 12.8665 12.3588C12.7955 12.5301 12.6754 12.6765 12.5212 12.7795C12.367 12.8825 12.1858 12.9375 12.0003 12.9375C11.7517 12.9375 11.5132 12.8387 11.3374 12.6629C11.1616 12.4871 11.0628 12.2486 11.0628 12Z" fill="black"/>
</svg>
