<svg width="24" height="24" viewBox="0 0 24 24" fill="none" xmlns="http://www.w3.org/2000/svg">
<path d="M2.25 9.5625H4.6875V15.9375H3C2.85082 15.9375 2.70774 15.9968 2.60225 16.1023C2.49676 16.2077 2.4375 16.3508 2.4375 16.5C2.4375 16.6492 2.49676 16.7923 2.60225 16.8977C2.70774 17.0032 2.85082 17.0625 3 17.0625H21C21.1492 17.0625 21.2923 17.0032 21.3977 16.8977C21.5032 16.7923 21.5625 16.6492 21.5625 16.5C21.5625 16.3508 21.5032 16.2077 21.3977 16.1023C21.2923 15.9968 21.1492 15.9375 21 15.9375H19.3125V9.5625H21.75C21.8724 9.56241 21.9915 9.52237 22.0891 9.44846C22.1867 9.37455 22.2576 9.27081 22.2909 9.15299C22.3242 9.03516 22.3181 8.90969 22.2736 8.79562C22.2291 8.68155 22.1487 8.58511 22.0444 8.52094L12.2944 2.52094C12.2058 2.46655 12.1039 2.43776 12 2.43776C11.8961 2.43776 11.7942 2.46655 11.7056 2.52094L1.95563 8.52094C1.85135 8.58511 1.77085 8.68155 1.72637 8.79562C1.68188 8.90969 1.67583 9.03516 1.70913 9.15299C1.74243 9.27081 1.81326 9.37455 1.91088 9.44846C2.00849 9.52237 2.12756 9.56241 2.25 9.5625ZM5.8125 9.5625H9.1875V15.9375H5.8125V9.5625ZM13.6875 9.5625V15.9375H10.3125V9.5625H13.6875ZM18.1875 15.9375H14.8125V9.5625H18.1875V15.9375ZM12 3.65625L19.7625 8.4375H4.2375L12 3.65625ZM23.0625 19.5C23.0625 19.6492 23.0032 19.7923 22.8977 19.8977C22.7923 20.0032 22.6492 20.0625 22.5 20.0625H1.5C1.35082 20.0625 1.20774 20.0032 1.10225 19.8977C0.996763 19.7923 0.9375 19.6492 0.9375 19.5C0.9375 19.3508 0.996763 19.2077 1.10225 19.1023C1.20774 18.9968 1.35082 18.9375 1.5 18.9375H22.5C22.6492 18.9375 22.7923 18.9968 22.8977 19.1023C23.0032 19.2077 23.0625 19.3508 23.0625 19.5Z" fill="black"/>
</svg>
