<svg width="24" height="24" viewBox="0 0 24 24" fill="none" xmlns="http://www.w3.org/2000/svg">
<path d="M22.4995 18.1875H21.562V11.655L22.042 12.3272C22.0851 12.3873 22.1396 12.4383 22.2024 12.4773C22.2652 12.5163 22.3351 12.5426 22.408 12.5546C22.481 12.5666 22.5556 12.5641 22.6276 12.5473C22.6996 12.5305 22.7676 12.4997 22.8277 12.4566C22.8877 12.4135 22.9387 12.359 22.9778 12.2962C23.0168 12.2334 23.043 12.1635 23.055 12.0905C23.0671 12.0176 23.0646 11.943 23.0478 11.871C23.031 11.799 23.0001 11.731 22.957 11.6709L19.207 6.42094C19.1691 6.36817 19.1225 6.32221 19.0692 6.285L12.728 1.90782C12.5109 1.76315 12.2557 1.68642 11.9949 1.68742C11.7341 1.68842 11.4795 1.76711 11.2636 1.91344L4.92984 6.28688C4.87656 6.32409 4.82996 6.37005 4.79203 6.42282L1.04203 11.6728C0.998936 11.7329 0.968102 11.8009 0.951283 11.8729C0.934465 11.9449 0.931992 12.0195 0.944006 12.0924C0.956019 12.1654 0.982284 12.2352 1.0213 12.298C1.06032 12.3608 1.11132 12.4154 1.1714 12.4584C1.23148 12.5015 1.29946 12.5324 1.37146 12.5492C1.44345 12.566 1.51806 12.5685 1.59101 12.5565C1.66396 12.5444 1.73383 12.5182 1.79663 12.4792C1.85943 12.4401 1.91394 12.3891 1.95703 12.3291L2.43703 11.655V18.1875H1.49953C1.35034 18.1875 1.20727 18.2468 1.10178 18.3523C0.99629 18.4577 0.937026 18.6008 0.937026 18.75C0.937026 18.8992 0.99629 19.0423 1.10178 19.1478C1.20727 19.2532 1.35034 19.3125 1.49953 19.3125H22.4995C22.6487 19.3125 22.7918 19.2532 22.8973 19.1478C23.0028 19.0423 23.062 18.8992 23.062 18.75C23.062 18.6008 23.0028 18.4577 22.8973 18.3523C22.7918 18.2468 22.6487 18.1875 22.4995 18.1875ZM3.56203 10.08L5.64984 7.15688L11.8955 2.84438C11.9249 2.82453 11.9594 2.81346 11.995 2.81246C12.0305 2.81147 12.0656 2.82058 12.0961 2.83875L18.3492 7.15688L20.437 10.08V18.1875H17.812V11.25C17.812 11.1008 17.7528 10.9577 17.6473 10.8523C17.5418 10.7468 17.3987 10.6875 17.2495 10.6875H6.74953C6.60034 10.6875 6.45727 10.7468 6.35178 10.8523C6.24629 10.9577 6.18703 11.1008 6.18703 11.25V18.1875H3.56203V10.08ZM11.9995 14.3091L8.50453 11.8125H15.4945L11.9995 14.3091ZM16.687 12.3403V17.6541L12.967 15L16.687 12.3403ZM11.032 15L7.31203 17.6569V12.3431L11.032 15ZM11.9995 15.6909L15.4945 18.1875H8.50453L11.9995 15.6909ZM9.93703 8.25C9.93703 8.10082 9.99629 7.95775 10.1018 7.85226C10.2073 7.74677 10.3503 7.6875 10.4995 7.6875H13.4995C13.6487 7.6875 13.7918 7.74677 13.8973 7.85226C14.0028 7.95775 14.062 8.10082 14.062 8.25C14.062 8.39919 14.0028 8.54226 13.8973 8.64775C13.7918 8.75324 13.6487 8.8125 13.4995 8.8125H10.4995C10.3503 8.8125 10.2073 8.75324 10.1018 8.64775C9.99629 8.54226 9.93703 8.39919 9.93703 8.25Z" fill="black"/>
</svg>
