<svg width="24" height="24" viewBox="0 0 24 24" fill="none" xmlns="http://www.w3.org/2000/svg">
<path d="M12.5627 11.25V16.5C12.5627 16.6492 12.5034 16.7923 12.398 16.8977C12.2925 17.0032 12.1494 17.0625 12.0002 17.0625C11.851 17.0625 11.708 17.0032 11.6025 16.8977C11.497 16.7923 11.4377 16.6492 11.4377 16.5V11.25C11.4377 11.1008 11.497 10.9577 11.6025 10.8522C11.708 10.7468 11.851 10.6875 12.0002 10.6875C12.1494 10.6875 12.2925 10.7468 12.398 10.8522C12.5034 10.9577 12.5627 11.1008 12.5627 11.25ZM16.3905 11.1937L15.8655 16.4437C15.8577 16.5175 15.8646 16.592 15.8857 16.6631C15.9069 16.7341 15.9418 16.8003 15.9886 16.8578C16.0354 16.9153 16.0931 16.963 16.1583 16.9981C16.2236 17.0332 16.2952 17.0551 16.369 17.0625H16.4261C16.5661 17.0632 16.7012 17.0117 16.8053 16.9181C16.9093 16.8245 16.9747 16.6955 16.9886 16.5562L17.5136 11.3062C17.5286 11.1578 17.4839 11.0095 17.3895 10.894C17.2951 10.7785 17.1586 10.7052 17.0102 10.6903C16.8618 10.6754 16.7135 10.72 16.598 10.8145C16.4825 10.9089 16.4092 11.0453 16.3943 11.1937H16.3905ZM7.6099 11.1937C7.59498 11.0453 7.5217 10.9089 7.40619 10.8145C7.29068 10.72 7.1424 10.6754 6.99396 10.6903C6.84552 10.7052 6.70909 10.7785 6.61468 10.894C6.52026 11.0095 6.4756 11.1578 6.49052 11.3062L7.01552 16.5562C7.02951 16.6955 7.0949 16.8245 7.19891 16.9181C7.30292 17.0117 7.43809 17.0632 7.57802 17.0625H7.63521C7.70871 17.0551 7.78003 17.0333 7.84511 16.9984C7.91019 16.9634 7.96775 16.916 8.01449 16.8588C8.06124 16.8016 8.09627 16.7358 8.11757 16.665C8.13887 16.5943 8.14603 16.5201 8.13865 16.4466L7.6099 11.1937ZM22.3127 8.32406L20.8943 18.9234C20.8523 19.2386 20.6973 19.5278 20.4581 19.7373C20.219 19.9468 19.9119 20.0623 19.594 20.0625H4.40646C4.08852 20.0623 3.78145 19.9468 3.5423 19.7373C3.30314 19.5278 3.14816 19.2386 3.10615 18.9234L1.6924 8.32406C1.68185 8.24461 1.68839 8.16383 1.7116 8.08712C1.7348 8.01041 1.77413 7.93955 1.82695 7.87928C1.87976 7.819 1.94485 7.77071 2.01785 7.73763C2.09085 7.70456 2.17007 7.68746 2.25021 7.68749H6.49521L11.5765 1.87968C11.6292 1.81983 11.6942 1.77189 11.7669 1.73906C11.8396 1.70622 11.9185 1.68924 11.9983 1.68924C12.0781 1.68924 12.157 1.70622 12.2298 1.73906C12.3025 1.77189 12.3674 1.81983 12.4202 1.87968L17.5015 7.69218H21.7502C21.8303 7.69157 21.9096 7.70807 21.9828 7.74057C22.056 7.77307 22.1214 7.82083 22.1746 7.88065C22.2279 7.94047 22.2678 8.01097 22.2916 8.08744C22.3154 8.16391 22.3226 8.24458 22.3127 8.32406ZM7.98958 7.68749H16.0108L12.0002 3.10406L7.98958 7.68749ZM21.108 8.81249H2.8924L4.21896 18.7744C4.22491 18.8198 4.24726 18.8614 4.2818 18.8915C4.31634 18.9215 4.36068 18.9379 4.40646 18.9375H19.594C19.6397 18.9379 19.6841 18.9215 19.7186 18.8915C19.7532 18.8614 19.7755 18.8198 19.7815 18.7744L21.108 8.81249Z" fill="black"/>
</svg>
