<svg width="24" height="24" viewBox="0 0 24 24" fill="none" xmlns="http://www.w3.org/2000/svg">
<path d="M20.8125 15.3159V13.5C20.8098 11.4941 20.124 9.54885 18.8681 7.9847C17.6122 6.42055 15.8611 5.33072 13.9031 4.89469C14.19 4.53618 14.3698 4.10392 14.4218 3.64769C14.4738 3.19147 14.3959 2.72984 14.197 2.31597C13.9981 1.90209 13.6864 1.55281 13.2977 1.30835C12.909 1.06389 12.4592 0.934189 12 0.934189C11.5408 0.934189 11.091 1.06389 10.7023 1.30835C10.3136 1.55281 10.0019 1.90209 9.80299 2.31597C9.60411 2.72984 9.52618 3.19147 9.57818 3.64769C9.63017 4.10392 9.80997 4.53618 10.0969 4.89469C8.13889 5.33072 6.38778 6.42055 5.13189 7.9847C3.87601 9.54885 3.19023 11.4941 3.1875 13.5V15.3159C2.96337 15.4223 2.77395 15.5899 2.64121 15.7995C2.50847 16.009 2.43784 16.2519 2.4375 16.5V19.5C2.4375 19.8481 2.57578 20.1819 2.82192 20.4281C3.06806 20.6742 3.4019 20.8125 3.75 20.8125H20.25C20.5981 20.8125 20.9319 20.6742 21.1781 20.4281C21.4242 20.1819 21.5625 19.8481 21.5625 19.5V16.5C21.5622 16.2519 21.4915 16.009 21.3588 15.7995C21.226 15.5899 21.0366 15.4223 20.8125 15.3159ZM10.6875 3.375C10.6875 3.11541 10.7645 2.86165 10.9087 2.64581C11.0529 2.42997 11.2579 2.26175 11.4977 2.16241C11.7376 2.06307 12.0015 2.03708 12.2561 2.08772C12.5107 2.13836 12.7445 2.26337 12.9281 2.44692C13.1116 2.63048 13.2366 2.86434 13.2873 3.11894C13.3379 3.37354 13.3119 3.63744 13.2126 3.87727C13.1133 4.1171 12.945 4.32208 12.7292 4.4663C12.5133 4.61052 12.2596 4.6875 12 4.6875C11.6519 4.6875 11.3181 4.54922 11.0719 4.30308C10.8258 4.05694 10.6875 3.7231 10.6875 3.375ZM12 5.8125C14.0381 5.81498 15.992 6.62571 17.4331 8.06686C18.8743 9.50801 19.685 11.4619 19.6875 13.5V15.1875H4.3125V13.5C4.31498 11.4619 5.12571 9.50801 6.56686 8.06686C8.00801 6.62571 9.96191 5.81498 12 5.8125ZM11.4375 16.3125V19.6875H7.3125V16.3125H11.4375ZM12.5625 16.3125H16.6875V19.6875H12.5625V16.3125ZM3.5625 19.5V16.5C3.5625 16.4503 3.58225 16.4026 3.61742 16.3674C3.65258 16.3323 3.70027 16.3125 3.75 16.3125H6.1875V19.6875H3.75C3.70027 19.6875 3.65258 19.6677 3.61742 19.6326C3.58225 19.5974 3.5625 19.5497 3.5625 19.5ZM20.4375 19.5C20.4375 19.5497 20.4177 19.5974 20.3826 19.6326C20.3474 19.6677 20.2997 19.6875 20.25 19.6875H17.8125V16.3125H20.25C20.2997 16.3125 20.3474 16.3323 20.3826 16.3674C20.4177 16.4026 20.4375 16.4503 20.4375 16.5V19.5Z" fill="black"/>
</svg>
