<svg width="24" height="24" viewBox="0 0 24 24" fill="none" xmlns="http://www.w3.org/2000/svg">
<path d="M22.8977 4.1025L19.8977 1.1025C19.7911 1.00314 19.6501 0.949047 19.5043 0.951618C19.3586 0.954189 19.2196 1.01322 19.1165 1.11628C19.0134 1.21934 18.9544 1.35838 18.9518 1.50411C18.9493 1.64983 19.0034 1.79087 19.1027 1.8975L19.3943 2.18906L14.0149 6.22031L10.3896 6.94594C10.2807 6.96737 10.1808 7.02092 10.1027 7.09969L2.29147 14.9128C1.90475 15.2996 1.6875 15.8241 1.6875 16.3711C1.6875 16.918 1.90475 17.4426 2.29147 17.8294L6.17084 21.7087C6.55762 22.0955 7.08218 22.3127 7.62912 22.3127C8.17607 22.3127 8.70062 22.0955 9.0874 21.7087L16.8977 13.8975C16.9765 13.8194 17.03 13.7195 17.0515 13.6106L17.7771 9.98531L21.8083 4.60594L22.0999 4.8975C22.2065 4.99686 22.3476 5.05095 22.4933 5.04838C22.639 5.04581 22.7781 4.98678 22.8811 4.88372C22.9842 4.78066 23.0432 4.64162 23.0458 4.49589C23.0484 4.35017 22.9943 4.20913 22.8949 4.1025H22.8977ZM8.29147 20.9128C8.11566 21.0886 7.87724 21.1873 7.62865 21.1873C7.38006 21.1873 7.14165 21.0886 6.96584 20.9128L3.0874 17.0344C2.91165 16.8586 2.81292 16.6202 2.81292 16.3716C2.81292 16.123 2.91165 15.8846 3.0874 15.7087L3.75022 15.0459L8.95428 20.25L8.29147 20.9128ZM9.75022 19.4541L4.54615 14.25L9.00022 9.79594L14.2043 15L9.75022 19.4541ZM16.8002 9.4125C16.7496 9.47943 16.715 9.55703 16.699 9.63937L15.9818 13.2188L15.0002 14.2041L9.79615 9L10.7815 8.01844L14.3646 7.30125C14.4469 7.2852 14.5245 7.25057 14.5915 7.2L20.2015 2.9925L21.0115 3.8025L16.8002 9.4125Z" fill="black"/>
</svg>
