<svg width="24" height="24" viewBox="0 0 24 24" fill="none" xmlns="http://www.w3.org/2000/svg">
<path d="M4.91633 3.375C4.81336 3.27942 4.67834 3.22583 4.53784 3.22479C4.39735 3.22375 4.26155 3.27532 4.15717 3.36936C4.05278 3.4634 3.98737 3.5931 3.9738 3.73294C3.96023 3.87278 3.99948 4.01264 4.08383 4.125L5.7479 5.95875C5.05208 7.10075 4.68515 8.41272 4.68758 9.75C4.68758 13.1006 3.89821 15.675 3.36758 16.5881C3.25116 16.7875 3.18938 17.014 3.18849 17.2449C3.18759 17.4758 3.2476 17.7028 3.36247 17.903C3.47734 18.1033 3.643 18.2697 3.84274 18.3855C4.04247 18.5013 4.26922 18.5623 4.50008 18.5625H17.206L19.081 20.625C19.1815 20.7354 19.3217 20.8014 19.4708 20.8084C19.6198 20.8154 19.7656 20.763 19.876 20.6625C19.9864 20.562 20.0524 20.4219 20.0594 20.2728C20.0665 20.1237 20.014 19.9779 19.9135 19.8675L4.91633 3.375ZM4.50008 17.4375C4.46748 17.438 4.43538 17.4295 4.40728 17.4129C4.37918 17.3964 4.35615 17.3725 4.34071 17.3438C4.32425 17.3152 4.31559 17.2829 4.31559 17.25C4.31559 17.2171 4.32425 17.1848 4.34071 17.1562C5.04946 15.9375 5.81258 13.0959 5.81258 9.75C5.81065 8.73214 6.06126 7.7297 6.54196 6.8325L16.1832 17.4375H4.50008ZM15.5626 21C15.5626 21.1492 15.5033 21.2923 15.3978 21.3977C15.2923 21.5032 15.1493 21.5625 15.0001 21.5625H9.00008C8.8509 21.5625 8.70783 21.5032 8.60234 21.3977C8.49685 21.2923 8.43758 21.1492 8.43758 21C8.43758 20.8508 8.49685 20.7077 8.60234 20.6023C8.70783 20.4968 8.8509 20.4375 9.00008 20.4375H15.0001C15.1493 20.4375 15.2923 20.4968 15.3978 20.6023C15.5033 20.7077 15.5626 20.8508 15.5626 21ZM19.9941 16.6294C19.9286 16.6556 19.8585 16.669 19.7879 16.6688C19.6749 16.6686 19.5646 16.6345 19.4713 16.5708C19.378 16.5071 19.306 16.4168 19.2648 16.3116C18.5898 14.595 18.1876 12.1416 18.1876 9.74906C18.1877 8.66701 17.904 7.60386 17.3649 6.66568C16.8257 5.72751 16.05 4.94712 15.1151 4.40238C14.1801 3.85764 13.1187 3.56761 12.0367 3.56121C10.9546 3.55482 9.88983 3.83229 8.94852 4.36594C8.88424 4.40409 8.813 4.42905 8.73896 4.43935C8.66492 4.44966 8.58957 4.4451 8.51731 4.42595C8.44505 4.4068 8.37734 4.37344 8.31812 4.32781C8.25891 4.28219 8.20938 4.22522 8.17243 4.16024C8.13549 4.09526 8.11186 4.02356 8.10294 3.94934C8.09402 3.87512 8.09998 3.79987 8.12048 3.72798C8.14098 3.6561 8.1756 3.58902 8.22232 3.53066C8.26904 3.47231 8.32692 3.42385 8.39258 3.38813C9.50507 2.75718 10.7636 2.42904 12.0425 2.43646C13.3214 2.44387 14.576 2.78659 15.6811 3.4304C16.7862 4.07422 17.7031 4.9966 18.3403 6.10551C18.9776 7.21441 19.3128 8.47105 19.3126 9.75C19.3126 13.0969 20.0776 15.3038 20.312 15.9009C20.3663 16.0397 20.3633 16.1943 20.3037 16.3309C20.2441 16.4675 20.1328 16.5748 19.9941 16.6294Z" fill="black"/>
</svg>
