<svg width="24" height="24" viewBox="0 0 24 24" fill="none" xmlns="http://www.w3.org/2000/svg">
<path d="M15.5627 21C15.5627 21.1492 15.5034 21.2923 15.3979 21.3977C15.2924 21.5032 15.1493 21.5625 15.0002 21.5625H9.00016C8.85098 21.5625 8.70791 21.5032 8.60242 21.3977C8.49693 21.2923 8.43766 21.1492 8.43766 21C8.43766 20.8508 8.49693 20.7077 8.60242 20.6023C8.70791 20.4968 8.85098 20.4375 9.00016 20.4375H15.0002C15.1493 20.4375 15.2924 20.4968 15.3979 20.6023C15.5034 20.7077 15.5627 20.8508 15.5627 21ZM13.5002 12.9375H11.5511L13.9689 9.31219C14.0255 9.22742 14.0579 9.12889 14.0628 9.0271C14.0678 8.92532 14.0449 8.82412 13.9968 8.7343C13.9487 8.64448 13.877 8.56943 13.7896 8.51716C13.7021 8.46488 13.6021 8.43735 13.5002 8.4375H10.5002C10.351 8.4375 10.2079 8.49676 10.1024 8.60225C9.99693 8.70774 9.93766 8.85082 9.93766 9C9.93766 9.14918 9.99693 9.29226 10.1024 9.39775C10.2079 9.50324 10.351 9.5625 10.5002 9.5625H12.4492L10.0314 13.1878C9.97486 13.2726 9.94239 13.3711 9.93748 13.4729C9.93257 13.5747 9.9554 13.6759 10.0035 13.7657C10.0517 13.8555 10.1233 13.9306 10.2108 13.9828C10.2982 14.0351 10.3983 14.0627 10.5002 14.0625H13.5002C13.6493 14.0625 13.7924 14.0032 13.8979 13.8977C14.0034 13.7923 14.0627 13.6492 14.0627 13.5C14.0627 13.3508 14.0034 13.2077 13.8979 13.1023C13.7924 12.9968 13.6493 12.9375 13.5002 12.9375ZM20.6355 17.9062C20.5217 18.1065 20.3567 18.2729 20.1573 18.3882C19.9579 18.5036 19.7314 18.5637 19.5011 18.5625H4.50016C4.26946 18.562 4.04295 18.5007 3.84348 18.3848C3.644 18.2689 3.47861 18.1024 3.36396 17.9022C3.24931 17.702 3.18946 17.4751 3.19044 17.2444C3.19142 17.0137 3.2532 16.7874 3.36954 16.5881C3.89923 15.675 4.68766 13.1006 4.68766 9.75C4.68766 7.8106 5.45809 5.95064 6.82945 4.57928C8.20081 3.20792 10.0608 2.4375 12.0002 2.4375C13.9396 2.4375 15.7995 3.20792 17.1709 4.57928C18.5422 5.95064 19.3127 7.8106 19.3127 9.75C19.3127 13.0997 20.102 15.675 20.6327 16.5881C20.7503 16.7877 20.8125 17.0151 20.813 17.2468C20.8135 17.4785 20.7522 17.7061 20.6355 17.9062ZM19.6595 17.1562C18.9499 15.9375 18.1877 13.095 18.1877 9.75C18.1877 8.10897 17.5358 6.53516 16.3754 5.37478C15.215 4.2144 13.6412 3.5625 12.0002 3.5625C10.3591 3.5625 8.78532 4.2144 7.62494 5.37478C6.46456 6.53516 5.81266 8.10897 5.81266 9.75C5.81266 13.0959 5.04954 15.9375 4.33985 17.1562C4.3234 17.1848 4.31473 17.2171 4.31473 17.25C4.31473 17.2829 4.3234 17.3152 4.33985 17.3438C4.35529 17.3725 4.37832 17.3964 4.40642 17.4129C4.43452 17.4295 4.46663 17.438 4.49923 17.4375H19.5002C19.5328 17.438 19.5649 17.4295 19.593 17.4129C19.6211 17.3964 19.6441 17.3725 19.6595 17.3438C19.676 17.3152 19.6847 17.2829 19.6847 17.25C19.6847 17.2171 19.676 17.1848 19.6595 17.1562Z" fill="black"/>
</svg>
