<svg width="24" height="24" viewBox="0 0 24 24" fill="none" xmlns="http://www.w3.org/2000/svg">
<path d="M15.5547 21C15.5547 21.1492 15.4954 21.2923 15.39 21.3977C15.2845 21.5032 15.1414 21.5625 14.9922 21.5625H8.9922C8.84302 21.5625 8.69995 21.5032 8.59446 21.3977C8.48897 21.2923 8.4297 21.1492 8.4297 21C8.4297 20.8508 8.48897 20.7077 8.59446 20.6022C8.69995 20.4968 8.84302 20.4375 8.9922 20.4375H14.9922C15.1414 20.4375 15.2845 20.4968 15.39 20.6022C15.4954 20.7077 15.5547 20.8508 15.5547 21ZM21.1506 5.74031C20.3234 4.12235 19.0806 2.75365 17.5497 1.77468C17.4238 1.70196 17.2747 1.6808 17.1335 1.71563C16.9924 1.75046 16.8702 1.83858 16.7926 1.96151C16.715 2.08445 16.6881 2.23265 16.7173 2.37504C16.7466 2.51744 16.8299 2.64297 16.9497 2.72531C18.3169 3.59322 19.4246 4.81393 20.156 6.25875C20.19 6.32431 20.2366 6.38252 20.2932 6.43006C20.3497 6.4776 20.415 6.51354 20.4855 6.53582C20.5559 6.55811 20.63 6.56631 20.7036 6.55994C20.7772 6.55358 20.8488 6.53279 20.9144 6.49875C20.9799 6.46471 21.0382 6.41809 21.0857 6.36155C21.1332 6.30501 21.1692 6.23966 21.1915 6.16923C21.2138 6.09881 21.222 6.02468 21.2156 5.95108C21.2092 5.87749 21.1884 5.80587 21.1544 5.74031H21.1506ZM3.84345 6.25875C4.57485 4.81393 5.68253 3.59322 7.0497 2.72531C7.16951 2.64297 7.25278 2.51744 7.28207 2.37504C7.31135 2.23265 7.28436 2.08445 7.20677 1.96151C7.12918 1.83858 7.00701 1.75046 6.86587 1.71563C6.72473 1.6808 6.57558 1.70196 6.44971 1.77468C4.9188 2.75365 3.67597 4.12235 2.84877 5.74031C2.80778 5.80609 2.78083 5.87963 2.7696 5.95631C2.75838 6.033 2.76312 6.11118 2.78354 6.18595C2.80395 6.26071 2.8396 6.33045 2.88823 6.3908C2.93687 6.45114 2.99746 6.50077 3.06619 6.5366C3.13492 6.57242 3.21031 6.59365 3.28763 6.59896C3.36495 6.60427 3.44253 6.59355 3.51552 6.56746C3.5885 6.54137 3.6553 6.50048 3.71173 6.44736C3.76816 6.39423 3.81301 6.33002 3.84345 6.25875ZM20.6247 16.5872C20.741 16.786 20.803 17.012 20.8044 17.2423C20.8057 17.4727 20.7464 17.6994 20.6324 17.8996C20.5184 18.0998 20.3537 18.2664 20.1548 18.3828C19.956 18.4991 19.7301 18.5611 19.4997 18.5625H4.4997C4.26982 18.5614 4.04425 18.5 3.84557 18.3844C3.64688 18.2688 3.48205 18.103 3.36756 17.9036C3.25308 17.7043 3.19297 17.4784 3.19323 17.2485C3.1935 17.0186 3.25414 16.7928 3.36908 16.5937C4.23064 15.1012 4.6872 12.9956 4.6872 10.5C4.6872 8.5606 5.45763 6.70064 6.82899 5.32928C8.20035 3.95792 10.0603 3.1875 11.9997 3.1875C13.9391 3.1875 15.7991 3.95792 17.1704 5.32928C18.5418 6.70064 19.3122 8.5606 19.3122 10.5C19.3122 13.0312 19.7566 15.0787 20.6322 16.5872H20.6247ZM19.6525 17.1497C18.6831 15.4687 18.1872 13.2319 18.1872 10.5C18.1872 8.85897 17.5353 7.28516 16.3749 6.12477C15.2145 4.96439 13.6407 4.3125 11.9997 4.3125C10.3587 4.3125 8.78486 4.96439 7.62448 6.12477C6.4641 7.28516 5.8122 8.85897 5.8122 10.5C5.8122 13.2337 5.31627 15.4687 4.33939 17.1562C4.32294 17.1847 4.31427 17.2171 4.31427 17.25C4.31427 17.2829 4.32294 17.3152 4.33939 17.3437C4.35483 17.3725 4.37786 17.3964 4.40596 17.4129C4.43407 17.4295 4.46617 17.438 4.49877 17.4375H19.4997C19.5323 17.438 19.5644 17.4295 19.5925 17.4129C19.6206 17.3964 19.6436 17.3725 19.6591 17.3437C19.6757 17.3153 19.6845 17.283 19.6847 17.2501C19.6848 17.2172 19.6763 17.1848 19.66 17.1562L19.6525 17.1497Z" fill="black"/>
</svg>
