<svg width="24" height="24" viewBox="0 0 24 24" fill="none" xmlns="http://www.w3.org/2000/svg">
<path d="M20.9109 6.49969C20.7788 6.56719 20.6253 6.57974 20.4839 6.53461C20.3426 6.48948 20.2248 6.39033 20.1562 6.25875C19.4247 4.81428 18.317 3.5939 16.95 2.72625C16.8256 2.64588 16.7379 2.51968 16.7059 2.37506C16.674 2.23043 16.7004 2.07904 16.7794 1.95376C16.8584 1.82848 16.9836 1.7394 17.1279 1.70588C17.2721 1.67235 17.4238 1.69708 17.55 1.77469C19.0809 2.75402 20.3237 4.12303 21.1509 5.74125C21.1849 5.80681 21.2057 5.87843 21.2121 5.95203C21.2185 6.02562 21.2103 6.09975 21.188 6.17018C21.1657 6.2406 21.1297 6.30595 21.0822 6.36249C21.0347 6.41903 20.9765 6.46565 20.9109 6.49969ZM3.84371 6.25875C4.57524 4.81428 5.68291 3.5939 7.04996 2.72625C7.17436 2.64588 7.26205 2.51968 7.29398 2.37506C7.32592 2.23043 7.29952 2.07904 7.22052 1.95376C7.14153 1.82848 7.01631 1.7394 6.87204 1.70588C6.72777 1.67235 6.57611 1.69708 6.44996 1.77469C4.91902 2.75402 3.6762 4.12303 2.84902 5.74125C2.80764 5.80706 2.78035 5.88072 2.76887 5.9576C2.75738 6.03449 2.76196 6.11291 2.78231 6.18794C2.80266 6.26296 2.83834 6.33295 2.88709 6.3935C2.93585 6.45404 2.99662 6.50382 3.06558 6.5397C3.13454 6.57558 3.21019 6.59677 3.28775 6.60194C3.36531 6.60712 3.4431 6.59616 3.51622 6.56976C3.58933 6.54337 3.65618 6.5021 3.71255 6.44857C3.76892 6.39504 3.81357 6.33041 3.84371 6.25875ZM20.625 16.5881C20.7411 16.7869 20.8028 17.0128 20.8041 17.243C20.8053 17.4733 20.7459 17.6998 20.632 17.8998C20.518 18.0999 20.3534 18.2664 20.1547 18.3827C19.956 18.499 19.7302 18.561 19.5 18.5625H15.5156C15.379 19.3964 14.9504 20.1545 14.3064 20.7016C13.6624 21.2486 12.8449 21.549 12 21.549C11.155 21.549 10.3375 21.2486 9.69351 20.7016C9.04953 20.1545 8.62096 19.3964 8.48433 18.5625H4.49996C4.26925 18.562 4.04275 18.5007 3.84327 18.3848C3.6438 18.2689 3.4784 18.1024 3.36375 17.9022C3.24911 17.702 3.18926 17.4751 3.19024 17.2444C3.19122 17.0137 3.25299 16.7874 3.36933 16.5881C4.2309 15.1022 4.68746 12.9966 4.68746 10.5C4.68746 8.56061 5.45788 6.70064 6.82924 5.32928C8.2006 3.95792 10.0606 3.1875 12 3.1875C13.9394 3.1875 15.7993 3.95792 17.1707 5.32928C18.542 6.70064 19.3125 8.56061 19.3125 10.5C19.3125 13.0313 19.7568 15.0806 20.6325 16.5881H20.625ZM14.3709 18.5625H9.62902C9.75623 19.0956 10.0594 19.5703 10.4896 19.9099C10.9198 20.2495 11.4519 20.4343 12 20.4343C12.548 20.4343 13.0801 20.2495 13.5103 19.9099C13.9405 19.5703 14.2437 19.0956 14.3709 18.5625ZM19.6603 17.1563C18.6834 15.4688 18.1875 13.2328 18.1875 10.5C18.1875 8.85897 17.5356 7.28516 16.3752 6.12478C15.2148 4.9644 13.641 4.3125 12 4.3125C10.3589 4.3125 8.78512 4.9644 7.62474 6.12478C6.46435 7.28516 5.81246 8.85897 5.81246 10.5C5.81246 13.2338 5.31652 15.4688 4.33965 17.1563C4.32319 17.1848 4.31453 17.2171 4.31453 17.25C4.31453 17.2829 4.32319 17.3152 4.33965 17.3438C4.35509 17.3725 4.37811 17.3964 4.40622 17.4129C4.43432 17.4295 4.46642 17.438 4.49902 17.4375H19.5C19.5326 17.438 19.5647 17.4295 19.5928 17.4129C19.6209 17.3964 19.6439 17.3725 19.6593 17.3438C19.6759 17.3153 19.6848 17.283 19.6849 17.2501C19.6851 17.2172 19.6766 17.1848 19.6603 17.1563Z" fill="black"/>
</svg>
