<svg width="24" height="24" viewBox="0 0 24 24" fill="none" xmlns="http://www.w3.org/2000/svg">
<path d="M14.0627 13.5C14.0627 13.6492 14.0034 13.7923 13.8979 13.8977C13.7924 14.0032 13.6493 14.0625 13.5002 14.0625H10.5002C10.3983 14.0627 10.2982 14.0351 10.2108 13.9828C10.1233 13.9306 10.0517 13.8555 10.0035 13.7657C9.9554 13.6759 9.93257 13.5747 9.93748 13.4729C9.94239 13.3711 9.97486 13.2726 10.0314 13.1878L12.4492 9.5625H10.5002C10.351 9.5625 10.2079 9.50324 10.1024 9.39775C9.99693 9.29226 9.93766 9.14918 9.93766 9C9.93766 8.85082 9.99693 8.70774 10.1024 8.60225C10.2079 8.49676 10.351 8.4375 10.5002 8.4375H13.5002C13.6021 8.43735 13.7021 8.46488 13.7896 8.51716C13.877 8.56943 13.9487 8.64448 13.9968 8.7343C14.0449 8.82412 14.0678 8.92532 14.0628 9.0271C14.0579 9.12889 14.0255 9.22742 13.9689 9.31219L11.5511 12.9375H13.5002C13.6493 12.9375 13.7924 12.9968 13.8979 13.1023C14.0034 13.2077 14.0627 13.3508 14.0627 13.5ZM20.6355 17.9062C20.5217 18.1065 20.3567 18.2729 20.1573 18.3882C19.9579 18.5036 19.7314 18.5637 19.5011 18.5625H15.5177C15.381 19.3964 14.9525 20.1545 14.3085 20.7016C13.6645 21.2486 12.847 21.549 12.002 21.549C11.1571 21.549 10.3396 21.2486 9.69559 20.7016C9.05161 20.1545 8.62304 19.3964 8.48641 18.5625H4.50016C4.26946 18.562 4.04295 18.5007 3.84348 18.3848C3.644 18.2689 3.47861 18.1024 3.36396 17.9022C3.24931 17.702 3.18946 17.4751 3.19044 17.2444C3.19142 17.0137 3.2532 16.7874 3.36954 16.5881C3.89923 15.675 4.68766 13.1006 4.68766 9.75C4.68766 7.8106 5.45809 5.95064 6.82945 4.57928C8.20081 3.20792 10.0608 2.4375 12.0002 2.4375C13.9396 2.4375 15.7995 3.20792 17.1709 4.57928C18.5422 5.95064 19.3127 7.8106 19.3127 9.75C19.3127 13.0997 20.102 15.675 20.6327 16.5881C20.7503 16.7877 20.8125 17.0151 20.813 17.2468C20.8135 17.4785 20.7522 17.7061 20.6355 17.9062ZM14.3711 18.5625H9.62923C9.75644 19.0956 10.0596 19.5703 10.4898 19.9099C10.92 20.2495 11.4521 20.4343 12.0002 20.4343C12.5483 20.4343 13.0803 20.2495 13.5105 19.9099C13.9407 19.5703 14.2439 19.0956 14.3711 18.5625ZM19.6595 17.1562C18.9499 15.9375 18.1877 13.095 18.1877 9.75C18.1877 8.10897 17.5358 6.53516 16.3754 5.37478C15.215 4.2144 13.6412 3.5625 12.0002 3.5625C10.3591 3.5625 8.78532 4.2144 7.62494 5.37478C6.46456 6.53516 5.81266 8.10897 5.81266 9.75C5.81266 13.0959 5.04954 15.9375 4.33985 17.1562C4.3234 17.1848 4.31473 17.2171 4.31473 17.25C4.31473 17.2829 4.3234 17.3152 4.33985 17.3438C4.35529 17.3725 4.37832 17.3964 4.40642 17.4129C4.43452 17.4295 4.46663 17.438 4.49923 17.4375H19.5002C19.5328 17.438 19.5649 17.4295 19.593 17.4129C19.6211 17.3964 19.6441 17.3725 19.6595 17.3438C19.676 17.3152 19.6847 17.2829 19.6847 17.25C19.6847 17.2171 19.676 17.1848 19.6595 17.1562Z" fill="black"/>
</svg>
