<svg width="24" height="24" viewBox="0 0 24 24" fill="none" xmlns="http://www.w3.org/2000/svg">
<path d="M20.5724 13.7062C20.2861 12.5231 19.7596 11.4116 19.0254 10.4407C18.2913 9.46976 17.3652 8.66025 16.3049 8.0625H22.4999C22.6491 8.0625 22.7921 8.00323 22.8976 7.89774C23.0031 7.79225 23.0624 7.64918 23.0624 7.5C23.0624 7.35081 23.0031 7.20774 22.8976 7.10225C22.7921 6.99676 22.6491 6.9375 22.4999 6.9375H14.7561C14.627 6.30171 14.2821 5.7301 13.7798 5.31953C13.2774 4.90896 12.6486 4.68468 11.9999 4.68468C11.3511 4.68468 10.7223 4.90896 10.22 5.31953C9.71766 5.7301 9.37273 6.30171 9.24362 6.9375H1.49987C1.35069 6.9375 1.20762 6.99676 1.10213 7.10225C0.996638 7.20774 0.937375 7.35081 0.937375 7.5C0.937375 7.64918 0.996638 7.79225 1.10213 7.89774C1.20762 8.00323 1.35069 8.0625 1.49987 8.0625H7.69487C6.63453 8.66025 5.70848 9.46976 4.97433 10.4407C4.24018 11.4116 3.71361 12.5231 3.42737 13.7062C2.73553 13.7859 2.09784 14.1194 1.63775 14.6422C1.17765 15.1649 0.927866 15.8398 0.936753 16.5362C0.945639 17.2325 1.21256 17.9008 1.68585 18.4117C2.15914 18.9226 2.80513 19.2397 3.49878 19.3016C4.19243 19.3636 4.8844 19.166 5.44074 18.7471C5.99709 18.3282 6.37823 17.7178 6.51041 17.0341C6.64258 16.3503 6.51637 15.6418 6.15622 15.0458C5.79607 14.4497 5.22758 14.0085 4.56081 13.8075C4.87928 12.6036 5.48364 11.4943 6.32257 10.5739C7.1615 9.65354 8.2102 8.94927 9.37956 8.52093C9.58529 9.0485 9.94549 9.50169 10.413 9.82118C10.8805 10.1407 11.4336 10.3116 11.9999 10.3116C12.5661 10.3116 13.1192 10.1407 13.5867 9.82118C14.0543 9.50169 14.4145 9.0485 14.6202 8.52093C15.7896 8.94927 16.8382 9.65354 17.6772 10.5739C18.5161 11.4943 19.1205 12.6036 19.4389 13.8075C18.7722 14.0085 18.2037 14.4497 17.8435 15.0458C17.4834 15.6418 17.3572 16.3503 17.4893 17.0341C17.6215 17.7178 18.0027 18.3282 18.559 18.7471C19.1153 19.166 19.8073 19.3636 20.501 19.3016C21.1946 19.2397 21.8406 18.9226 22.3139 18.4117C22.7872 17.9008 23.0541 17.2325 23.063 16.5362C23.0719 15.8398 22.8221 15.1649 22.362 14.6422C21.9019 14.1194 21.2642 13.7859 20.5724 13.7062ZM5.43737 16.5C5.43737 16.8338 5.3384 17.16 5.15298 17.4375C4.96755 17.715 4.704 17.9313 4.39565 18.059C4.0873 18.1868 3.748 18.2202 3.42066 18.1551C3.09332 18.09 2.79263 17.9292 2.55663 17.6932C2.32063 17.4572 2.15991 17.1566 2.0948 16.8292C2.02969 16.5019 2.06311 16.1626 2.19083 15.8542C2.31855 15.5459 2.53484 15.2823 2.81235 15.0969C3.08986 14.9115 3.41612 14.8125 3.74987 14.8125C4.19743 14.8125 4.62665 14.9903 4.94312 15.3068C5.25958 15.6232 5.43737 16.0524 5.43737 16.5ZM11.9999 9.1875C11.6661 9.1875 11.3399 9.08853 11.0623 8.9031C10.7848 8.71768 10.5686 8.45412 10.4408 8.14577C10.3131 7.83742 10.2797 7.49812 10.3448 7.17078C10.4099 6.84344 10.5706 6.54276 10.8066 6.30675C11.0426 6.07075 11.3433 5.91003 11.6707 5.84492C11.998 5.77981 12.3373 5.81323 12.6457 5.94095C12.954 6.06867 13.2176 6.28496 13.403 6.56247C13.5884 6.83998 13.6874 7.16624 13.6874 7.5C13.6874 7.94755 13.5096 8.37677 13.1931 8.69324C12.8766 9.00971 12.4474 9.1875 11.9999 9.1875ZM20.2499 18.1875C19.9161 18.1875 19.5899 18.0885 19.3123 17.9031C19.0348 17.7177 18.8185 17.4541 18.6908 17.1458C18.5631 16.8374 18.5297 16.4981 18.5948 16.1708C18.6599 15.8434 18.8206 15.5428 19.0566 15.3068C19.2926 15.0708 19.5933 14.91 19.9207 14.8449C20.248 14.7798 20.5873 14.8132 20.8957 14.9409C21.204 15.0687 21.4676 15.285 21.653 15.5625C21.8384 15.84 21.9374 16.1662 21.9374 16.5C21.9374 16.9475 21.7596 17.3768 21.4431 17.6932C21.1266 18.0097 20.6974 18.1875 20.2499 18.1875Z" fill="black"/>
</svg>
