<svg width="24" height="24" viewBox="0 0 24 24" fill="none" xmlns="http://www.w3.org/2000/svg">
<path d="M11.4141 3.86344C10.8019 2.93062 9.90188 2.4375 8.8125 2.4375C7.72312 2.4375 6.82313 2.93062 6.21094 3.86344C5.71219 4.62281 5.4375 5.64844 5.4375 6.75C5.4375 7.85156 5.71219 8.87719 6.21094 9.63656C6.82313 10.5694 7.72312 11.0625 8.8125 11.0625C9.90188 11.0625 10.8019 10.5694 11.4141 9.63656C11.9128 8.87719 12.1875 7.85531 12.1875 6.75C12.1875 5.64469 11.9128 4.62281 11.4141 3.86344ZM8.8125 9.9375C7.03125 9.9375 6.5625 7.93406 6.5625 6.75C6.5625 5.56594 7.03125 3.5625 8.8125 3.5625C10.5938 3.5625 11.0625 5.56594 11.0625 6.75C11.0625 7.93406 10.5938 9.9375 8.8125 9.9375ZM18.1641 14.3634C17.5519 13.4306 16.6519 12.9375 15.5625 12.9375C14.4731 12.9375 13.5731 13.4306 12.9609 14.3634C12.4622 15.1228 12.1875 16.1447 12.1875 17.25C12.1875 18.3553 12.4622 19.3772 12.9609 20.1366C13.5731 21.0741 14.4731 21.5625 15.5625 21.5625C16.6519 21.5625 17.5519 21.0694 18.1641 20.1366C18.6628 19.3772 18.9375 18.3553 18.9375 17.25C18.9375 16.1447 18.6628 15.1228 18.1641 14.3634ZM15.5625 20.4375C13.7859 20.4375 13.3125 18.4341 13.3125 17.25C13.3125 16.0659 13.7859 14.0625 15.5625 14.0625C17.3391 14.0625 17.8125 16.0659 17.8125 17.25C17.8125 18.4341 17.3438 20.4375 15.5625 20.4375ZM13.7578 4.52344C13.722 4.45881 13.6992 4.38775 13.6908 4.31432C13.6824 4.24089 13.6886 4.16652 13.709 4.09548C13.7293 4.02443 13.7635 3.9581 13.8095 3.90027C13.8556 3.84243 13.9125 3.79424 13.9772 3.75844L16.2272 2.50781C16.3128 2.46031 16.4094 2.436 16.5073 2.43727C16.6053 2.43855 16.7012 2.46538 16.7856 2.5151C16.8699 2.56482 16.9399 2.63571 16.9884 2.72076C17.037 2.8058 17.0625 2.90206 17.0625 3V10.5C17.0625 10.6492 17.0032 10.7923 16.8977 10.8977C16.7923 11.0032 16.6492 11.0625 16.5 11.0625C16.3508 11.0625 16.2077 11.0032 16.1023 10.8977C15.9968 10.7923 15.9375 10.6492 15.9375 10.5V3.95625L14.5228 4.74187C14.4582 4.77777 14.3872 4.80059 14.3138 4.80904C14.2404 4.81749 14.1661 4.8114 14.0951 4.79112C14.024 4.77083 13.9577 4.73675 13.8998 4.69082C13.8419 4.64489 13.7937 4.58802 13.7578 4.52344ZM9.5625 13.5V21C9.5625 21.1492 9.50324 21.2923 9.39775 21.3977C9.29226 21.5032 9.14918 21.5625 9 21.5625C8.85082 21.5625 8.70774 21.5032 8.60225 21.3977C8.49676 21.2923 8.4375 21.1492 8.4375 21V14.4562L7.02281 15.2419C6.95812 15.2799 6.88647 15.3046 6.81209 15.3145C6.73771 15.3244 6.6621 15.3193 6.58972 15.2995C6.51733 15.2798 6.44963 15.2457 6.3906 15.1994C6.33157 15.1531 6.28241 15.0954 6.24601 15.0298C6.2096 14.9642 6.1867 14.8919 6.17863 14.8173C6.17057 14.7427 6.17751 14.6673 6.19906 14.5954C6.2206 14.5235 6.2563 14.4567 6.30407 14.3988C6.35183 14.3409 6.4107 14.2932 6.47719 14.2584L8.72719 13.0078C8.81284 12.9603 8.90941 12.936 9.00734 12.9373C9.10527 12.9386 9.20117 12.9654 9.28556 13.0151C9.36994 13.0648 9.43987 13.1357 9.48845 13.2208C9.53702 13.3058 9.56255 13.4021 9.5625 13.5Z" fill="black"/>
</svg>
