<svg width="24" height="24" viewBox="0 0 24 24" fill="none" xmlns="http://www.w3.org/2000/svg">
<path d="M21.8437 13.8038L17.9466 4.93125C17.9185 4.86728 17.8787 4.8091 17.8294 4.75969C17.3019 4.23243 16.5867 3.93623 15.8409 3.93623C15.0952 3.93623 14.3799 4.23243 13.8525 4.75969C13.7472 4.86485 13.6879 5.00744 13.6875 5.15625V7.6875H10.3125V5.15625C10.3125 5.08225 10.298 5.00896 10.2697 4.94059C10.2414 4.87222 10.1999 4.81011 10.1475 4.75781C9.62007 4.23055 8.90483 3.93435 8.15905 3.93435C7.41328 3.93435 6.69804 4.23055 6.17062 4.75781C6.12124 4.80723 6.0815 4.86541 6.05343 4.92938L2.15624 13.8038C1.86053 14.3851 1.70052 15.0259 1.68826 15.678C1.676 16.3301 1.81182 16.9765 2.08548 17.5685C2.35914 18.1605 2.76352 18.6828 3.26818 19.0959C3.77284 19.5091 4.36465 19.8024 4.99905 19.9538C5.63345 20.1052 6.29393 20.1107 6.93077 19.9699C7.56761 19.8291 8.16423 19.5457 8.67572 19.1411C9.18722 18.7364 9.60026 18.221 9.88377 17.6336C10.1673 17.0462 10.3139 16.4022 10.3125 15.75V8.8125H13.6875V15.75C13.6861 16.4022 13.8327 17.0462 14.1162 17.6336C14.3997 18.221 14.8128 18.7364 15.3243 19.1411C15.8357 19.5457 16.4324 19.8291 17.0692 19.9699C17.7061 20.1107 18.3665 20.1052 19.0009 19.9538C19.6353 19.8024 20.2271 19.5091 20.7318 19.0959C21.2365 18.6828 21.6408 18.1605 21.9145 17.5685C22.1882 16.9765 22.324 16.3301 22.3117 15.678C22.2995 15.0259 22.1395 14.3851 21.8437 13.8038ZM5.99999 18.9375C5.36956 18.9375 4.75329 18.7506 4.22911 18.4003C3.70493 18.0501 3.29638 17.5522 3.05512 16.9698C2.81387 16.3874 2.75075 15.7465 2.87374 15.1281C2.99673 14.5098 3.30031 13.9419 3.74609 13.4961C4.19187 13.0503 4.75983 12.7467 5.37814 12.6237C5.99645 12.5008 6.63735 12.5639 7.21979 12.8051C7.80223 13.0464 8.30005 13.4549 8.6503 13.9791C9.00055 14.5033 9.18749 15.1196 9.18749 15.75C9.18749 16.5954 8.85167 17.4061 8.25389 18.0039C7.65612 18.6017 6.84537 18.9375 5.99999 18.9375ZM5.99999 11.4375C5.40101 11.4373 4.80861 11.5625 4.26093 11.805L7.03687 5.48813C7.33024 5.22685 7.70557 5.07612 8.09816 5.06191C8.49076 5.04771 8.87601 5.17092 9.18749 5.41031V12.8438C8.78362 12.4 8.2914 12.0457 7.74246 11.8035C7.19351 11.5614 6.59998 11.4367 5.99999 11.4375ZM14.8125 5.41125C15.124 5.17186 15.5092 5.04865 15.9018 5.06285C16.2944 5.07705 16.6697 5.22779 16.9631 5.48906L19.7391 11.805C18.9128 11.4389 17.9923 11.3422 17.108 11.5286C16.2237 11.7151 15.4206 12.1752 14.8125 12.8438V5.41125ZM18 18.9375C17.3696 18.9375 16.7533 18.7506 16.2291 18.4003C15.7049 18.0501 15.2964 17.5522 15.0551 16.9698C14.8139 16.3874 14.7507 15.7465 14.8737 15.1281C14.9967 14.5098 15.3003 13.9419 15.7461 13.4961C16.1919 13.0503 16.7598 12.7467 17.3781 12.6237C17.9965 12.5008 18.6374 12.5639 19.2198 12.8051C19.8022 13.0464 20.3001 13.4549 20.6503 13.9791C21.0005 14.5033 21.1875 15.1196 21.1875 15.75C21.1875 16.5954 20.8517 17.4061 20.2539 18.0039C19.6561 18.6017 18.8454 18.9375 18 18.9375Z" fill="black"/>
</svg>
