<svg width="24" height="24" viewBox="0 0 24 24" fill="none" xmlns="http://www.w3.org/2000/svg">
<path d="M17.2828 9.95437C17.1735 9.71712 17.0482 9.48753 16.9078 9.26719C17.5134 7.99545 17.6018 6.53833 17.1545 5.20268C16.7072 3.86703 15.759 2.75708 14.5097 2.10656C14.444 2.07014 14.3717 2.04725 14.297 2.03922C14.2223 2.0312 14.1468 2.03822 14.0749 2.05986C14.0029 2.0815 13.9361 2.11732 13.8782 2.16522C13.8204 2.21311 13.7727 2.27211 13.738 2.33873C13.7033 2.40535 13.6823 2.47824 13.6763 2.55311C13.6702 2.62797 13.6792 2.70329 13.7027 2.77462C13.7262 2.84595 13.7638 2.91185 13.8132 2.96844C13.8626 3.02502 13.9228 3.07113 13.9903 3.10406C14.895 3.57513 15.6035 4.35164 15.9899 5.29566C16.3762 6.23968 16.4155 7.2901 16.1006 8.26031C15.0126 7.17293 13.5373 6.56209 11.9991 6.56209C10.4608 6.56209 8.98552 7.17293 7.8975 8.26031C7.58279 7.28988 7.6223 6.2393 8.00902 5.29526C8.39574 4.35121 9.10461 3.57482 10.0097 3.10406C10.1379 3.03296 10.2333 2.91459 10.2756 2.77418C10.3178 2.63376 10.3036 2.4824 10.2359 2.35234C10.1681 2.22228 10.0523 2.12381 9.91304 2.0779C9.77378 2.03199 9.6221 2.04227 9.49031 2.10656C8.24032 2.75693 7.2916 3.86714 6.84408 5.20324C6.39655 6.53935 6.48517 7.99701 7.09125 9.26906C6.95069 9.48864 6.8254 9.71761 6.71625 9.95437C5.34951 10.0587 4.07245 10.6749 3.14021 11.6798C2.20797 12.6847 1.68919 14.0043 1.6875 15.375C1.6875 15.5242 1.74676 15.6673 1.85225 15.7727C1.95774 15.8782 2.10082 15.9375 2.25 15.9375C2.39918 15.9375 2.54226 15.8782 2.64775 15.7727C2.75324 15.6673 2.8125 15.5242 2.8125 15.375C2.81404 14.3711 3.16516 13.3991 3.80553 12.626C4.44589 11.8529 5.33552 11.3269 6.32156 11.1384C6.00062 12.606 6.26078 14.1408 7.04743 15.4206C7.83407 16.7003 9.086 17.6255 10.5403 18.0019C9.88311 18.8568 8.92949 19.4344 7.86745 19.621C6.80541 19.8075 5.71201 19.5894 4.80281 19.0097C4.67712 18.9291 4.52458 18.9018 4.37874 18.9337C4.2329 18.9656 4.10572 19.0542 4.02516 19.1798C3.9446 19.3055 3.91727 19.4581 3.94918 19.6039C3.98109 19.7498 4.06962 19.8769 4.19531 19.9575C4.80713 20.3483 5.49103 20.6127 6.20666 20.735C6.92229 20.8573 7.65516 20.835 8.36205 20.6695C9.06894 20.504 9.73553 20.1987 10.3225 19.7714C10.9095 19.3442 11.4049 18.8037 11.7797 18.1819C11.8519 18.1819 11.925 18.1875 11.9991 18.1875C12.0731 18.1875 12.1462 18.1875 12.2184 18.1819C12.5932 18.8037 13.0887 19.3442 13.6756 19.7714C14.2626 20.1987 14.9292 20.504 15.6361 20.6695C16.343 20.835 17.0758 20.8573 17.7915 20.735C18.5071 20.6127 19.191 20.3483 19.8028 19.9575C19.9285 19.8769 20.017 19.7498 20.0489 19.6039C20.0809 19.4581 20.0535 19.3055 19.973 19.1798C19.8924 19.0542 19.7652 18.9656 19.6194 18.9337C19.4735 18.9018 19.321 18.9291 19.1953 19.0097C18.286 19.5889 17.1926 19.8066 16.1308 19.6197C15.069 19.4328 14.1157 18.8549 13.4587 18C14.9131 17.6237 16.165 16.6985 16.9516 15.4187C17.7383 14.1389 17.9984 12.6041 17.6775 11.1366C18.664 11.3249 19.5541 11.851 20.1947 12.6246C20.8353 13.3981 21.1863 14.3707 21.1875 15.375C21.1875 15.5242 21.2468 15.6673 21.3523 15.7727C21.4577 15.8782 21.6008 15.9375 21.75 15.9375C21.8992 15.9375 22.0423 15.8782 22.1477 15.7727C22.2532 15.6673 22.3125 15.5242 22.3125 15.375C22.3108 14.0041 21.7919 12.6844 20.8594 11.6795C19.927 10.6746 18.6497 10.0585 17.2828 9.95437ZM12 7.6875C12.6799 7.68738 13.3516 7.83554 13.9683 8.12164C14.585 8.40774 15.132 8.82491 15.5709 9.34406C15.1759 9.92779 14.6437 10.4058 14.0211 10.7362C13.3985 11.0666 12.7044 11.2394 11.9995 11.2394C11.2947 11.2394 10.6006 11.0666 9.97795 10.7362C9.35533 10.4058 8.8232 9.92779 8.42813 9.34406C8.86716 8.82474 9.41422 8.40747 10.0311 8.12135C10.6481 7.83524 11.32 7.68718 12 7.6875ZM12.3563 12.3553C12.2239 12.5522 12.1049 12.7576 12 12.9703C11.895 12.7578 11.7763 12.5524 11.6447 12.3553C11.7619 12.3628 11.88 12.3675 11.9991 12.3675C12.1181 12.3675 12.2381 12.3628 12.3563 12.3553ZM7.3125 12.375C7.31369 11.9365 7.37681 11.5003 7.5 11.0794C8.57417 11.1744 9.5739 11.668 10.3026 12.4629C11.0312 13.2578 11.4361 14.2966 11.4375 15.375C11.438 15.925 11.3323 16.47 11.1263 16.98C10.0544 16.7754 9.08734 16.2037 8.39133 15.3633C7.69531 14.5229 7.31384 13.4662 7.3125 12.375ZM12.8738 16.98C12.6677 16.47 12.562 15.925 12.5625 15.375C12.5639 14.2966 12.9688 13.2578 13.6974 12.4629C14.4261 11.668 15.4258 11.1744 16.5 11.0794C16.6802 11.706 16.7277 12.3633 16.6395 13.0092C16.5512 13.6552 16.3292 14.2757 15.9876 14.831C15.6459 15.3863 15.1922 15.8643 14.6554 16.2343C14.1186 16.6043 13.5105 16.8583 12.87 16.98H12.8738Z" fill="black"/>
</svg>
