<svg width="24" height="24" viewBox="0 0 24 24" fill="none" xmlns="http://www.w3.org/2000/svg">
<path d="M20.6659 19.875L5.66587 3.375C5.5629 3.27942 5.42788 3.22583 5.28738 3.22479C5.14689 3.22375 5.01109 3.27532 4.9067 3.36936C4.80232 3.4634 4.73691 3.5931 4.72333 3.73294C4.70976 3.87279 4.74902 4.01264 4.83337 4.125L11.6134 11.5828L5.66212 16.05C5.54278 16.1395 5.46387 16.2728 5.44278 16.4205C5.42168 16.5681 5.46011 16.7182 5.54962 16.8375C5.63913 16.9568 5.77239 17.0357 5.92007 17.0568C6.06776 17.0779 6.21778 17.0395 6.33712 16.95L11.4371 13.125V21C11.4371 21.1045 11.4662 21.2069 11.5211 21.2957C11.5761 21.3846 11.6546 21.4564 11.7481 21.5031C11.8415 21.5498 11.9461 21.5696 12.0501 21.5602C12.1542 21.5508 12.2536 21.5127 12.3371 21.45L17.2384 17.7741L19.8334 20.625C19.9338 20.7354 20.074 20.8014 20.2231 20.8084C20.3722 20.8154 20.518 20.763 20.6284 20.6625C20.7388 20.562 20.8047 20.4219 20.8118 20.2728C20.8188 20.1237 20.7663 19.9779 20.6659 19.8675V19.875ZM12.5621 19.875V13.125L13.9768 14.1853L16.4781 16.9378L12.5621 19.875ZM11.4371 6.71531V3C11.4371 2.89554 11.4662 2.79314 11.5211 2.70428C11.5761 2.61542 11.6546 2.5436 11.7481 2.49688C11.8415 2.45017 11.9461 2.43039 12.0501 2.43977C12.1542 2.44915 12.2536 2.48732 12.3371 2.55L18.3371 7.05C18.407 7.1024 18.4637 7.17034 18.5027 7.24844C18.5418 7.32655 18.5621 7.41267 18.5621 7.5C18.5621 7.58733 18.5418 7.67345 18.5027 7.75156C18.4637 7.82966 18.407 7.89761 18.3371 7.95L15.1937 10.3125C15.0743 10.402 14.9243 10.4404 14.7766 10.4193C14.629 10.3982 14.4957 10.3193 14.4062 10.2C14.3167 10.0807 14.2782 9.93064 14.2993 9.78295C14.3204 9.63527 14.3993 9.50201 14.5187 9.4125L17.0621 7.5L12.5621 4.125V6.71531C12.5621 6.8645 12.5029 7.00757 12.3974 7.11306C12.2919 7.21855 12.1488 7.27781 11.9996 7.27781C11.8504 7.27781 11.7074 7.21855 11.6019 7.11306C11.4964 7.00757 11.4371 6.8645 11.4371 6.71531Z" fill="black"/>
</svg>
