<svg width="24" height="24" viewBox="0 0 24 24" fill="none" xmlns="http://www.w3.org/2000/svg">
<path d="M21.5752 5.82844C21.2965 5.49311 20.9517 5.21875 20.5624 5.02246C20.173 4.82617 19.7474 4.71215 19.3121 4.6875C19.2829 4.20313 19.1436 3.73182 18.9046 3.30948C18.6657 2.88714 18.3335 2.52493 17.9333 2.25047C17.5331 1.976 17.0756 1.79651 16.5955 1.7257C16.1155 1.65488 15.6256 1.6946 15.1632 1.84183C14.7009 1.98906 14.2782 2.23991 13.9275 2.57526C13.5768 2.91061 13.3072 3.32161 13.1395 3.77692C12.9717 4.23223 12.9101 4.71985 12.9593 5.20259C13.0086 5.68533 13.1674 6.15045 13.4236 6.5625C13.4483 6.5985 13.4597 6.64198 13.4557 6.68544C13.4518 6.72891 13.4328 6.76965 13.4021 6.80062L6.80209 13.4062C6.77051 13.4363 6.72971 13.4548 6.68631 13.4587C6.64291 13.4626 6.59946 13.4517 6.56302 13.4278C6.15112 13.1702 5.68578 13.0102 5.20258 12.96C4.71937 12.9098 4.23108 12.9707 3.77501 13.138C3.31894 13.3054 2.90715 13.5748 2.57111 13.9256C2.23507 14.2764 1.98368 14.6995 1.83612 15.1623C1.68857 15.6252 1.64877 16.1156 1.71976 16.5962C1.79076 17.0768 1.97066 17.5348 2.24574 17.9353C2.52081 18.3357 2.88377 18.6679 3.3069 18.9066C3.73002 19.1453 4.20211 19.2842 4.68709 19.3125C4.71625 19.7969 4.85562 20.2682 5.09456 20.6905C5.33351 21.1129 5.66572 21.4751 6.06588 21.7495C6.46605 22.024 6.92359 22.2035 7.40364 22.2743C7.88369 22.3451 8.37357 22.3054 8.83594 22.1582C9.29832 22.0109 9.72097 21.7601 10.0717 21.4247C10.4224 21.0894 10.6919 20.6784 10.8597 20.2231C11.0275 19.7678 11.0891 19.2802 11.0399 18.7974C10.9906 18.3147 10.8318 17.8496 10.5755 17.4375C10.5508 17.4015 10.5395 17.358 10.5434 17.3146C10.5474 17.2711 10.5663 17.2304 10.5971 17.1994L17.1971 10.5994C17.2281 10.5686 17.2688 10.5496 17.3123 10.5457C17.3557 10.5418 17.3992 10.5531 17.4352 10.5778C18.0785 10.9834 18.8455 11.1456 19.5979 11.0352C20.3502 10.9249 21.0384 10.5492 21.538 9.97595C22.0377 9.40272 22.316 8.66976 22.3226 7.90936C22.3293 7.14896 22.0638 6.41124 21.5743 5.82937L21.5752 5.82844ZM20.6808 9.2325C20.3581 9.60181 19.9143 9.84402 19.4291 9.91566C18.9439 9.98731 18.449 9.8837 18.0333 9.62344C17.7815 9.46359 17.4826 9.39431 17.1861 9.42703C16.8896 9.45975 16.6131 9.59251 16.4021 9.80344L9.80302 16.4062C9.5921 16.6172 9.45934 16.8937 9.42662 17.1903C9.3939 17.4868 9.46317 17.7856 9.62302 18.0375C9.79901 18.3199 9.90407 18.6406 9.92924 18.9724C9.95441 19.3042 9.89894 19.6371 9.76756 19.9428C9.63617 20.2485 9.43279 20.5179 9.17475 20.7279C8.91671 20.938 8.61168 21.0825 8.2857 21.1491C7.95971 21.2158 7.62244 21.2025 7.30267 21.1106C6.9829 21.0186 6.69012 20.8507 6.44932 20.6211C6.20852 20.3915 6.02685 20.107 5.9198 19.792C5.81276 19.4769 5.78352 19.1407 5.83459 18.8119C5.84718 18.7316 5.84223 18.6495 5.82008 18.5714C5.79793 18.4932 5.7591 18.4207 5.70627 18.359C5.65344 18.2972 5.58785 18.2477 5.51403 18.2137C5.44021 18.1797 5.35991 18.1622 5.27865 18.1622C5.24948 18.1625 5.22035 18.1647 5.19146 18.1688C4.86267 18.2198 4.52641 18.1906 4.21138 18.0835C3.89634 17.9765 3.61187 17.7948 3.38226 17.554C3.15264 17.3132 2.98469 17.0204 2.89274 16.7007C2.80079 16.3809 2.78757 16.0436 2.8542 15.7176C2.92083 15.3917 3.06535 15.0866 3.2754 14.8286C3.48546 14.5705 3.75483 14.3672 4.06052 14.2358C4.36621 14.1044 4.69915 14.0489 5.03092 14.0741C5.3627 14.0993 5.68346 14.2043 5.96584 14.3803C6.21776 14.5387 6.51605 14.6068 6.81176 14.5734C7.10748 14.5401 7.38307 14.4072 7.59334 14.1966L14.1961 7.59375C14.4071 7.38278 14.5398 7.10625 14.5726 6.80973C14.6053 6.51321 14.536 6.21438 14.3761 5.9625C14.2002 5.68012 14.0951 5.35936 14.0699 5.02759C14.0448 4.69581 14.1002 4.36288 14.2316 4.05718C14.363 3.75149 14.5664 3.48213 14.8244 3.27207C15.0825 3.06201 15.3875 2.9175 15.7135 2.85086C16.0395 2.78423 16.3767 2.79745 16.6965 2.88941C17.0163 2.98136 17.3091 3.14931 17.5499 3.37892C17.7907 3.60854 17.9723 3.893 18.0794 4.20804C18.1864 4.52308 18.2157 4.85934 18.1646 5.18812C18.1508 5.27572 18.1579 5.36534 18.1854 5.44967C18.2128 5.53399 18.2598 5.61063 18.3225 5.67334C18.3852 5.73604 18.4618 5.78304 18.5462 5.81048C18.6305 5.83792 18.7201 5.84504 18.8077 5.83125C19.2268 5.76436 19.6562 5.82835 20.0376 6.0145C20.4189 6.20065 20.7335 6.49988 20.9386 6.87141C21.1436 7.24293 21.2291 7.66866 21.1833 8.09052C21.1375 8.51239 20.9627 8.90987 20.6827 9.22875L20.6808 9.2325Z" fill="black"/>
</svg>
