<svg width="24" height="24" viewBox="0 0 24 24" fill="none" xmlns="http://www.w3.org/2000/svg">
<path d="M21 9.9375H20.0409C19.8921 7.90664 18.9803 6.00732 17.4888 4.62105C15.9972 3.23479 14.0363 2.46426 12 2.46426C9.9637 2.46426 8.00281 3.23479 6.51124 4.62105C5.01967 6.00732 4.10789 7.90664 3.95906 9.9375H3C2.85082 9.9375 2.70774 9.99676 2.60225 10.1023C2.49676 10.2077 2.4375 10.3508 2.4375 10.5C2.44085 12.2686 2.93292 14.0018 3.85939 15.5083C4.78585 17.0148 6.11066 18.236 7.6875 19.0369V19.5C7.6875 19.8481 7.82578 20.1819 8.07192 20.4281C8.31806 20.6742 8.6519 20.8125 9 20.8125H15C15.3481 20.8125 15.6819 20.6742 15.9281 20.4281C16.1742 20.1819 16.3125 19.8481 16.3125 19.5V19.0369C17.8893 18.236 19.2141 17.0148 20.1406 15.5083C21.0671 14.0018 21.5592 12.2686 21.5625 10.5C21.5625 10.3508 21.5032 10.2077 21.3977 10.1023C21.2923 9.99676 21.1492 9.9375 21 9.9375ZM16.335 5.08969C16.6072 5.30769 16.8626 5.54586 17.0991 5.80219C16.0549 6.12719 15.0879 6.66146 14.257 7.37243C13.4261 8.0834 12.7488 8.95617 12.2662 9.9375H9.12562C9.56865 8.52654 10.4496 7.29338 11.6407 6.41682C12.8318 5.54027 14.2711 5.0659 15.75 5.0625C15.945 5.0625 16.1409 5.07281 16.335 5.08969ZM17.8406 6.76313C18.4539 7.71687 18.8223 8.80724 18.9131 9.9375H13.545C14.0153 9.15043 14.6372 8.46456 15.3746 7.91965C16.1119 7.37474 16.9502 6.98163 17.8406 6.76313ZM12 3.5625C12.8594 3.5611 13.7115 3.72007 14.5125 4.03125C12.9652 4.2755 11.522 4.96357 10.3581 6.01197C9.19426 7.06038 8.35966 8.42404 7.95563 9.9375H5.08687C5.23004 8.20166 6.02013 6.58295 7.30055 5.4022C8.58097 4.22145 10.2583 3.56484 12 3.5625ZM15.5156 18.1725C15.4176 18.2174 15.3346 18.2895 15.2764 18.3803C15.2183 18.471 15.1874 18.5766 15.1875 18.6844V19.5C15.1875 19.5497 15.1677 19.5974 15.1326 19.6326C15.0974 19.6677 15.0497 19.6875 15 19.6875H9C8.95027 19.6875 8.90258 19.6677 8.86742 19.6326C8.83225 19.5974 8.8125 19.5497 8.8125 19.5V18.6844C8.8126 18.5766 8.78173 18.471 8.72356 18.3803C8.66539 18.2895 8.58236 18.2174 8.48438 18.1725C7.10449 17.5361 5.9212 16.5403 5.05854 15.2894C4.19588 14.0384 3.68562 12.5785 3.58125 11.0625H20.4188C20.3144 12.5785 19.8041 14.0384 18.9415 15.2894C18.0788 16.5403 16.8955 17.5361 15.5156 18.1725Z" fill="black"/>
</svg>
