<svg width="24" height="24" viewBox="0 0 24 24" fill="none" xmlns="http://www.w3.org/2000/svg">
<path d="M21 10.6875H3C2.85082 10.6875 2.70774 10.7468 2.60225 10.8523C2.49676 10.9577 2.4375 11.1008 2.4375 11.25C2.44085 13.0186 2.93292 14.7518 3.85939 16.2583C4.78585 17.7648 6.11066 18.986 7.6875 19.7869V20.25C7.6875 20.5981 7.82578 20.9319 8.07192 21.1781C8.31806 21.4242 8.6519 21.5625 9 21.5625H15C15.3481 21.5625 15.6819 21.4242 15.9281 21.1781C16.1742 20.9319 16.3125 20.5981 16.3125 20.25V19.7869C17.8893 18.986 19.2141 17.7648 20.1406 16.2583C21.0671 14.7518 21.5592 13.0186 21.5625 11.25C21.5625 11.1008 21.5032 10.9577 21.3977 10.8523C21.2923 10.7468 21.1492 10.6875 21 10.6875ZM15.5156 18.9225C15.4178 18.9673 15.3349 19.0393 15.2767 19.1299C15.2185 19.2205 15.1876 19.3258 15.1875 19.4334V20.25C15.1875 20.2997 15.1677 20.3474 15.1326 20.3826C15.0974 20.4177 15.0497 20.4375 15 20.4375H9C8.95027 20.4375 8.90258 20.4177 8.86742 20.3826C8.83225 20.3474 8.8125 20.2997 8.8125 20.25V19.4334C8.81242 19.3258 8.78147 19.2205 8.7233 19.1299C8.66514 19.0393 8.58222 18.9673 8.48438 18.9225C7.10449 18.2861 5.9212 17.2903 5.05854 16.0394C4.19588 14.7884 3.68562 13.3285 3.58125 11.8125H20.4188C20.3144 13.3285 19.8041 14.7884 18.9415 16.0394C18.0788 17.2903 16.8955 18.2861 15.5156 18.9225ZM7.81125 5.2725C8.28469 4.68375 8.50594 4.17281 8.41875 3.86625C8.35125 3.62906 8.0775 3.53156 8.07469 3.53062C7.95029 3.48694 7.84518 3.40095 7.77773 3.28767C7.71028 3.17438 7.68476 3.041 7.70564 2.91082C7.72652 2.78063 7.79246 2.66192 7.89196 2.57541C7.99146 2.4889 8.11818 2.44009 8.25 2.4375C8.3066 2.43721 8.3629 2.44575 8.41687 2.46281C8.50219 2.48906 9.25125 2.74406 9.49312 3.53531C9.705 4.22812 9.43406 5.04937 8.68875 5.9775C8.21531 6.56625 7.99406 7.07719 8.08125 7.38375C8.14875 7.62094 8.4225 7.71844 8.42531 7.71937C8.54971 7.76305 8.65482 7.84905 8.72227 7.96233C8.78972 8.07562 8.81524 8.209 8.79436 8.33918C8.77348 8.46936 8.70754 8.58808 8.60804 8.67459C8.50854 8.7611 8.38182 8.80991 8.25 8.8125C8.1934 8.81278 8.1371 8.80424 8.08313 8.78719C7.99781 8.76094 7.24875 8.50594 7.00688 7.71469C6.795 7.02187 7.06594 6.20062 7.81125 5.2725ZM11.5612 5.2725C12.0347 4.68375 12.2559 4.17281 12.1688 3.86625C12.1013 3.62906 11.8275 3.53156 11.8247 3.53062C11.7003 3.48694 11.5952 3.40095 11.5277 3.28767C11.4603 3.17438 11.4348 3.041 11.4556 2.91082C11.4765 2.78063 11.5425 2.66192 11.642 2.57541C11.7415 2.4889 11.8682 2.44009 12 2.4375C12.0566 2.43721 12.1129 2.44575 12.1669 2.46281C12.2522 2.48906 13.0012 2.74406 13.2431 3.53531C13.455 4.22812 13.1841 5.04937 12.4387 5.9775C11.9653 6.56625 11.7441 7.07719 11.8312 7.38375C11.8987 7.62094 12.1725 7.71844 12.1753 7.71937C12.2997 7.76305 12.4048 7.84905 12.4723 7.96233C12.5397 8.07562 12.5652 8.209 12.5444 8.33918C12.5235 8.46936 12.4575 8.58808 12.358 8.67459C12.2585 8.7611 12.1318 8.80991 12 8.8125C11.9434 8.81278 11.8871 8.80424 11.8331 8.78719C11.7478 8.76094 10.9987 8.50594 10.7569 7.71469C10.545 7.02187 10.8159 6.20062 11.5612 5.2725ZM15.3113 5.2725C15.7847 4.68375 16.0059 4.17281 15.9188 3.86625C15.8513 3.62906 15.5775 3.53156 15.5747 3.53062C15.4503 3.48694 15.3452 3.40095 15.2777 3.28767C15.2103 3.17438 15.1848 3.041 15.2056 2.91082C15.2265 2.78063 15.2925 2.66192 15.392 2.57541C15.4915 2.4889 15.6182 2.44009 15.75 2.4375C15.8066 2.43721 15.8629 2.44575 15.9169 2.46281C16.0022 2.48906 16.7512 2.74406 16.9931 3.53531C17.205 4.22812 16.9341 5.04937 16.1887 5.9775C15.7153 6.56625 15.4941 7.07719 15.5812 7.38375C15.6487 7.62094 15.9225 7.71844 15.9253 7.71937C16.0497 7.76305 16.1548 7.84905 16.2223 7.96233C16.2897 8.07562 16.3152 8.209 16.2944 8.33918C16.2735 8.46936 16.2075 8.58808 16.108 8.67459C16.0085 8.7611 15.8818 8.80991 15.75 8.8125C15.6934 8.81278 15.6371 8.80424 15.5831 8.78719C15.4978 8.76094 14.7488 8.50594 14.5069 7.71469C14.295 7.02187 14.5659 6.20062 15.3113 5.2725Z" fill="black"/>
</svg>
