<svg width="24" height="24" viewBox="0 0 24 24" fill="none" xmlns="http://www.w3.org/2000/svg">
<path d="M5.29875 6C4.14656 7.63687 3.5625 9.65625 3.5625 12C3.5625 14.3438 4.14656 16.3631 5.29875 18C6.15844 19.2188 7.03219 19.7634 7.04156 19.7691C7.16532 19.848 7.25333 19.9722 7.28679 20.1151C7.32025 20.258 7.29651 20.4084 7.22065 20.534C7.14478 20.6597 7.0228 20.7507 6.88074 20.7877C6.73868 20.8247 6.58781 20.8046 6.46031 20.7319C6.29625 20.6334 2.4375 18.2466 2.4375 12C2.4375 5.75344 6.29625 3.36656 6.46031 3.26812C6.58781 3.19537 6.73868 3.17534 6.88074 3.21231C7.0228 3.24927 7.14478 3.3403 7.22065 3.46597C7.29651 3.59163 7.32025 3.74197 7.28679 3.8849C7.25333 4.02782 7.16532 4.15201 7.04156 4.23094C7.03125 4.23656 6.15844 4.78125 5.29875 6ZM17.5397 3.26812C17.4122 3.19537 17.2613 3.17534 17.1193 3.21231C16.9772 3.24927 16.8552 3.3403 16.7794 3.46597C16.7035 3.59163 16.6798 3.74197 16.7132 3.8849C16.7467 4.02782 16.8347 4.15201 16.9584 4.23094C16.9678 4.23656 17.8416 4.77844 18.7013 6C19.8534 7.63687 20.4375 9.65625 20.4375 12C20.4375 14.3438 19.8534 16.3631 18.7013 18C17.8416 19.2188 16.9678 19.7634 16.9603 19.7672C16.897 19.8052 16.8417 19.8554 16.7978 19.9148C16.7538 19.9741 16.722 20.0416 16.7041 20.1133C16.6862 20.185 16.6826 20.2595 16.6935 20.3326C16.7044 20.4057 16.7296 20.4759 16.7677 20.5392C16.8057 20.6026 16.8558 20.6578 16.9152 20.7018C16.9746 20.7457 17.0421 20.7775 17.1138 20.7954C17.1855 20.8133 17.26 20.8169 17.3331 20.806C17.4061 20.7951 17.4763 20.7699 17.5397 20.7319C17.7037 20.6381 21.5625 18.2466 21.5625 12C21.5625 5.75344 17.7037 3.36656 17.5397 3.26812Z" fill="black"/>
</svg>
