<svg width="24" height="24" viewBox="0 0 24 24" fill="none" xmlns="http://www.w3.org/2000/svg">
<path d="M7.97431 4.05188L2.9165 12L7.979 19.9481C8.059 20.074 8.08577 20.2264 8.05343 20.372C8.02108 20.5175 7.93226 20.6443 7.8065 20.7244C7.68067 20.8044 7.52822 20.8312 7.38267 20.7988C7.23711 20.7665 7.11035 20.6776 7.03025 20.5519L1.78025 12.3019C1.72286 12.2116 1.69238 12.1069 1.69238 12C1.69238 11.8931 1.72286 11.7884 1.78025 11.6981L7.03025 3.44813C7.1123 3.3268 7.23844 3.24226 7.38185 3.21248C7.52526 3.18271 7.67462 3.21004 7.79819 3.28868C7.92176 3.36731 8.00979 3.49104 8.04355 3.63357C8.07732 3.77609 8.05416 3.92616 7.979 4.05188H7.97431ZM22.2243 11.6981L16.9743 3.44813C16.9357 3.38359 16.8846 3.32745 16.8239 3.28301C16.7633 3.23857 16.6943 3.20675 16.6212 3.18942C16.548 3.17208 16.4721 3.1696 16.398 3.1821C16.3238 3.1946 16.253 3.22184 16.1895 3.26221C16.1261 3.30257 16.0714 3.35525 16.0287 3.41712C15.9859 3.47899 15.956 3.54879 15.9408 3.62241C15.9255 3.69603 15.9251 3.77197 15.9397 3.84573C15.9542 3.9195 15.9834 3.98959 16.0256 4.05188L21.0834 12L16.0256 19.9481C15.9456 20.074 15.9188 20.2264 15.9511 20.372C15.9835 20.5175 16.0723 20.6443 16.1981 20.7244C16.3239 20.8044 16.4763 20.8312 16.6219 20.7988C16.7675 20.7665 16.8942 20.6776 16.9743 20.5519L22.2243 12.3019C22.2817 12.2116 22.3122 12.1069 22.3122 12C22.3122 11.8931 22.2817 11.7884 22.2243 11.6981Z" fill="black"/>
</svg>
