<svg width="24" height="24" viewBox="0 0 24 24" fill="none" xmlns="http://www.w3.org/2000/svg">
<path d="M23.0624 11.625C23.0612 10.647 22.7774 9.69026 22.2451 8.8698C21.7129 8.04933 20.9549 7.40014 20.0624 7.00031V6.75C20.0615 5.79841 19.7458 4.87385 19.1646 4.12036C18.5834 3.36688 17.7693 2.82678 16.8492 2.58422C15.929 2.34167 14.9545 2.41026 14.0774 2.77933C13.2003 3.1484 12.4698 3.79721 11.9999 4.62469C11.53 3.79721 10.7996 3.1484 9.92251 2.77933C9.0454 2.41026 8.07085 2.34167 7.15069 2.58422C6.23053 2.82678 5.41643 3.36688 4.83523 4.12036C4.25404 4.87385 3.93838 5.79841 3.93743 6.75V7.00031C3.04423 7.39879 2.28558 8.04748 1.7532 8.86795C1.22082 9.68842 0.9375 10.6455 0.9375 11.6236C0.9375 12.6017 1.22082 13.5588 1.7532 14.3792C2.28558 15.1997 3.04423 15.8484 3.93743 16.2469V16.5C3.93838 17.4516 4.25404 18.3762 4.83523 19.1296C5.41643 19.8831 6.23053 20.4232 7.15069 20.6658C8.07085 20.9083 9.0454 20.8397 9.92251 20.4707C10.7996 20.1016 11.53 19.4528 11.9999 18.6253C12.4698 19.4528 13.2003 20.1016 14.0774 20.4707C14.9545 20.8397 15.929 20.9083 16.8492 20.6658C17.7693 20.4232 18.5834 19.8831 19.1646 19.1296C19.7458 18.3762 20.0615 17.4516 20.0624 16.5V16.2469C20.9549 15.8478 21.713 15.1992 22.2453 14.3792C22.7776 13.5591 23.0613 12.6026 23.0624 11.625ZM8.24993 19.6875C7.4215 19.6879 6.62545 19.3658 6.03045 18.7893C5.43546 18.2129 5.08826 17.4274 5.06243 16.5994C5.37149 16.658 5.68537 16.6875 5.99994 16.6875H6.74994C6.89912 16.6875 7.04219 16.6282 7.14768 16.5227C7.25317 16.4173 7.31243 16.2742 7.31243 16.125C7.31243 15.9758 7.25317 15.8327 7.14768 15.7273C7.04219 15.6218 6.89912 15.5625 6.74994 15.5625H5.99994C5.07053 15.5633 4.17082 15.2352 3.46 14.6365C2.74917 14.0377 2.27307 13.2068 2.11593 12.2907C1.95879 11.3747 2.13074 10.4326 2.60135 9.63119C3.07197 8.82975 3.81092 8.22061 4.68743 7.91156C4.79715 7.87277 4.89214 7.80091 4.9593 7.70587C5.02646 7.61084 5.0625 7.49731 5.06243 7.38094V6.75C5.06243 5.90462 5.39826 5.09387 5.99603 4.4961C6.5938 3.89832 7.40456 3.5625 8.24993 3.5625C9.09531 3.5625 9.90607 3.89832 10.5038 4.4961C11.1016 5.09387 11.4374 5.90462 11.4374 6.75V13.5984C11.034 13.1539 10.5419 12.7987 9.99299 12.5557C9.44402 12.3127 8.85028 12.1873 8.24993 12.1875C8.10075 12.1875 7.95768 12.2468 7.85219 12.3523C7.7467 12.4577 7.68743 12.6008 7.68743 12.75C7.68743 12.8992 7.7467 13.0423 7.85219 13.1477C7.95768 13.2532 8.10075 13.3125 8.24993 13.3125C9.09531 13.3125 9.90607 13.6483 10.5038 14.2461C11.1016 14.8439 11.4374 15.6546 11.4374 16.5C11.4374 17.3454 11.1016 18.1561 10.5038 18.7539C9.90607 19.3517 9.09531 19.6875 8.24993 19.6875ZM17.9999 15.5625H17.2499C17.1008 15.5625 16.9577 15.6218 16.8522 15.7273C16.7467 15.8327 16.6874 15.9758 16.6874 16.125C16.6874 16.2742 16.7467 16.4173 16.8522 16.5227C16.9577 16.6282 17.1008 16.6875 17.2499 16.6875H17.9999C18.3145 16.6875 18.6284 16.658 18.9374 16.5994C18.9179 17.2252 18.7145 17.8314 18.3526 18.3424C17.9907 18.8533 17.4863 19.2464 16.9025 19.4724C16.3186 19.6985 15.681 19.7477 15.0694 19.6137C14.4578 19.4797 13.8992 19.1685 13.4633 18.719C13.0274 18.2696 12.7335 17.7017 12.6184 17.0862C12.5032 16.4708 12.5719 15.835 12.8158 15.2583C13.0597 14.6817 13.468 14.1896 13.9898 13.8436C14.5116 13.4975 15.1238 13.3128 15.7499 13.3125C15.8991 13.3125 16.0422 13.2532 16.1477 13.1477C16.2532 13.0423 16.3124 12.8992 16.3124 12.75C16.3124 12.6008 16.2532 12.4577 16.1477 12.3523C16.0422 12.2468 15.8991 12.1875 15.7499 12.1875C15.1496 12.1873 14.5558 12.3127 14.0069 12.5557C13.4579 12.7987 12.9659 13.1539 12.5624 13.5984V6.75C12.5624 5.90462 12.8983 5.09387 13.496 4.4961C14.0938 3.89832 14.9046 3.5625 15.7499 3.5625C16.5953 3.5625 17.4061 3.89832 18.0038 4.4961C18.6016 5.09387 18.9374 5.90462 18.9374 6.75V7.38094C18.9374 7.49731 18.9734 7.61084 19.0406 7.70587C19.1077 7.80091 19.2027 7.87277 19.3124 7.91156C20.189 8.22061 20.9279 8.82975 21.3985 9.63119C21.8691 10.4326 22.0411 11.3747 21.8839 12.2907C21.7268 13.2068 21.2507 14.0377 20.5399 14.6365C19.8291 15.2352 18.9293 15.5633 17.9999 15.5625ZM19.3124 10.5C19.3124 10.6492 19.2532 10.7923 19.1477 10.8977C19.0422 11.0032 18.8991 11.0625 18.7499 11.0625H18.3749C17.5296 11.0625 16.7188 10.7267 16.121 10.1289C15.5233 9.53113 15.1874 8.72038 15.1874 7.875V7.5C15.1874 7.35082 15.2467 7.20774 15.3522 7.10225C15.4577 6.99676 15.6008 6.9375 15.7499 6.9375C15.8991 6.9375 16.0422 6.99676 16.1477 7.10225C16.2532 7.20774 16.3124 7.35082 16.3124 7.5V7.875C16.3124 8.42201 16.5297 8.94661 16.9165 9.33341C17.3033 9.7202 17.8279 9.9375 18.3749 9.9375H18.7499C18.8991 9.9375 19.0422 9.99676 19.1477 10.1023C19.2532 10.2077 19.3124 10.3508 19.3124 10.5ZM5.62494 11.0625H5.24993C5.10075 11.0625 4.95768 11.0032 4.85219 10.8977C4.7467 10.7923 4.68743 10.6492 4.68743 10.5C4.68743 10.3508 4.7467 10.2077 4.85219 10.1023C4.95768 9.99676 5.10075 9.9375 5.24993 9.9375H5.62494C6.17194 9.9375 6.69655 9.7202 7.08334 9.33341C7.47014 8.94661 7.68743 8.42201 7.68743 7.875V7.5C7.68743 7.35082 7.7467 7.20774 7.85219 7.10225C7.95768 6.99676 8.10075 6.9375 8.24993 6.9375C8.39912 6.9375 8.54219 6.99676 8.64768 7.10225C8.75317 7.20774 8.81243 7.35082 8.81243 7.5V7.875C8.81243 8.72038 8.47661 9.53113 7.87884 10.1289C7.28107 10.7267 6.47031 11.0625 5.62494 11.0625Z" fill="black"/>
</svg>
