<svg width="24" height="24" viewBox="0 0 24 24" fill="none" xmlns="http://www.w3.org/2000/svg">
<path d="M22.3128 7.5C22.3128 6.55517 21.9375 5.64903 21.2694 4.98093C20.6013 4.31283 19.6951 3.9375 18.7503 3.9375H4.5003C3.67168 3.93789 2.86912 4.2271 2.23074 4.75538C1.59236 5.28365 1.15809 6.01792 1.00268 6.83183C0.847268 7.64574 0.980435 8.48837 1.37926 9.21469C1.77809 9.94101 2.41762 10.5056 3.1878 10.8112V18.75C3.1878 19.0981 3.32608 19.4319 3.57222 19.6781C3.81836 19.9242 4.1522 20.0625 4.5003 20.0625H18.7503C19.0984 20.0625 19.4322 19.9242 19.6784 19.6781C19.9245 19.4319 20.0628 19.0981 20.0628 18.75V10.8112C20.7259 10.5475 21.2947 10.091 21.6958 9.5008C22.0968 8.91055 22.3118 8.21362 22.3128 7.5ZM4.3128 18.75V11.0625C4.37467 11.0625 4.43748 11.0625 4.5003 11.0625C4.64948 11.0625 4.79255 11.0032 4.89804 10.8977C5.00353 10.7923 5.0628 10.6492 5.0628 10.5C5.0628 10.3508 5.00353 10.2077 4.89804 10.1023C4.79255 9.99676 4.64948 9.9375 4.5003 9.9375C3.85383 9.9375 3.23384 9.68069 2.77672 9.22357C2.3196 8.76645 2.0628 8.14647 2.0628 7.5C2.0628 6.85353 2.3196 6.23355 2.77672 5.77643C3.23384 5.31931 3.85383 5.0625 4.5003 5.0625H13.5003C14.1468 5.0625 14.7667 5.31931 15.2239 5.77643C15.681 6.23355 15.9378 6.85353 15.9378 7.5C15.9378 8.14647 15.681 8.76645 15.2239 9.22357C14.7667 9.68069 14.1468 9.9375 13.5003 9.9375C13.3511 9.9375 13.208 9.99676 13.1025 10.1023C12.9971 10.2077 12.9378 10.3508 12.9378 10.5C12.9378 10.6492 12.9971 10.7923 13.1025 10.8977C13.208 11.0032 13.3511 11.0625 13.5003 11.0625C13.5631 11.0625 13.6259 11.0625 13.6878 11.0625V18.75C13.6878 18.7997 13.668 18.8474 13.6329 18.8826C13.5977 18.9177 13.55 18.9375 13.5003 18.9375H4.5003C4.45057 18.9375 4.40288 18.9177 4.36771 18.8826C4.33255 18.8474 4.3128 18.7997 4.3128 18.75ZM18.7503 9.9375C18.6011 9.9375 18.458 9.99676 18.3525 10.1023C18.2471 10.2077 18.1878 10.3508 18.1878 10.5C18.1878 10.6492 18.2471 10.7923 18.3525 10.8977C18.458 11.0032 18.6011 11.0625 18.7503 11.0625C18.8131 11.0625 18.8759 11.0625 18.9378 11.0625V18.75C18.9378 18.7997 18.918 18.8474 18.8829 18.8826C18.8477 18.9177 18.8 18.9375 18.7503 18.9375H14.7978C14.8071 18.8754 14.8121 18.8128 14.8128 18.75V10.8112C15.3525 10.5969 15.8315 10.2538 16.2083 9.81197C16.5851 9.37012 16.8482 8.84286 16.9746 8.2761C17.1011 7.70935 17.087 7.12027 16.9338 6.56017C16.7805 6.00007 16.4927 5.48593 16.0953 5.0625H18.7503C19.3968 5.0625 20.0167 5.31931 20.4739 5.77643C20.931 6.23355 21.1878 6.85353 21.1878 7.5C21.1878 8.14647 20.931 8.76645 20.4739 9.22357C20.0167 9.68069 19.3968 9.9375 18.7503 9.9375Z" fill="black"/>
</svg>
