<svg width="24" height="24" viewBox="0 0 24 24" fill="none" xmlns="http://www.w3.org/2000/svg">
<path d="M21.7498 15.1875H18.5623V8.9325C19.293 10.012 20.3295 10.8487 21.5388 11.3353C21.6077 11.3653 21.6818 11.3811 21.7569 11.382C21.832 11.3828 21.9065 11.3686 21.976 11.3402C22.0455 11.3118 22.1086 11.2697 22.1616 11.2166C22.2146 11.1634 22.2565 11.1001 22.2846 11.0305C22.3128 10.9609 22.3267 10.8864 22.3256 10.8113C22.3245 10.7362 22.3084 10.6621 22.2782 10.5933C22.248 10.5246 22.2044 10.4626 22.1499 10.411C22.0953 10.3594 22.031 10.3192 21.9607 10.2928C20.9548 9.88864 20.0933 9.19204 19.4874 8.29306C18.8816 7.39409 18.5593 6.33406 18.5623 5.25C18.5623 5.10082 18.503 4.95774 18.3975 4.85225C18.292 4.74676 18.1489 4.6875 17.9998 4.6875C17.8506 4.6875 17.7075 4.74676 17.602 4.85225C17.4965 4.95774 17.4373 5.10082 17.4373 5.25C17.4373 6.69211 16.8644 8.07516 15.8447 9.09489C14.8249 10.1146 13.4419 10.6875 11.9998 10.6875C10.5576 10.6875 9.1746 10.1146 8.15487 9.09489C7.13514 8.07516 6.56226 6.69211 6.56226 5.25C6.56226 5.10082 6.503 4.95774 6.39751 4.85225C6.29202 4.74676 6.14895 4.6875 5.99976 4.6875C5.85058 4.6875 5.7075 4.74676 5.60202 4.85225C5.49653 4.95774 5.43726 5.10082 5.43726 5.25C5.44022 6.33406 5.11795 7.39409 4.51211 8.29306C3.90628 9.19204 3.04473 9.88864 2.03883 10.2928C1.96852 10.3192 1.9042 10.3594 1.84967 10.411C1.79513 10.4626 1.75148 10.5246 1.72129 10.5933C1.6911 10.6621 1.67499 10.7362 1.67389 10.8113C1.67279 10.8864 1.68674 10.9609 1.71491 11.0305C1.74307 11.1001 1.78489 11.1634 1.83789 11.2166C1.8909 11.2697 1.95401 11.3118 2.02352 11.3402C2.09303 11.3686 2.16752 11.3828 2.2426 11.382C2.31769 11.3811 2.39184 11.3653 2.4607 11.3353C3.67004 10.8487 4.70651 10.012 5.43726 8.9325V15.1875H2.24976C2.10058 15.1875 1.9575 15.2468 1.85202 15.3523C1.74653 15.4577 1.68726 15.6008 1.68726 15.75C1.68726 15.8992 1.74653 16.0423 1.85202 16.1477C1.9575 16.2532 2.10058 16.3125 2.24976 16.3125H5.43726V18.75C5.43726 18.8992 5.49653 19.0423 5.60202 19.1477C5.7075 19.2532 5.85058 19.3125 5.99976 19.3125C6.14895 19.3125 6.29202 19.2532 6.39751 19.1477C6.503 19.0423 6.56226 18.8992 6.56226 18.75V16.3125H17.4373V18.75C17.4373 18.8992 17.4965 19.0423 17.602 19.1477C17.7075 19.2532 17.8506 19.3125 17.9998 19.3125C18.1489 19.3125 18.292 19.2532 18.3975 19.1477C18.503 19.0423 18.5623 18.8992 18.5623 18.75V16.3125H21.7498C21.8989 16.3125 22.042 16.2532 22.1475 16.1477C22.253 16.0423 22.3123 15.8992 22.3123 15.75C22.3123 15.6008 22.253 15.4577 22.1475 15.3523C22.042 15.2468 21.8989 15.1875 21.7498 15.1875ZM13.6873 11.5922V15.1875H10.3123V11.5922C11.4181 11.8859 12.5814 11.8859 13.6873 11.5922ZM6.56226 8.92031C7.22097 9.89307 8.12707 10.6726 9.18726 11.1788V15.1875H6.56226V8.92031ZM14.8123 15.1875V11.1788C15.8725 10.6726 16.7786 9.89307 17.4373 8.92031V15.1875H14.8123Z" fill="black"/>
</svg>
