<svg width="24" height="24" viewBox="0 0 24 24" fill="none" xmlns="http://www.w3.org/2000/svg">
<path d="M12.0002 8.4375C11.2956 8.4375 10.6068 8.64643 10.021 9.03789C9.43515 9.42934 8.97853 9.98573 8.7089 10.6367C8.43926 11.2876 8.36871 12.0039 8.50617 12.695C8.64363 13.3861 8.98293 14.0208 9.48115 14.5191C9.97937 15.0173 10.6142 15.3566 11.3052 15.494C11.9963 15.6315 12.7126 15.561 13.3635 15.2913C14.0145 15.0217 14.5709 14.5651 14.9623 13.9792C15.3538 13.3934 15.5627 12.7046 15.5627 12C15.5627 11.0552 15.1874 10.149 14.5193 9.48093C13.8512 8.81283 12.9451 8.4375 12.0002 8.4375ZM12.0002 14.4375C11.5181 14.4375 11.0469 14.2945 10.646 14.0267C10.2452 13.7589 9.93275 13.3782 9.74826 12.9328C9.56377 12.4874 9.5155 11.9973 9.60955 11.5245C9.70361 11.0516 9.93575 10.6173 10.2766 10.2764C10.6175 9.93553 11.0519 9.70338 11.5247 9.60933C11.9975 9.51528 12.4876 9.56355 12.933 9.74804C13.3784 9.93253 13.7591 10.2449 14.0269 10.6458C14.2948 11.0466 14.4377 11.5179 14.4377 12C14.4377 12.6465 14.1809 13.2664 13.7238 13.7236C13.2667 14.1807 12.6467 14.4375 12.0002 14.4375ZM19.3127 12C19.3151 13.7991 18.6519 15.5355 17.4508 16.875C17.3504 16.9822 17.2119 17.0458 17.0651 17.0523C16.9183 17.0587 16.7748 17.0075 16.6653 16.9095C16.5558 16.8115 16.489 16.6746 16.4792 16.528C16.4694 16.3814 16.5173 16.2367 16.6127 16.125C17.6287 14.9912 18.1906 13.5224 18.1906 12C18.1906 10.4776 17.6287 9.00876 16.6127 7.875C16.5615 7.8203 16.5216 7.75592 16.4956 7.68562C16.4696 7.61532 16.4579 7.54053 16.4612 7.46565C16.4645 7.39076 16.4827 7.31729 16.5148 7.24954C16.5469 7.1818 16.5922 7.12115 16.648 7.07117C16.7039 7.02118 16.7692 6.98286 16.8401 6.95847C16.9109 6.93407 16.986 6.92409 17.0608 6.9291C17.1356 6.93412 17.2086 6.95403 17.2756 6.98767C17.3426 7.02131 17.4022 7.068 17.4508 7.125C18.6519 8.46449 19.3151 10.2009 19.3127 12ZM6.29834 9.59156C5.84134 10.6717 5.70109 11.8596 5.89399 13.0165C6.08689 14.1734 6.60497 15.2515 7.38772 16.125C7.48714 16.2362 7.53834 16.3822 7.53008 16.5311C7.52182 16.6801 7.45476 16.8196 7.34366 16.9191C7.2325 17.0185 7.08641 17.0697 6.9375 17.0614C6.7886 17.0532 6.64907 16.9861 6.54959 16.875C5.3491 15.535 4.68526 13.7991 4.68526 12C4.68526 10.2009 5.3491 8.46502 6.54959 7.125C6.59828 7.068 6.65787 7.02131 6.72485 6.98767C6.79184 6.95403 6.86487 6.93412 6.93966 6.9291C7.01445 6.92409 7.08949 6.93407 7.16037 6.95847C7.23125 6.98286 7.29654 7.02118 7.3524 7.07117C7.40825 7.12115 7.45356 7.1818 7.48565 7.24954C7.51774 7.31729 7.53596 7.39076 7.53925 7.46565C7.54254 7.54053 7.53083 7.61532 7.50481 7.68562C7.47879 7.75592 7.43898 7.8203 7.38772 7.875C6.93272 8.38342 6.56466 8.96339 6.29834 9.59156ZM23.0627 12C23.0657 14.8953 21.9307 17.6757 19.9024 19.7419C19.798 19.8485 19.6555 19.9094 19.5062 19.9109C19.3569 19.9125 19.2131 19.8547 19.1065 19.7503C18.9998 19.6459 18.939 19.5034 18.9374 19.3541C18.9358 19.2048 18.9936 19.061 19.098 18.9544C20.9204 17.0983 21.9414 14.6011 21.9414 12C21.9414 9.39886 20.9204 6.90166 19.098 5.04562C19.0463 4.99281 19.0055 4.93032 18.978 4.86174C18.9504 4.79316 18.9366 4.71982 18.9374 4.64591C18.939 4.49664 18.9998 4.35411 19.1065 4.24968C19.2131 4.14526 19.3569 4.08748 19.5062 4.08906C19.5801 4.08984 19.6531 4.10518 19.7211 4.13418C19.7891 4.16319 19.8507 4.20531 19.9024 4.25812C21.9307 6.32425 23.0657 9.10472 23.0627 12ZM4.90241 18.9544C4.95411 19.0072 4.99491 19.0697 5.02247 19.1383C5.05003 19.2068 5.06381 19.2802 5.06303 19.3541C5.06225 19.428 5.04691 19.501 5.01791 19.569C4.9889 19.637 4.94678 19.6986 4.89397 19.7503C4.84115 19.802 4.77867 19.8428 4.71009 19.8704C4.6415 19.8979 4.56816 19.9117 4.49425 19.9109C4.42034 19.9101 4.34731 19.8948 4.27933 19.8658C4.21134 19.8368 4.14974 19.7947 4.09803 19.7419C2.07043 17.6751 0.93457 14.8953 0.93457 12C0.93457 9.10468 2.07043 6.32492 4.09803 4.25812C4.20246 4.15145 4.34498 4.09064 4.49425 4.08906C4.64352 4.08748 4.7873 4.14526 4.89397 4.24968C5.00064 4.35411 5.06145 4.49664 5.06303 4.64591C5.06461 4.79517 5.00683 4.93895 4.90241 5.04562C3.08004 6.90166 2.05903 9.39886 2.05903 12C2.05903 14.6011 3.08004 17.0983 4.90241 18.9544Z" fill="black"/>
</svg>
