<svg width="24" height="24" viewBox="0 0 24 24" fill="none" xmlns="http://www.w3.org/2000/svg">
<path d="M21.9956 20.4937C19.8141 19.4334 18.5625 17.1562 18.5625 14.25V12.6281C18.5624 12.3656 18.4835 12.1091 18.3361 11.8918C18.1887 11.6746 17.9796 11.5065 17.7356 11.4094L15.4022 10.4878C15.2877 10.4423 15.1833 10.3746 15.095 10.2887C15.0067 10.2027 14.9362 10.1003 14.8875 9.98707C14.8389 9.87388 14.813 9.7522 14.8114 9.629C14.8098 9.5058 14.8324 9.38349 14.8781 9.26906L16.875 4.30312C17.0005 4.00014 17.0635 3.67497 17.0603 3.34706C17.0571 3.01916 16.9878 2.69526 16.8565 2.39477C16.7252 2.09429 16.5346 1.82338 16.2962 1.59827C16.0577 1.37316 15.7763 1.19848 15.4688 1.08469C14.2547 0.631873 12.855 1.25719 12.346 2.49094L10.3772 7.47C10.3318 7.58465 10.2643 7.68922 10.1784 7.77773C10.0926 7.86624 9.99014 7.93695 9.87694 7.9858C9.76373 8.03465 9.64199 8.0607 9.5187 8.06244C9.39542 8.06417 9.273 8.04158 9.15845 7.99594L6.7847 7.03125C6.54439 6.93361 6.2804 6.90991 6.02654 6.96319C5.77268 7.01647 5.54049 7.1443 5.3597 7.33031C3.42095 9.32062 2.43752 11.6494 2.43752 14.25C2.43268 16.9121 3.46191 19.4721 5.30814 21.39C5.36124 21.4452 5.42505 21.489 5.49565 21.5186C5.56626 21.5483 5.64218 21.5632 5.71877 21.5625H21.75C21.8774 21.5626 22.001 21.5195 22.1007 21.4402C22.2003 21.3609 22.2701 21.2501 22.2987 21.126C22.3272 21.0019 22.3127 20.8717 22.2577 20.7569C22.2027 20.642 22.1103 20.5493 21.9956 20.4937ZM6.16595 8.11125C6.19173 8.08618 6.22417 8.06905 6.25941 8.0619C6.29465 8.05476 6.3312 8.05789 6.3647 8.07094L8.74595 9.03562C8.99798 9.13652 9.26744 9.18668 9.53889 9.18321C9.81034 9.17974 10.0784 9.12272 10.3278 9.01542C10.5772 8.90811 10.8029 8.75263 10.992 8.5579C11.1812 8.36316 11.33 8.13301 11.43 7.88062L13.3988 2.91187C13.68 2.24344 14.43 1.89844 15.0863 2.14219C15.2519 2.20413 15.4032 2.29889 15.5313 2.42077C15.6593 2.54266 15.7615 2.68916 15.8315 2.85149C15.9015 3.01382 15.9381 3.18862 15.9389 3.36541C15.9397 3.54221 15.9048 3.71734 15.8363 3.88031L13.8338 8.85844C13.6347 9.36598 13.6441 9.93163 13.8601 10.4322C14.0761 10.9328 14.4811 11.3278 14.9869 11.5312L17.3194 12.4528C17.3544 12.4668 17.3844 12.491 17.4055 12.5222C17.4266 12.5535 17.4377 12.5904 17.4375 12.6281V14.25C17.4375 14.3756 17.4375 14.4984 17.445 14.625L4.94439 9.61969C5.30328 9.07961 5.71228 8.57456 6.16595 8.11125ZM10.7185 20.4375C9.54762 19.335 8.71789 17.9196 8.32783 16.3594C8.30936 16.2878 8.27699 16.2207 8.23255 16.1616C8.18812 16.1026 8.13249 16.0529 8.06886 16.0154C8.00522 15.9779 7.93482 15.9533 7.86166 15.943C7.78851 15.9326 7.71405 15.9368 7.64252 15.9553C7.57099 15.9738 7.5038 16.0062 7.44478 16.0506C7.38576 16.095 7.33607 16.1506 7.29855 16.2143C7.26103 16.2779 7.23641 16.3483 7.2261 16.4215C7.21579 16.4946 7.21999 16.5691 7.23845 16.6406C7.59115 18.0344 8.25099 19.3316 9.1697 20.4375H5.95877C4.41366 18.7477 3.5586 16.5397 3.56252 14.25C3.55079 12.989 3.83023 11.7423 4.37908 10.6069L17.5641 15.8812C17.8594 17.7487 18.6675 19.3181 19.9078 20.4375H10.7185Z" fill="black"/>
</svg>
