<svg width="24" height="24" viewBox="0 0 24 24" fill="none" xmlns="http://www.w3.org/2000/svg">
<path d="M19.3125 14.0625H21C21.1492 14.0625 21.2923 14.0032 21.3977 13.8977C21.5032 13.7923 21.5625 13.6492 21.5625 13.5C21.5625 13.3508 21.5032 13.2077 21.3977 13.1023C21.2923 12.9968 21.1492 12.9375 21 12.9375H19.3125V11.0625H21C21.1492 11.0625 21.2923 11.0032 21.3977 10.8977C21.5032 10.7923 21.5625 10.6492 21.5625 10.5C21.5625 10.3508 21.5032 10.2077 21.3977 10.1023C21.2923 9.99676 21.1492 9.9375 21 9.9375H19.2891C19.1563 8.20924 18.4125 6.58471 17.1909 5.355L19.1475 3.3975C19.2028 3.346 19.2471 3.2839 19.2778 3.2149C19.3086 3.1459 19.3251 3.07142 19.3264 2.99589C19.3278 2.92037 19.3139 2.84534 19.2856 2.7753C19.2573 2.70526 19.2152 2.64164 19.1618 2.58822C19.1084 2.53481 19.0447 2.4927 18.9747 2.46441C18.9047 2.43612 18.8296 2.42222 18.7541 2.42356C18.6786 2.42489 18.6041 2.44142 18.5351 2.47217C18.4661 2.50291 18.404 2.54724 18.3525 2.6025L16.3378 4.61719C15.0824 3.68858 13.562 3.18742 12.0005 3.18742C10.4389 3.18742 8.91858 3.68858 7.66313 4.61719L5.6475 2.6025C5.54087 2.50314 5.39983 2.44905 5.25411 2.45162C5.10838 2.45419 4.96934 2.51322 4.86628 2.61628C4.76322 2.71934 4.70419 2.85838 4.70162 3.00411C4.69905 3.14983 4.75314 3.29087 4.8525 3.3975L6.81 5.355C5.58771 6.58433 4.84351 8.20901 4.71094 9.9375H3C2.85082 9.9375 2.70774 9.99676 2.60225 10.1023C2.49676 10.2077 2.4375 10.3508 2.4375 10.5C2.4375 10.6492 2.49676 10.7923 2.60225 10.8977C2.70774 11.0032 2.85082 11.0625 3 11.0625H4.6875V12.9375H3C2.85082 12.9375 2.70774 12.9968 2.60225 13.1023C2.49676 13.2077 2.4375 13.3508 2.4375 13.5C2.4375 13.6492 2.49676 13.7923 2.60225 13.8977C2.70774 14.0032 2.85082 14.0625 3 14.0625H4.6875V15C4.68816 15.3135 4.70883 15.6266 4.74937 15.9375H3C2.85082 15.9375 2.70774 15.9968 2.60225 16.1023C2.49676 16.2077 2.4375 16.3508 2.4375 16.5C2.4375 16.6492 2.49676 16.7923 2.60225 16.8977C2.70774 17.0032 2.85082 17.0625 3 17.0625H4.98563C5.43183 18.5769 6.35618 19.9063 7.6205 20.8518C8.88483 21.7973 10.4212 22.3083 12 22.3083C13.5788 22.3083 15.1152 21.7973 16.3795 20.8518C17.6438 19.9063 18.5682 18.5769 19.0144 17.0625H21C21.1492 17.0625 21.2923 17.0032 21.3977 16.8977C21.5032 16.7923 21.5625 16.6492 21.5625 16.5C21.5625 16.3508 21.5032 16.2077 21.3977 16.1023C21.2923 15.9968 21.1492 15.9375 21 15.9375H19.2506C19.2912 15.6266 19.3118 15.3135 19.3125 15V14.0625ZM12 4.3125C13.5429 4.31438 15.0296 4.89207 16.1691 5.93247C17.3085 6.97287 18.0186 8.40108 18.1603 9.9375H5.83969C5.98144 8.40108 6.69153 6.97287 7.83094 5.93247C8.97035 4.89207 10.4571 4.31438 12 4.3125ZM12.5625 21.1603V13.5C12.5625 13.3508 12.5032 13.2077 12.3977 13.1023C12.2923 12.9968 12.1492 12.9375 12 12.9375C11.8508 12.9375 11.7077 12.9968 11.6023 13.1023C11.4968 13.2077 11.4375 13.3508 11.4375 13.5V21.1603C9.90107 21.0186 8.47287 20.3085 7.43247 19.1691C6.39207 18.0296 5.81438 16.543 5.8125 15V11.0625H18.1875V15C18.1856 16.543 17.6079 18.0296 16.5675 19.1691C15.5271 20.3085 14.0989 21.0186 12.5625 21.1603Z" fill="black"/>
</svg>
