<svg width="24" height="24" viewBox="0 0 24 24" fill="none" xmlns="http://www.w3.org/2000/svg">
<path d="M17.7188 4.82531L19.1456 3.3975C19.2009 3.346 19.2452 3.2839 19.276 3.2149C19.3067 3.1459 19.3232 3.07142 19.3246 2.99589C19.3259 2.92037 19.312 2.84534 19.2837 2.7753C19.2554 2.70526 19.2133 2.64164 19.1599 2.58822C19.1065 2.53481 19.0429 2.4927 18.9728 2.46441C18.9028 2.43612 18.8278 2.42222 18.7522 2.42356C18.6767 2.42489 18.6022 2.44142 18.5332 2.47217C18.4642 2.50291 18.4021 2.54724 18.3506 2.6025L16.875 4.08188C15.4743 3.0138 13.7615 2.43531 12 2.43531C10.2385 2.43531 8.52575 3.0138 7.125 4.08188L5.6475 2.6025C5.54087 2.50314 5.39983 2.44905 5.25411 2.45162C5.10838 2.45419 4.96934 2.51322 4.86628 2.61628C4.76322 2.71934 4.70419 2.85838 4.70162 3.00411C4.69905 3.14983 4.75314 3.29087 4.8525 3.3975L6.28125 4.82531C4.77957 6.33201 3.9367 8.37275 3.9375 10.5V14.25C3.9375 16.3883 4.78694 18.439 6.29895 19.951C7.81096 21.4631 9.86169 22.3125 12 22.3125C14.1383 22.3125 16.189 21.4631 17.701 19.951C19.2131 18.439 20.0625 16.3883 20.0625 14.25V10.5C20.0633 8.37275 19.2204 6.33201 17.7188 4.82531ZM12 3.5625C13.8393 3.56473 15.6025 4.29636 16.9031 5.59691C18.2036 6.89746 18.9353 8.66075 18.9375 10.5V11.4375H5.0625V10.5C5.06473 8.66075 5.79636 6.89746 7.09691 5.59691C8.39746 4.29636 10.1607 3.56473 12 3.5625ZM12 21.1875C10.1607 21.1853 8.39746 20.4536 7.09691 19.1531C5.79636 17.8525 5.06473 16.0893 5.0625 14.25V12.5625H18.9375V14.25C18.9353 16.0893 18.2036 17.8525 16.9031 19.1531C15.6025 20.4536 13.8393 21.1853 12 21.1875ZM13.6875 8.625C13.6875 8.43958 13.7425 8.25832 13.8455 8.10415C13.9485 7.94998 14.0949 7.82982 14.2662 7.75886C14.4375 7.68791 14.626 7.66934 14.8079 7.70551C14.9898 7.74169 15.1568 7.83098 15.2879 7.96209C15.419 8.0932 15.5083 8.26025 15.5445 8.4421C15.5807 8.62396 15.5621 8.81246 15.4911 8.98377C15.4202 9.15507 15.3 9.30149 15.1458 9.4045C14.9917 9.50752 14.8104 9.5625 14.625 9.5625C14.3764 9.5625 14.1379 9.46373 13.9621 9.28791C13.7863 9.1121 13.6875 8.87364 13.6875 8.625ZM8.4375 8.625C8.4375 8.43958 8.49248 8.25832 8.5955 8.10415C8.69851 7.94998 8.84493 7.82982 9.01623 7.75886C9.18754 7.68791 9.37604 7.66934 9.5579 7.70551C9.73976 7.74169 9.9068 7.83098 10.0379 7.96209C10.169 8.0932 10.2583 8.26025 10.2945 8.4421C10.3307 8.62396 10.3121 8.81246 10.2411 8.98377C10.1702 9.15507 10.05 9.30149 9.89585 9.4045C9.74168 9.50752 9.56042 9.5625 9.375 9.5625C9.12636 9.5625 8.8879 9.46373 8.71209 9.28791C8.53627 9.1121 8.4375 8.87364 8.4375 8.625Z" fill="black"/>
</svg>
