<svg width="24" height="24" viewBox="0 0 24 24" fill="none" xmlns="http://www.w3.org/2000/svg">
<path d="M13.6875 8.625C13.6875 8.43958 13.7425 8.25832 13.8455 8.10415C13.9485 7.94998 14.0949 7.82982 14.2662 7.75886C14.4375 7.68791 14.626 7.66934 14.8079 7.70551C14.9898 7.74169 15.1568 7.83098 15.2879 7.96209C15.419 8.0932 15.5083 8.26025 15.5445 8.4421C15.5807 8.62396 15.5621 8.81246 15.4911 8.98377C15.4202 9.15507 15.3 9.30149 15.1458 9.4045C14.9917 9.50752 14.8104 9.5625 14.625 9.5625C14.3764 9.5625 14.1379 9.46373 13.9621 9.28791C13.7863 9.1121 13.6875 8.87364 13.6875 8.625ZM9.375 7.6875C9.18958 7.6875 9.00832 7.74248 8.85415 7.8455C8.69998 7.94851 8.57982 8.09493 8.50886 8.26623C8.43791 8.43754 8.41934 8.62604 8.45551 8.8079C8.49169 8.98976 8.58098 9.1568 8.71209 9.28791C8.8432 9.41902 9.01025 9.50831 9.1921 9.54449C9.37396 9.58066 9.56246 9.56209 9.73377 9.49114C9.90507 9.42018 10.0515 9.30002 10.1545 9.14585C10.2575 8.99168 10.3125 8.81042 10.3125 8.625C10.3125 8.37636 10.2137 8.1379 10.0379 7.96209C9.8621 7.78627 9.62364 7.6875 9.375 7.6875ZM23.0625 12C23.0625 12.1492 23.0032 12.2923 22.8977 12.3977C22.7923 12.5032 22.6492 12.5625 22.5 12.5625H20.0625V13.5C20.0623 14.264 19.9534 15.0242 19.7391 15.7575L21.975 16.7344C22.1118 16.794 22.2192 16.9056 22.2737 17.0445C22.3282 17.1834 22.3253 17.3382 22.2656 17.475C22.206 17.6118 22.0944 17.7192 21.9555 17.7737C21.8166 17.8282 21.6618 17.8253 21.525 17.7656L19.3472 16.8141C18.7085 18.2275 17.6756 19.4268 16.3724 20.2679C15.0692 21.1091 13.5511 21.5565 12 21.5565C10.4489 21.5565 8.93077 21.1091 7.62759 20.2679C6.32441 19.4268 5.29153 18.2275 4.65281 16.8141L2.475 17.7656C2.40729 17.7952 2.33442 17.8111 2.26055 17.8125C2.18669 17.8139 2.11327 17.8007 2.0445 17.7737C1.97572 17.7467 1.91294 17.7064 1.85973 17.6552C1.80652 17.6039 1.76392 17.5427 1.73438 17.475C1.6747 17.3382 1.6718 17.1834 1.7263 17.0445C1.7808 16.9056 1.88825 16.794 2.025 16.7344L4.26094 15.7575C4.04656 15.0242 3.93765 14.264 3.9375 13.5V12.5625H1.5C1.35082 12.5625 1.20774 12.5032 1.10225 12.3977C0.996763 12.2923 0.9375 12.1492 0.9375 12C0.9375 11.8508 0.996763 11.7077 1.10225 11.6023C1.20774 11.4968 1.35082 11.4375 1.5 11.4375H3.9375V10.5C3.93765 9.73597 4.04656 8.97584 4.26094 8.2425L2.025 7.26563C1.88825 7.20595 1.7808 7.0944 1.7263 6.9555C1.6718 6.81661 1.6747 6.66175 1.73438 6.525C1.79405 6.38825 1.9056 6.2808 2.0445 6.2263C2.18339 6.1718 2.33825 6.1747 2.475 6.23438L4.65281 7.18594C5.29153 5.77247 6.32441 4.57325 7.62759 3.73208C8.93077 2.8909 10.4489 2.44349 12 2.44349C13.5511 2.44349 15.0692 2.8909 16.3724 3.73208C17.6756 4.57325 18.7085 5.77247 19.3472 7.18594L21.525 6.23438C21.6618 6.1747 21.8166 6.1718 21.9555 6.2263C22.0944 6.2808 22.206 6.38825 22.2656 6.525C22.3253 6.66175 22.3282 6.81661 22.2737 6.9555C22.2192 7.0944 22.1118 7.20595 21.975 7.26563L19.7391 8.2425C19.9534 8.97584 20.0623 9.73597 20.0625 10.5V11.4375H22.5C22.6492 11.4375 22.7923 11.4968 22.8977 11.6023C23.0032 11.7077 23.0625 11.8508 23.0625 12ZM5.0625 11.4375H18.9375V10.5C18.9375 8.66006 18.2066 6.89548 16.9056 5.59445C15.6045 4.29341 13.8399 3.5625 12 3.5625C10.1601 3.5625 8.39548 4.29341 7.09445 5.59445C5.79341 6.89548 5.0625 8.66006 5.0625 10.5V11.4375ZM11.4375 20.4131V12.5625H5.0625V13.5C5.06483 15.2417 5.72145 16.919 6.9022 18.1995C8.08295 19.4799 9.70166 20.27 11.4375 20.4131ZM18.9375 12.5625H12.5625V20.4131C14.2983 20.27 15.9171 19.4799 17.0978 18.1995C18.2786 16.919 18.9352 15.2417 18.9375 13.5V12.5625Z" fill="black"/>
</svg>
