<svg width="24" height="24" viewBox="0 0 24 24" fill="none" xmlns="http://www.w3.org/2000/svg">
<path d="M22.5 19.6875H20.8125V9C20.8125 8.65191 20.6742 8.31807 20.4281 8.07193C20.1819 7.82578 19.8481 7.6875 19.5 7.6875H13.3125V3C13.3124 2.76245 13.2478 2.52937 13.1257 2.32563C13.0035 2.12189 12.8284 1.95513 12.6189 1.84312C12.4094 1.73111 12.1734 1.67805 11.9361 1.68961C11.6989 1.70117 11.4692 1.77691 11.2716 1.90875L3.77156 6.90844C3.59183 7.02835 3.44449 7.19078 3.3426 7.38131C3.24071 7.57184 3.18744 7.78457 3.1875 8.00063V19.6875H1.5C1.35082 19.6875 1.20774 19.7468 1.10225 19.8523C0.996763 19.9577 0.9375 20.1008 0.9375 20.25C0.9375 20.3992 0.996763 20.5423 1.10225 20.6478C1.20774 20.7532 1.35082 20.8125 1.5 20.8125H22.5C22.6492 20.8125 22.7923 20.7532 22.8977 20.6478C23.0032 20.5423 23.0625 20.3992 23.0625 20.25C23.0625 20.1008 23.0032 19.9577 22.8977 19.8523C22.7923 19.7468 22.6492 19.6875 22.5 19.6875ZM19.5 8.8125C19.5497 8.8125 19.5974 8.83226 19.6326 8.86742C19.6677 8.90258 19.6875 8.95028 19.6875 9V19.6875H13.3125V8.8125H19.5ZM4.3125 8.00063C4.31256 7.96983 4.3202 7.93952 4.33475 7.91238C4.3493 7.88524 4.37032 7.8621 4.39594 7.845L11.8959 2.84438C11.9241 2.82556 11.9569 2.81474 11.9908 2.81308C12.0247 2.81141 12.0584 2.81897 12.0883 2.83494C12.1182 2.85091 12.1432 2.87469 12.1607 2.90376C12.1782 2.93283 12.1874 2.96609 12.1875 3V19.6875H4.3125V8.00063ZM10.3125 10.5V12C10.3125 12.1492 10.2532 12.2923 10.1477 12.3978C10.0423 12.5032 9.89918 12.5625 9.75 12.5625C9.60082 12.5625 9.45774 12.5032 9.35225 12.3978C9.24676 12.2923 9.1875 12.1492 9.1875 12V10.5C9.1875 10.3508 9.24676 10.2077 9.35225 10.1023C9.45774 9.99677 9.60082 9.9375 9.75 9.9375C9.89918 9.9375 10.0423 9.99677 10.1477 10.1023C10.2532 10.2077 10.3125 10.3508 10.3125 10.5ZM7.3125 10.5V12C7.3125 12.1492 7.25324 12.2923 7.14775 12.3978C7.04226 12.5032 6.89918 12.5625 6.75 12.5625C6.60082 12.5625 6.45774 12.5032 6.35225 12.3978C6.24676 12.2923 6.1875 12.1492 6.1875 12V10.5C6.1875 10.3508 6.24676 10.2077 6.35225 10.1023C6.45774 9.99677 6.60082 9.9375 6.75 9.9375C6.89918 9.9375 7.04226 9.99677 7.14775 10.1023C7.25324 10.2077 7.3125 10.3508 7.3125 10.5ZM7.3125 15.75V17.25C7.3125 17.3992 7.25324 17.5423 7.14775 17.6478C7.04226 17.7532 6.89918 17.8125 6.75 17.8125C6.60082 17.8125 6.45774 17.7532 6.35225 17.6478C6.24676 17.5423 6.1875 17.3992 6.1875 17.25V15.75C6.1875 15.6008 6.24676 15.4577 6.35225 15.3523C6.45774 15.2468 6.60082 15.1875 6.75 15.1875C6.89918 15.1875 7.04226 15.2468 7.14775 15.3523C7.25324 15.4577 7.3125 15.6008 7.3125 15.75ZM10.3125 15.75V17.25C10.3125 17.3992 10.2532 17.5423 10.1477 17.6478C10.0423 17.7532 9.89918 17.8125 9.75 17.8125C9.60082 17.8125 9.45774 17.7532 9.35225 17.6478C9.24676 17.5423 9.1875 17.3992 9.1875 17.25V15.75C9.1875 15.6008 9.24676 15.4577 9.35225 15.3523C9.45774 15.2468 9.60082 15.1875 9.75 15.1875C9.89918 15.1875 10.0423 15.2468 10.1477 15.3523C10.2532 15.4577 10.3125 15.6008 10.3125 15.75Z" fill="black"/>
</svg>
