<svg width="24" height="24" viewBox="0 0 24 24" fill="none" xmlns="http://www.w3.org/2000/svg">
<path d="M23.2497 18.9375H22.4997C22.2511 18.9375 22.0126 18.8387 21.8368 18.6629C21.661 18.4871 21.5622 18.2486 21.5622 18V15C21.5622 14.7514 21.661 14.5129 21.8368 14.3371C22.0126 14.1613 22.2511 14.0625 22.4997 14.0625H23.2497C23.3989 14.0625 23.542 14.0032 23.6475 13.8977C23.753 13.7923 23.8122 13.6492 23.8122 13.5C23.8122 13.3508 23.753 13.2077 23.6475 13.1023C23.542 12.9968 23.3989 12.9375 23.2497 12.9375H22.4997C21.9527 12.9375 21.4281 13.1548 21.0413 13.5416C20.6545 13.9284 20.4372 14.453 20.4372 15V15.9375H18.5172C18.3927 15.1664 18.0187 14.4575 17.4526 13.9193C16.8865 13.3812 16.1596 13.0435 15.3832 12.9581L11.9613 4.74469C11.8616 4.50564 11.6934 4.30144 11.4778 4.1578C11.2623 4.01417 11.0091 3.93752 10.7501 3.9375H2.24974C1.90165 3.9375 1.56781 4.07578 1.32167 4.32192C1.07553 4.56806 0.937244 4.9019 0.937244 5.25V14.3175C0.529148 14.844 0.276842 15.4744 0.208971 16.137C0.1411 16.7997 0.260384 17.4681 0.55328 18.0664C0.846176 18.6647 1.30095 19.1689 1.86597 19.5217C2.43098 19.8746 3.08361 20.0619 3.74974 20.0625H14.9997C15.8468 20.0615 16.6658 19.7591 17.3103 19.2094C17.9547 18.6598 18.3826 17.8987 18.5172 17.0625H20.4372V18C20.4372 18.547 20.6545 19.0716 21.0413 19.4584C21.4281 19.8452 21.9527 20.0625 22.4997 20.0625H23.2497C23.3989 20.0625 23.542 20.0032 23.6475 19.8977C23.753 19.7923 23.8122 19.6492 23.8122 19.5C23.8122 19.3508 23.753 19.2077 23.6475 19.1023C23.542 18.9968 23.3989 18.9375 23.2497 18.9375ZM10.9226 5.17781L14.156 12.9375H5.81224V5.0625H10.7501C10.787 5.06261 10.823 5.07361 10.8537 5.09412C10.8844 5.11463 10.9083 5.14375 10.9226 5.17781ZM2.24974 5.0625H4.68724V12.9375H3.74974C3.16062 12.937 2.58065 13.0833 2.06224 13.3631V5.25C2.06224 5.20027 2.082 5.15258 2.11716 5.11742C2.15233 5.08225 2.20002 5.0625 2.24974 5.0625ZM14.9997 18.9375H3.74974C3.10328 18.9375 2.48329 18.6807 2.02617 18.2236C1.56905 17.7665 1.31224 17.1465 1.31224 16.5C1.31224 15.8535 1.56905 15.2335 2.02617 14.7764C2.48329 14.3193 3.10328 14.0625 3.74974 14.0625H14.9997C15.6462 14.0625 16.2662 14.3193 16.7233 14.7764C17.1804 15.2335 17.4372 15.8535 17.4372 16.5C17.4372 17.1465 17.1804 17.7665 16.7233 18.2236C16.2662 18.6807 15.6462 18.9375 14.9997 18.9375ZM15.5622 16.5C15.5622 16.6492 15.503 16.7923 15.3975 16.8977C15.292 17.0032 15.1489 17.0625 14.9997 17.0625H3.74974C3.60056 17.0625 3.45749 17.0032 3.352 16.8977C3.24651 16.7923 3.18724 16.6492 3.18724 16.5C3.18724 16.3508 3.24651 16.2077 3.352 16.1023C3.45749 15.9968 3.60056 15.9375 3.74974 15.9375H14.9997C15.1489 15.9375 15.292 15.9968 15.3975 16.1023C15.503 16.2077 15.5622 16.3508 15.5622 16.5Z" fill="black"/>
</svg>
