<svg width="24" height="24" viewBox="0 0 24 24" fill="none" xmlns="http://www.w3.org/2000/svg">
<path d="M23.0537 2.90625C23.0407 2.83318 23.0134 2.7634 22.9733 2.70094C22.9332 2.63847 22.8812 2.58455 22.8202 2.54229C22.7592 2.50002 22.6904 2.47025 22.6179 2.45468C22.5453 2.4391 22.4704 2.43804 22.3974 2.45156L1.40587 6.19687C1.26856 6.22217 1.14558 6.29764 1.06082 6.40858C0.976065 6.51953 0.935598 6.65803 0.947289 6.79716C0.95898 6.93628 1.02199 7.06609 1.12408 7.16134C1.22616 7.25658 1.36002 7.31046 1.49962 7.3125C1.53323 7.31244 1.56678 7.30962 1.59993 7.30406L11.4371 5.54718V9.1875H5.99962C5.2537 9.1875 4.53833 9.48381 4.01088 10.0113C3.48343 10.5387 3.18712 11.2541 3.18712 12V18C3.18712 18.7459 3.48343 19.4613 4.01088 19.9887C4.53833 20.5162 5.2537 20.8125 5.99962 20.8125H17.9996C18.7455 20.8125 19.4609 20.5162 19.9884 19.9887C20.5158 19.4613 20.8121 18.7459 20.8121 18V12C20.8121 11.2541 20.5158 10.5387 19.9884 10.0113C19.4609 9.48381 18.7455 9.1875 17.9996 9.1875H12.5621V5.34375L22.5981 3.55406C22.7441 3.52796 22.8739 3.44525 22.9592 3.32393C23.0445 3.2026 23.0785 3.05248 23.0537 2.90625ZM9.56212 15.1875V10.3125H14.4371V15.1875H9.56212ZM5.99962 10.3125H8.43712V15.1875H4.31212V12C4.31212 11.5524 4.48991 11.1232 4.80638 10.8068C5.12284 10.4903 5.55207 10.3125 5.99962 10.3125ZM17.9996 19.6875H5.99962C5.55207 19.6875 5.12284 19.5097 4.80638 19.1932C4.48991 18.8768 4.31212 18.4475 4.31212 18V16.3125H19.6871V18C19.6871 18.4475 19.5093 18.8768 19.1929 19.1932C18.8764 19.5097 18.4472 19.6875 17.9996 19.6875ZM19.6871 12V15.1875H15.5621V10.3125H17.9996C18.4472 10.3125 18.8764 10.4903 19.1929 10.8068C19.5093 11.1232 19.6871 11.5524 19.6871 12Z" fill="black"/>
</svg>
