<svg width="24" height="24" viewBox="0 0 24 24" fill="none" xmlns="http://www.w3.org/2000/svg">
<path d="M21.5625 10.5C21.5625 9.95299 21.3452 9.42838 20.9584 9.04159C20.5716 8.65479 20.047 8.43749 19.5 8.43749H12.5625V7.25624C13.1974 7.12576 13.7678 6.78035 14.1777 6.27827C14.5875 5.77618 14.8118 5.14813 14.8125 4.5C14.8125 1.97812 12.4144 0.349682 12.3122 0.281245C12.2198 0.219573 12.1111 0.186661 12 0.186661C11.8889 0.186661 11.7802 0.219573 11.6878 0.281245C11.5856 0.349682 9.1875 1.97812 9.1875 4.5C9.18825 5.14813 9.41245 5.77618 9.82232 6.27827C10.2322 6.78035 10.8026 7.12576 11.4375 7.25624V8.43749H4.5C3.95299 8.43749 3.42839 8.65479 3.04159 9.04159C2.6548 9.42838 2.4375 9.95299 2.4375 10.5V12.6872C2.43812 13.4861 2.70168 14.2626 3.1875 14.8969V18.75C3.1875 19.297 3.4048 19.8216 3.79159 20.2084C4.17839 20.5952 4.70299 20.8125 5.25 20.8125H18.75C19.297 20.8125 19.8216 20.5952 20.2084 20.2084C20.5952 19.8216 20.8125 19.297 20.8125 18.75V14.8969C21.2983 14.2626 21.5619 13.4861 21.5625 12.6872V10.5ZM10.3125 4.5C10.3125 3.05625 11.4375 1.93031 12 1.45875C12.5625 1.9275 13.6875 3.0525 13.6875 4.5C13.6875 4.94755 13.5097 5.37677 13.1932 5.69324C12.8768 6.00971 12.4476 6.18749 12 6.18749C11.5524 6.18749 11.1232 6.00971 10.8068 5.69324C10.4903 5.37677 10.3125 4.94755 10.3125 4.5ZM3.5625 10.5C3.5625 10.2514 3.66127 10.0129 3.83709 9.83708C4.0129 9.66127 4.25136 9.5625 4.5 9.56249H19.5C19.7486 9.5625 19.9871 9.66127 20.1629 9.83708C20.3387 10.0129 20.4375 10.2514 20.4375 10.5V12.6872C20.4375 14.0297 19.3753 15.1509 18.0694 15.1866C17.7436 15.1958 17.4192 15.1397 17.1155 15.0214C16.8118 14.9031 16.5348 14.7251 16.3011 14.498C16.0674 14.2708 15.8816 13.999 15.7547 13.6988C15.6279 13.3986 15.5625 13.0759 15.5625 12.75C15.5625 12.6008 15.5032 12.4577 15.3977 12.3522C15.2923 12.2468 15.1492 12.1875 15 12.1875C14.8508 12.1875 14.7077 12.2468 14.6023 12.3522C14.4968 12.4577 14.4375 12.6008 14.4375 12.75C14.4375 13.3965 14.1807 14.0164 13.7236 14.4736C13.2665 14.9307 12.6465 15.1875 12 15.1875C11.3535 15.1875 10.7335 14.9307 10.2764 14.4736C9.81931 14.0164 9.5625 13.3965 9.5625 12.75C9.5625 12.6008 9.50324 12.4577 9.39775 12.3522C9.29226 12.2468 9.14918 12.1875 9 12.1875C8.85082 12.1875 8.70774 12.2468 8.60225 12.3522C8.49676 12.4577 8.4375 12.6008 8.4375 12.75C8.43763 13.076 8.37236 13.3987 8.24555 13.6991C8.11874 13.9994 7.93296 14.2713 7.69922 14.4986C7.46548 14.7258 7.18852 14.9039 6.88474 15.0222C6.58095 15.1406 6.25651 15.1968 5.93062 15.1875C4.62469 15.1509 3.5625 14.0297 3.5625 12.6872V10.5ZM18.75 19.6875H5.25C5.00136 19.6875 4.7629 19.5887 4.58709 19.4129C4.41127 19.2371 4.3125 18.9986 4.3125 18.75V15.8728C4.79859 16.1455 5.34351 16.2964 5.90062 16.3125C6.37698 16.3266 6.8513 16.2446 7.29523 16.0713C7.73917 15.8979 8.1436 15.6369 8.48438 15.3037C8.67938 15.1131 8.85234 14.9011 9 14.6719C9.32228 15.1751 9.76596 15.5892 10.2902 15.8759C10.8145 16.1627 11.4024 16.3131 12 16.3131C12.5976 16.3131 13.1855 16.1627 13.7098 15.8759C14.234 15.5892 14.6777 15.1751 15 14.6719C15.1483 14.9012 15.3218 15.1132 15.5175 15.3037C16.1807 15.9526 17.0722 16.3148 18 16.3125H18.1003C18.6571 16.2962 19.2017 16.1454 19.6875 15.8728V18.75C19.6875 18.9986 19.5887 19.2371 19.4129 19.4129C19.2371 19.5887 18.9986 19.6875 18.75 19.6875Z" fill="black"/>
</svg>
