<svg width="24" height="24" viewBox="0 0 24 24" fill="none" xmlns="http://www.w3.org/2000/svg">
<path d="M19.8971 9.39751L12.3971 16.8975C12.2917 17.0028 12.1487 17.062 11.9996 17.062C11.8506 17.062 11.7076 17.0028 11.6021 16.8975L4.10214 9.39751C4.00278 9.29088 3.94869 9.14984 3.95126 9.00412C3.95383 8.85839 4.01286 8.71935 4.11592 8.61629C4.21898 8.51323 4.35802 8.4542 4.50375 8.45163C4.64947 8.44905 4.79051 8.50315 4.89714 8.60251L11.9996 15.7041L19.1021 8.60251C19.2088 8.50315 19.3498 8.44905 19.4955 8.45163C19.6413 8.4542 19.7803 8.51323 19.8834 8.61629C19.9864 8.71935 20.0455 8.85839 20.048 9.00412C20.0506 9.14984 19.9965 9.29088 19.8971 9.39751Z" fill="black"/>
</svg>
