<svg width="24" height="24" viewBox="0 0 24 24" fill="none" xmlns="http://www.w3.org/2000/svg">
<path d="M19.148 19.1025C19.2032 19.154 19.2476 19.2161 19.2783 19.2851C19.3091 19.3541 19.3256 19.4286 19.3269 19.5041C19.3283 19.5796 19.3144 19.6547 19.2861 19.7247C19.2578 19.7947 19.2157 19.8584 19.1623 19.9118C19.1088 19.9652 19.0452 20.0073 18.9752 20.0356C18.9051 20.0639 18.8301 20.0778 18.7546 20.0765C18.6791 20.0751 18.6046 20.0586 18.5356 20.0278C18.4666 19.9971 18.4045 19.9528 18.353 19.8975L10.853 12.3975C10.7476 12.292 10.6885 12.1491 10.6885 12C10.6885 11.8509 10.7476 11.708 10.853 11.6025L18.353 4.10251C18.4596 4.00315 18.6006 3.94905 18.7464 3.95163C18.8921 3.9542 19.0311 4.01323 19.1342 4.11629C19.2373 4.21935 19.2963 4.35839 19.2989 4.50411C19.3014 4.64984 19.2473 4.79088 19.148 4.89751L12.0464 12L19.148 19.1025ZM4.54642 12L11.648 4.89751C11.7473 4.79088 11.8014 4.64984 11.7989 4.50411C11.7963 4.35839 11.7373 4.21935 11.6342 4.11629C11.5311 4.01323 11.3921 3.9542 11.2464 3.95163C11.1006 3.94905 10.9596 4.00315 10.853 4.10251L3.35298 11.6025C3.24764 11.708 3.18848 11.8509 3.18848 12C3.18848 12.1491 3.24764 12.292 3.35298 12.3975L10.853 19.8975C10.9045 19.9528 10.9666 19.9971 11.0356 20.0278C11.1046 20.0586 11.1791 20.0751 11.2546 20.0765C11.3301 20.0778 11.4051 20.0639 11.4752 20.0356C11.5452 20.0073 11.6088 19.9652 11.6623 19.9118C11.7157 19.8584 11.7578 19.7947 11.7861 19.7247C11.8144 19.6547 11.8283 19.5796 11.8269 19.5041C11.8256 19.4286 11.8091 19.3541 11.7783 19.2851C11.7476 19.2161 11.7032 19.154 11.648 19.1025L4.54642 12Z" fill="black"/>
</svg>
