<svg width="24" height="24" viewBox="0 0 24 24" fill="none" xmlns="http://www.w3.org/2000/svg">
<path d="M16.8971 12.3975L9.39714 19.8975C9.29051 19.9969 9.14948 20.051 9.00375 20.0484C8.85802 20.0458 8.71898 19.9868 8.61592 19.8837C8.51287 19.7807 8.45383 19.6416 8.45126 19.4959C8.44869 19.3502 8.50278 19.2091 8.60214 19.1025L15.7037 12L8.60214 4.89751C8.50278 4.79088 8.44869 4.64984 8.45126 4.50411C8.45383 4.35839 8.51287 4.21935 8.61592 4.11629C8.71898 4.01323 8.85802 3.9542 9.00375 3.95163C9.14948 3.94905 9.29051 4.00315 9.39714 4.10251L16.8971 11.6025C17.0025 11.708 17.0616 11.8509 17.0616 12C17.0616 12.1491 17.0025 12.292 16.8971 12.3975Z" fill="black"/>
</svg>
