<svg width="24" height="24" viewBox="0 0 24 24" fill="none" xmlns="http://www.w3.org/2000/svg">
<path d="M16.8971 16.1025C17.0025 16.208 17.0616 16.3509 17.0616 16.5C17.0616 16.6491 17.0025 16.792 16.8971 16.8975L12.3971 21.3975C12.2917 21.5028 12.1487 21.562 11.9996 21.562C11.8506 21.562 11.7076 21.5028 11.6021 21.3975L7.10214 16.8975C7.00278 16.7909 6.94869 16.6498 6.95126 16.5041C6.95383 16.3584 7.01287 16.2193 7.11592 16.1163C7.21898 16.0132 7.35802 15.9542 7.50375 15.9516C7.64948 15.949 7.79051 16.0031 7.89714 16.1025L11.9996 20.2041L16.1021 16.1025C16.2076 15.9972 16.3506 15.938 16.4996 15.938C16.6487 15.938 16.7917 15.9972 16.8971 16.1025ZM7.89714 7.89749L11.9996 3.79593L16.1021 7.89749C16.2088 7.99685 16.3498 8.05095 16.4955 8.04838C16.6413 8.0458 16.7803 7.98677 16.8834 7.88371C16.9864 7.78065 17.0455 7.64161 17.048 7.49588C17.0506 7.35016 16.9965 7.20912 16.8971 7.10249L12.3971 2.60249C12.2917 2.49716 12.1487 2.43799 11.9996 2.43799C11.8506 2.43799 11.7076 2.49716 11.6021 2.60249L7.10214 7.10249C7.00278 7.20912 6.94869 7.35016 6.95126 7.49588C6.95383 7.64161 7.01287 7.78065 7.11592 7.88371C7.21898 7.98677 7.35802 8.0458 7.50375 8.04838C7.64948 8.05095 7.79051 7.99685 7.89714 7.89749Z" fill="black"/>
</svg>
