<svg width="24" height="24" viewBox="0 0 24 24" fill="none" xmlns="http://www.w3.org/2000/svg">
<path d="M19.8971 15.3975C19.7917 15.5028 19.6487 15.562 19.4996 15.562C19.3506 15.562 19.2076 15.5028 19.1021 15.3975L11.9996 8.29593L4.89714 15.3975C4.79051 15.4969 4.64947 15.5509 4.50375 15.5484C4.35802 15.5458 4.21898 15.4868 4.11592 15.3837C4.01286 15.2807 3.95383 15.1416 3.95126 14.9959C3.94869 14.8502 4.00278 14.7091 4.10214 14.6025L11.6021 7.10249C11.7076 6.99716 11.8506 6.93799 11.9996 6.93799C12.1487 6.93799 12.2917 6.99716 12.3971 7.10249L19.8971 14.6025C20.0025 14.708 20.0616 14.8509 20.0616 15C20.0616 15.1491 20.0025 15.292 19.8971 15.3975Z" fill="black"/>
</svg>
