<svg width="24" height="24" viewBox="0 0 24 24" fill="none" xmlns="http://www.w3.org/2000/svg">
<path d="M4.1025 7.14751C4.00314 7.04088 3.94905 6.89984 3.95162 6.75412C3.95419 6.60839 4.01322 6.46935 4.11628 6.36629C4.21934 6.26323 4.35838 6.2042 4.50411 6.20163C4.64983 6.19905 4.79087 6.25315 4.8975 6.35251L12 13.4541L19.1025 6.35251C19.2091 6.25315 19.3502 6.19905 19.4959 6.20163C19.6416 6.2042 19.7807 6.26323 19.8837 6.36629C19.9868 6.46935 20.0458 6.60839 20.0484 6.75412C20.051 6.89984 19.9969 7.04088 19.8975 7.14751L12.3975 14.6475C12.292 14.7528 12.1491 14.812 12 14.812C11.8509 14.812 11.708 14.7528 11.6025 14.6475L4.1025 7.14751ZM19.5 17.4375H4.5C4.35082 17.4375 4.20774 17.4968 4.10225 17.6023C3.99676 17.7077 3.9375 17.8508 3.9375 18C3.9375 18.1492 3.99676 18.2923 4.10225 18.3978C4.20774 18.5032 4.35082 18.5625 4.5 18.5625H19.5C19.6492 18.5625 19.7923 18.5032 19.8977 18.3978C20.0032 18.2923 20.0625 18.1492 20.0625 18C20.0625 17.8508 20.0032 17.7077 19.8977 17.6023C19.7923 17.4968 19.6492 17.4375 19.5 17.4375Z" fill="black"/>
</svg>
