<svg width="24" height="24" viewBox="0 0 24 24" fill="none" xmlns="http://www.w3.org/2000/svg">
<path d="M13.8971 11.6025C14.0025 11.708 14.0616 11.8509 14.0616 12C14.0616 12.1491 14.0025 12.292 13.8971 12.3975L6.39714 19.8975C6.29051 19.9969 6.14947 20.051 6.00375 20.0484C5.85802 20.0458 5.71898 19.9868 5.61592 19.8837C5.51286 19.7807 5.45383 19.6416 5.45126 19.4959C5.44869 19.3502 5.50278 19.2091 5.60214 19.1025L12.7037 12L5.60214 4.8975C5.50278 4.79087 5.44869 4.64983 5.45126 4.50411C5.45383 4.35838 5.51286 4.21934 5.61592 4.11628C5.71898 4.01322 5.85802 3.95419 6.00375 3.95162C6.14947 3.94905 6.29051 4.00314 6.39714 4.1025L13.8971 11.6025ZM17.2496 3.9375C17.1005 3.9375 16.9574 3.99676 16.8519 4.10225C16.7464 4.20774 16.6871 4.35082 16.6871 4.5V19.5C16.6871 19.6492 16.7464 19.7923 16.8519 19.8977C16.9574 20.0032 17.1005 20.0625 17.2496 20.0625C17.3988 20.0625 17.5419 20.0032 17.6474 19.8977C17.7529 19.7923 17.8121 19.6492 17.8121 19.5V4.5C17.8121 4.35082 17.7529 4.20774 17.6474 4.10225C17.5419 3.99676 17.3988 3.9375 17.2496 3.9375Z" fill="black"/>
</svg>
