<svg width="24" height="24" viewBox="0 0 24 24" fill="none" xmlns="http://www.w3.org/2000/svg">
<path d="M19.8971 12.3525C20.0025 12.458 20.0616 12.6009 20.0616 12.75C20.0616 12.8991 20.0025 13.042 19.8971 13.1475L12.3971 20.6475C12.2917 20.7528 12.1487 20.812 11.9996 20.812C11.8506 20.812 11.7076 20.7528 11.6021 20.6475L4.10214 13.1475C4.00278 13.0409 3.94869 12.8998 3.95126 12.7541C3.95383 12.6084 4.01286 12.4693 4.11592 12.3663C4.21898 12.2632 4.35802 12.2042 4.50375 12.2016C4.64947 12.1991 4.79051 12.2531 4.89714 12.3525L11.9996 19.4541L19.1021 12.3525C19.2076 12.2472 19.3506 12.188 19.4996 12.188C19.6487 12.188 19.7917 12.2472 19.8971 12.3525ZM11.6021 13.1475C11.7076 13.2528 11.8506 13.312 11.9996 13.312C12.1487 13.312 12.2917 13.2528 12.3971 13.1475L19.8971 5.64751C19.9965 5.54088 20.0506 5.39984 20.048 5.25411C20.0455 5.10839 19.9864 4.96935 19.8834 4.86629C19.7803 4.76323 19.6413 4.7042 19.4955 4.70163C19.3498 4.69905 19.2088 4.75315 19.1021 4.85251L11.9996 11.9541L4.89714 4.85251C4.79051 4.75315 4.64947 4.69905 4.50375 4.70163C4.35802 4.7042 4.21898 4.76323 4.11592 4.86629C4.01286 4.96935 3.95383 5.10839 3.95126 5.25411C3.94869 5.39984 4.00278 5.54088 4.10214 5.64751L11.6021 13.1475Z" fill="black"/>
</svg>
