<svg width="24" height="24" viewBox="0 0 24 24" fill="none" xmlns="http://www.w3.org/2000/svg">
<path d="M19.8971 18.3525C19.9524 18.404 19.9967 18.4661 20.0275 18.5351C20.0582 18.6041 20.0748 18.6786 20.0761 18.7541C20.0774 18.8296 20.0635 18.9046 20.0352 18.9747C20.0069 19.0447 19.9648 19.1084 19.9114 19.1618C19.858 19.2152 19.7944 19.2573 19.7243 19.2856C19.6543 19.3139 19.5793 19.3278 19.5037 19.3264C19.4282 19.3251 19.3537 19.3086 19.2847 19.2778C19.2157 19.2471 19.1536 19.2028 19.1021 19.1475L11.9996 12.0459L4.89714 19.1475C4.79051 19.2469 4.64947 19.3009 4.50375 19.2984C4.35802 19.2958 4.21898 19.2368 4.11592 19.1337C4.01286 19.0306 3.95383 18.8916 3.95126 18.7459C3.94869 18.6002 4.00278 18.4591 4.10214 18.3525L11.6021 10.8525C11.7076 10.7472 11.8506 10.688 11.9996 10.688C12.1487 10.688 12.2917 10.7472 12.3971 10.8525L19.8971 18.3525ZM4.89714 11.6475L11.9996 4.54593L19.1021 11.6475C19.2088 11.7469 19.3498 11.8009 19.4955 11.7984C19.6413 11.7958 19.7803 11.7368 19.8834 11.6337C19.9864 11.5306 20.0455 11.3916 20.048 11.2459C20.0506 11.1002 19.9965 10.9591 19.8971 10.8525L12.3971 3.35249C12.2917 3.24716 12.1487 3.18799 11.9996 3.18799C11.8506 3.18799 11.7076 3.24716 11.6021 3.35249L4.10214 10.8525C4.00278 10.9591 3.94869 11.1002 3.95126 11.2459C3.95383 11.3916 4.01286 11.5306 4.11592 11.6337C4.21898 11.7368 4.35802 11.7958 4.50375 11.7984C4.64947 11.8009 4.79051 11.7469 4.89714 11.6475Z" fill="black"/>
</svg>
