<svg width="24" height="24" viewBox="0 0 24 24" fill="none" xmlns="http://www.w3.org/2000/svg">
<path d="M13.1471 12.3975L5.64714 19.8975C5.54051 19.9969 5.39947 20.051 5.25375 20.0484C5.10802 20.0458 4.96898 19.9868 4.86592 19.8837C4.76286 19.7807 4.70383 19.6416 4.70126 19.4959C4.69869 19.3502 4.75278 19.2091 4.85214 19.1025L11.9537 12L4.85214 4.89751C4.75278 4.79088 4.69869 4.64984 4.70126 4.50411C4.70383 4.35839 4.76286 4.21935 4.86592 4.11629C4.96898 4.01323 5.10802 3.9542 5.25375 3.95163C5.39947 3.94905 5.54051 4.00315 5.64714 4.10251L13.1471 11.6025C13.2525 11.708 13.3116 11.8509 13.3116 12C13.3116 12.1491 13.2525 12.292 13.1471 12.3975ZM20.6471 11.6025L13.1471 4.10251C13.0405 4.00315 12.8995 3.94905 12.7537 3.95163C12.608 3.9542 12.469 4.01323 12.3659 4.11629C12.2629 4.21935 12.2038 4.35839 12.2013 4.50411C12.1987 4.64984 12.2528 4.79088 12.3521 4.89751L19.4537 12L12.3521 19.1025C12.2969 19.154 12.2525 19.2161 12.2218 19.2851C12.1911 19.3541 12.1745 19.4286 12.1732 19.5041C12.1719 19.5796 12.1858 19.6547 12.214 19.7247C12.2423 19.7947 12.2844 19.8584 12.3379 19.9118C12.3913 19.9652 12.4549 20.0073 12.5249 20.0356C12.595 20.0639 12.67 20.0778 12.7455 20.0765C12.8211 20.0751 12.8955 20.0586 12.9645 20.0278C13.0335 19.9971 13.0956 19.9528 13.1471 19.8975L20.6471 12.3975C20.7525 12.292 20.8116 12.1491 20.8116 12C20.8116 11.8509 20.7525 11.708 20.6471 11.6025Z" fill="black"/>
</svg>
