<svg width="24" height="24" viewBox="0 0 24 24" fill="none" xmlns="http://www.w3.org/2000/svg">
<path d="M15.398 19.1025C15.4532 19.154 15.4976 19.2161 15.5283 19.2851C15.5591 19.3541 15.5756 19.4286 15.5769 19.5041C15.5783 19.5796 15.5644 19.6547 15.5361 19.7247C15.5078 19.7947 15.4657 19.8584 15.4123 19.9118C15.3588 19.9652 15.2952 20.0073 15.2252 20.0356C15.1551 20.0639 15.0801 20.0778 15.0046 20.0765C14.9291 20.0751 14.8546 20.0586 14.7856 20.0278C14.7166 19.9971 14.6545 19.9528 14.603 19.8975L7.10298 12.3975C6.99764 12.292 6.93848 12.1491 6.93848 12C6.93848 11.8509 6.99764 11.708 7.10298 11.6025L14.603 4.10251C14.7096 4.00315 14.8506 3.94905 14.9964 3.95163C15.1421 3.9542 15.2811 4.01323 15.3842 4.11629C15.4873 4.21935 15.5463 4.35839 15.5489 4.50411C15.5514 4.64984 15.4973 4.79088 15.398 4.89751L8.29642 12L15.398 19.1025Z" fill="black"/>
</svg>
