<svg width="24" height="24" viewBox="0 0 24 24" fill="none" xmlns="http://www.w3.org/2000/svg">
<path d="M21.75 6.1875H18.6075L21.3975 3.3975C21.4528 3.346 21.4971 3.2839 21.5279 3.2149C21.5586 3.1459 21.5751 3.07142 21.5765 2.99589C21.5778 2.92036 21.5639 2.84534 21.5356 2.7753C21.5073 2.70526 21.4652 2.64164 21.4118 2.58822C21.3584 2.53481 21.2948 2.4927 21.2247 2.46441C21.1547 2.43612 21.0797 2.42222 21.0041 2.42356C20.9286 2.42489 20.8541 2.44142 20.7851 2.47216C20.7161 2.50291 20.654 2.54723 20.6025 2.6025L17.8125 5.3925V2.25C17.8125 2.10082 17.7533 1.95774 17.6478 1.85225C17.5423 1.74676 17.3992 1.6875 17.25 1.6875C17.1008 1.6875 16.9578 1.74676 16.8523 1.85225C16.7468 1.95774 16.6875 2.10082 16.6875 2.25V5.63906C15.5706 4.90726 14.2358 4.58233 12.9075 4.71892C11.5792 4.8555 10.3384 5.44527 9.39378 6.38906C5.64097 10.0688 2.81722 18.8859 2.5669 19.6875C2.44976 19.9325 2.41147 20.2077 2.45732 20.4754C2.50317 20.743 2.6309 20.9898 2.8229 21.1818C3.0149 21.3738 3.26173 21.5015 3.52936 21.5474C3.79699 21.5932 4.07226 21.555 4.31722 21.4378C5.11409 21.1875 13.9378 18.3619 17.61 14.6156C18.5547 13.6708 19.1451 12.4293 19.2817 11.1001C19.4183 9.77101 19.0928 8.43539 18.36 7.31812H21.75C21.8992 7.31812 22.0423 7.25886 22.1478 7.15337C22.2533 7.04788 22.3125 6.90481 22.3125 6.75562C22.3125 6.60644 22.2533 6.46337 22.1478 6.35788C22.0423 6.25239 21.8992 6.19312 21.75 6.19312V6.1875ZM16.8103 13.8197C15.9375 14.7188 14.7188 15.5625 13.3772 16.335L10.8966 13.8534C10.791 13.7479 10.6479 13.6886 10.4986 13.6886C10.3494 13.6886 10.2062 13.7479 10.1007 13.8534C9.99511 13.959 9.93581 14.1021 9.93581 14.2514C9.93581 14.4007 9.99511 14.5438 10.1007 14.6494L12.3507 16.8994C8.44222 18.9619 4.0069 20.3512 3.93847 20.3681C3.9042 20.379 3.87095 20.3928 3.83909 20.4094C3.80369 20.4279 3.76329 20.4347 3.72378 20.4287C3.68426 20.4227 3.64771 20.4042 3.61944 20.3759C3.59118 20.3476 3.57269 20.3111 3.56667 20.2716C3.56065 20.2321 3.56741 20.1916 3.58597 20.1562C3.60262 20.1262 3.61673 20.0949 3.62815 20.0625C3.65628 19.9688 6.33284 11.4113 9.79503 7.59375L13.1016 10.8994C13.1531 10.9546 13.2152 10.999 13.2842 11.0297C13.3532 11.0605 13.4277 11.077 13.5032 11.0783C13.5787 11.0797 13.6538 11.0658 13.7238 11.0375C13.7938 11.0092 13.8575 10.9671 13.9109 10.9137C13.9643 10.8602 14.0064 10.7966 14.0347 10.7266C14.063 10.6565 14.0769 10.5815 14.0755 10.506C14.0742 10.4305 14.0577 10.356 14.0269 10.287C13.9962 10.218 13.9519 10.1559 13.8966 10.1044L10.606 6.81375C11.546 6.07469 12.733 5.72283 13.9239 5.83019C15.1149 5.93754 16.2198 6.496 17.0125 7.39126C17.8053 8.28652 18.2259 9.4509 18.1883 10.6461C18.1507 11.8413 17.6578 12.9769 16.8103 13.8206V13.8197Z" fill="black"/>
</svg>
