<svg width="24" height="24" viewBox="0 0 24 24" fill="none" xmlns="http://www.w3.org/2000/svg">
<path d="M22.2956 14.8631L20.1881 6.43219C20.1172 6.148 19.9533 5.8957 19.7224 5.71545C19.4915 5.5352 19.207 5.43736 18.9141 5.4375H12.5625V3.75C12.5625 3.4019 12.4242 3.06806 12.1781 2.82192C11.9319 2.57578 11.5981 2.4375 11.25 2.4375H7.5C7.1519 2.4375 6.81806 2.57578 6.57192 2.82192C6.32578 3.06806 6.1875 3.4019 6.1875 3.75V5.4375H5.08594C4.79316 5.43731 4.50872 5.53502 4.27786 5.71508C4.047 5.89515 3.88298 6.14724 3.81187 6.43125L1.70438 14.8631C1.69316 14.9079 1.68749 14.9539 1.6875 15V18C1.6875 18.3481 1.82578 18.6819 2.07192 18.9281C2.31806 19.1742 2.6519 19.3125 3 19.3125H21C21.3481 19.3125 21.6819 19.1742 21.9281 18.9281C22.1742 18.6819 22.3125 18.3481 22.3125 18V15C22.3125 14.9539 22.3068 14.9079 22.2956 14.8631ZM7.3125 3.75C7.3125 3.70027 7.33225 3.65258 7.36742 3.61742C7.40258 3.58225 7.45027 3.5625 7.5 3.5625H11.25C11.2997 3.5625 11.3474 3.58225 11.3826 3.61742C11.4177 3.65258 11.4375 3.70027 11.4375 3.75V5.4375H7.3125V3.75ZM4.90406 6.70406C4.91429 6.66359 4.93774 6.62768 4.97068 6.60204C5.00363 6.57639 5.04419 6.56248 5.08594 6.5625H18.9141C18.9558 6.56248 18.9964 6.57639 19.0293 6.60204C19.0623 6.62768 19.0857 6.66359 19.0959 6.70406L21.03 14.4375H2.97L4.90406 6.70406ZM21 18.1875H3C2.95027 18.1875 2.90258 18.1677 2.86742 18.1326C2.83225 18.0974 2.8125 18.0497 2.8125 18V15.5625H21.1875V18C21.1875 18.0497 21.1677 18.0974 21.1326 18.1326C21.0974 18.1677 21.0497 18.1875 21 18.1875ZM6.1875 9C6.1875 8.85082 6.24676 8.70774 6.35225 8.60225C6.45774 8.49676 6.60082 8.4375 6.75 8.4375H8.25C8.39918 8.4375 8.54226 8.49676 8.64775 8.60225C8.75324 8.70774 8.8125 8.85082 8.8125 9C8.8125 9.14918 8.75324 9.29226 8.64775 9.39775C8.54226 9.50324 8.39918 9.5625 8.25 9.5625H6.75C6.60082 9.5625 6.45774 9.50324 6.35225 9.39775C6.24676 9.29226 6.1875 9.14918 6.1875 9ZM10.6875 9C10.6875 8.85082 10.7468 8.70774 10.8523 8.60225C10.9577 8.49676 11.1008 8.4375 11.25 8.4375H12.75C12.8992 8.4375 13.0423 8.49676 13.1477 8.60225C13.2532 8.70774 13.3125 8.85082 13.3125 9C13.3125 9.14918 13.2532 9.29226 13.1477 9.39775C13.0423 9.50324 12.8992 9.5625 12.75 9.5625H11.25C11.1008 9.5625 10.9577 9.50324 10.8523 9.39775C10.7468 9.29226 10.6875 9.14918 10.6875 9ZM15.1875 9C15.1875 8.85082 15.2468 8.70774 15.3523 8.60225C15.4577 8.49676 15.6008 8.4375 15.75 8.4375H17.25C17.3992 8.4375 17.5423 8.49676 17.6477 8.60225C17.7532 8.70774 17.8125 8.85082 17.8125 9C17.8125 9.14918 17.7532 9.29226 17.6477 9.39775C17.5423 9.50324 17.3992 9.5625 17.25 9.5625H15.75C15.6008 9.5625 15.4577 9.50324 15.3523 9.39775C15.2468 9.29226 15.1875 9.14918 15.1875 9ZM6.1875 12C6.1875 11.8508 6.24676 11.7077 6.35225 11.6023C6.45774 11.4968 6.60082 11.4375 6.75 11.4375H8.25C8.39918 11.4375 8.54226 11.4968 8.64775 11.6023C8.75324 11.7077 8.8125 11.8508 8.8125 12C8.8125 12.1492 8.75324 12.2923 8.64775 12.3977C8.54226 12.5032 8.39918 12.5625 8.25 12.5625H6.75C6.60082 12.5625 6.45774 12.5032 6.35225 12.3977C6.24676 12.2923 6.1875 12.1492 6.1875 12ZM10.6875 12C10.6875 11.8508 10.7468 11.7077 10.8523 11.6023C10.9577 11.4968 11.1008 11.4375 11.25 11.4375H12.75C12.8992 11.4375 13.0423 11.4968 13.1477 11.6023C13.2532 11.7077 13.3125 11.8508 13.3125 12C13.3125 12.1492 13.2532 12.2923 13.1477 12.3977C13.0423 12.5032 12.8992 12.5625 12.75 12.5625H11.25C11.1008 12.5625 10.9577 12.5032 10.8523 12.3977C10.7468 12.2923 10.6875 12.1492 10.6875 12ZM15.1875 12C15.1875 11.8508 15.2468 11.7077 15.3523 11.6023C15.4577 11.4968 15.6008 11.4375 15.75 11.4375H17.25C17.3992 11.4375 17.5423 11.4968 17.6477 11.6023C17.7532 11.7077 17.8125 11.8508 17.8125 12C17.8125 12.1492 17.7532 12.2923 17.6477 12.3977C17.5423 12.5032 17.3992 12.5625 17.25 12.5625H15.75C15.6008 12.5625 15.4577 12.5032 15.3523 12.3977C15.2468 12.2923 15.1875 12.1492 15.1875 12Z" fill="black"/>
</svg>
