<svg width="24" height="24" viewBox="0 0 24 24" fill="none" xmlns="http://www.w3.org/2000/svg">
<path d="M20.7525 3.28781C20.5129 3.188 20.2492 3.16145 19.9945 3.21151C19.7399 3.26157 19.5058 3.386 19.3219 3.56906L19.2947 3.59718L17.5706 5.58562C15.912 4.50936 13.9772 3.93661 12 3.93661C10.0228 3.93661 8.08797 4.50936 6.42938 5.58562L4.70531 3.60093L4.67813 3.57281C4.49462 3.38929 4.26084 3.26429 4.00631 3.21361C3.75179 3.16293 3.48795 3.18884 3.24815 3.28807C3.00835 3.3873 2.80335 3.5554 2.65906 3.77111C2.51477 3.98683 2.43767 4.24047 2.4375 4.5V12.75C2.4375 17.6091 6.7275 21.5625 12 21.5625C17.2725 21.5625 21.5625 17.6091 21.5625 12.75V4.5C21.5624 4.2405 21.4855 3.98685 21.3413 3.77109C21.1971 3.55534 20.9922 3.38716 20.7525 3.28781ZM20.4375 12.75C20.4375 16.8169 16.9537 20.1562 12.5625 20.4197V18.2325L13.8975 16.8975C14.0016 16.7918 14.0598 16.6492 14.0593 16.5008C14.0587 16.3524 13.9996 16.2102 13.8947 16.1052C13.7899 16.0003 13.6478 15.941 13.4994 15.9403C13.351 15.9396 13.2083 15.9975 13.1025 16.1016L12 17.2041L10.8975 16.1016C10.7917 15.9975 10.649 15.9396 10.5006 15.9403C10.3522 15.941 10.2101 16.0003 10.1053 16.1052C10.0004 16.2102 9.94125 16.3524 9.94074 16.5008C9.94022 16.6492 9.99836 16.7918 10.1025 16.8975L11.4375 18.2325V20.4197C7.04625 20.1562 3.5625 16.8169 3.5625 12.75V4.5C3.56123 4.46267 3.57167 4.42589 3.59235 4.39479C3.61302 4.36369 3.64291 4.33983 3.67781 4.32656C3.70223 4.31655 3.7283 4.31114 3.75469 4.31062C3.79854 4.31092 3.84069 4.32765 3.87281 4.3575L5.91281 6.70125C6.00581 6.8083 6.13581 6.87629 6.27679 6.89158C6.41777 6.90688 6.55933 6.86837 6.67313 6.78375C7.21959 6.3814 7.81185 6.0453 8.4375 5.7825V8.25C8.4375 8.39918 8.49676 8.54225 8.60225 8.64774C8.70774 8.75323 8.85082 8.8125 9 8.8125C9.14918 8.8125 9.29226 8.75323 9.39775 8.64774C9.50324 8.54225 9.5625 8.39918 9.5625 8.25V5.39156C10.175 5.22317 10.8034 5.11886 11.4375 5.08031V8.25C11.4375 8.39918 11.4968 8.54225 11.6023 8.64774C11.7077 8.75323 11.8508 8.8125 12 8.8125C12.1492 8.8125 12.2923 8.75323 12.3977 8.64774C12.5032 8.54225 12.5625 8.39918 12.5625 8.25V5.08031C13.1966 5.11886 13.825 5.22317 14.4375 5.39156V8.25C14.4375 8.39918 14.4968 8.54225 14.6023 8.64774C14.7077 8.75323 14.8508 8.8125 15 8.8125C15.1492 8.8125 15.2923 8.75323 15.3977 8.64774C15.5032 8.54225 15.5625 8.39918 15.5625 8.25V5.7825C16.1884 6.04677 16.7807 6.38445 17.3269 6.78843C17.4407 6.87305 17.5822 6.91157 17.7232 6.89627C17.8642 6.88097 17.9942 6.81299 18.0872 6.70593L20.1272 4.36218C20.1541 4.33884 20.1871 4.32365 20.2223 4.31839C20.2576 4.31312 20.2936 4.31801 20.3261 4.33247C20.3587 4.34693 20.3865 4.37037 20.4062 4.40003C20.4259 4.4297 20.4368 4.46438 20.4375 4.5V12.75ZM8.8125 13.125C8.8125 13.3104 8.75752 13.4917 8.6545 13.6458C8.55149 13.8 8.40507 13.9202 8.23377 13.9911C8.06246 14.0621 7.87396 14.0807 7.6921 14.0445C7.51025 14.0083 7.3432 13.919 7.21209 13.7879C7.08098 13.6568 6.99169 13.4897 6.95551 13.3079C6.91934 13.126 6.93791 12.9375 7.00886 12.7662C7.07982 12.5949 7.19998 12.4485 7.35415 12.3455C7.50832 12.2425 7.68958 12.1875 7.875 12.1875C8.12364 12.1875 8.3621 12.2863 8.53791 12.4621C8.71373 12.6379 8.8125 12.8764 8.8125 13.125ZM17.0625 13.125C17.0625 13.3104 17.0075 13.4917 16.9045 13.6458C16.8015 13.8 16.6551 13.9202 16.4838 13.9911C16.3125 14.0621 16.124 14.0807 15.9421 14.0445C15.7602 14.0083 15.5932 13.919 15.4621 13.7879C15.331 13.6568 15.2417 13.4897 15.2055 13.3079C15.1693 13.126 15.1879 12.9375 15.2589 12.7662C15.3298 12.5949 15.45 12.4485 15.6042 12.3455C15.7583 12.2425 15.9396 12.1875 16.125 12.1875C16.3736 12.1875 16.6121 12.2863 16.7879 12.4621C16.9637 12.6379 17.0625 12.8764 17.0625 13.125Z" fill="black"/>
</svg>
