<svg width="24" height="24" viewBox="0 0 24 24" fill="none" xmlns="http://www.w3.org/2000/svg">
<path d="M12.5038 7.99875C12.4571 7.90515 12.3853 7.8264 12.2964 7.77136C12.2075 7.71632 12.1049 7.68716 12.0004 7.68716C11.8958 7.68716 11.7933 7.71632 11.7043 7.77136C11.6154 7.8264 11.5436 7.90515 11.4969 7.99875L4.74692 21.4988C4.68016 21.6323 4.66918 21.7868 4.71638 21.9285C4.76359 22.0701 4.86512 22.1871 4.99864 22.2539C5.13216 22.3207 5.28673 22.3317 5.42835 22.2844C5.56997 22.2372 5.68704 22.1357 5.7538 22.0022L7.09817 19.3125H16.9025L18.2469 22.0012C18.2936 22.0948 18.3655 22.1735 18.4544 22.2284C18.5433 22.2834 18.6458 22.3125 18.7504 22.3125C18.8377 22.3127 18.9238 22.2922 19.0016 22.2525C19.0677 22.2195 19.1267 22.1738 19.1752 22.1181C19.2236 22.0623 19.2606 21.9975 19.2841 21.9274C19.3075 21.8573 19.3169 21.7833 19.3117 21.7096C19.3065 21.6359 19.2868 21.5639 19.2538 21.4978L12.5038 7.99875ZM12.0004 9.50812L14.84 15.1875H9.16067L12.0004 9.50812ZM7.66067 18.1875L8.59817 16.3125H15.4025L16.34 18.1875H7.66067ZM15.1363 8.82187C15.1709 8.63322 15.1881 8.4418 15.1879 8.25C15.1879 7.40462 14.852 6.59387 14.2543 5.9961C13.6565 5.39832 12.8457 5.0625 12.0004 5.0625C11.155 5.0625 10.3442 5.39832 9.74646 5.9961C9.14868 6.59387 8.81286 7.40462 8.81286 8.25C8.8126 8.4418 8.82986 8.63322 8.86442 8.82187C8.8909 8.9687 8.85797 9.12002 8.77288 9.24257C8.68778 9.36511 8.5575 9.44883 8.41067 9.47531C8.26385 9.50179 8.11252 9.46886 7.98998 9.38377C7.86744 9.29867 7.78372 9.16838 7.75724 9.02156C7.64441 8.40015 7.66945 7.76153 7.83058 7.15086C7.99172 6.54019 8.28503 5.97236 8.68976 5.48752C9.0945 5.00268 9.6008 4.61265 10.1729 4.34501C10.7449 4.07737 11.3688 3.93864 12.0004 3.93864C12.6319 3.93864 13.2558 4.07737 13.8279 4.34501C14.3999 4.61265 14.9062 5.00268 15.311 5.48752C15.7157 5.97236 16.009 6.54019 16.1701 7.15086C16.3313 7.76153 16.3563 8.40015 16.2435 9.02156C16.2202 9.15119 16.1522 9.26854 16.0513 9.35317C15.9504 9.4378 15.823 9.48434 15.6913 9.48469C15.6573 9.48482 15.6234 9.48168 15.59 9.47531C15.5173 9.4622 15.4479 9.4349 15.3858 9.39497C15.3236 9.35504 15.27 9.30325 15.2278 9.24257C15.1857 9.1819 15.1559 9.11351 15.1402 9.04133C15.1245 8.96914 15.1232 8.89457 15.1363 8.82187ZM6.16442 12.6562C5.46566 11.7307 4.99703 10.6523 4.79722 9.51C4.59741 8.36768 4.67215 7.19422 5.01527 6.08648C5.35838 4.97873 5.96004 3.96848 6.77057 3.1391C7.5811 2.30973 8.57726 1.68501 9.67682 1.31653C10.7764 0.94805 11.9478 0.846366 13.0944 1.01987C14.2411 1.19338 15.33 1.6371 16.2713 2.31441C17.2126 2.99172 17.9793 3.88319 18.5082 4.91525C19.037 5.9473 19.3129 7.09033 19.3129 8.25C19.3175 9.84098 18.7986 11.3893 17.8363 12.6562C17.7917 12.7152 17.736 12.7647 17.6723 12.8021C17.6086 12.8395 17.5381 12.8639 17.4649 12.8741C17.3918 12.8842 17.3173 12.8798 17.2458 12.8612C17.1744 12.8426 17.1072 12.81 17.0483 12.7655C16.9894 12.7209 16.9399 12.6652 16.9025 12.6014C16.8651 12.5377 16.8407 12.4673 16.8305 12.3941C16.8204 12.3209 16.8248 12.2465 16.8434 12.175C16.862 12.1035 16.8945 12.0364 16.9391 11.9775C17.7531 10.9057 18.1919 9.59586 18.1879 8.25C18.1879 6.60897 17.536 5.03516 16.3756 3.87478C15.2152 2.7144 13.6414 2.0625 12.0004 2.0625C10.3593 2.0625 8.78552 2.7144 7.62514 3.87478C6.46476 5.03516 5.81286 6.60897 5.81286 8.25C5.80885 9.59586 6.24765 10.9057 7.06161 11.9775C7.10618 12.0364 7.13871 12.1035 7.15734 12.175C7.17597 12.2465 7.18034 12.3209 7.1702 12.3941C7.16005 12.4673 7.1356 12.5377 7.09823 12.6014C7.06086 12.6652 7.0113 12.7209 6.95239 12.7655C6.89348 12.81 6.82637 12.8426 6.75489 12.8612C6.68341 12.8798 6.60896 12.8842 6.53579 12.8741C6.46262 12.8639 6.39216 12.8395 6.32844 12.8021C6.26472 12.7647 6.20899 12.7152 6.16442 12.6562Z" fill="black"/>
</svg>
