<svg width="24" height="24" viewBox="0 0 24 24" fill="none" xmlns="http://www.w3.org/2000/svg">
<path d="M13.3364 0.937486H9.15422C9.0364 0.938556 8.9219 0.976594 8.82686 1.04623C8.73182 1.11587 8.66105 1.21359 8.62453 1.32561C8.48672 1.74842 5.2936 11.7065 8.0761 15.5353C8.70891 16.4053 9.58547 16.9059 10.688 17.0306V21.9375H8.99953C8.85035 21.9375 8.70727 21.9967 8.60179 22.1022C8.4963 22.2077 8.43703 22.3508 8.43703 22.5C8.43703 22.6492 8.4963 22.7922 8.60179 22.8977C8.70727 23.0032 8.85035 23.0625 8.99953 23.0625H13.4995C13.6487 23.0625 13.7918 23.0032 13.8973 22.8977C14.0028 22.7922 14.062 22.6492 14.062 22.5C14.062 22.3508 14.0028 22.2077 13.8973 22.1022C13.7918 21.9967 13.6487 21.9375 13.4995 21.9375H11.812V17.0306C12.9145 16.9059 13.7911 16.4053 14.423 15.5353C17.2055 11.7065 14.0133 1.74842 13.8755 1.32561C13.8385 1.21207 13.7663 1.11326 13.6693 1.04348C13.5724 0.973703 13.4558 0.93658 13.3364 0.937486ZM9.56953 2.06249H12.9211C13.1311 2.76374 13.5773 4.33967 13.9289 6.18749H8.56266C8.91422 4.33967 9.36047 2.76374 9.56953 2.06249ZM13.507 14.8744C12.9886 15.5897 12.2489 15.9375 11.2495 15.9375C10.2502 15.9375 9.50578 15.5897 8.98641 14.8744C8.01141 13.5394 7.80047 10.9265 8.36672 7.31249H14.1248C14.6911 10.9265 14.4792 13.5394 13.5089 14.8744H13.507ZM21.562 4.87499C21.562 5.06041 21.507 5.24166 21.404 5.39583C21.301 5.55 21.1546 5.67017 20.9833 5.74112C20.812 5.81208 20.6235 5.83065 20.4416 5.79447C20.2598 5.7583 20.0927 5.66901 19.9616 5.5379C19.8305 5.40679 19.7412 5.23974 19.705 5.05788C19.6689 4.87603 19.6874 4.68753 19.7584 4.51622C19.8294 4.34491 19.9495 4.1985 20.1037 4.09548C20.2579 3.99247 20.4391 3.93749 20.6245 3.93749C20.8732 3.93749 21.1116 4.03626 21.2874 4.21207C21.4633 4.38789 21.562 4.62635 21.562 4.87499ZM19.312 1.87499C19.312 2.06041 19.257 2.24166 19.154 2.39583C19.051 2.55 18.9046 2.67017 18.7333 2.74112C18.562 2.81208 18.3735 2.83065 18.1916 2.79447C18.0098 2.7583 17.8427 2.66901 17.7116 2.5379C17.5805 2.40679 17.4912 2.23974 17.455 2.05788C17.4189 1.87603 17.4374 1.68753 17.5084 1.51622C17.5794 1.34491 17.6995 1.1985 17.8537 1.09548C18.0079 0.992469 18.1891 0.937486 18.3745 0.937486C18.6232 0.937486 18.8616 1.03626 19.0374 1.21207C19.2133 1.38789 19.312 1.62635 19.312 1.87499ZM19.312 9.37499C19.312 9.56041 19.257 9.74166 19.154 9.89583C19.051 10.05 18.9046 10.1702 18.7333 10.2411C18.562 10.3121 18.3735 10.3306 18.1916 10.2945C18.0098 10.2583 17.8427 10.169 17.7116 10.0379C17.5805 9.90679 17.4912 9.73974 17.455 9.55788C17.4189 9.37603 17.4374 9.18753 17.5084 9.01622C17.5794 8.84491 17.6995 8.6985 17.8537 8.59548C18.0079 8.49247 18.1891 8.43749 18.3745 8.43749C18.6232 8.43749 18.8616 8.53626 19.0374 8.71207C19.2133 8.88789 19.312 9.12635 19.312 9.37499Z" fill="black"/>
</svg>
