<svg width="24" height="24" viewBox="0 0 24 24" fill="none" xmlns="http://www.w3.org/2000/svg">
<path d="M9.56217 10.2656V3.51562C9.56222 3.42561 9.54066 3.3369 9.49932 3.25694C9.45797 3.17699 9.39804 3.10812 9.32455 3.05614C9.25107 3.00415 9.16618 2.97055 9.07702 2.95817C8.98787 2.9458 8.89704 2.955 8.81217 2.985C6.66469 3.74408 4.85869 5.24476 3.71921 7.21693C2.57973 9.1891 2.18163 11.5032 2.59655 13.7428C2.61286 13.8314 2.6502 13.9147 2.70542 13.9859C2.76065 14.057 2.83215 14.1139 2.91392 14.1516C2.99568 14.1894 3.08531 14.207 3.17528 14.2029C3.26525 14.1988 3.35292 14.1731 3.43092 14.1281L9.28092 10.7531C9.36649 10.7037 9.43753 10.6327 9.4869 10.5471C9.53627 10.4615 9.56224 10.3644 9.56217 10.2656ZM8.43717 9.9375L3.59405 12.7313C3.5728 12.4881 3.56217 12.2444 3.56217 12C3.56339 10.3936 4.02266 8.82079 4.88612 7.46615C5.74959 6.11151 6.98143 5.03118 8.43717 4.35187V9.9375ZM11.9997 2.4375C11.8505 2.4375 11.7074 2.49676 11.6019 2.60225C11.4964 2.70774 11.4372 2.85082 11.4372 3V11.7188L3.95592 16.0744C3.89202 16.1117 3.83609 16.1612 3.79136 16.2201C3.74663 16.2791 3.71396 16.3463 3.69524 16.4179C3.67652 16.4895 3.6721 16.564 3.68225 16.6373C3.69239 16.7106 3.7169 16.7812 3.75436 16.845C4.60323 18.2894 5.8167 19.4855 7.27324 20.3134C8.72979 21.1413 10.3783 21.572 12.0537 21.5623C13.729 21.5527 15.3725 21.103 16.8194 20.2584C18.2663 19.4138 19.4659 18.2038 20.2981 16.7497C21.1303 15.2956 21.5658 13.6484 21.5611 11.973C21.5563 10.2976 21.1115 8.65287 20.2711 7.20349C19.4308 5.7541 18.2243 4.55094 16.7727 3.7145C15.321 2.87805 13.6751 2.43769 11.9997 2.4375ZM11.9997 20.4375C10.6258 20.4338 9.2734 20.0965 8.05874 19.4546C6.84408 18.8126 5.80352 17.8852 5.02655 16.7522L12.2809 12.5259C12.3663 12.4766 12.4373 12.4057 12.4867 12.3203C12.536 12.2349 12.5621 12.138 12.5622 12.0394V3.58125C14.7464 3.72711 16.7884 4.71617 18.257 6.33954C19.7256 7.96292 20.5058 10.0935 20.4328 12.2814C20.3598 14.4693 19.4393 16.5431 17.8658 18.065C16.2922 19.5869 14.1888 20.4376 11.9997 20.4375Z" fill="black"/>
</svg>
