<svg width="24" height="24" viewBox="0 0 24 24" fill="none" xmlns="http://www.w3.org/2000/svg">
<path d="M12.0005 2.4375C11.8513 2.4375 11.7082 2.49676 11.6027 2.60225C11.4972 2.70774 11.438 2.85082 11.438 3V8.25C11.438 8.39918 11.4972 8.54226 11.6027 8.64775C11.7082 8.75324 11.8513 8.8125 12.0005 8.8125C12.7021 8.81261 13.3842 9.04423 13.9408 9.47144C14.4974 9.89866 14.8975 10.4976 15.079 11.1754C15.2605 11.8531 15.2133 12.5719 14.9447 13.2201C14.6762 13.8683 14.2012 14.4098 13.5935 14.7606C12.9859 15.1114 12.2794 15.2518 11.5838 15.1602C10.8881 15.0686 10.2421 14.75 9.74601 14.2538C9.24988 13.7577 8.93133 13.1116 8.83976 12.416C8.74819 11.7203 8.88872 11.0139 9.23954 10.4062C9.27652 10.3422 9.30052 10.2716 9.31016 10.1983C9.31981 10.125 9.31491 10.0505 9.29576 9.97913C9.2766 9.90773 9.24356 9.84081 9.19853 9.78219C9.15349 9.72357 9.09734 9.6744 9.03329 9.6375L4.48642 7.0125C4.42241 6.97552 4.35174 6.95153 4.27845 6.94188C4.20516 6.93224 4.13069 6.93713 4.05929 6.95629C3.9879 6.97544 3.92098 7.00848 3.86236 7.05352C3.80374 7.09855 3.75457 7.1547 3.71767 7.21875C2.66518 9.04171 2.24361 11.161 2.51832 13.248C2.79304 15.3349 3.74869 17.273 5.23707 18.7615C6.72546 20.2499 8.6634 21.2057 10.7503 21.4806C12.8373 21.7555 14.9566 21.3341 16.7797 20.2817C18.6027 19.2294 20.0276 17.6049 20.8333 15.6602C21.639 13.7156 21.7806 11.5594 21.236 9.52609C20.6914 7.49278 19.4911 5.69597 17.8213 4.41433C16.1515 3.13268 14.1055 2.43782 12.0005 2.4375ZM4.42642 8.27719L8.01611 10.3491C7.79935 10.8725 7.68785 11.4335 7.68798 12C7.68862 12.1881 7.70115 12.376 7.72548 12.5625L3.72236 13.6359C3.365 11.8207 3.61231 9.93846 4.42642 8.27719ZM4.01392 14.7188L8.01704 13.6462C8.3077 14.3449 8.77662 14.955 9.37693 15.4156C9.97724 15.8763 10.6879 16.1713 11.438 16.2712V20.415C9.77724 20.3016 8.18689 19.7007 6.86623 18.6874C5.54558 17.6741 4.55336 16.2935 4.01392 14.7188ZM12.563 20.4188V16.275C13.6001 16.1382 14.5521 15.6291 15.2417 14.8426C15.9313 14.056 16.3115 13.0456 16.3115 11.9995C16.3115 10.9535 15.9313 9.94306 15.2417 9.1565C14.5521 8.36994 13.6001 7.86085 12.563 7.72406V3.58125C14.6987 3.72387 16.7003 4.67284 18.1626 6.23598C19.6248 7.79911 20.4383 9.85955 20.4383 12C20.4383 14.1404 19.6248 16.2009 18.1626 17.764C16.7003 19.3272 14.6987 20.2761 12.563 20.4188Z" fill="black"/>
</svg>
