<svg width="24" height="24" viewBox="0 0 24 24" fill="none" xmlns="http://www.w3.org/2000/svg">
<path d="M4.91628 3.37499C4.8133 3.27941 4.67828 3.22582 4.53779 3.22478C4.39729 3.22373 4.26149 3.27531 4.15711 3.36935C4.05272 3.46339 3.98731 3.59309 3.97374 3.73293C3.96017 3.87277 3.99942 4.01263 4.08378 4.12499L4.59378 4.68749H3.75003C3.40193 4.68749 3.06809 4.82577 2.82195 5.07191C2.57581 5.31805 2.43753 5.65189 2.43753 5.99999V21C2.43594 21.2503 2.50667 21.4957 2.64121 21.7067C2.77576 21.9178 2.96839 22.0855 3.19596 22.1897C3.4234 22.2977 3.67728 22.3375 3.92686 22.3042C4.17645 22.271 4.41104 22.166 4.60221 22.0022L7.70909 19.3125H17.8875L19.0838 20.625C19.1332 20.6807 19.1931 20.726 19.2602 20.7583C19.3272 20.7907 19.4 20.8094 19.4743 20.8134C19.5487 20.8174 19.6231 20.8066 19.6932 20.7816C19.7633 20.7567 19.8278 20.718 19.8829 20.668C19.938 20.6179 19.9826 20.5574 20.0141 20.49C20.0456 20.4226 20.0635 20.3496 20.0666 20.2752C20.0697 20.2008 20.058 20.1266 20.0322 20.0567C20.0064 19.9869 19.967 19.9229 19.9163 19.8684L4.91628 3.37499ZM7.50003 18.1875C7.36507 18.1876 7.23464 18.2361 7.13253 18.3244L3.87096 21.1369C3.84407 21.1596 3.81132 21.1743 3.77647 21.1793C3.74161 21.1843 3.70605 21.1793 3.67387 21.1651C3.64168 21.1508 3.61417 21.1277 3.59448 21.0985C3.57479 21.0693 3.56371 21.0352 3.56253 21V5.99999C3.56253 5.95026 3.58228 5.90257 3.61744 5.8674C3.65261 5.83224 3.7003 5.81249 3.75003 5.81249H5.61471L16.8647 18.1875H7.50003ZM21.5625 5.99999V17.4375C21.5625 17.5867 21.5033 17.7297 21.3978 17.8352C21.2923 17.9407 21.1492 18 21 18C20.8508 18 20.7078 17.9407 20.6023 17.8352C20.4968 17.7297 20.4375 17.5867 20.4375 17.4375V5.99999C20.4375 5.95026 20.4178 5.90257 20.3826 5.8674C20.3474 5.83224 20.2998 5.81249 20.25 5.81249H9.91784C9.76866 5.81249 9.62558 5.75322 9.52009 5.64773C9.4146 5.54224 9.35534 5.39917 9.35534 5.24999C9.35534 5.1008 9.4146 4.95773 9.52009 4.85224C9.62558 4.74675 9.76866 4.68749 9.91784 4.68749H20.25C20.5981 4.68749 20.932 4.82577 21.1781 5.07191C21.4242 5.31805 21.5625 5.65189 21.5625 5.99999Z" fill="black"/>
</svg>
