<svg width="24" height="24" viewBox="0 0 24 24" fill="none" xmlns="http://www.w3.org/2000/svg">
<path d="M4.91655 3.375C4.81358 3.27942 4.67856 3.22584 4.53806 3.22479C4.39757 3.22375 4.26177 3.27532 4.15738 3.36936C4.053 3.4634 3.98759 3.5931 3.97401 3.73294C3.96044 3.87279 3.9997 4.01265 4.08405 4.125L5.16312 5.31563C3.73366 6.77699 2.81013 8.65799 2.52803 10.6827C2.24592 12.7074 2.62008 14.7692 3.59561 16.5656L2.50624 19.8338C2.42912 20.065 2.41793 20.3132 2.47392 20.5504C2.52991 20.7877 2.65087 21.0047 2.82325 21.1771C2.99563 21.3494 3.21261 21.4704 3.44987 21.5264C3.68713 21.5824 3.93529 21.5712 4.16655 21.4941L7.43561 20.4047C9.09505 21.3048 10.9838 21.6937 12.8639 21.5222C14.7439 21.3507 16.5311 20.6265 18.0003 19.4409L19.0841 20.625C19.1845 20.7354 19.3247 20.8014 19.4738 20.8084C19.6229 20.8154 19.7687 20.763 19.8791 20.6625C19.9894 20.5621 20.0554 20.4219 20.0625 20.2728C20.0695 20.1237 20.017 19.9779 19.9166 19.8675L4.91655 3.375ZM12.0003 20.4375C10.5171 20.4379 9.06004 20.0472 7.77593 19.305C7.70691 19.265 7.63018 19.2401 7.55081 19.232C7.47145 19.224 7.39128 19.2329 7.31561 19.2581L3.81124 20.4263C3.7782 20.4373 3.74275 20.4389 3.70886 20.4309C3.67496 20.4229 3.64397 20.4056 3.61934 20.381C3.59471 20.3563 3.57743 20.3253 3.56944 20.2914C3.56144 20.2576 3.56304 20.2221 3.57405 20.1891L4.74218 16.6875C4.76745 16.6118 4.77634 16.5317 4.76826 16.4523C4.76018 16.3729 4.73531 16.2962 4.6953 16.2272C3.77842 14.642 3.40218 12.8014 3.62339 10.9836C3.8446 9.16566 4.65125 7.46909 5.92155 6.15L17.2503 18.6066C15.7584 19.7942 13.9072 20.4398 12.0003 20.4375ZM21.5628 12C21.5626 13.5804 21.1716 15.1363 20.4247 16.5291C20.3764 16.6185 20.3048 16.6932 20.2175 16.7452C20.1301 16.7972 20.0304 16.8245 19.9287 16.8244C19.8315 16.8243 19.7359 16.799 19.6514 16.751C19.5668 16.7029 19.4962 16.6338 19.4463 16.5503C19.3965 16.4668 19.3691 16.3718 19.3669 16.2746C19.3647 16.1774 19.3877 16.0813 19.4337 15.9956C20.2589 14.4581 20.5874 12.7027 20.374 10.9709C20.1607 9.23907 19.4159 7.6159 18.2422 6.3247C17.0685 5.03351 15.5235 4.13773 13.8198 3.7606C12.1161 3.38348 10.3374 3.54353 8.72843 4.21875C8.59509 4.26029 8.45106 4.25074 8.32438 4.19195C8.19769 4.13317 8.0974 4.02936 8.04302 3.90072C7.98864 3.77209 7.98406 3.62782 8.03017 3.49599C8.07628 3.36416 8.16979 3.2542 8.29249 3.1875C9.74604 2.57757 11.3278 2.33621 12.8971 2.48488C14.4664 2.63355 15.9747 3.16764 17.2878 4.03968C18.601 4.91172 19.6783 6.09468 20.4242 7.48343C21.17 8.87217 21.5611 10.4237 21.5628 12Z" fill="black"/>
</svg>
