<svg width="24" height="24" viewBox="0 0 24 24" fill="none" xmlns="http://www.w3.org/2000/svg">
<path d="M4.91628 3.37499C4.8133 3.27941 4.67828 3.22582 4.53779 3.22478C4.39729 3.22373 4.2615 3.27531 4.15711 3.36935C4.05273 3.46339 3.98731 3.59309 3.97374 3.73293C3.96017 3.87277 3.99942 4.01263 4.08378 4.12499L5.43097 5.60624C3.97906 7.27467 3.18191 9.41328 3.18753 11.625V19.5C3.18753 19.8481 3.32581 20.1819 3.57195 20.4281C3.81809 20.6742 4.15193 20.8125 4.50003 20.8125H12.375C14.2844 20.8103 16.1459 20.2147 17.7019 19.1081L19.0838 20.625C19.1842 20.7354 19.3244 20.8014 19.4735 20.8084C19.6226 20.8154 19.7684 20.7629 19.8788 20.6625C19.9892 20.562 20.0551 20.4218 20.0622 20.2728C20.0692 20.1237 20.0167 19.9779 19.9163 19.8675L4.91628 3.37499ZM12.375 19.6875H4.50003C4.4503 19.6875 4.40261 19.6677 4.36745 19.6326C4.33228 19.5974 4.31253 19.5497 4.31253 19.5V11.625C4.30888 9.73175 4.9758 7.89838 6.19503 6.44999L16.9407 18.27C15.6 19.1991 14.0062 19.6939 12.375 19.6875ZM21.5625 11.625C21.5637 13.2971 21.108 14.9378 20.2444 16.3697C20.1942 16.4528 20.1234 16.5215 20.0388 16.5692C19.9542 16.6168 19.8587 16.6418 19.7616 16.6415C19.6621 16.6413 19.5644 16.6146 19.4786 16.5642C19.3927 16.5139 19.3218 16.4416 19.273 16.3549C19.2242 16.2681 19.1992 16.17 19.2008 16.0705C19.2023 15.971 19.2302 15.8736 19.2816 15.7884C20.1805 14.3021 20.5754 12.5651 20.4074 10.8362C20.2394 9.10725 19.5175 7.47882 18.3492 6.19334C17.1809 4.90786 15.6286 4.03408 13.9236 3.7021C12.2185 3.37012 10.4519 3.59769 8.88659 4.35092C8.81978 4.3853 8.74675 4.40595 8.67183 4.41164C8.5969 4.41733 8.5216 4.40795 8.45036 4.38406C8.37912 4.36017 8.31339 4.32224 8.25705 4.27252C8.20071 4.22281 8.1549 4.16231 8.12232 4.09459C8.08975 4.02688 8.07108 3.95333 8.0674 3.87828C8.06372 3.80323 8.07512 3.7282 8.10092 3.65763C8.12672 3.58705 8.16639 3.52237 8.21761 3.46738C8.26882 3.4124 8.33053 3.36823 8.39909 3.33749C9.63932 2.74075 10.9987 2.43303 12.375 2.43749C14.8109 2.44022 17.1462 3.40906 18.8686 5.13146C20.591 6.85386 21.5598 9.18915 21.5625 11.625Z" fill="black"/>
</svg>
