<svg width="24" height="24" viewBox="0 0 24 24" fill="none" xmlns="http://www.w3.org/2000/svg">
<path d="M15.765 6.97687C15.122 5.41009 13.9552 4.11507 12.4636 3.3129C10.9721 2.51073 9.24831 2.25115 7.58667 2.57847C5.92503 2.9058 4.42852 3.79974 3.35264 5.10767C2.27676 6.4156 1.68822 8.05642 1.6875 9.75V15.75C1.6875 16.0981 1.82578 16.4319 2.07192 16.6781C2.31806 16.9242 2.6519 17.0625 3 17.0625H8.25C8.8068 18.394 9.74446 19.5314 10.9453 20.332C12.1462 21.1326 13.5567 21.5606 15 21.5625H21C21.3481 21.5625 21.6819 21.4242 21.9281 21.1781C22.1742 20.9319 22.3125 20.5981 22.3125 20.25V14.25C22.3127 12.4429 21.6438 10.6998 20.4347 9.35674C19.2257 8.01371 17.5622 7.16592 15.765 6.97687ZM2.8125 15.75V9.75C2.8125 8.52622 3.17539 7.32993 3.85528 6.3124C4.53517 5.29487 5.50153 4.50181 6.63215 4.03349C7.76276 3.56517 9.00686 3.44264 10.2071 3.68139C11.4074 3.92013 12.5099 4.50943 13.3752 5.37477C14.2406 6.24011 14.8299 7.34262 15.0686 8.54287C15.3074 9.74313 15.1848 10.9872 14.7165 12.1178C14.2482 13.2485 13.4551 14.2148 12.4376 14.8947C11.4201 15.5746 10.2238 15.9375 9 15.9375H3C2.95027 15.9375 2.90258 15.9177 2.86742 15.8826C2.83225 15.8474 2.8125 15.7997 2.8125 15.75ZM21.1875 20.25C21.1875 20.2997 21.1677 20.3474 21.1326 20.3826C21.0974 20.4177 21.0497 20.4375 21 20.4375H15C13.8563 20.4362 12.7353 20.1186 11.761 19.5198C10.7866 18.921 9.99684 18.0644 9.47906 17.0447C10.5309 16.9762 11.5554 16.681 12.4823 16.1792C13.4093 15.6774 14.2166 14.981 14.849 14.1377C15.4814 13.2944 15.9238 12.3243 16.1458 11.2939C16.3678 10.2635 16.3643 9.1973 16.1353 8.16843C17.5547 8.43337 18.8368 9.18637 19.7594 10.297C20.6821 11.4077 21.1873 12.8061 21.1875 14.25V20.25Z" fill="black"/>
</svg>
