<svg width="24" height="24" viewBox="0 0 24 24" fill="none" xmlns="http://www.w3.org/2000/svg">
<path d="M13.8938 7.90124L5.49376 16.1512C5.38861 16.2543 5.24725 16.312 5.10001 16.312C4.95277 16.312 4.81141 16.2543 4.70626 16.1512L1.10626 12.6159C1.05351 12.5642 1.01145 12.5026 0.982501 12.4347C0.95355 12.3667 0.938268 12.2937 0.937528 12.2198C0.936788 12.146 0.950604 12.0727 0.978188 12.0042C1.00577 11.9356 1.04658 11.8732 1.09829 11.8205C1.15 11.7677 1.21159 11.7256 1.27955 11.6967C1.34751 11.6677 1.42051 11.6525 1.49437 11.6517C1.56824 11.651 1.64153 11.6648 1.71006 11.6924C1.77858 11.72 1.84101 11.7608 1.89376 11.8125L5.10001 14.9606L13.1063 7.0978C13.1583 7.04313 13.2208 6.9995 13.2901 6.9695C13.3593 6.9395 13.4339 6.92374 13.5094 6.92317C13.5849 6.9226 13.6597 6.93723 13.7294 6.96618C13.7991 6.99513 13.8623 7.03781 13.9151 7.09168C13.968 7.14555 14.0095 7.20951 14.0371 7.27975C14.0647 7.34999 14.078 7.42507 14.076 7.50052C14.074 7.57598 14.0568 7.65025 14.0255 7.71894C13.9942 7.78762 13.9494 7.8493 13.8938 7.9003V7.90124ZM22.9013 7.10624C22.7968 6.9999 22.6544 6.93938 22.5053 6.93797C22.3562 6.93657 22.2127 6.99439 22.1063 7.09874L14.1 14.9615L12.2034 13.0987C12.1508 13.047 12.0884 13.0061 12.0199 12.9784C11.9514 12.9508 11.8781 12.9369 11.8043 12.9375C11.7304 12.9382 11.6574 12.9534 11.5894 12.9822C11.5214 13.0111 11.4597 13.0531 11.408 13.1058C11.3562 13.1585 11.3153 13.2208 11.2877 13.2893C11.26 13.3578 11.2461 13.4311 11.2467 13.505C11.2474 13.5788 11.2626 13.6518 11.2915 13.7198C11.3203 13.7878 11.3623 13.8495 11.415 13.9012L13.7063 16.1512C13.8114 16.2543 13.9528 16.312 14.1 16.312C14.2472 16.312 14.3886 16.2543 14.4938 16.1512L22.8938 7.90124C23.0001 7.79677 23.0606 7.65435 23.062 7.50529C23.0634 7.35622 23.0056 7.2127 22.9013 7.10624Z" fill="black"/>
</svg>
