<svg width="24" height="24" viewBox="0 0 24 24" fill="none" xmlns="http://www.w3.org/2000/svg">
<path d="M21.3971 7.14751L9.39714 19.1475C9.29167 19.2528 9.1487 19.312 8.99964 19.312C8.85058 19.312 8.70761 19.2528 8.60214 19.1475L3.35214 13.8975C3.25278 13.7909 3.19869 13.6498 3.20126 13.5041C3.20383 13.3584 3.26286 13.2194 3.36592 13.1163C3.46898 13.0132 3.60802 12.9542 3.75375 12.9516C3.89947 12.9491 4.04051 13.0031 4.14714 13.1025L8.99964 17.9541L20.6021 6.35251C20.7088 6.25315 20.8498 6.19905 20.9955 6.20163C21.1413 6.2042 21.2803 6.26323 21.3834 6.36629C21.4864 6.46935 21.5455 6.60839 21.548 6.75412C21.5506 6.89984 21.4965 7.04088 21.3971 7.14751Z" fill="black"/>
</svg>
