<svg width="24" height="24" viewBox="0 0 24 24" fill="none" xmlns="http://www.w3.org/2000/svg">
<path d="M22.6749 6.53063L20.4249 4.32188C20.1789 4.07657 19.8457 3.93881 19.4982 3.93881C19.1508 3.93881 18.8175 4.07657 18.5715 4.32188L9.74963 13.0313L6.17775 9.57188C6.05587 9.44999 5.91118 9.3533 5.75193 9.28733C5.59268 9.22136 5.422 9.18741 5.24963 9.18741C5.07725 9.18741 4.90657 9.22136 4.74732 9.28733C4.58807 9.3533 4.44338 9.44999 4.3215 9.57188L2.0715 11.8219C1.82562 12.068 1.6875 12.4016 1.6875 12.7495C1.6875 13.0974 1.82562 13.4311 2.0715 13.6772L8.78588 20.4272C8.90775 20.5491 9.05245 20.6458 9.2117 20.7117C9.37095 20.7777 9.54163 20.8117 9.714 20.8117C9.88637 20.8117 10.0571 20.7777 10.2163 20.7117C10.3756 20.6458 10.5202 20.5491 10.6421 20.4272L22.6787 8.39063C22.8009 8.26843 22.8978 8.12331 22.9637 7.96358C23.0297 7.80385 23.0635 7.63267 23.0632 7.45985C23.0628 7.28703 23.0283 7.11598 22.9617 6.95652C22.8951 6.79706 22.7976 6.65233 22.6749 6.53063ZM21.8828 7.59375L9.84338 19.6322C9.80829 19.6668 9.76096 19.6862 9.71166 19.6862C9.66235 19.6862 9.61503 19.6668 9.57994 19.6322L2.86556 12.8822C2.83064 12.8471 2.81104 12.7995 2.81104 12.75C2.81104 12.7005 2.83064 12.6529 2.86556 12.6178L5.11556 10.3678C5.13312 10.3502 5.15401 10.3362 5.17703 10.3267C5.20005 10.3172 5.22473 10.3124 5.24963 10.3125C5.27587 10.3127 5.3018 10.3181 5.32594 10.3284C5.35007 10.3387 5.37193 10.3537 5.39025 10.3725L9.36056 14.2238C9.46567 14.3265 9.60684 14.3841 9.75384 14.3841C9.90085 14.3841 10.042 14.3265 10.1471 14.2238L19.3693 5.11969C19.3868 5.10169 19.4077 5.08738 19.4308 5.0776C19.4539 5.06783 19.4788 5.06279 19.5038 5.06279C19.5289 5.06279 19.5538 5.06783 19.5769 5.0776C19.6 5.08738 19.6209 5.10169 19.6384 5.11969L21.8884 7.32844C21.9054 7.34622 21.9188 7.36719 21.9278 7.39016C21.9368 7.41312 21.9411 7.43762 21.9406 7.46226C21.9401 7.4869 21.9347 7.5112 21.9248 7.53376C21.9148 7.55633 21.9006 7.57671 21.8828 7.59375Z" fill="black"/>
</svg>
