<svg width="24" height="24" viewBox="0 0 24 24" fill="none" xmlns="http://www.w3.org/2000/svg">
<path d="M22.3122 10.5C22.3107 9.15779 21.7769 7.87099 20.8278 6.9219C19.8787 5.97282 18.5919 5.43898 17.2497 5.43749C17.0454 5.43778 16.8413 5.4503 16.6385 5.47499C16.2447 4.57173 15.5958 3.80303 14.7715 3.26316C13.9472 2.7233 12.9832 2.43573 11.9978 2.43573C11.0125 2.43573 10.0485 2.7233 9.2242 3.26316C8.39988 3.80303 7.75103 4.57173 7.35722 5.47499C7.15565 5.45045 6.95279 5.43793 6.74972 5.43749C5.59076 5.43822 4.46713 5.8366 3.56654 6.56606C2.66594 7.29553 2.0429 8.31192 1.80148 9.44547C1.56007 10.579 1.7149 11.7611 2.24012 12.7942C2.76533 13.8273 3.62913 14.649 4.68722 15.1219V19.5C4.68722 19.8481 4.8255 20.1819 5.07165 20.4281C5.31779 20.6742 5.65163 20.8125 5.99972 20.8125H17.9997C18.3478 20.8125 18.6817 20.6742 18.9278 20.4281C19.1739 20.1819 19.3122 19.8481 19.3122 19.5V15.1219C20.2047 14.7228 20.9628 14.0742 21.4951 13.2541C22.0273 12.4341 22.3111 11.4776 22.3122 10.5ZM18.1872 19.5C18.1872 19.5497 18.1675 19.5974 18.1323 19.6326C18.0971 19.6677 18.0495 19.6875 17.9997 19.6875H5.99972C5.95 19.6875 5.9023 19.6677 5.86714 19.6326C5.83198 19.5974 5.81222 19.5497 5.81222 19.5V15.4744C6.12131 15.5328 6.43516 15.5623 6.74972 15.5625H17.2497C17.5643 15.5623 17.8781 15.5328 18.1872 15.4744V19.5ZM17.2497 14.4375H15.7207L16.2953 12.1369C16.3133 12.0652 16.317 11.9907 16.3062 11.9176C16.2954 11.8446 16.2703 11.7743 16.2323 11.711C16.1944 11.6476 16.1443 11.5923 16.085 11.5483C16.0257 11.5043 15.9583 11.4723 15.8866 11.4544C15.8149 11.4364 15.7405 11.4327 15.6674 11.4435C15.5943 11.4543 15.5241 11.4794 15.4607 11.5174C15.3973 11.5553 15.342 11.6054 15.298 11.6647C15.254 11.7241 15.2221 11.7915 15.2041 11.8631L14.56 14.4375H12.5622V12C12.5622 11.8508 12.503 11.7077 12.3975 11.6022C12.292 11.4968 12.1489 11.4375 11.9997 11.4375C11.8505 11.4375 11.7075 11.4968 11.602 11.6022C11.4965 11.7077 11.4372 11.8508 11.4372 12V14.4375H9.43941L8.79535 11.8631C8.77737 11.7915 8.74546 11.7241 8.70144 11.6647C8.65741 11.6054 8.60213 11.5553 8.53875 11.5174C8.47538 11.4794 8.40515 11.4543 8.33207 11.4435C8.25899 11.4327 8.1845 11.4364 8.11285 11.4544C8.0412 11.4723 7.97379 11.5043 7.91447 11.5483C7.85515 11.5923 7.80508 11.6476 7.76712 11.711C7.72917 11.7743 7.70407 11.8446 7.69325 11.9176C7.68244 11.9907 7.68612 12.0652 7.7041 12.1369L8.27879 14.4375H6.74972C5.70543 14.4375 4.70392 14.0226 3.96549 13.2842C3.22707 12.5458 2.81222 11.5443 2.81222 10.5C2.81222 9.4557 3.22707 8.45418 3.96549 7.71576C4.70392 6.97733 5.70543 6.56249 6.74972 6.56249C6.84347 6.56249 6.93722 6.56249 7.02347 6.5728C6.96663 6.8786 6.93776 7.18895 6.93722 7.49999C6.93722 7.64917 6.99649 7.79225 7.10198 7.89774C7.20747 8.00323 7.35054 8.06249 7.49972 8.06249C7.64891 8.06249 7.79198 8.00323 7.89747 7.89774C8.00296 7.79225 8.06222 7.64917 8.06222 7.49999C8.06222 6.4557 8.47707 5.45418 9.21549 4.71576C9.95392 3.97733 10.9554 3.56249 11.9997 3.56249C13.044 3.56249 14.0455 3.97733 14.784 4.71576C15.5224 5.45418 15.9372 6.4557 15.9372 7.49999C15.9372 7.64917 15.9965 7.79225 16.102 7.89774C16.2075 8.00323 16.3505 8.06249 16.4997 8.06249C16.6489 8.06249 16.792 8.00323 16.8975 7.89774C17.003 7.79225 17.0622 7.64917 17.0622 7.49999C17.0617 7.18895 17.0328 6.8786 16.976 6.5728C17.0697 6.56718 17.1578 6.56249 17.2497 6.56249C18.294 6.56249 19.2955 6.97733 20.034 7.71576C20.7724 8.45418 21.1872 9.4557 21.1872 10.5C21.1872 11.5443 20.7724 12.5458 20.034 13.2842C19.2955 14.0226 18.294 14.4375 17.2497 14.4375Z" fill="black"/>
</svg>
