<svg width="24" height="24" viewBox="0 0 24 24" fill="none" xmlns="http://www.w3.org/2000/svg">
<path d="M16.4997 6.9375C16.2229 6.93738 15.9464 6.95523 15.6719 6.99094C15.1487 6.06638 14.4553 5.24919 13.6282 4.5825C10.1426 1.77 5.37163 2.41406 5.17006 2.44313C5.05709 2.45907 4.95164 2.50898 4.8677 2.58625C4.78376 2.66352 4.7253 2.76448 4.70008 2.87575C4.67485 2.98702 4.68406 3.10332 4.72648 3.20923C4.76889 3.31514 4.84251 3.40565 4.93756 3.46875C6.69256 4.63781 7.45662 6.59156 7.75475 8.45813C6.675 8.53903 5.63205 8.88585 4.71887 9.46766C3.8057 10.0495 3.05066 10.8482 2.52109 11.7926C1.99151 12.7371 1.70385 13.7978 1.68375 14.8804C1.66364 15.963 1.91172 17.0338 2.40587 17.9972C2.90001 18.9606 3.62486 19.7868 4.51581 20.4022C5.40676 21.0175 6.43611 21.4028 7.51211 21.5237C8.58811 21.6447 9.67731 21.4975 10.6826 21.0953C11.6879 20.6931 12.5781 20.0485 13.2738 19.2188C14.1481 19.7109 15.1236 19.996 16.1253 20.0522C17.127 20.1084 18.1283 19.9341 19.0522 19.5429C19.976 19.1516 20.7979 18.5537 21.4545 17.7952C22.1112 17.0366 22.5852 16.1376 22.84 15.1672C23.0949 14.1968 23.1239 13.181 22.9248 12.1976C22.7257 11.2143 22.3038 10.2897 21.6915 9.49491C21.0792 8.70013 20.2928 8.05632 19.3928 7.61298C18.4927 7.16963 17.503 6.93856 16.4997 6.9375ZM12.9279 5.46281C13.549 5.96573 14.083 6.56753 14.5085 7.24406C13.3238 7.62285 12.2704 8.32912 11.4701 9.28125C10.6794 8.83333 9.80376 8.55582 8.89944 8.46656C8.59756 6.39188 7.84944 4.70344 6.70006 3.48844C8.27131 3.50906 10.8926 3.8175 12.9279 5.46281ZM13.6966 11.3438C13.3372 10.8112 12.9024 10.3337 12.4057 9.92625C13.1067 9.12551 14.0267 8.54739 15.0522 8.26313C15.4839 9.25614 15.7614 10.3092 15.8754 11.3859C15.0682 11.2453 14.6641 10.8694 14.6473 10.8534C14.5628 10.77 14.4542 10.7154 14.3368 10.6975C14.2195 10.6795 14.0995 10.6992 13.994 10.7536C13.8885 10.808 13.8029 10.8944 13.7495 11.0004C13.6961 11.1064 13.6776 11.2266 13.6966 11.3438ZM8.24975 20.4375C6.8434 20.4316 5.49403 19.8811 4.48495 18.9015C3.47587 17.9219 2.88557 16.5895 2.83801 15.1839C2.79045 13.7784 3.28933 12.4091 4.22988 11.3635C5.17044 10.3179 6.47952 9.67747 7.88225 9.57656C7.95801 10.6874 7.92189 11.803 7.77444 12.9066C6.86881 12.7894 6.41506 12.3694 6.39725 12.3525C6.29062 12.2531 6.14958 12.199 6.00386 12.2016C5.85813 12.2042 5.71909 12.2632 5.61603 12.3663C5.51297 12.4693 5.45394 12.6084 5.45137 12.7541C5.4488 12.8998 5.50289 13.0409 5.60225 13.1475C5.63975 13.185 6.53975 14.0625 8.24975 14.0625C9.95975 14.0625 10.8597 13.185 10.8972 13.1475C10.9528 13.0963 10.9974 13.0345 11.0285 12.9657C11.0597 12.8969 11.0766 12.8225 11.0784 12.747C11.0801 12.6715 11.0667 12.5964 11.0388 12.5263C11.0109 12.4561 10.9692 12.3922 10.9161 12.3385C10.863 12.2848 10.7997 12.2423 10.7298 12.2136C10.66 12.1849 10.5851 12.1706 10.5095 12.1714C10.434 12.1723 10.3595 12.1884 10.2903 12.2187C10.2211 12.249 10.1588 12.2929 10.1069 12.3478C10.0863 12.3666 9.6935 12.7303 8.91444 12.8766C9.0506 11.7959 9.08544 10.7049 9.0185 9.61781C10.3791 9.81337 11.6151 10.517 12.4779 11.5871C13.3407 12.6571 13.7662 14.0143 13.6687 15.3854C13.5713 16.7565 12.9582 18.0398 11.9528 18.9772C10.9474 19.9145 9.62432 20.4363 8.24975 20.4375ZM16.4997 18.9375C15.6008 18.9387 14.7158 18.7161 13.9244 18.2897C14.505 17.2916 14.8108 16.1575 14.8108 15.0028C14.8108 13.8481 14.505 12.7141 13.9244 11.7159C14.1729 11.9278 15.0382 12.5597 16.4969 12.5597C18.2107 12.5597 19.1069 11.6822 19.1444 11.6447C19.197 11.5924 19.2387 11.5303 19.2672 11.4618C19.2957 11.3933 19.3104 11.3199 19.3104 11.2458C19.3104 11.1716 19.2957 11.0982 19.2672 11.0298C19.2387 10.9613 19.197 10.8992 19.1444 10.8469C19.039 10.7421 18.8965 10.6833 18.7479 10.6833C18.5993 10.6833 18.4567 10.7421 18.3513 10.8469C18.3298 10.8675 17.8826 11.2772 17.0051 11.4009C16.8938 10.258 16.6205 9.13679 16.1932 8.07094C16.2926 8.06531 16.3938 8.06156 16.4941 8.06156C17.9362 8.06156 19.3193 8.63444 20.339 9.65417C21.3587 10.6739 21.9316 12.057 21.9316 13.4991C21.9316 14.9412 21.3587 16.3242 20.339 17.344C19.3193 18.3637 17.9362 18.9366 16.4941 18.9366L16.4997 18.9375Z" fill="black"/>
</svg>
