<svg width="24" height="24" viewBox="0 0 24 24" fill="none" xmlns="http://www.w3.org/2000/svg">
<path d="M18.7616 5.23878C17.8763 4.33898 16.8216 3.62337 15.6583 3.13322C14.495 2.64308 13.2462 2.38811 11.9839 2.38301C10.7216 2.37792 9.47078 2.6228 8.30359 3.10353C7.1364 3.58426 6.07593 4.29134 5.18337 5.18396C4.29081 6.07659 3.58381 7.1371 3.10316 8.30433C2.6225 9.47155 2.37771 10.7224 2.38289 11.9847C2.38808 13.247 2.64314 14.4958 3.13336 15.659C3.62358 16.8223 4.33927 17.877 5.23913 18.7622C6.12446 19.662 7.17917 20.3776 8.34245 20.8678C9.50572 21.3579 10.7545 21.6129 12.0168 21.618C13.2791 21.6231 14.53 21.3782 15.6972 20.8975C16.8644 20.4167 17.9248 19.7097 18.8174 18.817C19.71 17.9244 20.417 16.8639 20.8976 15.6967C21.3783 14.5294 21.623 13.2786 21.6179 12.0163C21.6127 10.754 21.3576 9.50519 20.8674 8.34195C20.3772 7.17871 19.6615 6.12404 18.7616 5.23878ZM8.43788 19.6519C7.71604 19.3144 7.04589 18.876 6.44757 18.3497L8.43788 16.3585V19.6519ZM11.4379 20.4169C10.8022 20.3762 10.1732 20.2636 9.56288 20.0813V15.2335L11.4379 13.3585V20.4169ZM14.4379 20.0813C13.8276 20.2637 13.1986 20.3763 12.5629 20.4169V12.2335L14.4379 10.3585V20.0813ZM17.4379 18.45C16.8691 18.9326 16.2386 19.3371 15.5629 19.6528V9.23347L17.4379 7.35847V18.45ZM5.65069 17.5538C4.24028 15.9429 3.49501 13.8561 3.56592 11.7162C3.63683 9.57629 4.51861 7.54338 6.03258 6.02942C7.54654 4.51545 9.57945 3.63367 11.7193 3.56276C13.8592 3.49185 15.9461 4.23711 17.5569 5.64753L5.65069 17.5538ZM18.5629 17.3035V6.69659C19.7762 8.19788 20.438 10.0698 20.438 12C20.438 13.9303 19.7762 15.8022 18.5629 17.3035Z" fill="black"/>
</svg>
