<svg width="24" height="24" viewBox="0 0 24 24" fill="none" xmlns="http://www.w3.org/2000/svg">
<path d="M21.5625 12C21.5625 14.5362 20.555 16.9684 18.7617 18.7617C16.9684 20.5551 14.5361 21.5625 12 21.5625C9.46387 21.5625 7.03161 20.5551 5.23829 18.7617C3.44497 16.9684 2.4375 14.5362 2.4375 12C2.4375 8.23315 4.62656 4.7944 8.01562 3.23909C8.15013 3.18321 8.30106 3.18168 8.43666 3.23482C8.57227 3.28796 8.68198 3.39163 8.7427 3.52402C8.80343 3.6564 8.81044 3.80717 8.76226 3.94462C8.71408 4.08207 8.61446 4.19547 8.48438 4.26096C5.49469 5.63346 3.5625 8.67096 3.5625 12C3.5625 14.2378 4.45145 16.3839 6.03379 17.9662C7.61612 19.5486 9.76224 20.4375 12 20.4375C14.2378 20.4375 16.3839 19.5486 17.9662 17.9662C19.5486 16.3839 20.4375 14.2378 20.4375 12C20.4375 8.67096 18.5053 5.63346 15.5156 4.26096C15.3855 4.19547 15.2859 4.08207 15.2377 3.94462C15.1896 3.80717 15.1966 3.6564 15.2573 3.52402C15.318 3.39163 15.4277 3.28796 15.5633 3.23482C15.6989 3.18168 15.8499 3.18321 15.9844 3.23909C19.3734 4.7944 21.5625 8.23315 21.5625 12Z" fill="black"/>
</svg>
