<svg width="24" height="24" viewBox="0 0 24 24" fill="none" xmlns="http://www.w3.org/2000/svg">
<path d="M9.20488 3.42561C9.16754 3.28127 9.18902 3.12802 9.26461 2.99952C9.3402 2.87102 9.46371 2.77778 9.608 2.74029C11.1761 2.33592 12.8212 2.33592 14.3893 2.74029C14.5337 2.77759 14.6574 2.87074 14.7332 2.99926C14.809 3.12779 14.8306 3.28114 14.7933 3.42561C14.756 3.57007 14.6629 3.69379 14.5343 3.76957C14.4058 3.84535 14.2525 3.86696 14.108 3.82967C12.7244 3.47243 11.2728 3.47243 9.88925 3.82967C9.74492 3.86669 9.5918 3.84494 9.46349 3.76919C9.33518 3.69343 9.24217 3.56987 9.20488 3.42561ZM5.17363 5.30061C4.03965 6.45622 3.21744 7.88066 2.78394 9.44061C2.76429 9.51183 2.75887 9.58622 2.76797 9.65954C2.77708 9.73286 2.80055 9.80366 2.83702 9.86791C2.8735 9.93216 2.92228 9.9886 2.98057 10.034C3.03886 10.0794 3.10552 10.1129 3.17675 10.1325C3.22556 10.1462 3.27604 10.1532 3.32675 10.1531C3.44975 10.153 3.56934 10.1127 3.66721 10.0382C3.76508 9.96368 3.83583 9.85915 3.86863 9.74061C4.25234 8.36608 4.97841 7.11133 5.97894 6.09373C6.03071 6.04104 6.07159 5.97866 6.09926 5.91017C6.12692 5.84168 6.14082 5.76841 6.14017 5.69454C6.13952 5.62067 6.12432 5.54766 6.09545 5.47967C6.06658 5.41167 6.0246 5.35003 5.97191 5.29826C5.91921 5.24649 5.85684 5.20561 5.78835 5.17794C5.71985 5.15028 5.64658 5.13638 5.57272 5.13703C5.49885 5.13768 5.42584 5.15288 5.35784 5.18175C5.28985 5.21062 5.22821 5.2526 5.17644 5.30529L5.17363 5.30061ZM3.86956 14.2584C3.85164 14.1853 3.81923 14.1165 3.77424 14.0562C3.72926 13.9958 3.67262 13.9451 3.60768 13.9071C3.54274 13.869 3.47083 13.8444 3.39619 13.8346C3.32156 13.8248 3.24572 13.8302 3.17318 13.8502C3.10063 13.8703 3.03286 13.9048 2.97387 13.9515C2.91487 13.9983 2.86587 14.0564 2.82974 14.1224C2.79362 14.1885 2.77112 14.2611 2.76358 14.336C2.75603 14.4109 2.76359 14.4865 2.78581 14.5584C3.21875 16.1191 4.04103 17.5443 5.1755 18.7003C5.28128 18.8007 5.42192 18.8561 5.56776 18.8548C5.7136 18.8535 5.85323 18.7956 5.9572 18.6933C6.06118 18.5911 6.12137 18.4524 6.12507 18.3066C6.12878 18.1608 6.07571 18.0193 5.97706 17.9119C4.97697 16.8918 4.25187 15.6348 3.86956 14.2584ZM14.108 20.1703C12.7244 20.5275 11.2728 20.5275 9.88925 20.1703C9.81772 20.1518 9.74326 20.1476 9.6701 20.1579C9.59695 20.1683 9.52655 20.1929 9.46291 20.2304C9.39927 20.2679 9.34365 20.3176 9.29921 20.3766C9.25478 20.4356 9.22241 20.5028 9.20394 20.5744C9.18547 20.6459 9.18127 20.7204 9.19159 20.7935C9.2019 20.8667 9.22652 20.9371 9.26404 21.0007C9.30156 21.0643 9.35124 21.12 9.41026 21.1644C9.46928 21.2088 9.53647 21.2412 9.608 21.2597C11.1761 21.6639 12.8211 21.6639 14.3893 21.2597C14.5337 21.2224 14.6574 21.1292 14.7332 21.0007C14.809 20.8722 14.8306 20.7188 14.7933 20.5744C14.756 20.4299 14.6629 20.3062 14.5343 20.2304C14.4058 20.1546 14.2525 20.133 14.108 20.1703ZM20.8224 13.8675C20.6787 13.8278 20.5251 13.8467 20.3953 13.9202C20.2656 13.9937 20.1703 14.1157 20.1305 14.2594C19.7482 15.6372 19.0221 16.8954 18.0202 17.9156C17.9156 18.022 17.8576 18.1656 17.859 18.3148C17.8603 18.464 17.9208 18.6065 18.0272 18.7111C18.1336 18.8156 18.2772 18.8736 18.4264 18.8723C18.5756 18.871 18.7181 18.8105 18.8227 18.704C19.9582 17.5473 20.7814 16.1212 21.2152 14.5594C21.2348 14.4881 21.2403 14.4137 21.2312 14.3404C21.222 14.2671 21.1986 14.1963 21.1621 14.132C21.1256 14.0678 21.0768 14.0114 21.0186 13.966C20.9603 13.9206 20.8936 13.8871 20.8224 13.8675ZM20.1296 9.74248C20.1624 9.86102 20.2331 9.96555 20.331 10.0401C20.4289 10.1146 20.5484 10.1549 20.6714 10.155C20.7221 10.155 20.7726 10.1481 20.8214 10.1344C20.9651 10.0945 21.0871 9.99926 21.1606 9.86953C21.2341 9.73979 21.253 9.58619 21.2133 9.44248C20.7804 7.88176 19.9581 6.45657 18.8236 5.30061C18.7178 5.2002 18.5772 5.1448 18.4314 5.1461C18.2855 5.1474 18.1459 5.20529 18.0419 5.30756C17.9379 5.40983 17.8778 5.54849 17.8741 5.69429C17.8703 5.84008 17.9234 5.98162 18.0221 6.08904C19.0222 7.10866 19.7473 8.36537 20.1296 9.74154V9.74248Z" fill="black"/>
</svg>
