<svg width="24" height="24" viewBox="0 0 24 24" fill="none" xmlns="http://www.w3.org/2000/svg">
<path d="M12.5623 7.50003V11.6813L16.0395 13.7672C16.1676 13.844 16.2599 13.9686 16.2961 14.1135C16.3323 14.2583 16.3095 14.4117 16.2327 14.5397C16.1558 14.6678 16.0313 14.76 15.8864 14.7963C15.7415 14.8325 15.5882 14.8097 15.4602 14.7328L11.7102 12.4828C11.6268 12.4328 11.5579 12.362 11.5101 12.2774C11.4623 12.1928 11.4372 12.0972 11.4373 12V7.50003C11.4373 7.35084 11.4966 7.20777 11.6021 7.10228C11.7076 6.99679 11.8507 6.93753 11.9998 6.93753C12.149 6.93753 12.2921 6.99679 12.3976 7.10228C12.5031 7.20777 12.5623 7.35084 12.5623 7.50003ZM20.9998 5.43753C20.8507 5.43753 20.7076 5.49679 20.6021 5.60228C20.4966 5.70777 20.4373 5.85084 20.4373 6.00003V8.19003C19.7361 7.36221 19.0367 6.58409 18.2314 5.76846C17.0066 4.54368 15.4481 3.70699 13.7505 3.36293C12.0529 3.01887 10.2916 3.1827 8.68658 3.83395C7.08157 4.48521 5.70408 5.595 4.72621 7.02467C3.74834 8.45433 3.21347 10.1405 3.18842 11.8724C3.16337 13.6043 3.64926 15.3052 4.58538 16.7625C5.52149 18.2199 6.86631 19.3691 8.45181 20.0664C10.0373 20.7638 11.7932 20.9785 13.5 20.6837C15.2068 20.3889 16.7889 19.5976 18.0486 18.4088C18.1534 18.3055 18.2135 18.1653 18.2161 18.0182C18.2187 17.871 18.1636 17.7288 18.0626 17.6218C17.9615 17.5149 17.8226 17.4518 17.6756 17.4461C17.5285 17.4404 17.3851 17.4925 17.2761 17.5913C16.1769 18.6279 14.7967 19.3176 13.3078 19.5743C11.8189 19.831 10.2874 19.6433 8.90461 19.0347C7.5218 18.426 6.34899 17.4233 5.53271 16.152C4.71644 14.8806 4.29289 13.3969 4.31497 11.8862C4.33706 10.3755 4.80381 8.90484 5.6569 7.65789C6.51 6.41093 7.71162 5.443 9.11164 4.87502C10.5117 4.30704 12.048 4.16418 13.5288 4.46431C15.0095 4.76444 16.369 5.49423 17.4373 6.56253C18.3036 7.44003 19.048 8.27815 19.8102 9.18753H17.2498C17.1007 9.18753 16.9576 9.24679 16.8521 9.35228C16.7466 9.45777 16.6873 9.60084 16.6873 9.75003C16.6873 9.89921 16.7466 10.0423 16.8521 10.1478C16.9576 10.2533 17.1007 10.3125 17.2498 10.3125H20.9998C21.149 10.3125 21.2921 10.2533 21.3976 10.1478C21.5031 10.0423 21.5623 9.89921 21.5623 9.75003V6.00003C21.5623 5.85084 21.5031 5.70777 21.3976 5.60228C21.2921 5.49679 21.149 5.43753 20.9998 5.43753Z" fill="black"/>
</svg>
