<svg width="24" height="24" viewBox="0 0 24 24" fill="none" xmlns="http://www.w3.org/2000/svg">
<path d="M21.5625 12.7959C21.4064 14.6129 20.7345 16.3474 19.626 17.7955C18.5175 19.2436 17.0184 20.3449 15.3052 20.97C13.592 21.595 11.7359 21.7177 9.95537 21.3237C8.1748 20.9297 6.5438 20.0353 5.25428 18.7457C3.96477 17.4562 3.07038 15.8252 2.67634 14.0447C2.28231 12.2641 2.40503 10.408 3.03007 8.6948C3.6551 6.9816 4.75644 5.48256 6.20451 4.37405C7.65258 3.26554 9.38714 2.59367 11.2041 2.4375C11.3533 2.42507 11.5013 2.47241 11.6156 2.5691C11.7298 2.6658 11.801 2.80394 11.8135 2.95312C11.8259 3.10231 11.7786 3.25032 11.6819 3.3646C11.5852 3.47888 11.447 3.55007 11.2978 3.5625C9.69402 3.69984 8.16281 4.29244 6.88438 5.27057C5.60595 6.24869 4.63352 7.57163 4.0815 9.0837C3.52949 10.5958 3.42087 12.2341 3.76843 13.8058C4.11598 15.3775 4.90525 16.8173 6.04336 17.9556C7.18146 19.0939 8.62104 19.8835 10.1927 20.2314C11.7643 20.5793 13.4027 20.471 14.9148 19.9193C16.427 19.3676 17.7502 18.3954 18.7286 17.1172C19.7069 15.8389 20.2999 14.3078 20.4375 12.7041C20.4437 12.6302 20.4643 12.5583 20.4983 12.4924C20.5322 12.4265 20.5788 12.3679 20.6354 12.32C20.7497 12.2233 20.8977 12.176 21.0469 12.1884C21.1208 12.1946 21.1927 12.2152 21.2586 12.2492C21.3245 12.2831 21.383 12.3297 21.4309 12.3863C21.4788 12.4429 21.5151 12.5084 21.5376 12.579C21.5602 12.6496 21.5687 12.7239 21.5625 12.7978V12.7959ZM11.4375 6.75V12C11.4375 12.1492 11.4968 12.2923 11.6023 12.3977C11.7078 12.5032 11.8508 12.5625 12 12.5625H17.25C17.3992 12.5625 17.5423 12.5032 17.6478 12.3977C17.7533 12.2923 17.8125 12.1492 17.8125 12C17.8125 11.8508 17.7533 11.7077 17.6478 11.6023C17.5423 11.4968 17.3992 11.4375 17.25 11.4375H12.5625V6.75C12.5625 6.60081 12.5033 6.45774 12.3978 6.35225C12.2923 6.24676 12.1492 6.1875 12 6.1875C11.8508 6.1875 11.7078 6.24676 11.6023 6.35225C11.4968 6.45774 11.4375 6.60081 11.4375 6.75ZM15 4.3125C15.1854 4.3125 15.3667 4.25751 15.5209 4.1545C15.675 4.05149 15.7952 3.90507 15.8662 3.73376C15.9371 3.56246 15.9557 3.37396 15.9195 3.1921C15.8833 3.01024 15.7941 2.8432 15.6629 2.71209C15.5318 2.58097 15.3648 2.49169 15.1829 2.45551C15.0011 2.41934 14.8126 2.4379 14.6413 2.50886C14.47 2.57982 14.3235 2.69998 14.2205 2.85415C14.1175 3.00832 14.0625 3.18958 14.0625 3.375C14.0625 3.49811 14.0868 3.62002 14.1339 3.73376C14.181 3.84751 14.2501 3.95086 14.3371 4.03791C14.5129 4.21373 14.7514 4.3125 15 4.3125ZM18.375 6.5625C18.5604 6.5625 18.7417 6.50751 18.8959 6.4045C19.05 6.30149 19.1702 6.15507 19.2412 5.98376C19.3121 5.81246 19.3307 5.62396 19.2945 5.4421C19.2583 5.26024 19.1691 5.0932 19.0379 4.96209C18.9068 4.83097 18.7398 4.74169 18.5579 4.70551C18.3761 4.66934 18.1876 4.6879 18.0163 4.75886C17.845 4.82982 17.6985 4.94998 17.5955 5.10415C17.4925 5.25832 17.4375 5.43958 17.4375 5.625C17.4375 5.87364 17.5363 6.1121 17.7121 6.28791C17.8879 6.46373 18.1264 6.5625 18.375 6.5625ZM20.625 9.9375C20.8104 9.9375 20.9917 9.88251 21.1459 9.7795C21.3 9.67649 21.4202 9.53007 21.4912 9.35876C21.5621 9.18746 21.5807 8.99896 21.5445 8.8171C21.5083 8.63524 21.4191 8.4682 21.2879 8.33709C21.1568 8.20597 20.9898 8.11669 20.8079 8.08051C20.6261 8.04434 20.4376 8.0629 20.2663 8.13386C20.095 8.20482 19.9485 8.32498 19.8455 8.47915C19.7425 8.63332 19.6875 8.81458 19.6875 9C19.6875 9.24864 19.7863 9.4871 19.9621 9.66291C20.1379 9.83873 20.3764 9.9375 20.625 9.9375Z" fill="black"/>
</svg>
