<svg width="24" height="24" viewBox="0 0 24 24" fill="none" xmlns="http://www.w3.org/2000/svg">
<path d="M15 3.9375C13.4793 3.93884 11.9899 4.36968 10.7033 5.1804C9.4167 5.99113 8.38527 7.14877 7.72779 8.52C6.93471 8.38494 6.12223 8.41598 5.34177 8.61116C4.56131 8.80634 3.82986 9.16141 3.19373 9.6539C2.55759 10.1464 2.03061 10.7656 1.64615 11.4722C1.26169 12.1789 1.02811 12.9577 0.960199 13.7594C0.89229 14.561 0.991528 15.368 1.25163 16.1293C1.51174 16.8906 1.92705 17.5896 2.47127 18.182C3.0155 18.7745 3.67679 19.2476 4.41329 19.5713C5.1498 19.895 5.94548 20.0622 6.74998 20.0625H15C17.1383 20.0625 19.189 19.2131 20.701 17.701C22.213 16.189 23.0625 14.1383 23.0625 12C23.0625 9.86169 22.213 7.81096 20.701 6.29895C19.189 4.78694 17.1383 3.9375 15 3.9375ZM15 18.9375H6.74998C5.50677 18.9375 4.31449 18.4436 3.43541 17.5646C2.55634 16.6855 2.06248 15.4932 2.06248 14.25C2.06248 13.0068 2.55634 11.8145 3.43541 10.9354C4.31449 10.0564 5.50677 9.5625 6.74998 9.5625C6.93514 9.56263 7.12015 9.57359 7.30404 9.59531C7.06039 10.3736 6.93678 11.1845 6.93748 12C6.93748 12.1492 6.99674 12.2923 7.10223 12.3977C7.20772 12.5032 7.35079 12.5625 7.49998 12.5625C7.64916 12.5625 7.79223 12.5032 7.89772 12.3977C8.00321 12.2923 8.06248 12.1492 8.06248 12C8.06248 10.6279 8.46935 9.2866 9.23166 8.14573C9.99396 7.00487 11.0774 6.11567 12.3451 5.59059C13.6128 5.0655 15.0077 4.92812 16.3534 5.1958C17.6992 5.46349 18.9353 6.12422 19.9055 7.09445C20.8758 8.06467 21.5365 9.30082 21.8042 10.6466C22.0719 11.9923 21.9345 13.3872 21.4094 14.6549C20.8843 15.9225 19.9951 17.006 18.8542 17.7683C17.7134 18.5306 16.3721 18.9375 15 18.9375ZM17.6475 10.8975L15.795 12.75L17.6475 14.6025C17.7027 14.654 17.7471 14.7161 17.7778 14.7851C17.8086 14.8541 17.8251 14.9286 17.8264 15.0041C17.8278 15.0796 17.8139 15.1547 17.7856 15.2247C17.7573 15.2947 17.7152 15.3584 17.6618 15.4118C17.6083 15.4652 17.5447 15.5073 17.4747 15.5356C17.4046 15.5639 17.3296 15.5778 17.2541 15.5764C17.1786 15.5751 17.1041 15.5586 17.0351 15.5278C16.9661 15.4971 16.904 15.4528 16.8525 15.3975L15 13.545L13.1475 15.3975C13.0408 15.4969 12.8998 15.551 12.7541 15.5484C12.6084 15.5458 12.4693 15.4868 12.3663 15.3837C12.2632 15.2807 12.2042 15.1416 12.2016 14.9959C12.199 14.8502 12.2531 14.7091 12.3525 14.6025L14.205 12.75L12.3525 10.8975C12.2531 10.7909 12.199 10.6498 12.2016 10.5041C12.2042 10.3584 12.2632 10.2193 12.3663 10.1163C12.4693 10.0132 12.6084 9.95419 12.7541 9.95162C12.8998 9.94905 13.0408 10.0031 13.1475 10.1025L15 11.955L16.8525 10.1025C16.9591 10.0031 17.1001 9.94905 17.2459 9.95162C17.3916 9.95419 17.5306 10.0132 17.6337 10.1163C17.7367 10.2193 17.7958 10.3584 17.7984 10.5041C17.8009 10.6498 17.7468 10.7909 17.6475 10.8975Z" fill="black"/>
</svg>
