<svg width="24" height="24" viewBox="0 0 24 24" fill="none" xmlns="http://www.w3.org/2000/svg">
<path d="M11.2497 19.3125H6.74969C6.60051 19.3125 6.45743 19.2532 6.35195 19.1477C6.24646 19.0422 6.18719 18.8992 6.18719 18.75C6.18719 18.6008 6.24646 18.4577 6.35195 18.3522C6.45743 18.2467 6.60051 18.1875 6.74969 18.1875H11.2497C11.3989 18.1875 11.542 18.2467 11.6474 18.3522C11.7529 18.4577 11.8122 18.6008 11.8122 18.75C11.8122 18.8992 11.7529 19.0422 11.6474 19.1477C11.542 19.2532 11.3989 19.3125 11.2497 19.3125ZM17.2497 18.1875H14.9997C14.8505 18.1875 14.7074 18.2467 14.6019 18.3522C14.4965 18.4577 14.4372 18.6008 14.4372 18.75C14.4372 18.8992 14.4965 19.0422 14.6019 19.1477C14.7074 19.2532 14.8505 19.3125 14.9997 19.3125H17.2497C17.3989 19.3125 17.542 19.2532 17.6474 19.1477C17.7529 19.0422 17.8122 18.8992 17.8122 18.75C17.8122 18.6008 17.7529 18.4577 17.6474 18.3522C17.542 18.2467 17.3989 18.1875 17.2497 18.1875ZM14.9997 21.1875H9.74969C9.60051 21.1875 9.45743 21.2467 9.35194 21.3522C9.24646 21.4577 9.18719 21.6008 9.18719 21.75C9.18719 21.8992 9.24646 22.0422 9.35194 22.1477C9.45743 22.2532 9.60051 22.3125 9.74969 22.3125H14.9997C15.1489 22.3125 15.292 22.2532 15.3974 22.1477C15.5029 22.0422 15.5622 21.8992 15.5622 21.75C15.5622 21.6008 15.5029 21.4577 15.3974 21.3522C15.292 21.2467 15.1489 21.1875 14.9997 21.1875ZM21.5622 9.37498C21.56 11.2142 20.8283 12.9775 19.5278 14.2781C18.2272 15.5786 16.4639 16.3103 14.6247 16.3125H7.12469C6.47061 16.3092 5.82446 16.169 5.2278 15.901C4.63113 15.633 4.09716 15.2431 3.66022 14.7563C3.22328 14.2696 2.89305 13.6968 2.69076 13.0748C2.48846 12.4528 2.41858 11.7953 2.48562 11.1446C2.55266 10.494 2.75512 9.86457 3.07999 9.29686C3.40487 8.72916 3.84496 8.23572 4.37196 7.8483C4.89897 7.46087 5.50122 7.18802 6.14 7.04731C6.77877 6.90659 7.43993 6.90111 8.08094 7.03123C8.63358 5.49244 9.71141 4.19797 11.1246 3.37574C12.5379 2.55351 14.1959 2.25625 15.8068 2.5363C17.4176 2.81636 18.878 3.65576 19.9308 4.90672C20.9836 6.15767 21.5613 7.73996 21.5622 9.37498ZM20.4372 9.37498C20.4323 7.86485 19.8404 6.4158 18.7866 5.33408C17.7328 4.25237 16.2998 3.62276 14.7903 3.57833C13.2808 3.5339 11.8132 4.07812 10.6976 5.09598C9.58203 6.11384 8.90593 7.52557 8.81219 9.0328C8.80349 9.18198 8.73588 9.3216 8.62424 9.42093C8.5126 9.52027 8.36606 9.57119 8.21688 9.56248C8.0677 9.55378 7.92808 9.48617 7.82874 9.37453C7.72941 9.26289 7.67849 9.11636 7.68719 8.96717C7.70378 8.68417 7.73728 8.40242 7.78751 8.12342C7.30065 8.0322 6.80012 8.04351 6.31789 8.15663C5.83565 8.26974 5.3823 8.48218 4.98679 8.78037C4.59128 9.07856 4.26229 9.45595 4.02084 9.88844C3.7794 10.3209 3.63079 10.799 3.58452 11.2922C3.53825 11.7853 3.59532 12.2827 3.7521 12.7526C3.90888 13.2225 4.16192 13.6545 4.49506 14.021C4.82821 14.3876 5.23412 14.6806 5.6869 14.8815C6.13968 15.0823 6.62937 15.1865 7.12469 15.1875H14.6247C16.1657 15.1857 17.6432 14.5728 18.7328 13.4831C19.8225 12.3934 20.4355 10.916 20.4372 9.37498Z" fill="black"/>
</svg>
