<svg width="24" height="24" viewBox="0 0 24 24" fill="none" xmlns="http://www.w3.org/2000/svg">
<path d="M23.0625 12C23.0675 13.7453 22.5011 15.4443 21.45 16.8375C21.4057 16.8966 21.3501 16.9464 21.2866 16.984C21.223 17.0217 21.1527 17.0464 21.0795 17.0569C21.0064 17.0673 20.9319 17.0633 20.8604 17.0449C20.7888 17.0266 20.7216 16.9943 20.6625 16.95C20.6034 16.9057 20.5536 16.8502 20.516 16.7866C20.4783 16.7231 20.4536 16.6527 20.4431 16.5796C20.4327 16.5065 20.4367 16.432 20.4551 16.3604C20.4734 16.2889 20.5057 16.2216 20.55 16.1625C21.2095 15.2831 21.6507 14.2596 21.837 13.1762C22.0234 12.0929 21.9497 10.9807 21.6219 9.93149C21.2941 8.88223 20.7217 7.92588 19.9519 7.14124C19.182 6.35661 18.2367 5.76615 17.1938 5.41854C16.151 5.07092 15.0404 4.97609 13.9537 5.14187C12.8671 5.30765 11.8353 5.72929 10.9435 6.37203C10.0518 7.01478 9.32552 7.86024 8.82461 8.83874C8.32369 9.81724 8.06248 10.9008 8.06248 12C8.06248 12.1492 8.00321 12.2923 7.89772 12.3978C7.79223 12.5033 7.64916 12.5625 7.49998 12.5625C7.35079 12.5625 7.20772 12.5033 7.10223 12.3978C6.99674 12.2923 6.93748 12.1492 6.93748 12C6.93677 11.1848 7.06038 10.3742 7.30404 9.59628C7.12017 9.57424 6.93516 9.56297 6.74998 9.56253C5.50677 9.56253 4.31449 10.0564 3.43541 10.9355C2.55634 11.8145 2.06248 13.0068 2.06248 14.25C2.06248 15.4932 2.55634 16.6855 3.43541 17.5646C4.31449 18.4437 5.50677 18.9375 6.74998 18.9375H8.99998C9.14916 18.9375 9.29223 18.9968 9.39772 19.1023C9.50321 19.2078 9.56248 19.3508 9.56248 19.5C9.56248 19.6492 9.50321 19.7923 9.39772 19.8978C9.29223 20.0033 9.14916 20.0625 8.99998 20.0625H6.74998C5.94548 20.0623 5.1498 19.895 4.41329 19.5713C3.67679 19.2476 3.0155 18.7745 2.47127 18.1821C1.92705 17.5896 1.51174 16.8906 1.25163 16.1293C0.991528 15.368 0.89229 14.561 0.960199 13.7594C1.02811 12.9578 1.26169 12.179 1.64615 11.4723C2.03061 10.7656 2.55759 10.1464 3.19373 9.65392C3.82986 9.16144 4.56131 8.80637 5.34177 8.61119C6.12223 8.416 6.93471 8.38496 7.72779 8.52003C8.51709 6.87121 9.84327 5.53957 11.4888 4.74349C13.1344 3.94741 15.0016 3.73416 16.7843 4.13871C18.567 4.54326 20.1592 5.5416 21.3 6.96999C22.4407 8.39838 23.0622 10.172 23.0625 12ZM16.8525 16.1025L14.8125 18.1416V12C14.8125 11.8508 14.7532 11.7078 14.6477 11.6023C14.5422 11.4968 14.3992 11.4375 14.25 11.4375C14.1008 11.4375 13.9577 11.4968 13.8522 11.6023C13.7467 11.7078 13.6875 11.8508 13.6875 12V18.1416L11.6475 16.1025C11.5408 16.0032 11.3998 15.9491 11.2541 15.9516C11.1084 15.9542 10.9693 16.0133 10.8663 16.1163C10.7632 16.2194 10.7042 16.3584 10.7016 16.5041C10.699 16.6499 10.7531 16.7909 10.8525 16.8975L13.8525 19.8975C13.9579 20.0029 14.1009 20.062 14.25 20.062C14.399 20.062 14.542 20.0029 14.6475 19.8975L17.6475 16.8975C17.7468 16.7909 17.8009 16.6499 17.7984 16.5041C17.7958 16.3584 17.7367 16.2194 17.6337 16.1163C17.5306 16.0133 17.3916 15.9542 17.2459 15.9516C17.1001 15.9491 16.9591 16.0032 16.8525 16.1025Z" fill="black"/>
</svg>
