<svg width="24" height="24" viewBox="0 0 24 24" fill="none" xmlns="http://www.w3.org/2000/svg">
<path d="M15.3749 6.93747C14.7025 6.9375 14.0336 7.03508 13.3892 7.22716C13.1131 6.74771 12.7603 6.3167 12.3449 5.95122L13.3311 4.54497C13.3735 4.48446 13.4036 4.41619 13.4196 4.34406C13.4357 4.27192 13.4373 4.19734 13.4245 4.12456C13.4117 4.05178 13.3847 3.98223 13.3451 3.91989C13.3054 3.85755 13.2538 3.80364 13.1933 3.76122C13.1328 3.71881 13.0645 3.68873 12.9924 3.6727C12.9203 3.65668 12.8457 3.65501 12.7729 3.66781C12.7001 3.68061 12.6306 3.70761 12.5682 3.74729C12.5059 3.78696 12.452 3.83853 12.4096 3.89904L11.4233 5.30529C10.68 4.89954 9.84669 4.68709 8.99987 4.68747C8.89206 4.68747 8.78612 4.68747 8.68018 4.69872L8.38112 3.00466C8.37042 2.93 8.34482 2.85825 8.30584 2.79368C8.26685 2.72911 8.21528 2.67304 8.15419 2.6288C8.0931 2.58457 8.02373 2.55307 7.95022 2.53619C7.87671 2.5193 7.80055 2.51737 7.72628 2.53052C7.65201 2.54366 7.58114 2.57161 7.51788 2.6127C7.45463 2.65378 7.40029 2.70717 7.35809 2.76969C7.31589 2.8322 7.28669 2.90257 7.27223 2.97659C7.25777 3.05062 7.25835 3.1268 7.27393 3.2006L7.57206 4.89372C6.65626 5.16414 5.83561 5.68806 5.20487 6.40497L3.79393 5.41685C3.73342 5.37444 3.66515 5.34436 3.59301 5.32833C3.52088 5.3123 3.44629 5.31064 3.37351 5.32344C3.30074 5.33623 3.23119 5.36324 3.16885 5.40291C3.10651 5.44259 3.05259 5.49415 3.01018 5.55466C2.92452 5.67687 2.89092 5.8281 2.91677 5.97508C2.94261 6.12206 3.02579 6.25276 3.14799 6.33841L4.55424 7.32466C4.14776 8.06829 3.93558 8.9025 3.93737 9.74997C3.93737 9.85591 3.93737 9.96185 3.94862 10.0678L2.25456 10.3659C2.11619 10.3901 1.99189 10.4653 1.90611 10.5765C1.82033 10.6877 1.77928 10.8271 1.79104 10.967C1.80279 11.107 1.86649 11.2375 1.96962 11.3329C2.07275 11.4283 2.20783 11.4817 2.34831 11.4825C2.38129 11.4824 2.41422 11.4796 2.44674 11.474L4.14362 11.175C4.29043 11.6754 4.51437 12.1498 4.80737 12.5812C4.08485 13.2068 3.57082 14.0383 3.33416 14.9642C3.0975 15.8902 3.14953 16.8663 3.48327 17.7619C3.817 18.6574 4.41651 19.4295 5.20142 19.9748C5.98634 20.52 6.91916 20.8123 7.87487 20.8125H15.3749C17.2148 20.8125 18.9794 20.0816 20.2804 18.7805C21.5815 17.4795 22.3124 15.7149 22.3124 13.875C22.3124 12.035 21.5815 10.2705 20.2804 8.96942C18.9794 7.66839 17.2148 6.93747 15.3749 6.93747ZM5.06237 9.74997C5.06208 8.89692 5.33884 8.06685 5.851 7.38465C6.36315 6.70246 7.08301 6.20504 7.90224 5.96724C8.72148 5.72944 9.59578 5.76413 10.3936 6.06608C11.1914 6.36803 11.8696 6.92091 12.3261 7.64154C10.7001 8.43493 9.44668 9.82992 8.83112 11.5312C8.51639 11.4675 8.19598 11.4361 7.87487 11.4375C7.13158 11.4369 6.39896 11.6144 5.73831 11.955C5.29797 11.3039 5.06255 10.536 5.06237 9.74997ZM15.3749 19.6875H7.87487C7.37916 19.6871 6.88898 19.5833 6.43568 19.3827C5.98238 19.182 5.57595 18.889 5.24236 18.5223C4.90878 18.1556 4.65539 17.7234 4.4984 17.2532C4.34142 16.783 4.28429 16.2852 4.33067 15.7917C4.37705 15.2981 4.52592 14.8197 4.76775 14.387C5.00959 13.9543 5.33907 13.5768 5.73513 13.2787C6.13119 12.9806 6.5851 12.7684 7.06784 12.6557C7.55058 12.543 8.05152 12.5324 8.53862 12.6243C8.48839 12.9033 8.45489 13.1851 8.43831 13.4681C8.4296 13.6173 8.48052 13.7638 8.57986 13.8755C8.67919 13.9871 8.81881 14.0547 8.96799 14.0634C9.11718 14.0721 9.26371 14.0212 9.37535 13.9219C9.48699 13.8225 9.5546 13.6829 9.56331 13.5337C9.58701 13.1459 9.64982 12.7614 9.75081 12.3862C9.75081 12.3722 9.75831 12.359 9.76112 12.3459C10.0453 11.2986 10.6167 10.3516 11.4108 9.61191C12.2049 8.87226 13.1901 8.36945 14.2549 8.1603C15.3198 7.95115 16.422 8.04399 17.4368 8.42834C18.4517 8.81268 19.3389 9.47321 19.998 10.3353C20.6572 11.1974 21.0622 12.2266 21.1671 13.3067C21.2721 14.3869 21.0728 15.4748 20.5919 16.4477C20.111 17.4205 19.3676 18.2394 18.4457 18.812C17.5237 19.3845 16.4601 19.6877 15.3749 19.6875Z" fill="black"/>
</svg>
