<svg width="24" height="24" viewBox="0 0 24 24" fill="none" xmlns="http://www.w3.org/2000/svg">
<path d="M8.06219 18.375C8.06219 18.5604 8.00721 18.7417 7.9042 18.8958C7.80118 19.05 7.65476 19.1702 7.48346 19.2411C7.31215 19.3121 7.12365 19.3306 6.9418 19.2945C6.75994 19.2583 6.59289 19.169 6.46178 19.0379C6.33067 18.9068 6.24138 18.7397 6.20521 18.5579C6.16903 18.376 6.1876 18.1875 6.25856 18.0162C6.32951 17.8449 6.44967 17.6985 6.60385 17.5955C6.75802 17.4925 6.93927 17.4375 7.12469 17.4375C7.37333 17.4375 7.61179 17.5363 7.78761 17.7121C7.96342 17.8879 8.06219 18.1263 8.06219 18.375ZM10.8747 18.9375C10.6893 18.9375 10.508 18.9925 10.3538 19.0955C10.1997 19.1985 10.0795 19.3449 10.0086 19.5162C9.9376 19.6875 9.91903 19.876 9.95521 20.0579C9.99138 20.2397 10.0807 20.4068 10.2118 20.5379C10.3429 20.669 10.5099 20.7583 10.6918 20.7945C10.8737 20.8306 11.0622 20.8121 11.2335 20.7411C11.4048 20.6702 11.5512 20.55 11.6542 20.3958C11.7572 20.2417 11.8122 20.0604 11.8122 19.875C11.8122 19.6263 11.7134 19.3879 11.5376 19.2121C11.3618 19.0363 11.1233 18.9375 10.8747 18.9375ZM15.3747 17.4375C15.1893 17.4375 15.008 17.4925 14.8538 17.5955C14.6997 17.6985 14.5795 17.8449 14.5086 18.0162C14.4376 18.1875 14.419 18.376 14.4552 18.5579C14.4914 18.7397 14.5807 18.9068 14.7118 19.0379C14.8429 19.169 15.0099 19.2583 15.1918 19.2945C15.3737 19.3306 15.5622 19.3121 15.7335 19.2411C15.9048 19.1702 16.0512 19.05 16.1542 18.8958C16.2572 18.7417 16.3122 18.5604 16.3122 18.375C16.3122 18.1263 16.2134 17.8879 16.0376 17.7121C15.8618 17.5363 15.6233 17.4375 15.3747 17.4375ZM6.37469 21.1875C6.18927 21.1875 6.00802 21.2425 5.85385 21.3455C5.69967 21.4485 5.57951 21.5949 5.50856 21.7662C5.4376 21.9375 5.41903 22.126 5.45521 22.3079C5.49138 22.4897 5.58067 22.6568 5.71178 22.7879C5.84289 22.919 6.00994 23.0083 6.1918 23.0445C6.37365 23.0806 6.56215 23.0621 6.73346 22.9911C6.90476 22.9202 7.05118 22.8 7.1542 22.6458C7.25721 22.4917 7.31219 22.3104 7.31219 22.125C7.31219 21.8763 7.21342 21.6379 7.03761 21.4621C6.86179 21.2863 6.62333 21.1875 6.37469 21.1875ZM14.6247 21.1875C14.4393 21.1875 14.258 21.2425 14.1038 21.3455C13.9497 21.4485 13.8295 21.5949 13.7586 21.7662C13.6876 21.9375 13.669 22.126 13.7052 22.3079C13.7414 22.4897 13.8307 22.6568 13.9618 22.7879C14.0929 22.919 14.2599 23.0083 14.4418 23.0445C14.6237 23.0806 14.8122 23.0621 14.9835 22.9911C15.1548 22.9202 15.3012 22.8 15.4042 22.6458C15.5072 22.4917 15.5622 22.3104 15.5622 22.125C15.5622 21.8763 15.4634 21.6379 15.2876 21.4621C15.1118 21.2863 14.8733 21.1875 14.6247 21.1875ZM21.5622 8.62498C21.56 10.4642 20.8283 12.2275 19.5278 13.5281C18.2272 14.8286 16.4639 15.5603 14.6247 15.5625H7.12469C6.47061 15.5592 5.82446 15.419 5.2278 15.151C4.63113 14.883 4.09716 14.4931 3.66022 14.0063C3.22328 13.5196 2.89305 12.9468 2.69076 12.3248C2.48846 11.7028 2.41858 11.0453 2.48562 10.3946C2.55266 9.74399 2.75512 9.11457 3.07999 8.54686C3.40487 7.97916 3.84496 7.48572 4.37196 7.0983C4.89897 6.71087 5.50122 6.43802 6.14 6.29731C6.77877 6.15659 7.43993 6.15111 8.08094 6.28123C8.63358 4.74244 9.71141 3.44797 11.1246 2.62574C12.5379 1.80351 14.1959 1.50625 15.8068 1.7863C17.4176 2.06636 18.878 2.90576 19.9308 4.15672C20.9836 5.40767 21.5613 6.98996 21.5622 8.62498ZM20.4372 8.62498C20.4323 7.11485 19.8404 5.6658 18.7866 4.58408C17.7328 3.50237 16.2998 2.87276 14.7903 2.82833C13.2808 2.7839 11.8132 3.32812 10.6976 4.34598C9.58203 5.36384 8.90593 6.77557 8.81219 8.2828C8.80349 8.43198 8.73588 8.5716 8.62424 8.67093C8.5126 8.77027 8.36606 8.82119 8.21688 8.81248C8.0677 8.80378 7.92808 8.73617 7.82874 8.62453C7.72941 8.51289 7.67849 8.36636 7.68719 8.21717C7.70378 7.93417 7.73728 7.65242 7.78751 7.37342C7.30065 7.2822 6.80012 7.29351 6.31789 7.40663C5.83565 7.51974 5.3823 7.73218 4.98679 8.03037C4.59128 8.32856 4.26229 8.70595 4.02084 9.13844C3.7794 9.57094 3.63079 10.049 3.58452 10.5422C3.53825 11.0353 3.59532 11.5327 3.7521 12.0026C3.90888 12.4725 4.16192 12.9045 4.49506 13.271C4.82821 13.6376 5.23412 13.9306 5.6869 14.1315C6.13968 14.3323 6.62937 14.4365 7.12469 14.4375H14.6247C16.1657 14.4357 17.6432 13.8228 18.7328 12.7331C19.8225 11.6434 20.4355 10.166 20.4372 8.62498Z" fill="black"/>
</svg>
