<svg width="24" height="24" viewBox="0 0 24 24" fill="none" xmlns="http://www.w3.org/2000/svg">
<path d="M16.1248 6.93752C15.679 6.93746 15.2341 6.98016 14.7964 7.06502C14.7034 5.65824 14.1598 4.31882 13.2462 3.24509C12.3325 2.17136 11.0973 1.42042 9.72359 1.10345C9.63034 1.08189 9.53312 1.08447 9.44115 1.11097C9.34918 1.13746 9.26549 1.18698 9.198 1.25485C9.13051 1.32271 9.08145 1.40668 9.05547 1.49879C9.02949 1.59091 9.02744 1.68814 9.04952 1.78127C9.25461 2.67924 9.22847 3.61458 8.97354 4.4997C8.71861 5.38482 8.24323 6.19077 7.59191 6.84209C6.94059 7.49341 6.13464 7.96879 5.24952 8.22372C4.3644 8.47865 3.42907 8.50479 2.53109 8.2997C2.43821 8.27839 2.34145 8.28102 2.24987 8.30734C2.15829 8.33367 2.0749 8.38283 2.00753 8.4502C1.94015 8.51758 1.89099 8.60097 1.86467 8.69255C1.83834 8.78413 1.83571 8.88089 1.85702 8.97377C2.06086 9.85261 2.44317 10.6802 2.9802 11.4051C3.51724 12.13 4.19755 12.7368 4.9789 13.1878C4.4254 13.8762 4.07769 14.707 3.97583 15.5845C3.87396 16.4619 4.0221 17.3503 4.40316 18.1472C4.78422 18.9441 5.3827 19.6171 6.12962 20.0887C6.87654 20.5602 7.74151 20.8112 8.62484 20.8125H16.1248C17.9648 20.8125 19.7294 20.0816 21.0304 18.7806C22.3314 17.4795 23.0623 15.715 23.0623 13.875C23.0623 12.0351 22.3314 10.2705 21.0304 8.96946C19.7294 7.66843 17.9648 6.93752 16.1248 6.93752ZM3.20796 9.54002C3.38796 9.55502 3.56859 9.56252 3.74984 9.56252C5.48971 9.56053 7.15775 8.86849 8.38803 7.63821C9.61831 6.40793 10.3104 4.73989 10.3123 3.00002C10.3123 2.81814 10.3048 2.63627 10.2898 2.45627C11.2779 2.85116 12.1274 3.52898 12.7318 4.40473C13.3362 5.28048 13.6686 6.31517 13.6873 7.37908C12.7432 7.73287 11.8872 8.28735 11.1782 9.00422C10.4693 9.72109 9.92436 10.5833 9.58109 11.5313C9.26635 11.4676 8.94595 11.4362 8.62484 11.4375C7.61566 11.4364 6.63337 11.7628 5.82546 12.3675C4.63835 11.7744 3.70786 10.7693 3.20796 9.54002ZM16.1248 19.6875H8.62484C8.12912 19.6871 7.63895 19.5833 7.18565 19.3827C6.73235 19.1821 6.32591 18.889 5.99233 18.5224C5.65875 18.1557 5.40536 17.7234 5.24837 17.2532C5.09139 16.783 5.03426 16.2852 5.08064 15.7917C5.12702 15.2982 5.27588 14.8197 5.51772 14.387C5.75956 13.9543 6.08904 13.5768 6.4851 13.2787C6.88116 12.9806 7.33507 12.7684 7.81781 12.6558C8.30054 12.5431 8.80148 12.5324 9.28859 12.6244C9.23836 12.9034 9.20486 13.1851 9.18827 13.4681C9.17957 13.6173 9.23049 13.7639 9.32982 13.8755C9.42916 13.9871 9.56878 14.0547 9.71796 14.0635C9.86715 14.0722 10.0137 14.0212 10.1253 13.9219C10.237 13.8226 10.3046 13.683 10.3133 13.5338C10.337 13.1459 10.3998 12.7615 10.5008 12.3863C10.5008 12.3722 10.5083 12.3591 10.5111 12.346C10.7952 11.2986 11.3667 10.3516 12.1608 9.61195C12.9549 8.8723 13.94 8.36949 15.0049 8.16034C16.0698 7.95119 17.1719 8.04403 18.1868 8.42838C19.2017 8.81272 20.0888 9.47325 20.748 10.3353C21.4072 11.1974 21.8121 12.2266 21.9171 13.3068C22.022 14.3869 21.8228 15.4749 21.3419 16.4477C20.8609 17.4205 20.1175 18.2395 19.1956 18.812C18.2737 19.3845 17.2101 19.6878 16.1248 19.6875Z" fill="black"/>
</svg>
