<svg width="24" height="24" viewBox="0 0 24 24" fill="none" xmlns="http://www.w3.org/2000/svg">
<path d="M4.91608 3.37502C4.8131 3.27944 4.67809 3.22585 4.53759 3.22481C4.3971 3.22376 4.2613 3.27534 4.15691 3.36938C4.05253 3.46342 3.98711 3.59312 3.97354 3.73296C3.95997 3.8728 3.99922 4.01266 4.08358 4.12502L7.85046 8.26877C7.80827 8.35033 7.76608 8.43283 7.72671 8.51627C6.93495 8.38463 6.12452 8.41841 5.34646 8.61545C4.5684 8.8125 3.83958 9.16855 3.20592 9.66117C2.57226 10.1538 2.04749 10.7723 1.66468 11.4778C1.28186 12.1832 1.04929 12.9603 0.98163 13.76C0.913966 14.5598 1.01267 15.3649 1.27152 16.1247C1.53038 16.8844 1.94377 17.5823 2.48566 18.1744C3.02755 18.7664 3.68619 19.2399 4.42008 19.5648C5.15397 19.8898 5.94722 20.0593 6.74983 20.0625H14.9998C16.0396 20.0648 17.0698 19.8642 18.0326 19.4719L19.0836 20.625C19.184 20.7354 19.3242 20.8014 19.4733 20.8084C19.6224 20.8155 19.7682 20.763 19.8786 20.6625C19.989 20.5621 20.0549 20.4219 20.062 20.2728C20.069 20.1237 20.0165 19.9779 19.9161 19.8675L4.91608 3.37502ZM14.9998 18.9375H6.74983C6.11023 18.9387 5.47715 18.8089 4.88958 18.5562C4.30201 18.3035 3.77237 17.9332 3.33326 17.4682C2.89415 17.0031 2.55486 16.4531 2.33627 15.852C2.11768 15.2509 2.02442 14.6114 2.06223 13.9729C2.10003 13.3345 2.26811 12.7105 2.5561 12.1394C2.8441 11.5683 3.24593 11.0622 3.73686 10.6522C4.22778 10.2422 4.79742 9.937 5.4107 9.75541C6.02399 9.57382 6.66795 9.51966 7.30296 9.59627C7.06062 10.3745 6.93735 11.1849 6.93733 12C6.93733 12.1492 6.99659 12.2923 7.10208 12.3978C7.20757 12.5033 7.35065 12.5625 7.49983 12.5625C7.64901 12.5625 7.79209 12.5033 7.89758 12.3978C8.00307 12.2923 8.06233 12.1492 8.06233 12C8.06202 11.0243 8.26776 10.0595 8.66608 9.16877L17.218 18.5756C16.5033 18.8166 15.754 18.9388 14.9998 18.9375ZM23.0623 12C23.0635 13.9808 22.3341 15.8924 21.0139 17.3691C20.9612 17.428 20.8966 17.4752 20.8244 17.5075C20.7522 17.5398 20.6739 17.5566 20.5948 17.5566C20.4863 17.5565 20.38 17.5251 20.2889 17.466C20.1978 17.4069 20.1258 17.3227 20.0815 17.2236C20.0372 17.1245 20.0225 17.0147 20.0392 16.9074C20.056 16.8001 20.1034 16.7 20.1758 16.6191C21.3169 15.3397 21.9439 13.6831 21.9358 11.9687C21.9278 10.2544 21.2852 8.60374 20.1322 7.33511C18.9791 6.06649 17.3971 5.26973 15.6913 5.0985C13.9855 4.92728 12.2768 5.3937 10.8945 6.40783C10.835 6.4516 10.7674 6.48321 10.6957 6.50087C10.6239 6.51852 10.5494 6.52187 10.4764 6.51073C10.4033 6.49959 10.3332 6.47417 10.27 6.43592C10.2068 6.39768 10.1517 6.34736 10.108 6.28783C10.0642 6.2283 10.0326 6.16074 10.0149 6.089C9.99726 6.01725 9.99391 5.94273 10.0051 5.8697C10.0276 5.72219 10.1077 5.58966 10.228 5.50127C11.4292 4.61918 12.8515 4.08733 14.3369 3.96477C15.8222 3.84222 17.3124 4.13376 18.642 4.80703C19.9716 5.48029 21.0886 6.50892 21.8689 7.77869C22.6493 9.04845 23.0623 10.5097 23.0623 12Z" fill="black"/>
</svg>
