<svg width="24" height="24" viewBox="0 0 24 24" fill="none" xmlns="http://www.w3.org/2000/svg">
<path d="M14.7184 18.3122L11.7184 22.8122C11.6356 22.9365 11.5069 23.0228 11.3604 23.0522C11.2139 23.0816 11.0618 23.0515 10.9375 22.9687C10.8132 22.8859 10.7268 22.7571 10.6975 22.6107C10.6681 22.4642 10.6981 22.3121 10.7809 22.1878L13.7809 17.6878C13.8637 17.5635 13.9925 17.4771 14.139 17.4478C14.2854 17.4184 14.4376 17.4484 14.5619 17.5312C14.6862 17.614 14.7725 17.7428 14.8019 17.8893C14.8313 18.0357 14.8012 18.1879 14.7184 18.3122ZM21.5622 8.62498C21.56 10.4642 20.8283 12.2275 19.5278 13.5281C18.2272 14.8286 16.4639 15.5603 14.6247 15.5625H12.3006L9.46844 19.8122C9.42745 19.8737 9.37473 19.9266 9.31329 19.9678C9.25186 20.009 9.18292 20.0377 9.1104 20.0522C9.03788 20.0667 8.96321 20.0668 8.89065 20.0525C8.81809 20.0382 8.74906 20.0097 8.6875 19.9687C8.62595 19.9277 8.57307 19.875 8.53189 19.8136C8.4907 19.7522 8.46202 19.6832 8.44749 19.6107C8.43295 19.5382 8.43284 19.4635 8.44715 19.3909C8.46147 19.3184 8.48995 19.2494 8.53094 19.1878L10.9488 15.5625H7.12469C6.47061 15.5592 5.82446 15.419 5.2278 15.151C4.63113 14.883 4.09716 14.4931 3.66022 14.0063C3.22328 13.5196 2.89305 12.9468 2.69076 12.3248C2.48846 11.7028 2.41858 11.0453 2.48562 10.3946C2.55266 9.74399 2.75512 9.11457 3.07999 8.54686C3.40487 7.97916 3.84496 7.48572 4.37196 7.0983C4.89897 6.71087 5.50122 6.43802 6.14 6.29731C6.77877 6.15659 7.43993 6.15111 8.08094 6.28123C8.63358 4.74244 9.71141 3.44797 11.1246 2.62574C12.5379 1.80351 14.1959 1.50625 15.8068 1.7863C17.4176 2.06636 18.878 2.90576 19.9308 4.15672C20.9836 5.40767 21.5613 6.98996 21.5622 8.62498ZM20.4372 8.62498C20.4323 7.11485 19.8404 5.6658 18.7866 4.58408C17.7328 3.50237 16.2998 2.87276 14.7903 2.82833C13.2808 2.7839 11.8132 3.32812 10.6976 4.34598C9.58203 5.36384 8.90593 6.77557 8.81219 8.2828C8.80349 8.43198 8.73588 8.5716 8.62424 8.67093C8.5126 8.77027 8.36606 8.82119 8.21688 8.81248C8.0677 8.80378 7.92808 8.73617 7.82874 8.62453C7.72941 8.51289 7.67849 8.36636 7.68719 8.21717C7.70378 7.93417 7.73728 7.65242 7.78751 7.37342C7.30065 7.2822 6.80012 7.29351 6.31789 7.40663C5.83565 7.51974 5.3823 7.73218 4.98679 8.03037C4.59128 8.32856 4.26229 8.70595 4.02084 9.13844C3.7794 9.57094 3.63079 10.049 3.58452 10.5422C3.53825 11.0353 3.59532 11.5327 3.7521 12.0026C3.90888 12.4725 4.16192 12.9045 4.49506 13.271C4.82821 13.6376 5.23412 13.9306 5.6869 14.1315C6.13968 14.3323 6.62937 14.4365 7.12469 14.4375H14.6247C16.1657 14.4357 17.6432 13.8228 18.7328 12.7331C19.8225 11.6434 20.4355 10.166 20.4372 8.62498Z" fill="black"/>
</svg>
