<svg width="24" height="24" viewBox="0 0 24 24" fill="none" xmlns="http://www.w3.org/2000/svg">
<path d="M17.6475 15.3975C17.542 15.5028 17.399 15.562 17.25 15.562C17.1009 15.562 16.9579 15.5028 16.8525 15.3975L14.8125 13.3584V19.5C14.8125 19.6492 14.7532 19.7923 14.6477 19.8978C14.5422 20.0032 14.3992 20.0625 14.25 20.0625C14.1008 20.0625 13.9577 20.0032 13.8522 19.8978C13.7467 19.7923 13.6875 19.6492 13.6875 19.5V13.3584L11.6475 15.3975C11.5408 15.4969 11.3998 15.551 11.2541 15.5484C11.1084 15.5458 10.9693 15.4868 10.8663 15.3837C10.7632 15.2807 10.7042 15.1416 10.7016 14.9959C10.699 14.8502 10.7531 14.7091 10.8525 14.6025L13.8525 11.6025C13.9579 11.4972 14.1009 11.438 14.25 11.438C14.399 11.438 14.542 11.4972 14.6475 11.6025L17.6475 14.6025C17.7528 14.708 17.812 14.8509 17.812 15C17.812 15.1491 17.7528 15.292 17.6475 15.3975ZM15 3.9375C13.4792 3.93873 11.9898 4.36952 10.7032 5.18026C9.41659 5.991 8.38518 7.1487 7.72779 8.52C6.93471 8.38494 6.12223 8.41598 5.34177 8.61116C4.56131 8.80634 3.82986 9.16141 3.19373 9.6539C2.55759 10.1464 2.03061 10.7656 1.64615 11.4723C1.26169 12.1789 1.02811 12.9577 0.960199 13.7594C0.89229 14.561 0.991528 15.368 1.25163 16.1293C1.51174 16.8906 1.92705 17.5896 2.47127 18.182C3.0155 18.7745 3.67679 19.2476 4.41329 19.5713C5.1498 19.895 5.94548 20.0622 6.74998 20.0625H10.5C10.6492 20.0625 10.7922 20.0032 10.8977 19.8978C11.0032 19.7923 11.0625 19.6492 11.0625 19.5C11.0625 19.3508 11.0032 19.2077 10.8977 19.1023C10.7922 18.9968 10.6492 18.9375 10.5 18.9375H6.74998C5.50677 18.9375 4.31449 18.4436 3.43541 17.5646C2.55634 16.6855 2.06248 15.4932 2.06248 14.25C2.06248 13.0068 2.55634 11.8145 3.43541 10.9354C4.31449 10.0564 5.50677 9.5625 6.74998 9.5625C6.93516 9.56295 7.12017 9.57421 7.30404 9.59625C7.06038 10.3742 6.93677 11.1848 6.93748 12C6.93748 12.1492 6.99674 12.2923 7.10223 12.3978C7.20772 12.5032 7.35079 12.5625 7.49997 12.5625C7.64916 12.5625 7.79223 12.5032 7.89772 12.3978C8.00321 12.2923 8.06247 12.1492 8.06247 12C8.06295 10.7494 8.40149 9.52209 9.04228 8.44807C9.68307 7.37405 10.6023 6.49323 11.7026 5.89881C12.803 5.30438 14.0436 5.01847 15.2931 5.07131C16.5426 5.12416 17.7547 5.5138 18.8009 6.199C19.8471 6.88421 20.6887 7.8395 21.2365 8.96378C21.7843 10.0881 22.018 11.3395 21.9129 12.5858C21.8078 13.832 21.3677 15.0266 20.6393 16.0432C19.9109 17.0599 18.9212 17.8607 17.775 18.3609C17.6382 18.4206 17.5308 18.5322 17.4763 18.6711C17.4218 18.81 17.4247 18.9648 17.4843 19.1016C17.544 19.2383 17.6556 19.3458 17.7945 19.4003C17.9334 19.4548 18.0882 19.4519 18.225 19.3922C19.9243 18.6523 21.3168 17.3495 22.1681 15.7031C23.0194 14.0568 23.2775 12.1674 22.8989 10.353C22.5202 8.53869 21.5281 6.91019 20.0894 5.74169C18.6507 4.57318 16.8534 3.93603 15 3.9375Z" fill="black"/>
</svg>
