<svg width="24" height="24" viewBox="0 0 24 24" fill="none" xmlns="http://www.w3.org/2000/svg">
<path d="M17.2505 8.43752C17.0886 8.43752 16.9273 8.44502 16.7667 8.46002C17.04 7.69596 17.1257 6.87738 17.0164 6.07329C16.9071 5.26921 16.6062 4.50316 16.1389 3.83973C15.6716 3.1763 15.0517 2.63492 14.3314 2.26122C13.6111 1.88751 12.8115 1.69244 12 1.69244C11.1885 1.69244 10.3889 1.88751 9.66862 2.26122C8.94831 2.63492 8.32839 3.1763 7.86111 3.83973C7.39382 4.50316 7.09286 5.26921 6.9836 6.07329C6.87434 6.87738 6.95997 7.69596 7.23328 8.46002C7.07391 8.44502 6.91266 8.43752 6.75047 8.43752C5.97026 8.4379 5.2007 8.61861 4.50187 8.96553C3.80304 9.31245 3.19385 9.8162 2.72186 10.4374C2.24987 11.0587 1.92786 11.7806 1.78097 12.5469C1.63407 13.3131 1.66627 14.103 1.87505 14.8547C2.08383 15.6065 2.46354 16.2998 2.98453 16.8806C3.50552 17.4613 4.15369 17.9138 4.87845 18.2027C5.6032 18.4916 6.38491 18.6091 7.16256 18.5459C7.94021 18.4828 8.69274 18.2408 9.36141 17.8388L8.46141 20.8388C8.43627 20.9228 8.43112 21.0115 8.44636 21.0978C8.4616 21.1841 8.49681 21.2657 8.54918 21.336C8.60155 21.4063 8.66963 21.4634 8.74798 21.5028C8.82634 21.5421 8.9128 21.5626 9.00047 21.5625H15.0005C15.0881 21.5626 15.1746 21.5421 15.253 21.5028C15.3313 21.4634 15.3994 21.4063 15.4518 21.336C15.5041 21.2657 15.5393 21.1841 15.5546 21.0978C15.5698 21.0115 15.5647 20.9228 15.5395 20.8388L14.6395 17.8388C15.3082 18.2408 16.0607 18.4828 16.8384 18.5459C17.616 18.6091 18.3977 18.4916 19.1225 18.2027C19.8472 17.9138 20.4954 17.4613 21.0164 16.8806C21.5374 16.2998 21.9171 15.6065 22.1259 14.8547C22.3347 14.103 22.3669 13.3131 22.22 12.5469C22.0731 11.7806 21.7511 11.0587 21.2791 10.4374C20.8071 9.8162 20.1979 9.31245 19.4991 8.96553C18.8002 8.61861 18.0307 8.4379 17.2505 8.43752ZM17.2505 17.4375C16.5989 17.4382 15.9574 17.2769 15.3836 16.9681C14.8098 16.6593 14.3219 16.2127 13.9636 15.6685C13.8892 15.5563 13.7771 15.4744 13.6476 15.4378C13.5181 15.4012 13.3797 15.4123 13.2576 15.469C13.1356 15.5258 13.0379 15.6244 12.9823 15.747C12.9268 15.8696 12.917 16.008 12.9548 16.1372L14.2448 20.4375H9.75609L11.0461 16.14C11.0839 16.0108 11.0742 15.8724 11.0186 15.7498C10.963 15.6272 10.8654 15.5286 10.7433 15.4718C10.6212 15.4151 10.4829 15.4041 10.3533 15.4406C10.2238 15.4772 10.1117 15.5591 10.0373 15.6713C9.63042 16.2876 9.05836 16.777 8.38651 17.0837C7.71466 17.3904 6.97011 17.5019 6.23788 17.4056C5.50565 17.3093 4.81528 17.009 4.24561 16.539C3.67594 16.0689 3.24993 15.4482 3.01625 14.7476C2.78257 14.047 2.75064 13.2948 2.9241 12.577C3.09756 11.8591 3.46941 11.2045 3.9972 10.6879C4.52499 10.1713 5.18742 9.81351 5.90885 9.65546C6.63027 9.49742 7.38161 9.54546 8.07703 9.79409C8.1886 9.83405 8.30993 9.83775 8.42373 9.80467C8.53753 9.77159 8.63797 9.70342 8.71072 9.60987C8.78348 9.51633 8.82483 9.4022 8.82888 9.28376C8.83293 9.16532 8.79948 9.04863 8.73328 8.95034C8.33508 8.35779 8.10548 7.66812 8.06904 6.95513C8.0326 6.24215 8.19069 5.53267 8.52639 4.9026C8.8621 4.27254 9.36279 3.7456 9.9749 3.37817C10.587 3.01074 11.2875 2.81664 12.0014 2.81664C12.7153 2.81664 13.4158 3.01074 14.0279 3.37817C14.64 3.7456 15.1407 4.27254 15.4764 4.9026C15.8121 5.53267 15.9702 6.24215 15.9338 6.95513C15.8973 7.66812 15.6677 8.35779 15.2695 8.95034C15.2033 9.04863 15.1699 9.16532 15.1739 9.28376C15.178 9.4022 15.2193 9.51633 15.2921 9.60987C15.3648 9.70342 15.4653 9.77159 15.5791 9.80467C15.6929 9.83775 15.8142 9.83405 15.9258 9.79409C16.4665 9.59999 17.0431 9.52655 17.6152 9.57893C18.1873 9.63131 18.7409 9.80824 19.2374 10.0973C19.7339 10.3864 20.161 10.7806 20.489 11.2522C20.817 11.7239 21.0377 12.2616 21.1358 12.8276C21.2339 13.3937 21.207 13.9743 21.0569 14.5288C20.9068 15.0834 20.6371 15.5983 20.2669 16.0376C19.8967 16.4769 19.4348 16.8298 18.9137 17.0716C18.3926 17.3135 17.8249 17.4384 17.2505 17.4375Z" fill="black"/>
</svg>
