<svg width="24" height="24" viewBox="0 0 24 24" fill="none" xmlns="http://www.w3.org/2000/svg">
<path d="M22.5348 16.2L12.9376 9L15.3367 7.2C15.4067 7.1477 15.4636 7.07981 15.5028 7.00169C15.542 6.92358 15.5625 6.8374 15.5626 6.75C15.5626 5.80517 15.1873 4.89903 14.5192 4.23093C13.8511 3.56283 12.945 3.1875 12.0001 3.1875C11.0553 3.1875 10.1492 3.56283 9.48105 4.23093C8.81295 4.89903 8.43762 5.80517 8.43762 6.75C8.43762 6.89918 8.49688 7.04226 8.60237 7.14775C8.70786 7.25324 8.85094 7.3125 9.00012 7.3125C9.1493 7.3125 9.29238 7.25324 9.39787 7.14775C9.50336 7.04226 9.56262 6.89918 9.56262 6.75C9.56666 6.12971 9.80704 5.53429 10.2348 5.08506C10.6625 4.63582 11.2455 4.36656 11.8648 4.33214C12.4842 4.29772 13.0933 4.50072 13.5682 4.89979C14.0431 5.29886 14.348 5.86398 14.4207 6.48L11.672 8.5425L11.6523 8.5575L1.46543 16.2C1.24525 16.3651 1.08255 16.5953 1.00034 16.858C0.918135 17.1207 0.920583 17.4025 1.00734 17.6637C1.09409 17.9249 1.26077 18.1522 1.48379 18.3135C1.70681 18.4748 1.97489 18.5619 2.25012 18.5625H21.7501C22.0255 18.5623 22.2939 18.4755 22.5172 18.3143C22.7405 18.1532 22.9075 17.9259 22.9945 17.6646C23.0815 17.4033 23.0841 17.1213 23.0019 16.8584C22.9198 16.5956 22.757 16.3652 22.5367 16.2H22.5348ZM21.9254 17.3091C21.9152 17.3472 21.8923 17.3808 21.8604 17.4041C21.8285 17.4275 21.7896 17.4393 21.7501 17.4375H2.25012C2.21085 17.4373 2.17263 17.4248 2.14085 17.4017C2.10908 17.3786 2.08536 17.3461 2.07303 17.3088C2.0607 17.2716 2.0604 17.2313 2.07215 17.1939C2.08391 17.1564 2.10714 17.1236 2.13856 17.1L12.0001 9.70312L21.8598 17.1C21.8931 17.122 21.9179 17.1548 21.9298 17.1929C21.9418 17.2309 21.9402 17.272 21.9254 17.3091Z" fill="black"/>
</svg>
