<svg width="24" height="24" viewBox="0 0 24 24" fill="none" xmlns="http://www.w3.org/2000/svg">
<path d="M5.60298 9.39749L2.60298 6.39749C2.49764 6.29202 2.43848 6.14906 2.43848 5.99999C2.43848 5.85093 2.49764 5.70796 2.60298 5.60249L5.60298 2.60249C5.65448 2.54723 5.71658 2.5029 5.78558 2.47216C5.85458 2.44141 5.92906 2.42488 6.00459 2.42355C6.08012 2.42222 6.15514 2.43611 6.22518 2.4644C6.29522 2.49269 6.35885 2.5348 6.41226 2.58821C6.46567 2.64163 6.50778 2.70525 6.53607 2.7753C6.56436 2.84534 6.57826 2.92036 6.57693 2.99589C6.57559 3.07141 6.55906 3.1459 6.52832 3.2149C6.49757 3.2839 6.45325 3.346 6.39798 3.39749L3.79642 5.99999L6.39798 8.60249C6.45325 8.65399 6.49757 8.71609 6.52832 8.78509C6.55906 8.85409 6.57559 8.92857 6.57693 9.0041C6.57826 9.07963 6.56436 9.15465 6.53607 9.22469C6.50778 9.29473 6.46567 9.35836 6.41226 9.41177C6.35885 9.46519 6.29522 9.50729 6.22518 9.53559C6.15514 9.56388 6.08012 9.57777 6.00459 9.57644C5.92906 9.5751 5.85458 9.55857 5.78558 9.52783C5.71658 9.49709 5.65448 9.45276 5.60298 9.39749ZM9.35298 9.39749C9.45845 9.50283 9.60142 9.562 9.75048 9.562C9.89954 9.562 10.0425 9.50283 10.148 9.39749L13.148 6.39749C13.2533 6.29202 13.3125 6.14906 13.3125 5.99999C13.3125 5.85093 13.2533 5.70796 13.148 5.60249L10.148 2.60249C10.0965 2.54723 10.0344 2.5029 9.96538 2.47216C9.89639 2.44141 9.8219 2.42488 9.74637 2.42355C9.67085 2.42222 9.59582 2.43611 9.52578 2.4644C9.45574 2.49269 9.39212 2.5348 9.3387 2.58821C9.28529 2.64163 9.24318 2.70525 9.21489 2.7753C9.1866 2.84534 9.1727 2.92036 9.17404 2.99589C9.17537 3.07141 9.1919 3.1459 9.22265 3.2149C9.25339 3.2839 9.29772 3.346 9.35298 3.39749L11.9545 5.99999L9.35298 8.60249C9.24764 8.70796 9.18848 8.85093 9.18848 8.99999C9.18848 9.14906 9.24764 9.29202 9.35298 9.39749ZM18.7505 3.93749H16.5005C16.3513 3.93749 16.2082 3.99676 16.1027 4.10225C15.9972 4.20773 15.938 4.35081 15.938 4.49999C15.938 4.64918 15.9972 4.79225 16.1027 4.89774C16.2082 5.00323 16.3513 5.06249 16.5005 5.06249H18.7505C18.8002 5.06249 18.8479 5.08225 18.8831 5.11741C18.9182 5.15257 18.938 5.20027 18.938 5.24999V18.75C18.938 18.7997 18.9182 18.8474 18.8831 18.8826C18.8479 18.9177 18.8002 18.9375 18.7505 18.9375H5.25048C5.20075 18.9375 5.15306 18.9177 5.1179 18.8826C5.08274 18.8474 5.06298 18.7997 5.06298 18.75V12.75C5.06298 12.6008 5.00372 12.4577 4.89823 12.3522C4.79274 12.2468 4.64967 12.1875 4.50048 12.1875C4.3513 12.1875 4.20822 12.2468 4.10273 12.3522C3.99724 12.4577 3.93798 12.6008 3.93798 12.75V18.75C3.93798 19.0981 4.07626 19.4319 4.3224 19.6781C4.56855 19.9242 4.90238 20.0625 5.25048 20.0625H18.7505C19.0986 20.0625 19.4324 19.9242 19.6786 19.6781C19.9247 19.4319 20.063 19.0981 20.063 18.75V5.24999C20.063 4.9019 19.9247 4.56806 19.6786 4.32192C19.4324 4.07577 19.0986 3.93749 18.7505 3.93749Z" fill="black"/>
</svg>
