<svg width="24" height="24" viewBox="0 0 24 24" fill="none" xmlns="http://www.w3.org/2000/svg">
<path d="M8.62501 6.42096L2.34376 12L8.62501 17.58C8.68041 17.6293 8.72557 17.6889 8.75791 17.7556C8.79025 17.8223 8.80913 17.8948 8.81349 17.9687C8.81784 18.0427 8.80758 18.1169 8.78328 18.1869C8.75898 18.2569 8.72113 18.3215 8.67189 18.3769C8.62264 18.4323 8.56296 18.4775 8.49627 18.5098C8.42957 18.5421 8.35715 18.561 8.28316 18.5654C8.20916 18.5697 8.13503 18.5595 8.065 18.5352C7.99497 18.5109 7.93041 18.473 7.87501 18.4238L1.12501 12.4238C1.06516 12.371 1.01722 12.3061 0.984387 12.2333C0.951552 12.1606 0.93457 12.0817 0.93457 12.0019C0.93457 11.9221 0.951552 11.8432 0.984387 11.7705C1.01722 11.6977 1.06516 11.6328 1.12501 11.58L7.87501 5.58002C7.9869 5.48056 8.13371 5.42963 8.28316 5.43842C8.4326 5.44721 8.57243 5.51501 8.67189 5.62689C8.77134 5.73878 8.82228 5.8856 8.81349 6.03504C8.8047 6.18448 8.7369 6.32431 8.62501 6.42377V6.42096ZM22.875 11.5772L16.125 5.57721C16.0131 5.47775 15.8663 5.42682 15.7169 5.43561C15.5674 5.4444 15.4276 5.51219 15.3281 5.62408C15.2287 5.73597 15.1777 5.88278 15.1865 6.03223C15.1953 6.18167 15.2631 6.3215 15.375 6.42096L21.6563 12L15.375 17.58C15.3196 17.6293 15.2745 17.6889 15.2421 17.7556C15.2098 17.8223 15.1909 17.8948 15.1865 17.9687C15.1822 18.0427 15.1924 18.1169 15.2167 18.1869C15.241 18.2569 15.2789 18.3215 15.3281 18.3769C15.3774 18.4323 15.4371 18.4775 15.5038 18.5098C15.5705 18.5421 15.6429 18.561 15.7169 18.5654C15.8663 18.5742 16.0131 18.5232 16.125 18.4238L22.875 12.4238C22.9349 12.371 22.9828 12.3061 23.0156 12.2333C23.0485 12.1606 23.0655 12.0817 23.0655 12.0019C23.0655 11.9221 23.0485 11.8432 23.0156 11.7705C22.9828 11.6977 22.9349 11.6328 22.875 11.58V11.5772Z" fill="black"/>
</svg>
