<svg width="24" height="24" viewBox="0 0 24 24" fill="none" xmlns="http://www.w3.org/2000/svg">
<path d="M19.7193 4.2806C18.1874 2.75154 15.9374 2.14404 13.3865 2.5706C10.9011 2.98404 8.41021 4.33497 6.3749 6.37497C4.33959 8.41497 2.98677 10.9031 2.5724 13.3884C2.14396 15.9375 2.75146 18.1875 4.28052 19.7193C5.49084 20.9297 7.15209 21.5625 9.0599 21.5625C9.58045 21.5609 10.1 21.5167 10.6133 21.4303C13.0986 21.0159 15.5896 19.665 17.6277 17.6278C19.6658 15.5906 21.0158 13.0987 21.4302 10.6134C21.8558 8.06247 21.2483 5.81247 19.7193 4.2806ZM7.16802 7.1681C9.5174 4.81872 12.418 3.56247 14.923 3.56247C16.1024 3.56247 17.1936 3.84372 18.0983 4.41747C16.92 4.77731 15.8173 5.34918 14.8443 6.10497C13.0799 7.4981 11.938 9.44435 11.4486 11.8903C10.4999 16.6265 7.04802 18.1875 4.8749 18.7031C2.46552 15.9768 3.45271 10.8834 7.16802 7.1681ZM16.8318 16.8318C13.3761 20.2875 8.72802 21.3843 5.90615 19.5853C7.08447 19.2255 8.18723 18.6536 9.16021 17.8978C10.9246 16.5047 12.0665 14.5584 12.5558 12.1125C13.4999 7.37341 16.9518 5.81247 19.1296 5.29685C21.5343 8.02403 20.5471 13.1165 16.8318 16.8318Z" fill="black"/>
</svg>
