<svg width="24" height="24" viewBox="0 0 24 24" fill="none" xmlns="http://www.w3.org/2000/svg">
<g clip-path="url(#clip0_4002_18996)">
<path d="M23.387 11.4544L20.7301 10.7897C20.4686 8.88745 19.592 7.12295 18.2342 5.76529C16.8764 4.40763 15.1118 3.53132 13.2095 3.27001L12.5458 0.613131C12.5153 0.491504 12.445 0.383548 12.3462 0.306411C12.2473 0.229274 12.1255 0.187378 12.0001 0.187378C11.8747 0.187378 11.7529 0.229274 11.6541 0.306411C11.5552 0.383548 11.485 0.491504 11.4545 0.613131L10.7908 3.27001C8.88848 3.53132 7.12387 4.40763 5.76604 5.76529C4.40821 7.12295 3.53168 8.88745 3.27013 10.7897L0.613253 11.4544C0.491626 11.4849 0.38367 11.5551 0.306533 11.654C0.229396 11.7528 0.1875 11.8746 0.1875 12C0.1875 12.1254 0.229396 12.2472 0.306533 12.346C0.38367 12.4449 0.491626 12.5151 0.613253 12.5456L3.27013 13.2103C3.53168 15.1126 4.40821 16.8771 5.76604 18.2347C7.12387 19.5924 8.88848 20.4687 10.7908 20.73L11.4545 23.3869C11.485 23.5085 11.5552 23.6165 11.6541 23.6936C11.7529 23.7707 11.8747 23.8126 12.0001 23.8126C12.1255 23.8126 12.2473 23.7707 12.3462 23.6936C12.445 23.6165 12.5153 23.5085 12.5458 23.3869L13.2095 20.73C15.1118 20.4687 16.8764 19.5924 18.2342 18.2347C19.592 16.8771 20.4686 15.1126 20.7301 13.2103L23.387 12.5456C23.5086 12.5151 23.6166 12.4449 23.6937 12.346C23.7709 12.2472 23.8128 12.1254 23.8128 12C23.8128 11.8746 23.7709 11.7528 23.6937 11.654C23.6166 11.5551 23.5086 11.4849 23.387 11.4544ZM19.5386 10.4925L14.7189 9.28594L13.5076 4.46157C14.9966 4.75767 16.3644 5.48871 17.4379 6.56222C18.5114 7.63573 19.2425 9.00349 19.5386 10.4925ZM13.6323 9.57751L12.0001 11.2041L10.3726 9.57751L12.0001 3.06938L13.6323 9.57751ZM10.4926 4.46157L9.28607 9.28594L4.46169 10.4925C4.75779 9.00349 5.48883 7.63573 6.56234 6.56222C7.63585 5.48871 9.00361 4.75767 10.4926 4.46157ZM9.57763 10.3734L11.2051 12L9.57763 13.6266L3.0695 12L9.57763 10.3734ZM4.46169 13.5075L9.28607 14.7188L10.4926 19.5431C9.00298 19.2467 7.63477 18.515 6.5612 17.4406C5.48763 16.3662 4.75696 14.9974 4.46169 13.5075ZM10.3726 14.4225L12.0001 12.7959L13.6276 14.4225L12.0001 20.9306L10.3726 14.4225ZM13.5076 19.5384L14.7189 14.7188L19.5433 13.5122C19.246 15.001 18.5139 16.3682 17.4396 17.4409C16.3652 18.5135 14.9969 19.2435 13.5076 19.5384ZM14.4226 13.6266L12.7951 12L14.4226 10.3734L20.9308 12L14.4226 13.6266Z" fill="black"/>
</g>
<defs>
<clipPath id="clip0_4002_18996">
<rect width="24" height="24" fill="white"/>
</clipPath>
</defs>
</svg>
