<svg width="24" height="24" viewBox="0 0 24 24" fill="none" xmlns="http://www.w3.org/2000/svg">
<path d="M10.3198 5.0625C10.1659 4.90861 9.97572 4.79603 9.76677 4.73518C9.55782 4.67433 9.33689 4.66717 9.12443 4.71437C8.91198 4.76157 8.71487 4.86161 8.55134 5.00522C8.38781 5.14882 8.26315 5.33136 8.1889 5.53594L3.26703 19.0753C3.19631 19.2704 3.17347 19.4796 3.20045 19.6853C3.22742 19.891 3.30341 20.0873 3.42202 20.2575C3.54063 20.4278 3.6984 20.5671 3.88205 20.6636C4.06569 20.7602 4.26985 20.8113 4.47734 20.8125C4.6299 20.8121 4.78123 20.7852 4.92453 20.7328L18.4602 15.8109C18.6644 15.7362 18.8464 15.6111 18.9895 15.4474C19.1326 15.2836 19.2321 15.0864 19.2789 14.874C19.3256 14.6616 19.318 14.4409 19.2568 14.2322C19.1957 14.0235 19.0829 13.8336 18.9289 13.68L10.3198 5.0625ZM4.54015 19.6753C4.51005 19.6865 4.47738 19.6887 4.44603 19.6819C4.41467 19.675 4.38594 19.6593 4.36325 19.6366C4.34055 19.6139 4.32484 19.5852 4.31798 19.5538C4.31111 19.5225 4.31339 19.4898 4.32453 19.4597L5.74765 15.5438L8.45609 18.2512L4.54015 19.6753ZM9.62234 17.8275L6.17234 14.3766L7.54765 10.5938L13.4061 16.4522L9.62234 17.8275ZM18.1873 14.6316C18.1817 14.6594 18.1689 14.6853 18.1501 14.7067C18.1314 14.7281 18.1074 14.7442 18.0805 14.7534L14.5723 16.0312L7.96859 9.42656L9.2464 5.92406C9.25547 5.89707 9.27153 5.87297 9.29293 5.8542C9.31434 5.83543 9.34034 5.82266 9.36828 5.81719C9.38104 5.81552 9.39396 5.81552 9.40671 5.81719C9.4286 5.81708 9.45027 5.82144 9.47042 5.82998C9.49057 5.83852 9.50876 5.85107 9.5239 5.86688L18.1377 14.4806C18.1582 14.4994 18.1735 14.5232 18.1822 14.5496C18.1909 14.576 18.1927 14.6043 18.1873 14.6316ZM15.1873 6.75C15.2007 6.27214 15.3167 5.80275 15.5277 5.37375C15.9908 4.4475 16.8683 3.9375 17.9998 3.9375C18.7002 3.9375 19.1745 3.68062 19.4511 3.15188C19.5915 2.87087 19.6719 2.56375 19.6873 2.25C19.6873 2.10082 19.7466 1.95774 19.8521 1.85225C19.9576 1.74676 20.1007 1.6875 20.2498 1.6875C20.399 1.6875 20.5421 1.74676 20.6476 1.85225C20.7531 1.95774 20.8123 2.10082 20.8123 2.25C20.8123 3.22312 20.2245 5.0625 17.9998 5.0625C17.2995 5.0625 16.8252 5.31938 16.5486 5.84812C16.4077 6.12896 16.3273 6.43618 16.3123 6.75C16.3123 6.89918 16.2531 7.04226 16.1476 7.14775C16.0421 7.25324 15.899 7.3125 15.7498 7.3125C15.6007 7.3125 15.4576 7.25324 15.3521 7.14775C15.2466 7.04226 15.1873 6.89918 15.1873 6.75ZM12.9373 3.75V1.5C12.9373 1.35082 12.9966 1.20774 13.1021 1.10225C13.2076 0.996763 13.3507 0.9375 13.4998 0.9375C13.649 0.9375 13.7921 0.996763 13.8976 1.10225C14.0031 1.20774 14.0623 1.35082 14.0623 1.5V3.75C14.0623 3.89918 14.0031 4.04226 13.8976 4.14775C13.7921 4.25324 13.649 4.3125 13.4998 4.3125C13.3507 4.3125 13.2076 4.25324 13.1021 4.14775C12.9966 4.04226 12.9373 3.89918 12.9373 3.75ZM22.1473 11.6025C22.2026 11.654 22.2469 11.7161 22.2777 11.7851C22.3084 11.8541 22.325 11.9286 22.3263 12.0041C22.3276 12.0796 22.3137 12.1547 22.2854 12.2247C22.2571 12.2947 22.215 12.3584 22.1616 12.4118C22.1082 12.4652 22.0446 12.5073 21.9745 12.5356C21.9045 12.5639 21.8295 12.5778 21.7539 12.5764C21.6784 12.5751 21.6039 12.5586 21.5349 12.5278C21.4659 12.4971 21.4038 12.4528 21.3523 12.3975L19.8523 10.8975C19.753 10.7909 19.6989 10.6498 19.7015 10.5041C19.704 10.3584 19.7631 10.2193 19.8661 10.1163C19.9692 10.0132 20.1082 9.95419 20.2539 9.95162C20.3997 9.94905 20.5407 10.0031 20.6473 10.1025L22.1473 11.6025ZM22.678 7.28344L20.428 8.03344C20.3575 8.05852 20.2827 8.06929 20.208 8.06513C20.1334 8.06097 20.0603 8.04195 19.993 8.00919C19.9258 7.97644 19.8657 7.9306 19.8164 7.87436C19.7671 7.81812 19.7295 7.75261 19.7058 7.68166C19.6821 7.61071 19.6728 7.53575 19.6785 7.46117C19.6841 7.38658 19.7045 7.31386 19.7386 7.24728C19.7727 7.18069 19.8197 7.12156 19.8769 7.07336C19.9341 7.02516 20.0003 6.98885 20.0717 6.96656L22.3217 6.21656C22.4623 6.17267 22.6145 6.18566 22.7456 6.25275C22.8767 6.31983 22.9763 6.43565 23.0229 6.57534C23.0695 6.71503 23.0595 6.86744 22.995 6.99984C22.9306 7.13223 22.8167 7.23406 22.678 7.28344Z" fill="black"/>
</svg>
