<svg width="24" height="24" viewBox="0 0 24 24" fill="none" xmlns="http://www.w3.org/2000/svg">
<path d="M19.1471 11.6475C19.0417 11.7528 18.8987 11.812 18.7496 11.812C18.6006 11.812 18.4576 11.7528 18.3521 11.6475L11.9996 5.29593L5.64714 11.6475C5.54051 11.7469 5.39947 11.8009 5.25375 11.7984C5.10802 11.7958 4.96898 11.7368 4.86592 11.6337C4.76286 11.5306 4.70383 11.3916 4.70126 11.2459C4.69869 11.1002 4.75278 10.9591 4.85214 10.8525L11.6021 4.10249C11.7076 3.99716 11.8506 3.93799 11.9996 3.93799C12.1487 3.93799 12.2917 3.99716 12.3971 4.10249L19.1471 10.8525C19.2525 10.958 19.3116 11.1009 19.3116 11.25C19.3116 11.3991 19.2525 11.542 19.1471 11.6475Z" fill="black"/>
</svg>
