<svg width="24" height="24" viewBox="0 0 24 24" fill="none" xmlns="http://www.w3.org/2000/svg">
<path d="M20.0625 4.5V8.25C20.0625 8.39918 20.0032 8.54226 19.8977 8.64775C19.7923 8.75324 19.6492 8.8125 19.5 8.8125C19.3508 8.8125 19.2077 8.75324 19.1023 8.64775C18.9968 8.54226 18.9375 8.39918 18.9375 8.25V5.0625H15.75C15.6008 5.0625 15.4577 5.00324 15.3523 4.89775C15.2468 4.79226 15.1875 4.64918 15.1875 4.5C15.1875 4.35082 15.2468 4.20774 15.3523 4.10225C15.4577 3.99676 15.6008 3.9375 15.75 3.9375H19.5C19.6492 3.9375 19.7923 3.99676 19.8977 4.10225C20.0032 4.20774 20.0625 4.35082 20.0625 4.5ZM8.25 18.9375H5.0625V15.75C5.0625 15.6008 5.00324 15.4577 4.89775 15.3523C4.79226 15.2468 4.64918 15.1875 4.5 15.1875C4.35082 15.1875 4.20774 15.2468 4.10225 15.3523C3.99676 15.4577 3.9375 15.6008 3.9375 15.75V19.5C3.9375 19.6492 3.99676 19.7923 4.10225 19.8977C4.20774 20.0032 4.35082 20.0625 4.5 20.0625H8.25C8.39918 20.0625 8.54226 20.0032 8.64775 19.8977C8.75324 19.7923 8.8125 19.6492 8.8125 19.5C8.8125 19.3508 8.75324 19.2077 8.64775 19.1023C8.54226 18.9968 8.39918 18.9375 8.25 18.9375ZM19.5 15.1875C19.3508 15.1875 19.2077 15.2468 19.1023 15.3523C18.9968 15.4577 18.9375 15.6008 18.9375 15.75V18.9375H15.75C15.6008 18.9375 15.4577 18.9968 15.3523 19.1023C15.2468 19.2077 15.1875 19.3508 15.1875 19.5C15.1875 19.6492 15.2468 19.7923 15.3523 19.8977C15.4577 20.0032 15.6008 20.0625 15.75 20.0625H19.5C19.6492 20.0625 19.7923 20.0032 19.8977 19.8977C20.0032 19.7923 20.0625 19.6492 20.0625 19.5V15.75C20.0625 15.6008 20.0032 15.4577 19.8977 15.3523C19.7923 15.2468 19.6492 15.1875 19.5 15.1875ZM8.25 3.9375H4.5C4.35082 3.9375 4.20774 3.99676 4.10225 4.10225C3.99676 4.20774 3.9375 4.35082 3.9375 4.5V8.25C3.9375 8.39918 3.99676 8.54226 4.10225 8.64775C4.20774 8.75324 4.35082 8.8125 4.5 8.8125C4.64918 8.8125 4.79226 8.75324 4.89775 8.64775C5.00324 8.54226 5.0625 8.39918 5.0625 8.25V5.0625H8.25C8.39918 5.0625 8.54226 5.00324 8.64775 4.89775C8.75324 4.79226 8.8125 4.64918 8.8125 4.5C8.8125 4.35082 8.75324 4.20774 8.64775 4.10225C8.54226 3.99676 8.39918 3.9375 8.25 3.9375Z" fill="black"/>
</svg>
