<svg width="24" height="24" viewBox="0 0 24 24" fill="none" xmlns="http://www.w3.org/2000/svg">
<path d="M20.25 11.4375C20.1546 11.4375 20.0607 11.4617 19.9772 11.508C19.8937 11.5542 19.8234 11.621 19.7728 11.7019C19.3085 12.4502 18.7853 13.1602 18.2081 13.8253L16.5328 5.01284C16.491 4.79025 16.3923 4.58227 16.2462 4.40913C16.1002 4.23599 15.9119 4.10358 15.6996 4.02478C15.4872 3.94598 15.2581 3.92346 15.0345 3.95943C14.8109 3.9954 14.6004 4.08862 14.4234 4.23003L14.4141 4.23753L12.1144 6.14909C12.0816 6.17433 12.0414 6.18801 12 6.18801C11.9586 6.18801 11.9184 6.17433 11.8856 6.14909L9.58594 4.23378L9.57656 4.22628C9.3997 4.08487 9.18927 3.99163 8.96572 3.95561C8.74217 3.9196 8.5131 3.94203 8.30078 4.02073C8.08846 4.09943 7.90011 4.23172 7.75404 4.40474C7.60797 4.57777 7.50915 4.78564 7.46719 5.00815L5.79094 13.8272C5.21451 13.1611 4.69163 12.4504 4.22719 11.7019C4.17661 11.621 4.10627 11.5542 4.02279 11.508C3.93931 11.4617 3.84543 11.4375 3.75 11.4375C2.80517 11.4375 1.89903 11.8129 1.23093 12.481C0.562834 13.1491 0.1875 14.0552 0.1875 15C0.1875 15.9449 0.562834 16.851 1.23093 17.5191C1.89903 18.1872 2.80517 18.5625 3.75 18.5625H20.25C21.1948 18.5625 22.101 18.1872 22.7691 17.5191C23.4372 16.851 23.8125 15.9449 23.8125 15C23.8125 14.0552 23.4372 13.1491 22.7691 12.481C22.101 11.8129 21.1948 11.4375 20.25 11.4375ZM8.5725 5.21721C8.57841 5.18575 8.59227 5.15633 8.61277 5.13174C8.63328 5.10715 8.65973 5.08823 8.68962 5.07676C8.71951 5.06529 8.75183 5.06167 8.78352 5.06623C8.8152 5.0708 8.84519 5.0834 8.87063 5.10284L11.1713 7.01815L11.1797 7.02565C11.412 7.21316 11.7015 7.31544 12 7.31544C12.2985 7.31544 12.588 7.21316 12.8203 7.02565L12.8287 7.01815L15.1294 5.10284C15.1549 5.08339 15.1849 5.07081 15.2167 5.0663C15.2484 5.06179 15.2808 5.06549 15.3107 5.07706C15.3406 5.08863 15.3671 5.10767 15.3875 5.13237C15.408 5.15708 15.4217 5.18661 15.4275 5.21815L16.7522 12.1875H7.24781L8.5725 5.21721ZM3.75 17.4375C3.12878 17.4383 2.53069 17.2019 2.07794 16.7765C1.62518 16.3511 1.35193 15.769 1.31399 15.1489C1.27605 14.5288 1.47629 13.9177 1.87381 13.4403C2.27133 12.9629 2.83613 12.6553 3.45281 12.5803C5.10938 15.135 6.89344 16.5985 8.40188 17.4375H3.75ZM12 17.4375C11.9681 17.4375 9.49594 17.3991 6.75 14.821L7.03125 13.3125H16.9688L17.25 14.8172C16.4491 15.5827 15.5357 16.221 14.5416 16.71C13.0669 17.4197 12.0075 17.4375 12 17.4375ZM20.25 17.4375H15.5981C17.1066 16.5985 18.8906 15.135 20.5472 12.5803C21.1639 12.6553 21.7287 12.9629 22.1262 13.4403C22.5237 13.9177 22.724 14.5288 22.686 15.1489C22.6481 15.769 22.3748 16.3511 21.9221 16.7765C21.4693 17.2019 20.8712 17.4383 20.25 17.4375Z" fill="black"/>
</svg>
