<svg width="24" height="24" viewBox="0 0 24 24" fill="none" xmlns="http://www.w3.org/2000/svg">
<path d="M21.2897 1.76812C21.2064 1.71814 21.1116 1.69057 21.0145 1.68811C20.9174 1.68564 20.8213 1.70836 20.7356 1.75405L9.60938 7.68749H3C2.6519 7.68749 2.31806 7.82577 2.07192 8.07191C1.82578 8.31805 1.6875 8.65189 1.6875 8.99999V18.75C1.6875 19.0981 1.82578 19.4319 2.07192 19.6781C2.31806 19.9242 2.6519 20.0625 3 20.0625H11.25C11.5981 20.0625 11.9319 19.9242 12.1781 19.6781C12.4242 19.4319 12.5625 19.0981 12.5625 18.75V15.75C12.5622 15.6954 12.5543 15.6411 12.5391 15.5887L10.4213 8.53124L20.4375 3.18749V15C20.4375 15.0497 20.4177 15.0974 20.3826 15.1326C20.3474 15.1677 20.2997 15.1875 20.25 15.1875H18.75C18.7003 15.1875 18.6526 15.1677 18.6174 15.1326C18.5823 15.0974 18.5625 15.0497 18.5625 15V14.25C18.5625 14.1008 18.5032 13.9577 18.3977 13.8522C18.2923 13.7468 18.1492 13.6875 18 13.6875C17.8508 13.6875 17.7077 13.7468 17.6023 13.8522C17.4968 13.9577 17.4375 14.1008 17.4375 14.25V15C17.4375 15.3481 17.5758 15.6819 17.8219 15.9281C18.0681 16.1742 18.4019 16.3125 18.75 16.3125H20.25C20.5981 16.3125 20.9319 16.1742 21.1781 15.9281C21.4242 15.6819 21.5625 15.3481 21.5625 15V2.24999C21.5624 2.15296 21.5373 2.05759 21.4895 1.97316C21.4417 1.88872 21.3729 1.81809 21.2897 1.76812ZM9.33187 8.81249L11.2444 15.1875H5.8125V8.81249H9.33187ZM3 8.81249H4.6875V15.1875H2.8125V8.99999C2.8125 8.95026 2.83225 8.90257 2.86742 8.86741C2.90258 8.83225 2.95027 8.81249 3 8.81249ZM11.25 18.9375H3C2.95027 18.9375 2.90258 18.9177 2.86742 18.8826C2.83225 18.8474 2.8125 18.7997 2.8125 18.75V16.3125H11.4375V18.75C11.4375 18.7997 11.4177 18.8474 11.3826 18.8826C11.3474 18.9177 11.2997 18.9375 11.25 18.9375Z" fill="black"/>
</svg>
