<svg width="24" height="24" viewBox="0 0 24 24" fill="none" xmlns="http://www.w3.org/2000/svg">
<path d="M22.6785 7.76155L17.7388 2.82187C17.4927 2.57598 17.159 2.43787 16.8111 2.43787C16.4633 2.43787 16.1296 2.57598 15.8835 2.82187L5.82223 12.8831C5.57635 13.1292 5.43823 13.4629 5.43823 13.8108C5.43823 14.1587 5.57635 14.4923 5.82223 14.7384L7.89411 16.8103L3.35286 21.3525C3.29759 21.404 3.25327 21.4661 3.22252 21.5351C3.19178 21.6041 3.17525 21.6786 3.17392 21.7541C3.17258 21.8296 3.18648 21.9046 3.21477 21.9747C3.24306 22.0447 3.28517 22.1084 3.33858 22.1618C3.39199 22.2152 3.45562 22.2573 3.52566 22.2856C3.5957 22.3139 3.67072 22.3278 3.74625 22.3264C3.82178 22.3251 3.89626 22.3086 3.96526 22.2778C4.03426 22.2471 4.09636 22.2028 4.14786 22.1475L8.69005 17.6062L10.7619 19.6781C11.008 19.924 11.3417 20.0621 11.6896 20.0621C12.0375 20.0621 12.3711 19.924 12.6172 19.6781L22.6785 9.61687C22.9244 9.37076 23.0625 9.0371 23.0625 8.68921C23.0625 8.34132 22.9244 8.00766 22.6785 7.76155ZM11.8222 18.8831C11.8048 18.9006 11.7841 18.9144 11.7614 18.9238C11.7386 18.9333 11.7142 18.9381 11.6896 18.9381C11.6649 18.9381 11.6405 18.9333 11.6178 18.9238C11.595 18.9144 11.5743 18.9006 11.5569 18.8831L9.48505 16.8103L12.3979 13.8975C12.4972 13.7909 12.5513 13.6498 12.5487 13.5041C12.5462 13.3584 12.4871 13.2193 12.3841 13.1163C12.281 13.0132 12.142 12.9542 11.9963 12.9516C11.8505 12.949 11.7095 13.0031 11.6029 13.1025L8.69005 16.0153L6.61723 13.9434C6.5998 13.926 6.58597 13.9053 6.57654 13.8826C6.5671 13.8598 6.56224 13.8354 6.56224 13.8108C6.56224 13.7861 6.5671 13.7617 6.57654 13.739C6.58597 13.7162 6.5998 13.6955 6.61723 13.6781L9.98286 10.3125H15.1879V15.5175L11.8222 18.8831ZM21.8835 8.82187L16.3129 14.3925V9.74999C16.3129 9.60081 16.2536 9.45773 16.1481 9.35224C16.0426 9.24676 15.8995 9.18749 15.7504 9.18749H11.1079L16.6785 3.61687C16.6959 3.59943 16.7166 3.5856 16.7393 3.57617C16.7621 3.56673 16.7865 3.56188 16.8111 3.56188C16.8358 3.56188 16.8602 3.56673 16.8829 3.57617C16.9057 3.5856 16.9264 3.59943 16.9438 3.61687L21.8835 8.55655C21.9009 8.57397 21.9147 8.59465 21.9242 8.61741C21.9336 8.64017 21.9385 8.66457 21.9385 8.68921C21.9385 8.71385 21.9336 8.73825 21.9242 8.76101C21.9147 8.78377 21.9009 8.80445 21.8835 8.82187ZM5.62536 8.06249C6.10745 8.06249 6.57872 7.91954 6.97956 7.6517C7.38041 7.38386 7.69283 7.00318 7.87732 6.55778C8.0618 6.11239 8.11007 5.62229 8.01602 5.14946C7.92197 4.67663 7.68982 4.24231 7.34893 3.90142C7.00804 3.56053 6.57372 3.32838 6.10089 3.23433C5.62806 3.14028 5.13796 3.18855 4.69257 3.37304C4.24717 3.55752 3.86649 3.86995 3.59865 4.27079C3.33082 4.67163 3.18786 5.1429 3.18786 5.62499C3.18786 6.27146 3.44467 6.89144 3.90179 7.34856C4.35891 7.80568 4.97889 8.06249 5.62536 8.06249ZM5.62536 4.31249C5.88495 4.31249 6.13871 4.38947 6.35455 4.53369C6.57038 4.67791 6.73861 4.88289 6.83795 5.12272C6.93729 5.36255 6.96328 5.62645 6.91264 5.88105C6.862 6.13565 6.73699 6.36951 6.55344 6.55307C6.36988 6.73663 6.13602 6.86163 5.88142 6.91227C5.62682 6.96292 5.36292 6.93692 5.12309 6.83758C4.88326 6.73824 4.67827 6.57002 4.53406 6.35418C4.38984 6.13834 4.31286 5.88458 4.31286 5.62499C4.31286 5.2769 4.45114 4.94306 4.69728 4.69691C4.94342 4.45077 5.27726 4.31249 5.62536 4.31249Z" fill="black"/>
</svg>
