<svg width="24" height="24" viewBox="0 0 24 24" fill="none" xmlns="http://www.w3.org/2000/svg">
<path d="M23.0624 7.5C23.0627 7.11237 22.9706 6.73025 22.7937 6.38535C22.6168 6.04045 22.3602 5.74272 22.0452 5.51686C21.7301 5.291 21.3658 5.14352 20.9824 5.08668C20.5989 5.02984 20.2075 5.06526 19.8404 5.19001C19.4734 5.31476 19.1415 5.52524 18.8721 5.80398C18.6027 6.08272 18.4037 6.42169 18.2916 6.79274C18.1795 7.1638 18.1575 7.55625 18.2274 7.93752C18.2973 8.31878 18.4572 8.67788 18.6937 8.985L15.8971 12.4275L13.4596 6.825C13.8693 6.51832 14.1721 6.09046 14.3251 5.60206C14.478 5.11366 14.4734 4.58951 14.3118 4.1039C14.1501 3.6183 13.8398 3.19588 13.4247 2.89654C13.0096 2.59719 12.5108 2.4361 11.999 2.4361C11.4872 2.4361 10.9884 2.59719 10.5733 2.89654C10.1581 3.19588 9.84779 3.6183 9.68618 4.1039C9.52457 4.58951 9.51991 5.11366 9.67286 5.60206C9.82582 6.09046 10.1286 6.51832 10.5383 6.825L8.10084 12.4275L5.30615 8.985C5.63739 8.55433 5.81525 8.02533 5.81147 7.48202C5.80769 6.93871 5.6225 6.41223 5.2853 5.98621C4.9481 5.56018 4.47823 5.25903 3.95031 5.13057C3.42239 5.00212 2.86669 5.05373 2.37145 5.2772C1.87621 5.50068 1.46984 5.88321 1.21686 6.36405C0.963886 6.84488 0.878812 7.39646 0.97515 7.93117C1.07149 8.46589 1.34372 8.95308 1.7486 9.31539C2.15349 9.67771 2.66781 9.89435 3.2099 9.93094L4.59365 18.2156C4.64462 18.5216 4.80234 18.7997 5.03883 19.0005C5.27532 19.2013 5.57529 19.3118 5.88553 19.3125H18.1143C18.4245 19.3118 18.7245 19.2013 18.961 19.0005C19.1975 18.7997 19.3552 18.5216 19.4062 18.2156L20.7871 9.93094C21.4039 9.8898 21.9821 9.61584 22.4045 9.16451C22.8269 8.71317 23.0621 8.11819 23.0624 7.5ZM11.9999 3.5625C12.2595 3.5625 12.5133 3.63948 12.7291 3.7837C12.9449 3.92792 13.1132 4.1329 13.2125 4.37273C13.3118 4.61256 13.3378 4.87646 13.2872 5.13106C13.2365 5.38566 13.1115 5.61952 12.928 5.80308C12.7444 5.98663 12.5106 6.11164 12.256 6.16228C12.0014 6.21292 11.7375 6.18693 11.4976 6.08759C11.2578 5.98825 11.0528 5.82003 10.9086 5.60419C10.7644 5.38835 10.6874 5.13459 10.6874 4.875C10.6874 4.5269 10.8257 4.19306 11.0718 3.94692C11.318 3.70078 11.6518 3.5625 11.9999 3.5625ZM2.0624 7.5C2.0624 7.24041 2.13938 6.98665 2.2836 6.77081C2.42782 6.55498 2.6328 6.38675 2.87263 6.28741C3.11246 6.18807 3.37636 6.16208 3.63096 6.21272C3.88556 6.26336 4.11943 6.38837 4.30298 6.57192C4.48654 6.75548 4.61154 6.98934 4.66219 7.24394C4.71283 7.49854 4.68684 7.76244 4.5875 8.00227C4.48816 8.2421 4.31993 8.44708 4.10409 8.5913C3.88825 8.73552 3.63449 8.8125 3.3749 8.8125C3.02681 8.8125 2.69297 8.67422 2.44683 8.42808C2.20069 8.18194 2.0624 7.8481 2.0624 7.5ZM18.2999 18.0309C18.2925 18.0751 18.2695 18.1152 18.2351 18.1439C18.2008 18.1727 18.1572 18.1881 18.1124 18.1875H5.88553C5.84072 18.1881 5.79718 18.1727 5.76279 18.1439C5.72839 18.1152 5.70542 18.0751 5.69803 18.0309L4.3199 9.75L4.43428 9.69844L7.80928 13.8572C7.8627 13.9222 7.93001 13.9744 8.00627 14.0099C8.08253 14.0454 8.16578 14.0634 8.2499 14.0625C8.27532 14.0625 8.3007 14.0606 8.32584 14.0569C8.42154 14.0438 8.51226 14.0063 8.58927 13.948C8.66628 13.8898 8.72698 13.8126 8.76553 13.7241L11.5705 7.27406C11.8545 7.3253 12.1453 7.3253 12.4293 7.27406L15.2343 13.7241C15.2728 13.8126 15.3335 13.8898 15.4105 13.948C15.4876 14.0063 15.5783 14.0438 15.674 14.0569C15.6991 14.0606 15.7245 14.0625 15.7499 14.0625C15.8336 14.0625 15.9163 14.0438 15.9919 14.0078C16.0674 13.9718 16.134 13.9194 16.1868 13.8544L19.5618 9.69563L19.6762 9.74719L18.2999 18.0309ZM20.6249 8.8125C20.3653 8.8125 20.1116 8.73552 19.8957 8.5913C19.6799 8.44708 19.5117 8.2421 19.4123 8.00227C19.313 7.76244 19.287 7.49854 19.3376 7.24394C19.3883 6.98934 19.5133 6.75548 19.6968 6.57192C19.8804 6.38837 20.1142 6.26336 20.3688 6.21272C20.6234 6.16208 20.8874 6.18807 21.1272 6.28741C21.367 6.38675 21.572 6.55498 21.7162 6.77081C21.8604 6.98665 21.9374 7.24041 21.9374 7.5C21.9374 7.8481 21.7991 8.18194 21.553 8.42808C21.3068 8.67422 20.973 8.8125 20.6249 8.8125Z" fill="black"/>
</svg>
