<svg width="24" height="24" viewBox="0 0 24 24" fill="none" xmlns="http://www.w3.org/2000/svg">
<path d="M21.5627 7.06873C21.306 6.9436 21.0153 6.90647 20.7354 6.96307C20.4554 7.01966 20.2019 7.16683 20.014 7.38185L16.6634 10.9931L13.1918 3.19966C13.0864 2.9716 12.9178 2.77857 12.706 2.6435C12.4941 2.50843 12.248 2.437 11.9967 2.43769C11.7455 2.43838 11.4997 2.51116 11.2887 2.64739C11.0776 2.78363 10.91 2.97758 10.8059 3.20623L7.33713 10.9931L3.98275 7.38185C3.79307 7.16806 3.53878 7.02204 3.25854 6.96595C2.97829 6.90987 2.68739 6.94679 2.43004 7.07112C2.17269 7.19544 1.96296 7.40037 1.83271 7.65477C1.70245 7.90917 1.6588 8.19913 1.70838 8.4806C1.70838 8.4881 1.70838 8.4956 1.71306 8.5031L3.844 18.2409C3.90007 18.5412 4.05912 18.8125 4.29374 19.0081C4.52836 19.2037 4.82385 19.3113 5.12931 19.3125H18.8712C19.1775 19.3124 19.4741 19.2053 19.7096 19.0096C19.9452 18.8139 20.105 18.542 20.1612 18.2409L22.2874 8.5031C22.2874 8.4956 22.2874 8.4881 22.2921 8.4806C22.3434 8.19776 22.2997 7.90589 22.1678 7.65051C22.0358 7.39512 21.8231 7.19056 21.5627 7.06873ZM21.1877 8.27716L19.0606 18.0103C19.0585 18.0177 19.057 18.0252 19.0559 18.0328C19.0481 18.0766 19.0249 18.1163 18.9906 18.1446C18.9562 18.173 18.9129 18.1882 18.8684 18.1875H5.12931C5.08478 18.1882 5.04146 18.173 5.0071 18.1446C4.97275 18.1163 4.9496 18.0766 4.94181 18.0328C4.94071 18.0252 4.93915 18.0177 4.93713 18.0103L2.81275 8.27716C2.80468 8.23776 2.81079 8.19677 2.83001 8.16144C2.84922 8.1261 2.88029 8.09869 2.91775 8.08404C2.95388 8.0637 2.99613 8.05705 3.03676 8.06531C3.07739 8.07358 3.11369 8.0962 3.139 8.12904L3.15025 8.14123L7.08775 12.3825C7.15103 12.4507 7.23024 12.5021 7.31828 12.5322C7.40633 12.5623 7.50046 12.5701 7.59225 12.5548C7.68403 12.5396 7.77061 12.5018 7.84421 12.4449C7.91782 12.388 7.97615 12.3137 8.014 12.2287L11.8296 3.67123C11.8439 3.63809 11.8678 3.61 11.8982 3.59061C11.9286 3.57122 11.9642 3.56142 12.0002 3.56248C12.0351 3.56099 12.0695 3.56992 12.0993 3.58812C12.129 3.60632 12.1526 3.63297 12.1671 3.66466L15.9865 12.2287C16.0243 12.3137 16.0827 12.388 16.1563 12.4449C16.2299 12.5018 16.3165 12.5396 16.4083 12.5548C16.5 12.5701 16.5942 12.5623 16.6822 12.5322C16.7703 12.5021 16.8495 12.4507 16.9127 12.3825L20.8503 8.14123L20.8615 8.12904C20.8868 8.0962 20.9231 8.07358 20.9637 8.06531C21.0044 8.05705 21.0466 8.0637 21.0828 8.08404C21.1202 8.09869 21.1513 8.1261 21.1705 8.16144C21.1897 8.19677 21.1958 8.23776 21.1877 8.27716Z" fill="black"/>
</svg>
