<svg width="24" height="24" viewBox="0 0 24 24" fill="none" xmlns="http://www.w3.org/2000/svg">
<path d="M22.5 12.1875H20.1478L22.2712 6.96189C22.3274 6.82364 22.3264 6.66874 22.2684 6.53125C22.2104 6.39376 22.1001 6.28496 21.9619 6.22876C21.8236 6.17257 21.6687 6.1736 21.5312 6.23162C21.3938 6.28963 21.2849 6.39989 21.2288 6.53814L18.9375 12.1875H14.8125L12.5212 6.53814C12.4792 6.43439 12.4071 6.34556 12.3142 6.28302C12.2214 6.22048 12.112 6.18707 12 6.18707C11.888 6.18707 11.7786 6.22048 11.6858 6.28302C11.5929 6.34556 11.5208 6.43439 11.4788 6.53814L9.1875 12.1875H5.0625L2.77125 6.53814C2.74343 6.46969 2.70239 6.40738 2.65049 6.35479C2.59859 6.3022 2.53684 6.26034 2.46876 6.23162C2.40068 6.20289 2.32762 6.18785 2.25373 6.18736C2.17984 6.18687 2.10658 6.20094 2.03813 6.22876C1.96967 6.25659 1.90737 6.29762 1.85478 6.34952C1.80219 6.40142 1.76033 6.46317 1.7316 6.53125C1.70287 6.59933 1.68784 6.6724 1.68735 6.74629C1.68686 6.82017 1.70093 6.89344 1.72875 6.96189L3.85219 12.1875H1.5C1.35082 12.1875 1.20774 12.2468 1.10225 12.3523C0.996763 12.4578 0.9375 12.6008 0.9375 12.75C0.9375 12.8992 0.996763 13.0423 1.10225 13.1478C1.20774 13.2532 1.35082 13.3125 1.5 13.3125H4.3125L6.6075 18.9619C6.64958 19.0656 6.72167 19.1545 6.81453 19.217C6.90738 19.2795 7.01679 19.313 7.12875 19.313C7.24071 19.313 7.35012 19.2795 7.44298 19.217C7.53583 19.1545 7.60792 19.0656 7.65 18.9619L9.9375 13.3125H14.0625L16.3575 18.9619C16.3996 19.0656 16.4717 19.1545 16.5645 19.217C16.6574 19.2795 16.7668 19.313 16.8787 19.313C16.9907 19.313 17.1001 19.2795 17.193 19.217C17.2858 19.1545 17.3579 19.0656 17.4 18.9619L19.6875 13.3125H22.5C22.6492 13.3125 22.7923 13.2532 22.8977 13.1478C23.0032 13.0423 23.0625 12.8992 23.0625 12.75C23.0625 12.6008 23.0032 12.4578 22.8977 12.3523C22.7923 12.2468 22.6492 12.1875 22.5 12.1875ZM7.125 17.2556L5.52281 13.3125H8.72719L7.125 17.2556ZM10.3978 12.1875L12 8.24439L13.6022 12.1875H10.3978ZM16.875 17.2556L15.2728 13.3125H18.4772L16.875 17.2556Z" fill="black"/>
</svg>
