<svg width="24" height="24" viewBox="0 0 24 24" fill="none" xmlns="http://www.w3.org/2000/svg">
<path d="M17.6691 18.1556C17.7184 18.2107 17.7565 18.2749 17.781 18.3447C17.8055 18.4145 17.816 18.4884 17.8119 18.5623C17.8078 18.6361 17.7892 18.7084 17.7571 18.7751C17.725 18.8417 17.6802 18.9014 17.625 18.9506C16.6085 19.8593 15.3581 20.4656 14.0152 20.7012C12.6722 20.9368 11.2902 20.7923 10.0251 20.2839C8.75994 19.7755 7.66215 18.9235 6.85564 17.8242C6.04914 16.7248 5.56606 15.4219 5.46094 14.0625H3.75C3.60082 14.0625 3.45774 14.0032 3.35225 13.8977C3.24676 13.7923 3.1875 13.6492 3.1875 13.5C3.1875 13.3508 3.24676 13.2077 3.35225 13.1023C3.45774 12.9968 3.60082 12.9375 3.75 12.9375H5.4375V11.0625H3.75C3.60082 11.0625 3.45774 11.0032 3.35225 10.8977C3.24676 10.7923 3.1875 10.6492 3.1875 10.5C3.1875 10.3508 3.24676 10.2077 3.35225 10.1023C3.45774 9.99676 3.60082 9.9375 3.75 9.9375H5.46094C5.56606 8.57811 6.04914 7.27518 6.85564 6.17583C7.66215 5.07649 8.75994 4.22452 10.0251 3.71614C11.2902 3.20775 12.6722 3.06318 14.0152 3.29877C15.3581 3.53436 16.6085 4.14072 17.625 5.04937C17.7369 5.14883 17.8047 5.28866 17.8135 5.4381C17.8223 5.58755 17.7713 5.73436 17.6719 5.84625C17.5724 5.95814 17.4326 6.02593 17.2831 6.03472C17.1337 6.04352 16.9869 5.99258 16.875 5.89312C16.0207 5.12935 14.9711 4.61783 13.8431 4.41557C12.7152 4.21331 11.5532 4.32826 10.4867 4.74761C9.42029 5.16696 8.49124 5.87424 7.80315 6.7906C7.11506 7.70696 6.69496 8.7964 6.58969 9.9375H12.75C12.8992 9.9375 13.0423 9.99676 13.1477 10.1023C13.2532 10.2077 13.3125 10.3508 13.3125 10.5C13.3125 10.6492 13.2532 10.7923 13.1477 10.8977C13.0423 11.0032 12.8992 11.0625 12.75 11.0625H6.5625V12.9375H11.25C11.3992 12.9375 11.5423 12.9968 11.6477 13.1023C11.7532 13.2077 11.8125 13.3508 11.8125 13.5C11.8125 13.6492 11.7532 13.7923 11.6477 13.8977C11.5423 14.0032 11.3992 14.0625 11.25 14.0625H6.58969C6.69404 15.2041 7.11346 16.2942 7.80118 17.2113C8.4889 18.1285 9.41788 18.8365 10.4845 19.2565C11.5511 19.6765 12.7134 19.7919 13.8418 19.5899C14.9702 19.3879 16.0203 18.8764 16.875 18.1125C16.986 18.013 17.1321 17.9616 17.281 17.9697C17.4299 17.9778 17.5695 18.0447 17.6691 18.1556Z" fill="black"/>
</svg>
