<svg width="24" height="24" viewBox="0 0 24 24" fill="none" xmlns="http://www.w3.org/2000/svg">
<path d="M17.8125 19.5C17.8125 19.6492 17.7532 19.7923 17.6477 19.8977C17.5423 20.0032 17.3992 20.0625 17.25 20.0625H5.25C5.10082 20.0625 4.95774 20.0032 4.85225 19.8977C4.74676 19.7923 4.6875 19.6492 4.6875 19.5C4.6875 19.3508 4.74676 19.2077 4.85225 19.1022C4.95774 18.9968 5.10082 18.9375 5.25 18.9375H5.625C6.37092 18.9375 7.08629 18.6412 7.61374 18.1137C8.14118 17.5863 8.4375 16.8709 8.4375 16.125V12.5625H5.25C5.10082 12.5625 4.95774 12.5032 4.85225 12.3977C4.74676 12.2923 4.6875 12.1492 4.6875 12C4.6875 11.8508 4.74676 11.7077 4.85225 11.6022C4.95774 11.4968 5.10082 11.4375 5.25 11.4375H8.4375V7.87499C8.43743 6.98609 8.69012 6.11549 9.16607 5.36474C9.64203 4.614 10.3216 4.01407 11.1256 3.63492C11.9296 3.25578 12.8248 3.11305 13.7069 3.22339C14.5889 3.33373 15.4214 3.6926 16.1072 4.25812C16.2223 4.3531 16.295 4.48992 16.3092 4.63848C16.3235 4.78705 16.2781 4.93518 16.1831 5.0503C16.0881 5.16543 15.9513 5.2381 15.8028 5.25234C15.6542 5.26658 15.5061 5.22122 15.3909 5.12624C14.8697 4.69661 14.2371 4.42401 13.5668 4.34024C12.8966 4.25646 12.2163 4.36496 11.6054 4.65308C10.9945 4.94121 10.478 5.39708 10.1163 5.96753C9.75462 6.53799 9.56255 7.19953 9.5625 7.87499V11.4375H12.75C12.8992 11.4375 13.0423 11.4968 13.1477 11.6022C13.2532 11.7077 13.3125 11.8508 13.3125 12C13.3125 12.1492 13.2532 12.2923 13.1477 12.3977C13.0423 12.5032 12.8992 12.5625 12.75 12.5625H9.5625V16.125C9.56284 16.6491 9.45825 17.1679 9.25489 17.651C9.05153 18.134 8.75353 18.5715 8.37844 18.9375H17.25C17.3992 18.9375 17.5423 18.9968 17.6477 19.1022C17.7532 19.2077 17.8125 19.3508 17.8125 19.5Z" fill="black"/>
</svg>
