<svg width="24" height="24" viewBox="0 0 24 24" fill="none" xmlns="http://www.w3.org/2000/svg">
<path d="M19.1845 4.85626L13.1845 12.1875H16.4995C16.6487 12.1875 16.7918 12.2468 16.8973 12.3523C17.0028 12.4578 17.062 12.6008 17.062 12.75C17.062 12.8992 17.0028 13.0423 16.8973 13.1478C16.7918 13.2532 16.6487 13.3125 16.4995 13.3125H12.562V15.1875H16.4995C16.6487 15.1875 16.7918 15.2468 16.8973 15.3523C17.0028 15.4578 17.062 15.6008 17.062 15.75C17.062 15.8992 17.0028 16.0423 16.8973 16.1478C16.7918 16.2532 16.6487 16.3125 16.4995 16.3125H12.562V20.25C12.562 20.3992 12.5028 20.5423 12.3973 20.6478C12.2918 20.7532 12.1487 20.8125 11.9995 20.8125C11.8504 20.8125 11.7073 20.7532 11.6018 20.6478C11.4963 20.5423 11.437 20.3992 11.437 20.25V16.3125H7.49954C7.35035 16.3125 7.20728 16.2532 7.10179 16.1478C6.9963 16.0423 6.93704 15.8992 6.93704 15.75C6.93704 15.6008 6.9963 15.4578 7.10179 15.3523C7.20728 15.2468 7.35035 15.1875 7.49954 15.1875H11.437V13.3125H7.49954C7.35035 13.3125 7.20728 13.2532 7.10179 13.1478C6.9963 13.0423 6.93704 12.8992 6.93704 12.75C6.93704 12.6008 6.9963 12.4578 7.10179 12.3523C7.20728 12.2468 7.35035 12.1875 7.49954 12.1875H10.8127L4.81266 4.85626C4.76332 4.79946 4.72587 4.73333 4.70253 4.6618C4.6792 4.59026 4.67046 4.51477 4.67682 4.4398C4.68318 4.36482 4.70452 4.29189 4.73958 4.22531C4.77463 4.15873 4.82269 4.09986 4.8809 4.05218C4.93912 4.00451 5.0063 3.969 5.07849 3.94775C5.15067 3.92651 5.22638 3.91996 5.30114 3.9285C5.3759 3.93704 5.44818 3.96049 5.51372 3.99747C5.57925 4.03444 5.6367 4.08419 5.68266 4.14376L11.9995 11.8622L18.3145 4.14376C18.4105 4.03328 18.5458 3.96455 18.6916 3.95217C18.8374 3.9398 18.9824 3.98474 19.0956 4.07747C19.2088 4.1702 19.2814 4.30341 19.298 4.44882C19.3147 4.59423 19.2739 4.74039 19.1845 4.85626Z" fill="black"/>
</svg>
