<svg width="24" height="24" viewBox="0 0 24 24" fill="none" xmlns="http://www.w3.org/2000/svg">
<path d="M20.6929 11.6522L12.4429 1.15218C12.3903 1.08512 12.3231 1.0309 12.2465 0.993611C12.1698 0.956325 12.0857 0.936951 12.0004 0.936951C11.9152 0.936951 11.831 0.956325 11.7544 0.993611C11.6777 1.0309 11.6105 1.08512 11.5579 1.15218L3.30792 11.6522C3.22991 11.7513 3.1875 11.8738 3.1875 12C3.1875 12.1261 3.22991 12.2486 3.30792 12.3478L11.5579 22.8478C11.6105 22.9149 11.6777 22.9691 11.7544 23.0064C11.831 23.0437 11.9152 23.063 12.0004 23.063C12.0857 23.063 12.1698 23.0437 12.2465 23.0064C12.3231 22.9691 12.3903 22.9149 12.4429 22.8478L20.6929 12.3478C20.7709 12.2486 20.8133 12.1261 20.8133 12C20.8133 11.8738 20.7709 11.7513 20.6929 11.6522ZM12.5629 3.12655L19.3654 11.7844L12.5629 14.8781V3.12655ZM11.4379 14.8762L4.63542 11.7825L11.4379 3.12655V14.8762ZM11.4379 16.1119V20.8734L5.61792 13.4672L11.4379 16.1119ZM12.5629 16.1119L18.3829 13.4672L12.5629 20.8734V16.1119Z" fill="black"/>
</svg>
