<svg width="24" height="24" viewBox="0 0 24 24" fill="none" xmlns="http://www.w3.org/2000/svg">
<path d="M19.148 20.6475L16.898 22.8975C16.7914 22.9969 16.6503 23.051 16.5046 23.0484C16.3589 23.0458 16.2198 22.9868 16.1168 22.8837C16.0137 22.7807 15.9547 22.6416 15.9521 22.4959C15.9495 22.3502 16.0036 22.2091 16.103 22.1025L17.392 20.8125H7.50048C6.95347 20.8125 6.42887 20.5952 6.04207 20.2084C5.65528 19.8216 5.43798 19.297 5.43798 18.75V9.75001C5.43798 9.60082 5.49724 9.45775 5.60273 9.35226C5.70822 9.24677 5.8513 9.18751 6.00048 9.18751C6.14967 9.18751 6.29274 9.24677 6.39823 9.35226C6.50372 9.45775 6.56298 9.60082 6.56298 9.75001V18.75C6.56298 18.9986 6.66175 19.2371 6.83757 19.4129C7.01338 19.5887 7.25184 19.6875 7.50048 19.6875H17.392L16.103 18.3975C16.0036 18.2909 15.9495 18.1498 15.9521 18.0041C15.9547 17.8584 16.0137 17.7194 16.1168 17.6163C16.2198 17.5132 16.3589 17.4542 16.5046 17.4516C16.6503 17.4491 16.7914 17.5031 16.898 17.6025L19.148 19.8525C19.2533 19.958 19.3125 20.1009 19.3125 20.25C19.3125 20.3991 19.2533 20.542 19.148 20.6475ZM7.50048 6.56251C7.61166 6.56241 7.72032 6.52937 7.81273 6.46755C7.90514 6.40574 7.97716 6.31792 8.0197 6.2152C8.06223 6.11248 8.07337 5.99945 8.05171 5.8904C8.03004 5.78136 7.97655 5.68117 7.89798 5.60251L6.60892 4.31251H16.5005C16.7491 4.31251 16.9876 4.41128 17.1634 4.58709C17.3392 4.76291 17.438 5.00137 17.438 5.25001V14.25C17.438 14.3992 17.4972 14.5423 17.6027 14.6478C17.7082 14.7532 17.8513 14.8125 18.0005 14.8125C18.1497 14.8125 18.2927 14.7532 18.3982 14.6478C18.5037 14.5423 18.563 14.3992 18.563 14.25V5.25001C18.563 4.703 18.3457 4.17839 17.9589 3.7916C17.5721 3.40481 17.0475 3.18751 16.5005 3.18751H6.60892L7.89798 1.89751C7.99734 1.79088 8.05143 1.64984 8.04886 1.50411C8.04629 1.35839 7.98726 1.21935 7.8842 1.11629C7.78114 1.01323 7.6421 0.954197 7.49637 0.951626C7.35065 0.949055 7.20961 1.00315 7.10298 1.10251L4.85298 3.35251C4.74764 3.45798 4.68848 3.60094 4.68848 3.75001C4.68848 3.89907 4.74764 4.04204 4.85298 4.14751L7.10298 6.39751C7.20837 6.50303 7.35135 6.56238 7.50048 6.56251Z" fill="black"/>
</svg>
