<svg width="24" height="24" viewBox="0 0 24 24" fill="none" xmlns="http://www.w3.org/2000/svg">
<path d="M19.9159 19.875L4.91587 3.375C4.8129 3.27942 4.67788 3.22583 4.53738 3.22479C4.39689 3.22375 4.26109 3.27532 4.1567 3.36936C4.05232 3.4634 3.98691 3.5931 3.97333 3.73294C3.95976 3.87278 3.99902 4.01264 4.08337 4.125L5.43712 5.6175V20.25C5.43712 20.797 5.65442 21.3216 6.04121 21.7084C6.42801 22.0952 6.95261 22.3125 7.49962 22.3125H16.4996C17.0466 22.3125 17.5712 22.0952 17.958 21.7084C18.3448 21.3216 18.5621 20.797 18.5621 20.25V20.055L19.0834 20.6287C19.1838 20.7391 19.324 20.8051 19.4731 20.8121C19.6222 20.8192 19.768 20.7667 19.8784 20.6663C19.9888 20.5658 20.0547 20.4256 20.0618 20.2765C20.0688 20.1274 20.0163 19.9816 19.9159 19.8713V19.875ZM17.4371 20.25C17.4371 20.4986 17.3384 20.7371 17.1625 20.9129C16.9867 21.0887 16.7483 21.1875 16.4996 21.1875H7.49962C7.25098 21.1875 7.01253 21.0887 6.83671 20.9129C6.66089 20.7371 6.56212 20.4986 6.56212 20.25V6.855L17.4371 18.8175V20.25ZM6.62775 2.25C6.62775 2.10082 6.68701 1.95774 6.7925 1.85225C6.89799 1.74676 7.04106 1.6875 7.19025 1.6875H16.4996C17.0466 1.6875 17.5712 1.9048 17.958 2.29159C18.3448 2.67839 18.5621 3.20299 18.5621 3.75V14.1403C18.5621 14.2895 18.5029 14.4326 18.3974 14.5381C18.2919 14.6435 18.1488 14.7028 17.9996 14.7028C17.8504 14.7028 17.7074 14.6435 17.6019 14.5381C17.4964 14.4326 17.4371 14.2895 17.4371 14.1403V3.75C17.4371 3.50136 17.3384 3.2629 17.1625 3.08709C16.9867 2.91127 16.7483 2.8125 16.4996 2.8125H7.19025C7.04106 2.8125 6.89799 2.75324 6.7925 2.64775C6.68701 2.54226 6.62775 2.39918 6.62775 2.25Z" fill="black"/>
</svg>
