<svg width="24" height="24" viewBox="0 0 24 24" fill="none" xmlns="http://www.w3.org/2000/svg">
<path d="M11.603 10.1475C11.7085 10.2528 11.8514 10.312 12.0005 10.312C12.1495 10.312 12.2925 10.2528 12.398 10.1475L16.148 6.39749C16.2533 6.29202 16.3125 6.14906 16.3125 5.99999C16.3125 5.85093 16.2533 5.70796 16.148 5.60249L12.398 1.85249C12.2925 1.74716 12.1495 1.68799 12.0005 1.68799C11.8514 1.68799 11.7085 1.74716 11.603 1.85249L7.85298 5.60249C7.74764 5.70796 7.68848 5.85093 7.68848 5.99999C7.68848 6.14906 7.74764 6.29202 7.85298 6.39749L11.603 10.1475ZM12.0005 3.04593L14.9545 5.99999L12.0005 8.95406L9.04642 5.99999L12.0005 3.04593ZM12.398 13.8525C12.2925 13.7472 12.1495 13.688 12.0005 13.688C11.8514 13.688 11.7085 13.7472 11.603 13.8525L7.85298 17.6025C7.74764 17.708 7.68848 17.8509 7.68848 18C7.68848 18.1491 7.74764 18.292 7.85298 18.3975L11.603 22.1475C11.7085 22.2528 11.8514 22.312 12.0005 22.312C12.1495 22.312 12.2925 22.2528 12.398 22.1475L16.148 18.3975C16.2533 18.292 16.3125 18.1491 16.3125 18C16.3125 17.8509 16.2533 17.708 16.148 17.6025L12.398 13.8525ZM12.0005 20.9541L9.04642 18L12.0005 15.0459L14.9545 18L12.0005 20.9541ZM22.148 11.6025L18.398 7.85249C18.2925 7.74716 18.1495 7.68799 18.0005 7.68799C17.8514 7.68799 17.7085 7.74716 17.603 7.85249L13.853 11.6025C13.7476 11.708 13.6885 11.8509 13.6885 12C13.6885 12.1491 13.7476 12.292 13.853 12.3975L17.603 16.1475C17.7085 16.2528 17.8514 16.312 18.0005 16.312C18.1495 16.312 18.2925 16.2528 18.398 16.1475L22.148 12.3975C22.2533 12.292 22.3125 12.1491 22.3125 12C22.3125 11.8509 22.2533 11.708 22.148 11.6025ZM18.0005 14.9541L15.0464 12L18.0005 9.04593L20.9545 12L18.0005 14.9541ZM10.148 11.6025L6.39798 7.85249C6.29251 7.74716 6.14954 7.68799 6.00048 7.68799C5.85142 7.68799 5.70845 7.74716 5.60298 7.85249L1.85298 11.6025C1.74764 11.708 1.68848 11.8509 1.68848 12C1.68848 12.1491 1.74764 12.292 1.85298 12.3975L5.60298 16.1475C5.70845 16.2528 5.85142 16.312 6.00048 16.312C6.14954 16.312 6.29251 16.2528 6.39798 16.1475L10.148 12.3975C10.2533 12.292 10.3125 12.1491 10.3125 12C10.3125 11.8509 10.2533 11.708 10.148 11.6025ZM6.00048 14.9541L3.04642 12L6.00048 9.04593L8.95454 12L6.00048 14.9541Z" fill="black"/>
</svg>
