<svg width="24" height="24" viewBox="0 0 24 24" fill="none" xmlns="http://www.w3.org/2000/svg">
<path d="M21.9302 11.0756L12.9246 2.07C12.6787 1.82612 12.3465 1.68927 12.0002 1.68927C11.6539 1.68927 11.3216 1.82612 11.0758 2.07L2.07019 11.0756C1.8263 11.3215 1.68945 11.6537 1.68945 12C1.68945 12.3463 1.8263 12.6785 2.07019 12.9244L11.0758 21.93C11.3216 22.1739 11.6539 22.3107 12.0002 22.3107C12.3465 22.3107 12.6787 22.1739 12.9246 21.93L21.9246 12.9244C22.046 12.803 22.1423 12.6589 22.2081 12.5003C22.2738 12.3417 22.3076 12.1717 22.3076 12C22.3076 11.8283 22.2738 11.6583 22.2081 11.4997C22.1423 11.3411 22.046 11.197 21.9246 11.0756H21.9302ZM21.1343 12.1294L12.1296 21.135C12.0947 21.1682 12.0484 21.1868 12.0002 21.1868C11.952 21.1868 11.9057 21.1682 11.8708 21.135L2.86613 12.1294C2.83288 12.0945 2.81434 12.0482 2.81434 12C2.81434 11.9518 2.83288 11.9055 2.86613 11.8706L11.8708 2.865C11.9057 2.83176 11.952 2.81322 12.0002 2.81322C12.0484 2.81322 12.0947 2.83176 12.1296 2.865L21.1343 11.8706C21.1675 11.9055 21.186 11.9518 21.186 12C21.186 12.0482 21.1675 12.0945 21.1343 12.1294Z" fill="black"/>
</svg>
