<svg width="24" height="24" viewBox="0 0 24 24" fill="none" xmlns="http://www.w3.org/2000/svg">
<path d="M9.56227 13.125C9.56227 13.3104 9.50729 13.4917 9.40427 13.6459C9.30126 13.8 9.15484 13.9202 8.98354 13.9911C8.81223 14.0621 8.62373 14.0807 8.44187 14.0445C8.26002 14.0083 8.09297 13.919 7.96186 13.7879C7.83075 13.6568 7.74146 13.4898 7.70529 13.3079C7.66911 13.126 7.68768 12.9375 7.75863 12.7662C7.82959 12.5949 7.94975 12.4485 8.10392 12.3455C8.2581 12.2425 8.43935 12.1875 8.62477 12.1875C8.87341 12.1875 9.11187 12.2863 9.28768 12.4621C9.4635 12.6379 9.56227 12.8764 9.56227 13.125ZM15.3748 12.1875C15.1894 12.1875 15.0081 12.2425 14.8539 12.3455C14.6998 12.4485 14.5796 12.5949 14.5086 12.7662C14.4377 12.9375 14.4191 13.126 14.4553 13.3079C14.4915 13.4898 14.5807 13.6568 14.7119 13.7879C14.843 13.919 15.01 14.0083 15.1919 14.0445C15.3737 14.0807 15.5622 14.0621 15.7335 13.9911C15.9048 13.9202 16.0513 13.8 16.1543 13.6459C16.2573 13.4917 16.3123 13.3104 16.3123 13.125C16.3123 12.8764 16.2135 12.6379 16.0377 12.4621C15.8619 12.2863 15.6234 12.1875 15.3748 12.1875ZM22.2785 17.9138L15.9973 20.6991C15.8267 20.7737 15.6425 20.8123 15.4563 20.8125C15.1862 20.8128 14.9225 20.7305 14.7005 20.5767C14.4785 20.4229 14.3088 20.2049 14.2141 19.9519L13.406 17.7591C12.9438 17.7938 12.476 17.8134 11.9998 17.8134C11.5235 17.8134 11.0566 17.7938 10.5935 17.7591L9.78446 19.9519C9.68989 20.2047 9.52034 20.4226 9.29851 20.5764C9.07668 20.7302 8.81315 20.8126 8.54321 20.8125C8.35701 20.8123 8.17286 20.7737 8.00227 20.6991L1.72102 17.9138C1.43798 17.7888 1.20816 17.5679 1.07214 17.2901C0.936111 17.0122 0.902624 16.6952 0.977584 16.395L3.74977 5.48438C3.81332 5.23636 3.94768 5.01219 4.13646 4.83923C4.32524 4.66626 4.56028 4.55198 4.8129 4.51031L8.19352 3.95531C8.51989 3.90222 8.85432 3.97257 9.13164 4.15266C9.40895 4.33274 9.60926 4.60964 9.69352 4.92938L10.0395 6.29156C11.3427 6.15281 12.6569 6.15281 13.9601 6.29156L14.306 4.92938C14.3903 4.60964 14.5906 4.33274 14.8679 4.15266C15.1452 3.97257 15.4797 3.90222 15.806 3.95531L19.1866 4.51031C19.4393 4.55198 19.6743 4.66626 19.8631 4.83923C20.0519 5.01219 20.1862 5.23636 20.2498 5.48438L23.0182 16.395C23.0934 16.6947 23.0605 17.0114 22.9252 17.2892C22.7899 17.567 22.5609 17.7882 22.2785 17.9138ZM21.9316 16.6716L19.1632 5.76094C19.1531 5.72459 19.1327 5.69196 19.1044 5.667C19.0761 5.64204 19.0412 5.62583 19.0038 5.62031L15.6232 5.0625C15.5747 5.05382 15.5247 5.06338 15.4828 5.08934C15.4409 5.1153 15.4101 5.15583 15.3963 5.20313L15.0813 6.44438C15.6104 6.53524 16.1345 6.65289 16.6516 6.79688C16.7853 6.83121 16.9017 6.91348 16.9786 7.02803C17.0556 7.14258 17.0877 7.28142 17.069 7.41813C17.0502 7.55485 16.9819 7.6799 16.8769 7.7695C16.772 7.8591 16.6377 7.90699 16.4998 7.90406C16.4484 7.9042 16.3972 7.89694 16.3479 7.8825C14.9307 7.49795 13.4682 7.30623 11.9998 7.3125C10.5314 7.30623 9.06882 7.49795 7.65165 7.8825C7.57988 7.90469 7.5044 7.91228 7.42966 7.90482C7.35491 7.89736 7.28242 7.87501 7.21645 7.83908C7.15049 7.80315 7.09239 7.75437 7.04558 7.69562C6.99877 7.63688 6.9642 7.56935 6.94391 7.49702C6.92362 7.4247 6.91803 7.34905 6.92745 7.27452C6.93687 7.2 6.96113 7.12812 6.99878 7.06313C7.03644 6.99813 7.08673 6.94133 7.14669 6.89609C7.20665 6.85084 7.27506 6.81807 7.3479 6.79969C7.86504 6.65571 8.38915 6.53805 8.91821 6.44719L8.60321 5.20594C8.59016 5.158 8.55964 5.11669 8.51764 5.09014C8.47565 5.06359 8.42523 5.05373 8.37633 5.0625L4.99571 5.625C4.95839 5.63051 4.92347 5.64673 4.89518 5.67169C4.86689 5.69665 4.84645 5.72928 4.83633 5.76563L2.0679 16.6716C2.0582 16.7143 2.06376 16.7591 2.08363 16.7981C2.10349 16.8371 2.1364 16.868 2.17665 16.8853L8.4579 19.6697C8.4839 19.6811 8.512 19.687 8.5404 19.687C8.5688 19.687 8.59689 19.6811 8.6229 19.6697C8.64722 19.6596 8.66924 19.6447 8.68761 19.6258C8.70599 19.607 8.72033 19.5846 8.72977 19.56L9.4404 17.6334C8.7337 17.5351 8.03434 17.3897 7.34696 17.1984C7.27413 17.1801 7.20571 17.1473 7.14575 17.102C7.08579 17.0568 7.0355 17 6.99785 16.935C6.96019 16.87 6.93594 16.7981 6.92651 16.7236C6.91709 16.6491 6.92269 16.5734 6.94298 16.5011C6.96326 16.4288 6.99783 16.3613 7.04464 16.3025C7.09145 16.2438 7.14955 16.195 7.21552 16.1591C7.28148 16.1231 7.35397 16.1008 7.42872 16.0933C7.50346 16.0859 7.57894 16.0934 7.65071 16.1156C9.0681 16.5009 10.531 16.6933 11.9998 16.6875C13.4682 16.6938 14.9307 16.5021 16.3479 16.1175C16.4197 16.0953 16.4951 16.0877 16.5699 16.0952C16.6446 16.1026 16.7171 16.125 16.7831 16.1609C16.8491 16.1969 16.9072 16.2456 16.954 16.3044C17.0008 16.3631 17.0353 16.4307 17.0556 16.503C17.0759 16.5753 17.0815 16.651 17.0721 16.7255C17.0627 16.8 17.0384 16.8719 17.0008 16.9369C16.9631 17.0019 16.9128 17.0587 16.8529 17.1039C16.7929 17.1492 16.7245 17.1819 16.6516 17.2003C15.9643 17.3916 15.2649 17.5369 14.5582 17.6353L15.2688 19.5619C15.2783 19.5865 15.2926 19.6089 15.311 19.6277C15.3294 19.6466 15.3514 19.6615 15.3757 19.6716C15.4017 19.683 15.4298 19.6889 15.4582 19.6889C15.4866 19.6889 15.5147 19.683 15.5407 19.6716L21.822 16.8872C21.8628 16.87 21.8962 16.8389 21.9162 16.7994C21.9363 16.76 21.9418 16.7147 21.9316 16.6716Z" fill="black"/>
</svg>
