<svg width="24" height="24" viewBox="0 0 24 24" fill="none" xmlns="http://www.w3.org/2000/svg">
<path d="M9.56272 13.125C9.56272 13.3104 9.50774 13.4917 9.40472 13.6459C9.30171 13.8 9.15529 13.9202 8.98399 13.9912C8.81268 14.0621 8.62418 14.0807 8.44232 14.0445C8.26047 14.0083 8.09342 13.9191 7.96231 13.7879C7.8312 13.6568 7.74191 13.4898 7.70573 13.3079C7.66956 13.1261 7.68813 12.9376 7.75908 12.7663C7.83004 12.595 7.9502 12.4485 8.10437 12.3455C8.25854 12.2425 8.4398 12.1875 8.62522 12.1875C8.87386 12.1875 9.11232 12.2863 9.28813 12.4621C9.46395 12.6379 9.56272 12.8764 9.56272 13.125ZM15.3752 12.1875C15.1898 12.1875 15.0085 12.2425 14.8544 12.3455C14.7002 12.4485 14.58 12.595 14.5091 12.7663C14.4381 12.9376 14.4196 13.1261 14.4557 13.3079C14.4919 13.4898 14.5812 13.6568 14.7123 13.7879C14.8434 13.9191 15.0105 14.0083 15.1923 14.0445C15.3742 14.0807 15.5627 14.0621 15.734 13.9912C15.9053 13.9202 16.0517 13.8 16.1547 13.6459C16.2577 13.4917 16.3127 13.3104 16.3127 13.125C16.3127 12.8764 16.214 12.6379 16.0381 12.4621C15.8623 12.2863 15.6239 12.1875 15.3752 12.1875ZM21.5412 13.1925C21.3678 13.2718 21.1796 13.313 20.989 13.3135C20.8158 13.3131 20.6446 13.2778 20.4854 13.2097C20.3262 13.1415 20.1825 13.0419 20.0627 12.9169V17.25C20.0627 18.1949 19.6874 19.101 19.0193 19.7691C18.3512 20.4372 17.4451 20.8125 16.5002 20.8125H7.50022C6.55539 20.8125 5.64925 20.4372 4.98115 19.7691C4.31305 19.101 3.93772 18.1949 3.93772 17.25V12.9169C3.81764 13.0417 3.67367 13.1411 3.51437 13.209C3.35507 13.277 3.18372 13.3122 3.01053 13.3125C2.82026 13.312 2.63231 13.2708 2.45928 13.1916C2.18926 13.073 1.96777 12.8659 1.83141 12.6044C1.69504 12.3429 1.65196 12.0427 1.70928 11.7535L3.24866 3.50346C3.28165 3.32755 3.35027 3.16025 3.45031 3.01184C3.55034 2.86343 3.67967 2.73704 3.83035 2.64046C3.98103 2.54387 4.14987 2.47912 4.32649 2.45019C4.50311 2.42125 4.68379 2.42875 4.85741 2.47221L4.87991 2.47878L9.83084 3.93753H14.1696L19.1187 2.48346L19.1412 2.4769C19.3148 2.43344 19.4955 2.42594 19.6721 2.45487C19.8487 2.48381 20.0175 2.54856 20.1682 2.64514C20.3189 2.74173 20.4482 2.86812 20.5483 3.01653C20.6483 3.16494 20.7169 3.33224 20.7499 3.50815L22.2893 11.7582C22.346 12.0467 22.3028 12.3459 22.1668 12.6066C22.0309 12.8673 21.8102 13.0739 21.5412 13.1925ZM8.80147 4.80659L4.57897 3.56253C4.55519 3.55695 4.53053 3.55631 4.5065 3.56067C4.48247 3.56502 4.45959 3.57427 4.43928 3.58784C4.41782 3.60175 4.39943 3.6199 4.38524 3.64118C4.37105 3.66247 4.36137 3.68643 4.35678 3.71159L2.81741 11.9616C2.80943 12.0029 2.8156 12.0457 2.83491 12.0831C2.85423 12.1205 2.88557 12.1504 2.92389 12.1678C2.96221 12.1852 3.00528 12.1892 3.04616 12.1792C3.08705 12.1692 3.12337 12.1457 3.14928 12.1125L8.80147 4.80659ZM18.9377 17.25V11.4778L13.9746 5.06253H10.0258L5.06272 11.4778V17.25C5.06272 17.8965 5.31953 18.5165 5.77665 18.9736C6.23377 19.4307 6.85375 19.6875 7.50022 19.6875H11.4377V18.2325L10.1027 16.8975C10.0034 16.7909 9.94927 16.6499 9.95184 16.5041C9.95441 16.3584 10.0134 16.2194 10.1165 16.1163C10.2196 16.0133 10.3586 15.9542 10.5043 15.9516C10.6501 15.9491 10.7911 16.0032 10.8977 16.1025L12.0002 17.2041L13.1027 16.1025C13.2094 16.0032 13.3504 15.9491 13.4961 15.9516C13.6418 15.9542 13.7809 16.0133 13.8839 16.1163C13.987 16.2194 14.046 16.3584 14.0486 16.5041C14.0512 16.6499 13.9971 16.7909 13.8977 16.8975L12.5627 18.2325V19.6875H16.5002C17.1467 19.6875 17.7667 19.4307 18.2238 18.9736C18.6809 18.5165 18.9377 17.8965 18.9377 17.25ZM21.1877 11.9625L19.6483 3.71253C19.6436 3.68753 19.6339 3.66375 19.6197 3.64264C19.6055 3.62153 19.5872 3.60352 19.5658 3.58971C19.5242 3.56394 19.4742 3.55489 19.4262 3.5644L15.2074 4.80471L20.8624 12.1172C20.8894 12.1476 20.9255 12.1684 20.9653 12.1765C21.0051 12.1846 21.0465 12.1796 21.0832 12.1621C21.1199 12.1447 21.1499 12.1158 21.1688 12.0798C21.1876 12.0438 21.1943 12.0026 21.1877 11.9625Z" fill="black"/>
</svg>
