<svg width="24" height="24" viewBox="0 0 24 24" fill="none" xmlns="http://www.w3.org/2000/svg">
<path d="M19.9557 19.7334C19.9537 19.7273 19.9512 19.7213 19.9482 19.7156L15.6413 10.5413L17.6175 7.43812L17.626 7.425C17.7482 7.22108 17.8128 6.98777 17.8128 6.75C17.8128 6.51223 17.7482 6.27892 17.626 6.075C17.6194 6.06375 17.6119 6.0525 17.6044 6.04125L15.5625 3.12469V0.75C15.5625 0.600816 15.5033 0.457742 15.3978 0.352252C15.2923 0.246763 15.1492 0.1875 15 0.1875C14.8508 0.1875 14.7078 0.246763 14.6023 0.352252C14.4968 0.457742 14.4375 0.600816 14.4375 0.75V3.105L13.9032 3.7725C13.6748 4.05786 13.3852 4.28821 13.0557 4.44651C12.7263 4.60481 12.3655 4.687 12 4.687C11.6345 4.687 11.2737 4.60481 10.9443 4.44651C10.6149 4.28821 10.3253 4.05786 10.0969 3.7725L9.56253 3.105V0.75C9.56253 0.600816 9.50326 0.457742 9.39778 0.352252C9.29229 0.246763 9.14921 0.1875 9.00003 0.1875C8.85084 0.1875 8.70777 0.246763 8.60228 0.352252C8.49679 0.457742 8.43753 0.600816 8.43753 0.75V3.12469L6.39565 6.04125C6.38815 6.0525 6.38065 6.06375 6.37409 6.075C6.25181 6.27892 6.18722 6.51223 6.18722 6.75C6.18722 6.98777 6.25181 7.22108 6.37409 7.425L6.38253 7.43812L8.35878 10.5413L4.0519 19.7156C4.04884 19.7213 4.04633 19.7273 4.0444 19.7334C3.95897 19.933 3.92436 20.1506 3.94369 20.3668C3.96301 20.583 4.03566 20.7911 4.15512 20.9723C4.27459 21.1536 4.43714 21.3024 4.62823 21.4054C4.81931 21.5083 5.03295 21.5623 5.25003 21.5625H18.75C18.9672 21.5625 19.1809 21.5086 19.3721 21.4057C19.5634 21.3028 19.726 21.154 19.8456 20.9727C19.9652 20.7915 20.0379 20.5834 20.0573 20.3671C20.0767 20.1508 20.0421 19.9331 19.9566 19.7334H19.9557ZM7.3369 6.84375C7.32157 6.81689 7.31312 6.78666 7.3123 6.75574C7.31148 6.72483 7.31832 6.69419 7.33222 6.66656L9.03003 4.24031L9.21753 4.47563C9.55129 4.89272 9.97458 5.22941 10.4561 5.46079C10.9375 5.69216 11.4649 5.8123 11.9991 5.8123C12.5333 5.8123 13.0606 5.69216 13.5421 5.46079C14.0236 5.22941 14.4469 4.89272 14.7807 4.47563L14.9682 4.24031L16.666 6.66469C16.6806 6.69193 16.6882 6.72237 16.6882 6.75328C16.6882 6.7842 16.6806 6.81463 16.666 6.84188L14.6972 9.93563H9.30847L7.3369 6.84375ZM18.9057 20.3531C18.889 20.3795 18.8659 20.4011 18.8385 20.4159C18.811 20.4307 18.7802 20.4381 18.7491 20.4375H5.25003C5.21955 20.4376 5.18951 20.4302 5.16252 20.416C5.13553 20.4019 5.1124 20.3813 5.09514 20.3562C5.07787 20.3311 5.06698 20.3022 5.06343 20.2719C5.05987 20.2416 5.06374 20.2109 5.07472 20.1825L9.35722 11.0625H14.6428L18.9244 20.1825C18.9357 20.2103 18.94 20.2404 18.9367 20.2702C18.9334 20.3 18.9227 20.3285 18.9057 20.3531Z" fill="black"/>
</svg>
