<svg width="24" height="24" viewBox="0 0 24 24" fill="none" xmlns="http://www.w3.org/2000/svg">
<path d="M19.4995 14.4376H4.49951C4.15142 14.4376 3.81758 14.5758 3.57143 14.822C3.32529 15.0681 3.18701 15.402 3.18701 15.7501V18.0001C3.18701 18.3481 3.32529 18.682 3.57143 18.9281C3.81758 19.1743 4.15142 19.3126 4.49951 19.3126H19.4995C19.8476 19.3126 20.1814 19.1743 20.4276 18.9281C20.6737 18.682 20.812 18.3481 20.812 18.0001V15.7501C20.812 15.402 20.6737 15.0681 20.4276 14.822C20.1814 14.5758 19.8476 14.4376 19.4995 14.4376ZM19.687 18.0001C19.687 18.0498 19.6673 18.0975 19.6321 18.1326C19.5969 18.1678 19.5492 18.1876 19.4995 18.1876H4.49951C4.44978 18.1876 4.40209 18.1678 4.36693 18.1326C4.33177 18.0975 4.31201 18.0498 4.31201 18.0001V15.7501C4.31201 15.7003 4.33177 15.6526 4.36693 15.6175C4.40209 15.5823 4.44978 15.5626 4.49951 15.5626H19.4995C19.5492 15.5626 19.5969 15.5823 19.6321 15.6175C19.6673 15.6526 19.687 15.7003 19.687 15.7501V18.0001ZM4.52201 12.5626H19.477C19.7377 12.564 19.9932 12.4888 20.2115 12.3463C20.4299 12.2038 20.6015 12.0002 20.7051 11.761C20.8078 11.5279 20.8384 11.2694 20.793 11.0188C20.7476 10.7682 20.6281 10.5369 20.4501 10.3547L13.538 3.0938C13.3388 2.88663 13.0999 2.72181 12.8356 2.60922C12.5712 2.49663 12.2868 2.4386 11.9995 2.4386C11.7122 2.4386 11.4278 2.49663 11.1634 2.60922C10.8991 2.72181 10.6602 2.88663 10.4611 3.0938L3.54889 10.3594C3.37088 10.5416 3.25147 10.7729 3.20602 11.0235C3.16058 11.2741 3.19118 11.5326 3.29389 11.7657C3.39822 12.0041 3.57018 12.2066 3.78847 12.3482C4.00676 12.4899 4.2618 12.5644 4.52201 12.5626ZM4.36357 11.1347L11.2758 3.86818C11.3699 3.77145 11.4824 3.69457 11.6067 3.64207C11.731 3.58957 11.8646 3.56252 11.9995 3.56252C12.1345 3.56252 12.268 3.58957 12.3923 3.64207C12.5166 3.69457 12.6292 3.77145 12.7233 3.86818L19.6354 11.1347C19.6612 11.1577 19.6787 11.1885 19.6851 11.2224C19.6916 11.2563 19.6866 11.2914 19.6711 11.3222C19.6549 11.3597 19.6276 11.3912 19.5929 11.4125C19.5582 11.4338 19.5177 11.4439 19.477 11.4413H4.52201C4.48134 11.4439 4.44087 11.4338 4.40613 11.4125C4.3714 11.3912 4.34409 11.3597 4.32795 11.3222C4.31239 11.2914 4.30745 11.2563 4.31389 11.2224C4.32033 11.1885 4.3378 11.1577 4.36357 11.1347Z" fill="black"/>
</svg>
