<svg width="24" height="24" viewBox="0 0 24 24" fill="none" xmlns="http://www.w3.org/2000/svg">
<path d="M20.9599 7.66972L17.0805 3.79035C16.889 3.59872 16.6615 3.44672 16.4112 3.343C16.1609 3.23929 15.8927 3.18591 15.6217 3.18591C15.3508 3.18591 15.0825 3.23929 14.8322 3.343C14.5819 3.44672 14.3545 3.59872 14.163 3.79035L3.04049 14.9128C2.65377 15.2996 2.43652 15.8242 2.43652 16.3711C2.43652 16.9181 2.65377 17.4426 3.04049 17.8294L5.85955 20.6475C5.96494 20.7531 6.10792 20.8124 6.25705 20.8125H20.2502C20.3994 20.8125 20.5424 20.7533 20.6479 20.6478C20.7534 20.5423 20.8127 20.3992 20.8127 20.25C20.8127 20.1008 20.7534 19.9578 20.6479 19.8523C20.5424 19.7468 20.3994 19.6875 20.2502 19.6875H11.8586L20.9599 10.5863C21.3466 10.1995 21.5638 9.67495 21.5638 9.128C21.5638 8.58106 21.3466 8.05651 20.9599 7.66972ZM10.2667 19.6875H6.48955L3.83643 17.0344C3.74926 16.9473 3.68011 16.8439 3.63293 16.7301C3.58575 16.6163 3.56147 16.4943 3.56147 16.3711C3.56147 16.2479 3.58575 16.1259 3.63293 16.0121C3.68011 15.8983 3.74926 15.7949 3.83643 15.7078L9.00018 10.545L14.2052 15.75L10.2667 19.6875ZM20.1639 9.79129L15.0002 14.9541L9.79518 9.75003L14.9589 4.58722C15.1347 4.41147 15.3731 4.31274 15.6217 4.31274C15.8703 4.31274 16.1087 4.41147 16.2846 4.58722L20.1639 8.46566C20.3397 8.64147 20.4384 8.87988 20.4384 9.12847C20.4384 9.37706 20.3397 9.61548 20.1639 9.79129Z" fill="black"/>
</svg>
