<svg width="24" height="24" viewBox="0 0 24 24" fill="none" xmlns="http://www.w3.org/2000/svg">
<path d="M16.21 7.7897C15.988 6.46516 15.4055 5.22734 14.5264 4.212C13.6473 3.19666 12.5056 2.44302 11.2265 2.03374C9.94736 1.62446 8.58022 1.57536 7.27503 1.89181C5.96983 2.20826 4.77698 2.87804 3.82733 3.8277C2.87767 4.77735 2.20789 5.97019 1.89144 7.27539C1.57499 8.58059 1.6241 9.94773 2.03337 11.2269C2.44265 12.506 3.19629 13.6477 4.21163 14.5268C5.22697 15.4059 6.46479 15.9883 7.78933 16.2103C8.01133 17.5349 8.5938 18.7727 9.47288 19.788C10.3519 20.8034 11.4937 21.557 12.7728 21.9663C14.0519 22.3756 15.4191 22.4247 16.7243 22.1082C18.0295 21.7918 19.2223 21.122 20.172 20.1723C21.1216 19.2227 21.7914 18.0298 22.1079 16.7246C22.4243 15.4194 22.3752 14.0523 21.9659 12.7732C21.5566 11.494 20.803 10.3523 19.7877 9.47324C18.7723 8.59417 17.5345 8.01169 16.21 7.7897ZM21.1871 15C21.1868 15.2791 21.1674 15.5579 21.129 15.8344L16.089 10.7934C16.2374 10.2072 16.3124 9.60476 16.3121 9.00001C16.3121 8.98408 16.3121 8.96908 16.3121 8.95407C17.6921 9.25537 18.9277 10.019 19.8143 11.1186C20.7009 12.2181 21.1853 13.5876 21.1871 15ZM4.24746 5.04282L9.45058 10.2459C8.99142 10.7822 8.61247 11.3822 8.32558 12.0272L3.18715 6.88876C3.43129 6.21681 3.79003 5.59226 4.24746 5.04282ZM6.8884 3.18751L12.0259 8.32595C11.3809 8.61284 10.7809 8.99179 10.2446 9.45095L5.04152 4.24783C5.59124 3.79031 6.21612 3.43156 6.8884 3.18751ZM8.81215 15C8.81413 13.3596 9.46666 11.7869 10.6266 10.627C11.7866 9.46703 13.3592 8.8145 14.9996 8.81251C15.0606 8.81251 15.1215 8.81251 15.1825 8.81251C15.1825 8.87345 15.1871 8.93439 15.1871 9.00001C15.1852 10.6404 14.5326 12.2131 13.3727 13.373C12.2127 14.533 10.6401 15.1855 8.99965 15.1875C8.93871 15.1875 8.87777 15.1875 8.81215 15.1828C8.81215 15.1219 8.81215 15.061 8.81215 15ZM13.7537 14.5491L18.9568 19.7522C18.4074 20.2096 17.7828 20.5684 17.1109 20.8125L11.9734 15.6741C12.6181 15.3871 13.2178 15.0082 13.7537 14.5491ZM14.5487 13.7541C15.0079 13.2179 15.3868 12.6179 15.6737 11.9728L20.8121 17.1113C20.5669 17.7835 20.2068 18.408 19.7481 18.9572L14.5487 13.7541ZM15.0456 7.68845H14.9996C14.3949 7.68823 13.7925 7.76318 13.2062 7.91157L8.16527 2.87064C8.44175 2.83227 8.72052 2.81285 8.99965 2.81251C10.4121 2.81441 11.7815 3.29877 12.8811 4.18536C13.9806 5.07195 14.7443 6.30756 15.0456 7.68751V7.68845ZM2.81215 9.00001C2.81248 8.72089 2.8319 8.44211 2.87027 8.16564L7.91027 13.2066C7.76187 13.7928 7.68692 14.3953 7.68715 15C7.68715 15.016 7.68715 15.031 7.68715 15.0459C6.3072 14.7447 5.07158 13.981 4.18499 12.8814C3.2984 11.7819 2.81404 10.4125 2.81215 9.00001ZM8.95371 16.3125H8.99965C9.60439 16.3127 10.2068 16.2378 10.7931 16.0894L15.834 21.1294C15.5575 21.1678 15.2788 21.1872 14.9996 21.1875C13.5872 21.1856 12.2178 20.7013 11.1182 19.8147C10.0187 18.9281 9.255 17.6925 8.95371 16.3125Z" fill="black"/>
</svg>
