<svg width="24" height="24" viewBox="0 0 24 24" fill="none" xmlns="http://www.w3.org/2000/svg">
<path d="M21.4886 15.4687C21.5632 15.5983 21.5833 15.7521 21.5444 15.8965C21.5055 16.0408 21.4109 16.1638 21.2814 16.2384C21.1519 16.313 20.998 16.3331 20.8536 16.2942C20.7093 16.2554 20.5863 16.1608 20.5117 16.0312L18.6367 12.7425C17.528 13.5198 16.29 14.094 14.9805 14.4384L15.5589 17.9072C15.5711 17.98 15.5688 18.0546 15.5522 18.1266C15.5356 18.1986 15.505 18.2667 15.462 18.3268C15.4191 18.387 15.3648 18.4381 15.3021 18.4773C15.2394 18.5164 15.1696 18.5428 15.0967 18.555C15.0657 18.5598 15.0344 18.5623 15.003 18.5625C14.8701 18.5623 14.7416 18.5152 14.6402 18.4294C14.5388 18.3436 14.471 18.2247 14.4489 18.0937L13.8751 14.6662C12.6328 14.8614 11.3675 14.8614 10.1251 14.6662L9.55515 18.0937C9.53298 18.2249 9.46507 18.3439 9.36347 18.4297C9.26186 18.5155 9.13314 18.5626 9.00015 18.5625C8.96876 18.5623 8.93742 18.5598 8.9064 18.555C8.83349 18.5427 8.76372 18.5162 8.70107 18.4769C8.63843 18.4377 8.58413 18.3865 8.54129 18.3262C8.49845 18.266 8.46791 18.1979 8.45141 18.1258C8.43492 18.0537 8.43279 17.9791 8.44515 17.9062L9.02359 14.4375C7.71406 14.093 6.47609 13.5188 5.36734 12.7415L3.48859 16.0312C3.41399 16.1608 3.291 16.2554 3.14665 16.2942C3.00231 16.3331 2.84844 16.313 2.7189 16.2384C2.58936 16.1638 2.49475 16.0408 2.4559 15.8965C2.41704 15.7521 2.43712 15.5983 2.51171 15.4687L4.4664 12.0487C3.771 11.4619 3.1334 10.8099 2.56234 10.1015C2.4686 9.98542 2.42483 9.83682 2.44065 9.68844C2.45647 9.54005 2.5306 9.40402 2.64671 9.31028C2.76283 9.21655 2.91142 9.17278 3.05981 9.1886C3.2082 9.20442 3.34422 9.27854 3.43796 9.39466C5.01952 11.354 7.78796 13.6875 12.0001 13.6875C16.2123 13.6875 18.9808 11.354 20.5623 9.39653C20.6561 9.28042 20.7921 9.2063 20.9405 9.19047C21.0889 9.17465 21.2375 9.21842 21.3536 9.31216C21.4697 9.4059 21.5438 9.54192 21.5596 9.69031C21.5755 9.8387 21.5317 9.98729 21.438 10.1034C20.8669 10.8118 20.2293 11.4638 19.5339 12.0506L21.4886 15.4687Z" fill="black"/>
</svg>
