<svg width="24" height="24" viewBox="0 0 24 24" fill="none" xmlns="http://www.w3.org/2000/svg">
<path d="M18.7501 3.9375C18.601 3.9375 18.4579 3.99676 18.3524 4.10225C18.2469 4.20774 18.1876 4.35082 18.1876 4.5C18.1876 4.64918 18.2469 4.79226 18.3524 4.89775C18.4579 5.00324 18.601 5.0625 18.7501 5.0625C19.1977 5.0625 19.6269 5.24029 19.9434 5.55676C20.2598 5.87323 20.4376 6.30245 20.4376 6.75V12.6234C19.9468 12.1222 19.331 11.7613 18.6539 11.5779C17.9768 11.3945 17.263 11.3953 16.5863 11.5803C15.9096 11.7653 15.2946 12.1276 14.805 12.63C14.3153 13.1323 13.9687 13.7563 13.8011 14.4375H10.1992C10.0316 13.7563 9.68498 13.1323 9.19532 12.63C8.70565 12.1276 8.09067 11.7653 7.41399 11.5803C6.73731 11.3953 6.0235 11.3945 5.3464 11.5779C4.66929 11.7613 4.05347 12.1222 3.56264 12.6234V6.75C3.56264 6.30245 3.74043 5.87323 4.0569 5.55676C4.37336 5.24029 4.80259 5.0625 5.25014 5.0625C5.39932 5.0625 5.5424 5.00324 5.64789 4.89775C5.75338 4.79226 5.81264 4.64918 5.81264 4.5C5.81264 4.35082 5.75338 4.20774 5.64789 4.10225C5.5424 3.99676 5.39932 3.9375 5.25014 3.9375C4.50422 3.9375 3.78885 4.23382 3.2614 4.76126C2.73396 5.28871 2.43764 6.00408 2.43764 6.75V15.375C2.42533 15.8921 2.51498 16.4065 2.70149 16.889C2.88799 17.3714 3.16769 17.8124 3.52462 18.1867C4.24546 18.9427 5.2371 19.3814 6.28139 19.4062C7.32568 19.4311 8.33708 19.0401 9.09308 18.3193C9.84909 17.5984 10.2878 16.6068 10.3126 15.5625H13.697C13.7644 16.5755 14.2205 17.5234 14.97 18.2082C15.7196 18.8929 16.7047 19.2617 17.7197 19.2375C18.7346 19.2133 19.701 18.798 20.4171 18.0783C21.1332 17.3586 21.5436 16.3901 21.5626 15.375V6.75C21.5626 6.00408 21.2663 5.28871 20.7389 4.76126C20.2114 4.23382 19.4961 3.9375 18.7501 3.9375ZM6.37514 18.1875C5.81888 18.1875 5.27511 18.0225 4.8126 17.7135C4.35008 17.4045 3.9896 16.9652 3.77673 16.4513C3.56386 15.9374 3.50816 15.3719 3.61668 14.8263C3.7252 14.2807 3.99307 13.7796 4.3864 13.3863C4.77974 12.9929 5.28088 12.7251 5.82645 12.6165C6.37202 12.508 6.93752 12.5637 7.45144 12.7766C7.96535 12.9895 8.40461 13.3499 8.71365 13.8125C9.02269 14.275 9.18764 14.8187 9.18764 15.375C9.18764 16.1209 8.89132 16.8363 8.36388 17.3637C7.83643 17.8912 7.12106 18.1875 6.37514 18.1875ZM17.6251 18.1875C17.0689 18.1875 16.5251 18.0225 16.0626 17.7135C15.6001 17.4045 15.2396 16.9652 15.0267 16.4513C14.8139 15.9374 14.7582 15.3719 14.8667 14.8263C14.9752 14.2807 15.2431 13.7796 15.6364 13.3863C16.0297 12.9929 16.5309 12.7251 17.0764 12.6165C17.622 12.508 18.1875 12.5637 18.7014 12.7766C19.2154 12.9895 19.6546 13.3499 19.9636 13.8125C20.2727 14.275 20.4376 14.8187 20.4376 15.375C20.4376 16.1209 20.1413 16.8363 19.6139 17.3637C19.0864 17.8912 18.3711 18.1875 17.6251 18.1875Z" fill="black"/>
</svg>
