<svg width="24" height="24" viewBox="0 0 24 24" fill="none" xmlns="http://www.w3.org/2000/svg">
<path d="M22.3129 7.50001C22.3128 6.35065 21.9721 5.22709 21.3336 4.27137C20.6952 3.31564 19.7877 2.57066 18.7259 2.13058C17.6641 1.6905 16.4957 1.57508 15.3684 1.79892C14.241 2.02275 13.2053 2.5758 12.3922 3.38813L5.82223 9.8822C5.70011 10.0039 5.60328 10.1486 5.53731 10.3079C5.47134 10.4671 5.43754 10.6379 5.43786 10.8103V17.7675L2.60286 20.6025C2.54759 20.654 2.50327 20.7161 2.47252 20.7851C2.44178 20.8541 2.42525 20.9286 2.42392 21.0041C2.42258 21.0796 2.43648 21.1547 2.46477 21.2247C2.49306 21.2947 2.53517 21.3584 2.58858 21.4118C2.64199 21.4652 2.70562 21.5073 2.77566 21.5356C2.8457 21.5639 2.92072 21.5778 2.99625 21.5765C3.07178 21.5751 3.14626 21.5586 3.21526 21.5278C3.28426 21.4971 3.34636 21.4528 3.39786 21.3975L6.23286 18.5625H13.19C13.3625 18.5628 13.5332 18.529 13.6925 18.4631C13.8518 18.3971 13.9965 18.3003 14.1182 18.1781L20.571 11.6503L20.6075 11.6128C21.1498 11.0742 21.5798 10.4334 21.8725 9.72736C22.1652 9.02137 22.3149 8.26429 22.3129 7.50001ZM13.1854 4.18501C14.0549 3.32258 15.2275 2.83471 16.4521 2.82579C17.6768 2.81688 18.8563 3.28762 19.7384 4.13729C20.6204 4.98697 21.1348 6.1481 21.1716 7.37226C21.2085 8.59641 20.7647 9.78636 19.9354 10.6875H14.1079L17.6479 7.14751C17.7472 7.04088 17.8013 6.89984 17.7987 6.75412C17.7962 6.60839 17.7371 6.46935 17.6341 6.36629C17.531 6.26323 17.392 6.2042 17.2463 6.20163C17.1005 6.19906 16.9595 6.25315 16.8529 6.35251L12.3529 10.8525L11.0629 12.1425V6.28126L13.1854 4.18501ZM6.56286 10.8103C6.56281 10.7617 6.58163 10.715 6.61536 10.68L9.93786 7.39876V13.2703L6.56286 16.6453V10.8103ZM13.3213 17.3831C13.2864 17.4178 13.2392 17.4373 13.19 17.4375H7.35786L10.8979 13.8984L12.9829 11.8125H18.8282L13.3213 17.3831Z" fill="black"/>
</svg>
