<svg width="24" height="24" viewBox="0 0 24 24" fill="none" xmlns="http://www.w3.org/2000/svg">
<path d="M19.8752 9.18746C19.5149 9.18719 19.1591 9.26725 18.8337 9.42183L15.7952 5.62496C16.0345 5.31903 16.1972 4.96036 16.2698 4.57882C16.3424 4.19728 16.3227 3.80392 16.2125 3.43151C16.1023 3.0591 15.9047 2.71842 15.6361 2.43785C15.3676 2.15727 15.0358 1.94494 14.6686 1.81852C14.3014 1.69211 13.9093 1.65528 13.5249 1.7111C13.1406 1.76692 12.7751 1.91377 12.459 2.13943C12.1429 2.36508 11.8853 2.66301 11.7077 3.00838C11.53 3.35375 11.4375 3.73658 11.4377 4.12496C11.4378 4.25654 11.4485 4.3879 11.4696 4.51777L6.84398 6.44433C6.61079 6.12248 6.30244 5.86254 5.94578 5.68714C5.58913 5.51175 5.19499 5.42623 4.79772 5.43803C4.40044 5.44984 4.01208 5.55861 3.66647 5.75487C3.32086 5.95114 3.02848 6.22893 2.81481 6.56406C2.60115 6.89919 2.47267 7.28149 2.44058 7.67764C2.40848 8.07379 2.47375 8.47178 2.63069 8.83694C2.78763 9.20209 3.03148 9.52333 3.34099 9.77266C3.6505 10.022 4.01629 10.1919 4.40648 10.2675L4.59398 14.9062C4.2068 15.014 3.85226 15.2158 3.56194 15.4937C3.27161 15.7716 3.05451 16.117 2.92997 16.4991C2.80542 16.8812 2.77728 17.2882 2.84807 17.6838C2.91886 18.0794 3.08637 18.4514 3.33569 18.7666C3.58501 19.0818 3.90841 19.3305 4.27709 19.4905C4.64577 19.6505 5.04829 19.7168 5.44881 19.6836C5.84934 19.6504 6.23544 19.5187 6.57274 19.3002C6.91005 19.0817 7.18809 18.7832 7.38211 18.4312L12.1877 19.7812C12.1877 19.8131 12.1877 19.8459 12.1877 19.875C12.1873 20.2745 12.2852 20.6681 12.4726 21.0209C12.6601 21.3738 12.9314 21.6752 13.2627 21.8985C13.594 22.1219 13.9752 22.2604 14.3726 22.3018C14.77 22.3432 15.1715 22.2863 15.5417 22.136C15.912 21.9858 16.2396 21.7469 16.4958 21.4402C16.752 21.1336 16.9289 20.7687 17.0109 20.3776C17.0929 19.9865 17.0775 19.5813 16.966 19.1976C16.8546 18.8139 16.6505 18.4635 16.3718 18.1771L19.0765 13.9275C19.4113 14.0438 19.7675 14.0857 20.1202 14.0502C20.4729 14.0148 20.8136 13.9028 21.1186 13.7222C21.4236 13.5415 21.6855 13.2966 21.8861 13.0043C22.0867 12.712 22.2211 12.3795 22.28 12.03C22.3389 11.6805 22.3209 11.3223 22.2272 10.9804C22.1334 10.6386 21.9663 10.3213 21.7373 10.0506C21.5084 9.78002 21.2232 9.56259 20.9016 9.41351C20.58 9.26443 20.2297 9.18729 19.8752 9.18746ZM14.6252 17.4375C14.5521 17.4375 14.4799 17.4375 14.4087 17.4478L12.769 12.5268L17.5315 12.3C17.6432 12.6845 17.8476 13.0357 18.1268 13.3228L15.4221 17.5725C15.1659 17.4832 14.8965 17.4376 14.6252 17.4375ZM6.77555 15.3506C6.46844 15.1032 6.10588 14.9339 5.71898 14.8575L5.53148 10.2187C5.9561 10.0994 6.34038 9.86705 6.64336 9.54652L10.9952 12.0656L6.77555 15.3506ZM13.8752 6.56246C14.2355 6.56273 14.5913 6.48266 14.9168 6.32808L17.9552 10.125C17.7149 10.4318 17.5519 10.7919 17.4799 11.175L12.7212 11.4018L13.8752 6.56246ZM13.8752 2.81246C14.1348 2.81246 14.3886 2.88944 14.6044 3.03365C14.8203 3.17787 14.9885 3.38286 15.0878 3.62269C15.1872 3.86251 15.2132 4.12641 15.1625 4.38101C15.1119 4.63561 14.9869 4.86948 14.8033 5.05304C14.6198 5.23659 14.3859 5.3616 14.1313 5.41224C13.8767 5.46288 13.6128 5.43689 13.373 5.33755C13.1331 5.23821 12.9281 5.06998 12.7839 4.85414C12.6397 4.63831 12.5627 4.38455 12.5627 4.12496C12.5627 3.77686 12.701 3.44302 12.9472 3.19688C13.1933 2.95074 13.5271 2.81246 13.8752 2.81246ZM11.9065 5.55558C12.1353 5.86983 12.4354 6.12527 12.7821 6.3009L11.6252 11.1346L7.20961 8.57621C7.31613 8.22166 7.3405 7.84751 7.28086 7.48215L11.9065 5.55558ZM3.56273 7.87496C3.56273 7.61537 3.63971 7.36161 3.78393 7.14577C3.92815 6.92993 4.13313 6.76171 4.37296 6.66237C4.61279 6.56303 4.87669 6.53703 5.13129 6.58768C5.38589 6.63832 5.61976 6.76332 5.80331 6.94688C5.98687 7.13044 6.11187 7.3643 6.16252 7.6189C6.21316 7.8735 6.18717 8.1374 6.08783 8.37723C5.98849 8.61706 5.82026 8.82204 5.60442 8.96626C5.38858 9.11048 5.13482 9.18746 4.87523 9.18746C4.52714 9.18746 4.1933 9.04918 3.94716 8.80304C3.70102 8.55689 3.56273 8.22305 3.56273 7.87496ZM5.25023 18.5625C4.99065 18.5625 4.73689 18.4855 4.52105 18.3413C4.30521 18.197 4.13698 17.9921 4.03764 17.7522C3.9383 17.5124 3.91231 17.2485 3.96295 16.9939C4.0136 16.7393 4.1386 16.5054 4.32216 16.3219C4.50571 16.1383 4.73958 16.0133 4.99418 15.9627C5.24878 15.912 5.51268 15.938 5.75251 16.0374C5.99233 16.1367 6.19732 16.3049 6.34154 16.5208C6.48576 16.7366 6.56273 16.9904 6.56273 17.25C6.56273 17.5981 6.42445 17.9319 6.17831 18.178C5.93217 18.4242 5.59833 18.5625 5.25023 18.5625ZM7.68773 17.3437C7.68773 17.3118 7.68773 17.279 7.68773 17.25C7.68775 16.9009 7.61261 16.5559 7.46742 16.2384L11.719 12.9318L13.3427 17.8068C12.9892 18.0268 12.6972 18.3329 12.4943 18.6965L7.68773 17.3437ZM14.6252 21.1875C14.3656 21.1875 14.1119 21.1105 13.896 20.9663C13.6802 20.822 13.512 20.6171 13.4126 20.3772C13.3133 20.1374 13.2873 19.8735 13.338 19.6189C13.3886 19.3643 13.5136 19.1304 13.6972 18.9469C13.8807 18.7633 14.1146 18.6383 14.3692 18.5877C14.6238 18.537 14.8877 18.563 15.1275 18.6624C15.3673 18.7617 15.5723 18.9299 15.7165 19.1458C15.8608 19.3616 15.9377 19.6154 15.9377 19.875C15.9377 20.2231 15.7995 20.5569 15.5533 20.803C15.3072 21.0492 14.9733 21.1875 14.6252 21.1875ZM19.8752 12.9375C19.6156 12.9375 19.3619 12.8605 19.146 12.7163C18.9302 12.572 18.762 12.3671 18.6626 12.1272C18.5633 11.8874 18.5373 11.6235 18.588 11.3689C18.6386 11.1143 18.7636 10.8804 18.9472 10.6969C19.1307 10.5133 19.3646 10.3883 19.6192 10.3377C19.8738 10.287 20.1377 10.313 20.3775 10.4124C20.6173 10.5117 20.8223 10.6799 20.9665 10.8958C21.1108 11.1116 21.1877 11.3654 21.1877 11.625C21.1877 11.9731 21.0495 12.3069 20.8033 12.553C20.5572 12.7992 20.2233 12.9375 19.8752 12.9375Z" fill="black"/>
</svg>
