<svg width="24" height="24" viewBox="0 0 24 24" fill="none" xmlns="http://www.w3.org/2000/svg">
<path d="M8.02961 14.4375L6.15461 19.6875C6.11557 19.7967 6.04372 19.8912 5.9489 19.958C5.85407 20.0248 5.74091 20.0607 5.62492 20.0607C5.50893 20.0607 5.39577 20.0248 5.30094 19.958C5.20612 19.8912 5.13427 19.7967 5.09523 19.6875L3.22023 14.4375C3.19155 14.367 3.17745 14.2915 3.1788 14.2155C3.18014 14.1394 3.1969 14.0644 3.22805 13.995C3.25921 13.9256 3.30411 13.8633 3.36005 13.8117C3.41599 13.7602 3.4818 13.7205 3.55351 13.6951C3.62522 13.6698 3.70132 13.6592 3.77723 13.6641C3.85314 13.6689 3.92728 13.6891 3.99515 13.7235C4.06302 13.7578 4.12323 13.8056 4.17212 13.8638C4.22101 13.9221 4.25758 13.9897 4.27961 14.0625L5.62492 17.8275L6.97023 14.0625C7.02478 13.9285 7.12886 13.8207 7.26083 13.7614C7.39281 13.7022 7.54254 13.6961 7.67891 13.7443C7.81529 13.7926 7.92782 13.8916 7.99313 14.0207C8.05844 14.1497 8.0715 14.299 8.02961 14.4375ZM19.4999 14.8125C19.6491 14.8125 19.7922 14.7532 19.8977 14.6477C20.0032 14.5423 20.0624 14.3992 20.0624 14.25C20.0624 14.1008 20.0032 13.9577 19.8977 13.8523C19.7922 13.7468 19.6491 13.6875 19.4999 13.6875H16.4999C16.3507 13.6875 16.2077 13.7468 16.1022 13.8523C15.9967 13.9577 15.9374 14.1008 15.9374 14.25V19.5C15.9374 19.6492 15.9967 19.7923 16.1022 19.8977C16.2077 20.0032 16.3507 20.0625 16.4999 20.0625H19.4999C19.6491 20.0625 19.7922 20.0032 19.8977 19.8977C20.0032 19.7923 20.0624 19.6492 20.0624 19.5C20.0624 19.3508 20.0032 19.2077 19.8977 19.1023C19.7922 18.9968 19.6491 18.9375 19.4999 18.9375H17.0624V17.4375H18.7499C18.8991 17.4375 19.0422 17.3782 19.1477 17.2727C19.2532 17.1673 19.3124 17.0242 19.3124 16.875C19.3124 16.7258 19.2532 16.5827 19.1477 16.4773C19.0422 16.3718 18.8991 16.3125 18.7499 16.3125H17.0624V14.8125H19.4999ZM13.4999 13.6875C13.3507 13.6875 13.2077 13.7468 13.1022 13.8523C12.9967 13.9577 12.9374 14.1008 12.9374 14.25V17.8125C12.9374 18.1109 12.8189 18.397 12.6079 18.608C12.3969 18.819 12.1108 18.9375 11.8124 18.9375C11.5141 18.9375 11.2279 18.819 11.0169 18.608C10.8059 18.397 10.6874 18.1109 10.6874 17.8125V14.25C10.6874 14.1008 10.6282 13.9577 10.5227 13.8523C10.4172 13.7468 10.2741 13.6875 10.1249 13.6875C9.97574 13.6875 9.83266 13.7468 9.72717 13.8523C9.62168 13.9577 9.56242 14.1008 9.56242 14.25V17.8125C9.56242 18.4092 9.79947 18.9815 10.2214 19.4035C10.6434 19.8254 11.2157 20.0625 11.8124 20.0625C12.4092 20.0625 12.9815 19.8254 13.4034 19.4035C13.8254 18.9815 14.0624 18.4092 14.0624 17.8125V14.25C14.0624 14.1008 14.0032 13.9577 13.8977 13.8523C13.7922 13.7468 13.6491 13.6875 13.4999 13.6875ZM20.0624 8.25V10.5C20.0624 10.6492 20.0032 10.7923 19.8977 10.8977C19.7922 11.0032 19.6491 11.0625 19.4999 11.0625C19.3507 11.0625 19.2077 11.0032 19.1022 10.8977C18.9967 10.7923 18.9374 10.6492 18.9374 10.5V8.8125H14.2499C14.1007 8.8125 13.9577 8.75324 13.8522 8.64775C13.7467 8.54226 13.6874 8.39918 13.6874 8.25V3.5625H5.24992C5.20019 3.5625 5.1525 3.58225 5.11734 3.61742C5.08217 3.65258 5.06242 3.70027 5.06242 3.75V10.5C5.06242 10.6492 5.00316 10.7923 4.89767 10.8977C4.79218 11.0032 4.6491 11.0625 4.49992 11.0625C4.35074 11.0625 4.20766 11.0032 4.10217 10.8977C3.99668 10.7923 3.93742 10.6492 3.93742 10.5V3.75C3.93742 3.4019 4.0757 3.06806 4.32184 2.82192C4.56798 2.57578 4.90182 2.4375 5.24992 2.4375H14.2499C14.3239 2.43744 14.3972 2.45199 14.4656 2.4803C14.534 2.50861 14.5961 2.55014 14.6484 2.6025L19.8984 7.8525C20.0035 7.95804 20.0625 8.101 20.0624 8.25ZM18.1424 7.6875L14.8124 4.3575V7.6875H18.1424Z" fill="black"/>
</svg>
