<svg width="24" height="24" viewBox="0 0 24 24" fill="none" xmlns="http://www.w3.org/2000/svg">
<path d="M4.49966 11.0625C4.64884 11.0625 4.79192 11.0032 4.89741 10.8977C5.0029 10.7923 5.06216 10.6492 5.06216 10.5V3.75C5.06216 3.70027 5.08191 3.65258 5.11708 3.61742C5.15224 3.58225 5.19993 3.5625 5.24966 3.5625H13.6872V8.25C13.6872 8.39918 13.7464 8.54226 13.8519 8.64775C13.9574 8.75324 14.1005 8.8125 14.2497 8.8125H18.9372V10.5C18.9372 10.6492 18.9964 10.7923 19.1019 10.8977C19.2074 11.0032 19.3505 11.0625 19.4997 11.0625C19.6488 11.0625 19.7919 11.0032 19.8974 10.8977C20.0029 10.7923 20.0622 10.6492 20.0622 10.5V8.25C20.0622 8.176 20.0477 8.10271 20.0194 8.03434C19.991 7.96597 19.9495 7.90386 19.8972 7.85156L14.6472 2.60156C14.5416 2.49639 14.3987 2.43738 14.2497 2.4375H5.24966C4.90156 2.4375 4.56772 2.57578 4.32158 2.82192C4.07544 3.06806 3.93716 3.4019 3.93716 3.75V10.5C3.93716 10.6492 3.99642 10.7923 4.10191 10.8977C4.2074 11.0032 4.35048 11.0625 4.49966 11.0625ZM14.8122 4.3575L18.1422 7.6875H14.8122V4.3575ZM21.1872 19.5C21.1872 19.6492 21.1279 19.7923 21.0224 19.8977C20.9169 20.0032 20.7738 20.0625 20.6247 20.0625H17.9997C17.8505 20.0625 17.7074 20.0032 17.6019 19.8977C17.4964 19.7923 17.4372 19.6492 17.4372 19.5V14.25C17.4372 14.1008 17.4964 13.9577 17.6019 13.8523C17.7074 13.7468 17.8505 13.6875 17.9997 13.6875C18.1488 13.6875 18.2919 13.7468 18.3974 13.8523C18.5029 13.9577 18.5622 14.1008 18.5622 14.25V18.9375H20.6247C20.7738 18.9375 20.9169 18.9968 21.0224 19.1023C21.1279 19.2077 21.1872 19.3508 21.1872 19.5ZM8.42122 18.375C8.39539 18.6351 8.3122 18.8862 8.17765 19.1102C8.0431 19.3342 7.86053 19.5256 7.6431 19.6706C7.19122 19.9734 6.62404 20.0625 6.10841 20.0625C5.64391 20.0581 5.18182 19.9951 4.7331 19.875C4.58938 19.8348 4.46751 19.7392 4.39428 19.6092C4.32105 19.4792 4.30247 19.3254 4.34263 19.1817C4.38278 19.038 4.47839 18.9161 4.6084 18.8429C4.73842 18.7697 4.8922 18.7511 5.03591 18.7913C5.38372 18.885 6.49654 19.0828 7.02247 18.7331C7.10498 18.6772 7.17335 18.6029 7.22217 18.516C7.27098 18.4291 7.29891 18.332 7.30372 18.2325C7.35716 17.8172 7.10872 17.6456 5.97247 17.3175C5.09966 17.0653 3.78154 16.6847 3.95029 15.3544C3.97593 15.1002 4.05706 14.8548 4.18796 14.6355C4.31885 14.4162 4.4963 14.2282 4.70779 14.085C5.74935 13.3828 7.44341 13.8037 7.63278 13.8525C7.70569 13.8699 7.77436 13.9018 7.83479 13.9461C7.89521 13.9905 7.94615 14.0465 7.98463 14.1108C8.0231 14.1752 8.04833 14.2465 8.05883 14.3208C8.06933 14.395 8.06489 14.4706 8.04577 14.543C8.02665 14.6155 7.99324 14.6834 7.94749 14.7428C7.90175 14.8022 7.8446 14.8518 7.7794 14.8888C7.7142 14.9258 7.64226 14.9494 7.56782 14.9582C7.49338 14.967 7.41793 14.9608 7.34591 14.94C6.9906 14.8463 5.85997 14.6634 5.33591 15.0187C5.25734 15.072 5.1921 15.1427 5.14528 15.2253C5.09845 15.3079 5.07129 15.4002 5.06591 15.495C5.02747 15.7969 5.26654 15.9431 6.28466 16.2366C7.21185 16.5075 8.6106 16.9116 8.42122 18.375ZM12.7497 13.6875C11.199 13.6875 9.93716 15.1172 9.93716 16.875C9.93716 18.6328 11.1981 20.0625 12.7497 20.0625C13.2951 20.0602 13.8255 19.8838 14.2637 19.5591L14.6022 19.8975C14.6542 19.9505 14.7162 19.9926 14.7846 20.0215C14.853 20.0503 14.9265 20.0654 15.0007 20.0657C15.075 20.0661 15.1486 20.0517 15.2173 20.0235C15.2859 19.9952 15.3483 19.9537 15.4009 19.9012C15.4534 19.8487 15.495 19.7864 15.5233 19.7177C15.5517 19.6491 15.5661 19.5755 15.5659 19.5013C15.5656 19.427 15.5506 19.3536 15.5218 19.2851C15.4931 19.2167 15.451 19.1546 15.3981 19.1025L15.0315 18.7359C15.3816 18.1786 15.5657 17.5331 15.5622 16.875C15.5622 15.1163 14.3012 13.6875 12.7497 13.6875ZM12.7497 18.9375C11.8197 18.9375 11.0622 18.0122 11.0622 16.875C11.0622 15.7378 11.8187 14.8125 12.7497 14.8125C13.6806 14.8125 14.4372 15.7378 14.4372 16.875C14.4391 17.2334 14.3606 17.5878 14.2075 17.9119L13.8981 17.6025C13.7924 17.4984 13.6498 17.4402 13.5014 17.4407C13.353 17.4413 13.2108 17.5004 13.1058 17.6053C13.0009 17.7101 12.9416 17.8522 12.9409 18.0006C12.9402 18.149 12.9981 18.2917 13.1022 18.3975L13.4537 18.7491C13.2391 18.8714 12.9966 18.9363 12.7497 18.9375Z" fill="black"/>
</svg>
