<svg width="24" height="24" viewBox="0 0 24 24" fill="none" xmlns="http://www.w3.org/2000/svg">
<path d="M19.8972 7.85156L14.6472 2.60156C14.5416 2.49639 14.3987 2.43738 14.2497 2.4375H5.24966C4.90156 2.4375 4.56772 2.57578 4.32158 2.82192C4.07544 3.06806 3.93716 3.4019 3.93716 3.75V10.5C3.93716 10.6492 3.99642 10.7923 4.10191 10.8977C4.2074 11.0032 4.35048 11.0625 4.49966 11.0625C4.64884 11.0625 4.79192 11.0032 4.89741 10.8977C5.0029 10.7923 5.06216 10.6492 5.06216 10.5V3.75C5.06216 3.70027 5.08191 3.65258 5.11708 3.61742C5.15224 3.58225 5.19993 3.5625 5.24966 3.5625H13.6872V8.25C13.6872 8.39918 13.7464 8.54226 13.8519 8.64775C13.9574 8.75324 14.1005 8.8125 14.2497 8.8125H18.9372V10.5C18.9372 10.6492 18.9964 10.7923 19.1019 10.8977C19.2074 11.0032 19.3505 11.0625 19.4997 11.0625C19.6488 11.0625 19.7919 11.0032 19.8974 10.8977C20.0029 10.7923 20.0622 10.6492 20.0622 10.5V8.25C20.0622 8.176 20.0477 8.10271 20.0194 8.03434C19.991 7.96597 19.9495 7.90386 19.8972 7.85156ZM14.8122 4.3575L18.1422 7.6875H14.8122V4.3575ZM8.04622 18.3797C8.02026 18.6396 7.93701 18.8905 7.80246 19.1144C7.66791 19.3382 7.48541 19.5295 7.2681 19.6744C6.81622 19.9734 6.24904 20.0625 5.73341 20.0625C5.26895 20.0576 4.80692 19.9946 4.3581 19.875C4.21438 19.8348 4.09251 19.7392 4.01928 19.6092C3.94605 19.4792 3.92747 19.3254 3.96763 19.1817C4.00778 19.038 4.10339 18.9161 4.2334 18.8429C4.36342 18.7697 4.5172 18.7511 4.66091 18.7913C5.00872 18.885 6.12154 19.0828 6.64747 18.7331C6.72998 18.6772 6.79835 18.6029 6.84717 18.516C6.89598 18.4291 6.92391 18.332 6.92872 18.2325C6.98216 17.8172 6.73372 17.6456 5.59747 17.3175C4.72466 17.0653 3.40654 16.6847 3.57529 15.3544C3.60093 15.1002 3.68206 14.8548 3.81296 14.6355C3.94385 14.4162 4.1213 14.2282 4.33279 14.085C5.37435 13.3828 7.06841 13.8037 7.25778 13.8525C7.3948 13.8961 7.5099 13.9906 7.57943 14.1165C7.64896 14.2424 7.66765 14.3901 7.63164 14.5293C7.59563 14.6685 7.50768 14.7887 7.38584 14.8651C7.264 14.9414 7.11753 14.9683 6.97653 14.94C6.62122 14.8463 5.4906 14.6634 4.9656 15.0187C4.88702 15.072 4.82179 15.1427 4.77497 15.2253C4.72814 15.3079 4.70098 15.4002 4.6956 15.495C4.65716 15.7969 4.89622 15.9431 5.91435 16.2366C6.83685 16.5075 8.2356 16.9116 8.04622 18.3797ZM14.0293 14.4422L12.1543 19.6922C12.1153 19.8014 12.0435 19.8959 11.9486 19.9627C11.8538 20.0295 11.7407 20.0654 11.6247 20.0654C11.5087 20.0654 11.3955 20.0295 11.3007 19.9627C11.2059 19.8959 11.134 19.8014 11.095 19.6922L9.21997 14.4422C9.19129 14.3717 9.1772 14.2962 9.17854 14.2201C9.17988 14.1441 9.19664 14.0691 9.22779 13.9997C9.25895 13.9303 9.30385 13.868 9.35979 13.8164C9.41573 13.7649 9.48154 13.7252 9.55325 13.6998C9.62495 13.6744 9.70106 13.6639 9.77697 13.6687C9.85288 13.6736 9.92702 13.6938 9.99489 13.7282C10.0628 13.7625 10.123 13.8103 10.1719 13.8685C10.2208 13.9268 10.2573 13.9944 10.2793 14.0672L11.6247 17.8266L12.97 14.0625C13.0245 13.9285 13.1286 13.8207 13.2606 13.7614C13.3925 13.7022 13.5423 13.6961 13.6787 13.7443C13.815 13.7926 13.9276 13.8916 13.9929 14.0207C14.0582 14.1497 14.0712 14.299 14.0293 14.4375V14.4422ZM20.0622 17.25V18.8316C20.0621 18.9766 20.006 19.116 19.9056 19.2206C19.662 19.4833 19.3673 19.6935 19.0395 19.8383C18.7118 19.9831 18.3579 20.0594 17.9997 20.0625C16.449 20.0625 15.1872 18.6328 15.1872 16.875C15.1872 15.1172 16.449 13.6875 17.9997 13.6875C18.5136 13.6893 19.0151 13.8451 19.4397 14.1347C19.564 14.2182 19.65 14.3477 19.6789 14.4947C19.7077 14.6417 19.677 14.7941 19.5934 14.9184C19.5099 15.0428 19.3804 15.1288 19.2334 15.1576C19.0864 15.1865 18.934 15.1557 18.8097 15.0722C18.5723 14.9054 18.2898 14.8149 17.9997 14.8125C17.0697 14.8125 16.3122 15.7378 16.3122 16.875C16.3122 18.0122 17.0697 18.9375 17.9997 18.9375C18.3435 18.9337 18.6752 18.8097 18.9372 18.5869V17.8125H18.7497C18.6005 17.8125 18.4574 17.7532 18.3519 17.6477C18.2464 17.5423 18.1872 17.3992 18.1872 17.25C18.1872 17.1008 18.2464 16.9577 18.3519 16.8523C18.4574 16.7468 18.6005 16.6875 18.7497 16.6875H19.4997C19.6488 16.6875 19.7919 16.7468 19.8974 16.8523C20.0029 16.9577 20.0622 17.1008 20.0622 17.25Z" fill="black"/>
</svg>
