<svg width="24" height="24" viewBox="0 0 24 24" fill="none" xmlns="http://www.w3.org/2000/svg">
<path d="M14.437 19.5C14.437 19.6492 14.3778 19.7923 14.2723 19.8977C14.1668 20.0032 14.0237 20.0625 13.8745 20.0625H11.2495C11.1003 20.0625 10.9573 20.0032 10.8518 19.8977C10.7463 19.7923 10.687 19.6492 10.687 19.5V14.25C10.687 14.1008 10.7463 13.9577 10.8518 13.8523C10.9573 13.7468 11.1003 13.6875 11.2495 13.6875C11.3987 13.6875 11.5418 13.7468 11.6473 13.8523C11.7528 13.9577 11.812 14.1008 11.812 14.25V18.9375H13.8745C14.0237 18.9375 14.1668 18.9968 14.2723 19.1023C14.3778 19.2077 14.437 19.3508 14.437 19.5ZM8.57578 13.7916C8.4545 13.7051 8.30389 13.6703 8.15696 13.6947C8.01003 13.7191 7.87879 13.8008 7.79203 13.9219L6.37453 15.9066L4.95703 13.9219C4.91394 13.8618 4.85943 13.8108 4.79663 13.7718C4.73383 13.7328 4.66396 13.7065 4.59101 13.6945C4.51806 13.6825 4.44345 13.6849 4.37146 13.7018C4.29946 13.7186 4.23148 13.7494 4.1714 13.7925C4.11132 13.8356 4.06032 13.8901 4.0213 13.9529C3.98228 14.0157 3.95602 14.0856 3.94401 14.1585C3.93199 14.2315 3.93447 14.3061 3.95128 14.3781C3.9681 14.4501 3.99894 14.518 4.04203 14.5781L5.68359 16.875L4.04203 19.1719C3.99894 19.232 3.9681 19.2999 3.95128 19.3719C3.93447 19.4439 3.93199 19.5185 3.94401 19.5915C3.95602 19.6644 3.98228 19.7343 4.0213 19.7971C4.06032 19.8599 4.11132 19.9144 4.1714 19.9575C4.23148 20.0006 4.29946 20.0314 4.37146 20.0482C4.44345 20.0651 4.51806 20.0675 4.59101 20.0555C4.66396 20.0435 4.73383 20.0172 4.79663 19.9782C4.85943 19.9392 4.91394 19.8882 4.95703 19.8281L6.37453 17.8416L7.79203 19.8253C7.84387 19.8984 7.91244 19.9581 7.99202 19.9994C8.0716 20.0406 8.15989 20.0623 8.24953 20.0625C8.36664 20.0629 8.48086 20.0261 8.57578 19.9575C8.63592 19.9146 8.68703 19.8603 8.72618 19.7976C8.76533 19.735 8.79175 19.6652 8.80394 19.5923C8.81613 19.5195 8.81384 19.4449 8.79722 19.3729C8.78059 19.301 8.74994 19.233 8.70703 19.1728L7.06546 16.875L8.70703 14.5772C8.75009 14.517 8.78085 14.4489 8.79756 14.3769C8.81427 14.3048 8.8166 14.2301 8.8044 14.1571C8.79221 14.0842 8.76574 14.0143 8.72651 13.9516C8.68728 13.8888 8.63606 13.8345 8.57578 13.7916ZM17.9058 16.2394C16.8886 15.9459 16.6486 15.7997 16.687 15.4978C16.6924 15.403 16.7196 15.3107 16.7664 15.2281C16.8132 15.1456 16.8785 15.0749 16.957 15.0216C17.482 14.6662 18.6117 14.85 18.967 14.9428C19.1107 14.9793 19.2629 14.9575 19.3906 14.8824C19.5183 14.8073 19.6112 14.6848 19.6491 14.5415C19.6871 14.3982 19.6669 14.2458 19.5931 14.1173C19.5192 13.9889 19.3977 13.8947 19.2548 13.8553C19.0673 13.8047 17.3705 13.3866 16.3289 14.0878C16.1176 14.2312 15.9402 14.4191 15.8093 14.6385C15.6784 14.8578 15.5972 15.1031 15.5714 15.3572C15.4027 16.6875 16.7208 17.0681 17.5936 17.3203C18.7298 17.6484 18.9783 17.82 18.9248 18.2353C18.92 18.3349 18.8921 18.4319 18.8433 18.5188C18.7945 18.6057 18.7261 18.68 18.6436 18.7359C18.1177 19.0856 17.0048 18.8897 16.657 18.7941C16.5177 18.766 16.3729 18.7916 16.2517 18.8659C16.1306 18.9402 16.042 19.0577 16.0039 19.1946C15.9658 19.3315 15.9809 19.4778 16.0462 19.604C16.1116 19.7303 16.2223 19.8271 16.3561 19.875C16.8052 19.9947 17.2676 20.0577 17.7323 20.0625C18.247 20.0625 18.8142 19.9734 19.2661 19.6744C19.4834 19.5294 19.6659 19.3381 19.8006 19.1143C19.9353 18.8905 20.0188 18.6396 20.0452 18.3797C20.2336 16.9116 18.8348 16.5075 17.9058 16.2394ZM3.93703 10.5V3.75C3.93703 3.4019 4.07531 3.06806 4.32145 2.82192C4.56759 2.57578 4.90143 2.4375 5.24953 2.4375H14.2495C14.3987 2.43763 14.5416 2.49698 14.647 2.6025L19.897 7.8525C20.0025 7.95789 20.0619 8.10087 20.062 8.25V10.5C20.062 10.6492 20.0028 10.7923 19.8973 10.8977C19.7918 11.0032 19.6487 11.0625 19.4995 11.0625C19.3503 11.0625 19.2073 11.0032 19.1018 10.8977C18.9963 10.7923 18.937 10.6492 18.937 10.5V8.8125H14.2495C14.1003 8.8125 13.9573 8.75324 13.8518 8.64775C13.7463 8.54226 13.687 8.39918 13.687 8.25V3.5625H5.24953C5.1998 3.5625 5.15211 3.58225 5.11694 3.61742C5.08178 3.65258 5.06203 3.70027 5.06203 3.75V10.5C5.06203 10.6492 5.00276 10.7923 4.89727 10.8977C4.79178 11.0032 4.64871 11.0625 4.49953 11.0625C4.35034 11.0625 4.20727 11.0032 4.10178 10.8977C3.99629 10.7923 3.93703 10.6492 3.93703 10.5ZM14.812 7.6875H18.1402L14.812 4.3575V7.6875Z" fill="black"/>
</svg>
