<svg width="24" height="24" viewBox="0 0 24 24" fill="none" xmlns="http://www.w3.org/2000/svg">
<path d="M6.56277 12C6.56654 13.9387 6.11708 15.8515 5.25027 17.5856C5.20363 17.6795 5.1317 17.7584 5.04258 17.8136C4.95346 17.8688 4.8507 17.8979 4.74589 17.8978C4.65023 17.8976 4.55621 17.873 4.47271 17.8263C4.3892 17.7797 4.31898 17.7125 4.26868 17.6311C4.21838 17.5497 4.18966 17.4569 4.18523 17.3613C4.18081 17.2658 4.20083 17.1707 4.24339 17.085C5.03251 15.5063 5.44152 13.7649 5.43777 12C5.43592 11.016 5.65627 10.0443 6.08239 9.1573C6.5085 8.27033 7.12938 7.49102 7.89871 6.8775C7.95639 6.83127 8.02261 6.79685 8.09359 6.77622C8.16457 6.75558 8.23891 6.74912 8.31239 6.75722C8.38586 6.76532 8.45702 6.78781 8.52181 6.8234C8.58659 6.859 8.64373 6.90701 8.68996 6.96469C8.73619 7.02237 8.7706 7.08859 8.79124 7.15957C8.81188 7.23055 8.81833 7.30489 8.81024 7.37837C8.80214 7.45184 8.77965 7.523 8.74405 7.58779C8.70846 7.65257 8.66045 7.70971 8.60277 7.75594C7.965 8.26399 7.45026 8.90958 7.09701 9.64448C6.74376 10.3794 6.56114 11.1846 6.56277 12ZM12.0003 11.4375C11.8511 11.4375 11.708 11.4968 11.6025 11.6023C11.497 11.7077 11.4378 11.8508 11.4378 12C11.4384 14.9537 10.6891 17.8591 9.25996 20.4441C9.1876 20.5746 9.17007 20.7285 9.21121 20.872C9.25235 21.0155 9.3488 21.1367 9.47933 21.2091C9.60987 21.2814 9.7638 21.299 9.90727 21.2578C10.0507 21.2167 10.172 21.1202 10.2443 20.9897C11.7656 18.2377 12.5633 15.1445 12.5628 12C12.5628 11.8508 12.5035 11.7077 12.398 11.6023C12.2925 11.4968 12.1495 11.4375 12.0003 11.4375ZM12.0003 8.4375C11.0554 8.4375 10.1493 8.81283 9.4812 9.48093C8.8131 10.149 8.43777 11.0552 8.43777 12C8.43777 12.1492 8.49703 12.2923 8.60252 12.3977C8.70801 12.5032 8.85109 12.5625 9.00027 12.5625C9.14945 12.5625 9.29253 12.5032 9.39802 12.3977C9.50351 12.2923 9.56277 12.1492 9.56277 12C9.56277 11.3535 9.81958 10.7335 10.2767 10.2764C10.7338 9.81931 11.3538 9.5625 12.0003 9.5625C12.6467 9.5625 13.2667 9.81931 13.7238 10.2764C14.181 10.7335 14.4378 11.3535 14.4378 12C14.4453 15.0098 13.7821 17.9834 12.4962 20.7047C12.4645 20.7716 12.4463 20.8441 12.4426 20.9181C12.4389 20.992 12.4498 21.066 12.4747 21.1357C12.4996 21.2054 12.538 21.2696 12.5877 21.3245C12.6374 21.3794 12.6974 21.4239 12.7643 21.4556C12.8312 21.4873 12.9037 21.5055 12.9777 21.5092C13.0516 21.5129 13.1256 21.502 13.1953 21.4771C13.2651 21.4522 13.3292 21.4138 13.3841 21.3641C13.439 21.3144 13.4836 21.2544 13.5153 21.1875C14.8722 18.3153 15.5716 15.1766 15.5628 12C15.5628 11.0552 15.1874 10.149 14.5193 9.48093C13.8512 8.81283 12.9451 8.4375 12.0003 8.4375ZM12.0003 2.4375C9.46497 2.44023 7.0343 3.44858 5.24158 5.24131C3.44885 7.03403 2.4405 9.4647 2.43777 12C2.43859 12.958 2.27627 13.909 1.95777 14.8125C1.93106 14.8826 1.91864 14.9573 1.92124 15.0323C1.92384 15.1073 1.9414 15.1809 1.9729 15.249C2.0044 15.3171 2.0492 15.3782 2.10466 15.4287C2.16012 15.4792 2.22513 15.5181 2.29584 15.5431C2.36656 15.5681 2.44157 15.5787 2.51645 15.5743C2.59133 15.5699 2.66458 15.5506 2.73187 15.5174C2.79917 15.4843 2.85916 15.4381 2.90831 15.3814C2.95746 15.3247 2.99479 15.2588 3.01808 15.1875C3.37958 14.1637 3.56379 13.0857 3.56277 12C3.56277 9.76224 4.45172 7.61612 6.03406 6.03379C7.61639 4.45145 9.76251 3.5625 12.0003 3.5625C14.238 3.5625 16.3841 4.45145 17.9665 6.03379C19.5488 7.61612 20.4378 9.76224 20.4378 12C20.4378 13.7259 20.2705 15.4477 19.9381 17.1412C19.9091 17.2876 19.9395 17.4394 20.0225 17.5633C20.1055 17.6873 20.2343 17.7732 20.3806 17.8022C20.4168 17.8088 20.4535 17.8122 20.4903 17.8125C20.6205 17.8124 20.7466 17.767 20.8471 17.6843C20.9476 17.6016 21.0163 17.4865 21.0415 17.3588C21.3886 15.5936 21.5632 13.7989 21.5628 12C21.5598 9.46478 20.5514 7.03425 18.7587 5.24158C16.966 3.44891 14.5355 2.44048 12.0003 2.4375ZM8.81277 14.4497C8.66657 14.4201 8.51461 14.4498 8.39032 14.5323C8.26602 14.6147 8.17956 14.7432 8.14996 14.8894C7.84143 16.4057 7.28928 17.8621 6.51496 19.2019C6.47802 19.2659 6.45406 19.3366 6.44444 19.4098C6.43481 19.4831 6.43972 19.5576 6.45887 19.629C6.47802 19.7004 6.51105 19.7673 6.55606 19.8259C6.60107 19.8845 6.65719 19.9337 6.72121 19.9706C6.78523 20.0076 6.85589 20.0315 6.92917 20.0411C7.00245 20.0508 7.07691 20.0459 7.1483 20.0267C7.21968 20.0076 7.2866 19.9745 7.34522 19.9295C7.40384 19.8845 7.45302 19.8284 7.48996 19.7644C8.3252 18.3183 8.92043 16.7463 9.25246 15.1097C9.2812 14.9639 9.25109 14.8127 9.16871 14.689C9.08633 14.5654 8.95837 14.4793 8.81277 14.4497ZM12.0003 5.4375C11.726 5.4374 11.4521 5.45431 11.18 5.48813C11.0319 5.50665 10.8972 5.58323 10.8056 5.70103C10.714 5.81883 10.673 5.96818 10.6915 6.11625C10.71 6.26432 10.7866 6.39896 10.9044 6.49056C11.0222 6.58216 11.1716 6.62321 11.3196 6.60469C12.0852 6.50811 12.8624 6.57555 13.5999 6.80253C14.3373 7.02952 15.018 7.41085 15.5967 7.92118C16.1754 8.43151 16.6389 9.05915 16.9563 9.76241C17.2737 10.4657 17.4379 11.2284 17.4378 12C17.4379 12.9797 17.3772 13.9585 17.2559 14.9306C17.2376 15.0785 17.2788 15.2277 17.3703 15.3453C17.4619 15.4629 17.5964 15.5393 17.7443 15.5578C17.7678 15.5591 17.7912 15.5591 17.8146 15.5578C17.9517 15.5577 18.0841 15.5076 18.1868 15.4167C18.2895 15.3259 18.3555 15.2007 18.3725 15.0647C18.4987 14.048 18.5622 13.0245 18.5628 12C18.5608 10.2601 17.8687 8.59208 16.6385 7.3618C15.4082 6.13153 13.7401 5.43949 12.0003 5.4375ZM17.3853 17.4562C17.3137 17.4378 17.2393 17.4336 17.1661 17.4439C17.093 17.4542 17.0226 17.4788 16.9589 17.5163C16.8953 17.5539 16.8397 17.6035 16.7952 17.6626C16.7508 17.7216 16.7184 17.7888 16.7 17.8603C16.5621 18.3984 16.4018 18.9375 16.2256 19.4625C16.1781 19.604 16.1887 19.7585 16.2552 19.8921C16.3217 20.0258 16.4385 20.1275 16.58 20.175C16.7214 20.2225 16.876 20.2118 17.0096 20.1454C17.1432 20.0789 17.245 19.9621 17.2925 19.8206C17.48 19.2694 17.644 18.705 17.7893 18.1406C17.8264 17.9963 17.8046 17.8432 17.7289 17.7149C17.6531 17.5866 17.5295 17.4935 17.3853 17.4562Z" fill="black"/>
</svg>
