<svg width="24" height="24" viewBox="0 0 24 24" fill="none" xmlns="http://www.w3.org/2000/svg">
<path d="M15.5622 7.12506C15.5622 7.31048 15.5072 7.49173 15.4042 7.64591C15.3012 7.80008 15.1547 7.92024 14.9834 7.9912C14.8121 8.06215 14.6236 8.08072 14.4418 8.04455C14.2599 8.00837 14.0929 7.91908 13.9618 7.78797C13.8307 7.65686 13.7414 7.48981 13.7052 7.30796C13.669 7.1261 13.6876 6.9376 13.7585 6.76629C13.8295 6.59499 13.9497 6.44857 14.1038 6.34556C14.258 6.24254 14.4393 6.18756 14.6247 6.18756C14.8733 6.18756 15.1118 6.28633 15.2876 6.46215C15.4634 6.63796 15.5622 6.87642 15.5622 7.12506ZM20.1559 13.3754C18.3587 16.6135 14.9894 18.3516 10.1387 18.5447L8.02655 23.4713C7.98321 23.5726 7.91105 23.659 7.81905 23.7197C7.72705 23.7803 7.61925 23.8126 7.50905 23.8126H7.47343C7.3575 23.8052 7.24668 23.7622 7.1562 23.6893C7.06572 23.6165 7.00002 23.5174 6.96811 23.4057L5.55155 18.4472L0.594989 17.0279C0.483146 16.996 0.383921 16.9303 0.310971 16.8397C0.238021 16.7492 0.194931 16.6382 0.187633 16.5222C0.180334 16.4061 0.209185 16.2907 0.270215 16.1917C0.331245 16.0927 0.421454 16.015 0.528426 15.9694L5.45593 13.861C5.65093 9.01225 7.38811 5.64381 10.6244 3.84381C14.9584 1.43818 20.5309 2.81256 20.8206 2.97943C20.9025 3.02754 20.9709 3.09559 21.0194 3.17725C21.1872 3.46318 22.5625 9.03568 20.1559 13.3735V13.3754ZM15.6559 16.1541C14.6908 15.8942 13.8338 15.3329 13.2099 14.5519C12.586 13.771 12.2277 12.8113 12.1872 11.8126C11.1889 11.7712 10.2298 11.4126 9.44934 10.7888C8.66888 10.165 8.10774 9.30846 7.84749 8.34381C7.05436 9.931 6.62874 11.9063 6.56968 14.2501C6.56721 14.358 6.53372 14.463 6.47321 14.5524C6.4127 14.6419 6.32772 14.712 6.22843 14.7544L2.42593 16.3819L6.16186 17.4516C6.25376 17.4779 6.33744 17.5271 6.40502 17.5947C6.4726 17.6623 6.52185 17.746 6.54811 17.8379L7.61499 21.5738L9.2453 17.7713C9.28768 17.6722 9.35767 17.5873 9.44692 17.5268C9.53618 17.4663 9.64094 17.4327 9.74874 17.4301C12.0934 17.3747 14.0669 16.9463 15.6559 16.1522V16.1541ZM20.4372 7.29193C20.4357 6.15981 20.3144 5.03102 20.0753 3.92443C18.9697 3.68528 17.8418 3.56398 16.7106 3.56256H16.6872C14.9509 3.56256 12.4684 3.86443 10.4369 5.29412C9.83214 5.71853 9.29052 6.22638 8.82811 6.80256C8.78095 7.32401 8.8493 7.84944 9.0283 8.34146C9.20731 8.83349 9.49256 9.28001 9.86377 9.64925C10.235 10.0185 10.683 10.3014 11.176 10.4777C11.6689 10.6541 12.1947 10.7197 12.7159 10.6697C12.7985 10.6619 12.8817 10.6724 12.9598 10.7005C13.0378 10.7286 13.1086 10.7736 13.1672 10.8323C13.2258 10.891 13.2707 10.9619 13.2987 11.0399C13.3266 11.118 13.337 11.2013 13.3291 11.2838C13.2792 11.8052 13.3449 12.3311 13.5215 12.8242C13.6981 13.3173 13.9813 13.7653 14.3508 14.1365C14.7204 14.5077 15.1672 14.7928 15.6595 14.9715C16.1518 15.1503 16.6775 15.2183 17.1991 15.1707C17.7743 14.7111 18.2815 14.1723 18.7056 13.5704C20.1437 11.5313 20.4419 9.02912 20.4372 7.29006V7.29193Z" fill="black"/>
</svg>
