<svg width="24" height="24" viewBox="0 0 24 24" fill="none" xmlns="http://www.w3.org/2000/svg">
<path d="M15.5622 7.12497C15.5622 7.31039 15.5072 7.49164 15.4042 7.64581C15.3012 7.79999 15.1547 7.92015 14.9834 7.9911C14.8121 8.06206 14.6236 8.08063 14.4418 8.04445C14.2599 8.00828 14.0929 7.91899 13.9618 7.78788C13.8306 7.65677 13.7414 7.48972 13.7052 7.30787C13.669 7.12601 13.6876 6.93751 13.7585 6.7662C13.8295 6.5949 13.9497 6.44848 14.1038 6.34547C14.258 6.24245 14.4393 6.18747 14.6247 6.18747C14.8733 6.18747 15.1118 6.28624 15.2876 6.46206C15.4634 6.63787 15.5622 6.87633 15.5622 7.12497ZM19.5353 14.4281C18.1487 16.3443 16.0815 17.6362 13.3919 18.2718C11.47 18.7228 9.21249 18.8343 6.64186 18.6168C6.79374 19.8043 7.01467 21.059 7.30467 22.3809C7.32055 22.4531 7.32203 22.5277 7.30903 22.6005C7.29604 22.6733 7.26883 22.7428 7.22895 22.8051C7.18907 22.8673 7.13731 22.9211 7.07663 22.9634C7.01594 23.0056 6.94753 23.0354 6.8753 23.0512C6.83555 23.0597 6.79502 23.0641 6.75436 23.0643C6.62621 23.0641 6.50199 23.0201 6.40226 22.9396C6.30253 22.8591 6.23326 22.747 6.20592 22.6218C5.88905 21.1762 5.65249 19.8012 5.49624 18.4968C4.19624 18.34 2.82311 18.1034 1.37686 17.7872C1.30465 17.7711 1.23631 17.7411 1.17572 17.6987C1.11514 17.6562 1.0635 17.6023 1.02376 17.5399C0.984018 17.4776 0.956952 17.408 0.944107 17.3351C0.931261 17.2623 0.932887 17.1876 0.948892 17.1154C0.964897 17.0432 0.994967 16.9749 1.03739 16.9143C1.0798 16.8537 1.13374 16.8021 1.19612 16.7623C1.25849 16.7226 1.32808 16.6955 1.40092 16.6827C1.47375 16.6698 1.5484 16.6715 1.62061 16.6875C2.94186 16.9768 4.19561 17.1978 5.38186 17.3503C5.16155 14.7853 5.27592 12.5306 5.7278 10.6097C6.35967 7.92091 7.65061 5.85372 9.56217 4.46622C14.02 1.23747 20.4662 2.77872 20.8122 2.98403C20.8939 3.03203 20.962 3.10012 21.01 3.18184C21.219 3.52778 22.7631 9.96841 19.5344 14.429L19.5353 14.4281ZM17.8534 14.6803C15.7161 14.3333 13.7421 13.3226 12.2109 11.7915C10.6798 10.2604 9.66918 8.28638 9.32217 6.14903C6.96624 8.46465 6.02967 12.2653 6.52186 17.4825C11.7362 17.9728 15.5359 17.0372 17.8525 14.6812L17.8534 14.6803ZM20.0678 3.93091C18.8697 3.66466 13.9347 2.78997 10.3469 5.29216C10.5322 7.44697 11.4723 9.46717 13.0015 10.9966C14.5307 12.5259 16.5508 13.4663 18.7056 13.6518C21.2069 10.0659 20.3331 5.12997 20.0678 3.93091Z" fill="black"/>
</svg>
