<svg width="24" height="24" viewBox="0 0 24 24" fill="none" xmlns="http://www.w3.org/2000/svg">
<path d="M22.2258 4.95C22.1752 4.86969 22.105 4.8035 22.0219 4.7576C21.9388 4.7117 21.8454 4.68759 21.7505 4.6875H3.75048C3.6393 4.6876 3.53064 4.72064 3.43823 4.78246C3.34582 4.84427 3.2738 4.93208 3.23127 5.03481C3.18873 5.13753 3.17759 5.25055 3.19926 5.3596C3.22092 5.46865 3.27441 5.56884 3.35298 5.6475L7.45454 9.75L3.35298 13.8525C3.27441 13.9312 3.22092 14.0313 3.19926 14.1404C3.17759 14.2494 3.18873 14.3625 3.23127 14.4652C3.2738 14.5679 3.34582 14.6557 3.43823 14.7175C3.53064 14.7794 3.6393 14.8124 3.75048 14.8125H16.5736L13.7424 20.7581C13.7106 20.8249 13.6923 20.8972 13.6885 20.971C13.6847 21.0448 13.6954 21.1186 13.7202 21.1883C13.7449 21.2579 13.7831 21.322 13.8326 21.3769C13.8821 21.4318 13.9419 21.4764 14.0086 21.5081C14.0753 21.5399 14.1477 21.5582 14.2215 21.562C14.2953 21.5658 14.3691 21.5551 14.4387 21.5303C14.5084 21.5056 14.5725 21.4674 14.6274 21.4179C14.6822 21.3684 14.7268 21.3086 14.7586 21.2419L22.2586 5.49188C22.2993 5.40612 22.3176 5.31146 22.3119 5.21672C22.3062 5.12197 22.2765 5.03022 22.2258 4.95ZM17.1099 13.6875H5.10986L8.64892 10.1475C8.75426 10.042 8.81342 9.89906 8.81342 9.75C8.81342 9.60094 8.75426 9.45797 8.64892 9.3525L5.10892 5.8125H20.8589L17.1099 13.6875Z" fill="black"/>
</svg>
