<svg width="24" height="24" viewBox="0 0 24 24" fill="none" xmlns="http://www.w3.org/2000/svg">
<path d="M21.2335 4.73433C21.1354 4.68952 21.0266 4.67383 20.9199 4.68912C20.8132 4.70442 20.7131 4.75004 20.6316 4.82058C17.9128 7.17464 15.6366 6.04683 12.9994 4.74183C10.3819 3.4462 7.4147 1.97714 4.13158 4.82058C4.07011 4.87386 4.02093 4.93984 3.98742 5.01397C3.95392 5.0881 3.93689 5.16861 3.93752 5.24995V21C3.93752 21.1491 3.99678 21.2922 4.10227 21.3977C4.20776 21.5032 4.35083 21.5625 4.50002 21.5625C4.6492 21.5625 4.79228 21.5032 4.89776 21.3977C5.00325 21.2922 5.06252 21.1491 5.06252 21V16.7606C7.69502 14.624 9.92627 15.7293 12.5006 17.0034C15.1181 18.299 18.0863 19.7671 21.3685 16.9237C21.4292 16.871 21.478 16.806 21.5114 16.7329C21.5449 16.6598 21.5623 16.5804 21.5625 16.5V5.24995C21.5633 5.14142 21.5326 5.03499 21.4742 4.9435C21.4158 4.85201 21.3322 4.77937 21.2335 4.73433ZM20.4375 6.37495V10.6125C18.9816 11.7937 17.6485 11.9859 16.3125 11.7046V7.20745C17.625 7.43714 18.9975 7.29183 20.4375 6.37495ZM15.1875 6.92527V11.369C14.475 11.1018 13.7522 10.7446 12.9994 10.3715C12.1406 9.94683 11.2453 9.50339 10.3125 9.19964V4.75402C11.0581 5.04932 11.7884 5.38192 12.5006 5.75058C13.3594 6.17527 14.2547 6.61777 15.1875 6.92152V6.92527ZM9.18752 4.41839V8.9062C7.87502 8.67652 6.50252 8.82277 5.06252 9.74339V5.50777C6.51845 4.32652 7.85158 4.13714 9.18752 4.41839ZM8.12158 14.4375C7.1372 14.4375 6.11627 14.699 5.06252 15.375V11.1365C6.51845 9.95433 7.85158 9.76308 9.18752 10.0443V14.5378C8.83575 14.4737 8.47911 14.4402 8.12158 14.4375ZM10.3125 14.8228V10.38C11.025 10.6462 11.7478 11.0043 12.5006 11.3765C13.3594 11.8012 14.2547 12.2446 15.1875 12.5484V16.9912C14.475 16.724 13.7522 16.3668 12.9994 15.9946C12.1406 15.569 11.25 15.1265 10.3125 14.8228ZM16.3125 17.3259V12.8334C16.6645 12.8952 17.0211 12.9266 17.3785 12.9271C18.3628 12.9271 19.3838 12.6665 20.4375 11.9896V16.2309C18.9816 17.4178 17.6485 17.6071 16.3125 17.3259Z" fill="black"/>
</svg>
