<svg width="24" height="24" viewBox="0 0 24 24" fill="none" xmlns="http://www.w3.org/2000/svg">
<path d="M4.1325 4.8159C4.07146 4.86857 4.02245 4.93376 3.98881 5.00703C3.95517 5.0803 3.93767 5.15995 3.9375 5.24058V21C3.9375 21.1491 3.99676 21.2922 4.10225 21.3977C4.20774 21.5032 4.35082 21.5625 4.5 21.5625C4.64918 21.5625 4.79226 21.5032 4.89775 21.3977C5.00324 21.2922 5.0625 21.1491 5.0625 21V16.7606C7.695 14.624 9.92625 15.7293 12.5006 17.0015C14.0119 17.7515 15.6403 18.5559 17.3756 18.5559C18.6478 18.5559 19.9781 18.1246 21.3656 16.9228C21.4268 16.8705 21.476 16.8057 21.5099 16.7327C21.5439 16.6598 21.5618 16.5804 21.5625 16.5V5.24058C21.5626 5.13269 21.5317 5.02704 21.4734 4.93623C21.4152 4.84543 21.332 4.77329 21.2339 4.72843C21.1358 4.68357 21.0268 4.66787 20.92 4.68321C20.8132 4.69856 20.7131 4.74429 20.6316 4.81496C17.9128 7.16996 15.6366 6.04215 12.9994 4.73621C10.3847 3.44152 7.40625 1.98371 4.1325 4.8159ZM20.4375 16.2346C17.805 18.3721 15.5738 17.2659 12.9994 15.9928C10.6313 14.82 7.97719 13.5065 5.0625 15.375V5.50496C7.695 3.36746 9.92625 4.47371 12.5006 5.74496C14.8687 6.91777 17.5228 8.23121 20.4375 6.36652V16.2346Z" fill="black"/>
</svg>
