<svg width="24" height="24" viewBox="0 0 24 24" fill="none" xmlns="http://www.w3.org/2000/svg">
<path d="M16.1569 4.95557C15.0032 3.73869 13.7044 2.66817 12.2897 1.76807C12.2022 1.71551 12.1021 1.68774 12 1.68774C11.8979 1.68774 11.7978 1.71551 11.7103 1.76807C10.2956 2.66817 8.99677 3.73869 7.84313 4.95557C5.2875 7.6387 3.9375 10.5937 3.9375 13.5C3.9375 15.6383 4.78694 17.689 6.29895 19.201C7.81096 20.713 9.86169 21.5625 12 21.5625C14.1383 21.5625 16.189 20.713 17.701 19.201C19.2131 17.689 20.0625 15.6383 20.0625 13.5C20.0625 10.5937 18.7125 7.6387 16.1569 4.95557ZM8.8125 17.25C8.8125 14.4562 11.1666 12.524 12 11.9268C12.8353 12.5221 15.1875 14.4459 15.1875 17.25C15.1874 18.0673 14.8738 18.8535 14.3113 19.4466C13.7488 20.0396 12.9803 20.3942 12.1641 20.4375C12.1088 20.4375 12.0553 20.4375 12 20.4375C11.9447 20.4375 11.8913 20.4375 11.8359 20.4375C11.0197 20.3942 10.2512 20.0396 9.68865 19.4466C9.12615 18.8535 8.81256 18.0673 8.8125 17.25ZM15.7894 19.3068C16.1336 18.676 16.3135 17.9686 16.3125 17.25C16.3125 13.2281 12.4537 10.8665 12.2897 10.7681C12.2022 10.7155 12.1021 10.6877 12 10.6877C11.8979 10.6877 11.7978 10.7155 11.7103 10.7681C11.5463 10.8665 7.6875 13.2281 7.6875 17.25C7.68653 17.9686 7.86643 18.676 8.21063 19.3068C7.24456 18.6769 6.45079 17.816 5.90111 16.8021C5.35144 15.7882 5.06321 14.6533 5.0625 13.5C5.0625 7.89089 10.6519 3.81932 12 2.91932C13.3491 3.81932 18.9375 7.88807 18.9375 13.5C18.9368 14.6533 18.6486 15.7882 18.0989 16.8021C17.5492 17.816 16.7554 18.6769 15.7894 19.3068Z" fill="black"/>
</svg>
