<svg width="24" height="24" viewBox="0 0 24 24" fill="none" xmlns="http://www.w3.org/2000/svg">
<path d="M20.6254 18.825L14.8129 9.13875V3.5625H15.7504C15.8995 3.5625 16.0426 3.50324 16.1481 3.39775C16.2536 3.29226 16.3129 3.14918 16.3129 3C16.3129 2.85082 16.2536 2.70774 16.1481 2.60225C16.0426 2.49676 15.8995 2.4375 15.7504 2.4375H8.25035C8.10117 2.4375 7.95809 2.49676 7.8526 2.60225C7.74712 2.70774 7.68785 2.85082 7.68785 3C7.68785 3.14918 7.74712 3.29226 7.8526 3.39775C7.95809 3.50324 8.10117 3.5625 8.25035 3.5625H9.18785V9.13875L3.37535 18.825C3.25594 19.0241 3.19149 19.2514 3.18858 19.4835C3.18567 19.7157 3.24439 19.9445 3.35876 20.1465C3.47314 20.3486 3.63906 20.5167 3.83962 20.6337C4.04017 20.7507 4.26817 20.8124 4.50035 20.8125H19.5004C19.7325 20.8124 19.9605 20.7507 20.1611 20.6337C20.3616 20.5167 20.5276 20.3486 20.6419 20.1465C20.7563 19.9445 20.815 19.7157 20.8121 19.4835C20.8092 19.2514 20.7448 19.0241 20.6254 18.825ZM10.2332 9.58406C10.2855 9.49651 10.313 9.39638 10.3129 9.29437V3.5625H13.6879V9.29437C13.6877 9.39638 13.7152 9.49651 13.7675 9.58406L17.4847 15.7791C16.3213 16.0753 14.5916 16.0603 12.2544 14.8734C10.6663 14.0691 9.16066 13.6734 7.77035 13.6884L10.2332 9.58406ZM19.6616 19.5938C19.6451 19.6224 19.6213 19.6461 19.5926 19.6626C19.564 19.679 19.5315 19.6876 19.4985 19.6875H4.50035C4.46761 19.6871 4.43554 19.6782 4.40732 19.6616C4.37911 19.645 4.35573 19.6213 4.33952 19.5929C4.3233 19.5644 4.31482 19.5322 4.31491 19.4995C4.315 19.4667 4.32367 19.4346 4.34004 19.4062L7.05879 14.8678C8.45473 14.6728 10.0288 15.0131 11.7407 15.8794C13.5004 16.7625 14.9694 17.0625 16.1647 17.0625C16.815 17.0673 17.4622 16.9725 18.0838 16.7812L19.6588 19.4062C19.6757 19.4345 19.6848 19.4667 19.6853 19.4996C19.6858 19.5325 19.6776 19.565 19.6616 19.5938Z" fill="black"/>
</svg>
