<svg width="24" height="24" viewBox="0 0 24 24" fill="none" xmlns="http://www.w3.org/2000/svg">
<path d="M10.0106 2.46466C9.71376 2.40213 9.40437 2.4453 9.13595 2.58669C8.86753 2.72809 8.65695 2.95884 8.54063 3.23904C8.54063 3.23904 8.54063 3.24654 8.54063 3.25029L2.54063 18.2447C2.45748 18.444 2.4248 18.6607 2.44549 18.8757C2.46617 19.0906 2.53958 19.2972 2.65919 19.477C2.77881 19.6568 2.94095 19.8043 3.13123 19.9064C3.32151 20.0085 3.53405 20.0622 3.75 20.0625H9.75C9.92236 20.0625 10.093 20.0285 10.2523 19.9626C10.4115 19.8966 10.5562 19.7999 10.6781 19.6781C10.8 19.5562 10.8966 19.4115 10.9626 19.2522C11.0286 19.093 11.0625 18.9223 11.0625 18.75V3.74997C11.0646 3.44669 10.9606 3.15221 10.7685 2.9175C10.5764 2.68279 10.3083 2.5226 10.0106 2.46466ZM9.9375 18.75C9.9375 18.7997 9.91775 18.8474 9.88258 18.8826C9.84742 18.9177 9.79973 18.9375 9.75 18.9375H3.75C3.71897 18.9376 3.6884 18.93 3.66102 18.9154C3.63364 18.9008 3.61031 18.8797 3.59312 18.8539C3.57593 18.828 3.56542 18.7983 3.56253 18.7674C3.55964 18.7365 3.56446 18.7054 3.57656 18.6768L3.58125 18.6665L9.58125 3.67404C9.59951 3.63624 9.62992 3.60566 9.66762 3.5872C9.70532 3.56874 9.74812 3.56346 9.78917 3.57221C9.83023 3.58096 9.86716 3.60324 9.89405 3.63547C9.92094 3.6677 9.93624 3.70802 9.9375 3.74997V18.75ZM21.4613 18.2447L15.4613 3.25029C15.4613 3.25029 15.4613 3.24279 15.4613 3.23904C15.3442 2.95865 15.1336 2.72754 14.8652 2.58512C14.5968 2.44271 14.2873 2.39782 13.9896 2.45811C13.6918 2.51839 13.4241 2.68012 13.2323 2.91571C13.0404 3.1513 12.9362 3.44615 12.9375 3.74997V18.75C12.9375 19.0981 13.0758 19.4319 13.3219 19.6781C13.5681 19.9242 13.9019 20.0625 14.25 20.0625H20.25C20.4662 20.0626 20.6791 20.0093 20.8697 19.9074C21.0604 19.8055 21.2229 19.658 21.3428 19.4781C21.4628 19.2983 21.5364 19.0916 21.5573 18.8764C21.5781 18.6612 21.5454 18.4442 21.4622 18.2447H21.4613ZM20.4056 18.8531C20.389 18.8795 20.3659 18.9011 20.3384 18.9158C20.311 18.9306 20.2802 18.9381 20.2491 18.9375H14.25C14.2003 18.9375 14.1526 18.9177 14.1174 18.8826C14.0823 18.8474 14.0625 18.7997 14.0625 18.75V3.74997C14.0578 3.70526 14.0708 3.66048 14.0989 3.62537C14.127 3.59026 14.1678 3.56766 14.2125 3.56247C14.2291 3.55885 14.2461 3.55696 14.2631 3.55685C14.298 3.55642 14.3322 3.56709 14.3607 3.5873C14.3891 3.60752 14.4105 3.63625 14.4216 3.66935L20.4216 18.6618L20.4263 18.6722C20.4385 18.7016 20.443 18.7336 20.4394 18.7653C20.4358 18.797 20.4242 18.8272 20.4056 18.8531Z" fill="black"/>
</svg>
