<svg width="24" height="24" viewBox="0 0 24 24" fill="none" xmlns="http://www.w3.org/2000/svg">
<path d="M19.627 12.2897C19.4228 12.1744 19.2089 12.0774 18.9876 12C19.2089 11.9226 19.4228 11.8256 19.627 11.7103C20.0321 11.4764 20.3873 11.165 20.6721 10.7938C20.9569 10.4226 21.1658 9.99901 21.2869 9.54711C21.408 9.09521 21.4389 8.62388 21.3778 8.16004C21.3168 7.69619 21.1649 7.24892 20.931 6.84375C20.6971 6.43858 20.3857 6.08345 20.0145 5.79864C19.6434 5.51383 19.2197 5.30491 18.7678 5.18382C18.3159 5.06273 17.8446 5.03183 17.3808 5.09289C16.9169 5.15395 16.4696 5.30577 16.0645 5.53969C15.863 5.65925 15.6723 5.79601 15.4945 5.94844C15.5376 5.71806 15.5605 5.48436 15.5629 5.25C15.5629 4.30517 15.1876 3.39903 14.5195 2.73093C13.8514 2.06283 12.9452 1.6875 12.0004 1.6875C11.0556 1.6875 10.1494 2.06283 9.48134 2.73093C8.81324 3.39903 8.43791 4.30517 8.43791 5.25C8.44034 5.48436 8.46324 5.71806 8.50634 5.94844C8.32848 5.79601 8.13777 5.65925 7.93634 5.53969C7.11807 5.06727 6.14564 4.93926 5.23298 5.18382C4.32032 5.42838 3.5422 6.02547 3.06978 6.84375C2.59736 7.66203 2.46936 8.63445 2.71391 9.54711C2.95847 10.4598 3.55557 11.2379 4.37384 11.7103C4.57797 11.8256 4.79194 11.9226 5.01322 12C4.79194 12.0774 4.57797 12.1744 4.37384 12.2897C3.76346 12.6419 3.27125 13.1672 2.95946 13.7992C2.64767 14.4311 2.53031 15.1414 2.62224 15.8401C2.71417 16.5388 3.01124 17.1945 3.47589 17.7243C3.94054 18.2541 4.55188 18.6342 5.23259 18.8166C5.53533 18.8976 5.84733 18.9389 6.16072 18.9394C6.78443 18.9386 7.39691 18.7734 7.93634 18.4603C8.13777 18.3408 8.32848 18.204 8.50634 18.0516C8.46324 18.2819 8.44034 18.5156 8.43791 18.75C8.43791 19.6948 8.81324 20.601 9.48134 21.2691C10.1494 21.9372 11.0556 22.3125 12.0004 22.3125C12.9452 22.3125 13.8514 21.9372 14.5195 21.2691C15.1876 20.601 15.5629 19.6948 15.5629 18.75C15.5605 18.5156 15.5376 18.2819 15.4945 18.0516C15.6723 18.204 15.863 18.3408 16.0645 18.4603C16.6041 18.7727 17.2166 18.9373 17.8401 18.9375C18.1535 18.937 18.4655 18.8957 18.7682 18.8147C19.4489 18.6324 20.0603 18.2523 20.5249 17.7224C20.9896 17.1926 21.2866 16.5369 21.3786 15.8382C21.4705 15.1395 21.3531 14.4293 21.0414 13.7973C20.7296 13.1653 20.2374 12.64 19.627 12.2878V12.2897ZM16.627 6.51375C16.9044 6.34086 17.2139 6.22555 17.5368 6.17469C17.8598 6.12382 18.1896 6.13845 18.5068 6.21769C18.824 6.29694 19.122 6.43917 19.3831 6.63595C19.6442 6.83272 19.863 7.08 20.0266 7.36308C20.1901 7.64616 20.2951 7.95925 20.3351 8.28371C20.3752 8.60818 20.3496 8.93739 20.2598 9.25176C20.1701 9.56612 20.018 9.85922 19.8126 10.1136C19.6073 10.368 19.3528 10.5785 19.0645 10.7325C18.6173 10.9903 17.6657 11.3091 15.652 11.4328L15.517 11.4253C15.3754 10.5673 14.9249 9.79071 14.2504 9.24188L14.3123 9.11906C15.4279 7.43719 16.1798 6.7725 16.627 6.51375ZM12.0004 14.4375C11.5183 14.4375 11.047 14.2945 10.6462 14.0267C10.2454 13.7589 9.93294 13.3782 9.74845 12.9328C9.56396 12.4874 9.51569 11.9973 9.60974 11.5245C9.70379 11.0516 9.93594 10.6173 10.2768 10.2764C10.6177 9.93554 11.052 9.70339 11.5249 9.60934C11.9977 9.51528 12.4878 9.56356 12.9332 9.74804C13.3786 9.93253 13.7593 10.245 14.0271 10.6458C14.2949 11.0466 14.4379 11.5179 14.4379 12C14.4379 12.6465 14.1811 13.2665 13.724 13.7236C13.2669 14.1807 12.6469 14.4375 12.0004 14.4375ZM12.0004 2.8125C12.6469 2.8125 13.2669 3.06931 13.724 3.52643C14.1811 3.98355 14.4379 4.60353 14.4379 5.25C14.4379 5.76656 14.2382 6.75 13.3382 8.55656C13.3138 8.59406 13.2885 8.63156 13.2642 8.67C12.449 8.35909 11.548 8.35909 10.7329 8.67L10.6588 8.55562C9.76259 6.75 9.56291 5.76656 9.56291 5.25C9.56291 4.60353 9.81971 3.98355 10.2768 3.52643C10.734 3.06931 11.3539 2.8125 12.0004 2.8125ZM4.93634 10.7362C4.39961 10.4018 4.01386 9.87185 3.86058 9.2583C3.70729 8.64475 3.79847 7.99565 4.11485 7.44807C4.43123 6.90049 4.94804 6.4973 5.55614 6.32367C6.16425 6.15003 6.81603 6.21954 7.37384 6.5175C7.82103 6.77625 8.57291 7.44094 9.68666 9.12281L9.74853 9.24563C9.07392 9.7957 8.62404 10.5737 8.48384 11.4328L8.34884 11.4403C6.33509 11.3128 5.38353 10.9941 4.93634 10.7362ZM7.37384 17.4862C6.81603 17.7842 6.16425 17.8537 5.55614 17.6801C4.94804 17.5064 4.43123 17.1033 4.11485 16.5557C3.79847 16.0081 3.70729 15.359 3.86058 14.7454C4.01386 14.1319 4.39961 13.6019 4.93634 13.2675C5.38353 13.0097 6.33509 12.6909 8.34884 12.5672L8.48384 12.5747C8.62539 13.4327 9.07588 14.2093 9.75041 14.7581L9.68853 14.8809C8.57291 16.5628 7.82103 17.2275 7.37384 17.4862ZM12.0004 21.1875C11.6803 21.1875 11.3633 21.1245 11.0676 21.002C10.7719 20.8795 10.5032 20.6999 10.2768 20.4736C10.0505 20.2472 9.87095 19.9785 9.74845 19.6828C9.62595 19.3871 9.56291 19.0701 9.56291 18.75C9.56291 18.2334 9.76259 17.25 10.6626 15.4434C10.687 15.4059 10.7123 15.3684 10.7367 15.33C11.5518 15.6409 12.4528 15.6409 13.2679 15.33L13.342 15.4444C14.2382 17.25 14.4379 18.2334 14.4379 18.75C14.4379 19.0701 14.3749 19.3871 14.2524 19.6828C14.1299 19.9785 13.9503 20.2472 13.724 20.4736C13.4976 20.6999 13.2289 20.8795 12.9332 21.002C12.6375 21.1245 12.3205 21.1875 12.0004 21.1875ZM19.957 16.5938C19.7969 16.871 19.5839 17.1141 19.3299 17.309C19.0759 17.5039 18.7861 17.6469 18.4768 17.7298C18.1676 17.8127 17.8451 17.8338 17.5277 17.792C17.2103 17.7502 16.9042 17.6463 16.627 17.4862C16.1798 17.2275 15.4279 16.5628 14.3142 14.8809L14.2523 14.7581C14.9269 14.208 15.3768 13.43 15.517 12.5709L15.6567 12.5625C17.6704 12.6862 18.622 13.005 19.0692 13.2628C19.3462 13.4232 19.5889 13.6366 19.7834 13.8908C19.9779 14.1451 20.1205 14.4351 20.2029 14.7444C20.2854 15.0537 20.3061 15.3762 20.2639 15.6935C20.2217 16.0109 20.1174 16.3167 19.957 16.5938Z" fill="black"/>
</svg>
