<svg width="24" height="24" viewBox="0 0 24 24" fill="none" xmlns="http://www.w3.org/2000/svg">
<path d="M22.8977 7.10251L19.8977 4.10251C19.791 4.00315 19.65 3.94905 19.5043 3.95163C19.3585 3.9542 19.2195 4.01323 19.1164 4.11629C19.0134 4.21935 18.9543 4.35839 18.9518 4.50411C18.9492 4.64984 19.0033 4.79088 19.1026 4.89751L21.1417 6.93751H19.5002C15.0002 6.93751 13.9277 9.51188 12.9808 11.7834C12.0967 13.9059 11.3251 15.7519 8.01202 15.9234C7.86613 15.0394 7.39247 14.2428 6.68546 13.6924C5.97844 13.142 5.08999 12.8783 4.19718 12.9537C3.30436 13.0291 2.47276 13.4382 1.8681 14.0994C1.26344 14.7606 0.930135 15.6254 0.934615 16.5213C0.939095 17.4173 1.28103 18.2787 1.89227 18.9338C2.50351 19.589 3.33917 19.9897 4.23269 20.0562C5.12621 20.1227 6.01198 19.8501 6.71346 19.2926C7.41493 18.7352 7.8806 17.9339 8.01765 17.0484C12.0808 16.8553 13.1073 14.3963 14.0177 12.2156C14.9477 9.98719 15.7502 8.06251 19.5002 8.06251H21.1417L19.1026 10.1025C19.0474 10.154 19.0031 10.2161 18.9723 10.2851C18.9416 10.3541 18.925 10.4286 18.9237 10.5041C18.9224 10.5796 18.9363 10.6547 18.9646 10.7247C18.9928 10.7947 19.035 10.8584 19.0884 10.9118C19.1418 10.9652 19.2054 11.0073 19.2755 11.0356C19.3455 11.0639 19.4205 11.0778 19.496 11.0765C19.5716 11.0751 19.6461 11.0586 19.7151 11.0278C19.7841 10.9971 19.8462 10.9528 19.8977 10.8975L22.8977 7.89751C23.003 7.79204 23.0622 7.64907 23.0622 7.50001C23.0622 7.35094 23.003 7.20798 22.8977 7.10251ZM4.50015 18.9375C4.01806 18.9375 3.54679 18.7946 3.14595 18.5267C2.7451 18.2589 2.43268 17.8782 2.24819 17.4328C2.0637 16.9874 2.01543 16.4973 2.10949 16.0245C2.20354 15.5516 2.43569 15.1173 2.77658 14.7764C3.11747 14.4355 3.55179 14.2034 4.02462 14.1093C4.49745 14.0153 4.98755 14.0636 5.43294 14.248C5.87833 14.4325 6.25902 14.745 6.52686 15.1458C6.79469 15.5466 6.93765 16.0179 6.93765 16.5C6.93765 17.1465 6.68084 17.7665 6.22372 18.2236C5.7666 18.6807 5.14661 18.9375 4.50015 18.9375Z" fill="black"/>
</svg>
