<svg width="24" height="24" viewBox="0 0 24 24" fill="none" xmlns="http://www.w3.org/2000/svg">
<path d="M19.5 4.68755C18.3285 4.6868 17.171 4.9428 16.1091 5.43755C14.7338 3.00942 12.3591 1.80098 12.2512 1.74661C12.1732 1.70766 12.0872 1.68738 12 1.68738C11.9128 1.68738 11.8268 1.70766 11.7487 1.74661C11.6419 1.80098 9.26625 3.00942 7.89094 5.43755C6.829 4.9428 5.67153 4.6868 4.5 4.68755C4.35082 4.68755 4.20774 4.74681 4.10225 4.8523C3.99676 4.95779 3.9375 5.10086 3.9375 5.25005V9.00005C3.94019 11.04 4.71518 13.0033 6.1066 14.4951C7.49802 15.9868 9.40266 16.8965 11.4375 17.041V20.8397L7.75125 18.9966C7.61773 18.93 7.46321 18.9191 7.32168 18.9664C7.18015 19.0137 7.0632 19.1153 6.99656 19.2488C6.92993 19.3823 6.91906 19.5368 6.96636 19.6784C7.01365 19.8199 7.11523 19.9368 7.24875 20.0035L11.7487 22.2535C11.8268 22.2924 11.9128 22.3127 12 22.3127C12.0872 22.3127 12.1732 22.2924 12.2512 22.2535L16.7512 20.0035C16.8174 19.9705 16.8763 19.9248 16.9248 19.869C16.9732 19.8132 17.0102 19.7484 17.0336 19.6784C17.0571 19.6083 17.0664 19.5343 17.0613 19.4606C17.0561 19.3869 17.0364 19.3149 17.0034 19.2488C16.9704 19.1827 16.9247 19.1237 16.869 19.0753C16.8132 19.0268 16.7484 18.9898 16.6783 18.9664C16.6082 18.943 16.5342 18.9336 16.4605 18.9388C16.3868 18.944 16.3149 18.9636 16.2488 18.9966L12.5625 20.8397V17.041C14.5973 16.8965 16.502 15.9868 17.8934 14.4951C19.2848 13.0033 20.0598 11.04 20.0625 9.00005V5.25005C20.0625 5.10086 20.0032 4.95779 19.8977 4.8523C19.7923 4.74681 19.6492 4.68755 19.5 4.68755ZM12 2.89505C12.6056 3.25505 14.1628 4.3013 15.1247 5.98317C13.7126 6.89931 12.6205 8.23218 12 9.79692C11.3795 8.23218 10.2874 6.89931 8.87531 5.98317C9.83719 4.29661 11.3944 3.25411 12 2.89505ZM5.0625 9.00005V5.83505C6.79851 5.97866 8.41723 6.76914 9.59794 8.04987C10.7787 9.33059 11.4352 11.0081 11.4375 12.75V15.915C9.70141 15.7716 8.08257 14.9812 6.90181 13.7005C5.72106 12.4197 5.06458 10.742 5.0625 9.00005ZM18.9375 9.00005C18.9354 10.742 18.2789 12.4197 17.0982 13.7005C15.9174 14.9812 14.2986 15.7716 12.5625 15.915V12.75C12.5648 11.0081 13.2213 9.33059 14.4021 8.04987C15.5828 6.76914 17.2015 5.97866 18.9375 5.83505V9.00005Z" fill="black"/>
</svg>
