<svg width="24" height="24" viewBox="0 0 24 24" fill="none" xmlns="http://www.w3.org/2000/svg">
<path d="M17.0334 20.0719C17.0585 20.1424 17.0693 20.2172 17.0651 20.2918C17.061 20.3665 17.042 20.4396 17.0092 20.5069C16.9764 20.5741 16.9306 20.6341 16.8744 20.6835C16.8181 20.7328 16.7526 20.7704 16.6817 20.7941C16.6107 20.8178 16.5358 20.8271 16.4612 20.8214C16.3866 20.8158 16.3139 20.7954 16.2473 20.7613C16.1807 20.7272 16.1216 20.6802 16.0734 20.623C16.0252 20.5658 15.9889 20.4996 15.9666 20.4282L15.2166 18.1782C15.1915 18.1077 15.1807 18.0329 15.1849 17.9583C15.189 17.8836 15.208 17.8105 15.2408 17.7432C15.2736 17.676 15.3194 17.6159 15.3756 17.5666C15.4319 17.5173 15.4974 17.4797 15.5683 17.456C15.6393 17.4323 15.7142 17.423 15.7888 17.4287C15.8634 17.4343 15.9361 17.4547 16.0027 17.4888C16.0693 17.5229 16.1284 17.5699 16.1766 17.6271C16.2248 17.6843 16.2611 17.7505 16.2834 17.8219L17.0334 20.0719ZM12 17.4375C11.8508 17.4375 11.7077 17.4968 11.6023 17.6023C11.4968 17.7078 11.4375 17.8509 11.4375 18V21C11.4375 21.1492 11.4968 21.2923 11.6023 21.3978C11.7077 21.5033 11.8508 21.5625 12 21.5625C12.1492 21.5625 12.2923 21.5033 12.3977 21.3978C12.5032 21.2923 12.5625 21.1492 12.5625 21V18C12.5625 17.8509 12.5032 17.7078 12.3977 17.6023C12.2923 17.4968 12.1492 17.4375 12 17.4375ZM8.42813 17.4666C8.28665 17.4194 8.13221 17.4303 7.99878 17.4969C7.86534 17.5636 7.76383 17.6805 7.71656 17.8219L6.96656 20.0719C6.94148 20.1424 6.93071 20.2172 6.93487 20.2918C6.93903 20.3665 6.95805 20.4396 6.99081 20.5069C7.02356 20.5741 7.0694 20.6341 7.12564 20.6835C7.18188 20.7328 7.24739 20.7704 7.31834 20.7941C7.38929 20.8178 7.46425 20.8271 7.53883 20.8214C7.61342 20.8158 7.68614 20.7954 7.75272 20.7613C7.81931 20.7272 7.87844 20.6802 7.92664 20.623C7.97484 20.5658 8.01115 20.4996 8.03344 20.4282L8.78344 18.1782C8.83065 18.0367 8.81974 17.8823 8.75311 17.7488C8.68648 17.6154 8.56958 17.5139 8.42813 17.4666ZM23.0625 10.5C23.0625 11.941 21.8494 13.2554 19.6462 14.1994C17.5941 15.0788 14.8791 15.5625 12 15.5625C9.12094 15.5625 6.40594 15.0788 4.35375 14.1994C2.15062 13.2554 0.9375 11.941 0.9375 10.5C0.9375 8.5163 3.28687 6.78286 7.08656 5.94661C7.60683 5.10598 8.33339 4.41234 9.19721 3.93157C10.061 3.45079 11.0334 3.19886 12.022 3.19971C13.0106 3.20055 13.9826 3.45415 14.8456 3.9364C15.7086 4.41864 16.434 5.11353 16.9528 5.95505C20.7281 6.79505 23.0625 8.52474 23.0625 10.5ZM7.3125 9.0788V9.36005C7.31195 9.57086 7.38297 9.77562 7.51393 9.94082C7.6449 10.106 7.82806 10.2219 8.03344 10.2694C9.33585 10.5566 10.6663 10.6968 12 10.6875C13.3332 10.698 14.6634 10.559 15.9656 10.2732C16.171 10.2256 16.3542 10.1098 16.4851 9.94457C16.6161 9.77937 16.6871 9.57461 16.6866 9.3638V9.00005C16.6866 7.75685 16.1927 6.56456 15.3136 5.68548C14.4345 4.80641 13.2423 4.31255 11.9991 4.31255H11.9362C9.38719 4.3463 7.3125 6.4838 7.3125 9.0788ZM21.9375 10.5C21.9375 9.25036 20.2144 8.00536 17.55 7.2638C17.7246 7.82599 17.8131 8.41137 17.8125 9.00005V9.36755C17.8133 9.83249 17.656 10.2839 17.3663 10.6476C17.0767 11.0113 16.6721 11.2657 16.2188 11.3691C14.8335 11.6745 13.4184 11.8232 12 11.8125C10.5816 11.8233 9.16644 11.6745 7.78125 11.3691C7.32795 11.2657 6.92327 11.0113 6.63365 10.6476C6.34404 10.2839 6.18671 9.83249 6.1875 9.36755V9.07974C6.18757 8.46054 6.28501 7.84522 6.47625 7.2563C3.79594 7.99692 2.0625 9.24567 2.0625 10.5C2.0625 11.4488 3.05906 12.42 4.79719 13.1654C6.71156 13.9857 9.27 14.4375 12 14.4375C14.73 14.4375 17.2884 13.9857 19.2028 13.1654C20.9409 12.42 21.9375 11.4488 21.9375 10.5Z" fill="black"/>
</svg>
