<svg width="24" height="24" viewBox="0 0 24 24" fill="none" xmlns="http://www.w3.org/2000/svg">
<path d="M8.8125 15.3749C8.8125 15.5604 8.75752 15.7416 8.6545 15.8958C8.55149 16.05 8.40507 16.1701 8.23377 16.2411C8.06246 16.312 7.87396 16.3306 7.6921 16.2944C7.51025 16.2583 7.3432 16.169 7.21209 16.0379C7.08098 15.9067 6.99169 15.7397 6.95552 15.5578C6.91934 15.376 6.93791 15.1875 7.00886 15.0162C7.07982 14.8449 7.19998 14.6985 7.35415 14.5954C7.50833 14.4924 7.68958 14.4374 7.875 14.4374C8.12364 14.4374 8.3621 14.5362 8.53791 14.712C8.71373 14.8878 8.8125 15.1263 8.8125 15.3749ZM21.5625 16.4999V19.4999C21.5625 19.848 21.4242 20.1819 21.1781 20.428C20.9319 20.6742 20.5981 20.8124 20.25 20.8124H16.875C16.5925 20.8112 16.3178 20.7195 16.0912 20.5508C15.8647 20.3821 15.6981 20.1452 15.6159 19.8749L14.5641 16.3124H12.1172L12.5231 17.6774C12.5231 17.6896 12.5297 17.7028 12.5325 17.7149C12.5752 17.9069 12.5742 18.1061 12.5296 18.2976C12.485 18.4892 12.3979 18.6682 12.2748 18.8216C12.1517 18.975 11.9957 19.0987 11.8183 19.1837C11.6409 19.2686 11.4467 19.3126 11.25 19.3124H6.76313C6.65018 19.3138 6.53944 19.2811 6.44531 19.2187C5.20936 18.375 4.19819 17.2423 3.49972 15.9188C2.80124 14.5954 2.4366 13.1214 2.4375 11.6249C2.4375 6.63088 6.50156 2.51057 11.4947 2.43745C12.7121 2.42018 13.9209 2.64507 15.0506 3.09904C16.1804 3.55302 17.2086 4.22703 18.0756 5.08189C18.9426 5.93676 19.631 6.95542 20.1009 8.07868C20.5707 9.20194 20.8126 10.4074 20.8125 11.6249V11.9999C20.8125 12.1491 20.7532 12.2922 20.6477 12.3977C20.5423 12.5032 20.3992 12.5624 20.25 12.5624H14.625L15.4003 15.1874H20.25C20.5981 15.1874 20.9319 15.3257 21.1781 15.5719C21.4242 15.818 21.5625 16.1518 21.5625 16.4999ZM11.4375 17.9728L9.98063 13.0734C9.98063 13.0603 9.97406 13.0471 9.97125 13.0349C9.92861 12.8433 9.92953 12.6445 9.97392 12.4532C10.0183 12.2619 10.1051 12.083 10.2278 11.9297C10.3505 11.7764 10.506 11.6526 10.6829 11.5674C10.8599 11.4822 11.0536 11.4378 11.25 11.4374H19.6875C19.6385 9.3318 18.7675 7.32892 17.2608 5.85723C15.754 4.38553 13.7312 3.56188 11.625 3.56245H11.5088C7.125 3.62432 3.5625 7.23932 3.5625 11.6249C3.56208 12.9085 3.8681 14.1736 4.45512 15.315C5.04214 16.4564 5.89319 17.4412 6.9375 18.1874H11.25C11.2771 18.1877 11.3039 18.1821 11.3286 18.1711C11.3534 18.16 11.3754 18.1437 11.3932 18.1233C11.411 18.1029 11.4242 18.0789 11.4319 18.0529C11.4395 18.0269 11.4414 17.9996 11.4375 17.9728ZM14.2303 15.1874L13.455 12.5624H11.25C11.2229 12.5622 11.1961 12.5677 11.1714 12.5788C11.1466 12.5899 11.1246 12.6062 11.1068 12.6266C11.089 12.647 11.0758 12.671 11.0681 12.697C11.0605 12.723 11.0586 12.7503 11.0625 12.7771L11.7806 15.1874H14.2303ZM20.4375 16.4999C20.4375 16.4502 20.4177 16.4025 20.3826 16.3674C20.3474 16.3322 20.2997 16.3124 20.25 16.3124H15.7359L16.6931 19.5534C16.7047 19.5925 16.7288 19.6267 16.7616 19.6509C16.7944 19.6751 16.8342 19.6879 16.875 19.6874H20.25C20.2997 19.6874 20.3474 19.6677 20.3826 19.6325C20.4177 19.5974 20.4375 19.5497 20.4375 19.4999V16.4999Z" fill="black"/>
</svg>
