<svg width="24" height="24" viewBox="0 0 24 24" fill="none" xmlns="http://www.w3.org/2000/svg">
<path d="M21.2895 5.08316C21.1889 4.49042 20.9065 3.94362 20.4813 3.5185C20.0562 3.09337 19.5094 2.81095 18.9167 2.71034C15.9167 2.20222 10.2654 1.96878 6.11698 6.11722C1.96854 10.2657 2.20198 15.9169 2.7101 18.9169C2.81071 19.5096 3.09313 20.0564 3.51825 20.4816C3.94338 20.9067 4.49017 21.1891 5.08291 21.2897C6.13599 21.4691 7.20218 21.5603 8.27041 21.5625C11.2414 21.5625 14.9379 20.8238 17.8789 17.8828C22.031 13.7344 21.7976 8.08316 21.2895 5.08316ZM15.6973 3.55316C16.7132 3.55679 17.7271 3.64553 18.7282 3.81847C19.0913 3.88001 19.4262 4.05294 19.6865 4.3133C19.9469 4.57367 20.1198 4.90857 20.1814 5.2716C20.405 6.54646 20.4867 7.84217 20.4251 9.13503L14.8648 3.57566C15.1357 3.56253 15.4123 3.55316 15.6973 3.55316ZM5.27135 20.1816C4.90832 20.1201 4.57342 19.9471 4.31306 19.6868C4.0527 19.4264 3.87976 19.0915 3.81823 18.7285C3.59461 17.4536 3.51286 16.1579 3.57448 14.865L9.13479 20.4253C7.84193 20.487 6.54622 20.4052 5.27135 20.1816ZM17.0839 17.0878C15.9664 18.2044 13.8739 19.7635 10.572 20.2753L3.72354 13.4241C4.23635 10.1222 5.79541 8.02972 6.91104 6.91222C8.02666 5.79472 10.1248 4.23753 13.4248 3.72472L20.276 10.576C19.7632 13.875 18.2042 15.9703 17.0876 17.0878H17.0839ZM15.3954 8.60441C15.5008 8.70988 15.5599 8.85284 15.5599 9.00191C15.5599 9.15097 15.5008 9.29394 15.3954 9.39941L13.9198 10.875L14.6464 11.6016C14.7016 11.6531 14.7459 11.7152 14.7767 11.7842C14.8074 11.8532 14.824 11.9277 14.8253 12.0032C14.8266 12.0787 14.8127 12.1538 14.7844 12.2238C14.7562 12.2938 14.714 12.3575 14.6606 12.4109C14.6072 12.4643 14.5436 12.5064 14.4735 12.5347C14.4035 12.563 14.3285 12.5769 14.253 12.5755C14.1774 12.5742 14.1029 12.5577 14.0339 12.5269C13.9649 12.4962 13.9028 12.4519 13.8514 12.3966L13.1248 11.671L11.6707 13.125L12.3973 13.8525C12.4526 13.904 12.4969 13.9661 12.5276 14.0351C12.5584 14.1041 12.5749 14.1786 12.5762 14.2541C12.5776 14.3297 12.5637 14.4047 12.5354 14.4747C12.5071 14.5448 12.465 14.6084 12.4116 14.6618C12.3582 14.7152 12.2945 14.7573 12.2245 14.7856C12.1544 14.8139 12.0794 14.8278 12.0039 14.8265C11.9284 14.8251 11.8539 14.8086 11.7849 14.7779C11.7159 14.7471 11.6538 14.7028 11.6023 14.6475L10.8748 13.92L9.39823 15.3957C9.34673 15.4509 9.28463 15.4952 9.21563 15.526C9.14663 15.5567 9.07214 15.5733 8.99662 15.5746C8.92109 15.5759 8.84607 15.562 8.77603 15.5337C8.70599 15.5055 8.64236 15.4634 8.58895 15.4099C8.53553 15.3565 8.49342 15.2929 8.46513 15.2229C8.43684 15.1528 8.42295 15.0778 8.42428 15.0023C8.42561 14.9267 8.44215 14.8523 8.47289 14.7833C8.50363 14.7143 8.54796 14.6522 8.60323 14.6007L10.0798 13.125L9.35323 12.3985C9.29796 12.347 9.25363 12.2849 9.22289 12.2159C9.19215 12.1469 9.17561 12.0724 9.17428 11.9969C9.17295 11.9213 9.18684 11.8463 9.21513 11.7763C9.24342 11.7062 9.28553 11.6426 9.33895 11.5892C9.39236 11.5358 9.45599 11.4937 9.52603 11.4654C9.59607 11.4371 9.67109 11.4232 9.74662 11.4245C9.82214 11.4259 9.89663 11.4424 9.96563 11.4731C10.0346 11.5039 10.0967 11.5482 10.1482 11.6035L10.8757 12.33L12.3288 10.8769L11.6023 10.1494C11.547 10.0979 11.5027 10.0358 11.472 9.96681C11.4412 9.89781 11.4247 9.82333 11.4233 9.7478C11.422 9.67227 11.4359 9.59725 11.4642 9.52721C11.4925 9.45717 11.5346 9.39354 11.588 9.34013C11.6414 9.28671 11.705 9.24461 11.7751 9.21632C11.8451 9.18802 11.9202 9.17413 11.9957 9.17546C12.0712 9.1768 12.1457 9.19333 12.2147 9.22407C12.2837 9.25482 12.3458 9.29914 12.3973 9.35441L13.1239 10.081L14.6004 8.60534C14.7058 8.49988 14.8487 8.44055 14.9977 8.44037C15.1468 8.4402 15.2898 8.49919 15.3954 8.60441Z" fill="black"/>
</svg>
