<svg width="24" height="24" viewBox="0 0 24 24" fill="none" xmlns="http://www.w3.org/2000/svg">
<path d="M19.3124 9.75V3.75C19.3124 3.60082 19.2531 3.45774 19.1476 3.35225C19.0421 3.24676 18.899 3.1875 18.7499 3.1875H5.24985C5.13577 3.18733 5.02433 3.22186 4.93032 3.2865C4.83631 3.35114 4.76418 3.44283 4.7235 3.54942C4.68282 3.656 4.67551 3.77244 4.70254 3.88328C4.72957 3.99411 4.78967 4.09411 4.87485 4.17L10.5205 9.1875H5.24985C5.10067 9.1875 4.95759 9.24676 4.8521 9.35225C4.74661 9.45774 4.68735 9.60082 4.68735 9.75V15.75C4.68748 15.8991 4.74683 16.0421 4.85235 16.1475L11.6024 22.8975C11.681 22.9761 11.7812 23.0296 11.8902 23.0512C11.9993 23.0729 12.1123 23.0617 12.215 23.0192C12.3178 22.9767 12.4056 22.9047 12.4674 22.8122C12.5292 22.7198 12.5623 22.6112 12.5624 22.5V16.3125H18.7499C18.8639 16.3127 18.9754 16.2781 19.0694 16.2135C19.1634 16.1489 19.2355 16.0572 19.2762 15.9506C19.3169 15.844 19.3242 15.7276 19.2972 15.6167C19.2701 15.5059 19.21 15.4059 19.1249 15.33L13.4792 10.3125H18.7499C18.899 10.3125 19.0421 10.2532 19.1476 10.1477C19.2531 10.0423 19.3124 9.89918 19.3124 9.75ZM17.2705 15.1875H11.9999C11.8507 15.1875 11.7076 15.2468 11.6021 15.3523C11.4966 15.4577 11.4374 15.6008 11.4374 15.75V21.1416L5.81235 15.5166V10.3125H11.7861L17.2705 15.1875ZM18.1874 9.1875H12.2136L6.72923 4.3125H18.1874V9.1875Z" fill="black"/>
</svg>
