<svg width="24" height="24" viewBox="0 0 24 24" fill="none" xmlns="http://www.w3.org/2000/svg">
<path d="M21.4495 4.71941C21.3484 4.48577 21.1809 4.28704 20.9676 4.148C20.7544 4.00896 20.505 3.93576 20.2504 3.93753H3.75042C3.49633 3.93802 3.24785 4.01224 3.03513 4.1512C2.82241 4.29016 2.6546 4.48788 2.55206 4.72035C2.44952 4.95283 2.41666 5.21007 2.45747 5.46086C2.49829 5.71164 2.61102 5.94519 2.78198 6.13316L2.78761 6.13878L9.18792 12.9732V20.25C9.18813 20.4874 9.25273 20.7203 9.37484 20.9239C9.49695 21.1275 9.672 21.2942 9.88134 21.4062C10.0907 21.5182 10.3265 21.5713 10.5636 21.5598C10.8007 21.5484 11.0303 21.4729 11.2279 21.3413L14.2279 19.3416C14.4078 19.2218 14.5554 19.0594 14.6574 18.8689C14.7595 18.6783 14.8129 18.4656 14.8129 18.2494V12.9732L21.2198 6.12941C21.392 5.94271 21.5055 5.70956 21.5463 5.45889C21.5872 5.20823 21.5535 4.9511 21.4495 4.71941ZM20.3939 5.37003L13.8407 12.3657C13.7428 12.4697 13.6882 12.6071 13.6879 12.75V18.2494C13.688 18.2804 13.6804 18.3109 13.6659 18.3382C13.6513 18.3655 13.6302 18.3888 13.6045 18.406L10.6045 20.4057C10.5763 20.4245 10.5435 20.4353 10.5096 20.437C10.4757 20.4386 10.442 20.4311 10.4121 20.4151C10.3822 20.3991 10.3572 20.3753 10.3397 20.3463C10.3222 20.3172 10.313 20.2839 10.3129 20.25V12.75C10.3129 12.6073 10.2586 12.4699 10.161 12.3657L3.61261 5.37378C3.58771 5.34762 3.57141 5.31447 3.56588 5.27878C3.56035 5.24309 3.56586 5.20656 3.58167 5.17409C3.59527 5.14065 3.61867 5.11211 3.64878 5.0922C3.67889 5.07229 3.71432 5.06195 3.75042 5.06253H20.2504C20.2869 5.06143 20.3228 5.07154 20.3533 5.09149C20.3838 5.11144 20.4074 5.14027 20.421 5.17409C20.4368 5.20569 20.4426 5.2413 20.4377 5.27626C20.4329 5.31122 20.4176 5.3439 20.3939 5.37003ZM22.8979 19.8535C22.9532 19.905 22.9975 19.9671 23.0283 20.0361C23.059 20.1051 23.0755 20.1796 23.0769 20.2551C23.0782 20.3306 23.0643 20.4056 23.036 20.4757C23.0077 20.5457 22.9656 20.6093 22.9122 20.6627C22.8588 20.7162 22.7952 20.7583 22.7251 20.7866C22.6551 20.8149 22.5801 20.8287 22.5045 20.8274C22.429 20.8261 22.3545 20.8095 22.2855 20.7788C22.2165 20.7481 22.1544 20.7037 22.1029 20.6485L20.2504 18.796L18.3989 20.6485C18.2931 20.7526 18.1506 20.8107 18.0022 20.8102C17.8538 20.8097 17.7116 20.7506 17.6066 20.6457C17.5016 20.5408 17.4423 20.3987 17.4416 20.2504C17.4409 20.102 17.4989 19.9593 17.6029 19.8535L19.4554 18L17.6029 16.1475C17.4974 16.042 17.4381 15.8988 17.4381 15.7496C17.4381 15.6003 17.4974 15.4571 17.6029 15.3516C17.7085 15.246 17.8516 15.1868 18.0009 15.1868C18.1502 15.1868 18.2933 15.246 18.3989 15.3516L20.2504 17.205L22.1029 15.3525C22.2088 15.2485 22.3514 15.1905 22.4998 15.1912C22.6482 15.1919 22.7903 15.2512 22.8952 15.3562C23 15.4612 23.0592 15.6034 23.0597 15.7518C23.0602 15.9002 23.0021 16.0428 22.8979 16.1485L21.0464 18L22.8979 19.8535Z" fill="black"/>
</svg>
