<svg width="24" height="24" viewBox="0 0 24 24" fill="none" xmlns="http://www.w3.org/2000/svg">
<path d="M21.4476 4.71941C21.347 4.48584 21.1798 4.28711 20.9668 4.14805C20.7539 4.00899 20.5047 3.93576 20.2504 3.93753H3.75042C3.49633 3.93802 3.24785 4.01224 3.03513 4.1512C2.82241 4.29016 2.6546 4.48788 2.55206 4.72035C2.44952 4.95283 2.41666 5.21007 2.45747 5.46086C2.49829 5.71164 2.61102 5.94519 2.78198 6.13316L2.78761 6.13972L9.18792 12.9732V20.25C9.18802 20.4876 9.25259 20.7207 9.37475 20.9244C9.49691 21.1281 9.67207 21.2949 9.88156 21.4069C10.091 21.5189 10.327 21.572 10.5643 21.5604C10.8016 21.5489 11.0312 21.4731 11.2289 21.3413L14.2289 19.3416C14.4086 19.2217 14.5559 19.0593 14.6578 18.8687C14.7597 18.6782 14.813 18.4655 14.8129 18.2494V12.9732L21.2189 6.12941C21.391 5.94267 21.5044 5.70946 21.5451 5.45878C21.5858 5.20809 21.5519 4.95098 21.4476 4.71941ZM20.392 5.37003L13.8398 12.3657C13.7422 12.4699 13.6879 12.6073 13.6879 12.75V18.2494C13.688 18.2804 13.6804 18.3109 13.6659 18.3382C13.6513 18.3655 13.6302 18.3888 13.6045 18.406L10.6045 20.4057C10.5763 20.4245 10.5435 20.4353 10.5096 20.437C10.4757 20.4386 10.442 20.4311 10.4121 20.4151C10.3822 20.3991 10.3572 20.3753 10.3397 20.3463C10.3222 20.3172 10.313 20.2839 10.3129 20.25V12.75C10.3129 12.6073 10.2586 12.4699 10.161 12.3657L3.61261 5.37378C3.58897 5.34689 3.57353 5.3138 3.56811 5.27841C3.56269 5.24303 3.56751 5.20683 3.582 5.1741C3.59649 5.14136 3.62006 5.11346 3.6499 5.09369C3.67974 5.07392 3.71462 5.06311 3.75042 5.06253H20.2504C20.287 5.06124 20.3231 5.07125 20.3538 5.09122C20.3845 5.11118 20.4083 5.14012 20.422 5.17409C20.4375 5.20594 20.4429 5.24174 20.4375 5.27674C20.4322 5.31174 20.4163 5.34428 20.392 5.37003Z" fill="black"/>
</svg>
