<svg width="24" height="24" viewBox="0 0 24 24" fill="none" xmlns="http://www.w3.org/2000/svg">
<path d="M19.2797 6.94504C18.3248 5.98817 17.1899 5.22979 15.9405 4.71361C14.6911 4.19743 13.3518 3.93367 12 3.93754H11.9634C6.29719 3.95723 1.6875 8.63067 1.6875 14.356V16.5C1.6875 16.8481 1.82578 17.182 2.07192 17.4281C2.31806 17.6743 2.6519 17.8125 3 17.8125H21C21.3481 17.8125 21.6819 17.6743 21.9281 17.4281C22.1742 17.182 22.3125 16.8481 22.3125 16.5V14.25C22.3162 12.8922 22.05 11.5472 21.5293 10.2931C21.0087 9.03906 20.244 7.90099 19.2797 6.94504ZM21.1875 16.5C21.1875 16.5498 21.1677 16.5975 21.1326 16.6326C21.0974 16.6678 21.0497 16.6875 21 16.6875H10.8544L16.2047 9.33098C16.2887 9.21022 16.322 9.06137 16.2976 8.91632C16.2731 8.77128 16.1928 8.64157 16.0739 8.55502C15.955 8.46846 15.8069 8.43192 15.6613 8.45325C15.5158 8.47458 15.3844 8.55206 15.2953 8.6691L9.46313 16.6875H3C2.95027 16.6875 2.90258 16.6678 2.86742 16.6326C2.83225 16.5975 2.8125 16.5498 2.8125 16.5V14.356C2.81291 14.0074 2.83231 13.659 2.87063 13.3125H5.25C5.39918 13.3125 5.54226 13.2533 5.64775 13.1478C5.75324 13.0423 5.8125 12.8992 5.8125 12.75C5.8125 12.6009 5.75324 12.4578 5.64775 12.3523C5.54226 12.2468 5.39918 12.1875 5.25 12.1875H3.06656C3.99375 8.28754 7.36219 5.33067 11.4375 5.08035V7.50004C11.4375 7.64923 11.4968 7.7923 11.6023 7.89779C11.7077 8.00328 11.8508 8.06254 12 8.06254C12.1492 8.06254 12.2923 8.00328 12.3977 7.89779C12.5032 7.7923 12.5625 7.64923 12.5625 7.50004V5.08035C14.5408 5.20178 16.4268 5.95938 17.9394 7.24017C19.452 8.52096 20.5101 10.2563 20.9559 12.1875H18.75C18.6008 12.1875 18.4577 12.2468 18.3523 12.3523C18.2468 12.4578 18.1875 12.6009 18.1875 12.75C18.1875 12.8992 18.2468 13.0423 18.3523 13.1478C18.4577 13.2533 18.6008 13.3125 18.75 13.3125H21.1406C21.1716 13.6219 21.1875 13.935 21.1875 14.25V16.5Z" fill="black"/>
</svg>
