<svg width="24" height="24" viewBox="0 0 24 24" fill="none" xmlns="http://www.w3.org/2000/svg">
<path d="M22.6787 11.0719L21.1787 9.57193C20.9364 9.32995 20.6091 9.19225 20.2667 9.18822C19.9243 9.18419 19.5938 9.31415 19.3459 9.55037L14.4493 4.65381C14.6855 4.40587 14.8155 4.07543 14.8115 3.73301C14.8075 3.39059 14.6698 3.0633 14.4278 2.82099L12.9278 1.32099C12.8059 1.1991 12.6612 1.10241 12.5019 1.03644C12.3427 0.970477 12.172 0.936523 11.9996 0.936523C11.8273 0.936523 11.6566 0.970477 11.4973 1.03644C11.3381 1.10241 11.1934 1.1991 11.0715 1.32099L5.07152 7.32099C4.94963 7.44287 4.85294 7.58757 4.78697 7.74682C4.721 7.90606 4.68705 8.07675 4.68705 8.24912C4.68705 8.42149 4.721 8.59217 4.78697 8.75142C4.85294 8.91067 4.94963 9.05536 5.07152 9.17724L6.57152 10.6772C6.81383 10.9192 7.14112 11.0569 7.48354 11.061C7.82596 11.065 8.1564 10.935 8.40433 10.6988L9.32964 11.6251L3.06808 17.8866C2.69738 18.2969 2.49846 18.8339 2.51241 19.3866C2.52636 19.9394 2.75212 20.4656 3.14304 20.8567C3.53396 21.2477 4.06016 21.4736 4.61291 21.4878C5.16566 21.5019 5.70271 21.3031 6.11308 20.9326L12.3746 14.671L13.3 15.5963C13.0637 15.8442 12.9338 16.1747 12.9378 16.5171C12.9418 16.8595 13.0795 17.1868 13.3215 17.4291L14.8215 18.9291C14.9434 19.051 15.0881 19.1477 15.2473 19.2137C15.4066 19.2796 15.5773 19.3136 15.7496 19.3136C15.922 19.3136 16.0927 19.2796 16.2519 19.2137C16.4112 19.1477 16.5559 19.051 16.6778 18.9291L22.6778 12.9291C22.7999 12.8073 22.8967 12.6626 22.9629 12.5033C23.029 12.344 23.0631 12.1732 23.0632 12.0007C23.0633 11.8282 23.0294 11.6574 22.9634 11.4981C22.8974 11.3387 22.8007 11.1939 22.6787 11.0719ZM14.095 14.7994L9.20027 9.90568L13.6553 5.45068L18.549 10.3444L14.095 14.7994ZM7.36746 9.88224L5.86746 8.38224C5.85002 8.36483 5.83619 8.34415 5.82676 8.32139C5.81732 8.29863 5.81247 8.27423 5.81247 8.24959C5.81247 8.22495 5.81732 8.20055 5.82676 8.17779C5.83619 8.15502 5.85002 8.13434 5.86746 8.11693L11.8675 2.11693C11.8849 2.0995 11.9056 2.08567 11.9283 2.07623C11.9511 2.0668 11.9755 2.06194 12.0001 2.06194C12.0248 2.06194 12.0492 2.0668 12.0719 2.07623C12.0947 2.08567 12.1154 2.0995 12.1328 2.11693L13.6328 3.61693C13.6502 3.63434 13.664 3.65502 13.6735 3.67779C13.6829 3.70055 13.6878 3.72495 13.6878 3.74959C13.6878 3.77423 13.6829 3.79863 13.6735 3.82139C13.664 3.84415 13.6502 3.86483 13.6328 3.88224L7.63277 9.88224C7.61536 9.89968 7.59468 9.91351 7.57191 9.92294C7.54915 9.93238 7.52475 9.93723 7.50011 9.93723C7.47547 9.93723 7.45107 9.93238 7.42831 9.92294C7.40555 9.91351 7.38487 9.89968 7.36746 9.88224ZM5.31808 20.1376C5.12112 20.3093 4.86631 20.3998 4.60515 20.3909C4.344 20.382 4.09597 20.2742 3.9112 20.0894C3.72643 19.9047 3.61869 19.6566 3.60975 19.3955C3.60082 19.1343 3.69136 18.8795 3.86308 18.6826L10.1246 12.421L11.5796 13.8751L5.31808 20.1376ZM21.8828 12.1332L15.8828 18.1332C15.8654 18.1506 15.8447 18.1644 15.8219 18.1739C15.7992 18.1833 15.7748 18.1882 15.7501 18.1882C15.7255 18.1882 15.7011 18.1833 15.6783 18.1739C15.6556 18.1644 15.6349 18.1506 15.6175 18.1332L14.1175 16.6332C14.1 16.6158 14.0862 16.5951 14.0768 16.5723C14.0673 16.5496 14.0625 16.5252 14.0625 16.5005C14.0625 16.4759 14.0673 16.4515 14.0768 16.4287C14.0862 16.406 14.1 16.3853 14.1175 16.3679L20.1175 10.3679C20.1349 10.3504 20.1556 10.3366 20.1783 10.3272C20.2011 10.3177 20.2255 10.3129 20.2501 10.3129C20.2748 10.3129 20.2992 10.3177 20.3219 10.3272C20.3447 10.3366 20.3654 10.3504 20.3828 10.3679L21.8828 11.8679C21.9002 11.8853 21.914 11.906 21.9235 11.9287C21.9329 11.9515 21.9378 11.9759 21.9378 12.0005C21.9378 12.0252 21.9329 12.0496 21.9235 12.0723C21.914 12.0951 21.9002 12.1158 21.8828 12.1332Z" fill="black"/>
</svg>
