<svg width="24" height="24" viewBox="0 0 24 24" fill="none" xmlns="http://www.w3.org/2000/svg">
<path d="M12.0002 7.68746C11.1473 7.68746 10.3135 7.94038 9.60434 8.41424C8.89515 8.88811 8.34241 9.56163 8.016 10.3496C7.6896 11.1376 7.6042 12.0047 7.7706 12.8413C7.937 13.6778 8.34772 14.4462 8.95084 15.0494C9.55395 15.6525 10.3224 16.0632 11.1589 16.2296C11.9954 16.396 12.8625 16.3106 13.6506 15.9842C14.4386 15.6578 15.1121 15.105 15.5859 14.3959C16.0598 13.6867 16.3127 12.8529 16.3127 12C16.3112 10.8567 15.8564 9.76063 15.048 8.9522C14.2396 8.14377 13.1435 7.68894 12.0002 7.68746ZM12.0002 15.1875C11.3698 15.1875 10.7535 15.0005 10.2294 14.6503C9.70517 14.3 9.29662 13.8022 9.05537 13.2198C8.81411 12.6373 8.75099 11.9964 8.87398 11.3781C8.99697 10.7598 9.30055 10.1918 9.74633 9.74605C10.1921 9.30027 10.7601 8.99669 11.3784 8.8737C11.9967 8.75071 12.6376 8.81384 13.22 9.05509C13.8025 9.29634 14.3003 9.70489 14.6505 10.2291C15.0008 10.7533 15.1877 11.3695 15.1877 12C15.1877 12.8453 14.8519 13.6561 14.2541 14.2539C13.6564 14.8516 12.8456 15.1875 12.0002 15.1875ZM22.1252 10.0875C22.1089 10.0091 22.0761 9.93506 22.0289 9.87039C21.9816 9.80573 21.9212 9.75188 21.8515 9.71246L18.9977 8.08308L18.9584 8.01652L18.9471 4.79996C18.9471 4.71871 18.9295 4.63842 18.8955 4.56463C18.8615 4.49083 18.812 4.42527 18.7502 4.37246C17.7535 3.52971 16.6061 2.88361 15.3687 2.46839C15.2943 2.44338 15.2155 2.43421 15.1373 2.44148C15.0592 2.44875 14.9834 2.47228 14.9149 2.51058L12.0434 4.11183H11.9496L9.08555 2.50871C9.01673 2.4703 8.94061 2.44678 8.86212 2.43967C8.78363 2.43256 8.70452 2.44203 8.62992 2.46746C7.39262 2.88388 6.24572 3.53162 5.25023 4.37621C5.18827 4.42874 5.13842 4.49407 5.10411 4.5677C5.0698 4.64134 5.05184 4.72153 5.05148 4.80277L5.03648 8.02214C5.02336 8.04371 5.01023 8.06621 4.99805 8.08871L2.14805 9.70964C2.07801 9.74967 2.01739 9.80429 1.97032 9.8698C1.92325 9.93531 1.89082 10.0102 1.87523 10.0893C1.62492 11.3514 1.62492 12.6504 1.87523 13.9125C1.89155 13.9908 1.9244 14.0648 1.97161 14.1295C2.01882 14.1942 2.07929 14.248 2.14898 14.2875L5.00086 15.9121L5.04023 15.9787L5.05148 19.1953C5.05103 19.2775 5.06859 19.3587 5.10292 19.4334C5.13726 19.5081 5.18754 19.5743 5.25023 19.6275C6.24692 20.4702 7.39438 21.1163 8.6318 21.5315C8.70619 21.5565 8.78499 21.5657 8.86313 21.5584C8.94128 21.5512 9.01704 21.5276 9.08555 21.4893L11.9552 19.8881H12.049L14.914 21.4912C14.9978 21.5375 15.092 21.562 15.1877 21.5625C15.2493 21.5627 15.3105 21.5526 15.3687 21.5325C16.6043 21.1155 17.7496 20.4678 18.7437 19.6237C18.8056 19.5712 18.8555 19.5058 18.8898 19.4322C18.9241 19.3586 18.9421 19.2784 18.9424 19.1971L18.9574 15.9778C18.9705 15.9562 18.9837 15.9337 18.9959 15.9112L21.8477 14.2903C21.9179 14.2503 21.9787 14.1958 22.026 14.1303C22.0732 14.0647 22.1058 13.9898 22.1215 13.9106C22.373 12.6487 22.3743 11.3498 22.1252 10.0875ZM21.0705 13.4428L18.3115 15.0093C18.222 15.0605 18.1481 15.135 18.0977 15.225C18.0424 15.3187 17.9843 15.4228 17.9234 15.5193C17.8679 15.6082 17.8383 15.7108 17.838 15.8156L17.823 18.929C17.0473 19.5505 16.176 20.0422 15.243 20.385L12.469 18.8325C12.3851 18.7853 12.2905 18.7604 12.1943 18.7603H12.1812C12.0649 18.7603 11.9468 18.7603 11.8305 18.7603C11.73 18.7579 11.6306 18.7825 11.5427 18.8315L8.76117 20.384C7.827 20.043 6.9544 19.5525 6.17742 18.9318L6.16617 15.8221C6.16588 15.7174 6.13633 15.6148 6.08086 15.5259C6.02086 15.4321 5.9618 15.3309 5.90648 15.2315C5.8566 15.1415 5.78299 15.067 5.69367 15.0159L2.93461 13.4437C2.77422 12.4882 2.77422 11.5126 2.93461 10.5571L5.68898 8.99058C5.77983 8.93993 5.85505 8.86536 5.90648 8.77496C5.9618 8.68121 6.01992 8.57714 6.08086 8.48058C6.13633 8.3917 6.16588 8.2891 6.16617 8.18433L6.18117 5.07089C6.95575 4.44977 7.82575 3.9581 8.75742 3.61496L11.5315 5.16746C11.619 5.21736 11.7186 5.24203 11.8193 5.23871C11.9355 5.23871 12.0537 5.23871 12.1699 5.23871C12.2705 5.24112 12.3699 5.21652 12.4577 5.16746L15.2374 3.61496C16.1716 3.95599 17.0442 4.44644 17.8212 5.06714L17.8324 8.17683C17.8327 8.2816 17.8623 8.3842 17.9177 8.47308C17.9777 8.56683 18.0368 8.66808 18.0921 8.76746C18.142 8.85744 18.2156 8.93202 18.3049 8.98308L21.0659 10.5562C21.2272 11.5116 21.2281 12.4871 21.0687 13.4428H21.0705Z" fill="black"/>
</svg>
