<svg width="24" height="24" viewBox="0 0 24 24" fill="none" xmlns="http://www.w3.org/2000/svg">
<path d="M11.9997 7.6875C11.1467 7.6875 10.313 7.94042 9.60377 8.41428C8.89459 8.88815 8.34184 9.56167 8.01544 10.3497C7.68904 11.1377 7.60363 12.0048 7.77003 12.8413C7.93643 13.6779 8.34716 14.4463 8.95027 15.0494C9.55339 15.6525 10.3218 16.0632 11.1583 16.2296C11.9949 16.396 12.862 16.3106 13.65 15.9842C14.438 15.6578 15.1115 15.1051 15.5854 14.3959C16.0592 13.6867 16.3122 12.8529 16.3122 12C16.3107 10.8567 15.8559 9.76067 15.0474 8.95224C14.239 8.14381 13.143 7.68898 11.9997 7.6875ZM11.9997 15.1875C11.3692 15.1875 10.753 15.0006 10.2288 14.6503C9.70461 14.3001 9.29606 13.8022 9.0548 13.2198C8.81355 12.6374 8.75043 11.9965 8.87342 11.3781C8.99641 10.7598 9.29999 10.1919 9.74577 9.74609C10.1915 9.30031 10.7595 8.99673 11.3778 8.87374C11.9961 8.75075 12.637 8.81388 13.2195 9.05513C13.8019 9.29638 14.2997 9.70493 14.65 10.2291C15.0002 10.7533 15.1872 11.3696 15.1872 12C15.1872 12.8454 14.8513 13.6561 14.2536 14.2539C13.6558 14.8517 12.845 15.1875 11.9997 15.1875ZM20.0622 12.2662C20.0678 12.0891 20.0678 11.9109 20.0622 11.7337L21.4994 9.9375C21.5543 9.86873 21.5923 9.78804 21.6104 9.70191C21.6285 9.61577 21.6261 9.5266 21.6034 9.44156C21.3786 8.59413 21.0419 7.78041 20.6022 7.02187C20.5585 6.94488 20.4973 6.87929 20.4235 6.83042C20.3497 6.78155 20.2654 6.75078 20.1775 6.74062L17.8853 6.48656C17.7647 6.35718 17.6397 6.23218 17.5103 6.11156L17.2553 3.81843C17.2451 3.73051 17.2144 3.64622 17.1655 3.57243C17.1166 3.49863 17.051 3.43741 16.974 3.39375C16.2164 2.95533 15.404 2.61928 14.5581 2.39437C14.4728 2.37209 14.3835 2.37016 14.2974 2.38872C14.2113 2.40729 14.1307 2.44583 14.0622 2.50125L12.2622 3.94218C12.085 3.93656 11.9069 3.93656 11.7297 3.94218L9.93717 2.50031C9.86841 2.44537 9.78772 2.40734 9.70158 2.38927C9.61545 2.37119 9.52627 2.37358 9.44123 2.39625C8.5938 2.62111 7.78009 2.95782 7.02154 3.3975C6.94456 3.44116 6.87896 3.50238 6.83009 3.57618C6.78122 3.64997 6.75046 3.73426 6.74029 3.82218L6.48998 6.11437C6.36061 6.23562 6.23561 6.36062 6.11498 6.48937L3.82092 6.75C3.733 6.76016 3.64871 6.79092 3.57492 6.83979C3.50112 6.88866 3.4399 6.95426 3.39623 7.03125C2.95782 7.78886 2.62177 8.60125 2.39686 9.44718C2.37512 9.53139 2.3732 9.6195 2.39126 9.70457C2.40931 9.78965 2.44685 9.86938 2.50092 9.9375L3.94186 11.7375C3.93623 11.9147 3.93623 12.0928 3.94186 12.27L2.49998 14.0672C2.44505 14.1359 2.40702 14.2166 2.38894 14.3028C2.37087 14.3889 2.37326 14.4781 2.39592 14.5631C2.62117 15.4089 2.95787 16.221 3.39717 16.9781C3.44084 17.0551 3.50206 17.1207 3.57585 17.1696C3.64965 17.2184 3.73393 17.2492 3.82186 17.2594L6.11404 17.5134C6.23529 17.6428 6.36029 17.7678 6.48905 17.8884L6.74967 20.1787C6.75983 20.2667 6.7906 20.351 6.83947 20.4247C6.88834 20.4985 6.95393 20.5598 7.03092 20.6034C7.78853 21.0418 8.60092 21.3779 9.44686 21.6028C9.5319 21.6255 9.62107 21.6279 9.70721 21.6098C9.79334 21.5917 9.87403 21.5537 9.94279 21.4987L11.7334 20.0625C11.9106 20.0681 12.0887 20.0681 12.2659 20.0625L14.0669 21.5044C14.1667 21.584 14.2907 21.6273 14.4184 21.6272C14.4671 21.627 14.5156 21.6207 14.5628 21.6084C15.4086 21.3832 16.2207 21.0465 16.9778 20.6072C17.0548 20.5635 17.1204 20.5023 17.1692 20.4285C17.2181 20.3547 17.2489 20.2704 17.259 20.1825L17.5131 17.8903C17.6425 17.7697 17.7675 17.6447 17.8881 17.5153L20.1812 17.2603C20.2692 17.2501 20.3534 17.2194 20.4272 17.1705C20.501 17.1216 20.5623 17.056 20.6059 16.9791C21.0445 16.2215 21.3806 15.4091 21.6053 14.5631C21.628 14.4781 21.6303 14.3889 21.6123 14.3028C21.5942 14.2166 21.5562 14.1359 21.5012 14.0672L20.0622 12.2662ZM19.7715 16.1691L17.5553 16.4156C17.4168 16.4316 17.2892 16.4984 17.1972 16.6031C17.0119 16.8119 16.8143 17.0094 16.6056 17.1947C16.5009 17.2867 16.4341 17.4143 16.4181 17.5528L16.1715 19.7681C15.6527 20.0448 15.1075 20.2691 14.544 20.4375L12.8031 19.0444C12.7033 18.9647 12.5793 18.9214 12.4515 18.9216H12.4178C12.1393 18.9375 11.8601 18.9375 11.5815 18.9216C11.4424 18.913 11.3051 18.9565 11.1962 19.0434L9.45623 20.4375C8.89332 20.2681 8.34874 20.043 7.83061 19.7653L7.58404 17.5509C7.56808 17.4124 7.50126 17.2848 7.39654 17.1928C7.18781 17.0075 6.99028 16.81 6.80498 16.6012C6.71296 16.4965 6.58534 16.4297 6.44686 16.4137L4.23154 16.1672C3.95512 15.6498 3.73089 15.1062 3.56217 14.5444L4.95529 12.8034C5.04225 12.6945 5.08568 12.5572 5.07717 12.4181C5.06123 12.1396 5.06123 11.8604 5.07717 11.5819C5.08568 11.4428 5.04225 11.3055 4.95529 11.1966L3.56217 9.45656C3.73153 8.89365 3.95671 8.34907 4.23436 7.83093L6.44873 7.58437C6.58722 7.56841 6.71484 7.50159 6.80686 7.39687C6.99215 7.18814 7.18969 6.9906 7.39842 6.80531C7.50314 6.71329 7.56995 6.58567 7.58592 6.44718L7.83248 4.23187C8.34987 3.95545 8.89349 3.73122 9.45529 3.5625L11.1962 4.95562C11.3051 5.04257 11.4424 5.086 11.5815 5.0775C11.8601 5.06156 12.1393 5.06156 12.4178 5.0775C12.5569 5.086 12.6942 5.04257 12.8031 4.95562L14.5431 3.5625C15.106 3.73185 15.6506 3.95704 16.1687 4.23468L16.4153 6.45093C16.4313 6.58942 16.4981 6.71704 16.6028 6.80906C16.8115 6.99435 17.0091 7.19189 17.1944 7.40062C17.2864 7.50534 17.414 7.57216 17.5525 7.58812L19.7678 7.83468C20.0441 8.35147 20.2683 8.89445 20.4372 9.45562L19.044 11.1966C18.9571 11.3055 18.9137 11.4428 18.9222 11.5819C18.9381 11.8604 18.9381 12.1396 18.9222 12.4181C18.9137 12.5572 18.9571 12.6945 19.044 12.8034L20.4372 14.5434C20.2684 15.1063 20.0439 15.6509 19.7669 16.1691H19.7715Z" fill="black"/>
</svg>
