<svg width="24" height="24" viewBox="0 0 24 24" fill="none" xmlns="http://www.w3.org/2000/svg">
<path d="M20.2504 3.1875H15.7504C15.6012 3.1875 15.4581 3.24676 15.3526 3.35225C15.2471 3.45774 15.1879 3.60082 15.1879 3.75C15.1879 3.89918 15.2471 4.04226 15.3526 4.14775C15.4581 4.25324 15.6012 4.3125 15.7504 4.3125H18.8929L14.5054 8.69906C13.4251 7.77399 12.0985 7.18401 10.688 7.00138C9.27758 6.81874 7.84448 7.05138 6.56422 7.67081C5.28396 8.29023 4.21212 9.26955 3.47995 10.4888C2.74778 11.7081 2.38707 13.1145 2.44198 14.5357C2.49689 15.9568 2.96504 17.3311 3.7891 18.4903C4.61316 19.6495 5.75737 20.5432 7.08161 21.062C8.40584 21.5808 9.85262 21.7021 11.2448 21.4112C12.6369 21.1203 13.9141 20.4297 14.9197 19.4241C16.2201 18.1202 16.9815 16.3743 17.0522 14.5341C17.123 12.694 16.4978 10.8948 15.3013 9.495L19.6879 5.10844V8.25C19.6879 8.39918 19.7471 8.54226 19.8526 8.64775C19.9581 8.75324 20.1012 8.8125 20.2504 8.8125C20.3995 8.8125 20.5426 8.75324 20.6481 8.64775C20.7536 8.54226 20.8129 8.39918 20.8129 8.25V3.75C20.8129 3.60082 20.7536 3.45774 20.6481 3.35225C20.5426 3.24676 20.3995 3.1875 20.2504 3.1875ZM14.1247 18.6281C13.2593 19.4932 12.1568 20.0822 10.9566 20.3207C9.75641 20.5592 8.51246 20.4365 7.38201 19.9681C6.25156 19.4997 5.28538 18.7066 4.60562 17.6892C3.92586 16.6717 3.56304 15.4755 3.56304 14.2519C3.56304 13.0282 3.92586 11.8321 4.60562 10.8146C5.28538 9.79712 6.25156 9.00405 7.38201 8.53565C8.51246 8.06725 9.75641 7.94454 10.9566 8.18305C12.1568 8.42156 13.2593 9.01058 14.1247 9.87562C15.2834 11.0373 15.9342 12.6111 15.9342 14.2519C15.9342 15.8926 15.2834 17.4664 14.1247 18.6281Z" fill="black"/>
</svg>
