<svg width="24" height="24" viewBox="0 0 24 24" fill="none" xmlns="http://www.w3.org/2000/svg">
<path d="M19.3125 9.74994C19.3128 8.32756 18.8984 6.93595 18.1198 5.74557C17.3412 4.55519 16.2324 3.61771 14.9291 3.04795C13.6258 2.4782 12.1847 2.30091 10.7821 2.5378C9.37963 2.77469 8.07665 3.41547 7.03278 4.38166C5.98892 5.34786 5.24951 6.59751 4.9051 7.97757C4.56069 9.35762 4.62625 10.8082 5.09373 12.1515C5.56122 13.4949 6.41034 14.6728 7.5371 15.5409C8.66386 16.409 10.0193 16.9296 11.4375 17.039V21.7499C11.4375 21.8991 11.4968 22.0422 11.6023 22.1477C11.7077 22.2532 11.8508 22.3124 12 22.3124C12.1492 22.3124 12.2923 22.2532 12.3977 22.1477C12.5032 22.0422 12.5625 21.8991 12.5625 21.7499V17.039C14.398 16.8954 16.1121 16.0655 17.3631 14.7146C18.614 13.3637 19.3101 11.5911 19.3125 9.74994ZM12 15.9374C10.7762 15.9374 9.57994 15.5746 8.56241 14.8947C7.54488 14.2148 6.75181 13.2484 6.2835 12.1178C5.81518 10.9872 5.69265 9.74308 5.93139 8.54282C6.17014 7.34256 6.75944 6.24006 7.62478 5.37472C8.49011 4.50938 9.59262 3.92008 10.7929 3.68134C11.9931 3.44259 13.2372 3.56512 14.3679 4.03344C15.4985 4.50176 16.4648 5.29482 17.1447 6.31235C17.8246 7.32988 18.1875 8.52617 18.1875 9.74994C18.1855 11.3904 17.533 12.963 16.373 14.123C15.2131 15.2829 13.6404 15.9355 12 15.9374Z" fill="black"/>
</svg>
