<svg width="24" height="24" viewBox="0 0 24 24" fill="none" xmlns="http://www.w3.org/2000/svg">
<path d="M19.3125 8.99994C19.3128 7.57756 18.8984 6.18595 18.1198 4.99557C17.3412 3.80519 16.2324 2.86771 14.9291 2.29795C13.6258 1.7282 12.1847 1.55091 10.7821 1.7878C9.37963 2.02469 8.07665 2.66547 7.03278 3.63166C5.98892 4.59786 5.24951 5.84751 4.9051 7.22757C4.56069 8.60762 4.62625 10.0582 5.09373 11.4015C5.56122 12.7449 6.41034 13.9228 7.5371 14.7909C8.66386 15.659 10.0193 16.1796 11.4375 16.289V18.9374H8.25C8.10082 18.9374 7.95774 18.9967 7.85225 19.1022C7.74676 19.2077 7.6875 19.3508 7.6875 19.4999C7.6875 19.6491 7.74676 19.7922 7.85225 19.8977C7.95774 20.0032 8.10082 20.0624 8.25 20.0624H11.4375V22.4999C11.4375 22.6491 11.4968 22.7922 11.6023 22.8977C11.7077 23.0032 11.8508 23.0624 12 23.0624C12.1492 23.0624 12.2923 23.0032 12.3977 22.8977C12.5032 22.7922 12.5625 22.6491 12.5625 22.4999V20.0624H15.75C15.8992 20.0624 16.0423 20.0032 16.1477 19.8977C16.2532 19.7922 16.3125 19.6491 16.3125 19.4999C16.3125 19.3508 16.2532 19.2077 16.1477 19.1022C16.0423 18.9967 15.8992 18.9374 15.75 18.9374H12.5625V16.289C14.398 16.1454 16.1121 15.3155 17.3631 13.9646C18.614 12.6137 19.3101 10.8411 19.3125 8.99994ZM5.8125 8.99994C5.8125 7.77617 6.17539 6.57988 6.85528 5.56235C7.53517 4.54482 8.50153 3.75176 9.63215 3.28344C10.7628 2.81512 12.0069 2.69259 13.2071 2.93133C14.4074 3.17008 15.5099 3.75938 16.3752 4.62472C17.2406 5.49006 17.8299 6.59256 18.0686 7.79282C18.3074 8.99308 18.1848 10.2372 17.7165 11.3678C17.2482 12.4984 16.4551 13.4648 15.4376 14.1447C14.4201 14.8246 13.2238 15.1874 12 15.1874C10.3596 15.1855 8.78692 14.5329 7.62697 13.373C6.46702 12.213 5.81449 10.6404 5.8125 8.99994Z" fill="black"/>
</svg>
