<svg width="24" height="24" viewBox="0 0 24 24" fill="none" xmlns="http://www.w3.org/2000/svg">
<path d="M12.5625 9.21286V5.4938L15.4603 7.23192C15.5237 7.27263 15.5945 7.30021 15.6687 7.31302C15.7429 7.32584 15.8189 7.32363 15.8922 7.30653C15.9655 7.28943 16.0347 7.25778 16.0955 7.21347C16.1564 7.16915 16.2077 7.11307 16.2465 7.04855C16.2853 6.98402 16.3108 6.91237 16.3214 6.83783C16.3319 6.76329 16.3275 6.68738 16.3082 6.61461C16.2889 6.54184 16.2552 6.47368 16.2091 6.41417C16.1629 6.35466 16.1054 6.30501 16.0397 6.26817L13.0931 4.50005L16.0397 2.73286C16.1676 2.65603 16.2598 2.53153 16.2959 2.38675C16.332 2.24196 16.3092 2.08876 16.2323 1.96083C16.1555 1.8329 16.031 1.74074 15.8862 1.70461C15.7415 1.66848 15.5882 1.69134 15.4603 1.76817L12 3.8438L8.53969 1.76817C8.41177 1.69134 8.25856 1.66848 8.11378 1.70461C7.96899 1.74074 7.84449 1.8329 7.76766 1.96083C7.69083 2.08876 7.66797 2.24196 7.7041 2.38675C7.74023 2.53153 7.83239 2.65603 7.96032 2.73286L10.9069 4.50005L7.96032 6.26817C7.89466 6.30501 7.83707 6.35466 7.79095 6.41417C7.74483 6.47368 7.71113 6.54184 7.69184 6.61461C7.67255 6.68738 7.66807 6.76329 7.67865 6.83783C7.68924 6.91237 7.71468 6.98402 7.75347 7.04855C7.79226 7.11307 7.84361 7.16915 7.90448 7.21347C7.96534 7.25778 8.03448 7.28943 8.1078 7.30653C8.18112 7.32363 8.25712 7.32584 8.33131 7.31302C8.4055 7.30021 8.47636 7.27263 8.53969 7.23192L11.4375 5.4938V9.21286C9.75199 9.35787 8.18758 10.1482 7.07075 11.4189C5.95393 12.6896 5.37098 14.3425 5.44355 16.0327C5.51612 17.7229 6.2386 19.3198 7.46024 20.4901C8.68187 21.6604 10.3083 22.3137 12 22.3137C13.6918 22.3137 15.3181 21.6604 16.5398 20.4901C17.7614 19.3198 18.4839 17.7229 18.5565 16.0327C18.629 14.3425 18.0461 12.6896 16.9293 11.4189C15.8124 10.1482 14.248 9.35787 12.5625 9.21286ZM12 21.1875C10.9246 21.1875 9.87328 20.8686 8.97909 20.2712C8.0849 19.6737 7.38796 18.8245 6.97641 17.8309C6.56486 16.8373 6.45718 15.744 6.66699 14.6892C6.87679 13.6345 7.39466 12.6656 8.15511 11.9052C8.91556 11.1447 9.88443 10.6268 10.9392 10.417C11.994 10.2072 13.0873 10.3149 14.0808 10.7265C15.0744 11.138 15.9236 11.8349 16.5211 12.7291C17.1186 13.6233 17.4375 14.6746 17.4375 15.75C17.4358 17.1916 16.8623 18.5737 15.843 19.593C14.8236 20.6124 13.4416 21.1858 12 21.1875Z" fill="black"/>
</svg>
