<svg width="24" height="24" viewBox="0 0 24 24" fill="none" xmlns="http://www.w3.org/2000/svg">
<path d="M19.5004 10.6875C18.8656 10.6877 18.2495 10.9026 17.7523 11.2973C17.2551 11.692 16.906 12.2433 16.7619 12.8616L12.6369 12.2728C12.4116 12.2407 12.2057 12.1278 12.0576 11.955L8.54851 7.85909C9.17476 7.60694 9.68942 7.13793 9.9985 6.53772C10.3076 5.93752 10.3904 5.24616 10.232 4.58991C10.0735 3.93367 9.68424 3.35632 9.13531 2.96331C8.58638 2.5703 7.9144 2.38786 7.24209 2.4493C6.56978 2.51074 5.94201 2.81196 5.47341 3.29795C5.00481 3.78395 4.72666 4.42229 4.68975 5.09639C4.65285 5.77049 4.85966 6.43538 5.2724 6.96962C5.68515 7.50386 6.2763 7.87182 6.93788 8.00628V15.9938C6.25498 16.1332 5.64817 16.5212 5.23508 17.0825C4.822 17.6439 4.63207 18.3387 4.70213 19.0321C4.77218 19.7256 5.09722 20.3683 5.61423 20.8357C6.13125 21.3032 6.8034 21.562 7.50038 21.562C8.19736 21.562 8.86952 21.3032 9.38653 20.8357C9.90355 20.3683 10.2286 19.7256 10.2986 19.0321C10.3687 18.3387 10.1788 17.6439 9.76568 17.0825C9.3526 16.5212 8.74578 16.1332 8.06288 15.9938V9.02065L11.2054 12.6872C11.5314 13.0674 11.9846 13.316 12.4804 13.3866L16.7319 13.9941C16.826 14.5209 17.0683 15.01 17.4306 15.4039C17.7928 15.7978 18.2599 16.0801 18.777 16.2178C19.2942 16.3555 19.8398 16.3428 20.35 16.1812C20.8602 16.0196 21.3136 15.7158 21.6572 15.3055C22.0007 14.8952 22.2201 14.3954 22.2895 13.8648C22.3589 13.3342 22.2754 12.7948 22.049 12.3099C21.8225 11.825 21.4625 11.4148 21.011 11.1274C20.5596 10.8401 20.0355 10.6875 19.5004 10.6875ZM5.81288 5.25003C5.81288 4.91627 5.91185 4.59001 6.09728 4.3125C6.2827 4.035 6.54625 3.8187 6.85461 3.69098C7.16296 3.56326 7.50226 3.52984 7.8296 3.59495C8.15694 3.66007 8.45762 3.82078 8.69363 4.05679C8.92963 4.29279 9.09035 4.59347 9.15546 4.92081C9.22057 5.24816 9.18715 5.58746 9.05943 5.89581C8.93171 6.20416 8.71542 6.46771 8.43791 6.65313C8.1604 6.83856 7.83414 6.93753 7.50038 6.93753C7.05283 6.93753 6.62361 6.75974 6.30714 6.44327C5.99067 6.1268 5.81288 5.69758 5.81288 5.25003ZM9.18788 18.75C9.18788 19.0838 9.08891 19.41 8.90349 19.6876C8.71806 19.9651 8.45451 20.1814 8.14616 20.3091C7.83781 20.4368 7.49851 20.4702 7.17117 20.4051C6.84383 20.34 6.54314 20.1793 6.30714 19.9433C6.07114 19.7073 5.91042 19.4066 5.84531 19.0792C5.7802 18.7519 5.81361 18.4126 5.94134 18.1042C6.06906 17.7959 6.28535 17.5323 6.56286 17.3469C6.84037 17.1615 7.16663 17.0625 7.50038 17.0625C7.94794 17.0625 8.37716 17.2403 8.69363 17.5568C9.01009 17.8733 9.18788 18.3025 9.18788 18.75ZM19.5004 15.1875C19.1666 15.1875 18.8404 15.0886 18.5629 14.9031C18.2854 14.7177 18.0691 14.4542 17.9413 14.1458C17.8136 13.8375 17.7802 13.4982 17.8453 13.1708C17.9104 12.8435 18.0711 12.5428 18.3071 12.3068C18.5431 12.0708 18.8438 11.9101 19.1712 11.845C19.4985 11.7798 19.8378 11.8133 20.1462 11.941C20.4545 12.0687 20.7181 12.285 20.9035 12.5625C21.0889 12.84 21.1879 13.1663 21.1879 13.5C21.1879 13.9476 21.0101 14.3768 20.6936 14.6933C20.3772 15.0097 19.9479 15.1875 19.5004 15.1875Z" fill="black"/>
</svg>
