<svg width="24" height="24" viewBox="0 0 24 24" fill="none" xmlns="http://www.w3.org/2000/svg">
<path d="M20.8125 6.00004C20.8124 5.4679 20.6613 4.9467 20.3768 4.49699C20.0923 4.04729 19.6861 3.68751 19.2053 3.45947C18.7245 3.23142 18.1889 3.14445 17.6606 3.20866C17.1324 3.27288 16.6332 3.48564 16.221 3.82224C15.8088 4.15884 15.5006 4.60546 15.3322 5.11023C15.1637 5.615 15.1419 6.15721 15.2693 6.67388C15.3967 7.19055 15.668 7.66048 16.0518 8.02909C16.4356 8.3977 16.9161 8.64986 17.4375 8.75629V10.5C17.4375 10.7487 17.3387 10.9871 17.1629 11.163C16.9871 11.3388 16.7486 11.4375 16.5 11.4375H7.50001C7.25137 11.4375 7.01291 11.3388 6.83709 11.163C6.66128 10.9871 6.56251 10.7487 6.56251 10.5V8.75629C7.24541 8.61689 7.85222 8.22889 8.2653 7.66752C8.67839 7.10614 8.86832 6.41138 8.79826 5.71793C8.72821 5.02448 8.40317 4.38174 7.88615 3.91432C7.36914 3.44691 6.69699 3.18811 6.00001 3.18811C5.30303 3.18811 4.63087 3.44691 4.11386 3.91432C3.59684 4.38174 3.2718 5.02448 3.20175 5.71793C3.1317 6.41138 3.32162 7.10614 3.73471 7.66752C4.14779 8.22889 4.75461 8.61689 5.43751 8.75629V10.5C5.43751 11.047 5.6548 11.5717 6.0416 11.9584C6.42839 12.3452 6.953 12.5625 7.50001 12.5625H11.4375V15.2438C10.7546 15.3832 10.1478 15.7712 9.73471 16.3326C9.32162 16.8939 9.1317 17.5887 9.20175 18.2821C9.2718 18.9756 9.59684 19.6183 10.1139 20.0858C10.6309 20.5532 11.303 20.812 12 20.812C12.697 20.812 13.3691 20.5532 13.8862 20.0858C14.4032 19.6183 14.7282 18.9756 14.7983 18.2821C14.8683 17.5887 14.6784 16.8939 14.2653 16.3326C13.8522 15.7712 13.2454 15.3832 12.5625 15.2438V12.5625H16.5C17.047 12.5625 17.5716 12.3452 17.9584 11.9584C18.3452 11.5717 18.5625 11.047 18.5625 10.5V8.75629C19.1974 8.6258 19.7678 8.2804 20.1777 7.77831C20.5876 7.27623 20.8118 6.64817 20.8125 6.00004ZM4.31251 6.00004C4.31251 5.66628 4.41148 5.34002 4.5969 5.06251C4.78233 4.78501 5.04588 4.56871 5.35423 4.44099C5.66258 4.31327 6.00188 4.27985 6.32922 4.34496C6.65656 4.41008 6.95725 4.57079 7.19325 4.8068C7.42925 5.0428 7.58997 5.34348 7.65508 5.67082C7.72019 5.99817 7.68678 6.33747 7.55905 6.64582C7.43133 6.95417 7.21504 7.21772 6.93753 7.40314C6.66002 7.58857 6.33376 7.68754 6.00001 7.68754C5.55245 7.68754 5.12323 7.50975 4.80676 7.19328C4.4903 6.87681 4.31251 6.44759 4.31251 6.00004ZM13.6875 18C13.6875 18.3338 13.5885 18.6601 13.4031 18.9376C13.2177 19.2151 12.9541 19.4314 12.6458 19.5591C12.3374 19.6868 11.9981 19.7202 11.6708 19.6551C11.3434 19.59 11.0428 19.4293 10.8068 19.1933C10.5708 18.9573 10.41 18.6566 10.3449 18.3293C10.2798 18.0019 10.3132 17.6626 10.441 17.3543C10.5687 17.0459 10.785 16.7824 11.0625 16.5969C11.34 16.4115 11.6663 16.3125 12 16.3125C12.4476 16.3125 12.8768 16.4903 13.1932 16.8068C13.5097 17.1233 13.6875 17.5525 13.6875 18ZM18 7.68754C17.6663 7.68754 17.34 7.58857 17.0625 7.40314C16.785 7.21772 16.5687 6.95417 16.441 6.64582C16.3132 6.33747 16.2798 5.99817 16.3449 5.67082C16.41 5.34348 16.5708 5.0428 16.8068 4.8068C17.0428 4.57079 17.3434 4.41008 17.6708 4.34496C17.9981 4.27985 18.3374 4.31327 18.6458 4.44099C18.9541 4.56871 19.2177 4.78501 19.4031 5.06251C19.5885 5.34002 19.6875 5.66628 19.6875 6.00004C19.6875 6.44759 19.5097 6.87681 19.1932 7.19328C18.8768 7.50975 18.4476 7.68754 18 7.68754Z" fill="black"/>
</svg>
