<svg width="24" height="24" viewBox="0 0 24 24" fill="none" xmlns="http://www.w3.org/2000/svg">
<path d="M10.5 14.4375C10.3508 14.4375 10.2077 14.4968 10.1023 14.6023C9.99677 14.7078 9.93751 14.8509 9.93751 15V18.1425L6.08719 14.2913C5.99984 14.2045 5.93058 14.1012 5.88343 13.9874C5.83628 13.8736 5.81217 13.7516 5.81251 13.6285V8.75348C6.49541 8.61408 7.10222 8.22609 7.51531 7.66471C7.92839 7.10333 8.11832 6.40857 8.04826 5.71512C7.97821 5.02167 7.65317 4.37893 7.13616 3.91151C6.61914 3.4441 5.94699 3.1853 5.25001 3.1853C4.55303 3.1853 3.88087 3.4441 3.36386 3.91151C2.84684 4.37893 2.5218 5.02167 2.45175 5.71512C2.3817 6.40857 2.57162 7.10333 2.98471 7.66471C3.39779 8.22609 4.00461 8.61408 4.68751 8.75348V13.6285C4.6868 13.8995 4.73979 14.1679 4.84342 14.4183C4.94705 14.6686 5.09926 14.896 5.29126 15.0872L9.14251 18.9375H6.00001C5.85082 18.9375 5.70775 18.9968 5.60226 19.1023C5.49677 19.2078 5.43751 19.3509 5.43751 19.5C5.43751 19.6492 5.49677 19.7923 5.60226 19.8978C5.70775 20.0033 5.85082 20.0625 6.00001 20.0625H10.5C10.6492 20.0625 10.7923 20.0033 10.8978 19.8978C11.0032 19.7923 11.0625 19.6492 11.0625 19.5V15C11.0625 14.8509 11.0032 14.7078 10.8978 14.6023C10.7923 14.4968 10.6492 14.4375 10.5 14.4375ZM3.56251 6.00004C3.56251 5.66629 3.66148 5.34002 3.8469 5.06252C4.03233 4.78501 4.29588 4.56872 4.60423 4.44099C4.91258 4.31327 5.25188 4.27985 5.57922 4.34497C5.90656 4.41008 6.20725 4.5708 6.44325 4.8068C6.67925 5.0428 6.83997 5.34348 6.90508 5.67083C6.97019 5.99817 6.93678 6.33747 6.80905 6.64582C6.68133 6.95417 6.46504 7.21772 6.18753 7.40315C5.91002 7.58857 5.58376 7.68754 5.25001 7.68754C4.80245 7.68754 4.37323 7.50975 4.05676 7.19328C3.7403 6.87682 3.56251 6.44759 3.56251 6.00004ZM19.3125 15.2438V10.3688C19.3132 10.0978 19.2602 9.82939 19.1566 9.57901C19.053 9.32863 18.9008 9.10126 18.7088 8.91004L14.8575 5.06254H18C18.1492 5.06254 18.2923 5.00328 18.3978 4.89779C18.5032 4.7923 18.5625 4.64923 18.5625 4.50004C18.5625 4.35086 18.5032 4.20778 18.3978 4.10229C18.2923 3.9968 18.1492 3.93754 18 3.93754H13.5C13.3508 3.93754 13.2077 3.9968 13.1023 4.10229C12.9968 4.20778 12.9375 4.35086 12.9375 4.50004V9.00004C12.9375 9.14923 12.9968 9.2923 13.1023 9.39779C13.2077 9.50328 13.3508 9.56254 13.5 9.56254C13.6492 9.56254 13.7923 9.50328 13.8978 9.39779C14.0032 9.2923 14.0625 9.14923 14.0625 9.00004V5.85754L17.9128 9.70879C18.0002 9.79561 18.0694 9.8989 18.1166 10.0127C18.1637 10.1264 18.1878 10.2484 18.1875 10.3716V15.2466C17.5046 15.386 16.8978 15.774 16.4847 16.3354C16.0716 16.8967 15.8817 17.5915 15.9517 18.285C16.0218 18.9784 16.3468 19.6212 16.8639 20.0886C17.3809 20.556 18.053 20.8148 18.75 20.8148C19.447 20.8148 20.1191 20.556 20.6362 20.0886C21.1532 19.6212 21.4782 18.9784 21.5483 18.285C21.6183 17.5915 21.4284 16.8967 21.0153 16.3354C20.6022 15.774 19.9954 15.386 19.3125 15.2466V15.2438ZM18.75 19.6875C18.4163 19.6875 18.09 19.5886 17.8125 19.4031C17.535 19.2177 17.3187 18.9542 17.191 18.6458C17.0632 18.3375 17.0298 17.9982 17.0949 17.6708C17.16 17.3435 17.3208 17.0428 17.5568 16.8068C17.7928 16.5708 18.0934 16.4101 18.4208 16.345C18.7481 16.2799 19.0874 16.3133 19.3958 16.441C19.7041 16.5687 19.9677 16.785 20.1531 17.0625C20.3385 17.34 20.4375 17.6663 20.4375 18C20.4375 18.4476 20.2597 18.8768 19.9432 19.1933C19.6268 19.5098 19.1976 19.6875 18.75 19.6875Z" fill="black"/>
</svg>
