<svg width="24" height="24" viewBox="0 0 24 24" fill="none" xmlns="http://www.w3.org/2000/svg">
<path d="M9.56251 6.00004C9.5624 5.4679 9.41132 4.9467 9.12683 4.49699C8.84234 4.04729 8.4361 3.68751 7.9553 3.45947C7.4745 3.23142 6.93887 3.14445 6.41061 3.20866C5.88236 3.27288 5.38316 3.48564 4.971 3.82224C4.55884 4.15884 4.25063 4.60546 4.08216 5.11023C3.9137 5.615 3.89189 6.15721 4.01928 6.67388C4.14667 7.19055 4.41802 7.66048 4.80182 8.02909C5.18562 8.3977 5.66612 8.64986 6.18751 8.75629V15.2438C5.50461 15.3832 4.89779 15.7712 4.48471 16.3326C4.07162 16.8939 3.8817 17.5887 3.95175 18.2821C4.0218 18.9756 4.34684 19.6183 4.86386 20.0858C5.38087 20.5532 6.05303 20.812 6.75001 20.812C7.44699 20.812 8.11914 20.5532 8.63615 20.0858C9.15317 19.6183 9.47821 18.9756 9.54826 18.2821C9.61832 17.5887 9.42839 16.8939 9.0153 16.3326C8.60222 15.7712 7.99541 15.3832 7.31251 15.2438V8.75629C7.94737 8.6258 8.51782 8.2804 8.92769 7.77831C9.33755 7.27623 9.56176 6.64817 9.56251 6.00004ZM5.06251 6.00004C5.06251 5.66628 5.16148 5.34002 5.3469 5.06251C5.53233 4.78501 5.79588 4.56871 6.10423 4.44099C6.41258 4.31327 6.75188 4.27985 7.07922 4.34496C7.40656 4.41008 7.70725 4.57079 7.94325 4.8068C8.17925 5.0428 8.33997 5.34348 8.40508 5.67082C8.47019 5.99817 8.43678 6.33747 8.30905 6.64582C8.18133 6.95417 7.96504 7.21772 7.68753 7.40314C7.41002 7.58857 7.08376 7.68754 6.75001 7.68754C6.30245 7.68754 5.87323 7.50975 5.55676 7.19328C5.2403 6.87681 5.06251 6.44759 5.06251 6.00004ZM8.43751 18C8.43751 18.3338 8.33854 18.6601 8.15311 18.9376C7.96769 19.2151 7.70413 19.4314 7.39578 19.5591C7.08743 19.6868 6.74813 19.7202 6.42079 19.6551C6.09345 19.59 5.79276 19.4293 5.55676 19.1933C5.32076 18.9573 5.16004 18.6566 5.09493 18.3293C5.02982 18.0019 5.06324 17.6626 5.19096 17.3543C5.31868 17.0459 5.53497 16.7824 5.81248 16.5969C6.08999 16.4115 6.41625 16.3125 6.75001 16.3125C7.19756 16.3125 7.62678 16.4903 7.94325 16.8068C8.25972 17.1233 8.43751 17.5525 8.43751 18ZM19.3125 15.2438V10.3688C19.3132 10.0978 19.2602 9.82938 19.1566 9.579C19.053 9.32862 18.9008 9.10126 18.7088 8.91004L14.8575 5.06254H18C18.1492 5.06254 18.2923 5.00327 18.3978 4.89779C18.5032 4.7923 18.5625 4.64922 18.5625 4.50004C18.5625 4.35085 18.5032 4.20778 18.3978 4.10229C18.2923 3.9968 18.1492 3.93754 18 3.93754H13.5C13.3508 3.93754 13.2077 3.9968 13.1023 4.10229C12.9968 4.20778 12.9375 4.35085 12.9375 4.50004V9.00004C12.9375 9.14922 12.9968 9.2923 13.1023 9.39779C13.2077 9.50327 13.3508 9.56254 13.5 9.56254C13.6492 9.56254 13.7923 9.50327 13.8978 9.39779C14.0032 9.2923 14.0625 9.14922 14.0625 9.00004V5.85754L17.9128 9.70879C18.0003 9.79554 18.0696 9.89882 18.1167 10.0126C18.1639 10.1264 18.1879 10.2484 18.1875 10.3716V15.2466C17.5046 15.386 16.8978 15.774 16.4847 16.3354C16.0716 16.8967 15.8817 17.5915 15.9517 18.285C16.0218 18.9784 16.3468 19.6211 16.8639 20.0886C17.3809 20.556 18.053 20.8148 18.75 20.8148C19.447 20.8148 20.1191 20.556 20.6362 20.0886C21.1532 19.6211 21.4782 18.9784 21.5483 18.285C21.6183 17.5915 21.4284 16.8967 21.0153 16.3354C20.6022 15.774 19.9954 15.386 19.3125 15.2466V15.2438ZM18.75 19.6875C18.4163 19.6875 18.09 19.5886 17.8125 19.4031C17.535 19.2177 17.3187 18.9542 17.191 18.6458C17.0632 18.3375 17.0298 17.9982 17.0949 17.6708C17.16 17.3435 17.3208 17.0428 17.5568 16.8068C17.7928 16.5708 18.0934 16.4101 18.4208 16.345C18.7481 16.2799 19.0874 16.3133 19.3958 16.441C19.7041 16.5687 19.9677 16.785 20.1531 17.0625C20.3385 17.34 20.4375 17.6663 20.4375 18C20.4375 18.4476 20.2597 18.8768 19.9432 19.1933C19.6268 19.5097 19.1976 19.6875 18.75 19.6875Z" fill="black"/>
</svg>
