<svg width="24" height="24" viewBox="0 0 24 24" fill="none" xmlns="http://www.w3.org/2000/svg">
<path d="M21.5625 6.00004C21.5624 5.4679 21.4113 4.9467 21.1268 4.49699C20.8423 4.04729 20.4361 3.68751 19.9553 3.45947C19.4745 3.23142 18.9389 3.14445 18.4106 3.20866C17.8824 3.27288 17.3832 3.48564 16.971 3.82224C16.5588 4.15884 16.2506 4.60546 16.0822 5.11023C15.9137 5.615 15.8919 6.15721 16.0193 6.67388C16.1467 7.19055 16.418 7.66048 16.8018 8.02909C17.1856 8.3977 17.6661 8.64986 18.1875 8.75629V10.5C18.1875 10.7487 18.0887 10.9871 17.9129 11.163C17.7371 11.3388 17.4986 11.4375 17.25 11.4375H9.00001C8.6739 11.4374 8.35248 11.5152 8.06251 11.6644V8.75816C8.74541 8.61877 9.35222 8.23077 9.7653 7.66939C10.1784 7.10802 10.3683 6.41326 10.2983 5.71981C10.2282 5.02635 9.90317 4.38362 9.38615 3.9162C8.86914 3.44878 8.19699 3.18999 7.50001 3.18999C6.80303 3.18999 6.13087 3.44878 5.61386 3.9162C5.09684 4.38362 4.7718 5.02635 4.70175 5.71981C4.6317 6.41326 4.82162 7.10802 5.23471 7.66939C5.64779 8.23077 6.25461 8.61877 6.93751 8.75816V15.2457C6.25461 15.3851 5.64779 15.7731 5.23471 16.3344C4.82162 16.8958 4.6317 17.5906 4.70175 18.284C4.7718 18.9775 5.09684 19.6202 5.61386 20.0876C6.13087 20.555 6.80303 20.8138 7.50001 20.8138C8.19699 20.8138 8.86914 20.555 9.38615 20.0876C9.90317 19.6202 10.2282 18.9775 10.2983 18.284C10.3683 17.5906 10.1784 16.8958 9.7653 16.3344C9.35222 15.7731 8.74541 15.3851 8.06251 15.2457V13.5C8.06251 13.2514 8.16128 13.0129 8.33709 12.8371C8.51291 12.6613 8.75137 12.5625 9.00001 12.5625H17.25C17.797 12.5625 18.3216 12.3452 18.7084 11.9584C19.0952 11.5717 19.3125 11.047 19.3125 10.5V8.75629C19.9474 8.6258 20.5178 8.2804 20.9277 7.77831C21.3376 7.27623 21.5618 6.64817 21.5625 6.00004ZM5.81251 6.00004C5.81251 5.66628 5.91148 5.34002 6.0969 5.06251C6.28233 4.78501 6.54588 4.56871 6.85423 4.44099C7.16258 4.31327 7.50188 4.27985 7.82922 4.34496C8.15656 4.41008 8.45725 4.57079 8.69325 4.8068C8.92925 5.0428 9.08997 5.34348 9.15508 5.67082C9.22019 5.99817 9.18678 6.33747 9.05905 6.64582C8.93133 6.95417 8.71504 7.21772 8.43753 7.40314C8.16002 7.58857 7.83376 7.68754 7.50001 7.68754C7.05245 7.68754 6.62323 7.50975 6.30676 7.19328C5.9903 6.87681 5.81251 6.44759 5.81251 6.00004ZM9.18751 18C9.18751 18.3338 9.08854 18.6601 8.90311 18.9376C8.71769 19.2151 8.45413 19.4314 8.14578 19.5591C7.83743 19.6868 7.49813 19.7202 7.17079 19.6551C6.84345 19.59 6.54276 19.4293 6.30676 19.1933C6.07076 18.9573 5.91004 18.6566 5.84493 18.3293C5.77982 18.0019 5.81324 17.6626 5.94096 17.3543C6.06868 17.0459 6.28497 16.7824 6.56248 16.5969C6.83999 16.4115 7.16625 16.3125 7.50001 16.3125C7.94756 16.3125 8.37678 16.4903 8.69325 16.8068C9.00972 17.1233 9.18751 17.5525 9.18751 18ZM18.75 7.68754C18.4163 7.68754 18.09 7.58857 17.8125 7.40314C17.535 7.21772 17.3187 6.95417 17.191 6.64582C17.0632 6.33747 17.0298 5.99817 17.0949 5.67082C17.16 5.34348 17.3208 5.0428 17.5568 4.8068C17.7928 4.57079 18.0934 4.41008 18.4208 4.34496C18.7481 4.27985 19.0874 4.31327 19.3958 4.44099C19.7041 4.56871 19.9677 4.78501 20.1531 5.06251C20.3385 5.34002 20.4375 5.66628 20.4375 6.00004C20.4375 6.44759 20.2597 6.87681 19.9432 7.19328C19.6268 7.50975 19.1976 7.68754 18.75 7.68754Z" fill="black"/>
</svg>
