<svg width="24" height="24" viewBox="0 0 24 24" fill="none" xmlns="http://www.w3.org/2000/svg">
<path d="M23.25 11.4376H17.0306C16.8912 10.2009 16.3012 9.05902 15.3732 8.22982C14.4453 7.40062 13.2444 6.94226 12 6.94226C10.7556 6.94226 9.55471 7.40062 8.62676 8.22982C7.69882 9.05902 7.1088 10.2009 6.96937 11.4376H0.75C0.600816 11.4376 0.457742 11.4968 0.352252 11.6023C0.246763 11.7078 0.1875 11.8509 0.1875 12.0001C0.1875 12.1492 0.246763 12.2923 0.352252 12.3978C0.457742 12.5033 0.600816 12.5626 0.75 12.5626H6.96937C7.1088 13.7992 7.69882 14.9411 8.62676 15.7703C9.55471 16.5995 10.7556 17.0579 12 17.0579C13.2444 17.0579 14.4453 16.5995 15.3732 15.7703C16.3012 14.9411 16.8912 13.7992 17.0306 12.5626H23.25C23.3992 12.5626 23.5423 12.5033 23.6477 12.3978C23.7532 12.2923 23.8125 12.1492 23.8125 12.0001C23.8125 11.8509 23.7532 11.7078 23.6477 11.6023C23.5423 11.4968 23.3992 11.4376 23.25 11.4376ZM12 15.9376C11.2212 15.9376 10.46 15.7066 9.81244 15.274C9.16492 14.8413 8.66024 14.2264 8.36222 13.5069C8.0642 12.7874 7.98623 11.9957 8.13816 11.2319C8.29009 10.4681 8.6651 9.76649 9.21577 9.21583C9.76644 8.66516 10.468 8.29015 11.2318 8.13822C11.9956 7.98629 12.7873 8.06426 13.5068 8.36228C14.2263 8.6603 14.8413 9.16498 15.2739 9.8125C15.7066 10.46 15.9375 11.2213 15.9375 12.0001C15.9375 13.0443 15.5227 14.0459 14.7842 14.7843C14.0458 15.5227 13.0443 15.9376 12 15.9376Z" fill="black"/>
</svg>
