<svg width="24" height="24" viewBox="0 0 24 24" fill="none" xmlns="http://www.w3.org/2000/svg">
<path d="M21.3946 11.0259L19.5299 3.88966C19.4813 3.69579 19.3716 3.52269 19.2171 3.39593C19.0625 3.26917 18.8713 3.19546 18.6716 3.18569C18.472 3.17591 18.2745 3.23059 18.1083 3.34166C17.9421 3.45272 17.816 3.61428 17.7487 3.80248L16.0471 8.43748H7.95275L6.24932 3.80248C6.18197 3.61428 6.05589 3.45272 5.8897 3.34166C5.72351 3.23059 5.52601 3.17591 5.32637 3.18569C5.12672 3.19546 4.93551 3.26917 4.78095 3.39593C4.6264 3.52269 4.51671 3.69579 4.46807 3.88966L2.60525 11.0259C2.34018 12.0382 2.38833 13.1071 2.74333 14.0914C3.09834 15.0757 3.74352 15.9293 4.59369 16.5394L11.4628 21.3928C11.6198 21.5033 11.807 21.5625 11.999 21.5625C12.191 21.5625 12.3783 21.5033 12.5353 21.3928L19.4062 16.5394C20.2564 15.9293 20.9015 15.0757 21.2565 14.0914C21.6116 13.1071 21.6597 12.0382 21.3946 11.0259ZM5.40463 4.76435L7.03119 9.19404C7.07096 9.30223 7.143 9.39559 7.23757 9.46149C7.33214 9.52738 7.44467 9.56264 7.55994 9.56248H16.4399C16.5552 9.56264 16.6677 9.52738 16.7623 9.46149C16.8569 9.39559 16.9289 9.30223 16.9687 9.19404L18.5962 4.76435L20.0024 10.1569L11.9999 15.8119L3.99557 10.1569L5.40463 4.76435ZM3.69182 11.3194L11.0249 16.5L8.75713 18.1031L5.24432 15.6206C4.58136 15.1444 4.07819 14.4785 3.80106 13.7107C3.52393 12.9429 3.48585 12.1092 3.69182 11.3194ZM11.9999 20.3934L9.73213 18.7912L11.9999 17.189L14.2678 18.7912L11.9999 20.3934ZM18.7556 15.6206L15.2428 18.1031L12.9749 16.5L20.3081 11.3194C20.514 12.1092 20.4759 12.9429 20.1988 13.7107C19.9217 14.4785 19.4185 15.1444 18.7556 15.6206Z" fill="black"/>
</svg>
