<svg width="24" height="24" viewBox="0 0 24 24" fill="none" xmlns="http://www.w3.org/2000/svg">
<path d="M12.7502 17.0625C14.1965 17.0625 15.6103 16.6336 16.8128 15.8301C18.0153 15.0266 18.9526 13.8846 19.5061 12.5484C20.0595 11.2122 20.2044 9.74191 19.9222 8.32342C19.64 6.90494 18.9436 5.60197 17.9209 4.5793C16.8983 3.55663 15.5953 2.86018 14.1768 2.57803C12.7583 2.29587 11.288 2.44069 9.95183 2.99415C8.61565 3.54762 7.47359 4.48488 6.67009 5.68741C5.86658 6.88995 5.43771 8.30374 5.43771 9.75002C5.43994 11.6887 6.21108 13.5474 7.58195 14.9183C8.95283 16.2891 10.8115 17.0603 12.7502 17.0625ZM12.7502 3.56252C13.974 3.56252 15.1703 3.92541 16.1878 4.6053C17.2053 5.28519 17.9984 6.25155 18.4667 7.38217C18.935 8.51278 19.0576 9.75688 18.8188 10.9571C18.5801 12.1574 17.9908 13.2599 17.1254 14.1252C16.2601 14.9906 15.1576 15.5799 13.9573 15.8186C12.7571 16.0574 11.513 15.9348 10.3824 15.4665C9.25174 14.9982 8.28538 14.2051 7.60549 13.1876C6.9256 12.1701 6.56271 10.9738 6.56271 9.75002C6.56469 8.1096 7.21722 6.53694 8.37718 5.37699C9.53713 4.21704 11.1098 3.56451 12.7502 3.56252ZM19.9061 16.396C20.0094 16.5035 20.0657 16.6477 20.0627 16.7968C20.0597 16.9458 19.9977 17.0876 19.8902 17.191C18.1136 18.9046 15.7778 19.9187 13.3127 20.0466V21.9375H15.7502C15.8994 21.9375 16.0425 21.9968 16.148 22.1023C16.2534 22.2078 16.3127 22.3508 16.3127 22.5C16.3127 22.6492 16.2534 22.7923 16.148 22.8978C16.0425 23.0033 15.8994 23.0625 15.7502 23.0625H9.75021C9.60102 23.0625 9.45795 23.0033 9.35246 22.8978C9.24697 22.7923 9.18771 22.6492 9.18771 22.5C9.18771 22.3508 9.24697 22.2078 9.35246 22.1023C9.45795 21.9968 9.60102 21.9375 9.75021 21.9375H12.1877V20.0466C10.2169 19.9391 8.3183 19.2684 6.71737 18.114C5.11644 16.9596 3.88042 15.37 3.15608 13.5339C2.43174 11.6979 2.2495 9.69259 2.631 7.75607C3.01251 5.81955 3.94173 4.03318 5.30833 2.60908C5.41177 2.50142 5.55373 2.43926 5.703 2.43627C5.85227 2.43328 5.99661 2.48971 6.10427 2.59315C6.21193 2.69658 6.27409 2.83855 6.27708 2.98781C6.28007 3.13708 6.22364 3.28142 6.12021 3.38908C4.45422 5.12322 3.53454 7.44142 3.55859 9.84603C3.58264 12.2506 4.54851 14.55 6.24885 16.2504C7.94919 17.9509 10.2485 18.9169 12.6531 18.9412C15.0577 18.9654 17.3759 18.0459 19.1102 16.38C19.1635 16.3288 19.2264 16.2885 19.2952 16.2615C19.3641 16.2346 19.4376 16.2215 19.5115 16.223C19.5854 16.2244 19.6583 16.2405 19.726 16.2702C19.7938 16.2999 19.855 16.3426 19.9061 16.396Z" fill="black"/>
</svg>
