<svg width="24" height="24" viewBox="0 0 24 24" fill="none" xmlns="http://www.w3.org/2000/svg">
<path d="M22.3913 10.8684L6.65629 1.86465C6.45543 1.74736 6.22701 1.68555 5.99442 1.68555C5.76182 1.68555 5.5334 1.74736 5.33254 1.86465C5.13504 1.97779 4.9712 2.14144 4.85785 2.33882C4.7445 2.53619 4.68572 2.76018 4.68754 2.98778V21.0122C4.68676 21.2395 4.74643 21.4629 4.86042 21.6596C4.97442 21.8563 5.13865 22.0192 5.33629 22.1315C5.53715 22.2488 5.76557 22.3106 5.99817 22.3106C6.23076 22.3106 6.45918 22.2488 6.66004 22.1315L22.3913 13.1315C22.5945 13.0206 22.7642 12.857 22.8824 12.6579C23.0005 12.4588 23.0629 12.2315 23.0629 12C23.0629 11.7684 23.0005 11.5412 22.8824 11.342C22.7642 11.1429 22.5945 10.9793 22.3913 10.8684ZM5.81254 20.3906V3.60934L14.2041 12L5.81254 20.3906ZM15 12.7968L17.0804 14.8772L7.35004 20.444L15 12.7968ZM7.35004 3.5559L17.0804 9.12465L15 11.205L7.35004 3.5559ZM21.8438 12.1481L21.8344 12.1537L18.0938 14.2959L15.796 12L18.0938 9.70403L21.8382 11.8462L21.8475 11.8518C21.8752 11.8654 21.8986 11.8865 21.9149 11.9127C21.9312 11.9389 21.9398 11.9691 21.9398 12C21.9398 12.0308 21.9312 12.0611 21.9149 12.0872C21.8986 12.1134 21.8752 12.1345 21.8475 12.1481H21.8438Z" fill="black"/>
</svg>
