<svg width="24" height="24" viewBox="0 0 24 24" fill="none" xmlns="http://www.w3.org/2000/svg">
<path d="M23.5143 8.50401L12.2643 2.50401C12.1831 2.4602 12.0922 2.43726 11.9999 2.43726C11.9076 2.43726 11.8168 2.4602 11.7355 2.50401L0.485548 8.50401C0.395785 8.55205 0.320744 8.62356 0.268426 8.7109C0.216109 8.79824 0.188477 8.89814 0.188477 8.99995C0.188477 9.10176 0.216109 9.20166 0.268426 9.289C0.320744 9.37634 0.395785 9.44785 0.485548 9.49589L3.18742 10.9378V15.5896C3.18734 15.9119 3.3058 16.2229 3.52024 16.4634C4.7268 17.8068 7.43336 20.0625 11.9999 20.0625C13.6079 20.0775 15.2024 19.7672 16.6874 19.1503V22.5C16.6874 22.6491 16.7467 22.7922 16.8522 22.8977C16.9577 23.0032 17.1007 23.0625 17.2499 23.0625C17.3991 23.0625 17.5422 23.0032 17.6477 22.8977C17.7532 22.7922 17.8124 22.6491 17.8124 22.5V18.5953C18.8108 18.033 19.7115 17.3127 20.4796 16.4625C20.6945 16.2226 20.8131 15.9117 20.8124 15.5896V10.9378L23.5143 9.49589C23.6041 9.44785 23.6791 9.37634 23.7314 9.289C23.7837 9.20166 23.8114 9.10176 23.8114 8.99995C23.8114 8.89814 23.7837 8.79824 23.7314 8.7109C23.6791 8.62356 23.6041 8.55205 23.5143 8.50401ZM11.9999 18.9375C7.87492 18.9375 5.43742 16.9162 4.35742 15.7115C4.32838 15.6775 4.31242 15.6343 4.31242 15.5896V11.5378L11.7355 15.4959C11.8169 15.5392 11.9077 15.5619 11.9999 15.5619C12.0921 15.5619 12.1829 15.5392 12.2643 15.4959L16.6874 13.1371V17.9184C15.4687 18.5015 13.9171 18.9375 11.9999 18.9375ZM19.6874 15.5896C19.6874 15.6343 19.6715 15.6775 19.6424 15.7115C19.1021 16.31 18.4871 16.8365 17.8124 17.2781V12.5371L19.6874 11.5378V15.5896ZM17.6109 11.3709C17.5819 11.3457 17.5505 11.3234 17.5171 11.3043L12.2671 8.50495C12.1363 8.44213 11.9863 8.43229 11.8484 8.47747C11.7106 8.52264 11.5955 8.61936 11.5272 8.74739C11.459 8.87543 11.4428 9.02489 11.4822 9.16455C11.5215 9.3042 11.6133 9.42325 11.7384 9.49683L16.4296 12L11.9999 14.3624L1.94524 8.99995L11.9999 3.63745L22.0546 8.99995L17.6109 11.3709Z" fill="black"/>
</svg>
