<svg width="24" height="24" viewBox="0 0 24 24" fill="none" xmlns="http://www.w3.org/2000/svg">
<path d="M19.5 5.43755C18.4434 5.43665 17.3971 5.64471 16.4213 6.04973C15.1359 3.21661 12.375 1.80942 12.2512 1.74661C12.1732 1.70766 12.0872 1.68738 12 1.68738C11.9128 1.68738 11.8268 1.70766 11.7487 1.74661C11.6241 1.80942 8.86406 3.21661 7.57875 6.04973C6.60287 5.64478 5.55656 5.43673 4.5 5.43755C4.35082 5.43755 4.20774 5.49681 4.10225 5.6023C3.99676 5.70779 3.9375 5.85086 3.9375 6.00005V13.5C3.9375 15.6384 4.78694 17.6891 6.29895 19.2011C7.81096 20.7131 9.86169 21.5625 12 21.5625C14.1383 21.5625 16.189 20.7131 17.701 19.2011C19.2131 17.6891 20.0625 15.6384 20.0625 13.5V6.00005C20.0625 5.85086 20.0032 5.70779 19.8977 5.6023C19.7923 5.49681 19.6492 5.43755 19.5 5.43755ZM11.4375 20.415C9.70141 20.2716 8.08257 19.4812 6.90181 18.2005C5.72106 16.9197 5.06458 15.242 5.0625 13.5V11.835C6.79859 11.9784 8.41743 12.7689 9.59819 14.0496C10.7789 15.3304 11.4354 17.008 11.4375 18.75V20.415ZM11.4375 14.6485C10.7723 13.5257 9.84486 12.581 8.73457 11.8952C7.62427 11.2094 6.36425 10.8031 5.0625 10.711V6.58598C6.79834 6.72958 8.41694 7.51993 9.59763 8.80046C10.7783 10.081 11.435 11.7583 11.4375 13.5V14.6485ZM8.58563 6.55411C9.49125 4.52911 11.3297 3.29348 12 2.89786C12.6713 3.2963 14.5087 4.53192 15.4134 6.55411C13.8641 7.46945 12.6633 8.87412 12 10.5469C11.3367 8.87387 10.1354 7.46913 8.58563 6.55411ZM18.9375 13.5C18.9354 15.242 18.2789 16.9197 17.0982 18.2005C15.9174 19.4812 14.2986 20.2716 12.5625 20.415V18.75C12.5646 17.008 13.2211 15.3304 14.4018 14.0496C15.5826 12.7689 17.2014 11.9784 18.9375 11.835V13.5ZM18.9375 10.7091C17.6357 10.8012 16.3757 11.2076 15.2654 11.8933C14.1551 12.5791 13.2277 13.5238 12.5625 14.6466V13.5C12.5648 11.7581 13.2213 10.0806 14.4021 8.79986C15.5828 7.51914 17.2015 6.72866 18.9375 6.58505V10.7091Z" fill="black"/>
</svg>
