<svg width="24" height="24" viewBox="0 0 24 24" fill="none" xmlns="http://www.w3.org/2000/svg">
<path d="M4.91625 3.37495C4.81327 3.27937 4.67826 3.22579 4.53776 3.22474C4.39727 3.2237 4.26147 3.27527 4.15708 3.36931C4.0527 3.46335 3.98728 3.59305 3.97371 3.7329C3.96014 3.87274 3.99939 4.0126 4.08375 4.12495L5.31187 5.47589C5.04207 5.44944 4.7711 5.43661 4.5 5.43745C4.35082 5.43745 4.20774 5.49672 4.10225 5.60221C3.99676 5.7077 3.9375 5.85077 3.9375 5.99995V13.5C3.93998 15.6375 4.79022 17.6868 6.30169 19.1983C7.81317 20.7097 9.86245 21.56 12 21.5625C13.0695 21.5634 14.1284 21.351 15.1149 20.9378C16.1013 20.5246 16.9955 19.9188 17.745 19.1559L19.0837 20.625C19.1842 20.7353 19.3244 20.8013 19.4735 20.8084C19.6226 20.8154 19.7684 20.7629 19.8787 20.6625C19.9891 20.562 20.0551 20.4218 20.0621 20.2727C20.0692 20.1236 20.0167 19.9778 19.9163 19.8675L4.91625 3.37495ZM6.58781 6.88308L13.0191 13.9565C12.6004 14.5228 12.2578 15.1415 12 15.7968C11.4403 14.3814 10.4921 13.1529 9.26476 12.2527C8.03738 11.3526 6.5807 10.8175 5.0625 10.709V6.58402C5.58063 6.62554 6.09236 6.72588 6.58781 6.88308ZM11.4375 20.415C9.70141 20.2716 8.08257 19.4811 6.90181 18.2004C5.72106 16.9196 5.06458 15.242 5.0625 13.5V11.835C6.79859 11.9784 8.41743 12.7688 9.59819 14.0495C10.7789 15.3303 11.4354 17.008 11.4375 18.75V20.415ZM12.5625 20.415V18.75C12.5641 17.3431 12.993 15.97 13.7925 14.8125L16.9856 18.3253C15.8149 19.5371 14.2421 20.2802 12.5625 20.415ZM20.0625 5.99995V13.5C20.0628 14.2244 19.9657 14.9455 19.7738 15.644C19.7411 15.7627 19.6704 15.8675 19.5726 15.9422C19.4747 16.0168 19.355 16.0573 19.2319 16.0575C19.1815 16.0573 19.1315 16.0507 19.0828 16.0378C19.0115 16.0182 18.9447 15.9848 18.8863 15.9395C18.8279 15.8941 18.7791 15.8377 18.7425 15.7735C18.7059 15.7092 18.6824 15.6384 18.6732 15.565C18.664 15.4916 18.6694 15.4172 18.6891 15.3459C18.8544 14.7445 18.938 14.1236 18.9375 13.5V11.835C18.0398 11.9055 17.165 12.1528 16.3631 12.5625C16.2973 12.5959 16.2254 12.6161 16.1518 12.6219C16.0781 12.6276 16.004 12.6188 15.9338 12.5959C15.8635 12.573 15.7985 12.5365 15.7423 12.4884C15.6862 12.4404 15.64 12.3818 15.6066 12.3159C15.5731 12.25 15.5529 12.1782 15.5472 12.1045C15.5414 12.0309 15.5503 11.9568 15.5732 11.8865C15.5961 11.8163 15.6326 11.7512 15.6806 11.6951C15.7286 11.6389 15.7873 11.5928 15.8531 11.5593C16.8131 11.0699 17.8624 10.7806 18.9375 10.709V6.58402C17.9383 6.66655 16.9687 6.96383 16.095 7.45554C15.2213 7.94725 14.464 8.62179 13.875 9.43308C13.834 9.49792 13.7802 9.55369 13.7168 9.59695C13.6534 9.64022 13.5819 9.67006 13.5066 9.68466C13.4313 9.69925 13.3538 9.69828 13.2788 9.68181C13.2039 9.66534 13.1331 9.63371 13.0709 9.58888C13.0086 9.54404 12.9562 9.48695 12.9168 9.4211C12.8774 9.35525 12.852 9.28205 12.8419 9.20599C12.8319 9.12993 12.8375 9.05262 12.8585 8.97881C12.8794 8.90501 12.9152 8.83627 12.9637 8.77683C13.6177 7.8756 14.4507 7.11916 15.4106 6.55495C14.5059 4.53089 12.6675 3.29527 11.9972 2.8987C11.1175 3.42487 10.3286 4.08968 9.66094 4.86745C9.61362 4.92509 9.55532 4.97275 9.48942 5.00765C9.42352 5.04256 9.35133 5.06401 9.27707 5.07076C9.2028 5.0775 9.12793 5.06942 9.05682 5.04697C8.9857 5.02452 8.91976 4.98815 8.86283 4.93999C8.8059 4.89182 8.75912 4.83281 8.7252 4.7664C8.69128 4.69999 8.67091 4.62749 8.66527 4.55313C8.65963 4.47877 8.66882 4.40403 8.69233 4.33326C8.71584 4.26249 8.75318 4.1971 8.80219 4.14089C9.62795 3.17039 10.626 2.36086 11.7459 1.75308C11.824 1.71413 11.91 1.69385 11.9972 1.69385C12.0844 1.69385 12.1704 1.71413 12.2484 1.75308C12.3731 1.81589 15.135 3.22402 16.4194 6.05902C17.3953 5.65101 18.4422 5.43978 19.5 5.43745C19.6492 5.43745 19.7923 5.49672 19.8977 5.60221C20.0032 5.7077 20.0625 5.85077 20.0625 5.99995Z" fill="black"/>
</svg>
