<svg width="24" height="24" viewBox="0 0 24 24" fill="none" xmlns="http://www.w3.org/2000/svg">
<path d="M18.7503 14.4375C18.0794 14.4372 17.4307 14.6777 16.9222 15.1153L14.5203 13.2469C14.7129 12.8595 14.813 12.4327 14.8128 12C14.8126 11.8872 14.8057 11.7745 14.7922 11.6625L16.3128 11.1563C16.6532 11.7476 17.197 12.1951 17.8429 12.4152C18.4887 12.6354 19.1926 12.6132 19.8233 12.3529C20.4541 12.0925 20.9687 11.6118 21.2712 11.0002C21.5738 10.3885 21.6436 9.68779 21.4678 9.02847C21.292 8.36915 20.8825 7.79624 20.3156 7.41648C19.7487 7.03671 19.063 6.876 18.3864 6.96428C17.7098 7.05257 17.0883 7.38383 16.6378 7.89634C16.1873 8.40885 15.9385 9.06766 15.9378 9.75002C15.938 9.86283 15.9449 9.97552 15.9584 10.0875L14.4378 10.5938C14.1403 10.0754 13.6849 9.66573 13.1382 9.4244C12.5914 9.18307 11.9819 9.12274 11.3984 9.25221L10.6353 7.53658C11.2026 7.13199 11.5996 6.53117 11.7492 5.85059C11.8988 5.17 11.7905 4.4581 11.4451 3.85285C11.0998 3.24761 10.542 2.79212 9.87998 2.57466C9.21794 2.3572 8.49874 2.39326 7.86177 2.67584C7.22479 2.95842 6.71541 3.46741 6.43233 4.10416C6.14924 4.74091 6.11262 5.46008 6.32956 6.12229C6.5465 6.78451 7.00156 7.3426 7.60653 7.68843C8.2115 8.03425 8.92332 8.14317 9.60403 7.99408L10.3672 9.70971C9.79695 10.1152 9.3989 10.7192 9.25112 11.4031C9.10334 12.087 9.21651 12.8015 9.5684 13.4063L6.93778 15.75C6.37837 15.3312 5.6834 15.135 4.98758 15.1995C4.29176 15.264 3.64466 15.5845 3.17172 16.0989C2.69878 16.6134 2.43369 17.2851 2.42783 17.9839C2.42198 18.6826 2.67578 19.3587 3.14004 19.881C3.6043 20.4033 4.24594 20.7346 4.94058 20.8107C5.63522 20.8868 6.33338 20.7023 6.89972 20.2929C7.46606 19.8836 7.86024 19.2785 8.00584 18.5951C8.15144 17.9116 8.0381 17.1984 7.68778 16.5938L10.3128 14.25C10.8238 14.6341 11.4506 14.832 12.0895 14.811C12.7284 14.7901 13.3409 14.5514 13.8256 14.1347L16.2275 16.0031C15.9564 16.5511 15.8713 17.1724 15.985 17.7731C16.0987 18.3737 16.405 18.921 16.8576 19.332C17.3101 19.743 17.8842 19.9954 18.493 20.0509C19.1018 20.1064 19.7121 19.9621 20.2315 19.6397C20.7509 19.3174 21.1512 18.8346 21.3717 18.2644C21.5921 17.6943 21.6209 17.0678 21.4535 16.4798C21.2861 15.8919 20.9316 15.3745 20.4439 15.006C19.9561 14.6375 19.3616 14.4379 18.7503 14.4375ZM18.7503 8.06252C19.084 8.06252 19.4103 8.16149 19.6878 8.34691C19.9653 8.53234 20.1816 8.79589 20.3093 9.10424C20.437 9.41259 20.4705 9.75189 20.4054 10.0792C20.3402 10.4066 20.1795 10.7073 19.9435 10.9433C19.7075 11.1793 19.4068 11.34 19.0795 11.4051C18.7521 11.4702 18.4128 11.4368 18.1045 11.3091C17.7961 11.1813 17.5326 10.9651 17.3472 10.6875C17.1617 10.41 17.0628 10.0838 17.0628 9.75002C17.0628 9.30247 17.2406 8.87324 17.557 8.55678C17.8735 8.24031 18.3027 8.06252 18.7503 8.06252ZM7.31278 5.25002C7.31278 4.91626 7.41175 4.59 7.59717 4.31249C7.7826 4.03499 8.04615 3.8187 8.3545 3.69097C8.66285 3.56325 9.00215 3.52983 9.32949 3.59494C9.65683 3.66006 9.95752 3.82078 10.1935 4.05678C10.4295 4.29278 10.5902 4.59346 10.6554 4.9208C10.7205 5.24815 10.687 5.58745 10.5593 5.8958C10.4316 6.20415 10.2153 6.4677 9.9378 6.65312C9.66029 6.83855 9.33403 6.93752 9.00028 6.93752C8.55272 6.93752 8.1235 6.75973 7.80703 6.44326C7.49057 6.12679 7.31278 5.69757 7.31278 5.25002ZM5.25028 19.6875C4.91652 19.6875 4.59026 19.5885 4.31275 19.4031C4.03524 19.2177 3.81895 18.9541 3.69123 18.6458C3.56351 18.3374 3.53009 17.9981 3.5952 17.6708C3.66031 17.3435 3.82103 17.0428 4.05703 16.8068C4.29303 16.5708 4.59372 16.4101 4.92106 16.3449C5.2484 16.2798 5.5877 16.3132 5.89605 16.441C6.2044 16.5687 6.46796 16.785 6.65338 17.0625C6.83881 17.34 6.93778 17.6663 6.93778 18C6.93778 18.4476 6.75999 18.8768 6.44352 19.1933C6.12705 19.5097 5.69783 19.6875 5.25028 19.6875ZM12.0003 13.6875C11.6665 13.6875 11.3403 13.5885 11.0628 13.4031C10.7852 13.2177 10.569 12.9541 10.4412 12.6458C10.3135 12.3374 10.2801 11.9981 10.3452 11.6708C10.4103 11.3435 10.571 11.0428 10.807 10.8068C11.043 10.5708 11.3437 10.4101 11.6711 10.3449C11.9984 10.2798 12.3377 10.3133 12.6461 10.441C12.9544 10.5687 13.218 10.785 13.4034 11.0625C13.5888 11.34 13.6878 11.6663 13.6878 12C13.6878 12.4476 13.51 12.8768 13.1935 13.1933C12.8771 13.5097 12.4478 13.6875 12.0003 13.6875ZM18.7503 18.9375C18.4165 18.9375 18.0903 18.8385 17.8128 18.6531C17.5352 18.4677 17.319 18.2041 17.1912 17.8958C17.0635 17.5874 17.0301 17.2481 17.0952 16.9208C17.1603 16.5935 17.321 16.2928 17.557 16.0568C17.793 15.8208 18.0937 15.6601 18.4211 15.5949C18.7484 15.5298 19.0877 15.5632 19.3961 15.691C19.7044 15.8187 19.968 16.035 20.1534 16.3125C20.3388 16.59 20.4378 16.9163 20.4378 17.25C20.4378 17.6976 20.26 18.1268 19.9435 18.4433C19.6271 18.7597 19.1978 18.9375 18.7503 18.9375Z" fill="black"/>
</svg>
