<svg width="24" height="24" viewBox="0 0 24 24" fill="none" xmlns="http://www.w3.org/2000/svg">
<path d="M5.05594 14.4722L17.8725 9.75002L5.05594 5.02783C4.91595 4.97624 4.8022 4.87115 4.73969 4.73569C4.67719 4.60022 4.67106 4.44547 4.72266 4.30549C4.77425 4.1655 4.87934 4.05175 5.0148 3.98925C5.15027 3.92674 5.30502 3.92061 5.445 3.97221L19.695 9.22221C19.803 9.26199 19.8961 9.33392 19.9619 9.42829C20.0277 9.52267 20.063 9.63496 20.063 9.75002C20.063 9.86508 20.0277 9.97737 19.9619 10.0717C19.8961 10.1661 19.803 10.2381 19.695 10.2778L5.445 15.5278C5.38252 15.5507 5.31652 15.5624 5.25 15.5625C5.11798 15.5624 4.9902 15.5159 4.88903 15.4311C4.78786 15.3463 4.71975 15.2286 4.69661 15.0986C4.67348 14.9686 4.6968 14.8346 4.76249 14.7201C4.82818 14.6056 4.93206 14.5178 5.05594 14.4722ZM19.5 18.1875H5.25C5.10082 18.1875 4.95774 18.2468 4.85225 18.3523C4.74676 18.4578 4.6875 18.6008 4.6875 18.75C4.6875 18.8992 4.74676 19.0423 4.85225 19.1478C4.95774 19.2533 5.10082 19.3125 5.25 19.3125H19.5C19.6492 19.3125 19.7923 19.2533 19.8977 19.1478C20.0032 19.0423 20.0625 18.8992 20.0625 18.75C20.0625 18.6008 20.0032 18.4578 19.8977 18.3523C19.7923 18.2468 19.6492 18.1875 19.5 18.1875Z" fill="black"/>
</svg>
