<svg width="24" height="24" viewBox="0 0 24 24" fill="none" xmlns="http://www.w3.org/2000/svg">
<path d="M23.4295 10.6312L17.1061 4.26464C15.451 2.61364 13.2083 1.68693 10.8706 1.68799C8.5328 1.68904 6.29098 2.61777 4.63736 4.27026L3.34455 5.60433C3.24074 5.71161 3.18381 5.85575 3.18627 6.00501C3.18873 6.15428 3.25038 6.29646 3.35767 6.40026C3.46496 6.50407 3.60909 6.56101 3.75836 6.55855C3.90763 6.55608 4.0498 6.49443 4.15361 6.38714L5.43705 5.06245C6.00216 4.49632 6.65217 4.02186 7.36361 3.6562L11.9574 8.24995L2.82049 17.3812C2.69845 17.5031 2.60165 17.6479 2.53559 17.8072C2.46954 17.9665 2.43555 18.1373 2.43555 18.3098C2.43555 18.4823 2.46954 18.6531 2.53559 18.8124C2.60165 18.9717 2.69845 19.1165 2.82049 19.2384L4.76017 21.1781C4.88205 21.3 5.02675 21.3967 5.186 21.4626C5.34524 21.5286 5.51593 21.5625 5.6883 21.5625C5.86067 21.5625 6.03135 21.5286 6.1906 21.4626C6.34985 21.3967 6.49454 21.3 6.61642 21.1781L15.7495 12.0431L18.8827 15.1762C19.0046 15.2981 19.1492 15.3948 19.3085 15.4608C19.4677 15.5267 19.6384 15.5607 19.8108 15.5607C19.9832 15.5607 20.1539 15.5267 20.3131 15.4608C20.4723 15.3948 20.617 15.2981 20.7389 15.1762L23.4277 12.4865C23.6738 12.2407 23.8123 11.9071 23.8126 11.5592C23.813 11.2114 23.6752 10.8776 23.4295 10.6312ZM5.82142 20.3821C5.80401 20.3996 5.78333 20.4134 5.76057 20.4228C5.73781 20.4323 5.71341 20.4371 5.68877 20.4371C5.66413 20.4371 5.63973 20.4323 5.61697 20.4228C5.5942 20.4134 5.57352 20.3996 5.55611 20.3821L3.61642 18.4425C3.59899 18.425 3.58516 18.4044 3.57572 18.3816C3.56629 18.3588 3.56143 18.3344 3.56143 18.3098C3.56143 18.2852 3.56629 18.2608 3.57572 18.238C3.58516 18.2152 3.59899 18.1946 3.61642 18.1771L10.1245 11.6681L12.3286 13.875L5.82142 20.3821ZM15.352 10.8496L13.1245 13.0771L10.9195 10.875L13.147 8.64745C13.1993 8.59521 13.2408 8.53317 13.2691 8.46489C13.2975 8.3966 13.312 8.3234 13.312 8.24948C13.312 8.17556 13.2975 8.10237 13.2691 8.03408C13.2408 7.96579 13.1993 7.90376 13.147 7.85151L8.48767 3.18745C9.83787 2.74748 11.2835 2.68976 12.6645 3.02069C14.0455 3.35163 15.3079 4.0583 16.312 5.06245L20.5889 9.36839L17.6245 12.3271L16.147 10.8496C16.0416 10.7443 15.8986 10.6851 15.7495 10.6851C15.6005 10.6851 15.4575 10.7443 15.352 10.8496ZM22.6327 11.6934L19.943 14.384C19.9256 14.4014 19.9049 14.4153 19.8821 14.4247C19.8594 14.4341 19.835 14.439 19.8103 14.439C19.7857 14.439 19.7613 14.4341 19.7385 14.4247C19.7158 14.4153 19.6951 14.4014 19.6777 14.384L18.4205 13.125L21.3792 10.1653L22.6327 11.4271C22.6673 11.4622 22.6867 11.5096 22.6867 11.5589C22.6867 11.6082 22.6673 11.6555 22.6327 11.6906V11.6934Z" fill="black"/>
</svg>
