<svg width="24" height="24" viewBox="0 0 24 24" fill="none" xmlns="http://www.w3.org/2000/svg">
<path d="M17.625 7.68753C17.1371 7.68695 16.6604 7.83366 16.2572 8.10847C16.1601 7.66207 15.9394 7.25195 15.6205 6.92488C15.3015 6.59782 14.897 6.36697 14.4532 6.25868C14.0094 6.15039 13.5441 6.169 13.1103 6.3124C12.6765 6.45581 12.2918 6.71822 12 7.06972C11.6798 6.68428 11.2487 6.40688 10.7652 6.27528C10.2817 6.14368 9.7694 6.16428 9.29805 6.33427C8.82669 6.50427 8.41918 6.8154 8.13099 7.2253C7.84281 7.6352 7.68795 8.12396 7.6875 8.62503V10.6875H6.375C5.72853 10.6875 5.10855 10.9443 4.65143 11.4015C4.19431 11.8586 3.9375 12.4786 3.9375 13.125V14.25C3.9375 16.3883 4.78694 18.4391 6.29895 19.9511C7.81096 21.4631 9.86169 22.3125 12 22.3125C14.1383 22.3125 16.189 21.4631 17.701 19.9511C19.2131 18.4391 20.0625 16.3883 20.0625 14.25V10.125C20.0625 9.80493 19.9995 9.48797 19.877 9.19224C19.7545 8.89651 19.5749 8.6278 19.3486 8.40146C19.1222 8.17512 18.8535 7.99557 18.5578 7.87308C18.2621 7.75058 17.9451 7.68753 17.625 7.68753ZM18.9375 14.25C18.9375 16.09 18.2066 17.8546 16.9056 19.1556C15.6045 20.4566 13.8399 21.1875 12 21.1875C10.1601 21.1875 8.39548 20.4566 7.09445 19.1556C5.79341 17.8546 5.0625 16.09 5.0625 14.25V13.125C5.0625 12.7769 5.20078 12.4431 5.44692 12.197C5.69306 11.9508 6.0269 11.8125 6.375 11.8125H7.6875V14.25C7.6875 14.3992 7.74676 14.5423 7.85225 14.6478C7.95774 14.7533 8.10082 14.8125 8.25 14.8125C8.39918 14.8125 8.54226 14.7533 8.64775 14.6478C8.75324 14.5423 8.8125 14.3992 8.8125 14.25V8.62503C8.8125 8.27693 8.95078 7.94309 9.19692 7.69695C9.44306 7.45081 9.7769 7.31253 10.125 7.31253C10.4731 7.31253 10.8069 7.45081 11.0531 7.69695C11.2992 7.94309 11.4375 8.27693 11.4375 8.62503V11.25C11.4375 11.3992 11.4968 11.5423 11.6023 11.6478C11.7077 11.7533 11.8508 11.8125 12 11.8125C12.1492 11.8125 12.2923 11.7533 12.3977 11.6478C12.5032 11.5423 12.5625 11.3992 12.5625 11.25V8.62503C12.5625 8.27693 12.7008 7.94309 12.9469 7.69695C13.1931 7.45081 13.5269 7.31253 13.875 7.31253C14.2231 7.31253 14.5569 7.45081 14.8031 7.69695C15.0492 7.94309 15.1875 8.27693 15.1875 8.62503V11.25C15.1875 11.3992 15.2468 11.5423 15.3523 11.6478C15.4577 11.7533 15.6008 11.8125 15.75 11.8125C15.8992 11.8125 16.0423 11.7533 16.1477 11.6478C16.2532 11.5423 16.3125 11.3992 16.3125 11.25V10.125C16.3125 9.77693 16.4508 9.44309 16.6969 9.19695C16.9431 8.95081 17.2769 8.81253 17.625 8.81253C17.9731 8.81253 18.3069 8.95081 18.5531 9.19695C18.7992 9.44309 18.9375 9.77693 18.9375 10.125V14.25Z" fill="black"/>
</svg>
