<svg width="24" height="24" viewBox="0 0 24 24" fill="none" xmlns="http://www.w3.org/2000/svg">
<path d="M18.3752 8.4375C17.8873 8.43704 17.4106 8.58374 17.0074 8.85844C16.924 8.47434 16.7489 8.11611 16.4971 7.81429C16.2453 7.51247 15.9243 7.27601 15.5614 7.12508C15.1985 6.97415 14.8044 6.91322 14.4129 6.94748C14.0213 6.98175 13.6439 7.1102 13.3127 7.32187V4.125C13.3127 3.47853 13.0559 2.85855 12.5988 2.40143C12.1416 1.94431 11.5216 1.6875 10.8752 1.6875C10.2287 1.6875 9.60873 1.94431 9.15161 2.40143C8.69449 2.85855 8.43768 3.47853 8.43768 4.125V12.2812L7.73174 11.1469C7.40764 10.5874 6.87457 10.1797 6.24981 10.0132C5.62505 9.84684 4.95978 9.93543 4.40034 10.2595C3.84089 10.5836 3.43312 11.1167 3.26671 11.7415C3.1003 12.3662 3.18889 13.0315 3.51299 13.5909L3.9508 14.3644C7.1383 19.9894 8.45737 22.3116 12.7502 22.3116C14.8877 22.3091 16.937 21.4588 18.4485 19.9474C19.96 18.4359 20.8102 16.3866 20.8127 14.2491V10.875C20.8127 10.2285 20.5559 9.60855 20.0988 9.15143C19.6416 8.69431 19.0216 8.4375 18.3752 8.4375ZM19.6877 14.25C19.6854 16.0893 18.9538 17.8525 17.6533 19.1531C16.3527 20.4536 14.5894 21.1853 12.7502 21.1875C9.11268 21.1875 8.06268 19.3284 4.92955 13.8103L4.48987 13.0312C4.31584 12.73 4.26854 12.372 4.35837 12.0358C4.4482 11.6997 4.66781 11.413 4.96893 11.2387C5.16819 11.1229 5.39467 11.062 5.62518 11.0625C5.85598 11.0621 6.08281 11.1225 6.28279 11.2377C6.48278 11.353 6.64884 11.5189 6.76424 11.7188L6.77362 11.7347L8.52487 14.5472C8.58987 14.6499 8.6864 14.7288 8.80001 14.7721C8.91361 14.8153 9.03818 14.8206 9.15504 14.7872C9.27191 14.7537 9.37479 14.6833 9.44828 14.5864C9.52176 14.4896 9.5619 14.3716 9.56268 14.25V4.125C9.56268 3.7769 9.70096 3.44306 9.9471 3.19692C10.1932 2.95078 10.5271 2.8125 10.8752 2.8125C11.2233 2.8125 11.5571 2.95078 11.8033 3.19692C12.0494 3.44306 12.1877 3.7769 12.1877 4.125V10.5C12.1877 10.6492 12.2469 10.7923 12.3524 10.8977C12.4579 11.0032 12.601 11.0625 12.7502 11.0625C12.8994 11.0625 13.0424 11.0032 13.1479 10.8977C13.2534 10.7923 13.3127 10.6492 13.3127 10.5V9.375C13.3127 9.0269 13.451 8.69306 13.6971 8.44692C13.9432 8.20078 14.2771 8.0625 14.6252 8.0625C14.9733 8.0625 15.3071 8.20078 15.5533 8.44692C15.7994 8.69306 15.9377 9.0269 15.9377 9.375V11.25C15.9377 11.3992 15.9969 11.5423 16.1024 11.6477C16.2079 11.7532 16.351 11.8125 16.5002 11.8125C16.6494 11.8125 16.7924 11.7532 16.8979 11.6477C17.0034 11.5423 17.0627 11.3992 17.0627 11.25V10.875C17.0627 10.5269 17.201 10.1931 17.4471 9.94692C17.6932 9.70078 18.0271 9.5625 18.3752 9.5625C18.7233 9.5625 19.0571 9.70078 19.3033 9.94692C19.5494 10.1931 19.6877 10.5269 19.6877 10.875V14.25Z" fill="black"/>
</svg>
