<svg width="24" height="24" viewBox="0 0 24 24" fill="none" xmlns="http://www.w3.org/2000/svg">
<path d="M21.9277 17.0081L18.4974 13.5768L15.0662 2.24997C14.9738 1.94556 14.8045 1.67009 14.5746 1.45014C14.3448 1.23018 14.0622 1.07316 13.754 0.994205C13.4458 0.915253 13.1225 0.917037 12.8152 0.999384C12.5079 1.08173 12.227 1.24186 11.9996 1.46434C11.7722 1.24186 11.4913 1.08173 11.1841 0.999384C10.8768 0.917037 10.5534 0.915253 10.2453 0.994205C9.93709 1.07316 9.65445 1.23018 9.42461 1.45014C9.19477 1.67009 9.02548 1.94556 8.93306 2.24997L5.50181 13.5768L2.0715 17.0081C1.82562 17.2542 1.6875 17.5879 1.6875 17.9357C1.6875 18.2836 1.82562 18.6173 2.0715 18.8634L5.13619 21.9281C5.3823 22.174 5.71595 22.3121 6.06384 22.3121C6.41173 22.3121 6.74539 22.174 6.9915 21.9281L11.5187 17.4018C11.7001 17.2204 11.8613 17.0198 11.9996 16.8037C12.1379 17.0198 12.2992 17.2204 12.4806 17.4018L17.0078 21.9281C17.2539 22.174 17.5875 22.3121 17.9354 22.3121C18.2833 22.3121 18.617 22.174 18.8631 21.9281L21.9277 18.8634C22.1736 18.6173 22.3118 18.2836 22.3118 17.9357C22.3118 17.5879 22.1736 17.2542 21.9277 17.0081ZM6.1965 21.1331C6.17909 21.1505 6.15841 21.1644 6.13565 21.1738C6.11288 21.1832 6.08848 21.1881 6.06384 21.1881C6.0392 21.1881 6.01481 21.1832 5.99204 21.1738C5.96928 21.1644 5.9486 21.1505 5.93119 21.1331L2.8665 18.0684C2.84907 18.051 2.83524 18.0303 2.8258 18.0075C2.81637 17.9848 2.81151 17.9604 2.81151 17.9357C2.81151 17.9111 2.81637 17.8867 2.8258 17.8639C2.83524 17.8412 2.84907 17.8205 2.8665 17.8031L4.18931 16.4812L7.51838 19.8103L6.1965 21.1331ZM10.7227 16.6059L8.31431 19.0153L4.98431 15.6853L6.39713 14.2725C6.46256 14.2071 6.51086 14.1266 6.53775 14.0381L10.0065 2.57997C10.0551 2.40984 10.1638 2.26317 10.3125 2.16728C10.4612 2.07139 10.6397 2.03281 10.8147 2.05873C10.9897 2.08465 11.1493 2.1733 11.2639 2.30817C11.3784 2.44304 11.4399 2.61494 11.4371 2.79184V14.8856C11.4375 15.2053 11.3746 15.5219 11.252 15.8172C11.1294 16.1124 10.9495 16.3805 10.7227 16.6059ZM12.5621 14.8828V2.78903C12.5625 2.61439 12.6254 2.44566 12.7396 2.31352C12.8538 2.18138 13.0116 2.0946 13.1844 2.06895C13.3571 2.0433 13.5333 2.08048 13.681 2.17374C13.8286 2.267 13.9379 2.41014 13.989 2.57715L17.4578 14.0353C17.4846 14.1238 17.5329 14.2043 17.5984 14.2697L19.0918 15.764L15.6906 19.0209L13.2727 16.6031C13.0467 16.3774 12.8675 16.1092 12.7455 15.8139C12.6236 15.5187 12.5612 15.2022 12.5621 14.8828ZM21.1327 18.0703L18.0681 21.135C18.0506 21.1524 18.03 21.1662 18.0072 21.1757C17.9844 21.1851 17.96 21.19 17.9354 21.19C17.9108 21.19 17.8864 21.1851 17.8636 21.1757C17.8408 21.1662 17.8202 21.1524 17.8027 21.135L16.4902 19.8225L19.8924 16.5656L21.1337 17.8059C21.1679 17.8411 21.187 17.8883 21.1868 17.9373C21.1866 17.9864 21.1672 18.0335 21.1327 18.0684V18.0703Z" fill="black"/>
</svg>
