<svg width="24" height="24" viewBox="0 0 24 24" fill="none" xmlns="http://www.w3.org/2000/svg">
<path d="M21.48 13.3734C21.2232 13.1756 20.9242 13.0399 20.6062 12.9768C20.2883 12.9137 19.9601 12.9249 19.6472 13.0096L19.2422 13.1034C21.2812 11.2078 22.3125 9.32902 22.3125 7.49996C22.3125 5.12246 20.4009 3.18746 18.0506 3.18746C17.3878 3.18331 16.7331 3.33365 16.1385 3.62657C15.5439 3.91948 15.0257 4.34691 14.625 4.87496C14.2243 4.34691 13.7061 3.91948 13.1115 3.62657C12.5169 3.33365 11.8622 3.18331 11.1994 3.18746C8.84906 3.18746 6.9375 5.12246 6.9375 7.49996C6.9375 8.56684 7.27781 9.6084 7.99594 10.7212C7.40729 10.812 6.8632 11.089 6.44344 11.5115L4.2675 13.6875H1.5C1.1519 13.6875 0.818064 13.8257 0.571922 14.0719C0.325781 14.318 0.1875 14.6519 0.1875 15V18.75C0.1875 19.0981 0.325781 19.4319 0.571922 19.678C0.818064 19.9242 1.1519 20.0625 1.5 20.0625H11.25C11.2961 20.0625 11.3421 20.0568 11.3869 20.0456L17.3869 18.5456C17.4153 18.538 17.4431 18.5287 17.4703 18.5175L21.1097 16.9687L21.1406 16.9547C21.4624 16.794 21.738 16.554 21.9414 16.2574C22.1448 15.9607 22.2694 15.6172 22.3033 15.2591C22.3373 14.901 22.2795 14.5402 22.1355 14.2106C21.9914 13.8811 21.7658 13.5936 21.48 13.3753V13.3734ZM11.1994 4.31246C11.818 4.30421 12.425 4.48072 12.9427 4.81942C13.4605 5.15812 13.8654 5.64359 14.1056 6.21371C14.148 6.31688 14.2201 6.40512 14.3127 6.46722C14.4054 6.52932 14.5144 6.56248 14.6259 6.56248C14.7375 6.56248 14.8465 6.52932 14.9391 6.46722C15.0318 6.40512 15.1039 6.31688 15.1462 6.21371C15.3865 5.64359 15.7914 5.15812 16.3091 4.81942C16.8269 4.48072 17.4339 4.30421 18.0525 4.31246C19.7512 4.31246 21.1875 5.77215 21.1875 7.49996C21.1875 9.39746 19.6706 11.5312 16.8 13.664L15.4059 13.9846C15.545 13.6158 15.5925 13.2187 15.5443 12.8274C15.4962 12.4362 15.3539 12.0624 15.1297 11.7382C14.9054 11.414 14.6058 11.1491 14.2567 10.9661C13.9075 10.783 13.5192 10.6874 13.125 10.6875H9.34406C8.47125 9.53152 8.0625 8.5134 8.0625 7.49996C8.0625 5.77215 9.49875 4.31246 11.1994 4.31246ZM1.3125 18.75V15C1.3125 14.9502 1.33225 14.9025 1.36742 14.8674C1.40258 14.8322 1.45027 14.8125 1.5 14.8125H3.9375V18.9375H1.5C1.45027 18.9375 1.40258 18.9177 1.36742 18.8825C1.33225 18.8474 1.3125 18.7997 1.3125 18.75ZM20.6512 15.9375L17.07 17.4628L11.1806 18.9375H5.0625V14.4834L7.23844 12.3065C7.3948 12.1493 7.5808 12.0247 7.78566 11.9399C7.99051 11.8551 8.21016 11.8118 8.43188 11.8125H13.125C13.4731 11.8125 13.8069 11.9507 14.0531 12.1969C14.2992 12.443 14.4375 12.7769 14.4375 13.125C14.4375 13.4731 14.2992 13.8069 14.0531 14.053C13.8069 14.2992 13.4731 14.4375 13.125 14.4375H10.5C10.3508 14.4375 10.2077 14.4967 10.1023 14.6022C9.99676 14.7077 9.9375 14.8508 9.9375 15C9.9375 15.1491 9.99676 15.2922 10.1023 15.3977C10.2077 15.5032 10.3508 15.5625 10.5 15.5625H13.5C13.5423 15.5625 13.5844 15.5578 13.6256 15.5484L19.9069 14.1037L19.9294 14.0981C20.1658 14.0336 20.4177 14.0588 20.6367 14.1688C20.8557 14.2787 21.0263 14.4657 21.1158 14.6938C21.2053 14.9219 21.2074 15.175 21.1217 15.4046C21.0359 15.6341 20.8684 15.8239 20.6512 15.9375Z" fill="black"/>
</svg>
