<svg width="24" height="24" viewBox="0 0 24 24" fill="none" xmlns="http://www.w3.org/2000/svg">
<path d="M23.6726 10.2L21.281 5.41409C21.204 5.25989 21.0974 5.12237 20.9672 5.00938C20.8371 4.89638 20.6859 4.81013 20.5224 4.75555C20.3589 4.70097 20.1863 4.67912 20.0144 4.69126C19.8424 4.70339 19.6746 4.74927 19.5204 4.82628L17.1241 6.02441L12.1432 4.70628C12.0491 4.68191 11.9504 4.68191 11.8563 4.70628L6.87539 6.02441L4.48007 4.82628C4.32583 4.74913 4.15789 4.70313 3.98586 4.69092C3.81382 4.6787 3.64107 4.70052 3.47747 4.75511C3.31387 4.8097 3.16264 4.896 3.03241 5.00907C2.90218 5.12214 2.79552 5.25977 2.71851 5.41409L0.326949 10.2C0.171357 10.5113 0.145776 10.8717 0.255831 11.2019C0.365886 11.532 0.602566 11.805 0.913824 11.9607L3.45914 13.2338L8.67257 16.9575C8.72908 16.9983 8.79266 17.0281 8.86007 17.0457L14.8601 18.5457C14.9058 18.557 14.9527 18.5627 14.9998 18.5625C15.1489 18.5624 15.2919 18.5031 15.3973 18.3975L20.5826 13.2122L23.0857 11.9607C23.397 11.805 23.6336 11.532 23.7437 11.2019C23.8537 10.8717 23.8282 10.5113 23.6726 10.2ZM18.7038 13.4963L15.3476 10.8075C15.2393 10.7209 15.1029 10.6773 14.9645 10.6851C14.8261 10.6929 14.6954 10.7515 14.5976 10.8497C12.8491 12.6113 10.8944 12.3891 9.64851 11.5922C9.62401 11.5771 9.60332 11.5566 9.58804 11.5322C9.57276 11.5078 9.5633 11.4802 9.56039 11.4516C9.55706 11.4253 9.55963 11.3987 9.5679 11.3735C9.57617 11.3484 9.58994 11.3254 9.6082 11.3063L13.7276 7.31253H16.9019L19.5654 12.6394L18.7038 13.4963ZM1.32257 10.846C1.30707 10.799 1.31078 10.7477 1.33289 10.7035L3.72539 5.91659C3.74111 5.88539 3.76524 5.8592 3.79506 5.84097C3.82488 5.82275 3.85919 5.81323 3.89414 5.81347C3.9231 5.8135 3.95165 5.82024 3.97757 5.83316L6.05976 6.87378L3.49851 12L1.41632 10.9594C1.39385 10.9478 1.37397 10.9318 1.35785 10.9123C1.34174 10.8928 1.32974 10.8702 1.32257 10.846ZM14.8273 17.3775L9.23976 15.9807L4.46789 12.5719L7.20351 7.10159L11.9998 5.83222L13.3873 6.19972C13.2812 6.22035 13.1834 6.27151 13.106 6.34691L8.82164 10.5047C8.68253 10.6437 8.57644 10.8122 8.51122 10.9978C8.44599 11.1833 8.42329 11.3811 8.44481 11.5766C8.46632 11.7721 8.53148 11.9603 8.63549 12.1272C8.7395 12.2941 8.87969 12.4355 9.0457 12.541C10.9413 13.7522 13.241 13.5244 15.0269 11.9888L17.906 14.2969L14.8273 17.3775ZM22.6769 10.846C22.6692 10.8694 22.657 10.891 22.6409 10.9097C22.6248 10.9283 22.6052 10.9436 22.5832 10.9547L20.501 12L17.9398 6.87378L20.0219 5.83316C20.044 5.82208 20.068 5.81547 20.0926 5.8137C20.1173 5.81193 20.142 5.81504 20.1654 5.82284C20.1888 5.83056 20.2104 5.84281 20.2291 5.8589C20.2477 5.87498 20.2631 5.89459 20.2741 5.91659L22.6666 10.7035C22.6887 10.7477 22.6925 10.799 22.6769 10.846ZM12.1769 20.386C12.1408 20.5307 12.0488 20.6551 11.921 20.7319C11.7932 20.8087 11.6401 20.8317 11.4954 20.7957L7.5832 19.8178C7.51569 19.8006 7.45207 19.7707 7.3957 19.7297L4.92351 17.9663C4.86337 17.9232 4.8123 17.8687 4.77323 17.8059C4.73416 17.743 4.70784 17.6731 4.69578 17.6001C4.67143 17.4527 4.70664 17.3016 4.79367 17.1802C4.88069 17.0587 5.0124 16.9768 5.15982 16.9525C5.23282 16.9404 5.30747 16.9428 5.37953 16.9596C5.45158 16.9764 5.51962 17.0073 5.57976 17.0503L7.96007 18.75L11.7673 19.7016C11.8391 19.7196 11.9067 19.7515 11.9662 19.7957C12.0257 19.8398 12.0758 19.8953 12.1138 19.9589C12.1518 20.0225 12.1768 20.0929 12.1875 20.1662C12.1982 20.2395 12.1943 20.3142 12.176 20.386H12.1769Z" fill="black"/>
</svg>
