<svg width="24" height="24" viewBox="0 0 24 24" fill="none" xmlns="http://www.w3.org/2000/svg">
<path d="M20.0622 13.125V16.5C20.0622 18.8559 19.286 20.4375 19.2522 20.5013C19.2056 20.5947 19.1339 20.6732 19.0451 20.7282C18.9564 20.7832 18.8541 20.8124 18.7497 20.8125C18.6624 20.8127 18.5763 20.7922 18.4985 20.7525C18.3663 20.6857 18.2658 20.5695 18.2188 20.4291C18.1717 20.2887 18.1819 20.1354 18.2472 20.0025C18.2538 19.9894 18.9382 18.5784 18.9382 16.5038V13.125C18.9382 12.7769 18.7999 12.4431 18.5537 12.1969C18.3076 11.9508 17.9737 11.8125 17.6257 11.8125C17.2776 11.8125 16.9437 11.9508 16.6976 12.1969C16.4514 12.4431 16.3132 12.7769 16.3132 13.125V13.5C16.3132 13.6492 16.2539 13.7923 16.1484 13.8978C16.0429 14.0032 15.8998 14.0625 15.7507 14.0625C15.6015 14.0625 15.4584 14.0032 15.3529 13.8978C15.2474 13.7923 15.1882 13.6492 15.1882 13.5V11.625C15.1882 11.2769 15.0499 10.9431 14.8037 10.6969C14.5576 10.4508 14.2238 10.3125 13.8757 10.3125C13.5276 10.3125 13.1937 10.4508 12.9476 10.6969C12.7014 10.9431 12.5632 11.2769 12.5632 11.625V12.75C12.5632 12.8992 12.5039 13.0423 12.3984 13.1478C12.2929 13.2532 12.1498 13.3125 12.0007 13.3125C11.8515 13.3125 11.7084 13.2532 11.6029 13.1478C11.4974 13.0423 11.4382 12.8992 11.4382 12.75V6.37501C11.4382 6.02691 11.2999 5.69307 11.0537 5.44693C10.8076 5.20079 10.4738 5.06251 10.1257 5.06251C9.77756 5.06251 9.44372 5.20079 9.19758 5.44693C8.95143 5.69307 8.81315 6.02691 8.81315 6.37501V16.5C8.81302 16.6221 8.77314 16.7409 8.69955 16.8383C8.62597 16.9358 8.52266 17.0066 8.40525 17.0402C8.28783 17.0738 8.16269 17.0682 8.04871 17.0244C7.93474 16.9805 7.83812 16.9008 7.77347 16.7972L6.02222 13.9847C6.01857 13.9797 6.01543 13.9744 6.01284 13.9688C5.83879 13.6673 5.55211 13.4473 5.21586 13.3572C4.87962 13.2671 4.52135 13.3142 4.21987 13.4883C3.9184 13.6623 3.69841 13.949 3.6083 14.2853C3.5182 14.6215 3.56536 14.9798 3.7394 15.2813L6.48534 19.9688C6.55012 20.097 6.56338 20.2451 6.52241 20.3828C6.48143 20.5205 6.38932 20.6373 6.26498 20.7093C6.14063 20.7812 5.99346 20.8029 5.85367 20.7698C5.71387 20.7367 5.59204 20.6513 5.51315 20.5313L2.7644 15.8438C2.43955 15.2843 2.35025 14.6187 2.51613 13.9935C2.68201 13.3682 3.08949 12.8344 3.64893 12.5095C4.20838 12.1847 4.87395 12.0954 5.49924 12.2613C6.12452 12.4271 6.6583 12.8346 6.98315 13.3941L7.68722 14.5313V6.37501C7.68722 5.72854 7.94402 5.10855 8.40114 4.65143C8.85826 4.19431 9.47825 3.93751 10.1247 3.93751C10.7712 3.93751 11.3912 4.19431 11.8483 4.65143C12.3054 5.10855 12.5622 5.72854 12.5622 6.37501V9.57188C12.8934 9.36 13.271 9.23139 13.6626 9.19702C14.0543 9.16264 14.4485 9.22353 14.8115 9.37448C15.1746 9.52542 15.4957 9.76196 15.7476 10.0639C15.9994 10.3658 16.1745 10.7242 16.2578 11.1084C16.6243 10.8603 17.0514 10.7165 17.4933 10.6927C17.9352 10.6688 18.3753 10.7657 18.7663 10.973C19.1573 11.1802 19.4845 11.4901 19.7128 11.8692C19.9411 12.2483 20.0619 12.6824 20.0622 13.125ZM23.6472 4.85251L20.6472 1.85251C20.5406 1.75315 20.3995 1.69905 20.2538 1.70163C20.1081 1.7042 19.9691 1.76323 19.866 1.86629C19.7629 1.96935 19.7039 2.10839 19.7013 2.25411C19.6988 2.39984 19.7529 2.54088 19.8522 2.64751L21.8913 4.68751H16.4997C16.3505 4.68751 16.2075 4.74677 16.102 4.85226C15.9965 4.95775 15.9372 5.10082 15.9372 5.25001C15.9372 5.39919 15.9965 5.54227 16.102 5.64775C16.2075 5.75324 16.3505 5.81251 16.4997 5.81251H21.8913L19.8522 7.85251C19.7969 7.904 19.7526 7.9661 19.7219 8.0351C19.6911 8.1041 19.6746 8.17859 19.6733 8.25412C19.6719 8.32964 19.6858 8.40466 19.7141 8.47471C19.7424 8.54475 19.7845 8.60837 19.8379 8.66179C19.8914 8.7152 19.955 8.75731 20.025 8.7856C20.0951 8.81389 20.1701 8.82778 20.2456 8.82645C20.3211 8.82512 20.3956 8.80859 20.4646 8.77784C20.5336 8.7471 20.5957 8.70277 20.6472 8.64751L23.6472 5.64751C23.7526 5.54204 23.8117 5.39907 23.8117 5.25001C23.8117 5.10094 23.7526 4.95798 23.6472 4.85251Z" fill="black"/>
</svg>
