<svg width="24" height="24" viewBox="0 0 24 24" fill="none" xmlns="http://www.w3.org/2000/svg">
<path d="M20.4786 9.46875L18.8558 6.65625C18.6373 6.2779 18.3211 5.96522 17.9404 5.75094C17.5596 5.53666 17.1283 5.42866 16.6915 5.43824C16.2547 5.44783 15.8285 5.57464 15.4575 5.80541C15.0865 6.03618 14.7843 6.36243 14.5826 6.75L12.7939 3.65625C12.57 3.26929 12.2439 2.95136 11.8515 2.73726C11.459 2.52316 11.0152 2.42112 10.5686 2.44232C10.122 2.46351 9.68987 2.60713 9.31943 2.85744C8.94899 3.10776 8.65453 3.45513 8.46827 3.86157C8.04375 3.458 7.4881 3.2208 6.90302 3.19337C6.31793 3.16594 5.74252 3.35012 5.28211 3.71219C4.82169 4.07426 4.50705 4.59002 4.39576 5.16508C4.28448 5.74015 4.38399 6.33605 4.67608 6.84375L4.98452 7.37813C4.5474 7.35812 4.11295 7.45614 3.72678 7.66192C3.34061 7.8677 3.01695 8.17364 2.78977 8.54762C2.5626 8.92161 2.44029 9.34986 2.43568 9.78741C2.43107 10.225 2.54434 10.6557 2.76358 11.0344L6.51546 17.5313C7.04237 18.4501 7.74628 19.2553 8.58645 19.9003C9.42662 20.5452 10.3864 21.0172 11.4101 21.2888C12.0949 21.4737 12.8009 21.5683 13.5101 21.57C14.9242 21.5676 16.3128 21.1933 17.5365 20.4846C18.7603 19.776 19.7761 18.758 20.4821 17.5327C21.1881 16.3075 21.5594 14.9181 21.5588 13.504C21.5581 12.0899 21.1856 10.7009 20.4786 9.47625V9.46875ZM20.1973 15.2963C19.8419 16.6212 19.1016 17.811 18.0701 18.7153C17.0386 19.6196 15.7621 20.1978 14.402 20.3768C13.042 20.5558 11.6594 20.3276 10.429 19.721C9.19861 19.1144 8.17569 18.1566 7.48952 16.9688L3.73952 10.47C3.56547 10.1685 3.51831 9.81026 3.60842 9.47401C3.69853 9.13776 3.91851 8.85108 4.21999 8.67704C4.52147 8.50299 4.87974 8.45583 5.21598 8.54593C5.55223 8.63604 5.83891 8.85603 6.01296 9.1575L7.81483 12.2813C7.89087 12.4075 8.01343 12.4989 8.15616 12.5358C8.29889 12.5726 8.45038 12.5519 8.57803 12.4782C8.70568 12.4045 8.7993 12.2836 8.83873 12.1416C8.87817 11.9996 8.86027 11.8477 8.7889 11.7188L5.65015 6.28125C5.4761 5.97978 5.42894 5.62151 5.51905 5.28526C5.60915 4.94901 5.82914 4.66233 6.13062 4.48829C6.27989 4.40211 6.44468 4.34617 6.61557 4.32368C6.78647 4.30118 6.96012 4.31257 7.12661 4.35718C7.46285 4.44729 7.74954 4.66728 7.92358 4.96875L10.8458 10.0313C10.8952 10.1168 10.9662 10.1879 11.0518 10.2372C11.1374 10.2866 11.2345 10.3126 11.3333 10.3125C11.4321 10.3128 11.5292 10.2866 11.6145 10.2366C11.6786 10.1997 11.7347 10.1505 11.7798 10.0919C11.8248 10.0333 11.8578 9.96634 11.877 9.89494C11.8961 9.82354 11.901 9.74907 11.8914 9.67578C11.8817 9.6025 11.8577 9.53183 11.8208 9.46782L9.5464 5.53125C9.37235 5.22978 9.32519 4.87151 9.41529 4.53526C9.5054 4.19901 9.72539 3.91233 10.0269 3.73829C10.3283 3.56424 10.6866 3.51708 11.0229 3.60718C11.3591 3.69729 11.6458 3.91728 11.8198 4.21875L15.0261 9.77157C14.286 10.475 13.8196 11.4182 13.7097 12.4333C13.5998 13.4484 13.8537 14.4695 14.4261 15.315C14.5098 15.4386 14.6391 15.5239 14.7856 15.5521C14.9322 15.5803 15.0839 15.5491 15.2075 15.4655C15.3311 15.3818 15.4163 15.2525 15.4446 15.1059C15.4728 14.9594 15.4416 14.8076 15.358 14.6841C14.8991 14.0061 14.7186 13.1775 14.8541 12.3701C14.9895 11.5627 15.4304 10.8383 16.0855 10.3472C16.1955 10.2647 16.2716 10.1448 16.2992 10.01C16.3269 9.87529 16.3042 9.73509 16.2355 9.61594L15.6083 8.53125C15.5221 8.38198 15.4662 8.21719 15.4437 8.0463C15.4212 7.8754 15.4326 7.70175 15.4772 7.53526C15.5218 7.36877 15.5988 7.21269 15.7037 7.07595C15.8086 6.9392 15.9395 6.82447 16.0887 6.73829C16.238 6.65211 16.4028 6.59617 16.5737 6.57368C16.7446 6.55118 16.9182 6.56257 17.0847 6.60718C17.2512 6.6518 17.4073 6.72877 17.544 6.8337C17.6808 6.93864 17.7955 7.06948 17.8817 7.21875L19.5045 10.0313C19.9621 10.8192 20.259 11.6901 20.3779 12.5935C20.4968 13.4968 20.4354 14.4149 20.1973 15.2944V15.2963ZM17.4542 3.02063C17.4933 2.8771 17.5876 2.75489 17.7166 2.68074C17.8455 2.6066 17.9986 2.58656 18.1423 2.625C18.8345 2.80646 19.4836 3.12368 20.0521 3.55823C20.6205 3.99277 21.0969 4.53597 21.4536 5.15625L21.4845 5.20969C21.5231 5.27372 21.5485 5.34478 21.5592 5.41873C21.57 5.49268 21.5659 5.56804 21.5473 5.6404C21.5286 5.71276 21.4957 5.78067 21.4505 5.84017C21.4053 5.89967 21.3486 5.94957 21.2839 5.98694C21.2192 6.02431 21.1477 6.04841 21.0736 6.05784C20.9994 6.06726 20.9241 6.06182 20.8521 6.04182C20.7801 6.02183 20.7128 5.98769 20.6542 5.9414C20.5955 5.8951 20.5466 5.83758 20.5105 5.77219L20.4795 5.71875C20.1969 5.22669 19.8193 4.7957 19.3686 4.4508C18.918 4.10591 18.4033 3.854 17.8545 3.70969C17.7829 3.69085 17.7157 3.65806 17.6568 3.6132C17.598 3.56834 17.5485 3.51229 17.5113 3.44828C17.4741 3.38426 17.4499 3.31353 17.4401 3.24014C17.4303 3.16676 17.4351 3.09216 17.4542 3.02063ZM7.43608 22.0978C7.34377 22.2148 7.2088 22.2904 7.06079 22.308C6.91279 22.3256 6.76386 22.2837 6.64671 22.1916C5.54432 21.3213 4.61808 20.2487 3.91765 19.0313C3.84305 18.902 3.82288 18.7483 3.86156 18.6042C3.90024 18.46 3.9946 18.3371 4.1239 18.2625C4.25319 18.1879 4.40682 18.1677 4.55099 18.2064C4.69516 18.2451 4.81805 18.3395 4.89265 18.4688C5.52088 19.563 6.35271 20.5269 7.34327 21.3084C7.46015 21.4009 7.53556 21.5359 7.55296 21.6839C7.57037 21.8319 7.52833 21.9808 7.43608 22.0978Z" fill="black"/>
</svg>
