<svg width="24" height="24" viewBox="0 0 24 24" fill="none" xmlns="http://www.w3.org/2000/svg">
<path d="M5.43714 7.125C5.43714 5.68289 6.01002 4.29984 7.02975 3.28011C8.04947 2.26038 9.43252 1.6875 10.8746 1.6875C12.3168 1.6875 13.6998 2.26038 14.7195 3.28011C15.7393 4.29984 16.3121 5.68289 16.3121 7.125C16.3121 7.27418 16.2529 7.41726 16.1474 7.52275C16.0419 7.62824 15.8988 7.6875 15.7496 7.6875C15.6005 7.6875 15.4574 7.62824 15.3519 7.52275C15.2464 7.41726 15.1871 7.27418 15.1871 7.125C15.1871 5.98125 14.7328 4.88435 13.924 4.0756C13.1153 3.26685 12.0184 2.8125 10.8746 2.8125C9.73089 2.8125 8.63399 3.26685 7.82524 4.0756C7.01649 4.88435 6.56214 5.98125 6.56214 7.125C6.56214 7.27418 6.50287 7.41726 6.39739 7.52275C6.2919 7.62824 6.14882 7.6875 5.99964 7.6875C5.85045 7.6875 5.70738 7.62824 5.60189 7.52275C5.4964 7.41726 5.43714 7.27418 5.43714 7.125ZM18.3746 11.4375C17.8867 11.437 17.41 11.5837 17.0068 11.8584C16.9234 11.4743 16.7484 11.1161 16.4966 10.8143C16.2448 10.5125 15.9238 10.276 15.5608 10.1251C15.1979 9.97415 14.8039 9.91322 14.4123 9.94748C14.0208 9.98175 13.6433 10.1102 13.3121 10.3219V7.125C13.3121 6.47853 13.0553 5.85855 12.5982 5.40143C12.1411 4.94431 11.5211 4.6875 10.8746 4.6875C10.2282 4.6875 9.60819 4.94431 9.15107 5.40143C8.69395 5.85855 8.43714 6.47853 8.43714 7.125V15.2812L7.7312 14.1469C7.40635 13.5874 6.87257 13.18 6.24728 13.0141C5.622 12.8482 4.95642 12.9375 4.39698 13.2623C3.83754 13.5872 3.43006 14.121 3.26418 14.7463C3.09829 15.3715 3.1876 16.0371 3.51245 16.5966L6.2612 21.2841C6.33824 21.4088 6.46092 21.4985 6.60312 21.5341C6.74531 21.5697 6.8958 21.5484 7.02252 21.4747C7.14924 21.401 7.24219 21.2808 7.28158 21.1396C7.32096 20.9984 7.30367 20.8474 7.23339 20.7188L4.48745 16.0312C4.3134 15.7298 4.26624 15.3715 4.35635 15.0353C4.44645 14.699 4.66644 14.4123 4.96792 14.2383C5.2694 14.0642 5.62767 14.0171 5.96391 14.1072C6.30016 14.1973 6.58684 14.4173 6.76089 14.7188C6.76348 14.7244 6.76662 14.7297 6.77026 14.7347L8.52151 17.5472C8.58599 17.6512 8.68264 17.7314 8.7968 17.7755C8.91097 17.8197 9.03641 17.8254 9.1541 17.7917C9.2718 17.7581 9.37531 17.6871 9.44895 17.5893C9.52259 17.4915 9.56233 17.3724 9.56214 17.25V7.125C9.56214 6.7769 9.70042 6.44306 9.94656 6.19692C10.1927 5.95078 10.5265 5.8125 10.8746 5.8125C11.2227 5.8125 11.5566 5.95078 11.8027 6.19692C12.0489 6.44306 12.1871 6.7769 12.1871 7.125V13.5C12.1871 13.6492 12.2464 13.7923 12.3519 13.8977C12.4574 14.0032 12.6005 14.0625 12.7496 14.0625C12.8988 14.0625 13.0419 14.0032 13.1474 13.8977C13.2529 13.7923 13.3121 13.6492 13.3121 13.5V12.375C13.3121 12.0269 13.4504 11.6931 13.6966 11.4469C13.9427 11.2008 14.2765 11.0625 14.6246 11.0625C14.9727 11.0625 15.3066 11.2008 15.5527 11.4469C15.7989 11.6931 15.9371 12.0269 15.9371 12.375V14.25C15.9371 14.3992 15.9964 14.5423 16.1019 14.6477C16.2074 14.7532 16.3505 14.8125 16.4996 14.8125C16.6488 14.8125 16.7919 14.7532 16.8974 14.6477C17.0029 14.5423 17.0621 14.3992 17.0621 14.25V13.875C17.0621 13.5269 17.2004 13.1931 17.4466 12.9469C17.6927 12.7008 18.0265 12.5625 18.3746 12.5625C18.7227 12.5625 19.0566 12.7008 19.3027 12.9469C19.5489 13.1931 19.6871 13.5269 19.6871 13.875V17.25C19.6871 19.3247 19.0028 20.7356 18.9962 20.7488C18.931 20.8818 18.9209 21.0352 18.9681 21.1756C19.0153 21.316 19.1161 21.4321 19.2484 21.4988C19.3258 21.5398 19.412 21.5617 19.4996 21.5625C19.6043 21.5627 19.707 21.5337 19.7961 21.4787C19.8853 21.4237 19.9572 21.3449 20.004 21.2512C20.0368 21.1856 20.8131 19.6059 20.8131 17.25V13.875C20.8131 13.5548 20.75 13.2378 20.6274 12.942C20.5049 12.6462 20.3253 12.3775 20.0988 12.1511C19.8724 11.9247 19.6036 11.7452 19.3077 11.6228C19.0119 11.5003 18.6948 11.4374 18.3746 11.4375Z" fill="black"/>
</svg>
