<svg width="24" height="24" viewBox="0 0 24 24" fill="none" xmlns="http://www.w3.org/2000/svg">
<path d="M20.0622 13.1249V16.4999C20.0622 18.8559 19.286 20.4374 19.2522 20.5012C19.2206 20.5696 19.1757 20.631 19.1199 20.6816C19.0642 20.7323 18.9989 20.7713 18.9278 20.7962C18.8567 20.8212 18.7813 20.8316 18.7062 20.8269C18.631 20.8221 18.5575 20.8024 18.4901 20.7687C18.4227 20.735 18.3628 20.6882 18.3138 20.6309C18.2649 20.5736 18.228 20.5071 18.2052 20.4353C18.1825 20.3635 18.1744 20.2878 18.1814 20.2128C18.1885 20.1378 18.2105 20.065 18.2463 19.9987C18.2528 19.9856 18.9372 18.5746 18.9372 16.4999V13.1249C18.9372 12.7768 18.7989 12.443 18.5528 12.1969C18.3067 11.9507 17.9728 11.8124 17.6247 11.8124C17.2766 11.8124 16.9428 11.9507 16.6966 12.1969C16.4505 12.443 16.3122 12.7768 16.3122 13.1249V13.4999C16.3122 13.6491 16.253 13.7922 16.1475 13.8977C16.042 14.0032 15.8989 14.0624 15.7497 14.0624C15.6005 14.0624 15.4575 14.0032 15.352 13.8977C15.2465 13.7922 15.1872 13.6491 15.1872 13.4999V11.6249C15.1872 11.2768 15.0489 10.943 14.8028 10.6969C14.5567 10.4507 14.2228 10.3124 13.8747 10.3124C13.5266 10.3124 13.1928 10.4507 12.9466 10.6969C12.7005 10.943 12.5622 11.2768 12.5622 11.6249V12.7499C12.5622 12.8991 12.503 13.0422 12.3975 13.1477C12.292 13.2532 12.1489 13.3124 11.9997 13.3124C11.8505 13.3124 11.7075 13.2532 11.602 13.1477C11.4965 13.0422 11.4372 12.8991 11.4372 12.7499V6.37494C11.4372 6.02684 11.2989 5.69301 11.0528 5.44686C10.8067 5.20072 10.4728 5.06244 10.1247 5.06244C9.77662 5.06244 9.44278 5.20072 9.19664 5.44686C8.9505 5.69301 8.81222 6.02684 8.81222 6.37494V16.4999C8.81208 16.6221 8.7722 16.7408 8.69862 16.8383C8.62503 16.9357 8.52173 17.0066 8.40431 17.0401C8.2869 17.0737 8.16175 17.0681 8.04777 17.0243C7.9338 16.9805 7.83718 16.9007 7.77253 16.7971L6.02128 13.9846C6.01764 13.9796 6.0145 13.9743 6.0119 13.9687C5.83785 13.6672 5.55117 13.4472 5.21493 13.3571C4.87868 13.267 4.52041 13.3142 4.21893 13.4882C3.91746 13.6623 3.69747 13.949 3.60736 14.2852C3.51726 14.6214 3.56442 14.9797 3.73847 15.2812L6.4844 19.9687C6.54726 20.0966 6.5592 20.2437 6.51781 20.3801C6.47642 20.5165 6.3848 20.6321 6.26145 20.7035C6.1381 20.7749 5.99224 20.7969 5.85333 20.7649C5.71442 20.7329 5.59284 20.6494 5.51315 20.5312L2.7644 15.8437C2.43955 15.2843 2.35025 14.6187 2.51613 13.9934C2.68201 13.3681 3.08949 12.8343 3.64893 12.5095C4.20838 12.1846 4.87395 12.0953 5.49924 12.2612C6.12452 12.4271 6.6583 12.8346 6.98315 13.394L7.68722 14.5312V6.37494C7.68722 5.72848 7.94402 5.10849 8.40114 4.65137C8.85826 4.19425 9.47825 3.93744 10.1247 3.93744C10.7712 3.93744 11.3912 4.19425 11.8483 4.65137C12.3054 5.10849 12.5622 5.72848 12.5622 6.37494V9.57182C12.8934 9.35994 13.271 9.23133 13.6626 9.19695C14.0543 9.16258 14.4485 9.22346 14.8115 9.37441C15.1746 9.52536 15.4957 9.76189 15.7476 10.0638C15.9994 10.3658 16.1745 10.7241 16.2578 11.1084C16.6243 10.8602 17.0514 10.7165 17.4933 10.6926C17.9352 10.6687 18.3753 10.7656 18.7663 10.9729C19.1573 11.1802 19.4845 11.49 19.7128 11.8691C19.9411 12.2482 20.0619 12.6824 20.0622 13.1249ZM23.2497 4.68744H17.8572L19.8972 2.64744C20.0012 2.5416 20.0592 2.39895 20.0585 2.25056C20.0578 2.10217 19.9985 1.96006 19.8935 1.85519C19.7885 1.75032 19.6464 1.69119 19.498 1.69068C19.3496 1.69016 19.207 1.74831 19.1013 1.85244L16.1013 4.85244C15.9959 4.95791 15.9368 5.10088 15.9368 5.24994C15.9368 5.399 15.9959 5.54197 16.1013 5.64744L19.1013 8.64744C19.207 8.75158 19.3496 8.80972 19.498 8.80921C19.6464 8.80869 19.7885 8.74956 19.8935 8.64469C19.9985 8.53982 20.0578 8.39772 20.0585 8.24932C20.0592 8.10093 20.0012 7.95828 19.8972 7.85244L17.8572 5.81244H23.2497C23.3989 5.81244 23.542 5.75318 23.6475 5.64769C23.753 5.5422 23.8122 5.39913 23.8122 5.24994C23.8122 5.10076 23.753 4.95768 23.6475 4.85219C23.542 4.7467 23.3989 4.68744 23.2497 4.68744Z" fill="black"/>
</svg>
