<svg width="24" height="24" viewBox="0 0 24 24" fill="none" xmlns="http://www.w3.org/2000/svg">
<path d="M19.7349 2.90619C19.4938 2.48871 19.1344 2.15208 18.702 1.93887C18.2697 1.72565 17.7838 1.64543 17.3058 1.70835C16.8279 1.77127 16.3793 1.9745 16.0169 2.29234C15.6544 2.61018 15.3943 3.02836 15.2695 3.494L13.8745 8.70182L12.4795 3.49494C12.3122 2.87048 11.9037 2.33807 11.3438 2.01483C10.7839 1.6916 10.1185 1.60401 9.49408 1.77135C8.86961 1.93868 8.3372 2.34723 8.01397 2.90711C7.69073 3.467 7.60315 4.13236 7.77048 4.75682L8.72767 8.32682L7.61298 8.11213C7.07589 8.00193 6.51733 8.07602 6.02755 8.32244C5.53776 8.56885 5.14536 8.9732 4.91374 9.47016C4.68211 9.96711 4.6248 10.5276 4.75106 11.0612C4.87731 11.5947 5.17976 12.0701 5.60954 12.4106C5.15955 12.7657 4.85025 13.269 4.73673 13.8309C4.7035 13.995 4.68685 14.1621 4.68704 14.3296V14.9999C4.68704 16.9393 5.45747 18.7993 6.82883 20.1707C8.20019 21.542 10.0601 22.3124 11.9995 22.3124H12.0558C16.057 22.2824 19.312 18.9646 19.312 14.9156V14.6024C19.3105 13.448 18.9135 12.329 18.187 11.4318L19.9749 4.75682C20.0592 4.44781 20.0815 4.12512 20.0403 3.80746C19.9991 3.48979 19.8953 3.18346 19.7349 2.90619ZM8.98829 3.46869C9.11808 3.2438 9.31166 3.06246 9.54453 2.94762C9.7774 2.83277 10.0391 2.78957 10.2965 2.8235C10.554 2.85742 10.7955 2.96693 10.9907 3.13819C11.1859 3.30944 11.3259 3.53473 11.393 3.78557L12.8433 9.18744C12.258 9.16603 11.6846 9.35606 11.228 9.72275C11.1924 9.65713 11.1539 9.59244 11.1117 9.52869C10.8364 9.10964 10.4372 8.78685 9.96986 8.60525L8.85704 4.46525C8.81206 4.2987 8.8005 4.12489 8.82303 3.95385C8.84555 3.78281 8.90172 3.61792 8.98829 3.46869ZM5.83923 10.2374C5.87385 10.0681 5.94157 9.90727 6.03851 9.76417C6.13545 9.62108 6.2597 9.49854 6.40413 9.40359C6.54856 9.30864 6.71031 9.24316 6.88011 9.21089C7.04992 9.17862 7.22442 9.18021 7.39361 9.21557L9.33798 9.59057C9.51237 9.61914 9.6792 9.68264 9.82845 9.77726C9.97771 9.87188 10.1063 9.99566 10.2066 10.1412C10.3068 10.2867 10.3767 10.451 10.4119 10.6242C10.4471 10.7973 10.447 10.9758 10.4116 11.149C10.3761 11.3221 10.3061 11.4863 10.2057 11.6317C10.1053 11.7771 9.97649 11.9007 9.82712 11.9952C9.67775 12.0896 9.51085 12.1529 9.33643 12.1813C9.162 12.2096 8.98364 12.2025 8.81204 12.1603L7.68704 11.9437L7.61954 11.9306L7.58204 11.924L6.86673 11.7862C6.52628 11.716 6.22758 11.5136 6.03618 11.2234C5.84478 10.9332 5.77631 10.579 5.84579 10.2384L5.83923 10.2374ZM5.83923 14.0549C5.90892 13.7167 6.1091 13.4196 6.39637 13.228C6.68365 13.0363 7.03487 12.9656 7.37392 13.0312L7.46767 13.0499L8.32454 13.2187C8.49676 13.2498 8.66101 13.315 8.80765 13.4105C8.95428 13.506 9.08034 13.6299 9.1784 13.7748C9.27646 13.9198 9.34455 14.0829 9.37866 14.2545C9.41276 14.4261 9.4122 14.6029 9.37701 14.7743C9.34181 14.9457 9.27269 15.1084 9.17371 15.2527C9.07473 15.397 8.94789 15.5201 8.80065 15.6146C8.65341 15.7092 8.48874 15.7734 8.31633 15.8034C8.14393 15.8334 7.96726 15.8286 7.79673 15.7893L6.85923 15.6018C6.5186 15.5318 6.21968 15.3295 6.02808 15.0393C5.83649 14.7491 5.76789 14.3947 5.83736 14.054L5.83923 14.0549ZM18.187 14.9156C18.187 18.3487 15.4317 21.1621 12.0464 21.1874C10.6541 21.1973 9.29907 20.7377 8.20007 19.8827C7.10107 19.0278 6.32222 17.8275 5.98923 16.4756C6.19332 16.5831 6.4118 16.6608 6.63798 16.7062L7.57548 16.8937C7.73751 16.9264 7.90237 16.9431 8.06767 16.9434C8.50769 16.9426 8.93928 16.8227 9.31666 16.5964C9.69404 16.3701 10.0031 16.0459 10.2111 15.6581C10.4191 15.2704 10.5183 14.8336 10.4981 14.394C10.4779 13.9544 10.3391 13.5285 10.0964 13.1615L10.057 13.1053C10.2521 13.0193 10.4352 12.9084 10.6017 12.7753C10.6374 12.8415 10.6758 12.9062 10.717 12.9693C10.8932 13.2373 11.1208 13.4677 11.3867 13.6472C11.6525 13.8266 11.9513 13.9515 12.2658 14.0146L13.0477 14.1703C12.9748 14.4408 12.9376 14.7197 12.937 14.9999C12.9353 15.8345 13.2623 16.6361 13.8474 17.2312C13.9518 17.3377 14.0943 17.3984 14.2434 17.3999C14.3926 17.4014 14.5363 17.3436 14.6428 17.2392C14.7494 17.1347 14.8101 16.9923 14.8116 16.8431C14.8131 16.6939 14.7552 16.5502 14.6508 16.4437C14.3424 16.129 14.1429 15.7239 14.0815 15.2876C14.0201 14.8513 14.1 14.4069 14.3095 14.0193C14.3516 13.9419 14.375 13.8556 14.3776 13.7675C14.3802 13.6793 14.3621 13.5918 14.3247 13.512C14.2873 13.4322 14.2316 13.3623 14.1622 13.3079C14.0928 13.2535 14.0116 13.2162 13.9252 13.199L12.487 12.9112C12.3148 12.8801 12.1506 12.8149 12.0039 12.7194C11.8573 12.6239 11.7312 12.5 11.6332 12.3551C11.5351 12.2101 11.467 12.047 11.4329 11.8754C11.3988 11.7037 11.3994 11.527 11.4346 11.3556C11.4698 11.1842 11.5389 11.0215 11.6379 10.8772C11.7369 10.7329 11.8637 10.6098 12.0109 10.5153C12.1582 10.4207 12.3228 10.3565 12.4953 10.3265C12.6677 10.2965 12.8443 10.3013 13.0149 10.3406L15.0211 10.7409C15.9129 10.9213 16.7151 11.4041 17.292 12.1077C17.8688 12.8113 18.185 13.6926 18.187 14.6024V14.9156ZM18.8911 4.46525L17.2636 10.5393C16.6649 10.0924 15.9741 9.78463 15.2414 9.63838L14.8111 9.55213L16.3561 3.7865C16.4613 3.46839 16.6842 3.20257 16.9791 3.04349C17.274 2.88442 17.6185 2.84414 17.9422 2.93092C18.2658 3.0177 18.544 3.22496 18.7197 3.51023C18.8954 3.7955 18.9554 4.13718 18.8874 4.46525H18.8911Z" fill="black"/>
</svg>
