<svg width="24" height="24" viewBox="0 0 24 24" fill="none" xmlns="http://www.w3.org/2000/svg">
<path d="M21 8.43756H16.2188L17.0522 3.85037C17.0683 3.77656 17.0694 3.70027 17.0553 3.62604C17.0413 3.55181 17.0125 3.48116 16.9706 3.41831C16.9286 3.35547 16.8745 3.30171 16.8113 3.26025C16.7482 3.21879 16.6773 3.19048 16.603 3.177C16.5287 3.16352 16.4524 3.16515 16.3787 3.18179C16.305 3.19843 16.2354 3.22975 16.1741 3.27387C16.1128 3.31799 16.061 3.37401 16.0218 3.43859C15.9826 3.50317 15.9568 3.57498 15.9459 3.64975L15.0759 8.43756H10.2188L11.0522 3.85037C11.0731 3.70614 11.0372 3.55943 10.9521 3.44113C10.867 3.32283 10.7393 3.24218 10.5959 3.21618C10.4525 3.19017 10.3046 3.22083 10.1834 3.30171C10.0621 3.38259 9.977 3.50736 9.94594 3.64975L9.07594 8.43756H4.5C4.35082 8.43756 4.20774 8.49682 4.10225 8.60231C3.99676 8.7078 3.9375 8.85087 3.9375 9.00006C3.9375 9.14924 3.99676 9.29232 4.10225 9.39781C4.20774 9.5033 4.35082 9.56256 4.5 9.56256H8.87156L7.98469 14.4376H3C2.85082 14.4376 2.70774 14.4968 2.60225 14.6023C2.49676 14.7078 2.4375 14.8509 2.4375 15.0001C2.4375 15.1492 2.49676 15.2923 2.60225 15.3978C2.70774 15.5033 2.85082 15.5626 3 15.5626H7.78125L6.94687 20.1497C6.93334 20.2226 6.93433 20.2974 6.94979 20.3698C6.96524 20.4423 6.99485 20.511 7.03693 20.572C7.079 20.6329 7.13271 20.685 7.19496 20.7252C7.25721 20.7653 7.32679 20.7928 7.39969 20.806C7.43284 20.8114 7.46643 20.8136 7.5 20.8126C7.63156 20.8123 7.75886 20.7658 7.85974 20.6814C7.96063 20.597 8.02873 20.4798 8.05219 20.3504L8.92406 15.5626H13.7812L12.9478 20.1497C12.9343 20.2226 12.9353 20.2974 12.9507 20.3698C12.9662 20.4423 12.9958 20.511 13.0379 20.572C13.0799 20.6329 13.1336 20.685 13.1959 20.7252C13.2582 20.7653 13.3277 20.7928 13.4006 20.806C13.434 20.8124 13.4679 20.8155 13.5019 20.8154C13.6334 20.8151 13.7607 20.7687 13.8616 20.6842C13.9625 20.5998 14.0306 20.4826 14.0541 20.3532L14.9241 15.5626H19.5C19.6492 15.5626 19.7923 15.5033 19.8977 15.3978C20.0032 15.2923 20.0625 15.1492 20.0625 15.0001C20.0625 14.8509 20.0032 14.7078 19.8977 14.6023C19.7923 14.4968 19.6492 14.4376 19.5 14.4376H15.1284L16.0153 9.56256H21C21.1492 9.56256 21.2923 9.5033 21.3977 9.39781C21.5032 9.29232 21.5625 9.14924 21.5625 9.00006C21.5625 8.85087 21.5032 8.7078 21.3977 8.60231C21.2923 8.49682 21.1492 8.43756 21 8.43756ZM13.9847 14.4376H9.12844L10.0153 9.56256H14.8716L13.9847 14.4376Z" fill="black"/>
</svg>
