<svg width="24" height="24" viewBox="0 0 24 24" fill="none" xmlns="http://www.w3.org/2000/svg">
<path d="M16.6875 3.93744C15.9485 3.93546 15.2164 4.08001 14.5337 4.36274C13.8509 4.64548 13.2309 5.06078 12.7097 5.58463L12 6.29526L11.2903 5.58463C10.5036 4.79783 9.5013 4.26199 8.41007 4.04489C7.31884 3.82779 6.18773 3.93919 5.15981 4.36499C4.1319 4.79078 3.25334 5.51186 2.63527 6.43701C2.01719 7.36216 1.68737 8.44983 1.6875 9.56244C1.6875 12.2999 3.39375 15.149 6.75937 18.029C8.30161 19.3432 9.96751 20.5048 11.7338 21.4978C11.8156 21.5417 11.9071 21.5648 12 21.5648C12.0929 21.5648 12.1844 21.5417 12.2662 21.4978C14.0325 20.5048 15.6984 19.3432 17.2406 18.029C20.6062 15.149 22.3125 12.2999 22.3125 9.56244C22.3108 8.07113 21.7176 6.6414 20.6631 5.58689C19.6085 4.53237 18.1788 3.93918 16.6875 3.93744ZM12 20.354C10.4616 19.4662 2.8125 14.7862 2.8125 9.56244C2.81254 8.67246 3.07648 7.80247 3.57095 7.06249C4.06542 6.32251 4.76821 5.74576 5.59045 5.40519C6.41269 5.06461 7.31746 4.97549 8.19035 5.14911C9.06324 5.32273 9.86504 5.75128 10.4944 6.38057L11.2041 7.09026L10.1025 8.19276C10.0502 8.245 10.0087 8.30703 9.9804 8.37532C9.9521 8.44361 9.93753 8.5168 9.93753 8.59073C9.93753 8.66465 9.9521 8.73784 9.9804 8.80613C10.0087 8.87442 10.0502 8.93645 10.1025 8.98869L12.5344 11.4206L10.8525 13.1024C10.7531 13.2091 10.699 13.3501 10.7016 13.4958C10.7042 13.6416 10.7632 13.7806 10.8663 13.8837C10.9693 13.9867 11.1084 14.0458 11.2541 14.0483C11.3998 14.0509 11.5409 13.9968 11.6475 13.8974L13.7278 11.8181C13.7801 11.7658 13.8216 11.7038 13.8499 11.6355C13.8782 11.5672 13.8928 11.494 13.8928 11.4201C13.8928 11.3462 13.8782 11.273 13.8499 11.2047C13.8216 11.1364 13.7801 11.0744 13.7278 11.0221L11.2959 8.59026L13.5056 6.38057C14.135 5.75128 14.9368 5.32273 15.8097 5.14911C16.6825 4.97549 17.5873 5.06461 18.4095 5.40519C19.2318 5.74576 19.9346 6.32251 20.429 7.06249C20.9235 7.80247 21.1875 8.67246 21.1875 9.56244C21.1875 14.7862 13.5384 19.4662 12 20.354Z" fill="black"/>
</svg>
