<svg width="24" height="24" viewBox="0 0 24 24" fill="none" xmlns="http://www.w3.org/2000/svg">
<path d="M20.7773 5.47314C19.7922 4.49098 18.4578 3.93946 17.0667 3.93946C15.6756 3.93946 14.3412 4.49098 13.3561 5.47314L12.0004 6.77252L10.6467 5.46939C10.1591 4.98186 9.58025 4.59514 8.9432 4.33131C8.30615 4.06749 7.62338 3.93172 6.93386 3.93176C5.54132 3.93185 4.20584 4.48512 3.22122 5.46986C2.23661 6.4546 1.68351 7.79015 1.68359 9.18269C1.68368 10.5752 2.23695 11.9107 3.22169 12.8953L11.6001 21.3947C11.6525 21.4479 11.7149 21.4901 11.7837 21.5189C11.8525 21.5477 11.9263 21.5625 12.0009 21.5625C12.0755 21.5625 12.1494 21.5477 12.2182 21.5189C12.287 21.4901 12.3494 21.4479 12.4017 21.3947L20.7764 12.8981C21.7598 11.913 22.3122 10.5779 22.3124 9.18584C22.3126 7.79381 21.7605 6.45858 20.7773 5.47314ZM19.9795 12.106L12.0004 20.1985L4.02138 12.1031C3.24761 11.3295 2.81286 10.2802 2.81278 9.18597C2.81269 8.09179 3.24727 7.04238 4.02091 6.26861C4.79456 5.49484 5.84389 5.06009 6.93808 5.06001C8.03227 5.05992 9.08167 5.4945 9.85544 6.26814L9.86294 6.27564L11.1904 7.55439L10.1114 8.59314C10.0576 8.645 10.0147 8.70705 9.98514 8.77567C9.9556 8.84429 9.94003 8.91811 9.93933 8.99282C9.93864 9.06753 9.95283 9.14162 9.98108 9.21079C10.0093 9.27995 10.0511 9.34279 10.1039 9.39564L12.7064 12L11.6039 13.1025C11.551 13.1546 11.5089 13.2167 11.4801 13.2851C11.4513 13.3536 11.4364 13.427 11.4361 13.5013C11.4359 13.5755 11.4503 13.6491 11.4786 13.7178C11.5069 13.7864 11.5486 13.8488 11.6011 13.9012C11.6536 13.9537 11.716 13.9953 11.7847 14.0235C11.8534 14.0517 11.927 14.0661 12.0012 14.0657C12.0755 14.0654 12.1489 14.0504 12.2173 14.0215C12.2858 13.9926 12.3478 13.9505 12.3998 13.8975L13.8998 12.3975C13.9521 12.3453 13.9936 12.2832 14.0219 12.215C14.0502 12.1467 14.0648 12.0735 14.0648 11.9995C14.0648 11.9256 14.0502 11.8524 14.0219 11.7841C13.9936 11.7159 13.9521 11.6538 13.8998 11.6016L11.3048 9.00564L14.1398 6.27564C14.1428 6.27364 14.1453 6.2711 14.1473 6.26814C14.9215 5.49475 15.9711 5.06055 17.0654 5.06108C18.1597 5.06161 19.2089 5.49681 19.9823 6.27096C20.7557 7.0451 21.1899 8.09476 21.1894 9.18904C21.1889 10.2833 20.7536 11.3326 19.9795 12.106Z" fill="black"/>
</svg>
