<svg width="24" height="24" viewBox="0 0 24 24" fill="none" xmlns="http://www.w3.org/2000/svg">
<path d="M20.88 6.36654L12.63 1.84966C12.4371 1.74313 12.2204 1.68726 12 1.68726C11.7796 1.68726 11.5629 1.74313 11.37 1.84966L3.12 6.36654C2.91357 6.47949 2.7413 6.64586 2.62123 6.84823C2.50115 7.05061 2.4377 7.28154 2.4375 7.51685V16.4831C2.4377 16.7184 2.50115 16.9493 2.62123 17.1517C2.7413 17.3541 2.91357 17.5205 3.12 17.6334L11.37 22.1503C11.5629 22.2567 11.7797 22.3124 12 22.3124C12.2203 22.3124 12.4371 22.2567 12.63 22.1503L20.88 17.6334C21.0864 17.5205 21.2587 17.3541 21.3788 17.1517C21.4988 16.9493 21.5623 16.7184 21.5625 16.4831V7.51685C21.5623 7.28154 21.4988 7.05061 21.3788 6.84823C21.2587 6.64586 21.0864 6.47949 20.88 6.36654ZM20.4375 16.4831C20.4378 16.5163 20.4293 16.549 20.4128 16.5778C20.3963 16.6066 20.3725 16.6306 20.3438 16.6472L12.0938 21.164C12.0662 21.1791 12.0352 21.1871 12.0037 21.1871C11.9723 21.1871 11.9413 21.1791 11.9137 21.164L3.65625 16.6472C3.6275 16.6306 3.60367 16.6066 3.5872 16.5778C3.57073 16.549 3.5622 16.5163 3.5625 16.4831V7.51685C3.5622 7.48365 3.57073 7.45097 3.5872 7.42215C3.60367 7.39332 3.6275 7.36939 3.65625 7.35279L11.9062 2.83591C11.9338 2.82082 11.9648 2.8129 11.9963 2.8129C12.0277 2.8129 12.0587 2.82082 12.0863 2.83591L20.3363 7.35279C20.365 7.36939 20.3888 7.39332 20.4053 7.42215C20.4218 7.45097 20.4303 7.48365 20.43 7.51685L20.4375 16.4831Z" fill="black"/>
</svg>
