<svg width="24" height="24" viewBox="0 0 24 24" fill="none" xmlns="http://www.w3.org/2000/svg">
<path d="M21 14.4375H12.1875L3.42844 4.13621C3.38126 4.07786 3.32289 4.02954 3.25675 3.99409C3.19062 3.95865 3.11806 3.93679 3.04335 3.92981C2.96864 3.92283 2.89329 3.93086 2.82173 3.95345C2.75017 3.97603 2.68386 4.0127 2.62669 4.0613C2.56952 4.1099 2.52265 4.16945 2.48885 4.23644C2.45504 4.30342 2.43498 4.3765 2.42984 4.45136C2.4247 4.52622 2.43459 4.60135 2.45893 4.67233C2.48327 4.74331 2.52157 4.8087 2.57156 4.86465L15.0938 19.6003C15.2173 19.7456 15.3711 19.8622 15.5443 19.942C15.7176 20.0218 15.9061 20.0629 16.0969 20.0625H21C21.3481 20.0625 21.6819 19.9242 21.9281 19.678C22.1742 19.4319 22.3125 19.0981 22.3125 18.75V15.75C22.3125 15.4019 22.1742 15.068 21.9281 14.8219C21.6819 14.5757 21.3481 14.4375 21 14.4375ZM15.9544 18.8718L13.1419 15.5625H18.1875V18.9375H16.0969C16.0698 18.9375 16.043 18.9316 16.0184 18.9203C15.9938 18.9089 15.972 18.8924 15.9544 18.8718ZM21.1875 18.75C21.1875 18.7997 21.1677 18.8474 21.1326 18.8825C21.0974 18.9177 21.0497 18.9375 21 18.9375H19.3125V15.5625H21C21.0497 15.5625 21.0974 15.5822 21.1326 15.6174C21.1677 15.6525 21.1875 15.7002 21.1875 15.75V18.75ZM10.3959 16.9762C10.3397 16.9283 10.2745 16.892 10.2042 16.8692C10.1339 16.8465 10.0598 16.8379 9.98617 16.8438C9.91251 16.8497 9.84075 16.8701 9.77497 16.9037C9.70919 16.9374 9.65069 16.9837 9.60281 17.04L8.04562 18.8718C8.02802 18.8924 8.00617 18.9089 7.98157 18.9203C7.95697 18.9316 7.93021 18.9375 7.90313 18.9375H5.8125V15.5625H7.9875C8.13668 15.5625 8.27976 15.5032 8.38525 15.3977C8.49074 15.2922 8.55 15.1491 8.55 15C8.55 14.8508 8.49074 14.7077 8.38525 14.6022C8.27976 14.4967 8.13668 14.4375 7.9875 14.4375H3C2.6519 14.4375 2.31806 14.5757 2.07192 14.8219C1.82578 15.068 1.6875 15.4019 1.6875 15.75V18.75C1.6875 19.0981 1.82578 19.4319 2.07192 19.678C2.31806 19.9242 2.6519 20.0625 3 20.0625H7.90313C8.09387 20.0629 8.28243 20.0218 8.45567 19.942C8.62891 19.8622 8.78267 19.7456 8.90625 19.6003L10.4625 17.7684C10.5586 17.6545 10.6056 17.5071 10.5931 17.3585C10.5807 17.21 10.5097 17.0725 10.3959 16.9762ZM2.8125 18.75V15.75C2.8125 15.7002 2.83225 15.6525 2.86742 15.6174C2.90258 15.5822 2.95027 15.5625 3 15.5625H4.6875V18.9375H3C2.95027 18.9375 2.90258 18.9177 2.86742 18.8825C2.83225 18.8474 2.8125 18.7997 2.8125 18.75ZM14.1966 11.6362L20.5716 4.13621C20.6187 4.07786 20.6771 4.02954 20.7432 3.99409C20.8094 3.95865 20.8819 3.93679 20.9566 3.92981C21.0314 3.92283 21.1067 3.93086 21.1783 3.95345C21.2498 3.97603 21.3161 4.0127 21.3733 4.0613C21.4305 4.1099 21.4773 4.16945 21.5112 4.23644C21.545 4.30342 21.565 4.3765 21.5702 4.45136C21.5753 4.52622 21.5654 4.60135 21.5411 4.67233C21.5167 4.74331 21.4784 4.8087 21.4284 4.86465L15.0534 12.3647C14.9556 12.4741 14.8189 12.541 14.6725 12.551C14.5261 12.5611 14.3815 12.5135 14.2697 12.4184C14.1578 12.3234 14.0876 12.1883 14.0739 12.0422C14.0603 11.8961 14.1043 11.7504 14.1966 11.6362Z" fill="black"/>
</svg>
