<svg width="24" height="24" viewBox="0 0 24 24" fill="none" xmlns="http://www.w3.org/2000/svg">
<path d="M20.4281 10.3218L12.9281 2.82185C12.8062 2.69996 12.6616 2.60327 12.5023 2.5373C12.3431 2.47133 12.1724 2.43738 12 2.43738C11.8276 2.43738 11.6569 2.47133 11.4977 2.5373C11.3385 2.60327 11.1938 2.69996 11.0719 2.82185L3.57188 10.3218C3.44967 10.4435 3.35278 10.5881 3.28681 10.7474C3.22083 10.9067 3.18708 11.0775 3.1875 11.25V20.25C3.1875 20.3992 3.24677 20.5422 3.35226 20.6477C3.45775 20.7532 3.60082 20.8125 3.75 20.8125H20.25C20.3992 20.8125 20.5423 20.7532 20.6478 20.6477C20.7532 20.5422 20.8125 20.3992 20.8125 20.25V11.25C20.8129 11.0775 20.7792 10.9067 20.7132 10.7474C20.6472 10.5881 20.5503 10.4435 20.4281 10.3218ZM19.6875 19.6875H4.3125V11.25C4.31236 11.2253 4.31709 11.2008 4.32642 11.178C4.33575 11.1551 4.3495 11.1344 4.36688 11.1168L11.8669 3.61685C11.8843 3.59927 11.905 3.58532 11.9279 3.57581C11.9507 3.56629 11.9753 3.56139 12 3.56139C12.0248 3.56139 12.0493 3.56629 12.0721 3.57581C12.095 3.58532 12.1157 3.59927 12.1331 3.61685L19.6331 11.1168C19.6505 11.1344 19.6643 11.1551 19.6736 11.178C19.6829 11.2008 19.6876 11.2253 19.6875 11.25V19.6875Z" fill="black"/>
</svg>
