<svg width="24" height="24" viewBox="0 0 24 24" fill="none" xmlns="http://www.w3.org/2000/svg">
<path d="M22.5 19.6876H20.8125V12.2972L21.3525 12.8372C21.4583 12.9413 21.601 12.9992 21.7494 12.9985C21.8978 12.9979 22.0399 12.9386 22.1447 12.8336C22.2496 12.7286 22.3087 12.5864 22.3093 12.438C22.3098 12.2896 22.2516 12.147 22.1475 12.0413L12.9281 2.82099C12.8062 2.6991 12.6616 2.60241 12.5023 2.53644C12.3431 2.47048 12.1724 2.43652 12 2.43652C11.8276 2.43652 11.6569 2.47048 11.4977 2.53644C11.3384 2.60241 11.1938 2.6991 11.0719 2.82099L1.8525 12.0413C1.74836 12.147 1.69022 12.2896 1.69074 12.438C1.69125 12.5864 1.75038 12.7286 1.85525 12.8336C1.96012 12.9386 2.10223 12.9979 2.25062 12.9985C2.39901 12.9992 2.54166 12.9413 2.6475 12.8372L3.1875 12.2972V19.6876H1.5C1.35082 19.6876 1.20774 19.7468 1.10225 19.8523C0.996763 19.9578 0.9375 20.1009 0.9375 20.2501C0.9375 20.3992 0.996763 20.5423 1.10225 20.6478C1.20774 20.7533 1.35082 20.8126 1.5 20.8126H22.5C22.6492 20.8126 22.7923 20.7533 22.8977 20.6478C23.0032 20.5423 23.0625 20.3992 23.0625 20.2501C23.0625 20.1009 23.0032 19.9578 22.8977 19.8523C22.7923 19.7468 22.6492 19.6876 22.5 19.6876ZM4.3125 11.1722L11.8669 3.61693C11.8843 3.59936 11.905 3.58541 11.9279 3.57589C11.9507 3.56637 11.9752 3.56147 12 3.56147C12.0248 3.56147 12.0493 3.56637 12.0721 3.57589C12.095 3.58541 12.1157 3.59936 12.1331 3.61693L19.6875 11.1722V19.6876H14.8125V14.2501C14.8125 14.1009 14.7532 13.9578 14.6477 13.8523C14.5423 13.7468 14.3992 13.6876 14.25 13.6876H9.75C9.60082 13.6876 9.45774 13.7468 9.35225 13.8523C9.24676 13.9578 9.1875 14.1009 9.1875 14.2501V19.6876H4.3125V11.1722ZM13.6875 19.6876H10.3125V14.8126H13.6875V19.6876Z" fill="black"/>
</svg>
