<svg width="24" height="24" viewBox="0 0 24 24" fill="none" xmlns="http://www.w3.org/2000/svg">
<path d="M12 9.18753C11.4437 9.18753 10.9 9.35248 10.4375 9.66152C9.97495 9.97056 9.61446 10.4098 9.40159 10.9237C9.18872 11.4377 9.13302 12.0032 9.24154 12.5487C9.35006 13.0943 9.61793 13.5954 10.0113 13.9888C10.4046 14.3821 10.9057 14.65 11.4513 14.7585C11.9969 14.867 12.5624 14.8113 13.0763 14.5984C13.5902 14.3856 14.0295 14.0251 14.3385 13.5626C14.6475 13.1001 14.8125 12.5563 14.8125 12C14.8125 11.2541 14.5162 10.5387 13.9887 10.0113C13.4613 9.48385 12.7459 9.18753 12 9.18753ZM12 13.6875C11.6662 13.6875 11.34 13.5886 11.0625 13.4031C10.785 13.2177 10.5687 12.9542 10.441 12.6458C10.3132 12.3375 10.2798 11.9982 10.3449 11.6708C10.41 11.3435 10.5708 11.0428 10.8068 10.8068C11.0428 10.5708 11.3434 10.4101 11.6708 10.345C11.9981 10.2798 12.3374 10.3133 12.6458 10.441C12.9541 10.5687 13.2177 10.785 13.4031 11.0625C13.5885 11.34 13.6875 11.6663 13.6875 12C13.6875 12.4476 13.5097 12.8768 13.1932 13.1933C12.8768 13.5097 12.4476 13.6875 12 13.6875ZM14.6166 4.37159L15.5438 0.894407C15.5685 0.80136 15.569 0.703508 15.5451 0.610221C15.5213 0.516934 15.4739 0.431335 15.4074 0.36162C15.341 0.291906 15.2578 0.240409 15.1658 0.212062C15.0738 0.183714 14.976 0.179464 14.8819 0.19972C12.9545 0.673373 11.1177 1.45939 9.44438 2.52659C5.8425 4.84316 3.9375 8.11878 3.9375 12C3.93841 13.6802 4.46359 15.3182 5.43982 16.6857C6.41605 18.0531 7.79466 19.0819 9.38344 19.6285L8.45625 23.1047C8.43127 23.1978 8.43063 23.2958 8.45441 23.3892C8.47819 23.4826 8.52557 23.5684 8.59202 23.6382C8.65847 23.7081 8.74176 23.7597 8.83389 23.788C8.92601 23.8164 9.02389 23.8207 9.11812 23.8003C11.0455 23.3267 12.8823 22.5407 14.5556 21.4735C18.1575 19.1569 20.0625 15.8813 20.0625 12C20.0617 10.3198 19.5366 8.68176 18.5604 7.31427C17.5841 5.94678 16.2054 4.91807 14.6166 4.37159ZM13.9734 20.5088C12.6722 21.3349 11.268 21.9864 9.79688 22.4466L10.6106 19.3932C10.6296 19.3218 10.6343 19.2473 10.6245 19.1741C10.6147 19.1008 10.5906 19.0303 10.5535 18.9664C10.5164 18.9025 10.4671 18.8465 10.4084 18.8017C10.3496 18.7568 10.2827 18.724 10.2112 18.705C8.73467 18.31 7.42972 17.4388 6.49879 16.2265C5.56786 15.0142 5.063 13.5285 5.0625 12C5.0625 8.4816 6.73312 5.61847 10.0312 3.49034C11.3313 2.66519 12.7338 2.01402 14.2031 1.55347L13.3894 4.60691C13.3704 4.67831 13.3657 4.75276 13.3755 4.82599C13.3853 4.89922 13.4094 4.9698 13.4465 5.0337C13.4836 5.0976 13.5329 5.15357 13.5916 5.19841C13.6504 5.24325 13.7173 5.27608 13.7887 5.29503C15.2653 5.69006 16.5703 6.56129 17.5012 7.7736C18.4321 8.98591 18.937 10.4715 18.9375 12C18.9375 15.5185 17.2669 18.3816 13.9734 20.5088Z" fill="black"/>
</svg>
