<svg width="24" height="24" viewBox="0 0 24 24" fill="none" xmlns="http://www.w3.org/2000/svg">
<path d="M19.3129 9.26531V9C19.3129 7.0606 18.5424 5.20064 17.1711 3.82928C15.7997 2.45792 13.9397 1.6875 12.0004 1.6875C10.061 1.6875 8.20099 2.45792 6.82963 3.82928C5.45827 5.20064 4.68785 7.0606 4.68785 9V9.26531C4.20859 9.40082 3.79455 9.70518 3.52221 10.1222C3.24986 10.5392 3.1376 11.0406 3.20617 11.5339C3.27473 12.0272 3.51948 12.4791 3.89522 12.806C4.27096 13.1329 4.7523 13.3128 5.25035 13.3125H5.66754L10.8604 22.4062C10.9751 22.6073 11.141 22.7745 11.3412 22.8908C11.5414 23.0071 11.7688 23.0683 12.0004 23.0683C12.2319 23.0683 12.4593 23.0071 12.6595 22.8908C12.8597 22.7745 13.0256 22.6073 13.1404 22.4062L18.3332 13.3125H18.7504C19.2484 13.3128 19.7297 13.1329 20.1055 12.806C20.4812 12.4791 20.726 12.0272 20.7945 11.5339C20.8631 11.0406 20.7508 10.5392 20.4785 10.1222C20.2061 9.70518 19.7921 9.40082 19.3129 9.26531ZM12.1635 21.8437C12.1471 21.8726 12.1234 21.8966 12.0948 21.9133C12.0661 21.93 12.0335 21.9388 12.0004 21.9388C11.9672 21.9388 11.9346 21.93 11.906 21.9133C11.8773 21.8966 11.8536 21.8726 11.8372 21.8437L6.96223 13.3125H9.21223L13.1254 20.1619L12.1635 21.8437ZM12.7504 13.3125L14.8963 17.0681L13.7713 19.0284L10.505 13.3097L12.7504 13.3125ZM15.5441 15.9375L14.0441 13.3125H17.0441L15.5441 15.9375ZM18.7504 12.1875H5.25035C5.00171 12.1875 4.76325 12.0887 4.58744 11.9129C4.41162 11.7371 4.31285 11.4986 4.31285 11.25C4.31285 11.0014 4.41162 10.7629 4.58744 10.5871C4.76325 10.4113 5.00171 10.3125 5.25035 10.3125C5.39954 10.3125 5.54261 10.2532 5.6481 10.1477C5.75359 10.0423 5.81285 9.89918 5.81285 9.75V9C5.81285 7.35897 6.46475 5.78516 7.62513 4.62478C8.78551 3.4644 10.3593 2.8125 12.0004 2.8125C13.6414 2.8125 15.2152 3.4644 16.3756 4.62478C17.536 5.78516 18.1879 7.35897 18.1879 9V9.75C18.1879 9.89918 18.2471 10.0423 18.3526 10.1477C18.4581 10.2532 18.6012 10.3125 18.7504 10.3125C18.999 10.3125 19.2374 10.4113 19.4133 10.5871C19.5891 10.7629 19.6879 11.0014 19.6879 11.25C19.6879 11.4986 19.5891 11.7371 19.4133 11.9129C19.2374 12.0887 18.999 12.1875 18.7504 12.1875Z" fill="black"/>
</svg>
