<svg width="24" height="24" viewBox="0 0 24 24" fill="none" xmlns="http://www.w3.org/2000/svg">
<path d="M20.25 12.9375C20.1008 12.9375 19.9577 12.9967 19.8523 13.1022C19.7468 13.2077 19.6875 13.3508 19.6875 13.5C19.6875 15.9459 18.2812 16.455 15.9769 17.0822C14.8125 17.4 13.4803 17.7628 12.5625 18.6712V11.8125H15.75C15.8992 11.8125 16.0423 11.7532 16.1477 11.6477C16.2532 11.5422 16.3125 11.3992 16.3125 11.25C16.3125 11.1008 16.2532 10.9577 16.1477 10.8522C16.0423 10.7467 15.8992 10.6875 15.75 10.6875H12.5625V8.00623C13.2454 7.86683 13.8522 7.47883 14.2653 6.91746C14.6784 6.35608 14.8683 5.66132 14.7983 4.96787C14.7282 4.27442 14.4032 3.63168 13.8861 3.16426C13.3691 2.69684 12.697 2.43805 12 2.43805C11.303 2.43805 10.6309 2.69684 10.1139 3.16426C9.59684 3.63168 9.27179 4.27442 9.20174 4.96787C9.13169 5.66132 9.32162 6.35608 9.7347 6.91746C10.1478 7.47883 10.7546 7.86683 11.4375 8.00623V10.6875H8.25C8.10082 10.6875 7.95774 10.7467 7.85225 10.8522C7.74676 10.9577 7.6875 11.1008 7.6875 11.25C7.6875 11.3992 7.74676 11.5422 7.85225 11.6477C7.95774 11.7532 8.10082 11.8125 8.25 11.8125H11.4375V18.6712C10.5197 17.7628 9.1875 17.4 8.02313 17.0822C5.71875 16.455 4.3125 15.9459 4.3125 13.5C4.3125 13.3508 4.25324 13.2077 4.14775 13.1022C4.04226 12.9967 3.89918 12.9375 3.75 12.9375C3.60082 12.9375 3.45774 12.9967 3.35225 13.1022C3.24676 13.2077 3.1875 13.3508 3.1875 13.5C3.1875 16.9294 5.70469 17.6165 7.72687 18.1678C10.0312 18.795 11.4375 19.304 11.4375 21.75C11.4375 21.8992 11.4968 22.0422 11.6023 22.1477C11.7077 22.2532 11.8508 22.3125 12 22.3125C12.1492 22.3125 12.2923 22.2532 12.3977 22.1477C12.5032 22.0422 12.5625 21.8992 12.5625 21.75C12.5625 19.304 13.9688 18.795 16.2731 18.1678C18.2953 17.6165 20.8125 16.9294 20.8125 13.5C20.8125 13.3508 20.7532 13.2077 20.6477 13.1022C20.5423 12.9967 20.3992 12.9375 20.25 12.9375ZM10.3125 5.24998C10.3125 4.91622 10.4115 4.58996 10.5969 4.31245C10.7823 4.03494 11.0459 3.81865 11.3542 3.69093C11.6626 3.56321 12.0019 3.52979 12.3292 3.5949C12.6566 3.66001 12.9572 3.82073 13.1932 4.05673C13.4292 4.29273 13.59 4.59342 13.6551 4.92076C13.7202 5.2481 13.6868 5.5874 13.559 5.89575C13.4313 6.2041 13.215 6.46766 12.9375 6.65308C12.66 6.83851 12.3338 6.93748 12 6.93748C11.5524 6.93748 11.1232 6.75969 10.8068 6.44322C10.4903 6.12675 10.3125 5.69753 10.3125 5.24998Z" fill="black"/>
</svg>
