<svg width="24" height="24" viewBox="0 0 24 24" fill="none" xmlns="http://www.w3.org/2000/svg">
<path d="M19.1471 13.8975L12.3971 20.6475C12.2917 20.7528 12.1487 20.812 11.9996 20.812C11.8506 20.812 11.7076 20.7528 11.6021 20.6475L4.85214 13.8975C4.75278 13.7909 4.69869 13.6498 4.70126 13.5041C4.70383 13.3584 4.76286 13.2193 4.86592 13.1163C4.96898 13.0132 5.10802 12.9542 5.25375 12.9516C5.39947 12.949 5.54051 13.0031 5.64714 13.1025L11.4371 18.8916V3.75C11.4371 3.60082 11.4964 3.45774 11.6019 3.35225C11.7074 3.24676 11.8505 3.1875 11.9996 3.1875C12.1488 3.1875 12.2919 3.24676 12.3974 3.35225C12.5029 3.45774 12.5621 3.60082 12.5621 3.75V18.8916L18.3521 13.1025C18.4588 13.0031 18.5998 12.949 18.7455 12.9516C18.8913 12.9542 19.0303 13.0132 19.1334 13.1163C19.2364 13.2193 19.2955 13.3584 19.298 13.5041C19.3006 13.6498 19.2465 13.7909 19.1471 13.8975Z" fill="black"/>
</svg>
