<svg width="24" height="24" viewBox="0 0 24 24" fill="none" xmlns="http://www.w3.org/2000/svg">
<path d="M22.3121 7.5V14.25C22.3121 14.3992 22.2529 14.5423 22.1474 14.6477C22.0419 14.7532 21.8988 14.8125 21.7496 14.8125C21.6005 14.8125 21.4574 14.7532 21.3519 14.6477C21.2464 14.5423 21.1871 14.3992 21.1871 14.25V8.8575L11.6471 18.3975C11.5417 18.5028 11.3987 18.562 11.2496 18.562C11.1006 18.562 10.9576 18.5028 10.8521 18.3975L1.85214 9.3975C1.75278 9.29087 1.69869 9.14983 1.70126 9.00411C1.70383 8.85838 1.76286 8.71934 1.86592 8.61628C1.96898 8.51322 2.10802 8.45419 2.25375 8.45162C2.39947 8.44905 2.54051 8.50314 2.64714 8.6025L11.2496 17.2041L20.3921 8.0625H14.9996C14.8505 8.0625 14.7074 8.00324 14.6019 7.89775C14.4964 7.79226 14.4371 7.64918 14.4371 7.5C14.4371 7.35082 14.4964 7.20774 14.6019 7.10225C14.7074 6.99676 14.8505 6.9375 14.9996 6.9375H21.7496C21.8988 6.9375 22.0419 6.99676 22.1474 7.10225C22.2529 7.20774 22.3121 7.35082 22.3121 7.5Z" fill="black"/>
</svg>
