<svg width="24" height="24" viewBox="0 0 24 24" fill="none" xmlns="http://www.w3.org/2000/svg">
<path d="M23.0626 15.75V18.75C23.0626 18.8992 23.0033 19.0422 22.8978 19.1477C22.7924 19.2532 22.6493 19.3125 22.5001 19.3125C22.3509 19.3125 22.2078 19.2532 22.1024 19.1477C21.9969 19.0422 21.9376 18.8992 21.9376 18.75V17.1075L21.407 17.6381C21.1501 17.9203 17.7057 21.5625 12.0001 21.5625C6.1876 21.5625 2.72635 17.7872 2.58198 17.625C2.52787 17.5709 2.48536 17.5064 2.45703 17.4354C2.42869 17.3644 2.41514 17.2883 2.4172 17.2119C2.41925 17.1355 2.43687 17.0602 2.46897 16.9908C2.50108 16.9214 2.547 16.8593 2.60393 16.8083C2.66085 16.7572 2.72759 16.7183 2.80007 16.6939C2.87254 16.6695 2.94922 16.6601 3.02544 16.6664C3.10165 16.6726 3.17579 16.6944 3.24332 16.7302C3.31086 16.7661 3.37037 16.8153 3.41823 16.875C3.4501 16.9097 6.70791 20.4375 12.0001 20.4375C17.2923 20.4375 20.5501 16.9087 20.5829 16.875L20.6026 16.8544L21.1426 16.3144H19.5001C19.3509 16.3144 19.2078 16.2551 19.1024 16.1496C18.9969 16.0441 18.9376 15.901 18.9376 15.7519C18.9376 15.6027 18.9969 15.4596 19.1024 15.3541C19.2078 15.2486 19.3509 15.1894 19.5001 15.1894H22.5001C22.649 15.1894 22.7917 15.2484 22.8972 15.3534C23.0026 15.4585 23.0621 15.6011 23.0626 15.75ZM15.1876 9.33374V7.87499C15.1881 7.07457 14.919 6.29733 14.4237 5.66855C13.9284 5.03977 13.2358 4.5961 12.4576 4.40907C11.6793 4.22203 10.8608 4.30253 10.1338 4.63758C9.40693 4.97263 8.81403 5.54271 8.45073 6.25592C8.41846 6.32393 8.37288 6.38476 8.31667 6.43483C8.26047 6.48489 8.19479 6.52317 8.12352 6.54739C8.05225 6.57161 7.97685 6.58128 7.90178 6.57582C7.82671 6.57037 7.7535 6.54991 7.68648 6.51564C7.61946 6.48138 7.56 6.43402 7.51162 6.37636C7.46324 6.3187 7.42692 6.25191 7.40482 6.17996C7.38272 6.10801 7.37528 6.03235 7.38296 5.95748C7.39063 5.8826 7.41325 5.81002 7.44948 5.74405C7.92786 4.80621 8.70804 4.05673 9.6643 3.61634C10.6206 3.17595 11.6972 3.0703 12.7209 3.3164C13.7445 3.56251 14.6555 4.14605 15.307 4.97301C15.9586 5.79996 16.3128 6.82218 16.3126 7.87499V16.5C16.3126 16.6492 16.2533 16.7922 16.1478 16.8977C16.0424 17.0032 15.8993 17.0625 15.7501 17.0625C15.6009 17.0625 15.4578 17.0032 15.3524 16.8977C15.2469 16.7922 15.1876 16.6492 15.1876 16.5V15.4162C14.5655 16.1459 13.7347 16.6672 12.8071 16.9098C11.8795 17.1525 10.8998 17.1049 10.0001 16.7734C9.10036 16.442 8.32395 15.8426 7.77554 15.0561C7.22714 14.2696 6.9331 13.3338 6.9331 12.375C6.9331 11.4162 7.22714 10.4804 7.77554 9.69391C8.32395 8.90741 9.10036 8.308 10.0001 7.97652C10.8998 7.64504 11.8795 7.59744 12.8071 7.84012C13.7347 8.08281 14.5655 8.60411 15.1876 9.33374ZM15.1876 12.375C15.1876 11.6704 14.9787 10.9816 14.5872 10.3958C14.1958 9.80992 13.6394 9.3533 12.9884 9.08366C12.3374 8.81403 11.6211 8.74348 10.9301 8.88094C10.239 9.0184 9.60426 9.35769 9.10603 9.85592C8.60781 10.3541 8.26851 10.9889 8.13105 11.68C7.99359 12.371 8.06414 13.0873 8.33378 13.7383C8.60342 14.3893 9.06003 14.9456 9.64588 15.3371C10.2317 15.7285 10.9205 15.9375 11.6251 15.9375C12.5699 15.9375 13.4761 15.5622 14.1442 14.8941C14.8123 14.226 15.1876 13.3198 15.1876 12.375Z" fill="black"/>
</svg>
