<svg width="24" height="24" viewBox="0 0 24 24" fill="none" xmlns="http://www.w3.org/2000/svg">
<path d="M20.5692 15.735C18.9108 14.5959 18.5629 12.6675 18.5629 11.25C18.5629 9.52313 19.8623 8.03532 20.6367 7.30125C20.6922 7.24869 20.7363 7.18538 20.7665 7.11519C20.7967 7.04499 20.8123 6.96938 20.8123 6.89297C20.8123 6.81656 20.7967 6.74095 20.7665 6.67076C20.7363 6.60056 20.6922 6.53725 20.6367 6.48469C19.5004 5.40938 17.5383 4.6875 15.7504 4.6875C14.4098 4.68876 13.1015 5.09924 12.0004 5.86407C10.7394 4.98315 9.20775 4.57607 7.67578 4.71467C6.14381 4.85326 4.71006 5.52864 3.62763 6.62156C2.98977 7.2735 2.48939 8.04693 2.15619 8.89596C1.82299 9.74499 1.66375 10.6523 1.68794 11.5641C1.72484 13.1213 2.07156 14.6556 2.70784 16.0774C3.34413 17.4991 4.25724 18.7799 5.39388 19.845C6.05467 20.4685 6.92944 20.8148 7.83794 20.8125H16.0598C16.5462 20.8141 17.0278 20.7157 17.4745 20.5233C17.9213 20.3309 18.3237 20.0486 18.6567 19.6941C19.2953 19.0077 19.8475 18.2458 20.3011 17.4253C20.9151 16.3003 20.842 16.1363 20.7698 15.9741C20.7265 15.8772 20.657 15.7944 20.5692 15.735ZM17.8289 18.9225C17.6021 19.1644 17.3281 19.3571 17.0238 19.4887C16.7195 19.6203 16.3914 19.6879 16.0598 19.6875H7.83794C7.2176 19.6906 6.61967 19.4558 6.16732 19.0313C5.13782 18.0668 4.31093 16.9068 3.73497 15.619C3.15902 14.3312 2.84557 12.9416 2.81294 11.5313C2.79168 10.7706 2.92356 10.0135 3.20073 9.30489C3.4779 8.59626 3.89471 7.95059 4.42638 7.40625C4.92503 6.89866 5.52033 6.49612 6.17712 6.22239C6.83392 5.94866 7.5389 5.80928 8.25044 5.8125H8.32638C9.53641 5.82448 10.707 6.2443 11.6489 7.00407C11.7486 7.08394 11.8726 7.12746 12.0004 7.12746C12.1282 7.12746 12.2522 7.08394 12.352 7.00407C13.3143 6.22829 14.5144 5.80752 15.7504 5.8125C17.0526 5.8125 18.4514 6.25125 19.417 6.9375C18.532 7.88813 17.4389 9.43032 17.4389 11.25C17.4389 13.4794 18.1711 15.2438 19.5633 16.3847C19.1189 17.3161 18.534 18.1736 17.8289 18.9272V18.9225ZM12.2039 2.85469C12.4024 2.09028 12.8492 1.41349 13.4742 0.930694C14.0992 0.447899 14.8669 0.186472 15.6567 0.187503H15.7504C15.8996 0.187503 16.0427 0.246766 16.1482 0.352255C16.2537 0.457745 16.3129 0.600819 16.3129 0.750003C16.3129 0.899187 16.2537 1.04226 16.1482 1.14775C16.0427 1.25324 15.8996 1.3125 15.7504 1.3125H15.6567C15.1162 1.31239 14.591 1.4919 14.1637 1.82283C13.7364 2.15375 13.4312 2.61732 13.2961 3.14063C13.2588 3.28509 13.1656 3.40882 13.0371 3.48459C12.9735 3.52211 12.9031 3.54673 12.8299 3.55704C12.7568 3.56735 12.6823 3.56316 12.6108 3.54469C12.4663 3.50739 12.3426 3.41424 12.2668 3.28572C12.2293 3.22208 12.2047 3.15168 12.1943 3.07853C12.184 3.00537 12.1882 2.93091 12.2067 2.85938L12.2039 2.85469Z" fill="black"/>
</svg>
