<svg width="24" height="24" viewBox="0 0 24 24" fill="none" xmlns="http://www.w3.org/2000/svg">
<path d="M21.563 5.25C21.56 7.78522 20.5516 10.2157 18.7589 12.0084C16.9662 13.8011 14.5357 14.8095 12.0005 14.8125H4.35892L7.89798 18.3525C7.95325 18.404 7.99757 18.4661 8.02832 18.5351C8.05906 18.6041 8.07559 18.6786 8.07693 18.7541C8.07826 18.8296 8.06436 18.9047 8.03607 18.9747C8.00778 19.0447 7.96567 19.1084 7.91226 19.1618C7.85885 19.2152 7.79522 19.2573 7.72518 19.2856C7.65514 19.3139 7.58012 19.3278 7.50459 19.3264C7.42906 19.3251 7.35458 19.3086 7.28558 19.2778C7.21658 19.2471 7.15448 19.2028 7.10298 19.1475L2.60298 14.6475C2.49764 14.542 2.43848 14.3991 2.43848 14.25C2.43848 14.1009 2.49764 13.958 2.60298 13.8525L7.10298 9.3525C7.20961 9.25314 7.35065 9.19905 7.49637 9.20162C7.6421 9.20419 7.78114 9.26322 7.8842 9.36628C7.98726 9.46934 8.04629 9.60838 8.04886 9.75411C8.05143 9.89983 7.99734 10.0409 7.89798 10.1475L4.35892 13.6875H12.0005C14.2375 13.685 16.3822 12.7953 17.964 11.2135C19.5458 9.63167 20.4355 7.487 20.438 5.25C20.438 5.10082 20.4972 4.95774 20.6027 4.85225C20.7082 4.74676 20.8513 4.6875 21.0005 4.6875C21.1497 4.6875 21.2927 4.74676 21.3982 4.85225C21.5037 4.95774 21.563 5.10082 21.563 5.25Z" fill="black"/>
</svg>
