<svg width="24" height="24" viewBox="0 0 24 24" fill="none" xmlns="http://www.w3.org/2000/svg">
<path d="M21.3975 10.1475L16.8975 14.6475C16.7909 14.7469 16.6498 14.8009 16.5041 14.7984C16.3584 14.7958 16.2193 14.7368 16.1163 14.6337C16.0132 14.5306 15.9542 14.3916 15.9516 14.2459C15.949 14.1002 16.0031 13.9591 16.1025 13.8525L20.2041 9.74999L16.1025 5.64749C16.0031 5.54086 15.949 5.39983 15.9516 5.2541C15.9542 5.10838 16.0132 4.96934 16.1163 4.86628C16.2193 4.76322 16.3584 4.70418 16.5041 4.70161C16.6498 4.69904 16.7909 4.75313 16.8975 4.85249L21.3975 9.35249C21.5028 9.45796 21.562 9.60093 21.562 9.74999C21.562 9.89906 21.5028 10.042 21.3975 10.1475ZM16.8975 9.35249L12.3975 4.85249C12.346 4.79723 12.2839 4.7529 12.2149 4.72216C12.1459 4.69141 12.0714 4.67488 11.9959 4.67355C11.9204 4.67222 11.8453 4.68611 11.7753 4.7144C11.7053 4.74269 11.6416 4.7848 11.5882 4.83821C11.5348 4.89163 11.4927 4.95525 11.4644 5.02529C11.4361 5.09534 11.4222 5.17036 11.4236 5.24588C11.4249 5.32141 11.4414 5.3959 11.4722 5.4649C11.5029 5.5339 11.5472 5.596 11.6025 5.64749L15.1416 9.18749H12C9.46478 9.19047 7.03425 10.1989 5.24158 11.9916C3.44891 13.7842 2.44048 16.2148 2.4375 18.75C2.4375 18.8992 2.49676 19.0423 2.60225 19.1477C2.70774 19.2532 2.85082 19.3125 3 19.3125C3.14918 19.3125 3.29226 19.2532 3.39775 19.1477C3.50324 19.0423 3.5625 18.8992 3.5625 18.75C3.56498 16.513 4.45473 14.3683 6.03653 12.7865C7.61833 11.2047 9.763 10.315 12 10.3125H15.1416L11.6025 13.8525C11.5472 13.904 11.5029 13.9661 11.4722 14.0351C11.4414 14.1041 11.4249 14.1786 11.4236 14.2541C11.4222 14.3296 11.4361 14.4046 11.4644 14.4747C11.4927 14.5447 11.5348 14.6084 11.5882 14.6618C11.6416 14.7152 11.7053 14.7573 11.7753 14.7856C11.8453 14.8139 11.9204 14.8278 11.9959 14.8264C12.0714 14.8251 12.1459 14.8086 12.2149 14.7778C12.2839 14.7471 12.346 14.7028 12.3975 14.6475L16.8975 10.1475C17.0028 10.042 17.062 9.89906 17.062 9.74999C17.062 9.60093 17.0028 9.45796 16.8975 9.35249Z" fill="black"/>
</svg>
