<svg width="24" height="24" viewBox="0 0 24 24" fill="none" xmlns="http://www.w3.org/2000/svg">
<path d="M20.8125 12C20.8127 14.3169 19.9005 16.5407 18.2733 18.19C16.6461 19.8393 14.4348 20.7815 12.1181 20.8125H12C9.75036 20.8172 7.58515 19.9562 5.95312 18.4078C5.89764 18.3576 5.85274 18.2967 5.82107 18.2289C5.7894 18.1611 5.77159 18.0876 5.76868 18.0128C5.76577 17.938 5.77783 17.8633 5.80414 17.7932C5.83046 17.7232 5.8705 17.659 5.92192 17.6046C5.97333 17.5502 6.0351 17.5066 6.10359 17.4764C6.17208 17.4461 6.24592 17.4299 6.32077 17.4285C6.39563 17.4272 6.46999 17.4408 6.53951 17.4686C6.60903 17.4964 6.67231 17.5378 6.72563 17.5903C7.8249 18.6269 9.20525 19.3165 10.6942 19.5731C12.1832 19.8296 13.7147 19.6417 15.0975 19.0329C16.4803 18.424 17.653 17.4211 18.4691 16.1496C19.2853 14.8781 19.7086 13.3942 19.6862 11.8835C19.6639 10.3728 19.1969 8.90211 18.3435 7.65527C17.4901 6.40844 16.2883 5.44071 14.8881 4.87301C13.4879 4.3053 11.9514 4.16279 10.4707 4.46327C8.98998 4.76376 7.63064 5.49392 6.5625 6.56252L6.54469 6.58034L3.6975 9.18752H6.75C6.89918 9.18752 7.04226 9.24679 7.14775 9.35228C7.25324 9.45777 7.3125 9.60084 7.3125 9.75002C7.3125 9.89921 7.25324 10.0423 7.14775 10.1478C7.04226 10.2533 6.89918 10.3125 6.75 10.3125H2.25C2.10082 10.3125 1.95774 10.2533 1.85225 10.1478C1.74676 10.0423 1.6875 9.89921 1.6875 9.75002V5.25003C1.6875 5.10084 1.74676 4.95777 1.85225 4.85228C1.95774 4.74679 2.10082 4.68753 2.25 4.68753C2.39918 4.68753 2.54226 4.74679 2.64775 4.85228C2.75324 4.95777 2.8125 5.10084 2.8125 5.25003V8.4694L5.77781 5.75628C7.01149 4.52623 8.58206 3.68944 10.2911 3.35161C12.0001 3.01378 13.771 3.19009 15.3799 3.85824C16.9888 4.5264 18.3635 5.65643 19.3305 7.10556C20.2974 8.55469 20.8131 10.2579 20.8125 12Z" fill="black"/>
</svg>
