<svg width="24" height="24" viewBox="0 0 24 24" fill="none" xmlns="http://www.w3.org/2000/svg">
<path d="M21.5199 12.5344C21.4772 12.4317 21.4052 12.344 21.3127 12.2822C21.2203 12.2205 21.1116 12.1875 21.0005 12.1875H17.063V4.5C17.063 4.1519 16.9247 3.81806 16.6786 3.57192C16.4324 3.32578 16.0986 3.1875 15.7505 3.1875H8.25048C7.90239 3.1875 7.56855 3.32578 7.3224 3.57192C7.07626 3.81806 6.93798 4.1519 6.93798 4.5V12.1875H3.00048C2.8893 12.1876 2.78064 12.2206 2.68823 12.2825C2.59582 12.3443 2.5238 12.4321 2.48127 12.5348C2.43873 12.6375 2.42759 12.7506 2.44926 12.8596C2.47092 12.9686 2.52441 13.0688 2.60298 13.1475L11.603 22.1475C11.7085 22.2528 11.8514 22.312 12.0005 22.312C12.1495 22.312 12.2925 22.2528 12.398 22.1475L21.398 13.1475C21.4767 13.0688 21.5302 12.9686 21.5519 12.8594C21.5736 12.7503 21.5625 12.6372 21.5199 12.5344ZM12.0005 20.9541L4.35892 13.3125H7.50048C7.64967 13.3125 7.79274 13.2532 7.89823 13.1477C8.00372 13.0423 8.06298 12.8992 8.06298 12.75V4.5C8.06298 4.45027 8.08274 4.40258 8.1179 4.36742C8.15306 4.33225 8.20075 4.3125 8.25048 4.3125H15.7505C15.8002 4.3125 15.8479 4.33225 15.8831 4.36742C15.9182 4.40258 15.938 4.45027 15.938 4.5V12.75C15.938 12.8992 15.9972 13.0423 16.1027 13.1477C16.2082 13.2532 16.3513 13.3125 16.5005 13.3125H19.642L12.0005 20.9541Z" fill="black"/>
</svg>
