<svg width="24" height="24" viewBox="0 0 24 24" fill="none" xmlns="http://www.w3.org/2000/svg">
<path d="M19.3121 21C19.3121 21.1492 19.2529 21.2922 19.1474 21.3977C19.0419 21.5032 18.8988 21.5625 18.7496 21.5625C16.2144 21.5595 13.7839 20.5511 11.9912 18.7584C10.1985 16.9657 9.19012 14.5352 9.18714 12V4.35843L5.64714 7.89749C5.54051 7.99685 5.39947 8.05095 5.25375 8.04837C5.10802 8.0458 4.96898 7.98677 4.86592 7.88371C4.76286 7.78065 4.70383 7.64161 4.70126 7.49588C4.69869 7.35016 4.75278 7.20912 4.85214 7.10249L9.35214 2.60249C9.45761 2.49716 9.60058 2.43799 9.74964 2.43799C9.8987 2.43799 10.0417 2.49716 10.1471 2.60249L14.6471 7.10249C14.7024 7.15399 14.7467 7.21609 14.7775 7.28509C14.8082 7.35409 14.8248 7.42857 14.8261 7.5041C14.8274 7.57963 14.8135 7.65465 14.7852 7.72469C14.7569 7.79473 14.7148 7.85836 14.6614 7.91177C14.608 7.96519 14.5444 8.00729 14.4743 8.03558C14.4043 8.06388 14.3293 8.07777 14.2537 8.07644C14.1782 8.0751 14.1037 8.05857 14.0347 8.02783C13.9657 7.99708 13.9036 7.95276 13.8521 7.89749L10.3121 4.35843V12C10.3146 14.237 11.2044 16.3817 12.7862 17.9635C14.368 19.5453 16.5126 20.435 18.7496 20.4375C18.8988 20.4375 19.0419 20.4968 19.1474 20.6022C19.2529 20.7077 19.3121 20.8508 19.3121 21Z" fill="black"/>
</svg>
