<svg width="24" height="24" viewBox="0 0 24 24" fill="none" xmlns="http://www.w3.org/2000/svg">
<path d="M5.87063 18.286L4.98469 19.786C4.90515 19.9055 4.78293 19.99 4.64306 20.0223C4.50319 20.0547 4.35626 20.0323 4.23236 19.9598C4.10846 19.8873 4.01697 19.7702 3.97661 19.6324C3.93626 19.4946 3.95011 19.3467 4.01531 19.2188L4.90219 17.7188C4.93878 17.6533 4.98808 17.5958 5.04721 17.5497C5.10634 17.5036 5.1741 17.4697 5.24649 17.4502C5.31889 17.4306 5.39447 17.4257 5.46878 17.4358C5.54309 17.4459 5.61464 17.4707 5.67921 17.5089C5.74379 17.547 5.80008 17.5976 5.84479 17.6579C5.8895 17.7181 5.92172 17.7866 5.93956 17.8594C5.95739 17.9323 5.96048 18.0079 5.94864 18.082C5.9368 18.1561 5.91028 18.227 5.87063 18.2906V18.286ZM21.75 14.4375H17.1619L14.2266 9.46876C14.189 9.40518 14.1392 9.34962 14.0801 9.30526C14.021 9.26091 13.9538 9.22863 13.8822 9.21026C13.8107 9.19189 13.7362 9.18779 13.663 9.19821C13.5899 9.20862 13.5195 9.23334 13.4559 9.27095C13.3923 9.30856 13.3368 9.35833 13.2924 9.41741C13.2481 9.4765 13.2158 9.54374 13.1974 9.6153C13.1791 9.68686 13.175 9.76133 13.1854 9.83447C13.1958 9.90761 13.2205 9.97799 13.2581 10.0416L19.0153 19.785C19.0911 19.9136 19.2149 20.0067 19.3595 20.044C19.504 20.0813 19.6574 20.0596 19.7859 19.9838C19.9145 19.9079 20.0076 19.7841 20.0449 19.6396C20.0822 19.4951 20.0605 19.3417 19.9847 19.2131L17.8284 15.5616H21.75C21.8992 15.5616 22.0423 15.5023 22.1477 15.3968C22.2532 15.2913 22.3125 15.1483 22.3125 14.9991C22.3125 14.8499 22.2532 14.7068 22.1477 14.6013C22.0423 14.4958 21.8992 14.4366 21.75 14.4366V14.4375ZM13.3566 14.4375H8.145L14.7347 3.28595C14.7999 3.15807 14.8137 3.01009 14.7734 2.87232C14.733 2.73456 14.6415 2.61744 14.5176 2.54494C14.3937 2.47245 14.2468 2.45007 14.1069 2.48238C13.9671 2.5147 13.8449 2.59927 13.7653 2.71876L12 5.70189L10.2347 2.71876C10.1589 2.59022 10.0351 2.49706 9.89054 2.45979C9.74602 2.42252 9.59261 2.44418 9.46406 2.52001C9.33552 2.59585 9.24236 2.71964 9.20509 2.86416C9.16781 3.00869 9.18948 3.16209 9.26531 3.29064L11.3438 6.80814L6.83813 14.4375H2.25C2.10082 14.4375 1.95774 14.4968 1.85225 14.6023C1.74676 14.7078 1.6875 14.8508 1.6875 15C1.6875 15.1492 1.74676 15.2923 1.85225 15.3978C1.95774 15.5033 2.10082 15.5625 2.25 15.5625H13.3566C13.5057 15.5625 13.6488 15.5033 13.7543 15.3978C13.8598 15.2923 13.9191 15.1492 13.9191 15C13.9191 14.8508 13.8598 14.7078 13.7543 14.6023C13.6488 14.4968 13.5057 14.4375 13.3566 14.4375Z" fill="black"/>
</svg>
