<svg width="24" height="24" viewBox="0 0 24 24" fill="none" xmlns="http://www.w3.org/2000/svg">
<path d="M18.3975 6.39751L7.3575 17.4375H15.75C15.8992 17.4375 16.0423 17.4968 16.1477 17.6023C16.2532 17.7077 16.3125 17.8508 16.3125 18C16.3125 18.1492 16.2532 18.2923 16.1477 18.3978C16.0423 18.5032 15.8992 18.5625 15.75 18.5625H6C5.85082 18.5625 5.70774 18.5032 5.60225 18.3978C5.49676 18.2923 5.4375 18.1492 5.4375 18V8.25001C5.4375 8.10082 5.49676 7.95775 5.60225 7.85226C5.70774 7.74677 5.85082 7.68751 6 7.68751C6.14918 7.68751 6.29226 7.74677 6.39775 7.85226C6.50324 7.95775 6.5625 8.10082 6.5625 8.25001V16.6425L17.6025 5.60251C17.7091 5.50315 17.8502 5.44905 17.9959 5.45163C18.1416 5.4542 18.2807 5.51323 18.3837 5.61629C18.4868 5.71935 18.5458 5.85839 18.5484 6.00412C18.551 6.14984 18.4969 6.29088 18.3975 6.39751Z" fill="black"/>
</svg>
