<svg width="24" height="24" viewBox="0 0 24 24" fill="none" xmlns="http://www.w3.org/2000/svg">
<path d="M16.3125 13.875C16.3125 14.0604 16.2575 14.2417 16.1545 14.3958C16.0515 14.55 15.9051 14.6702 15.7338 14.7411C15.5625 14.8121 15.374 14.8307 15.1921 14.7945C15.0102 14.7583 14.8432 14.669 14.7121 14.5379C14.581 14.4068 14.4917 14.2397 14.4555 14.0579C14.4193 13.876 14.4379 13.6875 14.5089 13.5162C14.5798 13.3449 14.7 13.1985 14.8542 13.0955C15.0083 12.9925 15.1896 12.9375 15.375 12.9375C15.6236 12.9375 15.8621 13.0363 16.0379 13.2121C16.2137 13.3879 16.3125 13.6264 16.3125 13.875ZM8.625 12.9375C8.43958 12.9375 8.25833 12.9925 8.10416 13.0955C7.94999 13.1985 7.82982 13.3449 7.75887 13.5162C7.68791 13.6875 7.66934 13.876 7.70552 14.0579C7.74169 14.2397 7.83098 14.4068 7.96209 14.5379C8.0932 14.669 8.26025 14.7583 8.44211 14.7945C8.62396 14.8307 8.81246 14.8121 8.98377 14.7411C9.15507 14.6702 9.30149 14.55 9.40451 14.3958C9.50752 14.2417 9.5625 14.0604 9.5625 13.875C9.5625 13.6264 9.46373 13.3879 9.28792 13.2121C9.1121 13.0363 8.87364 12.9375 8.625 12.9375ZM22.3125 15V17.25C22.3125 17.5981 22.1742 17.9319 21.9281 18.1781C21.6819 18.4242 21.3481 18.5625 21 18.5625H3C2.65191 18.5625 2.31807 18.4242 2.07193 18.1781C1.82578 17.9319 1.6875 17.5981 1.6875 17.25V15.1059C1.68632 13.653 1.98819 12.2158 2.57384 10.8862C3.15949 9.55653 4.01603 8.36365 5.08875 7.38374L2.6025 4.89749C2.54724 4.846 2.50291 4.7839 2.47217 4.7149C2.44142 4.6459 2.42489 4.57141 2.42356 4.49588C2.42223 4.42036 2.43612 4.34534 2.46441 4.27529C2.4927 4.20525 2.53481 4.14163 2.58822 4.08821C2.64164 4.0348 2.70526 3.99269 2.77531 3.9644C2.84535 3.93611 2.92037 3.92222 2.9959 3.92355C3.07142 3.92488 3.14591 3.94141 3.21491 3.97216C3.28391 4.0029 3.34601 4.04723 3.3975 4.10249L5.96344 6.66749C7.70283 5.38785 9.80406 4.69445 11.9634 4.68749H12C14.1754 4.68151 16.2961 5.36881 18.0544 6.64968L20.6025 4.10249C20.7091 4.00313 20.8502 3.94904 20.9959 3.95161C21.1416 3.95418 21.2807 4.01322 21.3837 4.11628C21.4868 4.21934 21.5458 4.35838 21.5484 4.5041C21.551 4.64983 21.4969 4.79086 21.3975 4.89749L18.9309 7.36406C19.0491 7.47187 19.1653 7.58156 19.2797 7.69499C20.244 8.65091 21.0088 9.78898 21.5294 11.043C22.0501 12.2971 22.3162 13.6421 22.3125 15ZM21.1875 15C21.1875 12.5633 20.2195 10.2264 18.4965 8.50345C16.7736 6.78046 14.4367 5.81249 12 5.81249H11.9672C6.91969 5.83031 2.8125 9.99937 2.8125 15.1059V17.25C2.8125 17.2997 2.83226 17.3474 2.86742 17.3826C2.90258 17.4177 2.95028 17.4375 3 17.4375H21C21.0497 17.4375 21.0974 17.4177 21.1326 17.3826C21.1677 17.3474 21.1875 17.2997 21.1875 17.25V15Z" fill="black"/>
</svg>
