<svg width="24" height="24" viewBox="0 0 24 24" fill="none" xmlns="http://www.w3.org/2000/svg">
<path d="M16.3129 20.25C16.3129 20.3992 16.2536 20.5422 16.1481 20.6477C16.0426 20.7532 15.8996 20.8125 15.7504 20.8125H2.25038C2.1012 20.8125 1.95812 20.7532 1.85264 20.6477C1.74715 20.5422 1.68788 20.3992 1.68788 20.25C1.68788 20.1008 1.74715 19.9577 1.85264 19.8522C1.95812 19.7467 2.1012 19.6875 2.25038 19.6875H15.7504C15.8996 19.6875 16.0426 19.7467 16.1481 19.8522C16.2536 19.9577 16.3129 20.1008 16.3129 20.25ZM23.0535 8.6981C23.0383 8.77567 23.0068 8.84916 22.9613 8.91378C22.9157 8.97839 22.8571 9.03268 22.7891 9.0731L8.96945 17.3231C8.42244 17.6431 7.80036 17.8123 7.16663 17.8134C6.26277 17.8123 5.39349 17.4659 4.73663 16.845L4.72726 16.8365L1.34757 13.5337C1.19002 13.3848 1.0718 13.1993 1.00346 12.9936C0.935122 12.7879 0.918793 12.5684 0.955933 12.3549C0.993073 12.1413 1.08253 11.9403 1.2163 11.7697C1.35008 11.5992 1.52401 11.4644 1.72257 11.3775L2.00382 11.2378C2.13716 11.1727 2.29081 11.1629 2.43132 11.2106L5.16413 12.1322L7.33632 10.8197L5.11445 8.66341C4.9531 8.51484 4.83157 8.3282 4.76094 8.12055C4.69031 7.9129 4.67285 7.69086 4.71015 7.47473C4.74745 7.25859 4.83831 7.05525 4.97445 6.88328C5.11058 6.71131 5.28764 6.5762 5.48945 6.49029L5.51195 6.48091L6.18226 6.22685C6.30894 6.17964 6.44839 6.17964 6.57507 6.22685L11.7163 8.11872L16.6269 5.18716C17.3582 4.75295 18.2213 4.59614 19.0586 4.74536C19.8959 4.89458 20.6516 5.33986 21.1879 5.99997L21.1963 6.01029L22.9438 8.24997C22.9927 8.31267 23.0278 8.38503 23.0467 8.46227C23.0656 8.53952 23.0679 8.61989 23.0535 8.6981ZM21.6651 8.43747L20.3132 6.70591C19.946 6.25537 19.4291 5.95176 18.8567 5.8504C18.2844 5.74905 17.6947 5.85669 17.1951 6.15372L12.0566 9.22122C11.9846 9.26426 11.9039 9.29063 11.8203 9.29842C11.7368 9.30621 11.6526 9.29521 11.5738 9.26622L6.37538 7.35466L5.91601 7.5281C5.88863 7.54056 5.86482 7.55971 5.8468 7.5838C5.82878 7.60789 5.81711 7.63613 5.81288 7.66591C5.80757 7.69702 5.8102 7.72897 5.82052 7.7588C5.83085 7.78863 5.84854 7.81537 5.87195 7.83654L5.88788 7.8506L8.63945 10.5215C8.7012 10.5814 8.74839 10.6547 8.7774 10.7357C8.80641 10.8167 8.81645 10.9032 8.80676 10.9887C8.79707 11.0742 8.76791 11.1563 8.72151 11.2287C8.67512 11.3012 8.61272 11.362 8.53913 11.4065L5.52132 13.2337C5.45157 13.2757 5.37354 13.3021 5.29261 13.311C5.21168 13.3199 5.12978 13.3111 5.05257 13.2853L2.29163 12.3534L2.20445 12.3965L2.1782 12.4087C2.14969 12.421 2.1247 12.4402 2.10545 12.4646C2.0862 12.489 2.0733 12.5177 2.06791 12.5483C2.06252 12.5789 2.06481 12.6103 2.07456 12.6398C2.08432 12.6693 2.10125 12.6958 2.12382 12.7172L2.1332 12.7256L5.5082 16.0331C5.88967 16.3925 6.3774 16.6184 6.8982 16.6771C7.419 16.7358 7.94478 16.6239 8.39663 16.3584L21.6651 8.43747Z" fill="black"/>
</svg>
