<svg width="24" height="24" viewBox="0 0 24 24" fill="none" xmlns="http://www.w3.org/2000/svg">
<path d="M21 10.6875H18.75C18.6008 10.6875 18.4577 10.7467 18.3523 10.8522C18.2468 10.9577 18.1875 11.1008 18.1875 11.25C18.1875 11.3992 18.2468 11.5422 18.3523 11.6477C18.4577 11.7532 18.6008 11.8125 18.75 11.8125H20.4188C20.2796 13.85 19.4071 15.7683 17.9628 17.2122C16.5185 18.6562 14.6001 19.5282 12.5625 19.6669V8.75623C13.2454 8.61683 13.8522 8.22883 14.2653 7.66746C14.6784 7.10608 14.8683 6.41132 14.7983 5.71787C14.7282 5.02442 14.4032 4.38168 13.8861 3.91426C13.3691 3.44684 12.697 3.18805 12 3.18805C11.303 3.18805 10.6309 3.44684 10.1139 3.91426C9.59684 4.38168 9.27179 5.02442 9.20174 5.71787C9.13169 6.41132 9.32162 7.10608 9.7347 7.66746C10.1478 8.22883 10.7546 8.61683 11.4375 8.75623V19.6669C9.3999 19.5282 7.48148 18.6562 6.03718 17.2122C4.59287 15.7683 3.72042 13.85 3.58125 11.8125H5.25C5.39918 11.8125 5.54226 11.7532 5.64775 11.6477C5.75324 11.5422 5.8125 11.3992 5.8125 11.25C5.8125 11.1008 5.75324 10.9577 5.64775 10.8522C5.54226 10.7467 5.39918 10.6875 5.25 10.6875H3C2.85082 10.6875 2.70774 10.7467 2.60225 10.8522C2.49676 10.9577 2.4375 11.1008 2.4375 11.25C2.4375 13.7861 3.44497 16.2184 5.23829 18.0117C7.03161 19.805 9.46387 20.8125 12 20.8125C14.5361 20.8125 16.9684 19.805 18.7617 18.0117C20.555 16.2184 21.5625 13.7861 21.5625 11.25C21.5625 11.1008 21.5032 10.9577 21.3977 10.8522C21.2923 10.7467 21.1492 10.6875 21 10.6875ZM10.3125 5.99998C10.3125 5.66622 10.4115 5.33996 10.5969 5.06245C10.7823 4.78494 11.0459 4.56865 11.3542 4.44093C11.6626 4.31321 12.0019 4.27979 12.3292 4.3449C12.6566 4.41001 12.9572 4.57073 13.1932 4.80673C13.4292 5.04273 13.59 5.34342 13.6551 5.67076C13.7202 5.9981 13.6868 6.3374 13.559 6.64575C13.4313 6.9541 13.215 7.21766 12.9375 7.40308C12.66 7.58851 12.3338 7.68748 12 7.68748C11.5524 7.68748 11.1232 7.50969 10.8068 7.19322C10.4903 6.87675 10.3125 6.44753 10.3125 5.99998Z" fill="black"/>
</svg>
