<svg width="24" height="24" viewBox="0 0 24 24" fill="none" xmlns="http://www.w3.org/2000/svg">
<path d="M20.6828 14.4909C20.73 14.5478 20.7655 14.6134 20.7873 14.684C20.8091 14.7546 20.8168 14.8288 20.8099 14.9024C20.803 14.9759 20.7817 15.0474 20.7472 15.1127C20.7127 15.1781 20.6657 15.236 20.6088 15.2831C19.0272 16.5956 17.6088 17.0644 16.3197 17.0644C14.6144 17.0644 13.12 16.2525 11.7316 15.4978C9.29408 14.174 7.19033 13.0312 4.10877 15.5915C4.05146 15.6387 3.98542 15.6741 3.91443 15.6957C3.84344 15.7174 3.76888 15.7248 3.69501 15.7176C3.62115 15.7104 3.54942 15.6888 3.48392 15.6539C3.41843 15.619 3.36045 15.5715 3.3133 15.5142C3.26615 15.4569 3.23074 15.3909 3.20911 15.3199C3.18748 15.2489 3.18004 15.1743 3.18722 15.1004C3.1944 15.0266 3.21607 14.9549 3.25097 14.8894C3.28587 14.8239 3.33333 14.7659 3.39064 14.7187C7.05908 11.6756 9.82658 13.1794 12.2678 14.5059C14.7091 15.8325 16.8091 16.9725 19.8906 14.4122C19.9478 14.3653 20.0137 14.3301 20.0844 14.3087C20.1552 14.2873 20.2295 14.28 20.3031 14.2873C20.3766 14.2946 20.4481 14.3164 20.5132 14.3513C20.5784 14.3862 20.636 14.4337 20.6828 14.4909ZM4.10877 9.58311C7.19033 7.02655 9.29502 8.16936 11.7316 9.48936C13.12 10.2394 14.6144 11.0559 16.3197 11.0559C17.6125 11.0559 19.0272 10.5872 20.6088 9.27467C20.7236 9.17944 20.796 9.04248 20.8099 8.89392C20.8238 8.74535 20.7781 8.59736 20.6828 8.48248C20.5876 8.36761 20.4506 8.29527 20.3021 8.28138C20.1535 8.2675 20.0055 8.31319 19.8906 8.40842C16.8091 10.965 14.7044 9.82217 12.2678 8.50217C9.83127 7.18217 7.05908 5.67373 3.39064 8.71873C3.27577 8.81396 3.20343 8.95092 3.18954 9.09949C3.17565 9.24805 3.22135 9.39605 3.31658 9.51092C3.41181 9.62579 3.54877 9.69813 3.69733 9.71202C3.8459 9.72591 3.9939 9.68021 4.10877 9.58498V9.58311Z" fill="black"/>
</svg>
