<svg width="24" height="24" viewBox="0 0 24 24" fill="none" xmlns="http://www.w3.org/2000/svg">
<path d="M14.1563 13.05C14.499 12.6395 14.7175 12.1397 14.7863 11.6094C14.8551 11.0791 14.7713 10.5401 14.5447 10.0558C14.3181 9.57137 13.958 9.16164 13.5068 8.87459C13.0556 8.58755 12.532 8.43509 11.9972 8.43509C11.4624 8.43509 10.9387 8.58755 10.4875 8.87459C10.0363 9.16164 9.67632 9.57137 9.4497 10.0558C9.22309 10.5401 9.13926 11.0791 9.20806 11.6094C9.27686 12.1397 9.49542 12.6395 9.83813 13.05C9.4539 13.1811 9.11654 13.4219 8.86781 13.7428C8.6754 13.9881 8.54201 14.2744 8.47796 14.5796C8.41391 14.8847 8.42092 15.2005 8.49844 15.5025L9.64031 20.0025C9.75586 20.4511 10.018 20.8482 10.385 21.1309C10.7521 21.4135 11.203 21.5654 11.6663 21.5625H12.3338C12.7965 21.5648 13.2468 21.4126 13.6133 21.13C13.9798 20.8474 14.2415 20.4506 14.3569 20.0025L15.4988 15.5025C15.5763 15.2005 15.5833 14.8847 15.5192 14.5796C15.4552 14.2744 15.3218 13.9881 15.1294 13.7428C14.8799 13.4215 14.5415 13.1806 14.1563 13.05ZM12 9.56248C12.3338 9.56248 12.66 9.66145 12.9375 9.84687C13.215 10.0323 13.4313 10.2958 13.559 10.6042C13.6868 10.9125 13.7202 11.2518 13.6551 11.5792C13.59 11.9065 13.4292 12.2072 13.1932 12.4432C12.9572 12.6792 12.6566 12.8399 12.3292 12.9051C12.0019 12.9702 11.6626 12.9367 11.3542 12.809C11.0459 12.6813 10.7823 12.465 10.5969 12.1875C10.4115 11.91 10.3125 11.5837 10.3125 11.25C10.3125 10.8024 10.4903 10.3732 10.8068 10.0567C11.1232 9.74027 11.5524 9.56248 12 9.56248ZM14.4084 15.225L13.2666 19.725C13.2125 19.9306 13.0915 20.1123 12.9225 20.2414C12.7535 20.3704 12.5464 20.4394 12.3338 20.4375H11.6663C11.4529 20.4405 11.2446 20.372 11.0747 20.2428C10.9048 20.1137 10.783 19.9314 10.7288 19.725L9.58688 15.225C9.55214 15.0891 9.54912 14.9471 9.57806 14.8099C9.60699 14.6727 9.66711 14.544 9.75375 14.4337C9.84385 14.3166 9.95974 14.2219 10.0924 14.1568C10.2251 14.0918 10.371 14.0582 10.5188 14.0587H13.4719C13.6196 14.0582 13.7655 14.0918 13.8982 14.1568C14.0309 14.2219 14.1468 14.3166 14.2369 14.4337C14.3243 14.5436 14.3853 14.6721 14.415 14.8093C14.4448 14.9465 14.4425 15.0888 14.4084 15.225ZM17.4375 12C17.4365 11.2243 17.2695 10.4578 16.9477 9.75196C16.626 9.04613 16.1569 8.41731 15.5721 7.90773C14.9873 7.39815 14.3002 7.01959 13.5569 6.79748C12.8137 6.57538 12.0316 6.51486 11.263 6.61999C10.4945 6.72513 9.75734 6.99348 9.10107 7.40704C8.44481 7.82059 7.88462 8.36977 7.45813 9.01771C7.03164 9.66564 6.74872 10.3973 6.62836 11.1636C6.508 11.9299 6.55299 12.7131 6.76031 13.4606C6.79673 13.6032 6.77582 13.7544 6.70207 13.8817C6.62832 14.009 6.5076 14.1024 6.36581 14.1418C6.22402 14.1812 6.07244 14.1634 5.94359 14.0923C5.81474 14.0212 5.71888 13.9025 5.67656 13.7615C5.40602 12.7868 5.36447 11.7628 5.55515 10.7693C5.74584 9.7759 6.1636 8.84 6.7758 8.03473C7.38801 7.22945 8.17808 6.5766 9.08432 6.12717C9.99057 5.67774 10.9884 5.44389 12 5.44389C13.0116 5.44389 14.0094 5.67774 14.9157 6.12717C15.8219 6.5766 16.612 7.22945 17.2242 8.03473C17.8364 8.84 18.2542 9.7759 18.4449 10.7693C18.6355 11.7628 18.594 12.7868 18.3234 13.7615C18.2811 13.9025 18.1853 14.0212 18.0564 14.0923C17.9276 14.1634 17.776 14.1812 17.6342 14.1418C17.4924 14.1024 17.3717 14.009 17.2979 13.8817C17.2242 13.7544 17.2033 13.6032 17.2397 13.4606C17.3713 12.9849 17.4378 12.4935 17.4375 12ZM21.5625 12C21.5634 13.572 21.1763 15.12 20.4357 16.5066C19.695 17.8932 18.6236 19.0756 17.3166 19.949C17.1922 20.0321 17.04 20.0623 16.8934 20.0332C16.7468 20.004 16.6177 19.9177 16.5347 19.7934C16.4516 19.6691 16.4214 19.5169 16.4506 19.3702C16.4798 19.2236 16.566 19.0946 16.6903 19.0115C18.1948 18.0055 19.3359 16.5423 19.9451 14.838C20.5543 13.1338 20.5994 11.2788 20.0737 9.54699C19.548 7.81516 18.4794 6.29826 17.0256 5.22027C15.5718 4.14227 13.8099 3.56031 12 3.56031C10.1901 3.56031 8.42824 4.14227 6.97444 5.22027C5.52064 6.29826 4.452 7.81516 3.92629 9.54699C3.40058 11.2788 3.44567 13.1338 4.05491 14.838C4.66414 16.5423 5.80523 18.0055 7.30969 19.0115C7.43401 19.0946 7.52025 19.2236 7.54943 19.3702C7.57862 19.5169 7.54836 19.6691 7.46531 19.7934C7.38227 19.9177 7.25324 20.004 7.10661 20.0332C6.95998 20.0623 6.80776 20.0321 6.68344 19.949C5.31046 19.0307 4.19878 17.7723 3.45673 16.2965C2.71468 14.8208 2.36756 13.178 2.44919 11.5282C2.53081 9.87838 3.03841 8.27786 3.92252 6.88257C4.80662 5.48727 6.03709 4.34479 7.49402 3.56643C8.95095 2.78807 10.5847 2.40038 12.236 2.44114C13.8873 2.48191 15.4999 2.94972 16.9166 3.79902C18.3334 4.64831 19.506 5.85011 20.3202 7.28733C21.1344 8.72455 21.5624 10.3482 21.5625 12Z" fill="black"/>
</svg>
