<svg width="24" height="24" viewBox="0 0 24 24" fill="none" xmlns="http://www.w3.org/2000/svg">
<path d="M7.89798 13.8525C7.95325 13.904 7.99757 13.9661 8.02832 14.0351C8.05906 14.1041 8.07559 14.1786 8.07693 14.2541C8.07826 14.3296 8.06436 14.4047 8.03607 14.4747C8.00778 14.5447 7.96567 14.6084 7.91226 14.6618C7.85885 14.7152 7.79522 14.7573 7.72518 14.7856C7.65514 14.8139 7.58012 14.8278 7.50459 14.8265C7.42906 14.8251 7.35458 14.8086 7.28558 14.7778C7.21658 14.7471 7.15448 14.7028 7.10298 14.6475L2.60298 10.1475C2.49764 10.042 2.43848 9.89907 2.43848 9.75001C2.43848 9.60094 2.49764 9.45798 2.60298 9.35251L7.10298 4.85251C7.20961 4.75315 7.35065 4.69905 7.49637 4.70163C7.6421 4.7042 7.78114 4.76323 7.8842 4.86629C7.98726 4.96935 8.04629 5.10839 8.04886 5.25411C8.05143 5.39984 7.99734 5.54088 7.89798 5.64751L3.79642 9.75001L7.89798 13.8525ZM12.0005 9.18751H8.85892L12.398 5.64751C12.4973 5.54088 12.5514 5.39984 12.5489 5.25411C12.5463 5.10839 12.4873 4.96935 12.3842 4.86629C12.2811 4.76323 12.1421 4.7042 11.9964 4.70163C11.8506 4.69905 11.7096 4.75315 11.603 4.85251L7.10298 9.35251C6.99764 9.45798 6.93848 9.60094 6.93848 9.75001C6.93848 9.89907 6.99764 10.042 7.10298 10.1475L11.603 14.6475C11.7096 14.7469 11.8506 14.801 11.9964 14.7984C12.1421 14.7958 12.2811 14.7368 12.3842 14.6337C12.4873 14.5307 12.5463 14.3916 12.5489 14.2459C12.5514 14.1002 12.4973 13.9591 12.398 13.8525L8.85892 10.3125H12.0005C14.2375 10.315 16.3822 11.2047 17.964 12.7865C19.5458 14.3683 20.4355 16.513 20.438 18.75C20.438 18.8992 20.4972 19.0423 20.6027 19.1478C20.7082 19.2532 20.8513 19.3125 21.0005 19.3125C21.1497 19.3125 21.2927 19.2532 21.3982 19.1478C21.5037 19.0423 21.563 18.8992 21.563 18.75C21.56 16.2148 20.5516 13.7843 18.7589 11.9916C16.9662 10.1989 14.5357 9.19048 12.0005 9.18751Z" fill="black"/>
</svg>
