<svg width="24" height="24" viewBox="0 0 24 24" fill="none" xmlns="http://www.w3.org/2000/svg">
<path d="M21.2168 6.23064L12.2168 2.48064C12.0781 2.42345 11.9224 2.42345 11.7837 2.48064L2.78367 6.23064C2.66942 6.27824 2.57407 6.36218 2.51237 6.46947C2.45068 6.57676 2.42609 6.7014 2.44242 6.82408L3.94242 18.0741C3.95452 18.1653 3.98879 18.2521 4.04224 18.3269C4.09568 18.4018 4.16667 18.4624 4.24898 18.5035L11.749 22.2535C11.827 22.2924 11.913 22.3127 12.0002 22.3127C12.0874 22.3127 12.1735 22.2924 12.2515 22.2535L19.7515 18.5035C19.8338 18.4624 19.9048 18.4018 19.9582 18.3269C20.0117 18.2521 20.0459 18.1653 20.058 18.0741L21.558 6.82408C21.5744 6.7014 21.5498 6.57676 21.4881 6.46947C21.4264 6.36218 21.331 6.27824 21.2168 6.23064ZM18.9818 17.6306L12.0002 21.121L5.01867 17.6306L3.61242 7.10345L12.0002 3.60939L20.3852 7.10345L18.9818 17.6306ZM11.508 7.97439L7.75804 14.7244C7.68569 14.8549 7.66815 15.0089 7.70929 15.1523C7.75043 15.2958 7.84688 15.417 7.97742 15.4894C8.10795 15.5617 8.26189 15.5793 8.40535 15.5381C8.54882 15.497 8.67006 15.4006 8.74242 15.27L9.83085 13.3125H14.1696L15.258 15.2728C15.3068 15.3607 15.3781 15.4338 15.4646 15.4848C15.5512 15.5357 15.6498 15.5626 15.7502 15.5625C15.8455 15.5627 15.9392 15.5381 16.0221 15.4913C16.1524 15.419 16.2487 15.2979 16.2899 15.1546C16.331 15.0114 16.3136 14.8576 16.2415 14.7272L12.4915 7.9772C12.4428 7.88928 12.3715 7.816 12.285 7.76497C12.1984 7.71394 12.0998 7.68702 11.9993 7.68702C11.8988 7.68702 11.8002 7.71394 11.7136 7.76497C11.6271 7.816 11.5557 7.88928 11.5071 7.9772L11.508 7.97439ZM13.5443 12.1875H10.4562L12.0002 9.40783L13.5443 12.1875Z" fill="black"/>
</svg>
