<svg width="24" height="24" viewBox="0 0 24 24" fill="none" xmlns="http://www.w3.org/2000/svg">
<path d="M18.563 7.49999V21C18.563 21.1492 18.5037 21.2923 18.3982 21.3977C18.2927 21.5032 18.1497 21.5625 18.0005 21.5625C17.8513 21.5625 17.7082 21.5032 17.6027 21.3977C17.4972 21.2923 17.438 21.1492 17.438 21V8.06249H5.85892L9.39798 11.6025C9.45325 11.654 9.49757 11.7161 9.52832 11.7851C9.55906 11.8541 9.57559 11.9286 9.57693 12.0041C9.57826 12.0796 9.56436 12.1546 9.53607 12.2247C9.50778 12.2947 9.46567 12.3584 9.41226 12.4118C9.35885 12.4652 9.29522 12.5073 9.22518 12.5356C9.15514 12.5639 9.08012 12.5778 9.00459 12.5764C8.92906 12.5751 8.85458 12.5586 8.78558 12.5278C8.71658 12.4971 8.65448 12.4528 8.60298 12.3975L4.10298 7.89749C3.99764 7.79202 3.93848 7.64906 3.93848 7.49999C3.93848 7.35093 3.99764 7.20796 4.10298 7.10249L8.60298 2.60249C8.65448 2.54723 8.71658 2.5029 8.78558 2.47216C8.85458 2.44141 8.92906 2.42488 9.00459 2.42355C9.08012 2.42222 9.15514 2.43611 9.22518 2.4644C9.29522 2.49269 9.35885 2.5348 9.41226 2.58821C9.46567 2.64163 9.50778 2.70525 9.53607 2.7753C9.56436 2.84534 9.57826 2.92036 9.57693 2.99589C9.57559 3.07141 9.55906 3.1459 9.52832 3.2149C9.49757 3.2839 9.45325 3.346 9.39798 3.39749L5.85892 6.93749H18.0005C18.1497 6.93749 18.2927 6.99676 18.3982 7.10225C18.5037 7.20774 18.563 7.35081 18.563 7.49999Z" fill="black"/>
</svg>
