<svg width="24" height="24" viewBox="0 0 24 24" fill="none" xmlns="http://www.w3.org/2000/svg">
<path d="M23.8125 20.25C23.8125 20.3992 23.7532 20.5423 23.6477 20.6478C23.5423 20.7533 23.3992 20.8125 23.25 20.8125H9.75C9.60082 20.8125 9.45774 20.7533 9.35225 20.6478C9.24676 20.5423 9.1875 20.3992 9.1875 20.25C9.1875 20.1008 9.24676 19.9578 9.35225 19.8523C9.45774 19.7468 9.60082 19.6875 9.75 19.6875H23.25C23.3992 19.6875 23.5423 19.7468 23.6477 19.8523C23.7532 19.9578 23.8125 20.1008 23.8125 20.25ZM21.5981 17.7919L5.03906 13.155C4.29152 12.9434 3.63326 12.494 3.16386 11.8749C2.69447 11.2558 2.43949 10.5007 2.4375 9.72377V4.50002C2.43736 4.29196 2.48669 4.08684 2.58142 3.90159C2.67615 3.71634 2.81356 3.55626 2.98232 3.43457C3.15109 3.31287 3.34637 3.23304 3.55205 3.20166C3.75774 3.17028 3.96794 3.18825 4.16531 3.25409L4.67813 3.42565C4.75859 3.45255 4.83193 3.49731 4.89265 3.55656C4.95337 3.61582 4.9999 3.68805 5.02875 3.76784L6.06 6.61127L9.1875 7.50002V4.50002C9.18736 4.29196 9.23669 4.08684 9.33142 3.90159C9.42615 3.71634 9.56356 3.55626 9.73232 3.43457C9.90109 3.31287 10.0964 3.23304 10.3021 3.20166C10.5077 3.17028 10.7179 3.18825 10.9153 3.25409L11.4281 3.42565C11.5041 3.45105 11.5737 3.49238 11.6324 3.54686C11.6911 3.60135 11.7375 3.66774 11.7684 3.74159L13.9134 8.85377L19.7044 10.4728C20.4537 10.6826 21.114 11.1314 21.5847 11.751C22.0555 12.3705 22.3111 13.1269 22.3125 13.905V17.25C22.3125 17.3369 22.2925 17.4226 22.2539 17.5004C22.2152 17.5782 22.1591 17.646 22.0899 17.6984C22.0207 17.7509 21.9403 17.7867 21.855 17.8029C21.7697 17.8191 21.6818 17.8153 21.5981 17.7919ZM21.1875 13.905C21.1856 13.3739 21.0107 12.8578 20.6893 12.4349C20.3679 12.012 19.9175 11.7053 19.4062 11.5613L13.3519 9.87377C13.2703 9.85082 13.1949 9.80972 13.1315 9.75355C13.068 9.69738 13.018 9.62759 12.9853 9.5494L10.8291 4.42127L10.5581 4.32752C10.5304 4.31848 10.501 4.31601 10.4722 4.32032C10.4434 4.32462 10.416 4.33558 10.3922 4.35232C10.3683 4.36906 10.3487 4.39112 10.3349 4.41676C10.3211 4.4424 10.3134 4.47091 10.3125 4.50002V8.25002C10.3125 8.33701 10.2923 8.4228 10.2535 8.50066C10.2147 8.57852 10.1584 8.64633 10.089 8.69875C10.0196 8.75117 9.93897 8.78678 9.85347 8.80278C9.76797 8.81878 9.67992 8.81474 9.59625 8.79096L5.47125 7.61534C5.38551 7.59094 5.30679 7.5465 5.24159 7.48571C5.17639 7.42491 5.12657 7.34948 5.09625 7.26565L4.06313 4.40627L3.80906 4.3219C3.79004 4.31549 3.77007 4.31232 3.75 4.31252C3.71092 4.31278 3.6729 4.32523 3.64125 4.34815C3.61702 4.3654 3.59724 4.38817 3.58354 4.41458C3.56985 4.44099 3.56264 4.47028 3.5625 4.50002V9.72377C3.5647 10.2549 3.7397 10.7708 4.06105 11.1936C4.38241 11.6165 4.83265 11.9232 5.34375 12.0675L21.1875 16.5047V13.905Z" fill="black"/>
</svg>
