<svg width="24" height="24" viewBox="0 0 24 24" fill="none" xmlns="http://www.w3.org/2000/svg">
<path d="M18.7613 5.23874C16.9632 3.46948 14.5387 2.48245 12.0161 2.49263C9.49346 2.50282 7.07705 3.50939 5.29321 5.29311C3.50937 7.07683 2.50263 9.49316 2.49227 12.0158C2.48191 14.5384 3.46878 16.9629 5.23791 18.7612C6.12317 19.6611 7.17784 20.3768 8.34108 20.867C9.50432 21.3572 10.7531 21.6123 12.0154 21.6175C13.2777 21.6227 14.5286 21.3779 15.6958 20.8972C16.863 20.4166 17.9235 19.7096 18.8162 18.817C19.7088 17.9244 20.4159 16.864 20.8966 15.6968C21.3773 14.5296 21.6222 13.2788 21.6171 12.0164C21.612 10.7541 21.357 9.50533 20.8669 8.34206C20.3768 7.17878 19.6611 6.12406 18.7613 5.23874ZM9.19884 11.489L11.041 9.31968L13.8404 9.83155L14.7976 12.5109L12.9554 14.6803L10.156 14.1684L9.19884 11.489ZM19.681 8.50218C20.2082 9.66536 20.4652 10.9328 20.4327 12.2095C20.4002 13.4861 20.0791 14.7389 19.4935 15.8737L14.2304 14.9137L19.681 8.50218ZM19.1035 7.44467L15.6404 11.5209L12.812 3.60186C14.7623 3.78438 16.5869 4.64492 17.9682 6.03374C18.3955 6.46259 18.776 6.93555 19.1035 7.44467ZM6.03384 6.03842C7.51612 4.5457 9.5057 3.66521 11.6073 3.57186L13.4063 8.60811L5.13291 7.0978C5.40375 6.71918 5.70506 6.36331 6.03384 6.03374V6.03842ZM4.50009 8.12624L9.76322 9.08624L4.31916 15.4978C3.792 14.3346 3.53502 13.0672 3.5675 11.7905C3.59997 10.5139 3.92105 9.26112 4.50666 8.12624H4.50009ZM4.89478 16.5553L8.35791 12.479L11.1863 20.3981C9.23604 20.2156 7.41146 19.3551 6.03009 17.9662C5.6035 17.5373 5.22356 17.0643 4.89666 16.5553H4.89478ZM17.9645 17.9615C16.4817 19.4529 14.4921 20.3318 12.391 20.4234L10.5938 15.3919L18.8663 16.9022C18.5958 17.2808 18.2948 17.6366 17.9663 17.9662L17.9645 17.9615Z" fill="black"/>
</svg>
