<svg width="24" height="24" viewBox="0 0 24 24" fill="none" xmlns="http://www.w3.org/2000/svg">
<path d="M19.5004 9.1875H13.7339L9.39885 4.8525C9.34656 4.80014 9.28445 4.75861 9.21607 4.7303C9.1477 4.70199 9.07442 4.68744 9.00042 4.6875H8.25042C8.04251 4.68766 7.83761 4.7372 7.6526 4.83206C7.4676 4.92691 7.30777 5.06436 7.18628 5.23308C7.0648 5.40181 6.98514 5.59698 6.95385 5.80252C6.92257 6.00806 6.94057 6.21809 7.00635 6.41531L7.93073 9.1875H5.48385L3.39885 7.1025C3.34656 7.05014 3.28445 7.00861 3.21607 6.9803C3.1477 6.95199 3.07442 6.93744 3.00042 6.9375H2.25042C2.04613 6.93774 1.84471 6.98566 1.66221 7.07746C1.4797 7.16925 1.32114 7.30238 1.19915 7.46625C1.07716 7.63012 0.995108 7.8202 0.959521 8.02136C0.923934 8.22253 0.935797 8.42923 0.994165 8.625L2.31323 13.0219C2.52998 13.7579 2.97994 14.4036 3.59538 14.8618C4.21083 15.32 4.95845 15.5659 5.72573 15.5625H22.5004C22.6496 15.5625 22.7927 15.5032 22.8982 15.3977C23.0037 15.2923 23.0629 15.1492 23.0629 15V12.75C23.0629 11.8052 22.6876 10.899 22.0195 10.2309C21.3514 9.56283 20.4452 9.1875 19.5004 9.1875ZM21.9379 14.4375H5.72573C5.20088 14.4397 4.68949 14.2716 4.26837 13.9583C3.84726 13.6451 3.53918 13.2036 3.39042 12.7003L2.07229 8.30344C2.06331 8.27565 2.06127 8.24609 2.06633 8.21733C2.0714 8.18857 2.08342 8.16149 2.10135 8.13844C2.11825 8.11472 2.14063 8.09543 2.16658 8.08221C2.19253 8.06899 2.22129 8.06223 2.25042 8.0625H2.76698L4.85198 10.1475C4.90427 10.1999 4.96638 10.2414 5.03476 10.2697C5.10313 10.298 5.17641 10.3126 5.25042 10.3125H8.71073C8.79987 10.3125 8.88773 10.2913 8.96707 10.2506C9.04641 10.21 9.11495 10.1511 9.16705 10.0787C9.21914 10.0064 9.25331 9.92274 9.26671 9.83461C9.28012 9.74648 9.27239 9.65643 9.24417 9.57187L8.07323 6.05906C8.0639 6.03095 8.06136 6.00102 8.06582 5.97173C8.07029 5.94245 8.08163 5.91464 8.09892 5.89058C8.11621 5.86652 8.13895 5.8469 8.16528 5.83333C8.19162 5.81976 8.22079 5.81262 8.25042 5.8125H8.76698L13.102 10.1475C13.1543 10.1999 13.2164 10.2414 13.2848 10.2697C13.3531 10.298 13.4264 10.3126 13.5004 10.3125H19.5004C20.1469 10.3125 20.7669 10.5693 21.224 11.0264C21.6811 11.4835 21.9379 12.1035 21.9379 12.75V14.4375ZM20.8129 18.75C20.8129 19.0096 20.7359 19.2633 20.5917 19.4792C20.4475 19.695 20.2425 19.8633 20.0027 19.9626C19.7629 20.0619 19.499 20.0879 19.2444 20.0373C18.9898 19.9866 18.7559 19.8616 18.5723 19.6781C18.3888 19.4945 18.2638 19.2607 18.2131 19.0061C18.1625 18.7515 18.1885 18.4876 18.2878 18.2477C18.3872 18.0079 18.5554 17.8029 18.7712 17.6587C18.9871 17.5145 19.2408 17.4375 19.5004 17.4375C19.8485 17.4375 20.1824 17.5758 20.4285 17.8219C20.6746 18.0681 20.8129 18.4019 20.8129 18.75ZM11.8129 18.75C11.8129 19.0096 11.7359 19.2633 11.5917 19.4792C11.4475 19.695 11.2425 19.8633 11.0027 19.9626C10.7629 20.0619 10.499 20.0879 10.2444 20.0373C9.98976 19.9866 9.75589 19.8616 9.57234 19.6781C9.38878 19.4945 9.26378 19.2607 9.21313 19.0061C9.16249 18.7515 9.18848 18.4876 9.28782 18.2477C9.38716 18.0079 9.55539 17.8029 9.77123 17.6587C9.98707 17.5145 10.2408 17.4375 10.5004 17.4375C10.8485 17.4375 11.1824 17.5758 11.4285 17.8219C11.6746 18.0681 11.8129 18.4019 11.8129 18.75Z" fill="black"/>
</svg>
