<svg width="24" height="24" viewBox="0 0 24 24" fill="none" xmlns="http://www.w3.org/2000/svg">
<path d="M17.1566 10.6547L19.9785 7.99968L19.9907 7.9875C20.5182 7.46001 20.8145 6.74457 20.8145 5.99859C20.8145 5.25261 20.5182 4.53717 19.9907 4.00968C19.4632 3.48219 18.7477 3.18585 18.0018 3.18585C17.2558 3.18585 16.5403 3.48219 16.0129 4.00968L16.0007 4.02187L13.3457 6.84375L5.44254 3.97031C5.34203 3.93371 5.23317 3.92654 5.12873 3.94962C5.02429 3.9727 4.92859 4.02508 4.85286 4.10062L2.60286 6.35062C2.54356 6.40945 2.49811 6.48075 2.4698 6.55934C2.4415 6.63792 2.43105 6.72183 2.43922 6.80496C2.44739 6.88809 2.47397 6.96835 2.51703 7.03993C2.56009 7.1115 2.61855 7.17259 2.68817 7.21875L8.86817 11.3381L7.26786 12.9375H5.25036C5.10122 12.9376 4.95824 12.997 4.85286 13.1025L2.60286 15.3525C2.53687 15.4182 2.48822 15.4993 2.4613 15.5885C2.43438 15.6776 2.43001 15.7721 2.4486 15.8633C2.46719 15.9546 2.50814 16.0398 2.56779 16.1113C2.62744 16.1828 2.70392 16.2384 2.79036 16.2731L6.31723 17.6794L7.72348 21.2006V21.2119C7.78018 21.3494 7.88906 21.4589 8.02628 21.5163C8.1635 21.5738 8.31789 21.5745 8.45567 21.5184C8.52902 21.4887 8.59518 21.4436 8.64973 21.3862L10.8913 19.1447C10.9985 19.0411 11.0602 18.8991 11.0629 18.75V16.7325L12.6632 15.1322L16.7816 21.3122C16.8278 21.3813 16.8888 21.4394 16.9601 21.4821C17.0314 21.5249 17.1113 21.5513 17.1941 21.5594C17.2768 21.5676 17.3604 21.5573 17.4387 21.5293C17.517 21.5013 17.5881 21.4563 17.6469 21.3975L19.8969 19.1475C19.9725 19.0718 20.0248 18.9761 20.0479 18.8716C20.071 18.7672 20.0638 18.6583 20.0272 18.5578L17.1566 10.6547ZM17.3385 20.1169L13.2191 13.9369C13.1729 13.8677 13.112 13.8096 13.0406 13.7668C12.9693 13.724 12.8894 13.6976 12.8066 13.6894H12.7513C12.6022 13.6895 12.4592 13.7489 12.3538 13.8544L10.1038 16.1044C9.99839 16.2091 9.93873 16.3514 9.93786 16.5V18.5175L8.45661 19.9987L7.27254 17.0409C7.24436 16.9701 7.20207 16.9057 7.14824 16.8517C7.09441 16.7978 7.03017 16.7553 6.95942 16.7269L4.00161 15.5437L5.48379 14.0625H7.50036C7.57436 14.0626 7.64764 14.048 7.71602 14.0197C7.78439 13.9914 7.8465 13.9499 7.8988 13.8975L10.1488 11.6475C10.2075 11.5886 10.2525 11.5174 10.2804 11.4391C10.3083 11.3608 10.3185 11.2772 10.3103 11.1944C10.302 11.1117 10.2755 11.0318 10.2327 10.9605C10.1899 10.8892 10.1317 10.8283 10.0625 10.7822L3.88348 6.66187L5.39473 5.14968L13.3129 8.02781C13.4162 8.06535 13.5283 8.07177 13.6353 8.04628C13.7423 8.02078 13.8394 7.9645 13.9147 7.88437L16.821 4.8C17.1427 4.51162 17.5628 4.35763 17.9947 4.36977C18.4266 4.38191 18.8374 4.55925 19.1424 4.86524C19.4475 5.17124 19.6235 5.58258 19.6343 6.01451C19.6451 6.44643 19.4897 6.86604 19.2004 7.18687L16.116 10.0931C16.0359 10.1684 15.9796 10.2656 15.9541 10.3726C15.9286 10.4795 15.935 10.5916 15.9725 10.695L18.8507 18.6084L17.3385 20.1169Z" fill="black"/>
</svg>
