<svg width="24" height="24" viewBox="0 0 24 24" fill="none" xmlns="http://www.w3.org/2000/svg">
<path d="M17.2505 6.93749H11.813V2.99999C11.8129 2.88881 11.7798 2.78016 11.718 2.68774C11.6562 2.59533 11.5684 2.52331 11.4657 2.48078C11.363 2.43825 11.2499 2.42711 11.1409 2.44877C11.0318 2.47043 10.9316 2.52393 10.853 2.60249L1.85298 11.6025C1.74764 11.708 1.68848 11.8509 1.68848 12C1.68848 12.1491 1.74764 12.292 1.85298 12.3975L10.853 21.3975C10.9316 21.4761 11.0318 21.5296 11.1409 21.5512C11.2499 21.5729 11.363 21.5617 11.4657 21.5192C11.5684 21.4767 11.6562 21.4047 11.718 21.3122C11.7798 21.2198 11.8129 21.1112 11.813 21V17.0625H17.2505C17.3997 17.0625 17.5427 17.0032 17.6482 16.8977C17.7537 16.7923 17.813 16.6492 17.813 16.5V7.49999C17.813 7.35081 17.7537 7.20774 17.6482 7.10225C17.5427 6.99676 17.3997 6.93749 17.2505 6.93749ZM16.688 15.9375H11.2505C11.1013 15.9375 10.9582 15.9968 10.8527 16.1022C10.7472 16.2077 10.688 16.3508 10.688 16.5V19.6416L3.04642 12L10.688 4.35843V7.49999C10.688 7.64918 10.7472 7.79225 10.8527 7.89774C10.9582 8.00323 11.1013 8.06249 11.2505 8.06249H16.688V15.9375ZM20.813 7.49999V16.5C20.813 16.6492 20.7537 16.7923 20.6482 16.8977C20.5427 17.0032 20.3997 17.0625 20.2505 17.0625C20.1013 17.0625 19.9582 17.0032 19.8527 16.8977C19.7472 16.7923 19.688 16.6492 19.688 16.5V7.49999C19.688 7.35081 19.7472 7.20774 19.8527 7.10225C19.9582 6.99676 20.1013 6.93749 20.2505 6.93749C20.3997 6.93749 20.5427 6.99676 20.6482 7.10225C20.7537 7.20774 20.813 7.35081 20.813 7.49999Z" fill="black"/>
</svg>
