<svg width="24" height="24" viewBox="0 0 24 24" fill="none" xmlns="http://www.w3.org/2000/svg">
<path d="M18.5621 8.25001V18C18.5621 18.1492 18.5029 18.2923 18.3974 18.3978C18.2919 18.5032 18.1488 18.5625 17.9996 18.5625H8.24964C8.10046 18.5625 7.95738 18.5032 7.85189 18.3978C7.7464 18.2923 7.68714 18.1492 7.68714 18C7.68714 17.8508 7.7464 17.7077 7.85189 17.6023C7.95738 17.4968 8.10046 17.4375 8.24964 17.4375H16.6421L5.60214 6.39751C5.50278 6.29088 5.44869 6.14984 5.45126 6.00412C5.45383 5.85839 5.51286 5.71935 5.61592 5.61629C5.71898 5.51323 5.85802 5.4542 6.00375 5.45163C6.14947 5.44905 6.29051 5.50315 6.39714 5.60251L17.4371 16.6425V8.25001C17.4371 8.10082 17.4964 7.95775 17.6019 7.85226C17.7074 7.74677 17.8505 7.68751 17.9996 7.68751C18.1488 7.68751 18.2919 7.74677 18.3974 7.85226C18.5029 7.95775 18.5621 8.10082 18.5621 8.25001Z" fill="black"/>
</svg>
