<svg width="24" height="24" viewBox="0 0 24 24" fill="none" xmlns="http://www.w3.org/2000/svg">
<path d="M20.6475 7.89751L16.1475 12.3975C16.0409 12.4969 15.8998 12.551 15.7541 12.5484C15.6084 12.5458 15.4693 12.4868 15.3663 12.3837C15.2632 12.2807 15.2042 12.1416 15.2016 11.9959C15.199 11.8502 15.2531 11.7091 15.3525 11.6025L18.8916 8.06251H7.3125V21C7.3125 21.1492 7.25324 21.2923 7.14775 21.3978C7.04226 21.5032 6.89918 21.5625 6.75 21.5625C6.60082 21.5625 6.45774 21.5032 6.35225 21.3978C6.24676 21.2923 6.1875 21.1492 6.1875 21V7.50001C6.1875 7.35082 6.24676 7.20775 6.35225 7.10226C6.45774 6.99677 6.60082 6.93751 6.75 6.93751H18.8916L15.3525 3.39751C15.2531 3.29088 15.199 3.14984 15.2016 3.00411C15.2042 2.85839 15.2632 2.71935 15.3663 2.61629C15.4693 2.51323 15.6084 2.4542 15.7541 2.45163C15.8998 2.44905 16.0409 2.50315 16.1475 2.60251L20.6475 7.10251C20.7528 7.20798 20.812 7.35094 20.812 7.50001C20.812 7.64907 20.7528 7.79204 20.6475 7.89751Z" fill="black"/>
</svg>
