<svg width="24" height="24" viewBox="0 0 24 24" fill="none" xmlns="http://www.w3.org/2000/svg">
<path d="M21.3975 10.1475L16.8975 14.6475C16.7909 14.7469 16.6498 14.801 16.5041 14.7984C16.3584 14.7958 16.2193 14.7368 16.1163 14.6337C16.0132 14.5307 15.9542 14.3916 15.9516 14.2459C15.949 14.1002 16.0031 13.9591 16.1025 13.8525L19.6416 10.3125H12C9.763 10.315 7.61833 11.2047 6.03653 12.7865C4.45473 14.3683 3.56498 16.513 3.5625 18.75C3.5625 18.8992 3.50324 19.0423 3.39775 19.1478C3.29226 19.2532 3.14918 19.3125 3 19.3125C2.85082 19.3125 2.70774 19.2532 2.60225 19.1478C2.49676 19.0423 2.4375 18.8992 2.4375 18.75C2.44048 16.2148 3.44891 13.7843 5.24158 11.9916C7.03425 10.1989 9.46478 9.19048 12 9.18751H19.6416L16.1025 5.64751C16.0031 5.54088 15.949 5.39984 15.9516 5.25411C15.9542 5.10839 16.0132 4.96935 16.1163 4.86629C16.2193 4.76323 16.3584 4.7042 16.5041 4.70163C16.6498 4.69905 16.7909 4.75315 16.8975 4.85251L21.3975 9.35251C21.5028 9.45798 21.562 9.60094 21.562 9.75001C21.562 9.89907 21.5028 10.042 21.3975 10.1475Z" fill="black"/>
</svg>
