<svg width="24" height="24" viewBox="0 0 24 24" fill="none" xmlns="http://www.w3.org/2000/svg">
<path d="M22.3121 18C22.3121 18.1492 22.2529 18.2923 22.1474 18.3977C22.0419 18.5032 21.8988 18.5625 21.7496 18.5625H8.24964C8.10046 18.5625 7.95738 18.5032 7.85189 18.3977C7.7464 18.2923 7.68714 18.1492 7.68714 18V5.85843L4.14714 9.39749C4.04051 9.49685 3.89947 9.55095 3.75375 9.54838C3.60802 9.5458 3.46898 9.48677 3.36592 9.38371C3.26286 9.28065 3.20383 9.14161 3.20126 8.99588C3.19869 8.85016 3.25278 8.70912 3.35214 8.60249L7.85214 4.10249C7.95761 3.99716 8.10058 3.93799 8.24964 3.93799C8.3987 3.93799 8.54167 3.99716 8.64714 4.10249L13.1471 8.60249C13.2024 8.65399 13.2467 8.71609 13.2775 8.78509C13.3082 8.85409 13.3248 8.92857 13.3261 9.0041C13.3274 9.07963 13.3135 9.15465 13.2852 9.22469C13.2569 9.29473 13.2148 9.35836 13.1614 9.41177C13.108 9.46519 13.0444 9.50729 12.9743 9.53559C12.9043 9.56388 12.8293 9.57777 12.7537 9.57644C12.6782 9.5751 12.6037 9.55857 12.5347 9.52783C12.4657 9.49709 12.4036 9.45276 12.3521 9.39749L8.81214 5.85843V17.4375H21.7496C21.8988 17.4375 22.0419 17.4968 22.1474 17.6022C22.2529 17.7077 22.3121 17.8508 22.3121 18Z" fill="black"/>
</svg>
