<svg width="24" height="24" viewBox="0 0 24 24" fill="none" xmlns="http://www.w3.org/2000/svg">
<path d="M20.813 12C20.813 12.1492 20.7537 12.2923 20.6482 12.3978C20.5427 12.5032 20.3997 12.5625 20.2505 12.5625H5.10892L10.898 18.3525C10.9532 18.404 10.9976 18.4661 11.0283 18.5351C11.0591 18.6041 11.0756 18.6786 11.0769 18.7541C11.0783 18.8296 11.0644 18.9047 11.0361 18.9747C11.0078 19.0447 10.9657 19.1084 10.9123 19.1618C10.8588 19.2152 10.7952 19.2573 10.7252 19.2856C10.6551 19.3139 10.5801 19.3278 10.5046 19.3265C10.4291 19.3251 10.3546 19.3086 10.2856 19.2778C10.2166 19.2471 10.1545 19.2028 10.103 19.1475L3.35298 12.3975C3.24764 12.292 3.18848 12.1491 3.18848 12C3.18848 11.8509 3.24764 11.708 3.35298 11.6025L10.103 4.85251C10.2096 4.75315 10.3506 4.69905 10.4964 4.70163C10.6421 4.7042 10.7811 4.76323 10.8842 4.86629C10.9873 4.96935 11.0463 5.10839 11.0489 5.25411C11.0514 5.39984 10.9973 5.54088 10.898 5.64751L5.10892 11.4375H20.2505C20.3997 11.4375 20.5427 11.4968 20.6482 11.6023C20.7537 11.7077 20.813 11.8508 20.813 12Z" fill="black"/>
</svg>
