<svg width="24" height="24" viewBox="0 0 24 24" fill="none" xmlns="http://www.w3.org/2000/svg">
<path d="M22.3121 6.75C22.3121 6.89918 22.2529 7.04226 22.1474 7.14775C22.0419 7.25324 21.8988 7.3125 21.7496 7.3125H8.81214V18.8916L12.3521 15.3525C12.4588 15.2531 12.5998 15.199 12.7455 15.2016C12.8913 15.2042 13.0303 15.2632 13.1334 15.3663C13.2364 15.4693 13.2955 15.6084 13.298 15.7541C13.3006 15.8998 13.2465 16.0409 13.1471 16.1475L8.64714 20.6475C8.54167 20.7528 8.3987 20.812 8.24964 20.812C8.10058 20.812 7.95761 20.7528 7.85214 20.6475L3.35214 16.1475C3.25278 16.0409 3.19869 15.8998 3.20126 15.7541C3.20383 15.6084 3.26286 15.4693 3.36592 15.3663C3.46898 15.2632 3.60802 15.2042 3.75375 15.2016C3.89947 15.199 4.04051 15.2531 4.14714 15.3525L7.68714 18.8916V6.75C7.68714 6.60082 7.7464 6.45774 7.85189 6.35225C7.95738 6.24676 8.10046 6.1875 8.24964 6.1875H21.7496C21.8988 6.1875 22.0419 6.24676 22.1474 6.35225C22.2529 6.45774 22.3121 6.60082 22.3121 6.75Z" fill="black"/>
</svg>
