<svg width="24" height="24" viewBox="0 0 24 24" fill="none" xmlns="http://www.w3.org/2000/svg">
<path d="M21.398 10.8525L12.398 1.85249C12.2925 1.74716 12.1495 1.68799 12.0005 1.68799C11.8514 1.68799 11.7085 1.74716 11.603 1.85249L2.60298 10.8525C2.52441 10.9312 2.47092 11.0313 2.44926 11.1404C2.42759 11.2494 2.43873 11.3625 2.48127 11.4652C2.5238 11.5679 2.59582 11.6557 2.68823 11.7175C2.78064 11.7794 2.8893 11.8124 3.00048 11.8125H6.93798V19.5C6.93798 19.8481 7.07626 20.1819 7.3224 20.4281C7.56855 20.6742 7.90239 20.8125 8.25048 20.8125H15.7505C16.0986 20.8125 16.4324 20.6742 16.6786 20.4281C16.9247 20.1819 17.063 19.8481 17.063 19.5V11.8125H21.0005C21.1117 11.8124 21.2203 11.7794 21.3127 11.7175C21.4051 11.6557 21.4772 11.5679 21.5197 11.4652C21.5622 11.3625 21.5734 11.2494 21.5517 11.1404C21.53 11.0313 21.4765 10.9312 21.398 10.8525ZM16.5005 10.6875C16.3513 10.6875 16.2082 10.7468 16.1027 10.8522C15.9972 10.9577 15.938 11.1008 15.938 11.25V19.5C15.938 19.5497 15.9182 19.5974 15.8831 19.6326C15.8479 19.6677 15.8002 19.6875 15.7505 19.6875H8.25048C8.20075 19.6875 8.15306 19.6677 8.1179 19.6326C8.08274 19.5974 8.06298 19.5497 8.06298 19.5V11.25C8.06298 11.1008 8.00372 10.9577 7.89823 10.8522C7.79274 10.7468 7.64967 10.6875 7.50048 10.6875H4.35892L12.0005 3.04593L19.642 10.6875H16.5005Z" fill="black"/>
</svg>
