<svg width="24" height="24" viewBox="0 0 24 24" fill="none" xmlns="http://www.w3.org/2000/svg">
<path d="M19.3121 3C19.3121 3.14918 19.2529 3.29226 19.1474 3.39775C19.0419 3.50324 18.8988 3.5625 18.7496 3.5625C16.5126 3.56498 14.368 4.45473 12.7862 6.03653C11.2044 7.61833 10.3146 9.763 10.3121 12V19.6416L13.8521 16.1025C13.9588 16.0031 14.0998 15.949 14.2455 15.9516C14.3913 15.9542 14.5303 16.0132 14.6334 16.1163C14.7364 16.2193 14.7955 16.3584 14.798 16.5041C14.8006 16.6498 14.7465 16.7909 14.6471 16.8975L10.1471 21.3975C10.0417 21.5028 9.8987 21.562 9.74964 21.562C9.60058 21.562 9.45761 21.5028 9.35214 21.3975L4.85214 16.8975C4.75278 16.7909 4.69869 16.6498 4.70126 16.5041C4.70383 16.3584 4.76286 16.2193 4.86592 16.1163C4.96898 16.0132 5.10802 15.9542 5.25375 15.9516C5.39947 15.949 5.54051 16.0031 5.64714 16.1025L9.18714 19.6416V12C9.19012 9.46478 10.1985 7.03425 11.9912 5.24158C13.7839 3.44891 16.2144 2.44048 18.7496 2.4375C18.8988 2.4375 19.0419 2.49676 19.1474 2.60225C19.2529 2.70774 19.3121 2.85082 19.3121 3Z" fill="black"/>
</svg>
