<svg width="24" height="24" viewBox="0 0 24 24" fill="none" xmlns="http://www.w3.org/2000/svg">
<path d="M19.5005 6.93749H11.813V2.99999C11.8129 2.88881 11.7798 2.78016 11.718 2.68774C11.6562 2.59533 11.5684 2.52331 11.4657 2.48078C11.363 2.43825 11.2499 2.42711 11.1409 2.44877C11.0318 2.47043 10.9316 2.52393 10.853 2.60249L1.85298 11.6025C1.74764 11.708 1.68848 11.8509 1.68848 12C1.68848 12.1491 1.74764 12.292 1.85298 12.3975L10.853 21.3975C10.9316 21.4761 11.0318 21.5296 11.1409 21.5512C11.2499 21.5729 11.363 21.5617 11.4657 21.5192C11.5684 21.4767 11.6562 21.4047 11.718 21.3122C11.7798 21.2198 11.8129 21.1112 11.813 21V17.0625H19.5005C19.8486 17.0625 20.1824 16.9242 20.4286 16.6781C20.6747 16.4319 20.813 16.0981 20.813 15.75V8.24999C20.813 7.9019 20.6747 7.56806 20.4286 7.32192C20.1824 7.07577 19.8486 6.93749 19.5005 6.93749ZM19.688 15.75C19.688 15.7997 19.6682 15.8474 19.6331 15.8826C19.5979 15.9177 19.5502 15.9375 19.5005 15.9375H11.2505C11.1013 15.9375 10.9582 15.9968 10.8527 16.1022C10.7472 16.2077 10.688 16.3508 10.688 16.5V19.6416L3.04642 12L10.688 4.35843V7.49999C10.688 7.64918 10.7472 7.79225 10.8527 7.89774C10.9582 8.00323 11.1013 8.06249 11.2505 8.06249H19.5005C19.5502 8.06249 19.5979 8.08225 19.6331 8.11741C19.6682 8.15257 19.688 8.20027 19.688 8.24999V15.75Z" fill="black"/>
</svg>
