<svg width="24" height="24" viewBox="0 0 24 24" fill="none" xmlns="http://www.w3.org/2000/svg">
<path d="M18.563 3V16.5C18.563 16.6492 18.5037 16.7923 18.3982 16.8977C18.2927 17.0032 18.1497 17.0625 18.0005 17.0625H5.85892L9.39798 20.6025C9.45325 20.654 9.49757 20.7161 9.52832 20.7851C9.55906 20.8541 9.57559 20.9286 9.57693 21.0041C9.57826 21.0796 9.56436 21.1547 9.53607 21.2247C9.50778 21.2947 9.46567 21.3584 9.41226 21.4118C9.35885 21.4652 9.29522 21.5073 9.22518 21.5356C9.15514 21.5639 9.08012 21.5778 9.00459 21.5764C8.92906 21.5751 8.85458 21.5586 8.78558 21.5278C8.71658 21.4971 8.65448 21.4528 8.60298 21.3975L4.10298 16.8975C3.99764 16.792 3.93848 16.6491 3.93848 16.5C3.93848 16.3509 3.99764 16.208 4.10298 16.1025L8.60298 11.6025C8.65448 11.5472 8.71658 11.5029 8.78558 11.4722C8.85458 11.4414 8.92906 11.4249 9.00459 11.4236C9.08012 11.4222 9.15514 11.4361 9.22518 11.4644C9.29522 11.4927 9.35885 11.5348 9.41226 11.5882C9.46567 11.6416 9.50778 11.7053 9.53607 11.7753C9.56436 11.8453 9.57826 11.9204 9.57693 11.9959C9.57559 12.0714 9.55906 12.1459 9.52832 12.2149C9.49757 12.2839 9.45325 12.346 9.39798 12.3975L5.85892 15.9375H17.438V3C17.438 2.85082 17.4972 2.70774 17.6027 2.60225C17.7082 2.49676 17.8513 2.4375 18.0005 2.4375C18.1497 2.4375 18.2927 2.49676 18.3982 2.60225C18.5037 2.70774 18.563 2.85082 18.563 3Z" fill="black"/>
</svg>
