<svg width="24" height="24" viewBox="0 0 24 24" fill="none" xmlns="http://www.w3.org/2000/svg">
<path d="M23.0623 12C23.0622 13.0012 22.7652 13.9798 22.2089 14.8122C21.6526 15.6446 20.862 16.2934 19.937 16.6765C19.0121 17.0596 17.9943 17.1599 17.0124 16.9646C16.0304 16.7693 15.1284 16.2873 14.4204 15.5794C14.4122 15.5717 14.4043 15.5636 14.397 15.555L8.772 9.2044C8.22005 8.65697 7.5184 8.28516 6.75549 8.13584C5.99258 7.98653 5.20253 8.06638 4.48493 8.36535C3.76733 8.66431 3.15428 9.16901 2.72305 9.81583C2.29182 10.4626 2.0617 11.2226 2.0617 12C2.0617 12.7774 2.29182 13.5374 2.72305 14.1842C3.15428 14.831 3.76733 15.3357 4.48493 15.6347C5.20253 15.9337 5.99258 16.0135 6.75549 15.8642C7.5184 15.7149 8.22005 15.3431 8.772 14.7957L9.57543 13.8891C9.62468 13.8337 9.68435 13.7885 9.75105 13.7562C9.81775 13.7239 9.89017 13.705 9.96416 13.7006C10.0382 13.6963 10.1123 13.7065 10.1823 13.7308C10.2523 13.7551 10.3169 13.793 10.3723 13.8422C10.4277 13.8915 10.4729 13.9511 10.5052 14.0178C10.5375 14.0845 10.5564 14.1569 10.5608 14.2309C10.5651 14.3049 10.5549 14.3791 10.5306 14.4491C10.5063 14.5191 10.4684 14.5837 10.4192 14.6391L9.6045 15.5588C9.59717 15.5674 9.58934 15.5755 9.58106 15.5832C8.87309 16.2913 7.97104 16.7735 6.98899 16.9689C6.00693 17.1644 4.98898 17.0642 4.06387 16.681C3.13876 16.2979 2.34805 15.649 1.79173 14.8165C1.23541 13.9839 0.938477 13.0051 0.938477 12.0038C0.938477 11.0025 1.23541 10.0236 1.79173 9.1911C2.34805 8.35856 3.13876 7.70968 4.06387 7.32654C4.98898 6.9434 6.00693 6.84321 6.98899 7.03863C7.97104 7.23404 8.87309 7.7163 9.58106 8.4244C9.58934 8.43206 9.59717 8.4402 9.6045 8.44878L15.2295 14.7994C15.7814 15.3468 16.4831 15.7186 17.246 15.868C18.0089 16.0173 18.799 15.9374 19.5166 15.6385C20.2342 15.3395 20.8472 14.8348 21.2784 14.188C21.7097 13.5412 21.9398 12.7812 21.9398 12.0038C21.9398 11.2264 21.7097 10.4664 21.2784 9.81958C20.8472 9.17276 20.2342 8.66806 19.5166 8.3691C18.799 8.07013 18.0089 7.99028 17.246 8.13959C16.4831 8.28891 15.7814 8.66072 15.2295 9.20815L14.4261 10.1147C14.3768 10.1701 14.3171 10.2153 14.2504 10.2476C14.1837 10.28 14.1113 10.2988 14.0373 10.3032C13.9633 10.3075 13.8892 10.2973 13.8192 10.273C13.7491 10.2487 13.6846 10.2108 13.6292 10.1616C13.5738 10.1123 13.5286 10.0527 13.4963 9.98597C13.4639 9.91927 13.4451 9.84686 13.4407 9.77286C13.4364 9.69886 13.4466 9.62474 13.4709 9.55471C13.4952 9.48468 13.5331 9.42012 13.5823 9.36472L14.397 8.44503C14.4043 8.43645 14.4122 8.42831 14.4204 8.42065C15.1284 7.71279 16.0304 7.23075 17.0124 7.03547C17.9943 6.84019 19.0121 6.94044 19.937 7.32355C20.862 7.70667 21.6526 8.35543 22.2089 9.18782C22.7652 10.0202 23.0622 10.9989 23.0623 12Z" fill="black"/>
</svg>
