<svg width="24" height="24" viewBox="0 0 24 24" fill="none" xmlns="http://www.w3.org/2000/svg">
<path d="M16.21 7.78958C15.988 6.46504 15.4055 5.22722 14.5264 4.21187C13.6473 3.19653 12.5056 2.4429 11.2265 2.03362C9.94736 1.62434 8.58022 1.57523 7.27503 1.89169C5.96983 2.20814 4.77698 2.87792 3.82733 3.82757C2.87767 4.77723 2.20789 5.97007 1.89144 7.27527C1.57499 8.58047 1.6241 9.94761 2.03337 11.2267C2.44265 12.5059 3.19629 13.6476 4.21163 14.5267C5.22697 15.4057 6.46479 15.9882 7.78933 16.2102C8.01133 17.5347 8.5938 18.7726 9.47288 19.7879C10.3519 20.8032 11.4937 21.5569 12.7728 21.9662C14.0519 22.3754 15.4191 22.4245 16.7243 22.1081C18.0295 21.7916 19.2223 21.1219 20.172 20.1722C21.1216 19.2226 21.7914 18.0297 22.1079 16.7245C22.4243 15.4193 22.3752 14.0522 21.9659 12.773C21.5566 11.4939 20.803 10.3522 19.7877 9.47312C18.7723 8.59405 17.5345 8.01157 16.21 7.78958ZM2.81215 8.99989C2.813 7.47375 3.37785 6.00176 4.39813 4.86679C5.41841 3.73183 6.82215 3.01397 8.33959 2.85117C9.85703 2.68837 11.3811 3.09211 12.6189 3.9848C13.8568 4.8775 14.721 6.19616 15.0456 7.68739H14.9996C13.0609 7.68962 11.2023 8.46076 9.83139 9.83164C8.46052 11.2025 7.68938 13.0612 7.68715 14.9999C7.68715 15.0158 7.68715 15.0308 7.68715 15.0458C6.3072 14.7445 5.07158 13.9809 4.18499 12.8813C3.2984 11.7818 2.81404 10.4123 2.81215 8.99989ZM8.81215 14.9999C8.8111 14.1103 9.00301 13.231 9.37465 12.4227L11.5768 14.6249C10.7685 14.9965 9.88928 15.1884 8.99965 15.1874C8.93871 15.1874 8.87777 15.1874 8.81215 15.1827C8.81215 15.1218 8.81215 15.0608 8.81215 14.9999ZM12.5837 14.039L9.95871 11.414C10.3597 10.8517 10.8514 10.36 11.4137 9.95895L14.0387 12.584C13.6377 13.1462 13.146 13.6379 12.5837 14.039ZM15.1871 8.99989C15.1882 9.88952 14.9963 10.7688 14.6246 11.5771L12.4225 9.37489C13.2307 9.00325 14.11 8.81134 14.9996 8.81239C15.0606 8.81239 15.1215 8.81239 15.1825 8.81239C15.1871 8.87802 15.1871 8.93895 15.1871 8.99989ZM14.9996 21.1874C13.5872 21.1855 12.2178 20.7011 11.1182 19.8145C10.0187 18.928 9.255 17.6923 8.95371 16.3124H8.99965C10.9384 16.3102 12.797 15.539 14.1679 14.1681C15.5388 12.7973 16.3099 10.9386 16.3121 8.99989C16.3121 8.98395 16.3121 8.96895 16.3121 8.95395C17.8034 9.27854 19.122 10.1428 20.0147 11.3806C20.9074 12.6184 21.3112 14.1425 21.1484 15.6599C20.9856 17.1774 20.2677 18.5811 19.1327 19.6014C17.9978 20.6217 16.5258 21.1865 14.9996 21.1874Z" fill="black"/>
</svg>
