<svg width="24" height="24" viewBox="0 0 24 24" fill="none" xmlns="http://www.w3.org/2000/svg">
<path d="M18.1669 9.10594C18.1791 8.9475 18.1875 8.78719 18.1875 8.625C18.1875 6.98397 17.5356 5.41016 16.3752 4.24978C15.2149 3.0894 13.6411 2.4375 12 2.4375C10.359 2.4375 8.78518 3.0894 7.6248 4.24978C6.46442 5.41016 5.81253 6.98397 5.81253 8.625C5.81253 8.78719 5.82096 8.9475 5.83315 9.10594C5.07559 9.4811 4.40295 10.0075 3.85672 10.6527C3.31049 11.2979 2.90227 12.0482 2.65723 12.8573C2.4122 13.6663 2.33555 14.517 2.43203 15.3569C2.5285 16.1967 2.79605 17.0079 3.21816 17.7403C3.64027 18.4727 4.20799 19.1109 4.88629 19.6154C5.56458 20.12 6.33907 20.4802 7.16197 20.6738C7.98486 20.8674 8.8387 20.8903 9.6708 20.7412C10.5029 20.592 11.2956 20.2739 12 19.8066C12.7044 20.2739 13.4971 20.592 14.3292 20.7412C15.1614 20.8903 16.0152 20.8674 16.8381 20.6738C17.661 20.4802 18.4355 20.12 19.1138 19.6154C19.7921 19.1109 20.3598 18.4727 20.7819 17.7403C21.204 17.0079 21.4715 16.1967 21.568 15.3569C21.6645 14.517 21.5879 13.6663 21.3428 12.8573C21.0978 12.0482 20.6896 11.2979 20.1433 10.6527C19.5971 10.0075 18.9245 9.4811 18.1669 9.10594ZM6.93752 8.625C6.93752 7.28234 7.47089 5.99467 8.4203 5.04527C9.3697 4.09587 10.6574 3.5625 12 3.5625C13.3427 3.5625 14.6303 4.09587 15.5798 5.04527C16.5292 5.99467 17.0625 7.28234 17.0625 8.625C17.0625 8.64094 17.0625 8.65687 17.0625 8.67281C16.2128 8.43094 15.3209 8.37458 14.4475 8.50754C13.574 8.6405 12.7393 8.95968 12 9.44344C11.2607 8.95968 10.426 8.6405 9.55259 8.50754C8.67913 8.37458 7.78729 8.43094 6.93752 8.67281C6.93752 8.65687 6.93752 8.64094 6.93752 8.625ZM13.6875 14.625C13.6877 15.3368 13.5375 16.0405 13.2467 16.6902C12.9558 17.3398 12.531 17.9207 12 18.3947C11.469 17.9207 11.0442 17.3398 10.7534 16.6902C10.4626 16.0405 10.3123 15.3368 10.3125 14.625C10.3125 14.6091 10.3125 14.5931 10.3125 14.5772C11.4156 14.8913 12.5844 14.8913 13.6875 14.5772C13.6875 14.5931 13.6875 14.6091 13.6875 14.625ZM12 13.6875C11.4749 13.6879 10.9529 13.6059 10.4531 13.4447C10.6942 12.4446 11.2337 11.5416 12 10.8553C12.7664 11.5416 13.3058 12.4446 13.5469 13.4447C13.0471 13.6059 12.5252 13.6879 12 13.6875ZM9.41252 12.9741C8.83205 12.6279 8.32655 12.1693 7.92569 11.6252C7.52484 11.081 7.23668 10.4623 7.07815 9.80531C7.73353 9.59464 8.42506 9.52022 9.11026 9.58665C9.79545 9.65307 10.4598 9.85893 11.0625 10.1916C10.2758 10.9566 9.70642 11.9168 9.41252 12.9741ZM12.9375 10.1916C13.5406 9.85854 14.2055 9.65247 14.8912 9.58604C15.5769 9.51962 16.2689 9.59424 16.9247 9.80531C16.7662 10.4623 16.478 11.081 16.0772 11.6252C15.6763 12.1693 15.1708 12.6279 14.5903 12.9741C14.2956 11.9165 13.7252 10.9563 12.9375 10.1916ZM8.62502 19.6875C7.51687 19.6867 6.43959 19.3223 5.55849 18.6502C4.6774 17.9781 4.04115 17.0355 3.74739 15.967C3.45363 14.8985 3.51857 13.7631 3.93227 12.7351C4.34596 11.7071 5.08554 10.8431 6.03753 10.2759C6.26924 11.1051 6.67073 11.8772 7.21654 12.543C7.76234 13.2089 8.44054 13.7541 9.20815 14.1441C9.19596 14.3025 9.18752 14.4628 9.18752 14.625C9.18695 15.4519 9.35264 16.2705 9.67474 17.0322C9.99685 17.7938 10.4688 18.4829 11.0625 19.0584C10.3165 19.4714 9.47772 19.6879 8.62502 19.6875ZM15.375 19.6875C14.5223 19.6879 13.6836 19.4714 12.9375 19.0584C13.5313 18.4829 14.0032 17.7938 14.3253 17.0322C14.6474 16.2705 14.8131 15.4519 14.8125 14.625C14.8125 14.4628 14.8041 14.3025 14.7919 14.1441C15.5595 13.7541 16.2377 13.2089 16.7835 12.543C17.3293 11.8772 17.7308 11.1051 17.9625 10.2759C18.9145 10.8431 19.6541 11.7071 20.0678 12.7351C20.4815 13.7631 20.5464 14.8985 20.2527 15.967C19.9589 17.0355 19.3227 17.9781 18.4416 18.6502C17.5605 19.3223 16.4832 19.6867 15.375 19.6875Z" fill="black"/>
</svg>
