<svg width="24" height="24" viewBox="0 0 24 24" fill="none" xmlns="http://www.w3.org/2000/svg">
<path d="M22.1901 21.3515C22.144 21.4093 22.0869 21.4574 22.0222 21.4931C21.9574 21.5288 21.8863 21.5514 21.8128 21.5596C21.7393 21.5678 21.6649 21.5614 21.5939 21.5408C21.5229 21.5202 21.4566 21.4858 21.3989 21.4396C21.3633 21.4105 17.7192 18.5624 12.0005 18.5624C6.2639 18.5624 2.63765 21.4105 2.60202 21.4396C2.48541 21.5328 2.33653 21.5759 2.18815 21.5594C2.03976 21.5429 1.90401 21.4681 1.81077 21.3515C1.71753 21.2349 1.67443 21.086 1.69096 20.9376C1.70749 20.7892 1.78228 20.6535 1.8989 20.5602C2.05171 20.4384 5.55515 17.6868 11.2355 17.4534C10.9063 16.2438 10.7846 14.9873 10.8755 13.7371C11.0405 11.668 11.9433 8.88554 15.1692 6.85304C14.5131 6.65153 13.8296 6.55348 13.1433 6.56242C11.2926 6.62242 10.0823 7.73992 9.54608 9.88398C9.51611 10.0061 9.44609 10.1147 9.34718 10.1923C9.24828 10.27 9.12621 10.3123 9.00046 10.3124C8.95432 10.3123 8.90837 10.3066 8.86358 10.2955C8.79193 10.2776 8.72452 10.2457 8.66519 10.2016C8.60587 10.1576 8.5558 10.1023 8.51785 10.039C8.47989 9.97558 8.45479 9.90534 8.44398 9.83227C8.43317 9.75919 8.43686 9.6847 8.45483 9.61304C9.2939 6.26242 11.4473 5.49461 13.1076 5.44117C13.9217 5.42754 14.7328 5.54174 15.5114 5.77961C15.1458 5.06242 14.5317 4.18961 13.5942 3.78836C12.6051 3.36554 11.4042 3.54273 10.0233 4.31242C9.95863 4.35226 9.8866 4.37861 9.8115 4.38986C9.73641 4.40112 9.65981 4.39706 9.58633 4.37792C9.51285 4.35878 9.44401 4.32496 9.38395 4.2785C9.32389 4.23204 9.27385 4.1739 9.23687 4.10759C9.19988 4.04128 9.1767 3.96816 9.16872 3.89265C9.16075 3.81713 9.16815 3.74079 9.19047 3.66821C9.21279 3.59563 9.24958 3.52833 9.29861 3.47035C9.34764 3.41237 9.40791 3.36492 9.47577 3.33086C11.1792 2.38023 12.7158 2.18711 14.0423 2.75711C15.3005 3.29711 16.0833 4.41086 16.5333 5.30336C16.9692 4.54117 17.6714 3.66179 18.6989 3.32711C19.7489 2.98492 20.8898 3.27086 22.0889 4.17742C22.2079 4.26743 22.2862 4.40101 22.3067 4.54878C22.3272 4.69656 22.2881 4.84641 22.1981 4.96539C22.1081 5.08436 21.9745 5.16271 21.8267 5.18319C21.679 5.20367 21.5291 5.16461 21.4101 5.07461C20.5233 4.40429 19.7292 4.17554 19.0505 4.39586C18.1786 4.67711 17.602 5.62117 17.2973 6.27086C18.0382 6.39358 18.752 6.64453 19.4067 7.01242C20.7333 7.77086 22.313 9.38148 22.313 12.7509C22.313 12.9 22.2537 13.0431 22.1482 13.1486C22.0427 13.2541 21.8996 13.3134 21.7505 13.3134C21.6013 13.3134 21.4582 13.2541 21.3527 13.1486C21.2472 13.0431 21.188 12.9 21.188 12.7509C21.188 9.19586 19.2005 7.96961 17.813 7.53929C18.4412 8.56179 18.6863 9.77397 18.5048 10.9602C18.3922 11.7139 18.1202 12.4349 17.707 13.0752C17.6211 13.1973 17.4902 13.2803 17.3432 13.3059C17.1961 13.3314 17.0449 13.2975 16.9228 13.2116C16.8007 13.1257 16.7178 12.9948 16.6922 12.8478C16.6666 12.7007 16.7005 12.5495 16.7864 12.4274C16.8595 12.3224 18.4561 9.95523 16.3748 7.45304C13.7058 8.90617 12.2348 11.0334 12.0005 13.7859C11.9076 15.019 12.0443 16.2588 12.4036 17.4421C18.293 17.5687 21.9445 20.4346 22.1001 20.5593C22.1582 20.6053 22.2066 20.6623 22.2426 20.7271C22.2786 20.7918 22.3014 20.8631 22.3097 20.9367C22.3181 21.0103 22.3118 21.0848 22.2913 21.156C22.2708 21.2272 22.2364 21.2936 22.1901 21.3515ZM2.43796 13.1249C2.43796 12.6428 2.58092 12.1716 2.84875 11.7707C3.11659 11.3699 3.49727 11.0575 3.94267 10.873C4.38806 10.6885 4.87816 10.6402 5.35099 10.7343C5.82382 10.8283 6.25814 11.0605 6.59903 11.4013C6.93992 11.7422 7.17207 12.1766 7.26612 12.6494C7.36018 13.1222 7.3119 13.6123 7.12742 14.0577C6.94293 14.5031 6.63051 14.8838 6.22966 15.1516C5.82882 15.4195 5.35755 15.5624 4.87546 15.5624C4.22899 15.5624 3.60901 15.3056 3.15189 14.8485C2.69477 14.3914 2.43796 13.7714 2.43796 13.1249ZM3.56296 13.1249C3.56296 13.3845 3.63994 13.6383 3.78416 13.8541C3.92837 14.0699 4.13336 14.2382 4.37319 14.3375C4.61302 14.4369 4.87692 14.4628 5.13152 14.4122C5.38612 14.3616 5.61998 14.2366 5.80354 14.053C5.98709 13.8694 6.1121 13.6356 6.16274 13.381C6.21338 13.1264 6.18739 12.8625 6.08805 12.6226C5.98871 12.3828 5.82048 12.1778 5.60465 12.0336C5.38881 11.8894 5.13505 11.8124 4.87546 11.8124C4.52736 11.8124 4.19352 11.9507 3.94738 12.1968C3.70124 12.443 3.56296 12.7768 3.56296 13.1249Z" fill="black"/>
</svg>
