<svg width="24" height="24" viewBox="0 0 24 24" fill="none" xmlns="http://www.w3.org/2000/svg">
<path d="M19.5 13.6876H12.5625V8.76757C13.4473 8.6261 14.2462 8.15643 14.8001 7.45217C15.3541 6.74792 15.6223 5.8608 15.5513 4.96762C15.4804 4.07444 15.0754 3.2408 14.4173 2.63284C13.7591 2.02488 12.896 1.68726 12 1.68726C11.104 1.68726 10.2409 2.02488 9.58274 2.63284C8.92457 3.2408 8.51965 4.07444 8.44869 4.96762C8.37773 5.8608 8.64594 6.74792 9.19986 7.45217C9.75379 8.15643 10.5527 8.6261 11.4375 8.76757V13.6876H4.5C4.1519 13.6876 3.81806 13.8258 3.57192 14.072C3.32578 14.3181 3.1875 14.652 3.1875 15.0001V19.5001C3.1875 19.8482 3.32578 20.182 3.57192 20.4281C3.81806 20.6743 4.1519 20.8126 4.5 20.8126H19.5C19.8481 20.8126 20.1819 20.6743 20.4281 20.4281C20.6742 20.182 20.8125 19.8482 20.8125 19.5001V15.0001C20.8125 14.652 20.6742 14.3181 20.4281 14.072C20.1819 13.8258 19.8481 13.6876 19.5 13.6876ZM9.5625 5.25007C9.5625 4.76798 9.70546 4.29671 9.97329 3.89587C10.2411 3.49502 10.6218 3.1826 11.0672 2.99811C11.5126 2.81362 12.0027 2.76535 12.4755 2.8594C12.9484 2.95346 13.3827 3.1856 13.7236 3.52649C14.0645 3.86739 14.2966 4.30171 14.3907 4.77454C14.4847 5.24736 14.4364 5.73746 14.252 6.18286C14.0675 6.62825 13.755 7.00894 13.3542 7.27678C12.9534 7.54461 12.4821 7.68757 12 7.68757C11.3535 7.68757 10.7335 7.43076 10.2764 6.97364C9.81931 6.51652 9.5625 5.89653 9.5625 5.25007ZM19.6875 19.5001C19.6875 19.5498 19.6677 19.5975 19.6326 19.6327C19.5974 19.6678 19.5497 19.6876 19.5 19.6876H4.5C4.45027 19.6876 4.40258 19.6678 4.36742 19.6327C4.33225 19.5975 4.3125 19.5498 4.3125 19.5001V15.0001C4.3125 14.9503 4.33225 14.9026 4.36742 14.8675C4.40258 14.8323 4.45027 14.8126 4.5 14.8126H19.5C19.5497 14.8126 19.5974 14.8323 19.6326 14.8675C19.6677 14.9026 19.6875 14.9503 19.6875 15.0001V19.5001ZM15.75 10.6876H18.75C18.8992 10.6876 19.0423 10.7468 19.1477 10.8523C19.2532 10.9578 19.3125 11.1009 19.3125 11.2501C19.3125 11.3993 19.2532 11.5423 19.1477 11.6478C19.0423 11.7533 18.8992 11.8126 18.75 11.8126H15.75C15.6008 11.8126 15.4577 11.7533 15.3523 11.6478C15.2468 11.5423 15.1875 11.3993 15.1875 11.2501C15.1875 11.1009 15.2468 10.9578 15.3523 10.8523C15.4577 10.7468 15.6008 10.6876 15.75 10.6876Z" fill="black"/>
</svg>
