<svg width="24" height="24" viewBox="0 0 24 24" fill="none" xmlns="http://www.w3.org/2000/svg">
<path d="M21.6055 3.14521C21.1518 2.69174 20.5365 2.43701 19.895 2.43701C19.2536 2.43701 18.6383 2.69174 18.1846 3.14521L1.85239 19.483C1.78137 19.554 1.73063 19.6427 1.70546 19.7399C1.68029 19.8371 1.6816 19.9393 1.70924 20.0358C1.73689 20.1323 1.78987 20.2197 1.86269 20.2888C1.9355 20.358 2.0255 20.4064 2.12333 20.429C3.22209 20.6832 4.34616 20.8118 5.47395 20.8124C8.52739 20.8124 11.5836 19.8655 14.4618 18.0083C17.414 16.1033 19.123 13.9405 19.1943 13.8496C19.2788 13.7413 19.3209 13.6058 19.3124 13.4687C19.3039 13.3316 19.2456 13.2023 19.1483 13.1052L17.1083 11.0624L21.6083 6.5624C22.0591 6.10784 22.3119 5.49342 22.3113 4.85323C22.3108 4.21303 22.0571 3.59903 21.6055 3.14521ZM17.9868 13.5346C16.7692 14.887 15.3788 16.0732 13.8515 17.0624C10.453 19.2562 6.93739 20.084 3.39645 19.5299L13.6874 9.23428L17.9868 13.5346ZM20.8124 5.77115L16.3124 10.2712L14.4833 8.4374L18.9833 3.9374C19.2265 3.69485 19.5561 3.55884 19.8995 3.55928C20.243 3.55972 20.5722 3.69657 20.8147 3.93974C21.0573 4.18292 21.1933 4.51248 21.1929 4.85593C21.1924 5.19939 21.0556 5.5286 20.8124 5.77115Z" fill="black"/>
</svg>
