<svg width="24" height="24" viewBox="0 0 24 24" fill="none" xmlns="http://www.w3.org/2000/svg">
<path d="M20.0288 20.0625L15.2232 6.84375L16.1438 4.3125H17.2501C17.3992 4.3125 17.5423 4.25324 17.6478 4.14775C17.7533 4.04226 17.8126 3.89918 17.8126 3.75C17.8126 3.60082 17.7533 3.45774 17.6478 3.35225C17.5423 3.24676 17.3992 3.1875 17.2501 3.1875H8.25005C8.10087 3.1875 7.9578 3.24676 7.85231 3.35225C7.74682 3.45774 7.68755 3.60082 7.68755 3.75C7.68755 3.89918 7.74682 4.04226 7.85231 4.14775C7.9578 4.25324 8.10087 4.3125 8.25005 4.3125H8.94662L3.2213 20.0625C3.17199 20.2028 3.1802 20.3568 3.24414 20.491C3.30809 20.6252 3.42257 20.7287 3.56255 20.7787C3.62275 20.8003 3.68612 20.8117 3.75005 20.8125C3.86554 20.8125 3.97824 20.777 4.07284 20.7107C4.16743 20.6445 4.23935 20.5507 4.2788 20.4422L5.23505 17.8125H10.0379L9.2213 20.0625C9.19605 20.1319 9.18473 20.2057 9.18798 20.2795C9.19123 20.3533 9.20898 20.4257 9.24024 20.4927C9.27149 20.5596 9.31563 20.6198 9.37013 20.6697C9.42463 20.7195 9.48842 20.7582 9.55787 20.7834C9.61806 20.805 9.68143 20.8164 9.74537 20.8172C9.86086 20.8172 9.97355 20.7817 10.0681 20.7154C10.1627 20.6492 10.2347 20.5554 10.2741 20.4469L12.0535 15.5625H17.1966L18.9713 20.4422C19.0108 20.5507 19.0827 20.6445 19.1773 20.7107C19.2719 20.777 19.3846 20.8125 19.5001 20.8125C19.5656 20.8123 19.6306 20.8008 19.6922 20.7787C19.8314 20.7278 19.9448 20.6239 20.0078 20.4898C20.0708 20.3557 20.0784 20.2021 20.0288 20.0625ZM12.0835 12.1875H7.28068L8.50787 8.8125H13.3126L12.0835 12.1875ZM14.9466 4.3125L13.7194 7.6875H8.91662L10.1438 4.3125H14.9466ZM5.6438 16.6875L6.87099 13.3125H11.6738L10.4466 16.6875H5.6438ZM12.4622 14.4375L14.6251 8.49L16.7879 14.4375H12.4622Z" fill="black"/>
</svg>
