<svg width="24" height="24" viewBox="0 0 24 24" fill="none" xmlns="http://www.w3.org/2000/svg">
<path d="M23.0169 14.0287L18.5169 3.52875C18.4737 3.42758 18.4016 3.34132 18.3098 3.28066C18.218 3.22001 18.1104 3.18762 18.0004 3.1875H6.00038C5.89034 3.18762 5.78274 3.22001 5.69093 3.28066C5.59911 3.34132 5.5271 3.42758 5.48382 3.52875L0.983817 14.0287C0.947235 14.1143 0.932426 14.2075 0.940715 14.3001C0.949004 14.3928 0.980132 14.4819 1.03131 14.5596C1.08249 14.6372 1.15213 14.701 1.23399 14.7451C1.31585 14.7892 1.40738 14.8124 1.50038 14.8125H11.4379V19.6875H9.00038C8.85119 19.6875 8.70812 19.7468 8.60263 19.8523C8.49714 19.9577 8.43788 20.1008 8.43788 20.25C8.43788 20.3992 8.49714 20.5423 8.60263 20.6477C8.70812 20.7532 8.85119 20.8125 9.00038 20.8125H15.0004C15.1496 20.8125 15.2926 20.7532 15.3981 20.6477C15.5036 20.5423 15.5629 20.3992 15.5629 20.25C15.5629 20.1008 15.5036 19.9577 15.3981 19.8523C15.2926 19.7468 15.1496 19.6875 15.0004 19.6875H12.5629V14.8125H18.1879V18C18.1879 18.1492 18.2471 18.2923 18.3526 18.3977C18.4581 18.5032 18.6012 18.5625 18.7504 18.5625C18.8996 18.5625 19.0426 18.5032 19.1481 18.3977C19.2536 18.2923 19.3129 18.1492 19.3129 18V14.8125H22.5004C22.5934 14.8124 22.6849 14.7892 22.7668 14.7451C22.8486 14.701 22.9183 14.6372 22.9694 14.5596C23.0206 14.4819 23.0518 14.3928 23.06 14.3001C23.0683 14.2075 23.0535 14.1143 23.0169 14.0287ZM2.3535 13.6875L6.37538 4.3125H17.6254L21.6473 13.6875H2.3535Z" fill="black"/>
</svg>
