<svg width="24" height="24" viewBox="0 0 24 24" fill="none" xmlns="http://www.w3.org/2000/svg">
<path d="M3.9375 9.75002C3.93753 9.63491 3.97287 9.52259 4.03876 9.4282C4.10464 9.33382 4.1979 9.26192 4.30594 9.22221L18.5559 3.97221C18.6252 3.94666 18.6989 3.93502 18.7727 3.93794C18.8465 3.94086 18.9191 3.9583 18.9861 3.98925C19.0532 4.02019 19.1135 4.06405 19.1637 4.11831C19.2138 4.17257 19.2527 4.23618 19.2783 4.30549C19.3038 4.3748 19.3155 4.44847 19.3125 4.52228C19.3096 4.59609 19.2922 4.66861 19.2612 4.73569C19.2303 4.80276 19.1864 4.86308 19.1322 4.91321C19.0779 4.96334 19.0143 5.00229 18.945 5.02783L6.1275 9.75002L18.9441 14.4722C19.0679 14.5178 19.1718 14.6056 19.2375 14.7201C19.3032 14.8346 19.3265 14.9686 19.3034 15.0986C19.2803 15.2286 19.2121 15.3463 19.111 15.4311C19.0098 15.5159 18.882 15.5624 18.75 15.5625C18.6835 15.5624 18.6175 15.5507 18.555 15.5278L4.305 10.2778C4.19714 10.238 4.10408 10.166 4.03837 10.0716C3.97267 9.97726 3.93746 9.86501 3.9375 9.75002ZM18.75 18.1875H4.5C4.35082 18.1875 4.20774 18.2468 4.10225 18.3523C3.99676 18.4578 3.9375 18.6008 3.9375 18.75C3.9375 18.8992 3.99676 19.0423 4.10225 19.1478C4.20774 19.2533 4.35082 19.3125 4.5 19.3125H18.75C18.8992 19.3125 19.0423 19.2533 19.1477 19.1478C19.2532 19.0423 19.3125 18.8992 19.3125 18.75C19.3125 18.6008 19.2532 18.4578 19.1477 18.3523C19.0423 18.2468 18.8992 18.1875 18.75 18.1875Z" fill="black"/>
</svg>
