<svg width="24" height="24" viewBox="0 0 24 24" fill="none" xmlns="http://www.w3.org/2000/svg">
<path d="M19.2577 18.9908C19.2261 19.0576 19.1816 19.1176 19.1267 19.1672C19.0719 19.2168 19.0078 19.2551 18.9381 19.2799C18.8685 19.3047 18.7946 19.3156 18.7208 19.3118C18.6469 19.3081 18.5745 19.2898 18.5077 19.258L4.25774 12.508C4.16162 12.4624 4.08042 12.3904 4.02356 12.3005C3.9667 12.2105 3.93652 12.1063 3.93652 11.9999C3.93652 11.8935 3.9667 11.7892 4.02356 11.6993C4.08042 11.6094 4.16162 11.5374 4.25774 11.4918L18.5077 4.74175C18.6419 4.68183 18.7943 4.67681 18.9321 4.72775C19.07 4.7787 19.1824 4.88158 19.2454 5.01437C19.3083 5.14716 19.3168 5.29932 19.269 5.4383C19.2212 5.57728 19.1209 5.69203 18.9896 5.758L5.81212 11.9999L18.9887 18.2418C19.0556 18.2732 19.1156 18.3176 19.1653 18.3723C19.215 18.427 19.2535 18.4909 19.2785 18.5605C19.3035 18.6301 19.3145 18.7039 19.3109 18.7777C19.3074 18.8516 19.2893 18.924 19.2577 18.9908Z" fill="black"/>
</svg>
