<svg width="24" height="24" viewBox="0 0 24 24" fill="none" xmlns="http://www.w3.org/2000/svg">
<path d="M16.3126 21.7499C16.3126 21.8991 16.2534 22.0422 16.1479 22.1476C16.0424 22.2531 15.8993 22.3124 15.7501 22.3124H8.25013C8.10094 22.3124 7.95787 22.2531 7.85238 22.1476C7.74689 22.0422 7.68763 21.8991 7.68763 21.7499C7.68763 21.6007 7.74689 21.4576 7.85238 21.3521C7.95787 21.2467 8.10094 21.1874 8.25013 21.1874H15.7501C15.8993 21.1874 16.0424 21.2467 16.1479 21.3521C16.2534 21.4576 16.3126 21.6007 16.3126 21.7499ZM20.0626 9.7499C20.0658 10.9719 19.7897 12.1784 19.2555 13.2774C18.7213 14.3764 17.943 15.3388 16.9801 16.0911C16.7736 16.2499 16.6062 16.4537 16.4905 16.687C16.3748 16.9203 16.314 17.177 16.3126 17.4374V17.9999C16.3126 18.348 16.1743 18.6818 15.9282 18.928C15.6821 19.1741 15.3482 19.3124 15.0001 19.3124H9.00013C8.65203 19.3124 8.31819 19.1741 8.07205 18.928C7.82591 18.6818 7.68763 18.348 7.68763 17.9999V17.4374C7.68737 17.1797 7.62809 16.9254 7.51434 16.6942C7.40058 16.4629 7.23537 16.2608 7.03138 16.1033C6.07158 15.3559 5.29431 14.3999 4.75833 13.3078C4.22236 12.2158 3.94171 11.0161 3.93763 9.79958C3.91325 5.42896 7.44294 1.79239 11.8061 1.68739C12.8811 1.66151 13.9504 1.85093 14.9511 2.24451C15.9518 2.63808 16.8636 3.22786 17.633 3.97912C18.4023 4.73039 19.0136 5.62796 19.4309 6.61902C19.8481 7.61007 20.0629 8.67458 20.0626 9.7499ZM18.9376 9.7499C18.9379 8.82455 18.753 7.90851 18.394 7.05569C18.0349 6.20286 17.5088 5.43049 16.8467 4.78404C16.1846 4.1376 15.3999 3.63013 14.5387 3.29152C13.6776 2.95292 12.7574 2.79001 11.8323 2.81239C8.07856 2.90614 5.042 6.03177 5.06263 9.78927C5.06618 10.8362 5.30771 11.8687 5.76897 12.8086C6.23023 13.7485 6.89914 14.5712 7.72513 15.2146C8.0643 15.4773 8.33871 15.8142 8.52724 16.1996C8.71578 16.5849 8.81341 17.0084 8.81263 17.4374V17.9999C8.81263 18.0496 8.83238 18.0973 8.86754 18.1325C8.90271 18.1676 8.9504 18.1874 9.00013 18.1874H15.0001C15.0499 18.1874 15.0975 18.1676 15.1327 18.1325C15.1679 18.0973 15.1876 18.0496 15.1876 17.9999V17.4374C15.1888 17.0068 15.2882 16.5822 15.4783 16.1959C15.6683 15.8095 15.9441 15.4717 16.2845 15.208C17.1136 14.5607 17.7836 13.7324 18.2434 12.7864C18.7033 11.8404 18.9407 10.8017 18.9376 9.7499ZM17.0551 8.90614C16.8676 7.858 16.3634 6.89249 15.6105 6.13957C14.8575 5.38665 13.892 4.88247 12.8439 4.69489C12.771 4.68258 12.6964 4.68475 12.6243 4.70126C12.5523 4.71778 12.4842 4.74833 12.424 4.79116C12.3023 4.87766 12.22 5.00895 12.1951 5.15614C12.1703 5.30334 12.2049 5.45438 12.2914 5.57605C12.3779 5.69771 12.5092 5.78003 12.6564 5.80489C14.2858 6.07864 15.6686 7.46239 15.9451 9.09364C15.9673 9.22462 16.035 9.34353 16.1364 9.42933C16.2379 9.51512 16.3664 9.56226 16.4992 9.56239C16.5306 9.56218 16.5619 9.55968 16.5929 9.55489C16.6659 9.54274 16.7358 9.5163 16.7986 9.47709C16.8613 9.43789 16.9157 9.38669 16.9586 9.32642C17.0016 9.26616 17.0322 9.19801 17.0488 9.1259C17.0653 9.05378 17.0675 8.9791 17.0551 8.90614Z" fill="black"/>
</svg>
