<svg width="24" height="24" viewBox="0 0 24 24" fill="none" xmlns="http://www.w3.org/2000/svg">
<path d="M16.3011 10.4944C16.2833 10.4071 16.2449 10.3252 16.1891 10.2556C16.1334 10.186 16.0619 10.1306 15.9805 10.0941L11.1561 7.92755L12.4686 2.38036C12.4976 2.25938 12.4856 2.13221 12.4346 2.01876C12.3835 1.90531 12.2963 1.81198 12.1866 1.75336C12.0769 1.69475 11.9508 1.67416 11.8282 1.69483C11.7055 1.71549 11.5931 1.77623 11.5086 1.86755L2.58739 11.5107C2.52672 11.5762 2.48251 11.6551 2.4584 11.7411C2.43429 11.827 2.43099 11.9175 2.44876 12.005C2.46653 12.0924 2.50487 12.1744 2.5606 12.2442C2.61633 12.3139 2.68786 12.3694 2.76927 12.406L7.59364 14.5726L6.28114 20.1197C6.25232 20.2405 6.26428 20.3675 6.31515 20.4807C6.36603 20.594 6.45296 20.6873 6.56239 20.746C6.67202 20.8043 6.79786 20.8247 6.9203 20.804C7.04274 20.7833 7.15489 20.7227 7.23927 20.6316L16.1643 10.9894C16.2247 10.9237 16.2687 10.8445 16.2925 10.7585C16.3163 10.6724 16.3193 10.5819 16.3011 10.4944ZM7.86364 18.2954L8.79364 14.3804C8.82388 14.253 8.80878 14.1192 8.75095 14.0018C8.69311 13.8844 8.59615 13.7908 8.47677 13.7372L3.94489 11.7001L10.8824 4.20005L9.95239 8.11599C9.92216 8.24331 9.93726 8.37719 9.99509 8.49458C10.0529 8.61196 10.1499 8.70551 10.2693 8.75911L14.8049 10.7963L7.86364 18.2954ZM22.2486 19.9979L18.8736 13.2479C18.827 13.1543 18.7552 13.0755 18.6662 13.0205C18.5773 12.9654 18.4748 12.9363 18.3702 12.9363C18.2656 12.9363 18.1631 12.9654 18.0742 13.0205C17.9852 13.0755 17.9134 13.1543 17.8668 13.2479L14.4918 19.9979C14.4587 20.064 14.439 20.136 14.4338 20.2097C14.4285 20.2834 14.4379 20.3575 14.4612 20.4276C14.4846 20.4977 14.5216 20.5625 14.57 20.6184C14.6184 20.6742 14.6774 20.72 14.7435 20.753C14.8096 20.7861 14.8816 20.8058 14.9553 20.811C15.029 20.8163 15.1031 20.8069 15.1732 20.7836C15.2433 20.7602 15.3082 20.7232 15.364 20.6748C15.4198 20.6264 15.4656 20.5674 15.4986 20.5013L16.4727 18.5626H20.2771L21.2465 20.5013C21.2932 20.5948 21.365 20.6735 21.4539 20.7285C21.5429 20.7835 21.6453 20.8126 21.7499 20.8126C21.8372 20.8128 21.9233 20.7922 22.0011 20.7526C22.1345 20.6858 22.2359 20.5688 22.283 20.4272C22.3302 20.2857 22.3191 20.1313 22.2524 19.9979H22.2486ZM17.0352 17.4376L18.3749 14.7582L19.7146 17.4376H17.0352Z" fill="black"/>
</svg>
