<svg width="24" height="24" viewBox="0 0 24 24" fill="none" xmlns="http://www.w3.org/2000/svg">
<path d="M19.5 7.68755C19.3508 7.68755 19.2077 7.74682 19.1023 7.85231C18.9968 7.95779 18.9375 8.10087 18.9375 8.25005V9.93755H17.5312L17.0625 5.1938C17.0479 5.05331 16.981 4.92346 16.875 4.83005L12.8541 1.25349L12.84 1.24224C12.6042 1.0458 12.3069 0.938232 12 0.938232C11.6931 0.938232 11.3958 1.0458 11.16 1.24224L11.1459 1.25349L7.125 4.83005C7.01905 4.92346 6.95211 5.05331 6.9375 5.1938L6.46875 9.93755H5.0625V8.25005C5.0625 8.10087 5.00324 7.95779 4.89775 7.85231C4.79226 7.74682 4.64918 7.68755 4.5 7.68755C4.35082 7.68755 4.20774 7.74682 4.10225 7.85231C3.99676 7.95779 3.9375 8.10087 3.9375 8.25005V10.5001C3.9375 10.6492 3.99676 10.7923 4.10225 10.8978C4.20774 11.0033 4.35082 11.0626 4.5 11.0626H6.35156L5.44313 20.1254C5.42575 20.3074 5.44662 20.4911 5.5044 20.6647C5.56217 20.8382 5.65558 20.9977 5.77863 21.1331C5.90168 21.2684 6.05165 21.3765 6.21893 21.4505C6.38621 21.5244 6.5671 21.5626 6.75 21.5626H17.25C17.4331 21.5625 17.6141 21.5242 17.7815 21.45C17.9489 21.3758 18.0989 21.2674 18.2219 21.1318C18.3449 20.9962 18.4381 20.8363 18.4957 20.6625C18.5532 20.4887 18.5737 20.3048 18.5559 20.1226L17.6484 11.0626H19.5C19.6492 11.0626 19.7923 11.0033 19.8977 10.8978C20.0032 10.7923 20.0625 10.6492 20.0625 10.5001V8.25005C20.0625 8.10087 20.0032 7.95779 19.8977 7.85231C19.7923 7.74682 19.6492 7.68755 19.5 7.68755ZM11.8847 2.10193C11.9176 2.07623 11.9582 2.06228 12 2.06228C12.0418 2.06228 12.0824 2.07623 12.1153 2.10193L15.0216 4.68755H8.97844L11.8847 2.10193ZM8.00906 5.81255H15.9909L16.4062 9.93755H12.5625V8.25005C12.5625 8.10087 12.5032 7.95779 12.3977 7.85231C12.2923 7.74682 12.1492 7.68755 12 7.68755C11.8508 7.68755 11.7077 7.74682 11.6023 7.85231C11.4968 7.95779 11.4375 8.10087 11.4375 8.25005V9.93755H7.59375L8.00906 5.81255ZM17.3841 20.3766C17.367 20.3953 17.3463 20.4103 17.3233 20.4208C17.3002 20.4313 17.2753 20.437 17.25 20.4376H6.75C6.72406 20.4376 6.69839 20.4323 6.6746 20.422C6.65082 20.4116 6.62944 20.3965 6.61182 20.3774C6.5942 20.3584 6.58071 20.3359 6.57223 20.3114C6.56374 20.2869 6.56042 20.2609 6.5625 20.2351L6.95625 16.3126H17.0438L17.4375 20.2322C17.4399 20.2584 17.4369 20.2847 17.4285 20.3096C17.4201 20.3345 17.4065 20.3573 17.3888 20.3766H17.3841ZM16.9313 15.1876H7.06875L7.48219 11.0626H16.5178L16.9313 15.1876Z" fill="black"/>
</svg>
