<svg width="24" height="24" viewBox="0 0 24 24" fill="none" xmlns="http://www.w3.org/2000/svg">
<path d="M16.3126 21.7499C16.3126 21.8991 16.2534 22.0422 16.1479 22.1476C16.0424 22.2531 15.8993 22.3124 15.7501 22.3124H8.25013C8.10094 22.3124 7.95787 22.2531 7.85238 22.1476C7.74689 22.0422 7.68763 21.8991 7.68763 21.7499C7.68763 21.6007 7.74689 21.4576 7.85238 21.3521C7.95787 21.2467 8.10094 21.1874 8.25013 21.1874H15.7501C15.8993 21.1874 16.0424 21.2467 16.1479 21.3521C16.2534 21.4576 16.3126 21.6007 16.3126 21.7499ZM20.0626 9.7499C20.0658 10.9719 19.7897 12.1784 19.2555 13.2774C18.7213 14.3764 17.943 15.3388 16.9801 16.0911C16.7736 16.2499 16.6062 16.4537 16.4905 16.687C16.3748 16.9203 16.314 17.177 16.3126 17.4374V17.9999C16.3126 18.348 16.1743 18.6818 15.9282 18.928C15.6821 19.1741 15.3482 19.3124 15.0001 19.3124H9.00013C8.65203 19.3124 8.31819 19.1741 8.07205 18.928C7.82591 18.6818 7.68763 18.348 7.68763 17.9999V17.4374C7.68737 17.1797 7.62809 16.9254 7.51434 16.6942C7.40058 16.4629 7.23537 16.2608 7.03138 16.1033C6.07146 15.3558 5.29411 14.3997 4.75813 13.3074C4.22215 12.2152 3.94157 11.0153 3.93763 9.79864C3.91325 5.42896 7.44294 1.79239 11.8061 1.68739C12.8811 1.66151 13.9504 1.85093 14.9511 2.24451C15.9518 2.63808 16.8636 3.22786 17.633 3.97912C18.4023 4.73039 19.0136 5.62796 19.4309 6.61902C19.8481 7.61007 20.0629 8.67458 20.0626 9.7499ZM18.9376 9.7499C18.9379 8.82455 18.753 7.90851 18.394 7.05569C18.0349 6.20286 17.5088 5.43049 16.8467 4.78404C16.1846 4.1376 15.3999 3.63013 14.5387 3.29152C13.6776 2.95292 12.7574 2.79001 11.8323 2.81239C8.07856 2.90614 5.042 6.03177 5.06263 9.78927C5.06618 10.8362 5.30771 11.8687 5.76897 12.8086C6.23023 13.7485 6.89914 14.5712 7.72513 15.2146C8.0643 15.4773 8.33871 15.8142 8.52724 16.1996C8.71578 16.5849 8.81341 17.0084 8.81263 17.4374V17.9999C8.81263 18.0496 8.83238 18.0973 8.86754 18.1325C8.90271 18.1676 8.9504 18.1874 9.00013 18.1874H11.4376V13.7333L8.60263 10.8974C8.50327 10.7908 8.44917 10.6497 8.45174 10.504C8.45432 10.3583 8.51335 10.2192 8.61641 10.1162C8.71947 10.0131 8.85851 9.95408 9.00423 9.95151C9.14996 9.94894 9.29099 10.003 9.39763 10.1024L12.0001 12.7049L14.6026 10.1024C14.7093 10.003 14.8503 9.94894 14.996 9.95151C15.1417 9.95408 15.2808 10.0131 15.3838 10.1162C15.4869 10.2192 15.5459 10.3583 15.5485 10.504C15.5511 10.6497 15.497 10.7908 15.3976 10.8974L12.5626 13.7333V18.1874H15.0001C15.0499 18.1874 15.0975 18.1676 15.1327 18.1325C15.1679 18.0973 15.1876 18.0496 15.1876 17.9999V17.4374C15.1888 17.0068 15.2882 16.5822 15.4783 16.1959C15.6683 15.8095 15.9441 15.4717 16.2845 15.208C17.1136 14.5607 17.7836 13.7324 18.2434 12.7864C18.7033 11.8404 18.9407 10.8017 18.9376 9.7499Z" fill="black"/>
</svg>
