<svg width="24" height="24" viewBox="0 0 24 24" fill="none" xmlns="http://www.w3.org/2000/svg">
<path d="M4.91646 3.37489C4.81349 3.2793 4.67847 3.22572 4.53797 3.22468C4.39748 3.22363 4.26168 3.27521 4.15729 3.36925C4.05291 3.46329 3.98749 3.59299 3.97392 3.73283C3.96035 3.87267 3.99961 4.01253 4.08396 4.12489L7.8799 8.30426L4.08865 12.3664C4.02559 12.4341 3.98017 12.5162 3.9564 12.6055C3.93264 12.6949 3.93126 12.7887 3.95239 12.8787C3.97353 12.9687 4.01652 13.0521 4.07757 13.1215C4.13862 13.191 4.21584 13.2443 4.3024 13.2768L9.85521 15.3589L8.44896 22.3902C8.42481 22.5102 8.44049 22.6349 8.49362 22.7452C8.54675 22.8555 8.63443 22.9455 8.74334 23.0014C8.823 23.0416 8.91099 23.0625 9.00021 23.0624C9.07743 23.0624 9.15382 23.0465 9.22463 23.0157C9.29543 22.9849 9.35914 22.9398 9.41177 22.8833L15.3499 16.5205L19.084 20.6249C19.1844 20.7353 19.3246 20.8013 19.4737 20.8083C19.6228 20.8153 19.7686 20.7628 19.879 20.6624C19.9894 20.5619 20.0553 20.4217 20.0624 20.2727C20.0694 20.1236 20.0169 19.9778 19.9165 19.8674L4.91646 3.37489ZM9.93771 20.668L11.0486 15.1105C11.075 14.9796 11.0539 14.8436 10.9892 14.7268C10.9244 14.61 10.8202 14.52 10.6952 14.473L5.48271 12.5183L8.63646 9.14332L14.5877 15.6899L9.93771 20.668ZM10.3127 6.5202C10.2037 6.41838 10.1396 6.27742 10.1345 6.12833C10.1294 5.97924 10.1837 5.83423 10.2855 5.7252L14.5868 1.11645C14.6703 1.02698 14.7807 0.967184 14.9012 0.946131C15.0218 0.925077 15.1459 0.943916 15.2548 0.999788C15.3637 1.05566 15.4514 1.14552 15.5046 1.25573C15.5578 1.36595 15.5736 1.4905 15.5496 1.61051L14.1433 8.64176L19.6961 10.7239C19.7827 10.7564 19.8599 10.8097 19.921 10.8792C19.982 10.9486 20.025 11.032 20.0462 11.122C20.0673 11.212 20.0659 11.3058 20.0421 11.3952C20.0184 11.4845 19.973 11.5667 19.9099 11.6343L17.8202 13.8749C17.77 13.9296 17.7094 13.9739 17.642 14.0051C17.5746 14.0363 17.5017 14.0538 17.4274 14.0567C17.3532 14.0595 17.2792 14.0476 17.2095 14.0217C17.1399 13.9958 17.0761 13.9564 17.0218 13.9057C16.9676 13.855 16.9238 13.794 16.8932 13.7263C16.8626 13.6587 16.8457 13.5856 16.8435 13.5113C16.8413 13.4371 16.8538 13.3631 16.8803 13.2938C16.9069 13.2244 16.9469 13.1609 16.998 13.1071L18.5149 11.4824L13.3024 9.5277C13.1774 9.48069 13.0732 9.39074 13.0084 9.27394C12.9437 9.15715 12.9226 9.02112 12.949 8.8902L14.0627 3.33176L11.1096 6.49207C11.0592 6.5464 10.9986 6.59024 10.9312 6.62107C10.8638 6.6519 10.791 6.66911 10.717 6.67173C10.6429 6.67434 10.5691 6.6623 10.4997 6.63629C10.4304 6.61029 10.3668 6.57084 10.3127 6.5202Z" fill="black"/>
</svg>
