<svg width="24" height="24" viewBox="0 0 24 24" fill="none" xmlns="http://www.w3.org/2000/svg">
<path d="M22.2403 3.25958C21.712 2.73311 20.9967 2.4375 20.2509 2.4375C19.5051 2.4375 18.7898 2.73311 18.2615 3.25958C17.7351 3.7878 17.4394 4.50317 17.4394 5.24895C17.4394 5.99473 17.7351 6.7101 18.2615 7.23833C18.3225 7.29833 18.3853 7.35457 18.449 7.40801L15.8109 12.3074C15.4157 12.1895 14.9994 12.1596 14.5914 12.2198C14.1834 12.2801 13.7936 12.429 13.4493 12.6561L11.3437 10.5505C11.7264 9.96921 11.88 9.26667 11.7748 8.57871C11.6695 7.89075 11.3129 7.26623 10.774 6.82592C10.235 6.3856 9.55193 6.16076 8.8568 6.19485C8.16168 6.22895 7.50388 6.51956 7.01059 7.01051C6.74937 7.27168 6.54216 7.58175 6.40079 7.92301C6.25942 8.26427 6.18666 8.63004 6.18666 8.99942C6.18666 9.3688 6.25942 9.73457 6.40079 10.0758C6.54216 10.4171 6.74937 10.7272 7.01059 10.9883C7.07012 11.0484 7.1327 11.1053 7.19809 11.1589L4.55996 16.0583C4.07323 15.9115 3.55579 15.8993 3.0627 16.0231C2.5696 16.1469 2.11928 16.4021 1.75965 16.7614C1.36649 17.1549 1.09881 17.656 0.990434 18.2015C0.882059 18.747 0.937862 19.3125 1.15079 19.8263C1.36371 20.3401 1.7242 20.7792 2.18667 21.0882C2.64915 21.3971 3.19284 21.562 3.74903 21.562C4.30521 21.562 4.8489 21.3971 5.31138 21.0882C5.77385 20.7792 6.13434 20.3401 6.34726 19.8263C6.56019 19.3125 6.61599 18.747 6.50762 18.2015C6.39924 17.656 6.13156 17.1549 5.7384 16.7614C5.67746 16.7014 5.61465 16.6452 5.5509 16.5918L8.18903 11.6924C8.5842 11.8106 9.0005 11.8406 9.40854 11.7803C9.81659 11.7201 10.2064 11.571 10.5506 11.3436L12.6562 13.4493C12.3629 13.8932 12.2015 14.4113 12.1909 14.9433C12.1802 15.4753 12.3207 15.9994 12.596 16.4548C12.8713 16.9101 13.2702 17.278 13.7462 17.5158C14.2222 17.7535 14.756 17.8513 15.2854 17.7979C15.8148 17.7444 16.3182 17.5419 16.7371 17.2138C17.156 16.8857 17.4732 16.4454 17.6519 15.9442C17.8307 15.443 17.8635 14.9014 17.7467 14.3823C17.63 13.8632 17.3683 13.3878 16.9922 13.0114C16.9326 12.9514 16.87 12.8944 16.8047 12.8408L19.4428 7.94145C20.0428 8.12237 20.686 8.09773 21.2703 7.87144C21.8547 7.64515 22.3468 7.23019 22.6684 6.69239C22.9901 6.15458 23.123 5.52476 23.0459 4.90286C22.9688 4.28095 22.6863 3.7026 22.2431 3.25958H22.2403ZM4.94246 19.9471C4.70644 20.183 4.40575 20.3437 4.07843 20.4088C3.7511 20.4738 3.41183 20.4404 3.10351 20.3126C2.79519 20.1849 2.53167 19.9686 2.34627 19.6911C2.16087 19.4136 2.06191 19.0874 2.06191 18.7536C2.06191 18.4199 2.16087 18.0937 2.34627 17.8162C2.53167 17.5387 2.79519 17.3224 3.10351 17.1946C3.41183 17.0669 3.7511 17.0335 4.07843 17.0985C4.40575 17.1636 4.70644 17.3243 4.94246 17.5602C5.25819 17.8766 5.43551 18.3053 5.43551 18.7522C5.43551 19.1992 5.25819 19.6279 4.94246 19.9443V19.9471ZM7.80653 10.1971C7.57058 9.96105 7.40992 9.66037 7.34485 9.33304C7.27978 9.00571 7.31323 8.66644 7.44097 8.35812C7.56871 8.0498 7.785 7.78628 8.0625 7.60088C8.33999 7.41548 8.66623 7.31653 8.99996 7.31653C9.3337 7.31653 9.65993 7.41548 9.93743 7.60088C10.2149 7.78628 10.4312 8.0498 10.559 8.35812C10.6867 8.66644 10.7201 9.00571 10.6551 9.33304C10.59 9.66037 10.4293 9.96105 10.1934 10.1971C10.0364 10.3536 9.8502 10.4776 9.64529 10.5622C9.44039 10.6467 9.22084 10.69 8.99919 10.6897C8.77753 10.6893 8.55812 10.6453 8.35348 10.5601C8.14884 10.475 7.96299 10.3503 7.80653 10.1933V10.1971ZM16.1934 16.1971C15.9574 16.433 15.6567 16.5937 15.3294 16.6588C15.002 16.7238 14.6628 16.6904 14.3544 16.5626C14.0461 16.4349 13.7826 16.2186 13.5972 15.9411C13.4118 15.6636 13.3129 15.3374 13.3129 15.0036C13.3129 14.6699 13.4118 14.3437 13.5972 14.0662C13.7826 13.7887 14.0461 13.5724 14.3544 13.4446C14.6628 13.3169 15.002 13.2835 15.3294 13.3485C15.6567 13.4136 15.9574 13.5743 16.1934 13.8102C16.5088 14.1265 16.686 14.555 16.686 15.0018C16.686 15.4485 16.5088 15.877 16.1934 16.1933V16.1971ZM21.4434 6.44707C21.2074 6.68302 20.9067 6.84369 20.5794 6.90875C20.252 6.97382 19.9128 6.94037 19.6044 6.81263C19.2961 6.68489 19.0326 6.4686 18.8472 6.1911C18.6618 5.91361 18.5629 5.58737 18.5629 5.25364C18.5629 4.91991 18.6618 4.59367 18.8472 4.31617C19.0326 4.03867 19.2961 3.82238 19.6044 3.69464C19.9128 3.5669 20.252 3.53345 20.5794 3.59852C20.9067 3.66359 21.2074 3.82425 21.4434 4.0602C21.7587 4.37637 21.9358 4.8046 21.936 5.2511C21.9362 5.6976 21.7594 6.12597 21.4443 6.44239L21.4434 6.44707Z" fill="black"/>
</svg>
