<svg width="24" height="24" viewBox="0 0 24 24" fill="none" xmlns="http://www.w3.org/2000/svg">
<path d="M19.9907 4.00962C19.4977 3.51675 18.8393 3.22451 18.1431 3.18957C17.4469 3.15463 16.7625 3.37949 16.2227 3.82052C15.6829 4.26156 15.3261 4.88736 15.2215 5.57655C15.1169 6.26574 15.272 6.96922 15.6566 7.55056L7.55102 15.6562C7.00971 15.2995 6.36203 15.1403 5.71706 15.2054C5.07209 15.2704 4.46925 15.5558 4.01008 16.0134C3.63377 16.3898 3.37198 16.8652 3.25513 17.3845C3.13829 17.9037 3.17118 18.4455 3.35 18.9468C3.52881 19.4481 3.8462 19.8884 4.2653 20.2165C4.68439 20.5446 5.18798 20.747 5.71755 20.8003C6.24712 20.8536 6.78094 20.7555 7.25698 20.5174C7.73302 20.2793 8.13174 19.9111 8.40681 19.4554C8.68187 18.9998 8.822 18.4754 8.81091 17.9433C8.79982 17.4112 8.63796 16.8931 8.34415 16.4493L16.4498 8.34368C17.0312 8.73045 17.7358 8.88705 18.4264 8.78303C19.1169 8.679 19.7441 8.32178 20.1858 7.78088C20.6275 7.23999 20.8522 6.5541 20.8162 5.85668C20.7801 5.15926 20.4859 4.5002 19.9907 4.00775V4.00962ZM7.1929 19.1971C6.95687 19.4331 6.65619 19.5937 6.32886 19.6588C6.00153 19.7239 5.66226 19.6904 5.35394 19.5627C5.04562 19.4349 4.7821 19.2186 4.5967 18.9412C4.4113 18.6637 4.31235 18.3374 4.31235 18.0037C4.31235 17.6699 4.4113 17.3437 4.5967 17.0662C4.7821 16.7887 5.04562 16.5724 5.35394 16.4447C5.66226 16.3169 6.00153 16.2835 6.32886 16.3486C6.65619 16.4136 6.95687 16.5743 7.1929 16.8102C7.50862 17.1266 7.68594 17.5553 7.68594 18.0023C7.68594 18.4492 7.50862 18.8779 7.1929 19.1943V19.1971ZM19.1929 7.19712C19.0362 7.35388 18.8501 7.47823 18.6454 7.56307C18.4406 7.64791 18.2211 7.69157 17.9995 7.69157C17.7778 7.69157 17.5583 7.64791 17.3536 7.56307C17.1488 7.47823 16.9627 7.35388 16.806 7.19712C16.5701 6.9611 16.4094 6.66041 16.3443 6.33309C16.2793 6.00576 16.3127 5.66649 16.4405 5.35817C16.5682 5.04985 16.7845 4.78633 17.062 4.60093C17.3395 4.41553 17.6657 4.31657 17.9995 4.31657C18.3332 4.31657 18.6594 4.41553 18.9369 4.60093C19.2144 4.78633 19.4307 5.04985 19.5585 5.35817C19.6862 5.66649 19.7196 6.00576 19.6546 6.33309C19.5895 6.66041 19.4288 6.9611 19.1929 7.19712Z" fill="black"/>
</svg>
