<svg width="24" height="24" viewBox="0 0 24 24" fill="none" xmlns="http://www.w3.org/2000/svg">
<path d="M18.7504 5.24992C18.1536 4.65391 17.3448 4.31875 16.5014 4.31788C15.6579 4.317 14.8485 4.65047 14.2504 5.24523L13.1573 6.38805C13.1069 6.44374 13.0458 6.48877 12.9778 6.52049C12.9097 6.55221 12.8359 6.56997 12.7609 6.57273C12.6858 6.57548 12.6109 6.56318 12.5407 6.53654C12.4705 6.5099 12.4063 6.46946 12.352 6.41762C12.2976 6.36577 12.2542 6.30357 12.2243 6.23468C12.1944 6.16578 12.1785 6.09159 12.1777 6.01649C12.177 5.94138 12.1912 5.86687 12.2197 5.79737C12.2482 5.72786 12.2903 5.66477 12.3435 5.6118L13.4413 4.46055L13.4507 4.45023C14.2595 3.64141 15.3566 3.18701 16.5004 3.18701C17.6443 3.18701 18.7413 3.64141 19.5501 4.45023C20.3589 5.25906 20.8133 6.35607 20.8133 7.49992C20.8133 8.64378 20.3589 9.74078 19.5501 10.5496L19.5398 10.559L18.3885 11.6568C18.3356 11.71 18.2725 11.7522 18.203 11.7806C18.1335 11.8091 18.059 11.8234 17.9838 11.8226C17.9087 11.8218 17.8345 11.806 17.7657 11.7761C17.6968 11.7461 17.6346 11.7027 17.5827 11.6484C17.5309 11.594 17.4904 11.5298 17.4638 11.4596C17.4372 11.3894 17.4248 11.3145 17.4276 11.2395C17.4304 11.1644 17.4481 11.0907 17.4798 11.0226C17.5116 10.9545 17.5566 10.8934 17.6123 10.843L18.7588 9.74992C19.3531 9.15135 19.6859 8.34165 19.6843 7.49818C19.6828 6.65471 19.3469 5.84626 18.7504 5.24992ZM10.8398 17.6155L9.75041 18.7584C9.45438 19.0544 9.10294 19.2892 8.71617 19.4494C8.32939 19.6096 7.91484 19.6921 7.49619 19.6921C7.07754 19.6921 6.663 19.6096 6.27622 19.4494C5.88944 19.2892 5.538 19.0544 5.24197 18.7584C4.64412 18.1605 4.30824 17.3496 4.30824 16.5041C4.30824 15.6586 4.64412 14.8478 5.24197 14.2499L6.38853 13.1559C6.49194 13.0519 6.55066 12.9117 6.5522 12.7651C6.55373 12.6184 6.49795 12.477 6.39674 12.3709C6.29553 12.2648 6.1569 12.2024 6.01037 12.1971C5.86384 12.1917 5.721 12.2437 5.61228 12.3421L4.46103 13.4409L4.45072 13.4502C3.64189 14.2591 3.1875 15.3561 3.1875 16.4999C3.1875 17.6438 3.64189 18.7408 4.45072 19.5496C5.25955 20.3584 6.35655 20.8128 7.50041 20.8128C8.64426 20.8128 9.74127 20.3584 10.5501 19.5496L10.5595 19.5393L11.6573 18.388C11.7105 18.3351 11.7526 18.272 11.7811 18.2025C11.8096 18.133 11.8239 18.0585 11.8231 17.9834C11.8223 17.9082 11.8065 17.8341 11.7765 17.7652C11.7466 17.6963 11.7032 17.6341 11.6489 17.5822C11.5945 17.5304 11.5303 17.4899 11.4601 17.4633C11.3899 17.4367 11.315 17.4244 11.24 17.4271C11.1649 17.4299 11.0911 17.4476 11.0231 17.4794C10.955 17.5111 10.8939 17.5561 10.8435 17.6118L10.8398 17.6155ZM20.2504 14.4374H18.0004C17.8512 14.4374 17.7081 14.4967 17.6027 14.6022C17.4972 14.7077 17.4379 14.8507 17.4379 14.9999C17.4379 15.1491 17.4972 15.2922 17.6027 15.3977C17.7081 15.5032 17.8512 15.5624 18.0004 15.5624H20.2504C20.3996 15.5624 20.5427 15.5032 20.6482 15.3977C20.7536 15.2922 20.8129 15.1491 20.8129 14.9999C20.8129 14.8507 20.7536 14.7077 20.6482 14.6022C20.5427 14.4967 20.3996 14.4374 20.2504 14.4374ZM3.75041 9.56242H6.00041C6.14959 9.56242 6.29267 9.50316 6.39816 9.39767C6.50365 9.29218 6.56291 9.14911 6.56291 8.99992C6.56291 8.85074 6.50365 8.70766 6.39816 8.60217C6.29267 8.49668 6.14959 8.43742 6.00041 8.43742H3.75041C3.60123 8.43742 3.45815 8.49668 3.35266 8.60217C3.24717 8.70766 3.18791 8.85074 3.18791 8.99992C3.18791 9.14911 3.24717 9.29218 3.35266 9.39767C3.45815 9.50316 3.60123 9.56242 3.75041 9.56242ZM15.0004 17.4374C14.8512 17.4374 14.7081 17.4967 14.6027 17.6022C14.4972 17.7077 14.4379 17.8507 14.4379 17.9999V20.2499C14.4379 20.3991 14.4972 20.5422 14.6027 20.6477C14.7081 20.7532 14.8512 20.8124 15.0004 20.8124C15.1496 20.8124 15.2927 20.7532 15.3982 20.6477C15.5036 20.5422 15.5629 20.3991 15.5629 20.2499V17.9999C15.5629 17.8507 15.5036 17.7077 15.3982 17.6022C15.2927 17.4967 15.1496 17.4374 15.0004 17.4374ZM9.00041 6.56242C9.14959 6.56242 9.29267 6.50316 9.39816 6.39767C9.50365 6.29218 9.56291 6.14911 9.56291 5.99992V3.74992C9.56291 3.60074 9.50365 3.45766 9.39816 3.35217C9.29267 3.24668 9.14959 3.18742 9.00041 3.18742C8.85123 3.18742 8.70815 3.24668 8.60266 3.35217C8.49717 3.45766 8.43791 3.60074 8.43791 3.74992V5.99992C8.43791 6.14911 8.49717 6.29218 8.60266 6.39767C8.70815 6.50316 8.85123 6.56242 9.00041 6.56242Z" fill="black"/>
</svg>
