<svg width="24" height="24" viewBox="0 0 24 24" fill="none" xmlns="http://www.w3.org/2000/svg">
<path d="M15.3988 8.60144C15.4511 8.65368 15.4926 8.71572 15.5209 8.78401C15.5492 8.85229 15.5637 8.92549 15.5637 8.99941C15.5637 9.07333 15.5492 9.14653 15.5209 9.21482C15.4926 9.2831 15.4511 9.34514 15.3988 9.39738L9.39878 15.3974C9.29306 15.5015 9.15047 15.5597 9.00208 15.5591C8.85369 15.5586 8.71151 15.4995 8.60652 15.3946C8.50153 15.2898 8.44223 15.1477 8.44154 14.9993C8.44085 14.8509 8.49883 14.7082 8.60284 14.6024L14.6028 8.60238C14.655 8.55002 14.717 8.50846 14.7853 8.48007C14.8535 8.45168 14.9267 8.43703 15.0006 8.43694C15.0745 8.43685 15.1477 8.45134 15.2161 8.47956C15.2844 8.50779 15.3465 8.54921 15.3988 8.60144ZM20.0816 3.91863C19.1313 2.97048 17.8437 2.43799 16.5013 2.43799C15.1589 2.43799 13.8713 2.97048 12.921 3.91863L10.1019 6.73582C9.99635 6.84137 9.93706 6.98452 9.93706 7.13379C9.93706 7.28305 9.99635 7.42621 10.1019 7.53176C10.2074 7.6373 10.3506 7.6966 10.4999 7.6966C10.6491 7.6966 10.7923 7.6373 10.8978 7.53176L13.7169 4.71363C14.4555 3.97504 15.4572 3.56011 16.5017 3.56011C17.5463 3.56011 18.548 3.97504 19.2866 4.71363C20.0252 5.45222 20.4401 6.45396 20.4401 7.49848C20.4401 8.54299 20.0252 9.54473 19.2866 10.2833L16.4666 13.1024C16.4143 13.1546 16.3729 13.2167 16.3446 13.285C16.3163 13.3533 16.3017 13.4264 16.3017 13.5003C16.3017 13.5743 16.3163 13.6474 16.3446 13.7157C16.3729 13.784 16.4143 13.8461 16.4666 13.8983C16.5188 13.9506 16.5809 13.992 16.6492 14.0203C16.7175 14.0486 16.7906 14.0632 16.8646 14.0632C16.9385 14.0632 17.0117 14.0486 17.0799 14.0203C17.1482 13.992 17.2103 13.9506 17.2625 13.8983L20.0816 11.0793C20.5519 10.6091 20.9249 10.051 21.1794 9.43666C21.4339 8.82234 21.5649 8.1639 21.5649 7.49894C21.5649 6.83399 21.4339 6.17555 21.1794 5.56123C20.9249 4.94691 20.5519 4.38875 20.0816 3.91863ZM13.1028 16.4661L10.2838 19.2861C9.54519 20.0247 8.54345 20.4397 7.49893 20.4397C6.45441 20.4396 5.45267 20.0247 4.71409 19.2861C3.9755 18.5475 3.56057 17.5458 3.56057 16.5013C3.56057 15.4568 3.9755 14.455 4.71409 13.7164L7.53221 10.8974C7.63776 10.7918 7.69706 10.6487 7.69706 10.4994C7.69706 10.3501 7.63776 10.207 7.53221 10.1014C7.42666 9.9959 7.28351 9.9366 7.13424 9.9366C6.98498 9.9366 6.84182 9.9959 6.73627 10.1014L3.92377 12.9205C2.97409 13.8701 2.44052 15.158 2.44043 16.501C2.44034 17.8439 2.97375 19.1319 3.92331 20.0816C4.87286 21.0313 6.16079 21.5649 7.50376 21.5649C8.84672 21.565 10.1347 21.0316 11.0844 20.0821L13.9035 17.2621C13.9557 17.2098 13.9972 17.1478 14.0255 17.0795C14.0537 17.0112 14.0683 16.938 14.0683 16.8641C14.0683 16.7902 14.0537 16.717 14.0255 16.6487C13.9972 16.5804 13.9557 16.5184 13.9035 16.4661C13.8512 16.4139 13.7892 16.3724 13.7209 16.3441C13.6526 16.3158 13.5794 16.3013 13.5055 16.3013C13.4316 16.3013 13.3584 16.3158 13.2901 16.3441C13.2218 16.3724 13.1598 16.4139 13.1075 16.4661H13.1028Z" fill="black"/>
</svg>
