<svg width="24" height="24" viewBox="0 0 24 24" fill="none" xmlns="http://www.w3.org/2000/svg">
<path d="M20.0816 11.0794L17.2625 13.8984C17.2103 13.9507 17.1482 13.9922 17.0799 14.0204C17.0117 14.0487 16.9385 14.0633 16.8646 14.0633C16.7906 14.0633 16.7175 14.0487 16.6492 14.0204C16.5809 13.9922 16.5188 13.9507 16.4666 13.8984C16.4143 13.8462 16.3729 13.7841 16.3446 13.7159C16.3163 13.6476 16.3017 13.5744 16.3017 13.5005C16.3017 13.4266 16.3163 13.3534 16.3446 13.2851C16.3729 13.2168 16.4143 13.1548 16.4666 13.1025L19.2866 10.2834C20.0252 9.54486 20.4401 8.54312 20.4401 7.4986C20.4401 6.45408 20.0252 5.45234 19.2866 4.71376C18.548 3.97517 17.5463 3.56024 16.5017 3.56024C15.4572 3.56024 14.4555 3.97517 13.7169 4.71376L10.8978 7.53188C10.7923 7.63743 10.6491 7.69672 10.4999 7.69672C10.3506 7.69672 10.2074 7.63743 10.1019 7.53188C9.99635 7.42633 9.93706 7.28318 9.93706 7.13391C9.93706 6.98465 9.99635 6.84149 10.1019 6.73594L12.921 3.92344C13.8705 2.97389 15.1584 2.44043 16.5013 2.44043C17.8442 2.44043 19.132 2.97389 20.0816 3.92344C21.0311 4.873 21.5646 6.16088 21.5646 7.50376C21.5646 8.84663 21.0311 10.1345 20.0816 11.0841V11.0794ZM13.1028 16.4663L10.2838 19.2863C9.54519 20.0248 8.54345 20.4398 7.49893 20.4398C6.45441 20.4398 5.45267 20.0248 4.71409 19.2863C3.9755 18.5477 3.56057 17.5459 3.56057 16.5014C3.56057 15.4569 3.9755 14.4552 4.71409 13.7166L7.53221 10.8975C7.63776 10.792 7.69706 10.6488 7.69706 10.4995C7.69706 10.3503 7.63776 10.2071 7.53221 10.1016C7.42666 9.99602 7.28351 9.93672 7.13424 9.93672C6.98498 9.93672 6.84182 9.99602 6.73627 10.1016L3.92377 12.9206C2.97409 13.8702 2.44052 15.1581 2.44043 16.5011C2.44034 17.844 2.97375 19.132 3.92331 20.0817C4.87286 21.0314 6.16079 21.565 7.50376 21.5651C8.84672 21.5652 10.1347 21.0318 11.0844 20.0822L13.9035 17.2622C14.009 17.1566 14.0683 17.0135 14.0683 16.8642C14.0683 16.715 14.009 16.5718 13.9035 16.4663C13.7979 16.3607 13.6548 16.3014 13.5055 16.3014C13.3562 16.3014 13.2131 16.3607 13.1075 16.4663H13.1028Z" fill="black"/>
</svg>
