<svg width="24" height="24" viewBox="0 0 24 24" fill="none" xmlns="http://www.w3.org/2000/svg">
<path d="M22.3124 8.26699C22.277 9.52514 21.7602 10.7217 20.8686 11.6101L17.6108 14.8679C17.1535 15.3276 16.6096 15.6921 16.0104 15.94C15.4113 16.188 14.7689 16.3147 14.1205 16.3126H14.1158C13.4566 16.3121 12.8041 16.1795 12.197 15.9227C11.5899 15.6658 11.0403 15.2899 10.5809 14.8171C10.1215 14.3443 9.7615 13.7842 9.52215 13.17C9.2828 12.5557 9.16897 11.8997 9.18738 11.2407C9.19129 11.0942 9.25228 10.9549 9.35734 10.8527C9.46241 10.7504 9.60326 10.6932 9.74988 10.6932H9.76582C9.91486 10.6974 10.0561 10.7606 10.1586 10.8689C10.2611 10.9772 10.3164 11.1217 10.3124 11.2707C10.2978 11.7796 10.3855 12.2862 10.5701 12.7606C10.7547 13.235 11.0326 13.6676 11.3873 14.0327C11.7419 14.3979 12.1662 14.6882 12.635 14.8866C13.1039 15.085 13.6077 15.1873 14.1168 15.1876C14.6171 15.1888 15.1128 15.0908 15.5751 14.8993C16.0374 14.7079 16.4572 14.4267 16.8102 14.072L20.068 10.8151C20.7561 10.0958 21.1352 9.13573 21.1243 8.14038C21.1134 7.14503 20.7133 6.1935 20.0096 5.48945C19.3059 4.78541 18.3546 4.38479 17.3592 4.37335C16.3639 4.36191 15.4036 4.74056 14.6839 5.42824L13.6527 6.45949C13.5471 6.56504 13.404 6.62434 13.2547 6.62434C13.1055 6.62434 12.9623 6.56504 12.8568 6.45949C12.7512 6.35395 12.6919 6.21079 12.6919 6.06153C12.6919 5.91226 12.7512 5.7691 12.8568 5.66356L13.888 4.63231C14.3461 4.17403 14.89 3.81049 15.4887 3.56246C16.0873 3.31443 16.7289 3.18677 17.3769 3.18677C18.0249 3.18677 18.6665 3.31443 19.2652 3.56246C19.8638 3.81049 20.4077 4.17403 20.8658 4.63231C21.3411 5.10819 21.7145 5.67588 21.9632 6.30078C22.2119 6.92567 22.3307 7.59468 22.3124 8.26699ZM10.348 17.5389L9.31676 18.5701C8.96348 18.9258 8.54304 19.2078 8.07985 19.3997C7.61666 19.5915 7.11997 19.6894 6.61863 19.6876C5.8655 19.6871 5.12944 19.4633 4.50346 19.0445C3.87749 18.6258 3.3897 18.0308 3.10175 17.3349C2.81379 16.639 2.7386 15.8734 2.88566 15.1347C3.03273 14.3961 3.39546 13.7177 3.92801 13.1851L7.18301 9.92825C7.72196 9.38789 8.41081 9.02189 9.16025 8.8777C9.9097 8.7335 10.6852 8.81776 11.3862 9.11956C12.0871 9.42135 12.6813 9.92676 13.0916 10.5703C13.5019 11.2138 13.7095 11.9657 13.6874 12.7286C13.6833 12.8776 13.7386 13.0221 13.8411 13.1304C13.9436 13.2387 14.0849 13.3019 14.2339 13.3061H14.2499C14.3965 13.3061 14.5373 13.2489 14.6424 13.1466C14.7475 13.0444 14.8085 12.9051 14.8124 12.7586C14.8404 11.7708 14.5711 10.7973 14.0395 9.96434C13.5079 9.13134 12.7384 8.47717 11.8307 8.08655C10.923 7.69593 9.91889 7.58687 8.94849 7.77349C7.97809 7.96011 7.08608 8.43382 6.38801 9.13324L3.12926 12.3901C2.43957 13.08 1.96986 13.9588 1.77947 14.9155C1.58907 15.8723 1.68654 16.864 2.05956 17.7653C2.43259 18.6667 3.06442 19.4372 3.87521 19.9796C4.68601 20.522 5.63939 20.8119 6.61488 20.8126C7.26322 20.8145 7.9055 20.6877 8.50447 20.4396C9.10345 20.1914 9.64722 19.8269 10.1043 19.367L11.1355 18.3357C11.1884 18.2836 11.2305 18.2216 11.2593 18.1531C11.288 18.0847 11.303 18.0112 11.3033 17.937C11.3035 17.8627 11.2891 17.7891 11.2608 17.7205C11.2324 17.6519 11.1908 17.5895 11.1383 17.537C11.0857 17.4846 11.0233 17.443 10.9547 17.4148C10.886 17.3865 10.8124 17.3722 10.7381 17.3725C10.6639 17.3729 10.5904 17.3879 10.522 17.4168C10.4536 17.4457 10.3916 17.4878 10.3396 17.5407L10.348 17.5389Z" fill="black"/>
</svg>
