<svg width="24" height="24" viewBox="0 0 24 24" fill="none" xmlns="http://www.w3.org/2000/svg">
<path d="M20.8129 11.9999C20.8129 12.1491 20.7536 12.2921 20.6481 12.3976C20.5426 12.5031 20.3995 12.5624 20.2504 12.5624H12.0004C11.8512 12.5624 11.7081 12.5031 11.6026 12.3976C11.4971 12.2921 11.4379 12.1491 11.4379 11.9999C11.4379 11.8507 11.4971 11.7076 11.6026 11.6021C11.7081 11.4966 11.8512 11.4374 12.0004 11.4374H20.2504C20.3995 11.4374 20.5426 11.4966 20.6481 11.6021C20.7536 11.7076 20.8129 11.8507 20.8129 11.9999ZM12.0004 6.56238H20.2504C20.3995 6.56238 20.5426 6.50312 20.6481 6.39763C20.7536 6.29214 20.8129 6.14907 20.8129 5.99988C20.8129 5.8507 20.7536 5.70763 20.6481 5.60214C20.5426 5.49665 20.3995 5.43738 20.2504 5.43738H12.0004C11.8512 5.43738 11.7081 5.49665 11.6026 5.60214C11.4971 5.70763 11.4379 5.8507 11.4379 5.99988C11.4379 6.14907 11.4971 6.29214 11.6026 6.39763C11.7081 6.50312 11.8512 6.56238 12.0004 6.56238ZM20.2504 17.4374H12.0004C11.8512 17.4374 11.7081 17.4966 11.6026 17.6021C11.4971 17.7076 11.4379 17.8507 11.4379 17.9999C11.4379 18.1491 11.4971 18.2921 11.6026 18.3976C11.7081 18.5031 11.8512 18.5624 12.0004 18.5624H20.2504C20.3995 18.5624 20.5426 18.5031 20.6481 18.3976C20.7536 18.2921 20.8129 18.1491 20.8129 17.9999C20.8129 17.8507 20.7536 17.7076 20.6481 17.6021C20.5426 17.4966 20.3995 17.4374 20.2504 17.4374ZM7.85286 4.10238L5.25036 6.70395L4.14786 5.60238C4.04123 5.50302 3.90019 5.44893 3.75447 5.4515C3.60874 5.45407 3.4697 5.51311 3.36664 5.61617C3.26358 5.71923 3.20455 5.85827 3.20198 6.00399C3.19941 6.14972 3.2535 6.29075 3.35286 6.39738L4.85286 7.89738C4.95833 8.00272 5.1013 8.06189 5.25036 8.06189C5.39942 8.06189 5.54239 8.00272 5.64786 7.89738L8.64786 4.89738C8.74722 4.79075 8.80131 4.64972 8.79874 4.50399C8.79617 4.35827 8.73713 4.21923 8.63408 4.11617C8.53102 4.01311 8.39198 3.95407 8.24625 3.9515C8.10052 3.94893 7.95949 4.00302 7.85286 4.10238ZM7.85286 10.1024L5.25036 12.7039L4.14786 11.6024C4.09636 11.5471 4.03426 11.5028 3.96526 11.472C3.89626 11.4413 3.82178 11.4248 3.74625 11.4234C3.67072 11.4221 3.5957 11.436 3.52566 11.4643C3.45562 11.4926 3.39199 11.5347 3.33858 11.5881C3.28517 11.6415 3.24306 11.7051 3.21477 11.7752C3.18648 11.8452 3.17258 11.9202 3.17392 11.9958C3.17525 12.0713 3.19178 12.1458 3.22252 12.2148C3.25327 12.2838 3.29759 12.3459 3.35286 12.3974L4.85286 13.8974C4.95833 14.0027 5.1013 14.0619 5.25036 14.0619C5.39942 14.0619 5.54239 14.0027 5.64786 13.8974L8.64786 10.8974C8.74722 10.7908 8.80131 10.6497 8.79874 10.504C8.79617 10.3583 8.73713 10.2192 8.63408 10.1162C8.53102 10.0131 8.39198 9.95407 8.24625 9.9515C8.10052 9.94893 7.95949 10.003 7.85286 10.1024ZM7.85286 16.1024L5.25036 18.7039L4.14786 17.6024C4.04123 17.503 3.90019 17.4489 3.75447 17.4515C3.60874 17.4541 3.4697 17.5131 3.36664 17.6162C3.26358 17.7192 3.20455 17.8583 3.20198 18.004C3.19941 18.1497 3.2535 18.2908 3.35286 18.3974L4.85286 19.8974C4.95833 20.0027 5.1013 20.0619 5.25036 20.0619C5.39942 20.0619 5.54239 20.0027 5.64786 19.8974L8.64786 16.8974C8.74722 16.7908 8.80131 16.6497 8.79874 16.504C8.79617 16.3583 8.73713 16.2192 8.63408 16.1162C8.53102 16.0131 8.39198 15.9541 8.24625 15.9515C8.10052 15.9489 7.95949 16.003 7.85286 16.1024Z" fill="black"/>
</svg>
