<svg width="24" height="24" viewBox="0 0 24 24" fill="none" xmlns="http://www.w3.org/2000/svg">
<path d="M20.8127 11.9999C20.8127 12.1491 20.7534 12.2922 20.6479 12.3977C20.5424 12.5032 20.3993 12.5624 20.2502 12.5624H9.75015C9.60097 12.5624 9.45789 12.5032 9.35241 12.3977C9.24692 12.2922 9.18765 12.1491 9.18765 11.9999C9.18765 11.8507 9.24692 11.7077 9.35241 11.6022C9.45789 11.4967 9.60097 11.4374 9.75015 11.4374H20.2502C20.3993 11.4374 20.5424 11.4967 20.6479 11.6022C20.7534 11.7077 20.8127 11.8507 20.8127 11.9999ZM9.75015 6.56242H20.2502C20.3993 6.56242 20.5424 6.50316 20.6479 6.39767C20.7534 6.29218 20.8127 6.14911 20.8127 5.99992C20.8127 5.85074 20.7534 5.70767 20.6479 5.60218C20.5424 5.49669 20.3993 5.43742 20.2502 5.43742H9.75015C9.60097 5.43742 9.45789 5.49669 9.35241 5.60218C9.24692 5.70767 9.18765 5.85074 9.18765 5.99992C9.18765 6.14911 9.24692 6.29218 9.35241 6.39767C9.45789 6.50316 9.60097 6.56242 9.75015 6.56242ZM20.2502 17.4374H9.75015C9.60097 17.4374 9.45789 17.4967 9.35241 17.6022C9.24692 17.7077 9.18765 17.8507 9.18765 17.9999C9.18765 18.1491 9.24692 18.2922 9.35241 18.3977C9.45789 18.5032 9.60097 18.5624 9.75015 18.5624H20.2502C20.3993 18.5624 20.5424 18.5032 20.6479 18.3977C20.7534 18.2922 20.8127 18.1491 20.8127 17.9999C20.8127 17.8507 20.7534 17.7077 20.6479 17.6022C20.5424 17.4967 20.3993 17.4374 20.2502 17.4374ZM4.0014 5.00336L4.68765 4.66024V9.74992C4.68765 9.89911 4.74691 10.0422 4.8524 10.1477C4.95789 10.2532 5.10097 10.3124 5.25015 10.3124C5.39934 10.3124 5.54241 10.2532 5.6479 10.1477C5.75339 10.0422 5.81265 9.89911 5.81265 9.74992V3.74992C5.81268 3.65406 5.78821 3.55977 5.74155 3.47602C5.6949 3.39227 5.62762 3.32184 5.54609 3.2714C5.46457 3.22096 5.3715 3.1922 5.27573 3.18784C5.17997 3.18348 5.08467 3.20367 4.9989 3.24649L3.4989 3.99649C3.36538 4.06312 3.2638 4.18007 3.21651 4.3216C3.16921 4.46313 3.18008 4.61765 3.24671 4.75117C3.31335 4.88469 3.4303 4.98627 3.57183 5.03357C3.71336 5.08086 3.86788 5.07 4.0014 5.00336ZM6.75015 18.9374H4.87515L6.8889 16.243C7.05526 16.0292 7.17678 15.7839 7.2462 15.522C7.31563 15.2601 7.33153 14.9869 7.29296 14.7187C7.25506 14.4465 7.16253 14.1847 7.02092 13.9492C6.8793 13.7137 6.69154 13.5092 6.4689 13.348C6.02147 13.0233 5.46586 12.884 4.91815 12.9593C4.37045 13.0346 3.87303 13.3187 3.52984 13.7521C3.39955 13.9203 3.29584 14.1075 3.22234 14.3071C3.17124 14.4473 3.17795 14.6021 3.24098 14.7374C3.30401 14.8727 3.4182 14.9774 3.55843 15.0285C3.69867 15.0796 3.85345 15.0729 3.98874 15.0099C4.12403 14.9468 4.22874 14.8327 4.27984 14.6924C4.31283 14.6023 4.35964 14.5178 4.41859 14.4421C4.58085 14.2383 4.81556 14.105 5.07374 14.0701C5.33192 14.0351 5.59361 14.1012 5.80421 14.2546C5.90511 14.3275 5.9903 14.4199 6.05473 14.5263C6.11915 14.6328 6.16149 14.7511 6.17921 14.8743C6.19549 14.9948 6.18727 15.1174 6.15506 15.2347C6.12284 15.3519 6.06728 15.4615 5.99171 15.5568L5.98609 15.5652L3.30015 19.1634C3.23774 19.2469 3.1998 19.3462 3.19056 19.4501C3.18133 19.554 3.20116 19.6584 3.24784 19.7517C3.29453 19.845 3.36623 19.9234 3.45493 19.9783C3.54363 20.0332 3.64585 20.0623 3.75015 20.0624H6.75015C6.89934 20.0624 7.04241 20.0032 7.1479 19.8977C7.25339 19.7922 7.31265 19.6491 7.31265 19.4999C7.31265 19.3507 7.25339 19.2077 7.1479 19.1022C7.04241 18.9967 6.89934 18.9374 6.75015 18.9374Z" fill="black"/>
</svg>
