<svg width="24" height="24" viewBox="0 0 24 24" fill="none" xmlns="http://www.w3.org/2000/svg">
<path d="M19.5 7.6875H16.3125V5.25C16.3125 4.10625 15.8581 3.00935 15.0494 2.2006C14.2406 1.39185 13.1437 0.9375 12 0.9375C10.8563 0.9375 9.75935 1.39185 8.9506 2.2006C8.14185 3.00935 7.6875 4.10625 7.6875 5.25V7.6875H4.5C4.1519 7.6875 3.81806 7.82578 3.57192 8.07192C3.32578 8.31806 3.1875 8.6519 3.1875 9V19.5C3.1875 19.8481 3.32578 20.1819 3.57192 20.4281C3.81806 20.6742 4.1519 20.8125 4.5 20.8125H19.5C19.8481 20.8125 20.1819 20.6742 20.4281 20.4281C20.6742 20.1819 20.8125 19.8481 20.8125 19.5V9C20.8125 8.6519 20.6742 8.31806 20.4281 8.07192C20.1819 7.82578 19.8481 7.6875 19.5 7.6875ZM8.8125 5.25C8.8125 4.40462 9.14832 3.59387 9.7461 2.9961C10.3439 2.39832 11.1546 2.0625 12 2.0625C12.8454 2.0625 13.6561 2.39832 14.2539 2.9961C14.8517 3.59387 15.1875 4.40462 15.1875 5.25V7.6875H8.8125V5.25ZM19.6875 19.5C19.6875 19.5497 19.6677 19.5974 19.6326 19.6326C19.5974 19.6677 19.5497 19.6875 19.5 19.6875H4.5C4.45027 19.6875 4.40258 19.6677 4.36742 19.6326C4.33225 19.5974 4.3125 19.5497 4.3125 19.5V9C4.3125 8.95027 4.33225 8.90258 4.36742 8.86742C4.40258 8.83225 4.45027 8.8125 4.5 8.8125H19.5C19.5497 8.8125 19.5974 8.83225 19.6326 8.86742C19.6677 8.90258 19.6875 8.95027 19.6875 9V19.5ZM12 10.6875C11.4031 10.6883 10.8273 10.9081 10.3817 11.3051C9.93604 11.7022 9.65159 12.249 9.58224 12.8418C9.51289 13.4346 9.66347 14.0323 10.0054 14.5215C10.3474 15.0107 10.8569 15.3574 11.4375 15.4959V17.25C11.4375 17.3992 11.4968 17.5423 11.6023 17.6477C11.7077 17.7532 11.8508 17.8125 12 17.8125C12.1492 17.8125 12.2923 17.7532 12.3977 17.6477C12.5032 17.5423 12.5625 17.3992 12.5625 17.25V15.4959C13.1431 15.3574 13.6526 15.0107 13.9946 14.5215C14.3365 14.0323 14.4871 13.4346 14.4178 12.8418C14.3484 12.249 14.064 11.7022 13.6183 11.3051C13.1727 10.9081 12.5969 10.6883 12 10.6875ZM12 14.4375C11.7404 14.4375 11.4867 14.3605 11.2708 14.2163C11.055 14.0721 10.8867 13.8671 10.7874 13.6273C10.6881 13.3874 10.6621 13.1235 10.7127 12.8689C10.7634 12.6143 10.8884 12.3805 11.0719 12.1969C11.2555 12.0134 11.4893 11.8884 11.7439 11.8377C11.9985 11.7871 12.2624 11.8131 12.5023 11.9124C12.7421 12.0117 12.9471 12.18 13.0913 12.3958C13.2355 12.6117 13.3125 12.8654 13.3125 13.125C13.3125 13.4731 13.1742 13.8069 12.9281 14.0531C12.6819 14.2992 12.3481 14.4375 12 14.4375Z" fill="black"/>
</svg>
