<svg width="24" height="24" viewBox="0 0 24 24" fill="none" xmlns="http://www.w3.org/2000/svg">
<path d="M23.0626 14.2501C23.0626 14.3993 23.0033 14.5424 22.8978 14.6478C22.7923 14.7533 22.6492 14.8126 22.5001 14.8126H20.8126V16.5001C20.8126 16.6493 20.7533 16.7924 20.6478 16.8978C20.5423 17.0033 20.3992 17.0626 20.2501 17.0626C20.1009 17.0626 19.9578 17.0033 19.8523 16.8978C19.7468 16.7924 19.6876 16.6493 19.6876 16.5001V14.8126H18.0001C17.8509 14.8126 17.7078 14.7533 17.6023 14.6478C17.4968 14.5424 17.4376 14.3993 17.4376 14.2501C17.4376 14.1009 17.4968 13.9578 17.6023 13.8523C17.7078 13.7469 17.8509 13.6876 18.0001 13.6876H19.6876V12.0001C19.6876 11.8509 19.7468 11.7078 19.8523 11.6023C19.9578 11.4969 20.1009 11.4376 20.2501 11.4376C20.3992 11.4376 20.5423 11.4969 20.6478 11.6023C20.7533 11.7078 20.8126 11.8509 20.8126 12.0001V13.6876H22.5001C22.6492 13.6876 22.7923 13.7469 22.8978 13.8523C23.0033 13.9578 23.0626 14.1009 23.0626 14.2501ZM5.25006 6.56259H6.93756V8.25009C6.93756 8.39928 6.99682 8.54235 7.10231 8.64784C7.2078 8.75333 7.35087 8.81259 7.50006 8.81259C7.64924 8.81259 7.79231 8.75333 7.8978 8.64784C8.00329 8.54235 8.06256 8.39928 8.06256 8.25009V6.56259H9.75006C9.89924 6.56259 10.0423 6.50333 10.1478 6.39784C10.2533 6.29235 10.3126 6.14928 10.3126 6.00009C10.3126 5.85091 10.2533 5.70784 10.1478 5.60235C10.0423 5.49686 9.89924 5.43759 9.75006 5.43759H8.06256V3.75009C8.06256 3.60091 8.00329 3.45784 7.8978 3.35235C7.79231 3.24686 7.64924 3.18759 7.50006 3.18759C7.35087 3.18759 7.2078 3.24686 7.10231 3.35235C6.99682 3.45784 6.93756 3.60091 6.93756 3.75009V5.43759H5.25006C5.10087 5.43759 4.9578 5.49686 4.85231 5.60235C4.74682 5.70784 4.68756 5.85091 4.68756 6.00009C4.68756 6.14928 4.74682 6.29235 4.85231 6.39784C4.9578 6.50333 5.10087 6.56259 5.25006 6.56259ZM17.2501 18.1876H16.3126V17.2501C16.3126 17.1009 16.2533 16.9578 16.1478 16.8523C16.0423 16.7469 15.8992 16.6876 15.7501 16.6876C15.6009 16.6876 15.4578 16.7469 15.3523 16.8523C15.2468 16.9578 15.1876 17.1009 15.1876 17.2501V18.1876H14.2501C14.1009 18.1876 13.9578 18.2469 13.8523 18.3523C13.7468 18.4578 13.6876 18.6009 13.6876 18.7501C13.6876 18.8993 13.7468 19.0424 13.8523 19.1478C13.9578 19.2533 14.1009 19.3126 14.2501 19.3126H15.1876V20.2501C15.1876 20.3993 15.2468 20.5424 15.3523 20.6478C15.4578 20.7533 15.6009 20.8126 15.7501 20.8126C15.8992 20.8126 16.0423 20.7533 16.1478 20.6478C16.2533 20.5424 16.3126 20.3993 16.3126 20.2501V19.3126H17.2501C17.3992 19.3126 17.5423 19.2533 17.6478 19.1478C17.7533 19.0424 17.8126 18.8993 17.8126 18.7501C17.8126 18.6009 17.7533 18.4578 17.6478 18.3523C17.5423 18.2469 17.3992 18.1876 17.2501 18.1876ZM20.4282 7.36791L7.36693 20.4282C7.24505 20.5501 7.10036 20.6468 6.94111 20.7128C6.78186 20.7787 6.61118 20.8127 6.43881 20.8127C6.26643 20.8127 6.09575 20.7787 5.9365 20.7128C5.77725 20.6468 5.63256 20.5501 5.51068 20.4282L3.57099 18.4885C3.4491 18.3667 3.35241 18.222 3.28644 18.0627C3.22048 17.9035 3.18652 17.7328 3.18652 17.5604C3.18652 17.388 3.22048 17.2174 3.28644 17.0581C3.35241 16.8989 3.4491 16.7542 3.57099 16.6323L16.6322 3.57197C16.7541 3.45008 16.8988 3.35339 17.0581 3.28742C17.2173 3.22145 17.388 3.1875 17.5604 3.1875C17.7327 3.1875 17.9034 3.22145 18.0627 3.28742C18.2219 3.35339 18.3666 3.45008 18.4885 3.57197L20.4282 5.51166C20.5501 5.63354 20.6468 5.77823 20.7127 5.93748C20.7787 6.09673 20.8127 6.26741 20.8127 6.43978C20.8127 6.61215 20.7787 6.78284 20.7127 6.94209C20.6468 7.10133 20.5501 7.24603 20.4282 7.36791ZM15.7041 10.5001L13.5001 8.29603L4.36693 17.4282C4.3495 17.4456 4.33567 17.4663 4.32623 17.4891C4.3168 17.5118 4.31194 17.5362 4.31194 17.5609C4.31194 17.5855 4.3168 17.6099 4.32623 17.6327C4.33567 17.6554 4.3495 17.6761 4.36693 17.6935L6.30662 19.6323C6.34175 19.6672 6.38927 19.6868 6.43881 19.6868C6.48834 19.6868 6.53586 19.6672 6.57099 19.6323L15.7041 10.5001ZM19.6322 6.30666L17.6935 4.36791C17.6761 4.35047 17.6554 4.33664 17.6326 4.32721C17.6099 4.31777 17.5855 4.31292 17.5608 4.31292C17.5362 4.31292 17.5118 4.31777 17.489 4.32721C17.4663 4.33664 17.4456 4.35047 17.4282 4.36791L14.2951 7.50009L16.5001 9.70509L19.6322 6.57197C19.6497 6.55456 19.6635 6.53388 19.6729 6.51112C19.6824 6.48835 19.6872 6.46395 19.6872 6.43931C19.6872 6.41467 19.6824 6.39027 19.6729 6.36751C19.6635 6.34475 19.6497 6.32407 19.6322 6.30666Z" fill="black"/>
</svg>
