<svg width="24" height="24" viewBox="0 0 24 24" fill="none" xmlns="http://www.w3.org/2000/svg">
<path d="M14.0623 10.5C14.0623 10.6492 14.003 10.7923 13.8975 10.8978C13.792 11.0032 13.6489 11.0625 13.4998 11.0625H11.0623V13.5C11.0623 13.6492 11.003 13.7923 10.8975 13.8978C10.792 14.0032 10.6489 14.0625 10.4998 14.0625C10.3506 14.0625 10.2075 14.0032 10.102 13.8978C9.99652 13.7923 9.93726 13.6492 9.93726 13.5V11.0625H7.49976C7.35058 11.0625 7.2075 11.0032 7.10201 10.8978C6.99652 10.7923 6.93726 10.6492 6.93726 10.5C6.93726 10.3508 6.99652 10.2077 7.10201 10.1023C7.2075 9.99677 7.35058 9.9375 7.49976 9.9375H9.93726V7.5C9.93726 7.35082 9.99652 7.20775 10.102 7.10226C10.2075 6.99677 10.3506 6.9375 10.4998 6.9375C10.6489 6.9375 10.792 6.99677 10.8975 7.10226C11.003 7.20775 11.0623 7.35082 11.0623 7.5V9.9375H13.4998C13.6489 9.9375 13.792 9.99677 13.8975 10.1023C14.003 10.2077 14.0623 10.3508 14.0623 10.5ZM21.3973 21.3975C21.2918 21.5028 21.1488 21.562 20.9998 21.562C20.8507 21.562 20.7077 21.5028 20.6023 21.3975L15.7854 16.5806C14.2057 17.9542 12.1545 18.6608 10.064 18.5515C7.9735 18.4422 6.00712 17.5255 4.57934 15.9946C3.15157 14.4638 2.37395 12.4384 2.41041 10.3453C2.44686 8.25232 3.29454 6.25521 4.77475 4.775C6.25497 3.29478 8.25208 2.4471 10.3451 2.41065C12.4381 2.3742 14.4635 3.15182 15.9944 4.57959C17.5253 6.00736 18.442 7.97374 18.5513 10.0642C18.6606 12.1547 17.954 14.206 16.5804 15.7856L21.3973 20.6025C21.5026 20.708 21.5618 20.8509 21.5618 21C21.5618 21.1491 21.5026 21.292 21.3973 21.3975ZM10.4998 17.4375C11.8719 17.4375 13.2132 17.0306 14.354 16.2683C15.4949 15.506 16.3841 14.4225 16.9092 13.1549C17.4343 11.8872 17.5716 10.4923 17.304 9.14657C17.0363 7.80082 16.3755 6.56468 15.4053 5.59445C14.4351 4.62422 13.1989 3.96349 11.8532 3.69581C10.5075 3.42812 9.11256 3.56551 7.84489 4.09059C6.57723 4.61567 5.49374 5.50487 4.73144 6.64574C3.96914 7.7866 3.56226 9.1279 3.56226 10.5C3.56449 12.3393 4.29612 14.1025 5.59667 15.4031C6.89722 16.7036 8.66051 17.4353 10.4998 17.4375Z" fill="black"/>
</svg>
