<svg width="24" height="24" viewBox="0 0 24 24" fill="none" xmlns="http://www.w3.org/2000/svg">
<path d="M20.25 19.6875H12.5625V12.5307C13.8484 12.3869 15.0304 11.7562 15.8658 10.7682C16.7013 9.78014 17.1267 8.50972 17.0547 7.21783C16.9827 5.92594 16.4187 4.71064 15.4787 3.82154C14.5387 2.93244 13.2939 2.43701 12 2.43701C10.7061 2.43701 9.46132 2.93244 8.52129 3.82154C7.58126 4.71064 7.01734 5.92594 6.94534 7.21783C6.87335 8.50972 7.29874 9.78014 8.13416 10.7682C8.96959 11.7562 10.1516 12.3869 11.4375 12.5307V19.6875H3.75C3.60082 19.6875 3.45774 19.7468 3.35225 19.8523C3.24676 19.9578 3.1875 20.1009 3.1875 20.25C3.1875 20.3992 3.24676 20.5423 3.35225 20.6478C3.45774 20.7533 3.60082 20.8125 3.75 20.8125H20.25C20.3992 20.8125 20.5423 20.7533 20.6477 20.6478C20.7532 20.5423 20.8125 20.3992 20.8125 20.25C20.8125 20.1009 20.7532 19.9578 20.6477 19.8523C20.5423 19.7468 20.3992 19.6875 20.25 19.6875ZM8.0625 7.50004C8.0625 6.72128 8.29343 5.96 8.72609 5.31248C9.15875 4.66496 9.7737 4.16028 10.4932 3.86226C11.2127 3.56424 12.0044 3.48627 12.7682 3.6382C13.532 3.79013 14.2336 4.16514 14.7842 4.71581C15.3349 5.26648 15.7099 5.96807 15.8618 6.73187C16.0138 7.49567 15.9358 8.28737 15.6378 9.00686C15.3398 9.72634 14.8351 10.3413 14.1876 10.774C13.54 11.2066 12.7788 11.4375 12 11.4375C10.9557 11.4375 9.95419 11.0227 9.21577 10.2843C8.47734 9.54585 8.0625 8.54433 8.0625 7.50004Z" fill="black"/>
</svg>
