<svg width="24" height="24" viewBox="0 0 24 24" fill="none" xmlns="http://www.w3.org/2000/svg">
<path d="M11.4375 9.51757V16.5001C11.4375 16.6493 11.4968 16.7923 11.6023 16.8978C11.7077 17.0033 11.8508 17.0626 12 17.0626C12.1492 17.0626 12.2923 17.0033 12.3977 16.8978C12.5032 16.7923 12.5625 16.6493 12.5625 16.5001V9.51757C13.4473 9.3761 14.2462 8.90643 14.8001 8.20217C15.3541 7.49792 15.6223 6.6108 15.5513 5.71762C15.4804 4.82444 15.0754 3.9908 14.4173 3.38284C13.7591 2.77488 12.896 2.43726 12 2.43726C11.104 2.43726 10.2409 2.77488 9.58274 3.38284C8.92457 3.9908 8.51965 4.82444 8.44869 5.71762C8.37773 6.6108 8.64594 7.49792 9.19986 8.20217C9.75379 8.90643 10.5527 9.3761 11.4375 9.51757ZM12 3.56257C12.4821 3.56257 12.9534 3.70552 13.3542 3.97336C13.755 4.2412 14.0675 4.62188 14.252 5.06728C14.4364 5.51267 14.4847 6.00277 14.3907 6.4756C14.2966 6.94843 14.0645 7.38275 13.7236 7.72364C13.3827 8.06453 12.9484 8.29668 12.4755 8.39073C12.0027 8.48478 11.5126 8.43651 11.0672 8.25202C10.6218 8.06754 10.2411 7.75512 9.97329 7.35427C9.70546 6.95343 9.5625 6.48216 9.5625 6.00007C9.5625 5.3536 9.81931 4.73361 10.2764 4.27649C10.7335 3.81938 11.3535 3.56257 12 3.56257ZM22.3125 16.5001C22.3125 17.7507 21.1706 18.8794 19.0959 19.6763C17.1919 20.4094 14.6719 20.8126 12 20.8126C9.32812 20.8126 6.80813 20.4094 4.90406 19.6763C2.82938 18.8794 1.6875 17.7507 1.6875 16.5001C1.6875 14.6626 4.16813 13.1251 8.16094 12.4819C8.30838 12.4577 8.45942 12.493 8.58082 12.5801C8.70222 12.6673 8.78404 12.799 8.80828 12.9465C8.83252 13.0939 8.7972 13.245 8.71008 13.3664C8.62297 13.4878 8.49119 13.5696 8.34375 13.5938C6.65625 13.8648 5.22469 14.3119 4.21031 14.8857C3.3075 15.3938 2.8125 15.9676 2.8125 16.5001C2.8125 18.0076 6.58594 19.6876 12 19.6876C17.4141 19.6876 21.1875 18.0076 21.1875 16.5001C21.1875 15.9676 20.6925 15.3938 19.7944 14.8848C18.78 14.311 17.3503 13.8638 15.6609 13.5929C15.5136 13.5693 15.3817 13.4881 15.2942 13.3672C15.2068 13.2463 15.1709 13.0957 15.1945 12.9483C15.2182 12.801 15.2993 12.6691 15.4202 12.5817C15.5411 12.4942 15.6917 12.4583 15.8391 12.4819C19.8319 13.1251 22.3125 14.6626 22.3125 16.5001Z" fill="black"/>
</svg>
