<svg width="24" height="24" viewBox="0 0 24 24" fill="none" xmlns="http://www.w3.org/2000/svg">
<path d="M21.3459 4.80668C21.2785 4.75407 21.2 4.71752 21.1163 4.69981C21.0327 4.6821 20.9461 4.6837 20.8631 4.70449L15.0656 6.15387L9.25312 3.24762C9.13294 3.18767 8.99526 3.1727 8.865 3.20543L2.865 4.70543C2.7432 4.73554 2.63497 4.80551 2.55751 4.9042C2.48005 5.0029 2.43781 5.12466 2.4375 5.25012V18.7501C2.4375 18.8356 2.45699 18.92 2.49451 18.9969C2.53202 19.0738 2.58657 19.141 2.654 19.1936C2.72143 19.2463 2.79997 19.2828 2.88364 19.3005C2.96732 19.3182 3.05392 19.3166 3.13687 19.2957L8.93438 17.8464L14.7469 20.7526C14.8671 20.8126 15.0047 20.8275 15.135 20.7948L21.135 19.2948C21.2568 19.2647 21.365 19.1947 21.4425 19.096C21.52 18.9973 21.5622 18.8756 21.5625 18.7501V5.25012C21.5625 5.1646 21.543 5.08022 21.5054 5.00338C21.4679 4.92654 21.4134 4.85927 21.3459 4.80668ZM9.5625 4.66043L14.4375 7.09793V19.3398L9.5625 16.9023V4.66043ZM3.5625 5.69168L8.4375 4.47293V16.8114L3.5625 18.0301V5.69168ZM20.4375 18.3114L15.5625 19.5301V7.18887L20.4375 5.97012V18.3114Z" fill="black"/>
</svg>
