<svg width="24" height="24" viewBox="0 0 24 24" fill="none" xmlns="http://www.w3.org/2000/svg">
<path d="M18.7616 5.23792C17.8763 4.33812 16.8216 3.62251 15.6583 3.13237C14.495 2.64223 13.2462 2.38725 11.9839 2.38216C10.7216 2.37706 9.47078 2.62194 8.30359 3.10268C7.1364 3.58341 6.07593 4.29048 5.18337 5.18311C4.29081 6.07573 3.58381 7.13624 3.10316 8.30347C2.6225 9.4707 2.37771 10.7215 2.38289 11.9838C2.38808 13.2462 2.64314 14.4949 3.13336 15.6582C3.62358 16.8214 4.33927 17.8761 5.23913 18.7614C6.12446 19.6612 7.17917 20.3768 8.34245 20.8669C9.50572 21.3571 10.7545 21.612 12.0168 21.6171C13.2791 21.6222 14.53 21.3773 15.6972 20.8966C16.8644 20.4159 17.9248 19.7088 18.8174 18.8162C19.71 17.9236 20.417 16.863 20.8976 15.6958C21.3783 14.5286 21.623 13.2777 21.6179 12.0154C21.6127 10.7531 21.3576 9.50434 20.8674 8.3411C20.3772 7.17786 19.6615 6.12319 18.7616 5.23792ZM8.06288 19.4664V16.5001C8.06288 16.4504 8.08263 16.4027 8.1178 16.3675C8.15296 16.3324 8.20065 16.3126 8.25038 16.3126H15.7504C15.8001 16.3126 15.8478 16.3324 15.883 16.3675C15.9181 16.4027 15.9379 16.4504 15.9379 16.5001V19.4664C14.7234 20.1043 13.3722 20.4376 12.0004 20.4376C10.6286 20.4376 9.27733 20.1043 8.06288 19.4664ZM9.75038 13.3126H14.2504C14.3001 13.3126 14.3478 13.3324 14.383 13.3675C14.4181 13.4027 14.4379 13.4504 14.4379 13.5001V15.1876H9.56288V13.5001C9.56288 13.4504 9.58263 13.4027 9.6178 13.3675C9.65296 13.3324 9.70065 13.3126 9.75038 13.3126ZM10.8323 12.1876L11.8129 7.46167C11.8215 7.41929 11.8445 7.38118 11.878 7.35381C11.9115 7.32644 11.9534 7.31149 11.9966 7.31149C12.0399 7.31149 12.0818 7.32644 12.1153 7.35381C12.1488 7.38118 12.1718 7.41929 12.1804 7.46167L13.1685 12.1876H10.8323ZM17.9666 17.9664C17.6837 18.248 17.3818 18.5099 17.0629 18.7501V16.5001C17.0629 16.152 16.9246 15.8182 16.6785 15.572C16.4323 15.3259 16.0985 15.1876 15.7504 15.1876H15.5629V13.5001C15.5633 13.1636 15.4345 12.8397 15.203 12.5954C14.9714 12.3512 14.6549 12.2052 14.3188 12.1876L13.2876 7.22824C13.2264 6.93254 13.0652 6.66696 12.8311 6.47629C12.5969 6.28561 12.3042 6.1815 12.0023 6.1815C11.7003 6.1815 11.4076 6.28561 11.1734 6.47629C10.9393 6.66696 10.7781 6.93254 10.7169 7.22824L9.68569 12.1876C9.34893 12.2042 9.03148 12.3498 8.79916 12.5942C8.56684 12.8385 8.43747 13.1629 8.43788 13.5001V15.1876H8.25038C7.90228 15.1876 7.56844 15.3259 7.3223 15.572C7.07616 15.8182 6.93788 16.152 6.93788 16.5001V18.7501C6.61897 18.5096 6.317 18.2474 6.03413 17.9654C4.85413 16.7854 4.05055 15.282 3.725 13.6453C3.39944 12.0086 3.56654 10.3121 4.20516 8.77033C4.84377 7.22859 5.92523 5.91084 7.31277 4.98372C8.7003 4.0566 10.3316 3.56175 12.0004 3.56175C13.6692 3.56175 15.3005 4.0566 16.688 4.98372C18.0755 5.91084 19.157 7.22859 19.7956 8.77033C20.4342 10.3121 20.6013 12.0086 20.2758 13.6453C19.9502 15.282 19.1466 16.7854 17.9666 17.9654V17.9664Z" fill="black"/>
</svg>
