<svg width="24" height="24" viewBox="0 0 24 24" fill="none" xmlns="http://www.w3.org/2000/svg">
<path d="M22.148 4.1475C22.2265 4.06884 22.28 3.96865 22.3017 3.8596C22.3234 3.75055 22.3122 3.63753 22.2697 3.53481C22.2272 3.43208 22.1551 3.34427 22.0627 3.28246C21.9703 3.22064 21.8617 3.1876 21.7505 3.1875H2.25048C2.1393 3.1876 2.03064 3.22064 1.93823 3.28246C1.84582 3.34427 1.7738 3.43208 1.73127 3.53481C1.68873 3.63753 1.67759 3.75055 1.69926 3.8596C1.72092 3.96865 1.77441 4.06884 1.85298 4.1475L11.438 13.7334V19.6875H8.25048C8.1013 19.6875 7.95822 19.7468 7.85274 19.8523C7.74725 19.9577 7.68798 20.1008 7.68798 20.25C7.68798 20.3992 7.74725 20.5423 7.85274 20.6477C7.95822 20.7532 8.1013 20.8125 8.25048 20.8125H15.7505C15.8997 20.8125 16.0427 20.7532 16.1482 20.6477C16.2537 20.5423 16.313 20.3992 16.313 20.25C16.313 20.1008 16.2537 19.9577 16.1482 19.8523C16.0427 19.7468 15.8997 19.6875 15.7505 19.6875H12.563V13.7334L22.148 4.1475ZM6.60892 7.3125H17.3902L12.0005 12.7041L6.60892 7.3125ZM20.3902 4.3125L18.5152 6.1875H5.48392L3.60892 4.3125H20.3902Z" fill="black"/>
</svg>
