<svg width="24" height="24" viewBox="0 0 24 24" fill="none" xmlns="http://www.w3.org/2000/svg">
<path d="M17.6691 11.6251C17.7203 11.6798 17.7601 11.7442 17.7862 11.8145C17.8122 11.8848 17.8239 11.9596 17.8206 12.0345C17.8173 12.1093 17.7991 12.1828 17.767 12.2506C17.7349 12.3183 17.6896 12.3789 17.6337 12.4289C17.5779 12.4789 17.5126 12.5172 17.4417 12.5416C17.3708 12.566 17.2958 12.576 17.221 12.571C17.1462 12.566 17.0732 12.5461 17.0062 12.5124C16.9392 12.4788 16.8796 12.4321 16.8309 12.3751C16.5441 12.0545 15.9178 11.8126 15.375 11.8126C14.8322 11.8126 14.2059 12.0545 13.9191 12.3751C13.8186 12.4823 13.6801 12.546 13.5333 12.5524C13.3865 12.5589 13.243 12.5076 13.1335 12.4096C13.024 12.3116 12.9572 12.1747 12.9474 12.0281C12.9376 11.8815 12.9855 11.7368 13.0809 11.6251C13.5825 11.0626 14.505 10.6876 15.375 10.6876C16.245 10.6876 17.1675 11.0626 17.6691 11.6251ZM10.0809 12.3751C10.1296 12.4321 10.1892 12.4788 10.2562 12.5124C10.3232 12.5461 10.3962 12.566 10.471 12.571C10.5458 12.576 10.6208 12.566 10.6917 12.5416C10.7626 12.5172 10.8279 12.4789 10.8837 12.4289C10.9396 12.3789 10.9849 12.3183 11.017 12.2506C11.0491 12.1828 11.0673 12.1093 11.0706 12.0345C11.0739 11.9596 11.0622 11.8848 11.0362 11.8145C11.0101 11.7442 10.9703 11.6798 10.9191 11.6251C10.4175 11.0626 9.495 10.6876 8.625 10.6876C7.755 10.6876 6.8325 11.0626 6.33094 11.6251C6.27968 11.6798 6.23987 11.7442 6.21384 11.8145C6.18782 11.8848 6.17611 11.9596 6.1794 12.0345C6.18269 12.1093 6.20092 12.1828 6.23301 12.2506C6.2651 12.3183 6.3104 12.3789 6.36626 12.4289C6.42212 12.4789 6.48741 12.5172 6.55828 12.5416C6.62916 12.566 6.7042 12.576 6.77899 12.571C6.85378 12.566 6.92682 12.5461 6.9938 12.5124C7.06079 12.4788 7.12038 12.4321 7.16906 12.3751C7.45594 12.0545 8.08219 11.8126 8.625 11.8126C9.16781 11.8126 9.79406 12.0545 10.0809 12.3751ZM15.5869 15.3217C15.5307 15.2737 15.4656 15.2373 15.3953 15.2145C15.325 15.1917 15.251 15.1829 15.1773 15.1888C15.1036 15.1946 15.0319 15.2149 14.9661 15.2485C14.9002 15.2821 14.8417 15.3283 14.7938 15.3845C14.4515 15.7926 14.0241 16.1208 13.5414 16.346C13.0587 16.5711 12.5326 16.6878 12 16.6878C11.4674 16.6878 10.9413 16.5711 10.4586 16.346C9.97593 16.1208 9.54846 15.7926 9.20625 15.3845C9.1583 15.3283 9.09974 15.2821 9.03393 15.2485C8.96812 15.2149 8.89635 15.1946 8.8227 15.1888C8.74905 15.183 8.67497 15.1917 8.6047 15.2145C8.53442 15.2373 8.46933 15.2737 8.41313 15.3217C8.35692 15.3696 8.31072 15.4282 8.27714 15.494C8.24357 15.5598 8.22329 15.6316 8.21746 15.7052C8.21162 15.7789 8.22036 15.8529 8.24315 15.9232C8.26595 15.9935 8.30236 16.0586 8.35031 16.1148C8.79824 16.6466 9.35697 17.074 9.98739 17.3673C10.6178 17.6606 11.3047 17.8125 12 17.8125C12.6953 17.8125 13.3822 17.6606 14.0126 17.3673C14.643 17.074 15.2018 16.6466 15.6497 16.1148C15.6976 16.0586 15.7341 15.9935 15.7569 15.9232C15.7797 15.853 15.7884 15.7789 15.7826 15.7052C15.7767 15.6316 15.7565 15.5598 15.7229 15.494C15.6893 15.4282 15.6431 15.3696 15.5869 15.3217ZM20.8125 4.50011V9.72854C20.8125 13.052 19.9191 16.1842 18.2972 18.5467C16.6312 20.9757 14.3944 22.3126 12 22.3126C9.60563 22.3126 7.36875 20.9757 5.70281 18.5476C4.08094 16.1851 3.1875 13.0529 3.1875 9.72948V4.50011C3.18831 4.28723 3.24089 4.07775 3.34071 3.88972C3.44052 3.7017 3.58457 3.54077 3.76043 3.42082C3.9363 3.30087 4.1387 3.2255 4.35018 3.2012C4.56167 3.17691 4.77589 3.20442 4.97438 3.28136C6.30469 3.79323 8.98688 4.65948 12 4.65948C15.0131 4.65948 17.6953 3.79323 19.0256 3.28136C19.2241 3.20442 19.4383 3.17691 19.6498 3.2012C19.8613 3.2255 20.0637 3.30087 20.2396 3.42082C20.4154 3.54077 20.5595 3.7017 20.6593 3.88972C20.7591 4.07775 20.8117 4.28723 20.8125 4.50011ZM19.6875 4.50011C19.6877 4.46948 19.6803 4.43928 19.6661 4.41215C19.6519 4.38502 19.6312 4.36179 19.6059 4.34448C19.581 4.32684 19.5521 4.31578 19.5217 4.31234C19.4914 4.3089 19.4607 4.31318 19.4325 4.32479C18.0291 4.87511 15.1969 5.78448 12 5.78448C8.80313 5.78448 5.97094 4.87511 4.5675 4.32573C4.53916 4.3147 4.50857 4.31073 4.47835 4.31416C4.44814 4.31759 4.41921 4.32832 4.39406 4.34542C4.36892 4.36263 4.34836 4.38572 4.33414 4.41267C4.31993 4.43962 4.3125 4.46964 4.3125 4.50011V9.72761C4.3125 16.0473 7.76156 21.1876 12 21.1876C16.2384 21.1876 19.6875 16.0473 19.6875 9.72948V4.50011Z" fill="black"/>
</svg>
