<svg width="24" height="24" viewBox="0 0 24 24" fill="none" xmlns="http://www.w3.org/2000/svg">
<path d="M14.7188 17.5614C14.6778 17.6229 14.6252 17.6757 14.5638 17.7168C14.5025 17.758 14.4336 17.7867 14.3612 17.8012C14.2887 17.8157 14.2142 17.8159 14.1417 17.8016C14.0692 17.7873 14.0002 17.7589 13.9387 17.7179C13.3134 17.3026 12.7959 17.0617 12 17.0617C11.2041 17.0617 10.6875 17.3017 10.0612 17.7179C9.99969 17.7588 9.93069 17.7871 9.85817 17.8013C9.78566 17.8156 9.71106 17.8153 9.63863 17.8007C9.5662 17.7861 9.49736 17.7573 9.43604 17.7161C9.37472 17.6749 9.32212 17.622 9.28125 17.5604C9.24038 17.4989 9.21203 17.4299 9.19782 17.3573C9.18362 17.2848 9.18383 17.2102 9.19846 17.1378C9.21308 17.0654 9.24183 16.9965 9.28306 16.9352C9.32429 16.8739 9.37719 16.8213 9.43875 16.7804C10.2009 16.2742 10.9275 15.9367 12 15.9367C13.0725 15.9367 13.7991 16.2742 14.5613 16.7804C14.623 16.8213 14.676 16.8739 14.7173 16.9353C14.7586 16.9967 14.7874 17.0657 14.8021 17.1382C14.8167 17.2107 14.8169 17.2855 14.8026 17.3581C14.7883 17.4307 14.7598 17.4998 14.7188 17.5614ZM16.8309 10.8751C16.5441 11.1957 15.9178 11.4376 15.375 11.4376C14.8322 11.4376 14.2059 11.1957 13.9191 10.8751C13.8704 10.8181 13.8108 10.7714 13.7438 10.7378C13.6768 10.7041 13.6038 10.6842 13.529 10.6792C13.4542 10.6742 13.3792 10.6842 13.3083 10.7086C13.2374 10.733 13.1721 10.7713 13.1163 10.8213C13.0604 10.8713 13.0151 10.9319 12.983 10.9997C12.9509 11.0674 12.9327 11.1409 12.9294 11.2158C12.9261 11.2906 12.9378 11.3654 12.9638 11.4357C12.9899 11.506 13.0297 11.5704 13.0809 11.6251C13.5825 12.1876 14.505 12.5626 15.375 12.5626C16.245 12.5626 17.1675 12.1876 17.6691 11.6251C17.7203 11.5704 17.7601 11.506 17.7862 11.4357C17.8122 11.3654 17.8239 11.2906 17.8206 11.2158C17.8173 11.1409 17.7991 11.0674 17.767 10.9997C17.7349 10.9319 17.6896 10.8713 17.6337 10.8213C17.5779 10.7713 17.5126 10.733 17.4417 10.7086C17.3708 10.6842 17.2958 10.6742 17.221 10.6792C17.1462 10.6842 17.0732 10.7041 17.0062 10.7378C16.9392 10.7714 16.8796 10.8181 16.8309 10.8751ZM20.8125 4.50011V9.72854C20.8125 13.052 19.9191 16.1842 18.2972 18.5467C16.6312 20.9757 14.3944 22.3126 12 22.3126C9.60563 22.3126 7.36875 20.9757 5.70281 18.5476C4.08094 16.1851 3.1875 13.0529 3.1875 9.72948V4.50011C3.18831 4.28723 3.24089 4.07775 3.34071 3.88972C3.44052 3.7017 3.58457 3.54077 3.76043 3.42082C3.9363 3.30087 4.1387 3.2255 4.35018 3.2012C4.56167 3.17691 4.77589 3.20442 4.97438 3.28136C6.30469 3.79323 8.98688 4.65948 12 4.65948C15.0131 4.65948 17.6953 3.79323 19.0256 3.28136C19.2241 3.20442 19.4383 3.17691 19.6498 3.2012C19.8613 3.2255 20.0637 3.30087 20.2396 3.42082C20.4154 3.54077 20.5595 3.7017 20.6593 3.88972C20.7591 4.07775 20.8117 4.28723 20.8125 4.50011ZM19.6875 4.50011C19.6876 4.46963 19.6802 4.43959 19.666 4.4126C19.6519 4.38561 19.6313 4.36248 19.6062 4.34521C19.5811 4.32795 19.5522 4.31706 19.5219 4.3135C19.4916 4.30995 19.4609 4.31382 19.4325 4.32479C18.0291 4.87511 15.1969 5.78448 12 5.78448C8.80313 5.78448 5.97094 4.87511 4.5675 4.32573C4.53916 4.3147 4.50857 4.31073 4.47835 4.31416C4.44814 4.31759 4.41921 4.32832 4.39406 4.34542C4.36892 4.36263 4.34836 4.38572 4.33414 4.41267C4.31993 4.43962 4.3125 4.46964 4.3125 4.50011V9.72761C4.3125 16.0473 7.76156 21.1876 12 21.1876C16.2384 21.1876 19.6875 16.0473 19.6875 9.72948V4.50011ZM10.9191 11.6251C10.9703 11.5704 11.0101 11.506 11.0362 11.4357C11.0622 11.3654 11.0739 11.2906 11.0706 11.2158C11.0673 11.1409 11.0491 11.0674 11.017 10.9997C10.9849 10.9319 10.9396 10.8713 10.8837 10.8213C10.8279 10.7713 10.7626 10.733 10.6917 10.7086C10.6208 10.6842 10.5458 10.6742 10.471 10.6792C10.3962 10.6842 10.3232 10.7041 10.2562 10.7378C10.1892 10.7714 10.1296 10.8181 10.0809 10.8751C9.79406 11.1957 9.16781 11.4376 8.625 11.4376C8.08219 11.4376 7.45594 11.1957 7.16906 10.8751C7.06858 10.7679 6.93013 10.7043 6.78333 10.6978C6.63654 10.6914 6.49304 10.7426 6.38354 10.8406C6.27404 10.9386 6.20723 11.0755 6.1974 11.2221C6.18757 11.3687 6.2355 11.5134 6.33094 11.6251C6.8325 12.1876 7.755 12.5626 8.625 12.5626C9.495 12.5626 10.4175 12.1876 10.9191 11.6251Z" fill="black"/>
</svg>
