<svg width="24" height="24" viewBox="0 0 24 24" fill="none" xmlns="http://www.w3.org/2000/svg">
<path d="M10.3125 6.74988C10.3125 6.89907 10.2532 7.04214 10.1477 7.14763C10.0423 7.25312 9.89918 7.31238 9.75 7.31238H3.75C3.60082 7.31238 3.45774 7.25312 3.35225 7.14763C3.24676 7.04214 3.1875 6.89907 3.1875 6.74988C3.1875 6.6007 3.24676 6.45763 3.35225 6.35214C3.45774 6.24665 3.60082 6.18738 3.75 6.18738H9.75C9.89918 6.18738 10.0423 6.24665 10.1477 6.35214C10.2532 6.45763 10.3125 6.6007 10.3125 6.74988ZM9.75 16.6874H7.3125V14.2499C7.3125 14.1007 7.25324 13.9576 7.14775 13.8521C7.04226 13.7466 6.89918 13.6874 6.75 13.6874C6.60082 13.6874 6.45774 13.7466 6.35225 13.8521C6.24676 13.9576 6.1875 14.1007 6.1875 14.2499V16.6874H3.75C3.60082 16.6874 3.45774 16.7466 3.35225 16.8521C3.24676 16.9576 3.1875 17.1007 3.1875 17.2499C3.1875 17.3991 3.24676 17.5421 3.35225 17.6476C3.45774 17.7531 3.60082 17.8124 3.75 17.8124H6.1875V20.2499C6.1875 20.3991 6.24676 20.5421 6.35225 20.6476C6.45774 20.7531 6.60082 20.8124 6.75 20.8124C6.89918 20.8124 7.04226 20.7531 7.14775 20.6476C7.25324 20.5421 7.3125 20.3991 7.3125 20.2499V17.8124H9.75C9.89918 17.8124 10.0423 17.7531 10.1477 17.6476C10.2532 17.5421 10.3125 17.3991 10.3125 17.2499C10.3125 17.1007 10.2532 16.9576 10.1477 16.8521C10.0423 16.7466 9.89918 16.6874 9.75 16.6874ZM14.25 16.3124H20.25C20.3992 16.3124 20.5423 16.2531 20.6477 16.1476C20.7532 16.0421 20.8125 15.8991 20.8125 15.7499C20.8125 15.6007 20.7532 15.4576 20.6477 15.3521C20.5423 15.2466 20.3992 15.1874 20.25 15.1874H14.25C14.1008 15.1874 13.9577 15.2466 13.8523 15.3521C13.7468 15.4576 13.6875 15.6007 13.6875 15.7499C13.6875 15.8991 13.7468 16.0421 13.8523 16.1476C13.9577 16.2531 14.1008 16.3124 14.25 16.3124ZM20.25 18.1874H14.25C14.1008 18.1874 13.9577 18.2466 13.8523 18.3521C13.7468 18.4576 13.6875 18.6007 13.6875 18.7499C13.6875 18.8991 13.7468 19.0421 13.8523 19.1476C13.9577 19.2531 14.1008 19.3124 14.25 19.3124H20.25C20.3992 19.3124 20.5423 19.2531 20.6477 19.1476C20.7532 19.0421 20.8125 18.8991 20.8125 18.7499C20.8125 18.6007 20.7532 18.4576 20.6477 18.3521C20.5423 18.2466 20.3992 18.1874 20.25 18.1874ZM14.6025 9.39738C14.708 9.50272 14.8509 9.56189 15 9.56189C15.1491 9.56189 15.292 9.50272 15.3975 9.39738L17.25 7.54582L19.1025 9.39738C19.2091 9.49674 19.3502 9.55084 19.4959 9.54827C19.6416 9.5457 19.7807 9.48666 19.8837 9.3836C19.9868 9.28054 20.0458 9.1415 20.0484 8.99578C20.051 8.85005 19.9969 8.70902 19.8975 8.60239L18.0459 6.74988L19.8975 4.89739C19.9969 4.79075 20.051 4.64972 20.0484 4.50399C20.0458 4.35827 19.9868 4.21923 19.8837 4.11617C19.7807 4.01311 19.6416 3.95407 19.4959 3.9515C19.3502 3.94893 19.2091 4.00302 19.1025 4.10238L17.25 5.95395L15.3975 4.10238C15.2909 4.00302 15.1498 3.94893 15.0041 3.9515C14.8584 3.95407 14.7193 4.01311 14.6163 4.11617C14.5132 4.21923 14.4542 4.35827 14.4516 4.50399C14.449 4.64972 14.5031 4.79075 14.6025 4.89739L16.4541 6.74988L14.6025 8.60239C14.4972 8.70785 14.438 8.85082 14.438 8.99988C14.438 9.14895 14.4972 9.29192 14.6025 9.39738Z" fill="black"/>
</svg>
