<svg width="24" height="24" viewBox="0 0 24 24" fill="none" xmlns="http://www.w3.org/2000/svg">
<path d="M23.0625 11.2499C23.0613 10.1066 22.6065 9.01038 21.7981 8.2019C20.9896 7.39342 19.8934 6.93867 18.75 6.93743H15.0141C14.7722 6.92337 9.94222 6.60274 5.34378 2.74587C5.15248 2.58532 4.91935 2.48268 4.67175 2.45C4.42416 2.41733 4.17238 2.45597 3.94598 2.56139C3.71958 2.66682 3.52796 2.83465 3.39362 3.04517C3.25927 3.2557 3.18778 3.50019 3.18753 3.74993V18.7499C3.18584 18.9999 3.25633 19.245 3.39053 19.4559C3.52473 19.6667 3.71695 19.8344 3.94409 19.9387C4.11827 20.0197 4.30795 20.0619 4.50003 20.0624C4.80907 20.0626 5.10811 19.953 5.34378 19.7531C9.09378 16.6106 12.991 15.8156 14.4375 15.6215V18.809C14.4375 19.025 14.4907 19.2378 14.5926 19.4283C14.6945 19.6188 14.8419 19.7813 15.0216 19.9012L16.0528 20.5884C16.2273 20.7045 16.427 20.7772 16.6352 20.8004C16.8435 20.8236 17.0543 20.7965 17.25 20.7215C17.4457 20.6465 17.6206 20.5258 17.76 20.3694C17.8995 20.2129 17.9995 20.0254 18.0516 19.8224L19.1888 15.5371C20.25 15.4271 21.2329 14.9283 21.9481 14.1367C22.6634 13.3451 23.0603 12.3168 23.0625 11.2499ZM4.62097 18.8924C4.59371 18.9154 4.56045 18.9302 4.5251 18.935C4.48975 18.9397 4.45377 18.9343 4.42139 18.9194C4.38901 18.9044 4.36156 18.8805 4.34228 18.8505C4.323 18.8205 4.31268 18.7856 4.31253 18.7499V3.74993C4.31152 3.71423 4.32125 3.67906 4.34048 3.64897C4.3597 3.61888 4.38753 3.59526 4.42034 3.58118C4.44528 3.56936 4.47244 3.56297 4.50003 3.56243C4.54357 3.56257 4.58556 3.57857 4.61815 3.60743C8.74315 7.06868 12.9619 7.84399 14.4347 8.01368V14.4824C12.9647 14.6559 8.7469 15.4321 4.62097 18.8924ZM16.9622 19.5487C16.9549 19.5778 16.9408 19.6048 16.9209 19.6274C16.901 19.6499 16.876 19.6673 16.8479 19.6782C16.8199 19.689 16.7897 19.693 16.7598 19.6897C16.7299 19.6864 16.7013 19.676 16.6763 19.6593L15.645 18.9721C15.6193 18.9549 15.5982 18.9316 15.5836 18.9043C15.5691 18.877 15.5615 18.8465 15.5616 18.8156V15.5624H18.0178L16.9622 19.5487ZM18.75 14.4374H15.5625V8.06243H18.75C19.5954 8.06243 20.4062 8.39825 21.0039 8.99602C21.6017 9.5938 21.9375 10.4046 21.9375 11.2499C21.9375 12.0953 21.6017 12.9061 21.0039 13.5038C20.4062 14.1016 19.5954 14.4374 18.75 14.4374Z" fill="black"/>
</svg>
