<svg width="24" height="24" viewBox="0 0 24 24" fill="none" xmlns="http://www.w3.org/2000/svg">
<path d="M21.375 8.30543L4.8675 3.24293C4.67212 3.18594 4.46616 3.17517 4.2659 3.21147C4.06564 3.24777 3.87657 3.33015 3.71362 3.45209C3.55068 3.57402 3.41832 3.73219 3.32701 3.91408C3.2357 4.09596 3.18794 4.2966 3.1875 4.50012V18.0001C3.1875 18.3482 3.32578 18.6821 3.57192 18.9282C3.81806 19.1743 4.1519 19.3126 4.5 19.3126C4.62696 19.3117 4.75317 19.2931 4.875 19.2573L12.9375 16.7814V18.0001C12.9375 18.3482 13.0758 18.6821 13.3219 18.9282C13.5681 19.1743 13.9019 19.3126 14.25 19.3126H17.25C17.5981 19.3126 17.9319 19.1743 18.1781 18.9282C18.4242 18.6821 18.5625 18.3482 18.5625 18.0001V15.0582L21.375 14.1967C21.6455 14.1149 21.8826 13.9485 22.0514 13.7218C22.2202 13.4951 22.3117 13.2202 22.3125 12.9376V9.56262C22.3124 9.28007 22.2211 9.00511 22.0522 8.77861C21.8833 8.55211 21.6458 8.38616 21.375 8.30543ZM4.5525 18.1801C4.52456 18.1883 4.4951 18.1898 4.46646 18.1846C4.43782 18.1794 4.41079 18.1676 4.3875 18.1501C4.36421 18.1327 4.34531 18.11 4.3323 18.084C4.31928 18.0579 4.3125 18.0292 4.3125 18.0001V4.50012C4.3125 4.47101 4.31928 4.4423 4.3323 4.41627C4.34531 4.39023 4.36421 4.36758 4.3875 4.35012C4.42011 4.32607 4.45948 4.31295 4.5 4.31262C4.51559 4.31297 4.53105 4.3155 4.54594 4.32012L12.9375 6.89356V15.6076L4.5525 18.1801ZM17.4375 18.0001C17.4375 18.0498 17.4177 18.0975 17.3826 18.1327C17.3474 18.1679 17.2997 18.1876 17.25 18.1876H14.25C14.2003 18.1876 14.1526 18.1679 14.1174 18.1327C14.0823 18.0975 14.0625 18.0498 14.0625 18.0001V16.4392L17.4375 15.4079V18.0001ZM21.1875 12.9376C21.1875 12.9782 21.1743 13.0177 21.15 13.0501C21.1257 13.0826 21.0914 13.1063 21.0525 13.1176H21.045L14.0625 15.2626V7.23856L21.0525 9.38262C21.0914 9.39398 21.1257 9.41766 21.15 9.45012C21.1743 9.48257 21.1875 9.52205 21.1875 9.56262V12.9376Z" fill="black"/>
</svg>
