<svg width="24" height="24" viewBox="0 0 24 24" fill="none" xmlns="http://www.w3.org/2000/svg">
<path d="M9.00033 11.4374C8.29574 11.4374 7.60697 11.6463 7.02112 12.0378C6.43527 12.4292 5.97865 12.9856 5.70901 13.6366C5.43938 14.2875 5.36883 15.0038 5.50629 15.6949C5.64375 16.386 5.98304 17.0207 6.48127 17.519C6.97949 18.0172 7.61427 18.3565 8.30533 18.4939C8.99638 18.6314 9.71268 18.5608 10.3636 18.2912C11.0146 18.0216 11.571 17.565 11.9624 16.9791C12.3539 16.3933 12.5628 15.7045 12.5628 14.9999C12.5628 14.0551 12.1875 13.1489 11.5194 12.4808C10.8513 11.8127 9.94517 11.4374 9.00033 11.4374ZM9.00033 17.4374C8.51824 17.4374 8.04698 17.2944 7.64613 17.0266C7.24529 16.7588 6.93287 16.3781 6.74838 15.9327C6.56389 15.4873 6.51562 14.9972 6.60967 14.5244C6.70372 14.0515 6.93587 13.6172 7.27676 13.2763C7.61765 12.9354 8.05197 12.7033 8.5248 12.6092C8.99763 12.5152 9.48773 12.5634 9.93313 12.7479C10.3785 12.9324 10.7592 13.2448 11.027 13.6457C11.2949 14.0465 11.4378 14.5178 11.4378 14.9999C11.4378 15.6464 11.181 16.2663 10.7239 16.7235C10.2668 17.1806 9.6468 17.4374 9.00033 17.4374ZM20.6478 11.6024C20.7532 11.7079 20.8123 11.8508 20.8123 11.9999C20.8123 12.1489 20.7532 12.2919 20.6478 12.3974L16.1478 16.8974C16.0412 16.9967 15.9002 17.0508 15.7544 17.0483C15.6087 17.0457 15.4697 16.9867 15.3666 16.8836C15.2636 16.7805 15.2045 16.6415 15.202 16.4958C15.1994 16.3501 15.2535 16.209 15.3528 16.1024L19.8528 11.6024C19.9583 11.497 20.1013 11.4379 20.2503 11.4379C20.3994 11.4379 20.5424 11.497 20.6478 11.6024ZM15.3978 12.3974C15.2912 12.4967 15.1502 12.5508 15.0044 12.5483C14.8587 12.5457 14.7197 12.4867 14.6166 12.3836C14.5136 12.2805 14.4545 12.1415 14.452 11.9958C14.4494 11.8501 14.5035 11.709 14.6028 11.6024L16.8528 9.35239C16.9595 9.25303 17.1005 9.19893 17.2462 9.2015C17.392 9.20407 17.531 9.26311 17.6341 9.36617C17.7371 9.46923 17.7961 9.60827 17.7987 9.75399C17.8013 9.89972 17.7472 10.0408 17.6478 10.1474L15.3978 12.3974ZM21.3978 6.39738L19.8978 7.89738C19.7912 7.99674 19.6502 8.05084 19.5044 8.04827C19.3587 8.0457 19.2197 7.98666 19.1166 7.8836C19.0136 7.78054 18.9545 7.6415 18.952 7.49578C18.9494 7.35005 19.0035 7.20902 19.1028 7.10239L20.6028 5.60238C20.7095 5.50302 20.8505 5.44893 20.9962 5.4515C21.142 5.45407 21.281 5.51311 21.3841 5.61617C21.4871 5.71923 21.5461 5.85827 21.5487 6.00399C21.5513 6.14972 21.4972 6.29075 21.3978 6.39738ZM11.6028 8.60239L18.3528 1.85238C18.4595 1.75302 18.6005 1.69893 18.7462 1.7015C18.892 1.70407 19.031 1.76311 19.1341 1.86617C19.2371 1.96923 19.2961 2.10827 19.2987 2.25399C19.3013 2.39972 19.2472 2.54075 19.1478 2.64738L12.3978 9.39738C12.3463 9.45265 12.2842 9.49698 12.2152 9.52772C12.1462 9.55846 12.0718 9.575 11.9962 9.57633C11.9207 9.57766 11.8457 9.56377 11.7756 9.53548C11.7056 9.50719 11.642 9.46508 11.5886 9.41166C11.5351 9.35825 11.493 9.29462 11.4647 9.22458C11.4365 9.15454 11.4226 9.07952 11.4239 9.00399C11.4252 8.92847 11.4418 8.85398 11.4725 8.78498C11.5032 8.71598 11.5476 8.65388 11.6028 8.60239ZM13.641 18.8436C13.6933 18.8959 13.7347 18.9579 13.7631 19.0262C13.7914 19.0945 13.8059 19.1677 13.8059 19.2416C13.8059 19.3155 13.7914 19.3887 13.7631 19.457C13.7347 19.5253 13.6933 19.5873 13.641 19.6396C12.4102 20.8703 10.7409 21.5618 9.00033 21.5618C7.25976 21.5618 5.59048 20.8703 4.35971 19.6396C3.12894 18.4088 2.4375 16.7395 2.4375 14.9989C2.4375 13.2584 3.12894 11.5891 4.35971 10.3583L12.1175 2.60145C12.169 2.54618 12.2311 2.50186 12.3001 2.47111C12.3691 2.44037 12.4436 2.42384 12.5191 2.4225C12.5947 2.42117 12.6697 2.43506 12.7397 2.46336C12.8098 2.49165 12.8734 2.53375 12.9268 2.58717C12.9802 2.64058 13.0223 2.70421 13.0506 2.77425C13.0789 2.84429 13.0928 2.91931 13.0915 2.99484C13.0901 3.07037 13.0736 3.14485 13.0429 3.21385C13.0121 3.28285 12.9678 3.34495 12.9125 3.39645L5.15658 11.1561C4.63142 11.6563 4.21162 12.2564 3.92188 12.9213C3.63215 13.5861 3.47833 14.3022 3.46949 15.0273C3.46065 15.7525 3.59696 16.4721 3.8704 17.1438C4.14384 17.8155 4.54888 18.4257 5.06169 18.9385C5.5745 19.4513 6.18471 19.8564 6.85641 20.1298C7.5281 20.4033 8.24771 20.5396 8.97288 20.5307C9.69805 20.5219 10.4141 20.3681 11.0789 20.0783C11.7438 19.7886 12.3439 19.3688 12.8441 18.8436C12.8963 18.7912 12.9584 18.7496 13.0268 18.7212C13.0952 18.6928 13.1685 18.6782 13.2425 18.6782C13.3166 18.6782 13.3899 18.6928 13.4582 18.7212C13.5266 18.7496 13.5887 18.7912 13.641 18.8436Z" fill="black"/>
</svg>
