<svg width="24" height="24" viewBox="0 0 24 24" fill="none" xmlns="http://www.w3.org/2000/svg">
<path d="M19.9998 19.1016L17.3326 10.7194L19.9154 7.87501C19.9998 7.76265 20.039 7.62279 20.0255 7.48295C20.0119 7.34311 19.9465 7.21341 19.8421 7.11937C19.7377 7.02533 19.6019 6.97375 19.4614 6.9748C19.3209 6.97584 19.1859 7.02943 19.0829 7.12501L16.9389 9.48469L15.227 4.10157C15.1432 3.83578 14.9767 3.60372 14.7517 3.43927C14.5267 3.27483 14.255 3.18662 13.9764 3.18751H10.0239C9.74517 3.18662 9.47351 3.27483 9.24852 3.43927C9.02353 3.60372 8.85699 3.83578 8.77323 4.10157L4.00042 19.1016C3.93775 19.2982 3.92236 19.5069 3.95549 19.7107C3.98862 19.9144 4.06934 20.1075 4.19109 20.2742C4.31285 20.4408 4.4722 20.5765 4.6562 20.67C4.84021 20.7635 5.04369 20.8124 5.2501 20.8125H18.7501C18.9566 20.8125 19.1602 20.7638 19.3443 20.6703C19.5284 20.5768 19.6879 20.4412 19.8098 20.2745C19.9316 20.1078 20.0124 19.9147 20.0456 19.7109C20.0788 19.5071 20.0634 19.2983 20.0007 19.1016H19.9998ZM17.5735 15.1875H13.2714L16.4589 11.6822L17.5735 15.1875ZM9.84385 4.44282C9.85605 4.40475 9.88009 4.37157 9.91247 4.34812C9.94485 4.32468 9.98388 4.3122 10.0239 4.31251H13.9764C14.0163 4.3122 14.0554 4.32468 14.0877 4.34812C14.1201 4.37157 14.1442 4.40475 14.1564 4.44282L16.0651 10.4428L11.7526 15.1875H6.42667L9.84385 4.44282ZM18.9001 19.6106C18.8832 19.6346 18.8607 19.6541 18.8345 19.6675C18.8084 19.6809 18.7795 19.6877 18.7501 19.6875H5.2501C5.22062 19.6874 5.19156 19.6804 5.1653 19.667C5.13904 19.6536 5.11631 19.6342 5.09896 19.6104C5.0816 19.5865 5.07012 19.5589 5.06543 19.5298C5.06074 19.5007 5.06298 19.4709 5.07198 19.4428L6.06854 16.3125H17.9317L18.9273 19.4428C18.9368 19.4709 18.9392 19.5009 18.9345 19.5301C18.9298 19.5593 18.918 19.587 18.9001 19.6106Z" fill="black"/>
</svg>
