<svg width="24" height="24" viewBox="0 0 24 24" fill="none" xmlns="http://www.w3.org/2000/svg">
<path d="M15.7502 1.6875C14.8091 1.68687 13.8788 1.88884 13.0227 2.2797C12.1666 2.67056 11.4046 3.24114 10.7886 3.95267C10.1726 4.6642 9.71697 5.50001 9.45271 6.40329C9.18845 7.30657 9.12174 8.25615 9.25711 9.1875L2.69461 18.1369C2.50793 18.3891 2.41835 18.7 2.44228 19.0129C2.46621 19.3257 2.60205 19.6195 2.82492 19.8403L4.16555 21.1809C4.38649 21.4036 4.68021 21.5394 4.993 21.5633C5.30579 21.5872 5.61674 21.4977 5.86898 21.3113L14.8184 14.7488C15.7091 14.8738 16.6161 14.8144 17.4829 14.5742C18.3498 14.334 19.158 13.9182 19.8574 13.3526C20.5568 12.7869 21.1324 12.0836 21.5486 11.2861C21.9647 10.4887 22.2125 9.61421 22.2765 8.717C22.3405 7.81978 22.2194 6.91898 21.9207 6.07054C21.622 5.22209 21.152 4.44412 20.54 3.78492C19.928 3.12572 19.187 2.59938 18.363 2.23857C17.5391 1.87776 16.6497 1.69019 15.7502 1.6875ZM21.1877 8.25C21.1889 9.49772 20.7583 10.7074 19.969 11.6738L12.3274 4.03125C13.1245 3.38311 14.089 2.97427 15.1091 2.85214C16.1291 2.73001 17.1629 2.89961 18.0905 3.34126C19.018 3.78291 19.8014 4.4785 20.3496 5.34735C20.8978 6.21619 21.1884 7.22266 21.1877 8.25ZM5.20336 20.3991C5.1672 20.4256 5.12273 20.4383 5.07801 20.4349C5.03329 20.4314 4.99128 20.4121 4.95961 20.3803L3.61992 19.0406C3.58816 19.009 3.5688 18.9669 3.56536 18.9222C3.56192 18.8775 3.57462 18.833 3.60117 18.7969L9.6218 10.5881C9.953 11.4502 10.4616 12.2331 11.1147 12.8861C11.7679 13.539 12.5509 14.0475 13.413 14.3784L5.20336 20.3991ZM10.3127 8.25C10.3122 7.00239 10.7428 5.79292 11.5315 4.82625L19.1749 12.4688C18.3773 13.1155 17.4128 13.5232 16.3932 13.6446C15.3735 13.766 14.3403 13.5962 13.4131 13.1548C12.4859 12.7135 11.7026 12.0186 11.154 11.1505C10.6053 10.2825 10.3136 9.27689 10.3127 8.25ZM10.1487 13.8516C10.201 13.9038 10.2425 13.9658 10.2708 14.0341C10.2991 14.1024 10.3136 14.1756 10.3136 14.2495C10.3136 14.3235 10.2991 14.3967 10.2708 14.4649C10.2425 14.5332 10.201 14.5953 10.1487 14.6475L9.39867 15.3975C9.34641 15.4498 9.28437 15.4912 9.21608 15.5195C9.1478 15.5478 9.07461 15.5623 9.0007 15.5623C8.92679 15.5623 8.85361 15.5478 8.78532 15.5195C8.71704 15.4912 8.655 15.4498 8.60273 15.3975C8.55047 15.3452 8.50902 15.2832 8.48073 15.2149C8.45245 15.1466 8.43789 15.0734 8.43789 14.9995C8.43789 14.9256 8.45245 14.8524 8.48073 14.7842C8.50902 14.7159 8.55047 14.6538 8.60273 14.6016L9.35273 13.8516C9.40493 13.7991 9.46698 13.7574 9.53532 13.7289C9.60366 13.7004 9.67694 13.6857 9.75098 13.6857C9.82501 13.6856 9.89833 13.7001 9.96674 13.7284C10.0351 13.7567 10.0973 13.7982 10.1496 13.8506L10.1487 13.8516Z" fill="black"/>
</svg>
