<svg width="24" height="24" viewBox="0 0 24 24" fill="none" xmlns="http://www.w3.org/2000/svg">
<path d="M19.9159 20.6249L4.91587 4.12493C4.8129 4.02935 4.67788 3.97577 4.53738 3.97472C4.39689 3.97368 4.26109 4.02525 4.1567 4.11929C4.05232 4.21333 3.98691 4.34303 3.97333 4.48287C3.95976 4.62272 3.99902 4.76257 4.08337 4.87493L7.68712 8.84243V11.9999C7.68703 12.7439 7.87941 13.4752 8.24556 14.1229C8.6117 14.7705 9.13917 15.3124 9.77668 15.6959C10.4142 16.0794 11.1401 16.2914 11.8838 16.3114C12.6275 16.3314 13.3637 16.1586 14.0209 15.8099L15.3099 17.2274C14.3213 17.8581 13.1723 18.1913 11.9996 18.1874C10.3592 18.1854 8.78654 17.5329 7.62659 16.373C6.46664 15.213 5.81411 13.6403 5.81212 11.9999C5.81212 11.8507 5.75286 11.7077 5.64737 11.6022C5.54188 11.4967 5.39881 11.4374 5.24962 11.4374C5.10044 11.4374 4.95736 11.4967 4.85188 11.6022C4.74639 11.7077 4.68712 11.8507 4.68712 11.9999C4.68953 13.8411 5.38558 15.6137 6.63656 16.9646C7.88753 18.3155 9.60158 19.1454 11.4371 19.289V22.4999C11.4371 22.6491 11.4964 22.7922 11.6019 22.8977C11.7074 23.0032 11.8504 23.0624 11.9996 23.0624C12.1488 23.0624 12.2919 23.0032 12.3974 22.8977C12.5029 22.7922 12.5621 22.6491 12.5621 22.4999V19.2909C13.8198 19.1988 15.0313 18.7786 16.0759 18.0721L19.0834 21.3749C19.1838 21.4853 19.324 21.5513 19.4731 21.5583C19.6222 21.5654 19.768 21.5129 19.8784 21.4124C19.9888 21.312 20.0547 21.1718 20.0618 21.0227C20.0688 20.8736 20.0163 20.7278 19.9159 20.6174V20.6249ZM11.9996 15.1874C11.1542 15.1874 10.3435 14.8516 9.74572 14.2538C9.14795 13.6561 8.81212 12.8453 8.81212 11.9999V10.0799L13.2296 14.9399C12.8402 15.1035 12.422 15.1877 11.9996 15.1874ZM17.5609 14.7187C17.9758 13.8726 18.1901 12.9423 18.1871 11.9999C18.1871 11.8507 18.2464 11.7077 18.3519 11.6022C18.4574 11.4967 18.6004 11.4374 18.7496 11.4374C18.8988 11.4374 19.0419 11.4967 19.1474 11.6022C19.2529 11.7077 19.3121 11.8507 19.3121 11.9999C19.315 13.1129 19.0616 14.2116 18.5715 15.2109C18.5411 15.2802 18.4969 15.3428 18.4418 15.3947C18.3866 15.4466 18.3215 15.4868 18.2504 15.5129C18.1793 15.5391 18.1036 15.5506 18.0279 15.5467C17.9523 15.5429 17.8782 15.5238 17.8101 15.4907C17.742 15.4575 17.6813 15.4109 17.6316 15.3537C17.5819 15.2965 17.5443 15.2298 17.5211 15.1577C17.4978 15.0856 17.4893 15.0096 17.4962 14.9341C17.503 14.8587 17.525 14.7854 17.5609 14.7187ZM8.04337 4.28149C8.43808 3.37167 9.1343 2.62569 10.0148 2.16923C10.8952 1.71277 11.9061 1.57373 12.8771 1.77553C13.8481 1.97732 14.7199 2.50763 15.3456 3.2771C15.9713 4.04657 16.3126 5.00818 16.3121 5.99993V11.9999C16.3123 12.1506 16.3045 12.3011 16.2887 12.4509C16.2743 12.5898 16.2087 12.7183 16.1047 12.8115C16.0007 12.9048 15.8658 12.956 15.7262 12.9552C15.7068 12.9552 15.6871 12.9552 15.6671 12.9552C15.5188 12.9396 15.3828 12.8658 15.2889 12.75C15.1951 12.6341 15.151 12.4857 15.1665 12.3374C15.1791 12.2254 15.186 12.1127 15.1871 11.9999V5.99993C15.188 5.26655 14.9359 4.55531 14.4734 3.98615C14.0109 3.41699 13.3662 3.02472 12.6482 2.8755C11.9302 2.72627 11.1826 2.82922 10.5316 3.16697C9.88066 3.50473 9.36607 4.05663 9.07462 4.72962C9.01211 4.86159 8.90073 4.96407 8.76403 5.01541C8.62733 5.06675 8.47602 5.06291 8.34209 5.00471C8.20817 4.94652 8.10212 4.83852 8.04637 4.70356C7.99063 4.56859 7.98955 4.41724 8.04337 4.28149Z" fill="black"/>
</svg>
