<svg width="24" height="24" viewBox="0 0 24 24" fill="none" xmlns="http://www.w3.org/2000/svg">
<path d="M7.6875 10.3126H6.75C6.60082 10.3126 6.45774 10.2533 6.35225 10.1478C6.24676 10.0423 6.1875 9.89928 6.1875 9.75009C6.1875 9.60091 6.24676 9.45783 6.35225 9.35234C6.45774 9.24686 6.60082 9.18759 6.75 9.18759H9.75C9.89918 9.18759 10.0423 9.24686 10.1477 9.35234C10.2532 9.45783 10.3125 9.60091 10.3125 9.75009C10.3125 9.89928 10.2532 10.0423 10.1477 10.1478C10.0423 10.2533 9.89918 10.3126 9.75 10.3126H8.8125V14.2501C8.8125 14.3993 8.75324 14.5423 8.64775 14.6478C8.54226 14.7533 8.39918 14.8126 8.25 14.8126C8.10082 14.8126 7.95774 14.7533 7.85225 14.6478C7.74676 14.5423 7.6875 14.3993 7.6875 14.2501V10.3126ZM21.5625 8.69447V14.2501C21.5626 15.163 21.2128 16.0412 20.5849 16.7039C19.9571 17.3666 19.0991 17.7634 18.1875 17.8126C17.7702 18.9172 17.0264 19.8686 16.055 20.54C15.0837 21.2115 13.9308 21.5711 12.75 21.5711C11.5692 21.5711 10.4163 21.2115 9.44496 20.54C8.4736 19.8686 7.72977 18.9172 7.3125 17.8126H3.75C3.4019 17.8126 3.06806 17.6743 2.82192 17.4282C2.57578 17.182 2.4375 16.8482 2.4375 16.5001V7.50009C2.4375 7.152 2.57578 6.81816 2.82192 6.57201C3.06806 6.32587 3.4019 6.18759 3.75 6.18759H9.31312C9.08576 5.34614 9.17477 4.45052 9.5633 3.67028C9.95184 2.89004 10.6129 2.27931 11.4215 1.9537C12.23 1.6281 13.1299 1.61021 13.9507 1.90342C14.7715 2.19663 15.4564 2.7806 15.8756 3.54478C16.4384 3.22897 17.0927 3.11633 17.7287 3.22573C18.3647 3.33513 18.9438 3.65994 19.3687 4.14565C19.7936 4.63136 20.0386 5.24843 20.0625 5.89333C20.0864 6.53824 19.8878 7.17175 19.5 7.68759H20.5575C20.8241 7.68834 21.0796 7.79472 21.268 7.98343C21.4564 8.17215 21.5623 8.42783 21.5625 8.69447ZM16.2581 4.63603C16.2943 4.83872 16.3125 5.0442 16.3125 5.25009C16.3127 6.15554 15.9681 7.02709 15.3488 7.68759H17.25C17.5165 7.68784 17.7792 7.62499 18.0167 7.50419C18.2542 7.38338 18.4597 7.20805 18.6164 6.99255C18.7731 6.77705 18.8766 6.5275 18.9183 6.26434C18.96 6.00117 18.9388 5.73186 18.8564 5.47845C18.7741 5.22505 18.6329 4.99475 18.4444 4.80641C18.2559 4.61806 18.0255 4.47703 17.772 4.39485C17.5186 4.31268 17.2493 4.29169 16.9861 4.33361C16.723 4.37552 16.4735 4.47916 16.2581 4.63603ZM10.5 6.18759H12.75C13.0653 6.18796 13.37 6.30186 13.6083 6.50844C13.8465 6.71502 14.0024 7.00048 14.0475 7.31259C14.441 7.06509 14.7555 6.71025 14.9539 6.28989C15.1523 5.86954 15.2265 5.40121 15.1675 4.94013C15.1085 4.47904 14.9189 4.04443 14.6211 3.68755C14.3233 3.33066 13.9296 3.06638 13.4865 2.92586C13.0434 2.78534 12.5694 2.77446 12.1203 2.89448C11.6712 3.0145 11.2658 3.26043 10.9519 3.60327C10.638 3.9461 10.4287 4.37155 10.3486 4.82944C10.2685 5.28733 10.3211 5.75857 10.5 6.18759ZM3.75 16.6876H12.75C12.7997 16.6876 12.8474 16.6678 12.8826 16.6327C12.9177 16.5975 12.9375 16.5498 12.9375 16.5001V7.50009C12.9375 7.45036 12.9177 7.40267 12.8826 7.36751C12.8474 7.33235 12.7997 7.31259 12.75 7.31259H3.75C3.70027 7.31259 3.65258 7.33235 3.61742 7.36751C3.58225 7.40267 3.5625 7.45036 3.5625 7.50009V16.5001C3.5625 16.5498 3.58225 16.5975 3.61742 16.6327C3.65258 16.6678 3.70027 16.6876 3.75 16.6876ZM17.4375 15.7501V9.00009C17.4375 8.95036 17.4177 8.90267 17.3826 8.86751C17.3474 8.83235 17.2997 8.81259 17.25 8.81259H14.0625V16.5001C14.0625 16.8482 13.9242 17.182 13.6781 17.4282C13.4319 17.6743 13.0981 17.8126 12.75 17.8126H8.54062C9.00666 18.7637 9.7811 19.529 10.7377 19.9837C11.6943 20.4384 12.7768 20.5557 13.8086 20.3165C14.8404 20.0773 15.7608 19.4957 16.4198 18.6665C17.0788 17.8372 17.4375 16.8093 17.4375 15.7501ZM20.4375 8.81259H18.5475C18.5568 8.87468 18.5618 8.93732 18.5625 9.00009V15.7501C18.5624 16.047 18.5399 16.3435 18.495 16.637C19.0439 16.5231 19.5367 16.2236 19.8906 15.7888C20.2444 15.3541 20.4375 14.8106 20.4375 14.2501V8.81259Z" fill="black"/>
</svg>
