<svg width="24" height="24" viewBox="0 0 24 24" fill="none" xmlns="http://www.w3.org/2000/svg">
<path d="M22.3126 9C22.3126 9.14918 22.2533 9.29226 22.1478 9.39775C22.0423 9.50324 21.8993 9.5625 21.7501 9.5625H20.0626V11.25C20.0626 11.3992 20.0033 11.5423 19.8978 11.6477C19.7923 11.7532 19.6493 11.8125 19.5001 11.8125C19.3509 11.8125 19.2078 11.7532 19.1023 11.6477C18.9969 11.5423 18.9376 11.3992 18.9376 11.25V9.5625H17.2501C17.1009 9.5625 16.9578 9.50324 16.8523 9.39775C16.7469 9.29226 16.6876 9.14918 16.6876 9C16.6876 8.85082 16.7469 8.70774 16.8523 8.60225C16.9578 8.49676 17.1009 8.4375 17.2501 8.4375H18.9376V6.75C18.9376 6.60082 18.9969 6.45774 19.1023 6.35225C19.2078 6.24676 19.3509 6.1875 19.5001 6.1875C19.6493 6.1875 19.7923 6.24676 19.8978 6.35225C20.0033 6.45774 20.0626 6.60082 20.0626 6.75V8.4375H21.7501C21.8993 8.4375 22.0423 8.49676 22.1478 8.60225C22.2533 8.70774 22.3126 8.85082 22.3126 9ZM13.5001 5.0625H14.4376V6C14.4376 6.14918 14.4969 6.29226 14.6023 6.39775C14.7078 6.50324 14.8509 6.5625 15.0001 6.5625C15.1493 6.5625 15.2923 6.50324 15.3978 6.39775C15.5033 6.29226 15.5626 6.14918 15.5626 6V5.0625H16.5001C16.6493 5.0625 16.7923 5.00324 16.8978 4.89775C17.0033 4.79226 17.0626 4.64918 17.0626 4.5C17.0626 4.35082 17.0033 4.20774 16.8978 4.10225C16.7923 3.99676 16.6493 3.9375 16.5001 3.9375H15.5626V3C15.5626 2.85082 15.5033 2.70774 15.3978 2.60225C15.2923 2.49676 15.1493 2.4375 15.0001 2.4375C14.8509 2.4375 14.7078 2.49676 14.6023 2.60225C14.4969 2.70774 14.4376 2.85082 14.4376 3V3.9375H13.5001C13.3509 3.9375 13.2078 3.99676 13.1023 4.10225C12.9969 4.20774 12.9376 4.35082 12.9376 4.5C12.9376 4.64918 12.9969 4.79226 13.1023 4.89775C13.2078 5.00324 13.3509 5.0625 13.5001 5.0625ZM20.1798 14.4637C20.2452 14.54 20.289 14.6324 20.3067 14.7313C20.3243 14.8302 20.3151 14.9321 20.2801 15.0262C19.7711 16.4164 18.92 17.656 17.8055 18.6304C16.691 19.6049 15.3489 20.2829 13.9032 20.6018C12.4575 20.9207 10.9548 20.8703 9.53375 20.4551C8.1127 20.04 6.81913 19.2736 5.77247 18.2266C4.72581 17.1795 3.95979 15.8857 3.54512 14.4645C3.13046 13.0433 3.08052 11.5406 3.39991 10.095C3.7193 8.64942 4.39773 7.30759 5.37257 6.1934C6.34741 5.07921 7.58723 4.22857 8.97759 3.72C9.07121 3.68594 9.17219 3.67735 9.27022 3.69511C9.36824 3.71287 9.45979 3.75635 9.5355 3.8211C9.61122 3.88584 9.66838 3.96954 9.70114 4.06362C9.7339 4.1577 9.74108 4.25879 9.72196 4.35656C9.4809 5.58001 9.51367 6.84165 9.81793 8.05093C10.1222 9.26021 10.6904 10.3871 11.4817 11.3508C12.2731 12.3145 13.268 13.0911 14.395 13.6247C15.522 14.1584 16.7531 14.436 18.0001 14.4375C18.5518 14.4377 19.1022 14.3843 19.6435 14.2781C19.7413 14.2588 19.8425 14.2657 19.9368 14.2984C20.031 14.331 20.1149 14.3881 20.1798 14.4637ZM18.8326 15.5269C18.5563 15.5506 18.2788 15.5625 18.0001 15.5625C15.4649 15.5595 13.0343 14.5511 11.2417 12.7584C9.449 10.9657 8.44056 8.53522 8.43759 6C8.43759 5.72187 8.44946 5.44437 8.47321 5.1675C7.39897 5.72289 6.47091 6.52388 5.76444 7.50539C5.05797 8.4869 4.59302 9.62123 4.40738 10.8162C4.22174 12.0112 4.32063 13.2331 4.69604 14.3827C5.07144 15.5323 5.71276 16.5771 6.56788 17.4322C7.423 18.2873 8.46779 18.9286 9.61737 19.3041C10.7669 19.6795 11.9889 19.7784 13.1839 19.5927C14.3789 19.4071 15.5132 18.9421 16.4947 18.2357C17.4762 17.5292 18.2772 16.6011 18.8326 15.5269Z" fill="black"/>
</svg>
