<svg width="24" height="24" viewBox="0 0 24 24" fill="none" xmlns="http://www.w3.org/2000/svg">
<path d="M19.5 3.93742H15.5175C15.3809 3.10355 14.9523 2.3454 14.3083 1.79834C13.6643 1.25128 12.8469 0.950928 12.0019 0.950928C11.1569 0.950928 10.3394 1.25128 9.69543 1.79834C9.05144 2.3454 8.62287 3.10355 8.48625 3.93742H4.5C4.35082 3.93742 4.20774 3.99668 4.10225 4.10217C3.99676 4.20766 3.9375 4.35073 3.9375 4.49992C3.9375 4.6491 3.99676 4.79218 4.10225 4.89767C4.20774 5.00315 4.35082 5.06242 4.5 5.06242H8.4825C8.62881 5.97389 9.12322 6.79298 9.86156 7.34711C8.77889 7.7767 7.85 8.52123 7.19501 9.48441C6.54002 10.4476 6.18905 11.5851 6.1875 12.7499V18.7499C6.1875 19.098 6.32578 19.4319 6.57192 19.678C6.81806 19.9241 7.1519 20.0624 7.5 20.0624H9.1875V20.2499C9.1875 20.9958 9.48382 21.7112 10.0113 22.2387C10.5387 22.7661 11.2541 23.0624 12 23.0624C12.7459 23.0624 13.4613 22.7661 13.9887 22.2387C14.5162 21.7112 14.8125 20.9958 14.8125 20.2499V20.0624H16.5C16.8481 20.0624 17.1819 19.9241 17.4281 19.678C17.6742 19.4319 17.8125 19.098 17.8125 18.7499V12.7499C17.8109 11.5851 17.46 10.4476 16.805 9.48441C16.15 8.52123 15.2211 7.7767 14.1384 7.34711C14.8768 6.79298 15.3712 5.97389 15.5175 5.06242H19.5C19.6492 5.06242 19.7923 5.00315 19.8977 4.89767C20.0032 4.79218 20.0625 4.6491 20.0625 4.49992C20.0625 4.35073 20.0032 4.20766 19.8977 4.10217C19.7923 3.99668 19.6492 3.93742 19.5 3.93742ZM13.6875 20.2499C13.6875 20.6975 13.5097 21.1267 13.1932 21.4432C12.8768 21.7596 12.4476 21.9374 12 21.9374C11.5524 21.9374 11.1232 21.7596 10.8068 21.4432C10.4903 21.1267 10.3125 20.6975 10.3125 20.2499V15.7499C10.3125 15.3024 10.4903 14.8731 10.8068 14.5567C11.1232 14.2402 11.5524 14.0624 12 14.0624C12.4476 14.0624 12.8768 14.2402 13.1932 14.5567C13.5097 14.8731 13.6875 15.3024 13.6875 15.7499V20.2499ZM16.6875 12.7499V18.7499C16.6875 18.7996 16.6677 18.8473 16.6326 18.8825C16.5974 18.9177 16.5497 18.9374 16.5 18.9374H14.8125V15.7499C14.8125 15.004 14.5162 14.2886 13.9887 13.7612C13.4613 13.2337 12.7459 12.9374 12 12.9374C11.2541 12.9374 10.5387 13.2337 10.0113 13.7612C9.48382 14.2886 9.1875 15.004 9.1875 15.7499V18.9374H7.5C7.45027 18.9374 7.40258 18.9177 7.36742 18.8825C7.33225 18.8473 7.3125 18.7996 7.3125 18.7499V12.7499C7.3125 11.5067 7.80636 10.3144 8.68544 9.43536C9.56451 8.55628 10.7568 8.06242 12 8.06242C13.2432 8.06242 14.4355 8.55628 15.3146 9.43536C16.1936 10.3144 16.6875 11.5067 16.6875 12.7499ZM12 6.93742C11.5179 6.93742 11.0466 6.79446 10.6458 6.52663C10.245 6.25879 9.93253 5.8781 9.74804 5.43271C9.56356 4.98731 9.51528 4.49721 9.60934 4.02439C9.70339 3.55156 9.93554 3.11724 10.2764 2.77635C10.6173 2.43545 11.0516 2.20331 11.5245 2.10925C11.9973 2.0152 12.4874 2.06347 12.9328 2.24796C13.3782 2.43245 13.7589 2.74487 14.0267 3.14572C14.2945 3.54656 14.4375 4.01783 14.4375 4.49992C14.4375 5.14638 14.1807 5.76637 13.7236 6.22349C13.2665 6.68061 12.6465 6.93742 12 6.93742Z" fill="black"/>
</svg>
