<svg width="24" height="24" viewBox="0 0 24 24" fill="none" xmlns="http://www.w3.org/2000/svg">
<path d="M15.3755 7.3125C15.8576 7.3125 16.3288 7.16954 16.7297 6.90171C17.1305 6.63387 17.4429 6.25319 17.6274 5.80779C17.8119 5.3624 17.8602 4.8723 17.7661 4.39947C17.6721 3.92664 17.4399 3.49232 17.0991 3.15143C16.7582 2.81054 16.3238 2.57839 15.851 2.48434C15.3782 2.39029 14.8881 2.43856 14.4427 2.62304C13.9973 2.80753 13.6166 3.11995 13.3488 3.5208C13.0809 3.92164 12.938 4.39291 12.938 4.875C12.938 5.52147 13.1948 6.14145 13.6519 6.59857C14.109 7.05569 14.729 7.3125 15.3755 7.3125ZM15.3755 3.5625C15.6351 3.5625 15.8888 3.63948 16.1047 3.7837C16.3205 3.92792 16.4887 4.1329 16.5881 4.37273C16.6874 4.61256 16.7134 4.87646 16.6628 5.13106C16.6121 5.38566 16.4871 5.61952 16.3036 5.80308C16.12 5.98663 15.8861 6.11164 15.6315 6.16228C15.3769 6.21292 15.113 6.18693 14.8732 6.08759C14.6334 5.98825 14.4284 5.82003 14.2842 5.60419C14.14 5.38835 14.063 5.13459 14.063 4.875C14.063 4.5269 14.2013 4.19306 14.4474 3.94692C14.6935 3.70078 15.0274 3.5625 15.3755 3.5625ZM23.7342 18.4631L18.6192 9.83063C18.5041 9.63462 18.3397 9.47213 18.1423 9.35931C17.945 9.24649 17.7216 9.18726 17.4942 9.1875C17.2669 9.18707 17.0434 9.24623 16.846 9.35906C16.6486 9.4719 16.4842 9.63449 16.3692 9.83063L13.7555 14.2416L9.39048 6.83531C9.27456 6.63838 9.10923 6.47512 8.91085 6.3617C8.71246 6.24827 8.48791 6.18861 8.25939 6.18861C8.03087 6.18861 7.80631 6.24827 7.60793 6.3617C7.40954 6.47512 7.24421 6.63838 7.12829 6.83531L0.265793 18.4688C0.216526 18.5541 0.190538 18.6509 0.19043 18.7494C0.190322 18.8479 0.216098 18.9448 0.265178 19.0302C0.314258 19.1156 0.384919 19.1867 0.470089 19.2362C0.555259 19.2858 0.65195 19.3121 0.750481 19.3125H23.2505C23.3498 19.3125 23.4473 19.2862 23.5331 19.2363C23.6189 19.1864 23.69 19.1147 23.7392 19.0284C23.7883 18.9421 23.8137 18.8444 23.8129 18.7451C23.812 18.6458 23.7849 18.5485 23.7342 18.4631ZM8.08829 7.40625C8.10477 7.37784 8.12843 7.35425 8.1569 7.33786C8.18536 7.32146 8.21763 7.31283 8.25048 7.31283C8.28333 7.31283 8.3156 7.32146 8.34406 7.33786C8.37253 7.35425 8.39619 7.37784 8.41267 7.40625L10.7883 11.4375H5.71267L8.08829 7.40625ZM1.73486 18.1875L5.04986 12.5625H11.452L13.2614 15.6347L14.7614 18.1847L1.73486 18.1875ZM16.072 18.1875L14.3986 15.3478L17.3283 10.4063C17.3447 10.3779 17.3681 10.3543 17.3964 10.3379C17.4247 10.3215 17.4568 10.3127 17.4895 10.3125C17.5224 10.312 17.5548 10.3205 17.5832 10.337C17.6116 10.3535 17.635 10.3775 17.6508 10.4063L22.2633 18.1875H16.072Z" fill="black"/>
</svg>
