<svg width="24" height="24" viewBox="0 0 24 24" fill="none" xmlns="http://www.w3.org/2000/svg">
<path d="M19.6612 5.46086L12.1612 3.21086C12.0773 3.18573 11.9886 3.18058 11.9022 3.19582C11.8159 3.21106 11.7343 3.24627 11.664 3.29864C11.5937 3.351 11.5366 3.41908 11.4973 3.49744C11.4579 3.57579 11.4375 3.66226 11.4375 3.74993V14.3484C10.7596 13.6045 9.84286 13.1211 8.84608 12.982C7.8493 12.8429 6.83525 13.0568 5.97958 13.5867C5.12391 14.1165 4.48052 14.929 4.16083 15.8833C3.84115 16.8376 3.86532 17.8737 4.22915 18.8121C4.59298 19.7505 5.27356 20.532 6.153 21.0214C7.03244 21.5108 8.05536 21.6772 9.04457 21.4918C10.0338 21.3063 10.927 20.7808 11.5695 20.0061C12.2119 19.2314 12.5632 18.2564 12.5625 17.2499V9.00555L19.3387 11.039C19.4227 11.0641 19.5114 11.0693 19.5978 11.054C19.6841 11.0388 19.7657 11.0036 19.836 10.9512C19.9063 10.8988 19.9634 10.8308 20.0027 10.7524C20.0421 10.6741 20.0625 10.5876 20.0625 10.4999V5.99993C20.0625 5.87886 20.0235 5.76101 19.9512 5.66389C19.8789 5.56677 19.7772 5.49557 19.6612 5.46086ZM8.25 20.4374C7.61957 20.4374 7.0033 20.2505 6.47912 19.9002C5.95494 19.55 5.54639 19.0522 5.30513 18.4697C5.06388 17.8873 5.00076 17.2464 5.12375 16.6281C5.24674 16.0098 5.55032 15.4418 5.9961 14.996C6.44188 14.5502 7.00983 14.2467 7.62815 14.1237C8.24646 14.0007 8.88736 14.0638 9.4698 14.3051C10.0522 14.5463 10.5501 14.9549 10.9003 15.479C11.2506 16.0032 11.4375 16.6195 11.4375 17.2499C11.4375 18.0953 11.1017 18.9061 10.5039 19.5038C9.90613 20.1016 9.09538 20.4374 8.25 20.4374ZM18.9375 9.7443L12.5625 7.8318V4.50555L18.9375 6.41805V9.7443Z" fill="black"/>
</svg>
