<svg width="24" height="24" viewBox="0 0 24 24" fill="none" xmlns="http://www.w3.org/2000/svg">
<path d="M22.1861 10.1343L5.69271 4.01521H5.68053C5.44825 3.93517 5.19816 3.92193 4.95873 3.977C4.7193 4.03207 4.50013 4.15324 4.32616 4.32672C4.15219 4.5002 4.0304 4.71903 3.97466 4.95831C3.91892 5.19758 3.93145 5.4477 4.01084 5.68021C4.01084 5.68021 4.01084 5.68865 4.01084 5.6924L10.1346 22.1858C10.2219 22.4435 10.3884 22.667 10.6103 22.8244C10.8322 22.9818 11.0982 23.0651 11.3702 23.0624H11.3946C11.6721 23.0606 11.9417 22.9695 12.1635 22.8027C12.3853 22.6359 12.5476 22.4022 12.6265 22.1361V22.1221L14.7021 14.7065L22.1252 12.6308H22.1393C22.403 12.5494 22.6344 12.387 22.8005 12.1665C22.9666 11.946 23.059 11.6788 23.0645 11.4029C23.07 11.1269 22.9884 10.8562 22.8312 10.6293C22.674 10.4024 22.4493 10.2308 22.189 10.139L22.1861 10.1343ZM21.8111 11.5499L14.0993 13.7061C14.0063 13.7322 13.9215 13.7818 13.8532 13.8501C13.7849 13.9184 13.7353 14.0031 13.7093 14.0961L11.553 21.808C11.5427 21.8459 11.5198 21.8791 11.4881 21.9022C11.4564 21.9254 11.4179 21.9371 11.3787 21.9355C11.3385 21.9391 11.2985 21.9283 11.2655 21.9051C11.2326 21.882 11.2089 21.8479 11.1987 21.809C11.199 21.8052 11.199 21.8014 11.1987 21.7977L5.07303 5.30802C5.06267 5.27529 5.06151 5.24035 5.06965 5.207C5.0778 5.17365 5.09494 5.14317 5.11922 5.1189C5.14349 5.09462 5.17396 5.07748 5.20731 5.06934C5.24066 5.06119 5.27561 5.06236 5.30834 5.07271L21.7999 11.1908H21.8111C21.8483 11.2034 21.8806 11.2273 21.9035 11.2591C21.9264 11.291 21.9387 11.3293 21.9387 11.3685C21.9387 11.4077 21.9264 11.446 21.9035 11.4778C21.8806 11.5097 21.8483 11.5336 21.8111 11.5461V11.5499Z" fill="black"/>
</svg>
