<svg width="24" height="24" viewBox="0 0 24 24" fill="none" xmlns="http://www.w3.org/2000/svg">
<path d="M17.648 6.35249C17.7533 6.45796 17.8125 6.60093 17.8125 6.74999C17.8125 6.89905 17.7533 7.04202 17.648 7.14749L16.148 8.64749C16.0414 8.74685 15.9003 8.80094 15.7546 8.79837C15.6089 8.7958 15.4698 8.73677 15.3668 8.63371C15.2637 8.53065 15.2047 8.39161 15.2021 8.24588C15.1995 8.10016 15.2536 7.95912 15.353 7.85249L16.853 6.35249C16.9585 6.24715 17.1014 6.18799 17.2505 6.18799C17.3995 6.18799 17.5425 6.24715 17.648 6.35249ZM20.813 6.74999C20.8143 7.21802 20.7228 7.68167 20.5437 8.11407C20.3646 8.54648 20.1014 8.93905 19.7695 9.26905L17.5195 11.5191C17.4372 11.6013 17.3314 11.656 17.2167 11.6756C12.3286 12.5194 4.22954 20.5669 4.14798 20.6475C4.09912 20.6971 4.0412 20.7369 3.97736 20.7647C3.90577 20.7959 3.82857 20.8122 3.75048 20.8125C3.6393 20.8124 3.53064 20.7794 3.43823 20.7175C3.34582 20.6557 3.2738 20.5679 3.23127 20.4652C3.18873 20.3625 3.17759 20.2494 3.19926 20.1404C3.22092 20.0313 3.27441 19.9312 3.35298 19.8525C3.48423 19.7203 11.4886 11.655 12.3239 6.78468C12.3435 6.66998 12.3982 6.56418 12.4805 6.48187L14.7305 4.23187C15.2286 3.73338 15.8634 3.39382 16.5545 3.25615C17.2456 3.11847 17.9621 3.18887 18.6132 3.45843C19.2643 3.72798 19.8208 4.1846 20.2124 4.7705C20.604 5.35641 20.813 6.04528 20.813 6.74999ZM19.688 6.74999C19.6878 6.26803 19.5448 5.79694 19.2769 5.39626C19.0091 4.99558 18.6284 4.6833 18.1832 4.49888C17.7379 4.31447 17.2479 4.2662 16.7752 4.36017C16.3025 4.45415 15.8682 4.68616 15.5274 5.02687L13.4002 7.15312C13.012 9.10218 11.6545 11.6166 9.35673 14.6437C12.3839 12.3459 14.8983 10.9875 16.8474 10.6003L18.9736 8.47312C19.2009 8.24752 19.381 7.97902 19.5037 7.68322C19.6263 7.38742 19.6889 7.0702 19.688 6.74999Z" fill="black"/>
</svg>
