<svg width="24" height="24" viewBox="0 0 24 24" fill="none" xmlns="http://www.w3.org/2000/svg">
<path d="M20.8125 14.9999C20.8125 15.1491 20.7532 15.2922 20.6477 15.3977C20.5423 15.5032 20.3992 15.5624 20.25 15.5624H9.52125L4.91625 20.6249C4.86936 20.6874 4.80998 20.7394 4.74189 20.7776C4.67379 20.8159 4.59848 20.8395 4.52075 20.8471C4.44302 20.8546 4.36457 20.8459 4.29039 20.8214C4.21621 20.797 4.14794 20.7574 4.08992 20.7051C4.03189 20.6528 3.98539 20.5891 3.95337 20.5178C3.92135 20.4466 3.90451 20.3695 3.90393 20.2914C3.90335 20.2133 3.91904 20.1359 3.95 20.0642C3.98096 19.9925 4.02651 19.9281 4.08375 19.8749L8.00156 15.5624H3.75C3.60082 15.5624 3.45774 15.5032 3.35225 15.3977C3.24676 15.2922 3.1875 15.1491 3.1875 14.9999C3.1875 14.8507 3.24676 14.7077 3.35225 14.6022C3.45774 14.4967 3.60082 14.4374 3.75 14.4374H9.02344L13.4559 9.56242H3.75C3.60082 9.56242 3.45774 9.50316 3.35225 9.39767C3.24676 9.29218 3.1875 9.14911 3.1875 8.99992C3.1875 8.85074 3.24676 8.70766 3.35225 8.60217C3.45774 8.49669 3.60082 8.43742 3.75 8.43742H14.4788L19.0837 3.37492C19.1306 3.31247 19.19 3.26046 19.2581 3.22221C19.3262 3.18397 19.4015 3.16032 19.4792 3.15278C19.557 3.14523 19.6354 3.15396 19.7096 3.1784C19.7838 3.20284 19.8521 3.24246 19.9101 3.29473C19.9681 3.347 20.0146 3.41079 20.0466 3.48202C20.0786 3.55325 20.0955 3.63037 20.0961 3.70847C20.0966 3.78656 20.081 3.86392 20.05 3.93562C20.019 4.00732 19.9735 4.07179 19.9163 4.12492L15.9984 8.43742H20.25C20.3992 8.43742 20.5423 8.49669 20.6477 8.60217C20.7532 8.70766 20.8125 8.85074 20.8125 8.99992C20.8125 9.14911 20.7532 9.29218 20.6477 9.39767C20.5423 9.50316 20.3992 9.56242 20.25 9.56242H14.9766L10.5441 14.4374H20.25C20.3992 14.4374 20.5423 14.4967 20.6477 14.6022C20.7532 14.7077 20.8125 14.8507 20.8125 14.9999Z" fill="black"/>
</svg>
