<svg width="24" height="24" viewBox="0 0 24 24" fill="none" xmlns="http://www.w3.org/2000/svg">
<path d="M19.875 3.33365C19.8204 3.28388 19.7565 3.24536 19.6869 3.22031C19.6174 3.19526 19.5436 3.18415 19.4698 3.18764C19.3959 3.19112 19.3235 3.20912 19.2566 3.24061C19.1898 3.2721 19.1298 3.31646 19.08 3.37115L18.5653 3.93365H12C10.4198 3.93159 8.87389 4.39432 7.55467 5.26425C6.23546 6.13417 5.20122 7.37287 4.5807 8.82615C3.96017 10.2794 3.78077 11.8831 4.06481 13.4376C4.34885 14.9921 5.08379 16.4287 6.17816 17.5686L4.08378 19.8749C3.99943 19.9873 3.96017 20.1271 3.97374 20.267C3.98732 20.4068 4.05273 20.5365 4.15711 20.6305C4.2615 20.7246 4.3973 20.7762 4.53779 20.7751C4.67829 20.7741 4.81331 20.7205 4.91628 20.6249L7.00972 18.3215C8.42857 19.4491 10.1876 20.0628 12 20.0624H18.75C18.8992 20.0624 19.0423 20.0031 19.1478 19.8976C19.2533 19.7922 19.3125 19.6491 19.3125 19.4999C19.3125 19.3507 19.2533 19.2076 19.1478 19.1021C19.0423 18.9967 18.8992 18.9374 18.75 18.9374H12C10.4681 18.9383 8.97935 18.4298 7.76816 17.4918L12.2485 12.5624H18.75C18.8992 12.5624 19.0423 12.5031 19.1478 12.3976C19.2533 12.2922 19.3125 12.1491 19.3125 11.9999C19.3125 11.8507 19.2533 11.7076 19.1478 11.6022C19.0423 11.4967 18.8992 11.4374 18.75 11.4374H13.2713L19.9163 4.1249C20.0152 4.01424 20.0663 3.86899 20.0586 3.72078C20.0509 3.57257 19.9849 3.43342 19.875 3.33365ZM6.93753 16.7343C5.86618 15.5932 5.21373 14.1224 5.08691 12.5624H10.7288L6.93753 16.7343ZM5.08691 11.4374C5.23007 9.70156 6.02016 8.08285 7.30058 6.9021C8.581 5.72135 10.2583 5.06473 12 5.0624H17.5463L11.7516 11.4374H5.08691Z" fill="black"/>
</svg>
