<svg width="24" height="24" viewBox="0 0 24 24" fill="none" xmlns="http://www.w3.org/2000/svg">
<path d="M19.4996 18.1874H7.13494L9.52087 15.5624H14.2496C15.3869 15.5612 16.4988 15.2264 17.4476 14.5995C18.3965 13.9726 19.1405 13.0811 19.5877 12.0355C20.0349 10.9898 20.1655 9.83597 19.9634 8.71684C19.7612 7.5977 19.2353 6.56244 18.4506 5.7393L19.9159 4.12492C19.9731 4.07179 20.0187 4.00732 20.0496 3.93562C20.0806 3.86392 20.0963 3.78656 20.0957 3.70847C20.0951 3.63037 20.0783 3.55325 20.0463 3.48202C20.0142 3.41079 19.9677 3.347 19.9097 3.29473C19.8517 3.24246 19.7834 3.20284 19.7092 3.1784C19.6351 3.15396 19.5566 3.14523 19.4789 3.15278C19.4011 3.16032 19.3258 3.18397 19.2577 3.22221C19.1896 3.26046 19.1303 3.31247 19.0834 3.37492L17.5993 5.0043C16.6207 4.30926 15.4499 3.93636 14.2496 3.93742H5.24962C5.10044 3.93742 4.95736 3.99669 4.85188 4.10217C4.74639 4.20766 4.68712 4.35074 4.68712 4.49992C4.68712 4.64911 4.74639 4.79218 4.85188 4.89767C4.95736 5.00316 5.10044 5.06242 5.24962 5.06242H14.2496C15.17 5.06138 16.0701 5.33314 16.8362 5.84336L9.02306 14.4374H5.24962C5.10044 14.4374 4.95736 14.4967 4.85188 14.6022C4.74639 14.7077 4.68712 14.8507 4.68712 14.9999C4.68712 15.1491 4.74639 15.2922 4.85188 15.3977C4.95736 15.5032 5.10044 15.5624 5.24962 15.5624H8.00119L4.08337 19.8749C3.99902 19.9873 3.95976 20.1271 3.97333 20.267C3.98691 20.4068 4.05232 20.5365 4.1567 20.6306C4.26109 20.7246 4.39689 20.7762 4.53738 20.7751C4.67788 20.7741 4.8129 20.7205 4.91587 20.6249L6.11212 19.3124H19.4996C19.6488 19.3124 19.7919 19.2532 19.8974 19.1477C20.0029 19.0422 20.0621 18.8991 20.0621 18.7499C20.0621 18.6007 20.0029 18.4577 19.8974 18.3522C19.7919 18.2467 19.6488 18.1874 19.4996 18.1874ZM17.6931 6.57367C18.31 7.24324 18.7186 8.07798 18.8689 8.97592C19.0192 9.87387 18.9048 10.7962 18.5396 11.6302C18.1744 12.4642 17.5742 13.1737 16.8124 13.6723C16.0506 14.1708 15.1601 14.4367 14.2496 14.4374H10.5437L17.6931 6.57367Z" fill="black"/>
</svg>
