<svg width="24" height="24" viewBox="0 0 24 24" fill="none" xmlns="http://www.w3.org/2000/svg">
<path d="M19.8979 12.3975L12.3979 19.8975C12.3464 19.9528 12.2843 19.9971 12.2153 20.0278C12.1463 20.0586 12.0718 20.0751 11.9963 20.0764C11.9207 20.0778 11.8457 20.0639 11.7757 20.0356C11.7056 20.0073 11.642 19.9652 11.5886 19.9118C11.5352 19.8584 11.4931 19.7947 11.4648 19.7247C11.4365 19.6546 11.4226 19.5796 11.4239 19.5041C11.4252 19.4286 11.4418 19.3541 11.4725 19.2851C11.5033 19.2161 11.5476 19.154 11.6029 19.1025L19.1029 11.6025C19.1544 11.5472 19.2165 11.5029 19.2855 11.4722C19.3545 11.4414 19.4289 11.4249 19.5045 11.4235C19.58 11.4222 19.655 11.4361 19.7251 11.4644C19.7951 11.4927 19.8587 11.5348 19.9121 11.5882C19.9656 11.6416 20.0077 11.7053 20.0359 11.7753C20.0642 11.8453 20.0781 11.9204 20.0768 11.9959C20.0755 12.0714 20.0589 12.1459 20.0282 12.2149C19.9974 12.2839 19.9531 12.346 19.8979 12.3975ZM18.3979 3.35249C18.2924 3.24716 18.1494 3.18799 18.0004 3.18799C17.8513 3.18799 17.7083 3.24716 17.6029 3.35249L3.35286 17.6025C3.29759 17.654 3.25327 17.7161 3.22252 17.7851C3.19178 17.8541 3.17525 17.9286 3.17392 18.0041C3.17258 18.0796 3.18648 18.1546 3.21477 18.2247C3.24306 18.2947 3.28517 18.3584 3.33858 18.4118C3.39199 18.4652 3.45562 18.5073 3.52566 18.5356C3.5957 18.5639 3.67072 18.5778 3.74625 18.5764C3.82178 18.5751 3.89626 18.5586 3.96526 18.5278C4.03426 18.4971 4.09636 18.4528 4.14786 18.3975L18.3979 4.14749C18.5032 4.04202 18.5624 3.89906 18.5624 3.74999C18.5624 3.60093 18.5032 3.45796 18.3979 3.35249Z" fill="black"/>
</svg>
