<svg width="24" height="24" viewBox="0 0 24 24" fill="none" xmlns="http://www.w3.org/2000/svg">
<path d="M12.0004 9.93743C11.3601 9.93724 10.7256 10.0591 10.131 10.2965L13.2407 4.78118C13.3139 4.65114 13.3325 4.49734 13.2923 4.35361C13.2521 4.20988 13.1565 4.088 13.0265 4.01477C12.8964 3.94155 12.7426 3.92298 12.5989 3.96316C12.4552 4.00333 12.3333 4.09895 12.26 4.22899L7.61567 12.479C7.06087 13.4452 6.84029 14.5674 6.98814 15.6717C7.13599 16.776 7.644 17.8007 8.43343 18.5869C9.22286 19.3732 10.2496 19.877 11.3545 20.0203C12.4594 20.1637 13.5807 19.9386 14.5447 19.3798C15.5086 18.8211 16.2613 17.96 16.686 16.93C17.1108 15.8999 17.1839 14.7586 16.894 13.6828C16.6041 12.607 15.9675 11.6569 15.0827 10.9797C14.198 10.3026 13.1145 9.93622 12.0004 9.93743ZM12.0004 18.9374C11.2216 18.9374 10.4603 18.7065 9.8128 18.2738C9.16528 17.8412 8.66061 17.2262 8.36259 16.5067C8.06457 15.7873 7.98659 14.9956 8.13852 14.2318C8.29045 13.468 8.66546 12.7664 9.21613 12.2157C9.7668 11.665 10.4684 11.29 11.2322 11.1381C11.996 10.9862 12.7877 11.0641 13.5072 11.3622C14.2267 11.6602 14.8416 12.1649 15.2743 12.8124C15.7069 13.4599 15.9379 14.2212 15.9379 14.9999C15.9379 16.0442 15.523 17.0457 14.7846 17.7842C14.0462 18.5226 13.0447 18.9374 12.0004 18.9374Z" fill="black"/>
</svg>
