<svg width="24" height="24" viewBox="0 0 24 24" fill="none" xmlns="http://www.w3.org/2000/svg">
<path d="M16.3125 19.5001C16.3125 19.6493 16.2532 19.7923 16.1477 19.8978C16.0423 20.0033 15.8992 20.0626 15.75 20.0626H8.25C8.14554 20.0626 8.04314 20.0335 7.95428 19.9786C7.86541 19.9237 7.7936 19.8451 7.74688 19.7516C7.70017 19.6582 7.68039 19.5536 7.68977 19.4496C7.69915 19.3455 7.73732 19.2462 7.8 19.1626L14.55 10.1701C14.9296 9.66665 15.1514 9.06193 15.1873 8.43242C15.2232 7.8029 15.0716 7.17689 14.7517 6.63355C14.4318 6.09022 13.9579 5.65398 13.39 5.38001C12.822 5.10605 12.1856 5.00668 11.5613 5.09446C11.0212 5.17022 10.5095 5.38288 10.0748 5.71222C9.64011 6.04155 9.2969 6.47661 9.07781 6.97602C9.01801 7.11278 8.90634 7.22017 8.76736 7.27459C8.62838 7.329 8.47347 7.32598 8.33672 7.26618C8.19997 7.20638 8.09257 7.09471 8.03815 6.95573C7.98374 6.81674 7.98676 6.66184 8.04656 6.52508C8.18202 6.21637 8.35285 5.92441 8.55563 5.65509C9.24399 4.74158 10.267 4.13894 11.3997 3.97974C12.5324 3.82054 13.682 4.11782 14.5955 4.80618C15.509 5.49454 16.1116 6.5176 16.2708 7.65029C16.43 8.78298 16.1327 9.93252 15.4444 10.846L9.375 18.9376H15.75C15.8992 18.9376 16.0423 18.9968 16.1477 19.1023C16.2532 19.2078 16.3125 19.3509 16.3125 19.5001Z" fill="black"/>
</svg>
