<svg width="24" height="24" viewBox="0 0 24 24" fill="none" xmlns="http://www.w3.org/2000/svg">
<path d="M14.2144 11.1984C15.024 10.7139 15.6525 9.9772 16.0033 9.10129C16.3541 8.22539 16.408 7.25859 16.1567 6.34912C15.9054 5.43965 15.3627 4.6377 14.6119 4.06623C13.8611 3.49476 12.9436 3.1853 12 3.1853C11.0564 3.1853 10.1389 3.49476 9.38811 4.06623C8.6373 4.6377 8.09463 5.43965 7.8433 6.34912C7.59197 7.25859 7.64586 8.22539 7.9967 9.10129C8.34753 9.9772 8.97596 10.7139 9.78563 11.1984C8.75582 11.6993 7.92626 12.5345 7.43242 13.5678C6.93858 14.601 6.80964 15.7711 7.06665 16.8871C7.32366 18.003 7.95143 18.9989 8.84746 19.712C9.74349 20.4251 10.8548 20.8134 12 20.8134C13.1452 20.8134 14.2565 20.4251 15.1525 19.712C16.0486 18.9989 16.6764 18.003 16.9334 16.8871C17.1904 15.7711 17.0614 14.601 16.5676 13.5678C16.0737 12.5345 15.2442 11.6993 14.2144 11.1984ZM8.81251 7.49993C8.81251 6.8695 8.99945 6.25323 9.3497 5.72905C9.69994 5.20487 10.1978 4.79632 10.7802 4.55507C11.3626 4.31381 12.0035 4.25069 12.6219 4.37368C13.2402 4.49667 13.8081 4.80025 14.2539 5.24603C14.6997 5.69181 15.0033 6.25977 15.1263 6.87808C15.2492 7.4964 15.1861 8.1373 14.9449 8.71974C14.7036 9.30218 14.2951 9.79999 13.7709 10.1502C13.2467 10.5005 12.6304 10.6874 12 10.6874C11.1546 10.6874 10.3439 10.3516 9.7461 9.75384C9.14833 9.15606 8.81251 8.34531 8.81251 7.49993ZM12 19.6874C11.2212 19.6874 10.46 19.4565 9.81245 19.0238C9.16493 18.5912 8.66025 17.9762 8.36223 17.2567C8.06421 16.5373 7.98623 15.7456 8.13816 14.9818C8.29009 14.218 8.6651 13.5164 9.21577 12.9657C9.76644 12.415 10.468 12.04 11.2318 11.8881C11.9956 11.7362 12.7873 11.8141 13.5068 12.1122C14.2263 12.4102 14.8413 12.9149 15.2739 13.5624C15.7066 14.2099 15.9375 14.9712 15.9375 15.7499C15.9375 16.7942 15.5227 17.7957 14.7842 18.5342C14.0458 19.2726 13.0443 19.6874 12 19.6874Z" fill="black"/>
</svg>
