<svg width="24" height="24" viewBox="0 0 24 24" fill="none" xmlns="http://www.w3.org/2000/svg">
<path d="M17.2496 15.1875H15.5621V4.5C15.5623 4.38332 15.5261 4.26948 15.4587 4.17424C15.3913 4.07901 15.2959 4.0071 15.1858 3.96848C15.0757 3.92985 14.9563 3.92643 14.8442 3.95867C14.732 3.99091 14.6327 4.05723 14.5599 4.14844L5.55992 15.3984C5.49366 15.4812 5.45213 15.581 5.44014 15.6864C5.42814 15.7917 5.44616 15.8983 5.49212 15.9938C5.53808 16.0894 5.61011 16.17 5.6999 16.2264C5.78969 16.2828 5.89359 16.3126 5.99961 16.3125H14.4371V19.5C14.4371 19.6492 14.4964 19.7923 14.6019 19.8977C14.7074 20.0032 14.8504 20.0625 14.9996 20.0625C15.1488 20.0625 15.2919 20.0032 15.3974 19.8977C15.5028 19.7923 15.5621 19.6492 15.5621 19.5V16.3125H17.2496C17.3988 16.3125 17.5419 16.2532 17.6474 16.1477C17.7528 16.0423 17.8121 15.8992 17.8121 15.75C17.8121 15.6008 17.7528 15.4577 17.6474 15.3523C17.5419 15.2468 17.3988 15.1875 17.2496 15.1875ZM14.4371 15.1875H7.16961L14.4371 6.10313V15.1875Z" fill="black"/>
</svg>
