<svg width="24" height="24" viewBox="0 0 24 24" fill="none" xmlns="http://www.w3.org/2000/svg">
<path d="M13.3127 4.49991V19.4999C13.3127 19.6491 13.2534 19.7922 13.1479 19.8977C13.0424 20.0031 12.8993 20.0624 12.7502 20.0624C12.601 20.0624 12.4579 20.0031 12.3524 19.8977C12.2469 19.7922 12.1877 19.6491 12.1877 19.4999V5.49366L9.28984 7.23179C9.16191 7.30862 9.00871 7.33148 8.86392 7.29535C8.71914 7.25922 8.59464 7.16706 8.51781 7.03913C8.44098 6.9112 8.41811 6.758 8.45424 6.61321C8.49037 6.46843 8.58254 6.34393 8.71046 6.2671L12.4605 4.0171C12.5459 3.96579 12.6434 3.93809 12.743 3.93681C12.8426 3.93554 12.9408 3.96075 13.0274 4.00986C13.1141 4.05897 13.1862 4.13021 13.2363 4.21632C13.2864 4.30242 13.3128 4.40029 13.3127 4.49991Z" fill="black"/>
</svg>
