<svg width="24" height="24" viewBox="0 0 24 24" fill="none" xmlns="http://www.w3.org/2000/svg">
<path d="M16.3124 15C16.3124 15.9773 16.0295 16.9337 15.498 17.7537C14.9664 18.5738 14.2088 19.2225 13.3167 19.6215C12.4245 20.0204 11.436 20.1527 10.4704 20.0022C9.50475 19.8517 8.60331 19.425 7.87489 18.7734C7.81789 18.7248 7.7712 18.6652 7.73756 18.5982C7.70392 18.5312 7.68401 18.4582 7.67899 18.3834C7.67398 18.3086 7.68396 18.2335 7.70836 18.1627C7.73276 18.0918 7.77107 18.0265 7.82106 17.9706C7.87105 17.9148 7.93169 17.8695 7.99944 17.8374C8.06718 17.8053 8.14065 17.7871 8.21554 17.7838C8.29043 17.7805 8.36522 17.7922 8.43551 17.8182C8.50581 17.8442 8.5702 17.8841 8.62489 17.9353C9.10065 18.3607 9.67269 18.6641 10.2917 18.8193C10.9108 18.9745 11.5583 18.9769 12.1784 18.8263C12.7986 18.6757 13.3729 18.3766 13.8518 17.9548C14.3308 17.533 14.7 17.0011 14.9277 16.4049C15.1554 15.8087 15.2348 15.1661 15.159 14.5324C15.0832 13.8987 14.8545 13.293 14.4926 12.7673C14.1307 12.2416 13.6465 11.8118 13.0816 11.5148C12.5167 11.2178 11.8881 11.0626 11.2499 11.0625C11.1454 11.0625 11.043 11.0334 10.9542 10.9785C10.8653 10.9236 10.7935 10.845 10.7468 10.7516C10.7001 10.6581 10.6803 10.5535 10.6897 10.4495C10.699 10.3454 10.7372 10.2461 10.7999 10.1625L14.6249 5.0625H8.24989C8.10071 5.0625 7.95763 5.00324 7.85214 4.89775C7.74665 4.79226 7.68739 4.64918 7.68739 4.5C7.68739 4.35082 7.74665 4.20774 7.85214 4.10225C7.95763 3.99676 8.10071 3.9375 8.24989 3.9375H15.7499C15.8544 3.9375 15.9568 3.96659 16.0456 4.02151C16.1345 4.07643 16.2063 4.15501 16.253 4.24844C16.2997 4.34188 16.3195 4.44647 16.3101 4.55052C16.3007 4.65456 16.2626 4.75393 16.1999 4.8375L12.2933 10.0453C13.4292 10.2863 14.448 10.9098 15.1794 11.8116C15.9109 12.7134 16.3109 13.8388 16.3124 15Z" fill="black"/>
</svg>
