<svg width="24" height="24" viewBox="0 0 24 24" fill="none" xmlns="http://www.w3.org/2000/svg">
<path d="M16.3124 15C16.3124 15.9773 16.0295 16.9337 15.498 17.7537C14.9664 18.5738 14.2088 19.2225 13.3167 19.6215C12.4245 20.0204 11.436 20.1527 10.4704 20.0022C9.50475 19.8517 8.60331 19.425 7.87489 18.7734C7.81789 18.7248 7.7712 18.6652 7.73756 18.5982C7.70392 18.5312 7.68401 18.4582 7.67899 18.3834C7.67398 18.3086 7.68396 18.2335 7.70836 18.1627C7.73276 18.0918 7.77107 18.0265 7.82106 17.9706C7.87105 17.9148 7.93169 17.8695 7.99944 17.8374C8.06718 17.8053 8.14065 17.7871 8.21554 17.7838C8.29043 17.7805 8.36522 17.7922 8.43551 17.8182C8.50581 17.8442 8.5702 17.8841 8.62489 17.9353C9.1883 18.4392 9.88482 18.7703 10.6313 18.889C11.3778 19.0077 12.1426 18.9091 12.8346 18.6048C13.5265 18.3006 14.1162 17.8036 14.5334 17.1733C14.9505 16.543 15.1774 15.8059 15.1869 15.0501C15.1965 14.2943 14.9883 13.5517 14.5872 12.9111C14.1862 12.2704 13.6092 11.7587 12.9251 11.4371C12.2411 11.1155 11.479 10.9975 10.7298 11.0973C9.98052 11.1972 9.27585 11.5105 8.69989 12C8.61098 12.0768 8.50024 12.1239 8.38322 12.1346C8.2662 12.1453 8.14877 12.119 8.04741 12.0596C7.94606 12.0001 7.86588 11.9104 7.81812 11.803C7.77036 11.6957 7.75743 11.576 7.78114 11.4609L9.19864 4.38937C9.22419 4.26198 9.29307 4.14735 9.39355 4.06498C9.49404 3.9826 9.61995 3.93756 9.74989 3.9375H15.7499C15.8991 3.9375 16.0421 3.99676 16.1476 4.10225C16.2531 4.20774 16.3124 4.35082 16.3124 4.5C16.3124 4.64918 16.2531 4.79226 16.1476 4.89775C16.0421 5.00324 15.8991 5.0625 15.7499 5.0625H10.2111L9.14426 10.3959C9.91551 10.0432 10.763 9.88986 11.609 9.95002C12.4549 10.0102 13.2722 10.2819 13.9858 10.7402C14.6994 11.1985 15.2864 11.8288 15.6929 12.5731C16.0994 13.3174 16.3124 14.1519 16.3124 15Z" fill="black"/>
</svg>
