<svg width="24" height="24" viewBox="0 0 24 24" fill="none" xmlns="http://www.w3.org/2000/svg">
<path d="M12.0003 3.9375C11.2545 3.93703 10.5179 4.10132 9.84301 4.41863C9.16814 4.73594 8.5717 5.19843 8.09635 5.77304C7.62099 6.34765 7.27845 7.02019 7.09322 7.74256C6.90799 8.46494 6.88464 9.21932 7.02484 9.95177C7.16505 10.6842 7.46534 11.3767 7.90426 11.9796C8.34317 12.5825 8.90986 13.081 9.56382 13.4394C10.2178 13.7978 10.9429 14.0074 11.6872 14.053C12.4316 14.0987 13.1768 13.9793 13.8697 13.7034L10.76 19.2234C10.6867 19.3535 10.6682 19.5073 10.7083 19.651C10.7485 19.7947 10.8441 19.9166 10.9742 19.9898C11.1042 20.0631 11.258 20.0816 11.4018 20.0415C11.5455 20.0013 11.6674 19.9057 11.7406 19.7756L16.385 11.5256C16.8279 10.7561 17.0607 9.8837 17.06 8.99583C17.0592 8.10797 16.825 7.23591 16.3808 6.46716C15.9366 5.6984 15.298 5.05999 14.5291 4.61599C13.7603 4.17198 12.8881 3.93799 12.0003 3.9375ZM12.0003 12.9375C11.2215 12.9375 10.4602 12.7066 9.81272 12.2739C9.1652 11.8413 8.66052 11.2263 8.3625 10.5068C8.06448 9.78733 7.98651 8.99563 8.13844 8.23183C8.29037 7.46803 8.66538 6.76644 9.21605 6.21577C9.76672 5.6651 10.4683 5.29009 11.2321 5.13816C11.9959 4.98623 12.7876 5.06421 13.5071 5.36223C14.2266 5.66025 14.8415 6.16493 15.2742 6.81244C15.7069 7.45996 15.9378 8.22124 15.9378 9C15.9378 10.0443 15.5229 11.0458 14.7845 11.7842C14.0461 12.5227 13.0446 12.9375 12.0003 12.9375Z" fill="black"/>
</svg>
