<svg width="24" height="24" viewBox="0 0 24 24" fill="none" xmlns="http://www.w3.org/2000/svg">
<path d="M16.1249 12.9375C16.3103 12.9375 16.4915 12.9925 16.6457 13.0955C16.7999 13.1985 16.92 13.3449 16.991 13.5162C17.062 13.6875 17.0805 13.876 17.0443 14.0579C17.0082 14.2398 16.9189 14.4068 16.7878 14.5379C16.6567 14.669 16.4896 14.7583 16.3078 14.7945C16.1259 14.8307 15.9374 14.8121 15.7661 14.7411C15.5948 14.6702 15.4484 14.55 15.3454 14.3958C15.2423 14.2417 15.1874 14.0604 15.1874 13.875C15.1874 13.6264 15.2861 13.3879 15.4619 13.2121C15.6378 13.0363 15.8762 12.9375 16.1249 12.9375ZM17.3867 9.51L11.1786 6.61219C9.49298 6.81314 7.93953 7.62516 6.81237 8.89451C5.68521 10.1639 5.06258 11.8024 5.06236 13.5C5.06236 13.5206 5.06236 13.5413 5.06236 13.5619L11.7336 10.0041C11.8193 9.958 11.9156 9.93496 12.0128 9.93721C12.1101 9.93946 12.2052 9.96691 12.2887 10.0169C12.3722 10.0669 12.4413 10.1376 12.4893 10.2223C12.5373 10.307 12.5624 10.4027 12.5624 10.5V20.415C13.9398 20.308 15.2534 19.7901 16.3333 18.9283C17.4131 18.0666 18.2096 16.9006 18.6195 15.5812C18.6643 15.4389 18.7638 15.3202 18.8961 15.2512C19.0284 15.1821 19.1827 15.1685 19.325 15.2133C19.4674 15.258 19.5861 15.3575 19.6551 15.4898C19.7241 15.6221 19.7377 15.7764 19.693 15.9188C19.3498 17.0064 18.7797 18.0089 18.0204 18.8599C17.2612 19.711 16.33 20.3913 15.2884 20.8558C14.2468 21.3204 13.1184 21.5587 11.9779 21.555C10.8374 21.5513 9.71067 21.3056 8.67211 20.8343C7.63355 20.3629 6.70681 19.6766 5.95311 18.8206C5.1994 17.9646 4.63588 16.9585 4.29977 15.8686C3.96365 14.7787 3.86259 13.63 4.00326 12.4981C4.14392 11.3663 4.52312 10.2772 5.1158 9.30281C4.44197 9.01279 3.88881 8.49922 3.54964 7.84875C3.21046 7.19828 3.10603 6.45073 3.25396 5.73222C3.4019 5.0137 3.79314 4.3682 4.36168 3.90462C4.93023 3.44104 5.64127 3.18776 6.37486 3.1875C6.45712 3.18738 6.5384 3.2053 6.61298 3.24L17.743 8.4375C18.29 8.42184 18.8084 8.18952 19.1841 7.79165C19.5598 7.39377 19.7621 6.86295 19.7464 6.31594C19.7308 5.76893 19.4984 5.25055 19.1006 4.87483C18.7027 4.49911 18.1719 4.29684 17.6249 4.3125C17.4757 4.3125 17.3326 4.25324 17.2271 4.14775C17.1216 4.04226 17.0624 3.89918 17.0624 3.75C17.0624 3.60082 17.1216 3.45774 17.2271 3.35225C17.3326 3.24676 17.4757 3.1875 17.6249 3.1875C18.4702 3.1875 19.281 3.52333 19.8788 4.1211C20.4765 4.71887 20.8124 5.52962 20.8124 6.375C20.8124 7.22038 20.4765 8.03113 19.8788 8.6289C19.281 9.22668 18.4702 9.5625 17.6249 9.5625C17.5426 9.56262 17.4613 9.5447 17.3867 9.51ZM9.56236 19.9941C10.1647 20.2207 10.7958 20.3617 11.4374 20.4131V11.4375L9.56236 12.4378V19.9941ZM5.18142 14.7741C5.36339 15.7392 5.74759 16.6548 6.30876 17.4608C6.86994 18.2667 7.59537 18.9448 8.43736 19.4503V13.0378L5.18142 14.7741ZM9.50705 5.83219L6.25673 4.3125C5.77273 4.34184 5.31454 4.54076 4.96262 4.87434C4.61071 5.20792 4.38757 5.65482 4.3324 6.13656C4.27723 6.61831 4.39356 7.10408 4.66095 7.50858C4.92834 7.91308 5.3297 8.21044 5.79455 8.34844C5.87517 8.25469 5.95861 8.15531 6.04486 8.06063C6.9866 7.03069 8.17957 6.26284 9.50705 5.83219Z" fill="black"/>
</svg>
