<svg width="24" height="24" viewBox="0 0 24 24" fill="none" xmlns="http://www.w3.org/2000/svg">
<path d="M21.5452 13.8376L16.3121 4.84416L16.3036 4.83009C15.8493 4.09875 15.216 3.49535 14.4635 3.07695C13.7111 2.65855 12.8643 2.43896 12.0033 2.43896C11.1424 2.43896 10.2956 2.65855 9.54314 3.07695C8.79067 3.49535 8.15733 4.09875 7.70302 4.83009L7.69458 4.84416L2.45396 13.8376C1.97985 14.6043 1.71907 15.4837 1.69857 16.385C1.67808 17.2862 1.8986 18.1766 2.33736 18.9641C2.77612 19.7516 3.4172 20.4076 4.19435 20.8644C4.97151 21.3213 5.85655 21.5623 6.75802 21.5626H17.2411C18.1426 21.5623 19.0277 21.3213 19.8048 20.8644C20.582 20.4076 21.223 19.7516 21.6618 18.9641C22.1006 18.1766 22.3211 17.2862 22.3006 16.385C22.2801 15.4837 22.0193 14.6043 21.5452 13.8376ZM15.1871 20.4376H8.81208V15.7501C8.81208 15.7004 8.83184 15.6527 8.867 15.6175C8.90216 15.5823 8.94985 15.5626 8.99958 15.5626H14.9996C15.0493 15.5626 15.097 15.5823 15.1322 15.6175C15.1673 15.6527 15.1871 15.7004 15.1871 15.7501V20.4376ZM20.6818 18.4145C20.3447 19.0312 19.8467 19.545 19.2409 19.9013C18.635 20.2575 17.944 20.4429 17.2411 20.4376H16.3121V15.7501C16.3121 15.402 16.1738 15.0682 15.9277 14.822C15.6815 14.5759 15.3477 14.4376 14.9996 14.4376H8.99958C8.65148 14.4376 8.31764 14.5759 8.0715 14.822C7.82536 15.0682 7.68708 15.402 7.68708 15.7501V20.4376H6.75802C6.0563 20.4374 5.3674 20.2496 4.7626 19.8937C4.15781 19.5379 3.6591 19.0269 3.31808 18.4136C2.97707 17.8003 2.80615 17.107 2.82301 16.4055C2.83986 15.704 3.04388 15.0197 3.41396 14.4235L3.42146 14.4104L8.65927 5.41697C9.01308 4.85008 9.50534 4.38256 10.0897 4.05843C10.6741 3.7343 11.3313 3.56423 11.9996 3.56423C12.6678 3.56423 13.3251 3.7343 13.9094 4.05843C14.4938 4.38256 14.9861 4.85008 15.3399 5.41697L20.5777 14.4104L20.5852 14.4235C20.9604 15.018 21.1674 15.703 21.1842 16.4058C21.2011 17.1085 21.0271 17.8027 20.6808 18.4145H20.6818Z" fill="black"/>
</svg>
