<svg width="24" height="24" viewBox="0 0 24 24" fill="none" xmlns="http://www.w3.org/2000/svg">
<path d="M20.8121 10.74C21.1756 9.90273 21.3061 8.98279 21.1896 8.07749C21.0732 7.1722 20.7141 6.31524 20.1504 5.59731C19.5868 4.87937 18.8395 4.32718 17.9878 3.99917C17.136 3.67117 16.2114 3.57955 15.3118 3.73402C14.7681 3.00189 14.0368 2.43021 13.1951 2.07937C12.3533 1.72852 11.4325 1.61156 10.5298 1.74081C9.62706 1.87007 8.77603 2.24076 8.06659 2.81372C7.35715 3.38667 6.81564 4.14062 6.49927 4.99589C5.59327 5.1007 4.73242 5.44832 4.00768 6.00201C3.28294 6.5557 2.72123 7.29489 2.38193 8.14147C2.04263 8.98805 1.93833 9.91056 2.08005 10.8115C2.22178 11.7125 2.60426 12.5584 3.18708 13.26C2.89748 13.9275 2.7552 14.6497 2.76993 15.3772C2.78467 16.1048 2.95607 16.8206 3.27247 17.4759C3.58887 18.1312 4.04281 18.7106 4.60338 19.1746C5.16395 19.6386 5.81795 19.9763 6.52083 20.1646C6.94963 20.2812 7.39179 20.3414 7.83615 20.3437C8.12085 20.3438 8.40502 20.3193 8.68552 20.2706C9.22919 21.0027 9.96052 21.5744 10.8022 21.9252C11.644 22.2761 12.5648 22.393 13.4675 22.2638C14.3702 22.1345 15.2213 21.7638 15.9307 21.1909C16.6401 20.6179 17.1817 19.864 17.498 19.0087C18.405 18.9047 19.267 18.5574 19.9928 18.0036C20.7185 17.4497 21.281 16.7099 21.6206 15.8625C21.9603 15.0151 22.0644 14.0916 21.9221 13.1898C21.7798 12.2881 21.3962 11.4416 20.8121 10.74ZM17.1905 4.92183C17.7035 5.05922 18.1834 5.29897 18.6014 5.62665C19.0193 5.95433 19.3667 6.36318 19.6225 6.82859C19.8783 7.294 20.0374 7.80636 20.09 8.33483C20.1427 8.8633 20.0879 9.39696 19.929 9.9037C19.7761 9.79092 19.6171 9.6867 19.4527 9.59152L15.2808 7.18308C15.1953 7.13371 15.0983 7.10772 14.9996 7.10772C14.9008 7.10772 14.8038 7.13371 14.7183 7.18308L10.3121 9.72652V7.56183L14.2027 5.31183C14.6502 5.05255 15.1447 4.88458 15.6576 4.81764C16.1704 4.7507 16.6914 4.78611 17.1905 4.92183ZM13.6871 12.974L11.9996 13.9481L10.3121 12.974V11.0259L11.9996 10.0518L13.6871 11.0259V12.974ZM7.31208 6.74995C7.31198 5.95705 7.55127 5.18258 7.99862 4.52793C8.44597 3.87327 9.08055 3.36892 9.8193 3.0809C10.558 2.79288 11.3665 2.7346 12.139 2.9137C12.9114 3.09279 13.6117 3.50091 14.1483 4.08464C13.9745 4.16104 13.8048 4.24679 13.6402 4.34152L9.46834 6.74995C9.38291 6.79928 9.31195 6.87019 9.26259 6.95559C9.21322 7.041 9.18719 7.13788 9.18709 7.23652V12.3243L7.31208 11.2425V6.74995ZM3.66802 8.05589C3.9393 7.58284 4.30643 7.17168 4.74587 6.8488C5.18532 6.52591 5.68739 6.29841 6.2199 6.18089C6.19849 6.36983 6.18754 6.55981 6.18708 6.74995V11.5668C6.18702 11.6656 6.21298 11.7627 6.26236 11.8483C6.31173 11.9339 6.38277 12.0049 6.46833 12.0543L10.8746 14.5978L8.99959 15.6806L5.10896 13.4306C4.20572 12.9084 3.54665 12.0491 3.27648 11.0414C3.00631 10.0336 3.14713 8.95987 3.66802 8.05589ZM6.80865 19.0781C6.29564 18.9407 5.81572 18.7009 5.39778 18.3733C4.97983 18.0456 4.6325 17.6367 4.37667 17.1713C4.12085 16.7059 3.96181 16.1936 3.90915 15.6651C3.85648 15.1366 3.91127 14.603 4.07021 14.0962C4.22307 14.209 4.38206 14.3132 4.54646 14.4084L8.71834 16.8168C8.80385 16.8662 8.90085 16.8922 8.99959 16.8922C9.09832 16.8922 9.19532 16.8662 9.28084 16.8168L13.6871 14.2734V16.4381L9.79646 18.6881C9.34894 18.9474 8.85446 19.1153 8.34161 19.1823C7.82876 19.2492 7.30772 19.2138 6.80865 19.0781ZM16.6871 17.25C16.6872 18.0429 16.4479 18.8173 16.0005 19.472C15.5532 20.1266 14.9186 20.631 14.1799 20.919C13.4411 21.207 12.6326 21.2653 11.8602 21.0862C11.0878 20.9071 10.3875 20.499 9.85084 19.9153C10.0247 19.8389 10.1943 19.7531 10.359 19.6584L14.5308 17.25C14.6163 17.2006 14.6872 17.1297 14.7366 17.0443C14.7859 16.9589 14.812 16.862 14.8121 16.7634V11.6756L16.6871 12.7575V17.25ZM20.3311 15.944C20.0599 16.4171 19.6927 16.8282 19.2533 17.1511C18.8138 17.474 18.3118 17.7015 17.7793 17.819C17.8007 17.6301 17.8116 17.4401 17.8121 17.25V12.4331C17.8121 12.3343 17.7862 12.2372 17.7368 12.1516C17.6874 12.066 17.6164 11.995 17.5308 11.9456L13.1246 9.40214L14.9996 8.31933L18.8902 10.5693C19.7934 11.0915 20.4525 11.9508 20.7227 12.9585C20.9929 13.9663 20.852 15.04 20.3311 15.944Z" fill="black"/>
</svg>
