<svg width="24" height="24" viewBox="0 0 24 24" fill="none" xmlns="http://www.w3.org/2000/svg">
<path d="M15.108 6.81094C16.1353 6.35399 17.0082 5.60925 17.6213 4.66675C18.2344 3.72426 18.5613 2.62435 18.5626 1.5C18.5626 1.35082 18.5034 1.20774 18.3979 1.10225C18.2924 0.996763 18.1493 0.9375 18.0001 0.9375H17.2501C16.1508 0.938633 15.0742 1.25113 14.1451 1.8388C13.2159 2.42647 12.4723 3.26528 12.0001 4.25812C11.528 3.26528 10.7843 2.42647 9.85522 1.8388C8.9261 1.25113 7.84952 0.938633 6.75015 0.9375H6.00015C5.85096 0.9375 5.70789 0.996763 5.6024 1.10225C5.49691 1.20774 5.43765 1.35082 5.43765 1.5C5.43765 1.64918 5.49691 1.79226 5.6024 1.89775C5.70789 2.00324 5.85096 2.0625 6.00015 2.0625H6.75015C7.89967 2.06394 9.00868 2.48723 9.86683 3.25207C10.725 4.0169 11.2726 5.0701 11.4058 6.21187C9.43766 6.35866 7.59185 7.22264 6.21844 8.63995C4.84503 10.0573 4.03953 11.9293 3.95472 13.9011C3.8699 15.8728 4.51167 17.8072 5.7583 19.3372C7.00493 20.8672 8.76973 21.8865 10.718 22.2017C12.6662 22.517 14.6624 22.1063 16.3279 21.0475C17.9935 19.9887 19.2125 18.3555 19.7538 16.4576C20.2952 14.5597 20.1212 12.5291 19.2648 10.751C18.4085 8.97292 16.9293 7.57092 15.108 6.81094ZM17.2501 2.0625H17.4039C17.265 3.19947 16.7153 4.24643 15.8581 5.0062C15.0009 5.76597 13.8956 6.18611 12.7501 6.1875H12.5964C12.7353 5.05053 13.285 4.00357 14.1422 3.2438C14.9994 2.48403 16.1047 2.06389 17.2501 2.0625ZM12.0001 21.1875C10.628 21.1875 9.28674 20.7806 8.14588 20.0183C7.00501 19.256 6.11581 18.1725 5.59073 16.9049C5.06565 15.6372 4.92826 14.2423 5.19595 12.8966C5.46363 11.5508 6.12436 10.3147 7.09459 9.34445C8.06482 8.37422 9.30096 7.71349 10.6467 7.4458C11.9924 7.17812 13.3873 7.3155 14.655 7.84059C15.9227 8.36567 17.0062 9.25487 17.7685 10.3957C18.5308 11.5366 18.9376 12.8779 18.9376 14.25C18.9354 16.0893 18.2038 17.8525 16.9032 19.1531C15.6027 20.4536 13.8394 21.1853 12.0001 21.1875ZM17.0551 15.0938C16.8688 16.1424 16.3651 17.1086 15.6119 17.8618C14.8588 18.6149 13.8926 19.1187 12.8439 19.305C12.8129 19.3098 12.7815 19.3123 12.7501 19.3125C12.6087 19.3131 12.4723 19.2603 12.368 19.1648C12.2637 19.0693 12.1992 18.938 12.1874 18.797C12.1756 18.6561 12.2173 18.5159 12.3042 18.4043C12.3911 18.2927 12.5169 18.218 12.6564 18.195C13.4756 18.05 14.2304 17.6567 14.8186 17.0685C15.4069 16.4802 15.8001 15.7254 15.9451 14.9062C15.97 14.7591 16.0523 14.6278 16.174 14.5413C16.2342 14.4984 16.3023 14.4679 16.3744 14.4514C16.4464 14.4349 16.521 14.4327 16.5939 14.445C16.6668 14.4573 16.7365 14.4839 16.7991 14.5231C16.8618 14.5624 16.916 14.6136 16.9589 14.6738C17.0017 14.7341 17.0323 14.8022 17.0488 14.8742C17.0653 14.9463 17.0675 15.0209 17.0551 15.0938Z" fill="black"/>
</svg>
