<svg width="24" height="24" viewBox="0 0 24 24" fill="none" xmlns="http://www.w3.org/2000/svg">
<path d="M21.0002 2.4375C19.0502 2.4375 16.8649 3.50719 14.5033 5.61562C12.8083 7.13062 11.344 8.89687 10.3408 10.2187C9.52387 9.94711 8.65408 9.87334 7.80304 10.0035C6.95199 10.1337 6.14402 10.4641 5.44562 10.9675C4.74721 11.471 4.17833 12.1331 3.78579 12.8993C3.39325 13.6656 3.18827 14.5141 3.18771 15.375C3.18771 18.3816 1.2724 19.7241 1.18615 19.7812C1.08522 19.8482 1.0086 19.9459 0.967669 20.0599C0.926739 20.1739 0.923688 20.298 0.958971 20.4139C0.994254 20.5297 1.06599 20.6311 1.1635 20.7029C1.26102 20.7747 1.37911 20.8132 1.50021 20.8125H8.62521C9.48615 20.8119 10.3347 20.607 11.1009 20.2144C11.8672 19.8219 12.5292 19.253 13.0327 18.5546C13.5361 17.8562 13.8665 17.0482 13.9967 16.1972C14.1269 15.3461 14.0531 14.4763 13.7815 13.6594C15.1015 12.6591 16.8677 11.1919 18.3827 9.49687C20.493 7.13531 21.5627 4.95 21.5627 3C21.5627 2.85082 21.5035 2.70774 21.398 2.60225C21.2925 2.49676 21.1494 2.4375 21.0002 2.4375ZM8.62521 19.6875H2.87365C3.55521 18.8297 4.31271 17.4169 4.31271 15.375C4.31271 14.5221 4.56564 13.6883 5.0395 12.9791C5.51336 12.2699 6.18688 11.7172 6.97489 11.3908C7.7629 11.0644 8.63 10.979 9.46654 11.1454C10.3031 11.3118 11.0715 11.7225 11.6746 12.3256C12.2777 12.9287 12.6884 13.6971 12.8548 14.5337C13.0212 15.3702 12.9358 16.2373 12.6094 17.0253C12.283 17.8133 11.7303 18.4868 11.0211 18.9607C10.3119 19.4346 9.47814 19.6875 8.62521 19.6875ZM11.3899 10.6959C11.7274 10.2581 12.1286 9.75844 12.5815 9.225C13.4609 9.79131 14.2089 10.5393 14.7752 11.4187C14.2437 11.8716 13.744 12.2728 13.3043 12.6103C12.8365 11.8219 12.1783 11.1637 11.3899 10.6959ZM15.6274 10.6678C15.0177 9.76186 14.2383 8.98252 13.3324 8.37281C15.2862 6.23062 17.9065 3.9375 20.3965 3.60375C20.0627 6.09375 17.7696 8.71875 15.6274 10.6678Z" fill="black"/>
</svg>
