<svg width="24" height="24" viewBox="0 0 24 24" fill="none" xmlns="http://www.w3.org/2000/svg">
<path d="M21.1759 2.82379C21.012 2.6573 20.806 2.53821 20.58 2.47913C20.3539 2.42005 20.116 2.42317 19.8916 2.48816H19.8812L1.88781 7.94723C1.63225 8.02124 1.40523 8.17117 1.23682 8.37715C1.06842 8.58312 0.966585 8.83542 0.944827 9.10058C0.923069 9.36575 0.982411 9.63126 1.11499 9.86194C1.24756 10.0926 1.44711 10.2775 1.68718 10.3922L9.70843 14.296L13.6047 22.3125C13.7097 22.5373 13.8768 22.7273 14.0862 22.8602C14.2957 22.9931 14.5388 23.0633 14.7869 23.0625C14.8244 23.0625 14.8628 23.0625 14.9003 23.0578C15.1661 23.037 15.419 22.9351 15.625 22.7659C15.8311 22.5968 15.9803 22.3685 16.0525 22.1119L21.5087 4.11848V4.10816C21.5741 3.88395 21.5777 3.64625 21.5191 3.42018C21.4605 3.19411 21.3419 2.98806 21.1759 2.82379ZM20.4259 3.79879L14.9744 21.7903V21.8007C14.964 21.838 14.9422 21.8711 14.9122 21.8956C14.8822 21.92 14.8454 21.9346 14.8067 21.9373C14.7681 21.9399 14.7296 21.9306 14.6965 21.9105C14.6634 21.8904 14.6373 21.8605 14.6219 21.825L10.8081 13.9894L15.4019 9.39566C15.4541 9.3434 15.4956 9.28136 15.5239 9.21307C15.5522 9.14479 15.5667 9.0716 15.5667 8.99769C15.5667 8.92379 15.5522 8.8506 15.5239 8.78232C15.4956 8.71403 15.4541 8.65199 15.4019 8.59973C15.3496 8.54746 15.2876 8.50601 15.2193 8.47772C15.151 8.44944 15.0778 8.43488 15.0039 8.43488C14.93 8.43488 14.8568 8.44944 14.7885 8.47772C14.7202 8.50601 14.6582 8.54746 14.6059 8.59973L10.0122 13.1935L2.17 9.37504C2.13524 9.35884 2.10629 9.33239 2.08704 9.29923C2.06779 9.26607 2.05917 9.22781 2.06234 9.1896C2.0655 9.15139 2.08031 9.11507 2.10475 9.08553C2.1292 9.056 2.16211 9.03467 2.19906 9.02441H2.20937L20.2009 3.57004C20.2325 3.56116 20.266 3.56101 20.2977 3.56959C20.3293 3.57817 20.3581 3.59517 20.3809 3.61879C20.4041 3.64193 20.4207 3.67072 20.4293 3.7023C20.4378 3.73388 20.438 3.76714 20.4297 3.79879H20.4259Z" fill="black"/>
</svg>
