<svg width="24" height="24" viewBox="0 0 24 24" fill="none" xmlns="http://www.w3.org/2000/svg">
<path d="M19.523 11.6026C19.5753 11.6548 19.6168 11.7169 19.6451 11.7851C19.6734 11.8534 19.688 11.9266 19.688 12.0005C19.688 12.0745 19.6734 12.1477 19.6451 12.216C19.6168 12.2842 19.5753 12.3463 19.523 12.3985L11.8299 20.086C10.8802 21.0353 9.59229 21.5685 8.2495 21.5682C6.90671 21.568 5.61902 21.0343 4.66971 20.0846C3.7204 19.1349 3.18724 17.847 3.1875 16.5042C3.18776 15.1615 3.72144 13.8738 4.67112 12.9245L13.9777 3.48196C14.3084 3.15096 14.701 2.88834 15.1332 2.70909C15.5654 2.52984 16.0286 2.43747 16.4965 2.43726C16.9644 2.43704 17.4277 2.52898 17.8601 2.70783C18.2924 2.88667 18.6853 3.14893 19.0163 3.47961C19.3473 3.8103 19.6099 4.20294 19.7891 4.63512C19.9684 5.06729 20.0608 5.53055 20.061 5.99842C20.0612 6.4663 19.9693 6.92964 19.7904 7.36198C19.6116 7.79433 19.3493 8.18721 19.0186 8.5182L9.71112 17.957C9.51974 18.1487 9.29246 18.3009 9.04227 18.4048C8.79208 18.5087 8.52387 18.5623 8.25295 18.5626C7.98204 18.5629 7.71372 18.5098 7.46333 18.4063C7.21294 18.3029 6.98537 18.1511 6.79362 17.9598C6.60187 17.7684 6.44969 17.5411 6.34578 17.2909C6.24186 17.0407 6.18824 16.7725 6.18798 16.5016C6.18772 16.2307 6.24082 15.9624 6.34425 15.712C6.44769 15.4616 6.59943 15.234 6.79081 15.0423L14.5983 7.10445C14.6501 7.05176 14.7118 7.00979 14.7799 6.98095C14.8479 6.9521 14.921 6.93694 14.9949 6.93633C15.0688 6.93572 15.1421 6.94967 15.2106 6.9774C15.2792 7.00512 15.3416 7.04606 15.3942 7.09789C15.4469 7.14972 15.4889 7.21143 15.5178 7.27948C15.5466 7.34753 15.5618 7.42059 15.5624 7.4945C15.563 7.56841 15.549 7.64172 15.5213 7.71023C15.4936 7.77875 15.4526 7.84114 15.4008 7.89383L7.59331 15.8354C7.50602 15.9223 7.43669 16.0254 7.38929 16.1391C7.34188 16.2527 7.31733 16.3746 7.31702 16.4978C7.31672 16.6209 7.34067 16.7429 7.38751 16.8568C7.43435 16.9707 7.50317 17.0742 7.59003 17.1615C7.67688 17.2488 7.78008 17.3181 7.89373 17.3655C8.00738 17.4129 8.12925 17.4375 8.25239 17.4378C8.37553 17.4381 8.49753 17.4141 8.61141 17.3673C8.72529 17.3204 8.82883 17.2516 8.91612 17.1648L18.2199 7.72508C18.6774 7.26833 18.9347 6.64854 18.9352 6.00207C18.9357 5.3556 18.6794 4.73539 18.2227 4.27789C17.7659 3.82039 17.1461 3.56308 16.4997 3.56255C15.8532 3.56202 15.233 3.81833 14.7755 4.27508L5.468 13.7138C4.72904 14.4519 4.31355 15.4533 4.31293 16.4978C4.31232 17.5422 4.72662 18.5441 5.46471 19.283C6.2028 20.022 7.20421 20.4375 8.24864 20.4381C9.29307 20.4387 10.295 20.0244 11.0339 19.2863L18.7271 11.5988C18.7795 11.5468 18.8418 11.5056 18.9102 11.4776C18.9786 11.4496 19.0519 11.4354 19.1258 11.4357C19.1997 11.4361 19.2729 11.451 19.341 11.4796C19.4092 11.5083 19.471 11.55 19.523 11.6026Z" fill="black"/>
</svg>
