<svg width="24" height="24" viewBox="0 0 24 24" fill="none" xmlns="http://www.w3.org/2000/svg">
<path d="M21.6452 10.8459L5.89521 1.85711C5.66255 1.72818 5.39621 1.67299 5.13148 1.69884C4.86675 1.72469 4.61612 1.83037 4.41279 2.00187C4.20947 2.17337 4.06306 2.4026 3.99295 2.65919C3.92284 2.91578 3.93235 3.18761 4.02021 3.43867L6.90584 11.9999L4.01365 20.5621C3.94362 20.76 3.92209 20.9718 3.95086 21.1798C3.97963 21.3878 4.05787 21.5858 4.17901 21.7572C4.30015 21.9287 4.46064 22.0686 4.64704 22.1652C4.83343 22.2618 5.04028 22.3123 5.25021 22.3124C5.47791 22.3119 5.70165 22.2529 5.8999 22.1409L21.6415 13.1343C21.8446 13.0202 22.0136 12.854 22.1313 12.6529C22.249 12.4518 22.311 12.2231 22.311 11.9901C22.311 11.7571 22.249 11.5283 22.1313 11.3272C22.0136 11.1261 21.8446 10.96 21.6415 10.8459H21.6452ZM21.0874 12.1584L5.34396 21.1621C5.31064 21.1808 5.27241 21.1888 5.23439 21.1852C5.19637 21.1815 5.16038 21.1663 5.13122 21.1417C5.10206 21.117 5.08114 21.084 5.07124 21.0471C5.06134 21.0102 5.06295 20.9712 5.07584 20.9352C5.07621 20.9321 5.07621 20.929 5.07584 20.9259L7.90334 12.5624H13.5002C13.6494 12.5624 13.7925 12.5032 13.898 12.3977C14.0035 12.2922 14.0627 12.1491 14.0627 11.9999C14.0627 11.8507 14.0035 11.7077 13.898 11.6022C13.7925 11.4967 13.6494 11.4374 13.5002 11.4374H7.90334L5.07865 3.07492C5.07917 3.07182 5.07917 3.06865 5.07865 3.06555C5.06397 3.02978 5.06153 2.99016 5.0717 2.95286C5.08187 2.91556 5.10409 2.88266 5.1349 2.8593C5.16237 2.83302 5.1977 2.8165 5.23547 2.81226C5.27324 2.80803 5.31136 2.81632 5.34396 2.83586L21.094 11.8255C21.123 11.8415 21.1472 11.8652 21.1637 11.894C21.1802 11.9227 21.1885 11.9555 21.1877 11.9887C21.1879 12.023 21.1786 12.0567 21.1609 12.0862C21.1432 12.1156 21.1178 12.1396 21.0874 12.1556V12.1584Z" fill="black"/>
</svg>
