<svg width="24" height="24" viewBox="0 0 24 24" fill="none" xmlns="http://www.w3.org/2000/svg">
<path d="M22.1409 18.8522L13.1344 3.10873C13.0202 2.90562 12.8541 2.73655 12.653 2.61889C12.4519 2.50123 12.2231 2.43921 11.9902 2.43921C11.7572 2.43921 11.5284 2.50123 11.3273 2.61889C11.1262 2.73655 10.9601 2.90562 10.8459 3.10873L1.85719 18.8587C1.72666 19.0915 1.67017 19.3585 1.69527 19.6242C1.72037 19.8898 1.82585 20.1416 1.99766 20.3457C2.16946 20.5499 2.39943 20.6969 2.6569 20.7671C2.91437 20.8372 3.18711 20.8272 3.43875 20.7384L12 17.8444L20.5622 20.7365C20.7029 20.786 20.8509 20.8117 21 20.8125C21.2292 20.8117 21.4542 20.751 21.6526 20.6362C21.8511 20.5215 22.016 20.3568 22.131 20.1586C22.246 19.9603 22.3071 19.7354 22.3082 19.5062C22.3093 19.277 22.2503 19.0515 22.1372 18.8522H22.1409ZM21.1416 19.619C21.1182 19.6499 21.0853 19.6721 21.048 19.6822C21.0107 19.6924 20.9711 19.69 20.9353 19.6753H20.9259L12.5625 16.8469V11.25C12.5625 11.1008 12.5032 10.9577 12.3977 10.8522C12.2923 10.7467 12.1492 10.6875 12 10.6875C11.8508 10.6875 11.7077 10.7467 11.6023 10.8522C11.4968 10.9577 11.4375 11.1008 11.4375 11.25V16.8469L3.075 19.6715H3.06563C3.02986 19.6862 2.99024 19.6887 2.95293 19.6785C2.91563 19.6683 2.88274 19.6461 2.85938 19.6153C2.83333 19.5879 2.81701 19.5526 2.81295 19.515C2.80888 19.4774 2.81729 19.4395 2.83688 19.4072L11.8256 3.65623C11.8416 3.62715 11.8653 3.60302 11.894 3.58649C11.9228 3.56995 11.9556 3.56165 11.9888 3.56248C12.0231 3.56232 12.0568 3.57159 12.0862 3.58928C12.1157 3.60697 12.1397 3.6324 12.1556 3.66279L21.1622 19.4062C21.1829 19.439 21.1921 19.4776 21.1883 19.5162C21.1846 19.5547 21.1681 19.5909 21.1416 19.619Z" fill="black"/>
</svg>
