<svg width="24" height="24" viewBox="0 0 24 24" fill="none" xmlns="http://www.w3.org/2000/svg">
<path d="M22.8519 4.53751C22.733 4.3535 22.5699 4.2022 22.3775 4.09739C22.1851 3.99259 21.9695 3.93763 21.7504 3.93751H8.32632C8.07283 3.93669 7.82453 4.00929 7.61142 4.14654C7.3983 4.28379 7.22949 4.47982 7.12538 4.71094L1.05038 18.2109C0.960224 18.4111 0.921704 18.6307 0.938349 18.8495C0.954994 19.0684 1.02627 19.2796 1.14566 19.4638C1.26505 19.648 1.42873 19.7994 1.62172 19.904C1.81472 20.0086 2.03087 20.0631 2.25038 20.0625H15.6744C15.9279 20.0633 16.1762 19.9907 16.3893 19.8535C16.6025 19.7162 16.7713 19.5202 16.8754 19.2891L22.9504 5.78907C23.0398 5.58884 23.0777 5.36939 23.0605 5.15076C23.0433 4.93213 22.9716 4.72129 22.8519 4.53751ZM21.921 5.32688L15.846 18.8269C15.8312 18.8599 15.807 18.888 15.7766 18.9076C15.7462 18.9272 15.7107 18.9376 15.6744 18.9375H2.25038C2.21903 18.9376 2.18815 18.9298 2.16058 18.9149C2.13301 18.9 2.10962 18.8784 2.09255 18.8521C2.07548 18.8258 2.06528 18.7956 2.06288 18.7644C2.06049 18.7331 2.06596 18.7017 2.07882 18.6731L8.15663 5.17313C8.17135 5.14038 8.19517 5.11254 8.22525 5.09293C8.25533 5.07332 8.29041 5.06276 8.32632 5.06251H21.7504C21.7817 5.06242 21.8126 5.07019 21.8402 5.08511C21.8678 5.10004 21.8911 5.12164 21.9082 5.14794C21.9253 5.17424 21.9355 5.2044 21.9379 5.23566C21.9403 5.26692 21.9348 5.29829 21.9219 5.32688H21.921Z" fill="black"/>
</svg>
