<svg width="24" height="24" viewBox="0 0 24 24" fill="none" xmlns="http://www.w3.org/2000/svg">
<path d="M21.75 18.1874H18.5625V15.5624H21C21.0855 15.5624 21.1699 15.5429 21.2468 15.5054C21.3236 15.4679 21.3909 15.4133 21.4435 15.3459C21.4961 15.2785 21.5327 15.1999 21.5504 15.1162C21.5681 15.0326 21.5664 14.946 21.5456 14.863L18.5456 2.86301C18.5151 2.74138 18.4449 2.63343 18.346 2.55629C18.2472 2.47915 18.1254 2.43726 18 2.43726C17.8746 2.43726 17.7528 2.47915 17.654 2.55629C17.5551 2.63343 17.4849 2.74138 17.4544 2.86301L14.4544 14.863C14.4336 14.946 14.4319 15.0326 14.4496 15.1162C14.4673 15.1999 14.5039 15.2785 14.5565 15.3459C14.6091 15.4133 14.6764 15.4679 14.7532 15.5054C14.8301 15.5429 14.9145 15.5624 15 15.5624H17.4375V18.1874H11.0625V16.3124H12C12.1492 16.3124 12.2923 16.2531 12.3977 16.1476C12.5032 16.0421 12.5625 15.8991 12.5625 15.7499C12.5625 15.6007 12.5032 15.4576 12.3977 15.3521C12.2923 15.2466 12.1492 15.1874 12 15.1874H11.0625V13.3124H12C12.1492 13.3124 12.2923 13.2531 12.3977 13.1476C12.5032 13.0421 12.5625 12.8991 12.5625 12.7499C12.5625 12.6007 12.5032 12.4576 12.3977 12.3521C12.2923 12.2466 12.1492 12.1874 12 12.1874H3.75C3.60082 12.1874 3.45774 12.2466 3.35225 12.3521C3.24676 12.4576 3.1875 12.6007 3.1875 12.7499C3.1875 12.8991 3.24676 13.0421 3.35225 13.1476C3.45774 13.2531 3.60082 13.3124 3.75 13.3124H4.6875V15.1874H3.75C3.60082 15.1874 3.45774 15.2466 3.35225 15.3521C3.24676 15.4576 3.1875 15.6007 3.1875 15.7499C3.1875 15.8991 3.24676 16.0421 3.35225 16.1476C3.45774 16.2531 3.60082 16.3124 3.75 16.3124H4.6875V18.1874H2.25C2.10082 18.1874 1.95774 18.2466 1.85225 18.3521C1.74676 18.4576 1.6875 18.6007 1.6875 18.7499C1.6875 18.8991 1.74676 19.0421 1.85225 19.1476C1.95774 19.2531 2.10082 19.3124 2.25 19.3124H21.75C21.8992 19.3124 22.0423 19.2531 22.1477 19.1476C22.2532 19.0421 22.3125 18.8991 22.3125 18.7499C22.3125 18.6007 22.2532 18.4576 22.1477 18.3521C22.0423 18.2466 21.8992 18.1874 21.75 18.1874ZM18 5.31926L20.28 14.4374H15.72L18 5.31926ZM5.8125 13.3124H9.9375V15.1874H5.8125V13.3124ZM5.8125 16.3124H9.9375V18.1874H5.8125V16.3124ZM10.875 8.81239C11.3571 8.81239 11.8284 8.66943 12.2292 8.40159C12.63 8.13376 12.9425 7.75307 13.127 7.30768C13.3114 6.86228 13.3597 6.37218 13.2657 5.89935C13.1716 5.42652 12.9395 4.9922 12.5986 4.65131C12.2577 4.31042 11.8234 4.07827 11.3505 3.98422C10.8777 3.89017 10.3876 3.93844 9.94221 4.12293C9.49681 4.30742 9.11613 4.61984 8.84829 5.02068C8.58046 5.42153 8.4375 5.89279 8.4375 6.37488C8.4375 7.02135 8.69431 7.64134 9.15143 8.09846C9.60855 8.55558 10.2285 8.81239 10.875 8.81239ZM10.875 5.06238C11.1346 5.06238 11.3883 5.13936 11.6042 5.28358C11.82 5.4278 11.9883 5.63278 12.0876 5.87261C12.1869 6.11244 12.2129 6.37634 12.1623 6.63094C12.1116 6.88554 11.9866 7.11941 11.8031 7.30296C11.6195 7.48652 11.3857 7.61152 11.1311 7.66217C10.8765 7.71281 10.6126 7.68682 10.3727 7.58748C10.1329 7.48814 9.92792 7.31991 9.7837 7.10407C9.63948 6.88823 9.5625 6.63447 9.5625 6.37488C9.5625 6.02679 9.70078 5.69295 9.94692 5.44681C10.1931 5.20067 10.5269 5.06238 10.875 5.06238Z" fill="black"/>
</svg>
