<svg width="24" height="24" viewBox="0 0 24 24" fill="none" xmlns="http://www.w3.org/2000/svg">
<path d="M21.1791 7.01166L16.9894 2.82197C16.8675 2.70008 16.7228 2.60339 16.5636 2.53742C16.4043 2.47145 16.2336 2.4375 16.0613 2.4375C15.8889 2.4375 15.7182 2.47145 15.5589 2.53742C15.3997 2.60339 15.255 2.70008 15.1331 2.82197L3.57188 14.3823C3.44975 14.504 3.35292 14.6486 3.28695 14.8079C3.22098 14.9672 3.18718 15.138 3.1875 15.3104V19.5001C3.1875 19.8482 3.32578 20.182 3.57192 20.4282C3.81807 20.6743 4.15191 20.8126 4.5 20.8126H8.68969C8.8621 20.8129 9.03287 20.7791 9.19216 20.7131C9.35145 20.6472 9.49611 20.5503 9.61781 20.4282L17.6953 12.3507L18.1275 14.0776L14.6025 17.6026C14.5496 17.6547 14.5075 17.7168 14.4788 17.7852C14.45 17.8537 14.435 17.9271 14.4347 18.0014C14.4345 18.0756 14.4489 18.1492 14.4773 18.2178C14.5056 18.2865 14.5472 18.3488 14.5997 18.4013C14.6523 18.4538 14.7147 18.4953 14.7833 18.5236C14.852 18.5518 14.9256 18.5662 14.9999 18.5658C15.0741 18.5655 15.1476 18.5504 15.216 18.5216C15.2844 18.4927 15.3464 18.4506 15.3984 18.3976L19.1484 14.6476C19.2172 14.5789 19.267 14.4936 19.2929 14.3999C19.3189 14.3063 19.3201 14.2075 19.2966 14.1132L18.6234 11.4226L21.1791 8.86791C21.301 8.74603 21.3976 8.60133 21.4636 8.44208C21.5296 8.28284 21.5635 8.11215 21.5635 7.93978C21.5635 7.76741 21.5296 7.59673 21.4636 7.43748C21.3976 7.27823 21.301 7.13354 21.1791 7.01166ZM4.3125 19.5001V16.3585L7.6425 19.6876H4.5C4.45027 19.6876 4.40258 19.6678 4.36742 19.6327C4.33226 19.5975 4.3125 19.5498 4.3125 19.5001ZM9 19.4542L4.545 15.0001L12.75 6.79603L17.205 11.2501L9 19.4542ZM20.3831 8.07197L18 10.4551L13.5459 6.00009L15.9281 3.61791C15.9455 3.60047 15.9662 3.58664 15.989 3.57721C16.0117 3.56777 16.0361 3.56292 16.0608 3.56292C16.0854 3.56292 16.1098 3.56777 16.1326 3.57721C16.1553 3.58664 16.176 3.60047 16.1934 3.61791L20.3831 7.80666C20.4006 7.82407 20.4144 7.84475 20.4238 7.86751C20.4333 7.89027 20.4381 7.91467 20.4381 7.93931C20.4381 7.96395 20.4333 7.98835 20.4238 8.01112C20.4144 8.03388 20.4006 8.05456 20.3831 8.07197Z" fill="black"/>
</svg>
