<svg width="24" height="24" viewBox="0 0 24 24" fill="none" xmlns="http://www.w3.org/2000/svg">
<path d="M23.0629 8.68885C23.0632 8.51643 23.0294 8.34567 22.9634 8.18638C22.8975 8.02708 22.8006 7.88242 22.6785 7.76072L16.2388 1.32197C16.1169 1.20008 15.9722 1.10339 15.813 1.03742C15.6537 0.971453 15.4831 0.9375 15.3107 0.9375C15.1383 0.9375 14.9676 0.971453 14.8084 1.03742C14.6491 1.10339 14.5044 1.20008 14.3826 1.32197L11.6891 4.01541L6.20849 6.07135C5.99281 6.15208 5.80217 6.28814 5.65572 6.46586C5.50926 6.64358 5.41214 6.85671 5.37412 7.08384L3.19537 20.1563C3.18173 20.237 3.18586 20.3197 3.20747 20.3987C3.22908 20.4776 3.26766 20.5508 3.3205 20.6133C3.37335 20.6758 3.43919 20.726 3.51343 20.7604C3.58767 20.7948 3.66853 20.8126 3.75037 20.8126C3.78176 20.8125 3.8131 20.81 3.84412 20.8051L16.9166 18.6263C17.1439 18.5885 17.3572 18.4914 17.5351 18.345C17.713 18.1985 17.8492 18.0078 17.9301 17.792L19.9851 12.3113L22.6794 9.61697C22.8015 9.49525 22.8982 9.35057 22.964 9.19127C23.0298 9.03197 23.0634 8.8612 23.0629 8.68885ZM16.8754 17.3973C16.8638 17.428 16.8444 17.4552 16.8191 17.4761C16.7938 17.497 16.7634 17.5109 16.731 17.5163L5.39006 19.4063L10.3466 14.4488C10.8551 14.7625 11.4611 14.8785 12.0495 14.7747C12.6379 14.6709 13.1677 14.3547 13.5382 13.8861C13.9088 13.4174 14.0943 12.829 14.0596 12.2325C14.0249 11.6361 13.7723 11.0731 13.3498 10.6507C12.9273 10.2282 12.3644 9.9756 11.768 9.94086C11.1715 9.90612 10.5831 10.0917 10.1144 10.4622C9.64575 10.8328 9.32951 11.3626 9.22576 11.9509C9.12201 12.5393 9.23797 13.1453 9.55162 13.6538L4.59412 18.6123L6.48505 7.26853C6.49058 7.23642 6.50438 7.2063 6.5251 7.18115C6.54581 7.156 6.57272 7.13668 6.60318 7.12509L11.8588 5.15634L18.8441 12.1417L16.8754 17.3973ZM10.3129 12.3751C10.3129 12.1155 10.3898 11.8617 10.5341 11.6459C10.6783 11.4301 10.8833 11.2618 11.1231 11.1625C11.3629 11.0632 11.6268 11.0372 11.8814 11.0878C12.136 11.1385 12.3699 11.2635 12.5534 11.447C12.737 11.6306 12.862 11.8644 12.9126 12.119C12.9633 12.3736 12.9373 12.6375 12.838 12.8774C12.7386 13.1172 12.5704 13.3222 12.3546 13.4664C12.1387 13.6106 11.885 13.6876 11.6254 13.6876C11.2773 13.6876 10.9434 13.5493 10.6973 13.3032C10.4511 13.057 10.3129 12.7232 10.3129 12.3751ZM21.8826 8.82197L19.5004 11.2042L12.7954 4.5001L15.1785 2.11697C15.1959 2.09954 15.2166 2.08571 15.2393 2.07627C15.2621 2.06684 15.2865 2.06198 15.3111 2.06198C15.3358 2.06198 15.3602 2.06684 15.383 2.07627C15.4057 2.08571 15.4264 2.09954 15.4438 2.11697L21.8826 8.55666C21.9 8.57407 21.9138 8.59475 21.9233 8.61751C21.9327 8.64027 21.9375 8.66467 21.9375 8.68931C21.9375 8.71395 21.9327 8.73835 21.9233 8.76112C21.9138 8.78388 21.9 8.80456 21.8826 8.82197Z" fill="black"/>
</svg>
