<svg width="24" height="24" viewBox="0 0 24 24" fill="none" xmlns="http://www.w3.org/2000/svg">
<path d="M4.91625 3.37509C4.81328 3.27951 4.67826 3.22593 4.53776 3.22489C4.39727 3.22384 4.26147 3.27541 4.15708 3.36945C4.0527 3.4635 3.98729 3.5932 3.97372 3.73304C3.96014 3.87288 3.9994 4.01274 4.08375 4.12509L8.72344 9.23166L3.57188 14.3832C3.4497 14.5047 3.35282 14.6492 3.28684 14.8083C3.22087 14.9675 3.1871 15.1381 3.1875 15.3104V19.5001C3.1875 19.8482 3.32578 20.182 3.57193 20.4282C3.81807 20.6743 4.15191 20.8126 4.5 20.8126H8.68969C8.8621 20.8129 9.03287 20.7791 9.19216 20.7131C9.35145 20.6472 9.49611 20.5503 9.61782 20.4282L14.4806 15.5626L19.0847 20.6251C19.1851 20.7355 19.3253 20.8015 19.4744 20.8085C19.6235 20.8155 19.7693 20.763 19.8797 20.6626C19.9901 20.5621 20.0561 20.422 20.0631 20.2729C20.0701 20.1238 20.0176 19.978 19.9172 19.8676L4.91625 3.37509ZM8.82188 19.6332C8.78672 19.6681 8.7392 19.6876 8.68969 19.6876H4.5C4.45028 19.6876 4.40258 19.6678 4.36742 19.6327C4.33226 19.5975 4.3125 19.5498 4.3125 19.5001V15.3104C4.31271 15.2608 4.3326 15.2132 4.36782 15.1782L9.48094 10.0651L13.7231 14.732L8.82188 19.6332ZM21.1791 7.01166L16.9894 2.82197C16.8675 2.70008 16.7228 2.60339 16.5636 2.53742C16.4043 2.47145 16.2336 2.4375 16.0613 2.4375C15.8889 2.4375 15.7182 2.47145 15.5589 2.53742C15.3997 2.60339 15.255 2.70008 15.1331 2.82197L11.2266 6.72853C11.1224 6.83425 11.0643 6.97683 11.0648 7.12523C11.0653 7.27362 11.1244 7.41579 11.2293 7.52079C11.3342 7.62578 11.4763 7.68508 11.6247 7.68577C11.7731 7.68646 11.9157 7.62848 12.0216 7.52447L12.75 6.79509L17.205 11.2501L16.2263 12.2288C16.1734 12.281 16.1313 12.343 16.1025 12.4115C16.0737 12.4799 16.0588 12.5534 16.0585 12.6276C16.0582 12.7019 16.0727 12.7754 16.101 12.8441C16.1293 12.9127 16.1709 12.9751 16.2235 13.0276C16.276 13.08 16.3384 13.1216 16.4071 13.1498C16.4758 13.1781 16.5494 13.1924 16.6236 13.1921C16.6979 13.1917 16.7713 13.1767 16.8397 13.1478C16.9081 13.1189 16.9701 13.0768 17.0222 13.0238L21.1791 8.86791C21.301 8.74603 21.3976 8.60133 21.4636 8.44208C21.5296 8.28284 21.5635 8.11215 21.5635 7.93978C21.5635 7.76741 21.5296 7.59673 21.4636 7.43748C21.3976 7.27823 21.301 7.13354 21.1791 7.01166ZM20.3831 8.07197L18 10.4551L13.5459 6.00009L15.9291 3.61791C15.9642 3.58299 16.0117 3.56338 16.0613 3.56338C16.1108 3.56338 16.1583 3.58299 16.1934 3.61791L20.3831 7.80666C20.4006 7.82407 20.4144 7.84475 20.4238 7.86751C20.4333 7.89027 20.4381 7.91467 20.4381 7.93931C20.4381 7.96395 20.4333 7.98835 20.4238 8.01112C20.4144 8.03388 20.4006 8.05456 20.3831 8.07197Z" fill="black"/>
</svg>
