<svg width="24" height="24" viewBox="0 0 24 24" fill="none" xmlns="http://www.w3.org/2000/svg">
<path d="M18.7616 5.23792C17.8763 4.33812 16.8216 3.62251 15.6583 3.13237C14.495 2.64223 13.2462 2.38725 11.9839 2.38216C10.7216 2.37706 9.47078 2.62194 8.30359 3.10268C7.1364 3.58341 6.07593 4.29048 5.18337 5.18311C4.29081 6.07573 3.58381 7.13624 3.10316 8.30347C2.6225 9.4707 2.37771 10.7215 2.38289 11.9838C2.38808 13.2462 2.64314 14.4949 3.13336 15.6582C3.62358 16.8214 4.33927 17.8761 5.23913 18.7614C6.12446 19.6612 7.17917 20.3768 8.34245 20.8669C9.50572 21.3571 10.7545 21.612 12.0168 21.6171C13.2791 21.6222 14.53 21.3773 15.6972 20.8966C16.8644 20.4159 17.9248 19.7088 18.8174 18.8162C19.71 17.9236 20.417 16.863 20.8976 15.6958C21.3783 14.5286 21.623 13.2777 21.6179 12.0154C21.6127 10.7531 21.3576 9.50434 20.8674 8.3411C20.3772 7.17786 19.6615 6.12319 18.7616 5.23792ZM9.93788 12.5626H14.0629L15.3848 15.4276C14.8036 15.1713 14.1528 15.1192 13.5382 15.2799C12.9237 15.4406 12.3817 15.8046 12.0004 16.3126C11.6193 15.8041 11.0772 15.4396 10.4625 15.2785C9.84771 15.1175 9.19655 15.1694 8.61507 15.4257L9.93788 12.5626ZM10.4573 11.4376L12.0004 8.09261L13.5444 11.4376H10.4573ZM12.5629 18.0001C12.5629 17.5526 12.7407 17.1233 13.0571 16.8069C13.3736 16.4904 13.8028 16.3126 14.2504 16.3126C14.6979 16.3126 15.1272 16.4904 15.4436 16.8069C15.7601 17.1233 15.9379 17.5526 15.9379 18.0001V19.4664C14.8926 20.018 13.7424 20.342 12.5629 20.417V18.0001ZM8.06288 18.0001C8.06288 17.5526 8.24067 17.1233 8.55714 16.8069C8.8736 16.4904 9.30283 16.3126 9.75038 16.3126C10.1979 16.3126 10.6272 16.4904 10.9436 16.8069C11.2601 17.1233 11.4379 17.5526 11.4379 18.0001V20.417C10.2584 20.342 9.10812 20.018 8.06288 19.4664V18.0001ZM17.9666 17.9664C17.6837 18.248 17.3818 18.5099 17.0629 18.7501V16.5001C17.0629 16.4189 17.0453 16.3386 17.0113 16.2648L12.5113 6.5148C12.4663 6.41712 12.3943 6.33438 12.3038 6.27638C12.2132 6.21839 12.1079 6.18756 12.0004 6.18756C11.8928 6.18756 11.7876 6.21839 11.697 6.27638C11.6065 6.33438 11.5344 6.41712 11.4894 6.5148L6.98944 16.2648C6.95546 16.3386 6.93787 16.4189 6.93788 16.5001V18.7501C6.61897 18.5096 6.317 18.2474 6.03413 17.9654C4.85413 16.7854 4.05055 15.282 3.725 13.6453C3.39944 12.0086 3.56654 10.3121 4.20516 8.77033C4.84377 7.22859 5.92523 5.91084 7.31277 4.98372C8.7003 4.0566 10.3316 3.56175 12.0004 3.56175C13.6692 3.56175 15.3005 4.0566 16.688 4.98372C18.0755 5.91084 19.157 7.22859 19.7956 8.77033C20.4342 10.3121 20.6013 12.0086 20.2758 13.6453C19.9502 15.282 19.1466 16.7854 17.9666 17.9654V17.9664Z" fill="black"/>
</svg>
