<svg width="24" height="24" viewBox="0 0 24 24" fill="none" xmlns="http://www.w3.org/2000/svg">
<path d="M21.0327 8.3577L12.7884 1.95176L12.7762 1.94239C12.551 1.77726 12.2791 1.68823 11.9999 1.68823C11.7207 1.68823 11.4488 1.77726 11.2237 1.94239L11.2115 1.95176L2.9671 8.3577C2.7481 8.52046 2.58528 8.74742 2.50126 9.00701C2.41725 9.26661 2.41623 9.54594 2.49835 9.80614L5.49835 19.8899C5.49835 19.8946 5.49835 19.8983 5.49835 19.9021C5.58359 20.1669 5.75074 20.3977 5.97569 20.5613C6.20064 20.7249 6.47175 20.8129 6.74991 20.8124H17.2499C17.5278 20.8125 17.7984 20.7244 18.023 20.5608C18.2476 20.3972 18.4145 20.1665 18.4996 19.9021C18.4996 19.9021 18.4996 19.8946 18.4996 19.8899L21.4996 9.80614C21.5819 9.54612 21.5812 9.26693 21.4975 9.00735C21.4138 8.74777 21.2514 8.5207 21.0327 8.3577ZM20.428 9.46864C20.428 9.46864 20.428 9.47614 20.428 9.47989L17.428 19.5618C17.4151 19.5987 17.391 19.6306 17.3591 19.6531C17.3272 19.6756 17.289 19.6876 17.2499 19.6874H6.74991C6.71099 19.6874 6.67303 19.6754 6.64128 19.6528C6.60953 19.6303 6.58557 19.5985 6.57272 19.5618L3.57272 9.47989C3.57272 9.47989 3.57272 9.47239 3.57272 9.46864C3.56056 9.43112 3.56053 9.39072 3.57265 9.35319C3.58477 9.31565 3.60841 9.28289 3.64022 9.25958L3.65241 9.2502L11.894 2.84708C11.9254 2.8253 11.9626 2.81363 12.0008 2.81363C12.039 2.81363 12.0763 2.8253 12.1077 2.84708L20.3493 9.2502L20.3615 9.25958C20.3931 9.28302 20.4166 9.31583 20.4285 9.35335C20.4405 9.39088 20.4403 9.43122 20.428 9.46864Z" fill="black"/>
</svg>
