<svg width="24" height="24" viewBox="0 0 24 24" fill="none" xmlns="http://www.w3.org/2000/svg">
<path d="M22.2463 8.59408C22.1632 8.32935 21.9973 8.09832 21.773 7.93509C21.5486 7.77185 21.2778 7.68506 21.0003 7.68752H15.1391L13.25 1.86283C13.1687 1.59531 13.0036 1.36096 12.7791 1.19425C12.5547 1.02755 12.2826 0.937295 12.003 0.93677C11.7234 0.936245 11.451 1.02548 11.2259 1.19134C11.0008 1.3572 10.8348 1.59093 10.7525 1.85814L8.86063 7.68752H3.00032C2.72271 7.68724 2.45217 7.775 2.22757 7.93817C2.00298 8.10134 1.83591 8.33152 1.75038 8.59562C1.66484 8.85973 1.66525 9.14415 1.75154 9.408C1.83784 9.67186 2.00557 9.90156 2.23063 10.0641L6.97907 13.4803L5.16126 19.0903C5.07261 19.3536 5.07115 19.6383 5.15711 19.9025C5.24306 20.1666 5.41185 20.396 5.63844 20.5566C5.8611 20.7221 6.13116 20.8115 6.4086 20.8115C6.68604 20.8115 6.9561 20.7221 7.17876 20.5566L12.0003 17.0878L16.82 20.5566C17.0441 20.7211 17.3146 20.8102 17.5925 20.811C17.8705 20.8119 18.1415 20.7245 18.3666 20.5614C18.5917 20.3984 18.7593 20.1681 18.8451 19.9037C18.9309 19.6393 18.9305 19.3545 18.8441 19.0903L17.0234 13.4794L21.7738 10.0613C21.9996 9.89985 22.1675 9.67002 22.2526 9.40579C22.3377 9.14156 22.3355 8.85696 22.2463 8.59408ZM11.8231 2.20221C11.832 2.1617 11.8545 2.12544 11.8868 2.09944C11.9191 2.07345 11.9593 2.05928 12.0008 2.05928C12.0423 2.05928 12.0825 2.07345 12.1148 2.09944C12.1471 2.12544 12.1696 2.1617 12.1784 2.20221L13.9597 7.68283H10.0438L11.8231 2.20221ZM2.89251 9.15096C2.85882 9.12927 2.83363 9.09665 2.82116 9.05858C2.8087 9.0205 2.80973 8.9793 2.82407 8.94189C2.8346 8.90364 2.85772 8.87005 2.88971 8.84657C2.92169 8.8231 2.96067 8.8111 3.00032 8.81252H8.49594L7.34657 12.3563L2.89251 9.15096ZM6.51969 19.651C6.48764 19.6744 6.44898 19.687 6.40927 19.6871C6.36957 19.6871 6.33087 19.6746 6.29876 19.6512C6.26665 19.6279 6.24278 19.5949 6.23059 19.5571C6.2184 19.5194 6.21853 19.4787 6.23094 19.441L7.94001 14.1722L11.0338 16.4006L6.51969 19.651ZM8.30094 13.0491L9.67907 8.81252H14.3216L15.695 13.0463L12.0003 15.7041L8.30094 13.0491ZM17.765 19.441C17.7773 19.4788 17.7773 19.5196 17.7648 19.5575C17.7524 19.5953 17.7282 19.6282 17.6959 19.6514C17.6635 19.6746 17.6246 19.6868 17.5847 19.6864C17.5449 19.686 17.5063 19.6729 17.4744 19.6491L12.9631 16.3969L16.0569 14.1685L17.765 19.441ZM21.11 9.14908L16.6541 12.3553L15.5047 8.81252H21.0003C21.0405 8.81036 21.0802 8.82216 21.1126 8.84591C21.1451 8.86966 21.1683 8.9039 21.1784 8.94283C21.1926 8.97983 21.1935 9.02058 21.181 9.05817C21.1686 9.09577 21.1435 9.12789 21.11 9.14908Z" fill="black"/>
</svg>
