<svg width="24" height="24" viewBox="0 0 24 24" fill="none" xmlns="http://www.w3.org/2000/svg">
<path d="M19.1475 5.64655L5.64751 19.1466C5.54088 19.2459 5.39984 19.3 5.25412 19.2974C5.10839 19.2949 4.96935 19.2358 4.86629 19.1328C4.76323 19.0297 4.7042 18.8907 4.70163 18.7449C4.69906 18.5992 4.75315 18.4582 4.85251 18.3516L18.3525 4.85155C18.4046 4.79865 18.4667 4.7566 18.5351 4.7278C18.6036 4.69901 18.677 4.68406 18.7513 4.6838C18.8255 4.68354 18.8991 4.69799 18.9678 4.7263C19.0364 4.75462 19.0987 4.79625 19.1512 4.84878C19.2037 4.90132 19.2453 4.96372 19.2735 5.0324C19.3017 5.10107 19.3161 5.17466 19.3157 5.24891C19.3154 5.32316 19.3003 5.39661 19.2715 5.46502C19.2426 5.53343 19.2005 5.59545 19.1475 5.64749V5.64655ZM4.87501 9.37499C4.35439 8.85257 4.03105 8.16577 3.9601 7.43165C3.88915 6.69752 4.07497 5.96151 4.4859 5.34905C4.89683 4.73659 5.50743 4.28559 6.21364 4.07291C6.91986 3.86022 7.67797 3.89902 8.35878 4.18269C9.03959 4.46636 9.60096 4.97735 9.94721 5.62856C10.2935 6.27977 10.4032 7.03091 10.2577 7.75395C10.1121 8.47699 9.72036 9.12719 9.14912 9.59374C8.57789 10.0603 7.86255 10.3143 7.12501 10.3125C6.70664 10.3126 6.29239 10.2298 5.9062 10.0689C5.52001 9.90797 5.16953 9.67213 4.87501 9.37499ZM5.06251 7.12499C5.06267 7.60215 5.22827 8.0645 5.53109 8.43325C5.83392 8.80201 6.25524 9.05435 6.72326 9.1473C7.19128 9.24025 7.67705 9.16804 8.0978 8.94298C8.51855 8.71793 8.84826 8.35394 9.03073 7.91305C9.21321 7.47216 9.23717 6.98164 9.09854 6.52506C8.9599 6.06848 8.66724 5.6741 8.27043 5.4091C7.87361 5.14411 7.39719 5.0249 6.92234 5.07179C6.44749 5.11868 6.00358 5.32876 5.66626 5.66624C5.47417 5.8574 5.32191 6.08475 5.21828 6.33514C5.11464 6.58554 5.0617 6.854 5.06251 7.12499ZM20.0625 16.875C20.0643 17.6125 19.8103 18.3279 19.3438 18.8991C18.8772 19.4703 18.227 19.8621 17.504 20.0076C16.7809 20.1532 16.0298 20.0434 15.3786 19.6972C14.7274 19.3509 14.2164 18.7896 13.9327 18.1088C13.649 17.428 13.6102 16.6698 13.8229 15.9636C14.0356 15.2574 14.4866 14.6468 15.0991 14.2359C15.7115 13.825 16.4475 13.6391 17.1817 13.7101C17.9158 13.781 18.6026 14.1044 19.125 14.625C19.4222 14.9195 19.658 15.27 19.8189 15.6562C19.9798 16.0424 20.0626 16.4566 20.0625 16.875ZM18.9375 16.875C18.9383 16.604 18.8853 16.3356 18.7817 16.0852C18.678 15.8348 18.5258 15.6074 18.3338 15.4162C17.9964 15.0788 17.5525 14.8687 17.0777 14.8218C16.6028 14.7749 16.1264 14.8941 15.7296 15.1591C15.3328 15.4241 15.0401 15.8185 14.9015 16.2751C14.7628 16.7316 14.7868 17.2222 14.9693 17.6631C15.1518 18.1039 15.4815 18.4679 15.9022 18.693C16.323 18.918 16.8087 18.9902 17.2768 18.8973C17.7448 18.8044 18.1661 18.552 18.4689 18.1833C18.7718 17.8145 18.9374 17.3522 18.9375 16.875Z" fill="black"/>
</svg>
