<svg width="24" height="24" viewBox="0 0 24 24" fill="none" xmlns="http://www.w3.org/2000/svg">
<path d="M16.5004 9.5625C17.0567 9.5625 17.6005 9.39755 18.063 9.08851C18.5255 8.77947 18.886 8.34022 19.0988 7.8263C19.3117 7.31238 19.3674 6.74688 19.2589 6.20131C19.1504 5.65574 18.8825 5.1546 18.4892 4.76126C18.0958 4.36793 17.5947 4.10006 17.0491 3.99154C16.5036 3.88302 15.9381 3.93872 15.4241 4.15159C14.9102 4.36446 14.471 4.72495 14.1619 5.18746C13.8529 5.64997 13.6879 6.19374 13.6879 6.75C13.6879 7.49592 13.9842 8.21129 14.5117 8.73874C15.0391 9.26618 15.7545 9.5625 16.5004 9.5625ZM16.5004 5.0625C16.8342 5.0625 17.1604 5.16147 17.438 5.3469C17.7155 5.53232 17.9318 5.79587 18.0595 6.10422C18.1872 6.41257 18.2206 6.75187 18.1555 7.07922C18.0904 7.40656 17.9297 7.70724 17.6937 7.94324C17.4577 8.17924 17.157 8.33996 16.8296 8.40508C16.5023 8.47019 16.163 8.43677 15.8547 8.30905C15.5463 8.18132 15.2828 7.96503 15.0973 7.68753C14.9119 7.41002 14.8129 7.08376 14.8129 6.75C14.8129 6.30245 14.9907 5.87323 15.3072 5.55676C15.6237 5.24029 16.0529 5.0625 16.5004 5.0625ZM20.6836 17.4919C20.7307 17.5487 20.7662 17.6144 20.788 17.685C20.8098 17.7555 20.8175 17.8297 20.8106 17.9033C20.8038 17.9769 20.7825 18.0484 20.7479 18.1137C20.7134 18.179 20.6664 18.2369 20.6095 18.2841C19.0279 19.5966 17.6095 20.0653 16.3204 20.0653C14.6151 20.0653 13.1207 19.2544 11.7323 18.4997C9.2948 17.1769 7.19106 16.0331 4.10949 18.5934C4.05206 18.6406 3.9859 18.676 3.9148 18.6976C3.84369 18.7191 3.76903 18.7265 3.69508 18.7192C3.62112 18.712 3.54933 18.6902 3.48378 18.6552C3.41824 18.6202 3.36024 18.5726 3.31309 18.5152C3.21786 18.3992 3.17261 18.2501 3.18729 18.1007C3.20197 17.9514 3.27538 17.814 3.39137 17.7188C7.0598 14.6766 9.8273 16.1803 12.2686 17.5059C14.7098 18.8316 16.8098 19.9725 19.8914 17.4122C19.9486 17.3653 20.0145 17.3302 20.0853 17.3089C20.1561 17.2875 20.2304 17.2804 20.304 17.2878C20.3776 17.2952 20.449 17.317 20.5141 17.352C20.5792 17.3871 20.6368 17.4346 20.6836 17.4919ZM3.39137 13.9688C3.2765 14.064 3.20416 14.2009 3.19027 14.3495C3.17638 14.4981 3.22208 14.6461 3.31731 14.7609C3.41253 14.8758 3.5495 14.9481 3.69806 14.962C3.84662 14.9759 3.99462 14.9302 4.10949 14.835C7.19106 12.2794 9.29574 13.4222 11.7323 14.7413C13.1254 15.5006 14.6151 16.3125 16.3204 16.3125C17.6132 16.3125 19.0279 15.8438 20.6095 14.5313C20.6664 14.4841 20.7134 14.4262 20.7479 14.3609C20.7824 14.2955 20.8037 14.2241 20.8106 14.1505C20.8175 14.0769 20.8098 14.0027 20.788 13.9321C20.7662 13.8616 20.7307 13.7959 20.6836 13.7391C20.6364 13.6822 20.5785 13.6352 20.5132 13.6006C20.4478 13.5661 20.3764 13.5448 20.3028 13.538C20.2292 13.5311 20.155 13.5388 20.0844 13.5606C20.0139 13.5824 19.9482 13.6178 19.8914 13.665C19.1901 14.2463 18.5386 14.6363 17.9226 14.8763L12.7842 9.73688C11.8983 8.84635 10.8446 8.14039 9.68398 7.65988C8.52341 7.17936 7.27904 6.93383 6.02293 6.9375H3.75043C3.60125 6.9375 3.45817 6.99676 3.35268 7.10225C3.24719 7.20774 3.18793 7.35082 3.18793 7.5C3.18793 7.64919 3.24719 7.79226 3.35268 7.89775C3.45817 8.00324 3.60125 8.0625 3.75043 8.0625H6.02293C7.50975 8.05949 8.97061 8.45197 10.2557 9.19969L7.24637 12.2091C6.07262 12.3056 4.79855 12.8034 3.39137 13.9688ZM11.9892 10.5338L16.6336 15.1791C15.1054 15.2972 13.7479 14.5603 12.2686 13.7569C11.1782 13.1644 10.0186 12.5381 8.75199 12.2944L11.2036 9.84375C11.4789 10.0583 11.7412 10.289 11.9892 10.5347V10.5338Z" fill="black"/>
</svg>
