<svg width="24" height="24" viewBox="0 0 24 24" fill="none" xmlns="http://www.w3.org/2000/svg">
<path d="M14.2499 8.0625C14.8061 8.0625 15.3499 7.89755 15.8124 7.58851C16.2749 7.27947 16.6354 6.84022 16.8483 6.3263C17.0612 5.81238 17.1169 5.24688 17.0083 4.70131C16.8998 4.15574 16.632 3.6546 16.2386 3.26126C15.8453 2.86793 15.3441 2.60006 14.7986 2.49154C14.253 2.38302 13.6875 2.43872 13.1736 2.65159C12.6597 2.86446 12.2204 3.22495 11.9114 3.68746C11.6023 4.14997 11.4374 4.69374 11.4374 5.25C11.4374 5.99592 11.7337 6.71129 12.2611 7.23874C12.7886 7.76619 13.504 8.0625 14.2499 8.0625ZM14.2499 3.5625C14.5836 3.5625 14.9099 3.66147 15.1874 3.8469C15.4649 4.03232 15.6812 4.29587 15.8089 4.60422C15.9366 4.91257 15.9701 5.25187 15.905 5.57922C15.8398 5.90656 15.6791 6.20724 15.4431 6.44324C15.2071 6.67924 14.9064 6.83996 14.5791 6.90508C14.2517 6.97019 13.9124 6.93677 13.6041 6.80905C13.2957 6.68132 13.0322 6.46503 12.8468 6.18753C12.6613 5.91002 12.5624 5.58376 12.5624 5.25C12.5624 4.80245 12.7402 4.37323 13.0566 4.05676C13.3731 3.74029 13.8023 3.5625 14.2499 3.5625ZM20.4833 13.0181C20.428 13.0434 19.8111 13.3116 18.7133 13.3116C17.4139 13.3116 15.4414 12.9366 12.9261 11.3428C12.5231 12.5461 11.9744 13.6956 11.2921 14.7656C12.1761 15.0263 13.3546 15.4894 14.4036 16.29C16.168 17.6297 17.0624 19.4672 17.0624 21.75C17.0624 21.8992 17.0031 22.0423 16.8976 22.1477C16.7921 22.2532 16.6491 22.3125 16.4999 22.3125C16.3507 22.3125 16.2076 22.2532 16.1021 22.1477C15.9966 22.0423 15.9374 21.8992 15.9374 21.75C15.9374 17.625 12.4471 16.2019 10.6021 15.7397C10.5271 15.8366 10.4502 15.9331 10.3714 16.0294C8.56675 18.2147 6.30832 19.3528 3.79863 19.3528C3.51313 19.3537 3.22777 19.3403 2.94363 19.3125C2.86976 19.3051 2.79807 19.2833 2.73265 19.2482C2.66723 19.2131 2.60936 19.1654 2.56236 19.108C2.46741 18.9919 2.42246 18.8429 2.43738 18.6938C2.4523 18.5446 2.52587 18.4074 2.6419 18.3125C2.75794 18.2175 2.90694 18.1726 3.05613 18.1875C5.55269 18.4369 7.72207 17.4694 9.50332 15.3103C10.7371 13.8159 11.5602 11.9813 11.9483 10.7025C8.1505 8.40375 5.7055 10.2544 5.59957 10.3378C5.48262 10.4271 5.33537 10.467 5.18936 10.4489C5.04336 10.4309 4.91023 10.3564 4.81851 10.2414C4.72679 10.1264 4.68378 9.97998 4.6987 9.83362C4.71362 9.68727 4.78527 9.55259 4.89832 9.45844C4.933 9.43031 5.77863 8.76188 7.21957 8.52094C8.51894 8.30438 10.5871 8.39906 13.0658 10.0838C17.4852 13.0838 19.9921 12.0028 20.0164 11.9916C20.0837 11.9608 20.1563 11.9435 20.2302 11.9408C20.304 11.9381 20.3777 11.95 20.447 11.9758C20.5163 12.0015 20.5799 12.0407 20.634 12.091C20.6882 12.1413 20.7319 12.2018 20.7627 12.2691C20.7935 12.3363 20.8107 12.4089 20.8134 12.4828C20.8161 12.5567 20.8043 12.6304 20.7785 12.6997C20.7527 12.769 20.7136 12.8325 20.6632 12.8867C20.6129 12.9408 20.5524 12.9845 20.4852 13.0153L20.4833 13.0181Z" fill="black"/>
</svg>
