<svg width="24" height="24" viewBox="0 0 24 24" fill="none" xmlns="http://www.w3.org/2000/svg">
<path d="M14.2495 7.3125C14.8058 7.3125 15.3495 7.14755 15.8121 6.83851C16.2746 6.52947 16.6351 6.09022 16.8479 5.5763C17.0608 5.06238 17.1165 4.49688 17.008 3.95131C16.8995 3.40574 16.6316 2.9046 16.2383 2.51126C15.8449 2.11793 15.3438 1.85006 14.7982 1.74154C14.2526 1.63302 13.6871 1.68872 13.1732 1.90159C12.6593 2.11446 12.22 2.47495 11.911 2.93746C11.602 3.39997 11.437 3.94374 11.437 4.5C11.437 5.24592 11.7333 5.96129 12.2608 6.48874C12.7882 7.01619 13.5036 7.3125 14.2495 7.3125ZM14.2495 2.8125C14.5833 2.8125 14.9095 2.91147 15.187 3.0969C15.4645 3.28232 15.6808 3.54587 15.8086 3.85422C15.9363 4.16257 15.9697 4.50187 15.9046 4.82922C15.8395 5.15656 15.6788 5.45724 15.4428 5.69324C15.2068 5.92924 14.9061 6.08996 14.5787 6.15508C14.2514 6.22019 13.9121 6.18677 13.6037 6.05905C13.2954 5.93132 13.0318 5.71503 12.8464 5.43753C12.661 5.16002 12.562 4.83376 12.562 4.5C12.562 4.05245 12.7398 3.62323 13.0563 3.30676C13.3727 2.99029 13.802 2.8125 14.2495 2.8125ZM20.062 13.5C20.062 13.6492 20.0028 13.7923 19.8973 13.8977C19.7918 14.0032 19.6487 14.0625 19.4995 14.0625C16.267 14.0625 14.7126 12.4922 13.3401 11.1075C13.0148 10.7784 12.7073 10.4681 12.3886 10.1906L10.9683 13.4634L14.5795 16.0425C14.6518 16.0949 14.7106 16.1636 14.751 16.2432C14.7914 16.3227 14.8123 16.4108 14.812 16.5V21.75C14.812 21.8992 14.7528 22.0423 14.6473 22.1477C14.5418 22.2532 14.3987 22.3125 14.2495 22.3125C14.1003 22.3125 13.9573 22.2532 13.8518 22.1477C13.7463 22.0423 13.687 21.8992 13.687 21.75V16.7897L10.507 14.5181L7.26514 21.9741C7.20263 22.106 7.09125 22.2085 6.95455 22.2599C6.81785 22.3112 6.66654 22.3074 6.53261 22.2492C6.39868 22.191 6.29264 22.083 6.23689 21.948C6.18115 21.813 6.18007 21.6617 6.23389 21.5259L11.3901 9.65625C10.4358 9.39844 9.22733 9.65625 7.77983 10.4334C6.73781 11.0077 5.76519 11.6997 4.88108 12.4959C4.7719 12.5951 4.62814 12.6474 4.48078 12.6416C4.33341 12.6358 4.19422 12.5723 4.09318 12.4649C3.99214 12.3575 3.93733 12.2146 3.94056 12.0672C3.9438 11.9197 4.00481 11.7795 4.11045 11.6766C5.05971 10.8147 6.10651 10.0668 7.22952 9.44813C9.66045 8.13563 11.6958 8.09906 13.1142 9.33C13.4676 9.63656 13.808 9.97969 14.1361 10.3116C15.413 11.6006 16.732 12.9366 19.4958 12.9366C19.57 12.9361 19.6437 12.9503 19.7124 12.9784C19.7811 13.0065 19.8436 13.0479 19.8963 13.1003C19.9489 13.1527 19.9907 13.215 20.0191 13.2836C20.0476 13.3522 20.0621 13.4257 20.062 13.5Z" fill="black"/>
</svg>
