<svg width="24" height="24" viewBox="0 0 24 24" fill="none" xmlns="http://www.w3.org/2000/svg">
<path d="M14.2503 7.3125C14.8065 7.3125 15.3503 7.14755 15.8128 6.83851C16.2753 6.52947 16.6358 6.09022 16.8487 5.5763C17.0615 5.06238 17.1172 4.49688 17.0087 3.95131C16.9002 3.40574 16.6323 2.9046 16.239 2.51126C15.8457 2.11793 15.3445 1.85006 14.7989 1.74154C14.2534 1.63302 13.6879 1.68872 13.174 1.90159C12.66 2.11446 12.2208 2.47495 11.9117 2.93746C11.6027 3.39997 11.4378 3.94374 11.4378 4.5C11.4378 5.24592 11.7341 5.96129 12.2615 6.48874C12.789 7.01619 13.5043 7.3125 14.2503 7.3125ZM14.2503 2.8125C14.584 2.8125 14.9103 2.91147 15.1878 3.0969C15.4653 3.28232 15.6816 3.54587 15.8093 3.85422C15.937 4.16257 15.9704 4.50187 15.9053 4.82922C15.8402 5.15656 15.6795 5.45724 15.4435 5.69324C15.2075 5.92924 14.9068 6.08996 14.5795 6.15508C14.2521 6.22019 13.9128 6.18677 13.6045 6.05905C13.2961 5.93132 13.0326 5.71503 12.8472 5.43753C12.6617 5.16002 12.5628 4.83376 12.5628 4.5C12.5628 4.05245 12.7405 3.62323 13.057 3.30676C13.3735 2.99029 13.8027 2.8125 14.2503 2.8125ZM18.5628 13.5V21.75C18.5628 21.8992 18.5035 22.0423 18.398 22.1477C18.2925 22.2532 18.1494 22.3125 18.0003 22.3125C17.8511 22.3125 17.708 22.2532 17.6025 22.1477C17.497 22.0423 17.4378 21.8992 17.4378 21.75V14.0447C14.9787 13.8825 14.179 12.6488 13.4674 11.5519C13.1459 11.055 12.8412 10.5853 12.3893 10.1906L10.969 13.4634L14.5803 16.0425C14.6525 16.0949 14.7113 16.1636 14.7517 16.2432C14.7921 16.3227 14.8131 16.4108 14.8128 16.5V21.75C14.8128 21.8992 14.7535 22.0423 14.648 22.1477C14.5425 22.2532 14.3994 22.3125 14.2503 22.3125C14.1011 22.3125 13.958 22.2532 13.8525 22.1477C13.747 22.0423 13.6878 21.8992 13.6878 21.75V16.7897L10.5078 14.5181L7.26588 21.9741C7.20337 22.106 7.09199 22.2085 6.95529 22.2599C6.81858 22.3112 6.66727 22.3074 6.53335 22.2492C6.39942 22.191 6.29338 22.083 6.23763 21.948C6.18189 21.813 6.18081 21.6617 6.23463 21.5259L11.6253 9.12094C11.656 9.05036 11.7008 8.98684 11.7571 8.9343C11.8133 8.88176 11.8797 8.84132 11.9522 8.81548C12.0247 8.78965 12.1018 8.77896 12.1786 8.78409C12.2554 8.78923 12.3303 8.81006 12.3987 8.84531C12.6563 8.979 12.8971 9.14297 13.1159 9.33375C13.6924 9.83438 14.0534 10.3959 14.4087 10.9397C15.1353 12.0553 15.7071 12.9375 18.0003 12.9375C18.1494 12.9375 18.2925 12.9968 18.398 13.1023C18.5035 13.2077 18.5628 13.3508 18.5628 13.5ZM6.75026 14.0625C6.86046 14.0626 6.96825 14.0303 7.06025 13.9696C7.15226 13.9089 7.22441 13.8226 7.26776 13.7213L9.51776 8.47125C9.54685 8.4033 9.56227 8.33028 9.56313 8.25636C9.56398 8.18244 9.55026 8.10908 9.52275 8.04047C9.49524 7.97186 9.45447 7.90935 9.40278 7.8565C9.35109 7.80366 9.28949 7.76152 9.22151 7.7325L6.59651 6.6075C6.45937 6.54903 6.30463 6.54739 6.16629 6.60294C6.02795 6.65849 5.91731 6.76668 5.85869 6.90375L3.60869 12.1538C3.55017 12.2908 3.54839 12.4454 3.60375 12.5837C3.65912 12.7221 3.7671 12.8328 3.90401 12.8916L6.52901 14.0166C6.59889 14.0467 6.67416 14.0623 6.75026 14.0625ZM4.86401 12.0797L6.67057 7.86094L8.26432 8.5425L6.45776 12.7613L4.86401 12.0797Z" fill="black"/>
</svg>
