<svg width="24" height="24" viewBox="0 0 24 24" fill="none" xmlns="http://www.w3.org/2000/svg">
<path d="M20.1559 3.84363C19.2544 2.94265 18.032 2.43652 16.7574 2.43652C15.4829 2.43652 14.2605 2.94265 13.359 3.84363L3.84336 13.3593C2.94204 14.2605 2.43563 15.4828 2.43555 16.7574C2.43546 18.0319 2.9417 19.2543 3.84289 20.1557C4.74409 21.057 5.96643 21.5634 7.241 21.5635C8.51557 21.5636 9.73798 21.0573 10.6393 20.1561L20.1559 10.6405C21.0562 9.73864 21.5618 8.51639 21.5618 7.24207C21.5618 5.96775 21.0562 4.7455 20.1559 3.84363ZM9.84336 19.3593C9.14859 20.0259 8.22022 20.3938 7.25738 20.384C6.29453 20.3741 5.37388 19.9873 4.69289 19.3066C4.01189 18.6258 3.62479 17.7053 3.61459 16.7425C3.6044 15.7796 3.97193 14.8511 4.63836 14.1561L8.99961 9.79582L14.2046 14.9999L9.84336 19.3593ZM19.3609 9.84363L14.9996 14.2039L9.79461 8.99988L14.1559 4.6405C14.8506 3.97382 15.779 3.60596 16.7418 3.6158C17.7047 3.62565 18.6253 4.01242 19.3063 4.69317C19.9873 5.37392 20.3744 6.29443 20.3846 7.25727C20.3948 8.22012 20.0273 9.14862 19.3609 9.84363ZM17.649 7.85238C17.7543 7.95785 17.8135 8.10082 17.8135 8.24988C17.8135 8.39894 17.7543 8.54191 17.649 8.64738L15.399 10.8974C15.2933 11.0015 15.1507 11.0597 15.0023 11.0591C14.8539 11.0586 14.7117 10.9995 14.6067 10.8946C14.5017 10.7898 14.4424 10.6477 14.4418 10.4993C14.4411 10.3509 14.499 10.2082 14.6031 10.1024L16.8531 7.85238C16.9053 7.80008 16.9673 7.75859 17.0356 7.73028C17.1039 7.70198 17.1771 7.68741 17.251 7.68741C17.3249 7.68741 17.3981 7.70198 17.4664 7.73028C17.5347 7.75859 17.5967 7.80008 17.649 7.85238Z" fill="black"/>
</svg>
