<svg width="24" height="24" viewBox="0 0 24 24" fill="none" xmlns="http://www.w3.org/2000/svg">
<path d="M22.3122 18.3937C22.2955 18.2039 22.2377 18.0202 22.1429 17.855C22.048 17.6899 21.9183 17.5474 21.7629 17.4374L18.0194 14.7637L19.7651 13.018C20.1786 12.6087 20.4845 12.1035 20.6556 11.5474C20.8266 10.9913 20.8576 10.4015 20.7457 9.83053C20.3191 7.73085 19.1679 5.84796 17.4935 4.51115C15.7961 3.14226 13.6739 2.40912 11.4935 2.43834C9.10435 2.47908 6.82445 3.44629 5.13483 5.13592C3.4452 6.82555 2.47799 9.10545 2.43725 11.4946C2.41015 13.6747 3.14306 15.7961 4.51006 17.4946C5.84624 19.1688 7.72847 20.32 9.82756 20.7468C10.3985 20.8587 10.9883 20.8277 11.5444 20.6567C12.1005 20.4856 12.6057 20.1797 13.0151 19.7662L14.7607 18.0205L17.4372 21.763C17.5472 21.9185 17.6897 22.0482 17.8549 22.143C18.02 22.2379 18.2038 22.2957 18.3935 22.3124C18.4301 22.3124 18.4666 22.3171 18.5022 22.3171C18.85 22.3169 19.1835 22.1786 19.4294 21.9327L21.9279 19.4352C22.0642 19.3002 22.1692 19.137 22.2356 18.9571C22.302 18.7771 22.3282 18.5848 22.3122 18.3937ZM5.38756 16.7887C4.18464 15.2943 3.53929 13.4278 3.56225 11.5096C3.59886 9.4133 4.44791 7.41311 5.93043 5.93058C7.41295 4.44806 9.41315 3.59902 11.5094 3.5624C13.4275 3.53989 15.2936 4.18482 16.7885 5.38678C17.5345 5.98806 18.1692 6.71567 18.6635 7.53647L7.53725 18.6674C6.71596 18.1722 5.98829 17.5362 5.38756 16.7887ZM21.1319 18.6346L18.6344 21.1321C18.6152 21.1507 18.5923 21.1649 18.5671 21.1739C18.5419 21.1829 18.5151 21.1864 18.4885 21.1842C18.4619 21.182 18.436 21.1741 18.4127 21.1611C18.3893 21.148 18.3691 21.1302 18.3532 21.1087L15.2932 16.8252C15.2451 16.7586 15.183 16.7034 15.1112 16.6634C15.0394 16.6234 14.9598 16.5996 14.8779 16.5937H14.8319C14.6828 16.5938 14.5398 16.6531 14.4344 16.7587L12.2191 18.973C11.9404 19.2553 11.5963 19.4643 11.2173 19.5816C10.8384 19.6989 10.4364 19.7207 10.0469 19.6452C9.54946 19.546 9.06303 19.3978 8.59475 19.2027L19.1997 8.5949C19.3947 9.06322 19.5429 9.54964 19.6422 10.0471C19.7178 10.4366 19.6959 10.8387 19.5784 11.2177C19.461 11.5967 19.2517 11.9408 18.9691 12.2193L16.7547 14.4374C16.697 14.4951 16.6526 14.5647 16.6245 14.6414C16.5964 14.718 16.5853 14.7998 16.592 14.8812C16.5986 14.9625 16.623 15.0415 16.6632 15.1125C16.7035 15.1835 16.7587 15.2449 16.8251 15.2924L21.1085 18.3524C21.13 18.3683 21.1479 18.3886 21.1609 18.4119C21.1739 18.4352 21.1818 18.4611 21.184 18.4877C21.1862 18.5143 21.1827 18.5411 21.1738 18.5663C21.1648 18.5915 21.1505 18.6144 21.1319 18.6337V18.6346Z" fill="black"/>
</svg>
