<svg width="24" height="24" viewBox="0 0 24 24" fill="none" xmlns="http://www.w3.org/2000/svg">
<path d="M20.5192 5.29127C20.5149 5.28745 20.5108 5.28338 20.507 5.27909L16.2967 1.31252C16.0501 1.06967 15.7177 0.934011 15.3716 0.935065C15.0256 0.936118 14.6939 1.0738 14.4489 1.31815L10.1364 5.59503L9.85511 5.31377C9.44317 4.95246 8.90912 4.76152 8.36148 4.77977C7.81383 4.79801 7.29368 5.02407 6.9067 5.412C6.51972 5.79994 6.29494 6.32065 6.27805 6.86834C6.26115 7.41602 6.4534 7.9496 6.81574 8.36065L7.08292 8.63159L5.07199 10.6322C4.95009 10.7541 4.8534 10.8988 4.78744 11.058C4.72147 11.2173 4.68752 11.388 4.68752 11.5603C4.68752 11.7327 4.72147 11.9034 4.78744 12.0626C4.8534 12.2219 4.95009 12.3666 5.07199 12.4885L6.26167 13.6782C6.50766 13.9232 6.84072 14.0607 7.18792 14.0607C7.53513 14.0607 7.86818 13.9232 8.11417 13.6782L10.1157 11.7047L11.3823 12.9891C11.3997 13.0065 11.4136 13.0272 11.423 13.0499C11.4324 13.0727 11.4373 13.0971 11.4373 13.1217C11.4373 13.1464 11.4324 13.1708 11.423 13.1935C11.4136 13.2163 11.3997 13.237 11.3823 13.2544L5.31855 19.3866C5.10167 19.5827 4.92694 19.8208 4.80497 20.0865C4.68301 20.3523 4.61635 20.64 4.60907 20.9323C4.60178 21.2246 4.65401 21.5153 4.76259 21.7868C4.87117 22.0582 5.03382 22.3048 5.24065 22.5114C5.44749 22.7181 5.69419 22.8805 5.96576 22.9888C6.23733 23.0972 6.52809 23.1491 6.82037 23.1416C7.11265 23.134 7.40034 23.0671 7.66595 22.9449C7.93156 22.8227 8.16954 22.6477 8.36542 22.4307L16.6782 14.0532C16.9238 13.8071 17.0618 13.4736 17.0618 13.126C17.0618 12.7783 16.9238 12.4448 16.6782 12.1988L13.1992 8.68502L14.5445 7.3669C14.5796 7.33198 14.6271 7.31238 14.6767 7.31238C14.7262 7.31238 14.7737 7.33198 14.8089 7.3669L14.8154 7.37346L18.3207 10.6875C18.5675 10.9311 18.9007 11.0671 19.2474 11.0659C19.5941 11.0647 19.9263 10.9263 20.1714 10.681L20.5192 10.3322C21.1873 9.66411 21.5626 8.75798 21.5626 7.81315C21.5626 6.86832 21.1873 5.96219 20.5192 5.29409V5.29127ZM7.32199 12.885C7.30457 12.9025 7.28389 12.9163 7.26113 12.9257C7.23837 12.9352 7.21397 12.94 7.18933 12.94C7.16469 12.94 7.14029 12.9352 7.11753 12.9257C7.09477 12.9163 7.07409 12.9025 7.05667 12.885L5.86699 11.6935C5.84961 11.6759 5.83586 11.6552 5.82653 11.6323C5.8172 11.6095 5.81247 11.585 5.81261 11.5603C5.81257 11.5113 5.83175 11.4642 5.86605 11.4291L7.87511 9.43315L9.32824 10.9069L7.32199 12.885ZM15.8814 13.26L7.56855 21.6366C7.47571 21.7437 7.36178 21.8305 7.23388 21.8917C7.10597 21.9528 6.96684 21.9869 6.82518 21.9918C6.68351 21.9967 6.54234 21.9724 6.41049 21.9204C6.27864 21.8683 6.15895 21.7896 6.05887 21.6892C5.9588 21.5888 5.8805 21.4689 5.82886 21.3368C5.77722 21.2048 5.75335 21.0636 5.75875 20.9219C5.76414 20.7803 5.79868 20.6413 5.86021 20.5136C5.92174 20.3859 6.00894 20.2722 6.11636 20.1797L12.1792 14.0513C12.4239 13.8053 12.5613 13.4725 12.5613 13.1255C12.5613 12.7785 12.4239 12.4457 12.1792 12.1997L7.61355 7.56846C7.44157 7.37172 7.3507 7.11703 7.35929 6.85586C7.36789 6.59469 7.47531 6.34652 7.65984 6.16151C7.84438 5.9765 8.09227 5.86844 8.35342 5.85917C8.61456 5.8499 8.86949 5.94012 9.06667 6.11159L15.8823 12.9919C15.9 13.0094 15.9139 13.0303 15.9235 13.0532C15.933 13.0762 15.9379 13.1008 15.9378 13.1257C15.9377 13.1506 15.9326 13.1752 15.923 13.1981C15.9133 13.221 15.8991 13.2417 15.8814 13.2591V13.26ZM19.7251 9.53534L19.3773 9.88315C19.3599 9.90058 19.3392 9.91441 19.3164 9.92385C19.2937 9.93328 19.2693 9.93814 19.2446 9.93814C19.22 9.93814 19.1956 9.93328 19.1728 9.92385C19.1501 9.91441 19.1294 9.90058 19.112 9.88315L19.1007 9.8719L15.5917 6.56252C15.3451 6.323 15.0143 6.18981 14.6705 6.19156C14.3268 6.19331 13.9974 6.32988 13.7532 6.5719L12.4079 7.88627L10.9314 6.39565L15.2439 2.1169C15.2613 2.09933 15.282 2.08538 15.3049 2.07586C15.3277 2.06634 15.3522 2.06144 15.377 2.06144C15.4017 2.06144 15.4262 2.06634 15.4491 2.07586C15.4719 2.08538 15.4927 2.09933 15.5101 2.1169L15.5214 2.12909L19.7298 6.09377C20.1843 6.55153 20.4389 7.17081 20.4377 7.81591C20.4364 8.46101 20.1795 9.07932 19.7232 9.53534H19.7251Z" fill="black"/>
</svg>
