<svg width="24" height="24" viewBox="0 0 24 24" fill="none" xmlns="http://www.w3.org/2000/svg">
<path d="M21.9295 11.0756L12.9295 2.07558C12.8082 1.95403 12.6641 1.8576 12.5055 1.7918C12.3468 1.72601 12.1768 1.69214 12.0051 1.69214C11.8334 1.69214 11.6633 1.72601 11.5047 1.7918C11.3461 1.8576 11.202 1.95403 11.0807 2.07558L2.0807 11.0803C1.95916 11.2016 1.86272 11.3457 1.79693 11.5043C1.73113 11.6629 1.69727 11.8329 1.69727 12.0046C1.69727 12.1764 1.73113 12.3464 1.79693 12.505C1.86272 12.6636 1.95916 12.8077 2.0807 12.929L11.0854 21.929C11.2067 22.0506 11.3508 22.147 11.5094 22.2128C11.668 22.2786 11.838 22.3125 12.0098 22.3125C12.1815 22.3125 12.3515 22.2786 12.5101 22.2128C12.6688 22.147 12.8128 22.0506 12.9341 21.929L21.9341 12.929C22.0557 12.8077 22.1521 12.6636 22.2179 12.505C22.2837 12.3464 22.3176 12.1764 22.3176 12.0046C22.3176 11.8329 22.2837 11.6629 22.2179 11.5043C22.1521 11.3457 22.0557 11.2016 21.9341 11.0803L21.9295 11.0756ZM11.871 2.86589C11.9059 2.83265 11.9522 2.8141 12.0004 2.8141C12.0486 2.8141 12.0949 2.83265 12.1298 2.86589L17.7013 8.43745H15.0004C14.8513 8.43758 14.7083 8.49693 14.6029 8.60245L12.0004 11.205L9.39789 8.60245C9.2925 8.49693 9.14953 8.43758 9.00039 8.43745H6.29945L11.871 2.86589ZM2.81289 12C2.81281 11.9759 2.81749 11.9521 2.82667 11.9299C2.83584 11.9077 2.84932 11.8875 2.86633 11.8706L5.17445 9.56245H8.76695L11.2045 12L8.76695 14.4375H5.17445L2.86633 12.1293C2.84932 12.1124 2.83584 12.0922 2.82667 12.07C2.81749 12.0478 2.81281 12.024 2.81289 12ZM12.1298 21.134C12.0949 21.1673 12.0486 21.1858 12.0004 21.1858C11.9522 21.1858 11.9059 21.1673 11.871 21.134L6.29945 15.5625H9.00039C9.14953 15.5623 9.2925 15.503 9.39789 15.3975L12.0004 12.795L14.6029 15.3975C14.7083 15.503 14.8513 15.5623 15.0004 15.5625H17.7013L12.1298 21.134ZM21.1345 12.1293L18.8263 14.4375H15.2338L12.7963 12L15.2338 9.56245H18.8263L21.1345 11.8706C21.1677 11.9054 21.1862 11.9518 21.1862 12C21.1862 12.0481 21.1677 12.0945 21.1345 12.1293Z" fill="black"/>
</svg>
