<svg width="24" height="24" viewBox="0 0 24 24" fill="none" xmlns="http://www.w3.org/2000/svg">
<path d="M22.275 5.9503C22.2346 5.78211 22.1612 5.62363 22.059 5.48408C21.9568 5.34454 21.8279 5.22672 21.6797 5.13749C18.7599 3.37121 15.4125 2.4375 12 2.4375C8.58754 2.4375 5.24012 3.37121 2.32033 5.13749C2.02364 5.31814 1.81067 5.60904 1.72807 5.94644C1.64548 6.28384 1.70001 6.64022 1.8797 6.93749L10.8797 21.6815C10.9964 21.8757 11.1613 22.0363 11.3584 22.1479C11.5556 22.2594 11.7782 22.318 12.0047 22.318C12.2312 22.318 12.4538 22.2594 12.651 22.1479C12.8481 22.0363 13.013 21.8757 13.1297 21.6815L22.125 6.93749C22.2141 6.79106 22.2733 6.6284 22.299 6.45894C22.3248 6.28947 22.3166 6.11659 22.275 5.9503ZM5.72533 11.0812C5.98234 10.8077 6.29907 10.5972 6.65081 10.4661C7.00255 10.3351 7.3798 10.287 7.75316 10.3257C8.12651 10.3645 8.48589 10.4889 8.80326 10.6893C9.12064 10.8897 9.38744 11.1607 9.58286 11.4812C9.77829 11.8017 9.89707 12.1629 9.92993 12.5368C9.96279 12.9108 9.90885 13.2872 9.77232 13.6369C9.63579 13.9865 9.42035 14.2999 9.1428 14.5526C8.86525 14.8053 8.53308 14.9905 8.1722 15.0937L5.72533 11.0812ZM14.2566 17.6737C13.7846 17.3059 13.4643 16.7773 13.3569 16.1886C13.2495 15.5999 13.3624 14.9923 13.6741 14.4814C13.9858 13.9706 14.4746 13.5923 15.0472 13.4186C15.6199 13.2448 16.2364 13.2878 16.7794 13.5394L14.2566 17.6737ZM17.3691 12.5737C16.8679 12.3178 16.3128 12.1853 15.75 12.1875C14.997 12.1876 14.2633 12.4264 13.6544 12.8695C13.0455 13.3126 12.5927 13.9373 12.361 14.6538C12.1293 15.3703 12.1306 16.1418 12.3647 16.8575C12.5988 17.5733 13.0537 18.1964 13.6641 18.6375L12.1641 21.0975C12.1476 21.1259 12.1239 21.1495 12.0955 21.1659C12.067 21.1823 12.0347 21.1909 12.0019 21.1909C11.969 21.1909 11.9368 21.1823 11.9083 21.1659C11.8798 21.1495 11.8562 21.1259 11.8397 21.0975L8.77408 16.0772C9.2624 15.8906 9.70369 15.5989 10.0666 15.2226C10.4296 14.8464 10.7052 14.3949 10.8741 13.9002C11.043 13.4054 11.1009 12.8796 11.0438 12.36C10.9867 11.8404 10.8159 11.3397 10.5436 10.8935C10.2712 10.4472 9.90406 10.0664 9.46806 9.77801C9.03206 9.4896 8.53793 9.30069 8.02074 9.22466C7.50354 9.14864 6.97595 9.18737 6.4754 9.3381C5.97484 9.48884 5.5136 9.74788 5.12439 10.0969L4.3172 8.77405C6.6192 7.32902 9.28206 6.5625 12 6.5625C14.718 6.5625 17.3808 7.32902 19.6828 8.77405L17.3691 12.5737ZM21.165 6.35342L20.2688 7.81405C17.7904 6.26109 14.9248 5.43746 12 5.43746C9.07528 5.43746 6.20965 6.26109 3.73126 7.81405L2.8397 6.35342C2.82692 6.33313 2.81841 6.31044 2.81471 6.28674C2.811 6.26305 2.81217 6.23884 2.81814 6.21561C2.82431 6.19133 2.8353 6.16853 2.85043 6.14857C2.86557 6.1286 2.88455 6.11187 2.90626 6.09936C5.64951 4.44055 8.79423 3.56368 12 3.56368C15.2058 3.56368 18.3505 4.44055 21.0938 6.09936C21.1151 6.11206 21.1338 6.12887 21.1486 6.14883C21.1634 6.16879 21.1741 6.19149 21.18 6.21561C21.1863 6.23872 21.1877 6.26285 21.1844 6.28654C21.181 6.31024 21.1728 6.33299 21.1603 6.35342H21.165Z" fill="black"/>
</svg>
