<svg width="24" height="24" viewBox="0 0 24 24" fill="none" xmlns="http://www.w3.org/2000/svg">
<path d="M13.8979 13.1025C13.7924 12.9972 13.6494 12.938 13.5004 12.938C13.3513 12.938 13.2083 12.9972 13.1029 13.1025L11.2504 14.9541L9.0463 12.75L10.8979 10.8975C10.9972 10.7909 11.0513 10.6498 11.0487 10.5041C11.0462 10.3584 10.9871 10.2193 10.8841 10.1163C10.781 10.0132 10.642 9.95418 10.4963 9.95161C10.3505 9.94904 10.2095 10.0031 10.1029 10.1025L8.25036 11.9541L6.39786 10.1025C6.29123 10.0031 6.15019 9.94904 6.00447 9.95161C5.85874 9.95418 5.7197 10.0132 5.61664 10.1163C5.51358 10.2193 5.45455 10.3584 5.45198 10.5041C5.44941 10.6498 5.5035 10.7909 5.60286 10.8975L6.32942 11.625L4.01192 13.9434C3.48466 14.4709 3.18846 15.1861 3.18846 15.9319C3.18846 16.6776 3.48466 17.3929 4.01192 17.9203L4.64755 18.5569L1.85286 21.3525C1.79759 21.404 1.75327 21.4661 1.72252 21.5351C1.69178 21.6041 1.67525 21.6786 1.67392 21.7541C1.67258 21.8296 1.68648 21.9046 1.71477 21.9747C1.74306 22.0447 1.78517 22.1084 1.83858 22.1618C1.89199 22.2152 1.95562 22.2573 2.02566 22.2856C2.0957 22.3139 2.17072 22.3278 2.24625 22.3264C2.32178 22.3251 2.39626 22.3086 2.46526 22.2778C2.53426 22.2471 2.59636 22.2028 2.64786 22.1475L5.44348 19.3528L6.08005 19.9884C6.60747 20.5157 7.32271 20.8119 8.06848 20.8119C8.81426 20.8119 9.5295 20.5157 10.0569 19.9884L12.3754 17.6709L13.1029 18.3975C13.2095 18.4969 13.3505 18.5509 13.4963 18.5484C13.642 18.5458 13.781 18.4868 13.8841 18.3837C13.9871 18.2806 14.0462 18.1416 14.0487 17.9959C14.0513 17.8502 13.9972 17.7091 13.8979 17.6025L12.0463 15.75L13.8979 13.8975C14.0032 13.792 14.0624 13.6491 14.0624 13.5C14.0624 13.3509 14.0032 13.208 13.8979 13.1025ZM9.26192 19.1962C9.10522 19.353 8.91916 19.4773 8.71439 19.5622C8.50962 19.647 8.29014 19.6907 8.06848 19.6907C7.84683 19.6907 7.62735 19.647 7.42258 19.5622C7.21781 19.4773 7.03175 19.353 6.87505 19.1962L4.80692 17.1253C4.65016 16.9686 4.52582 16.7825 4.44098 16.5778C4.35614 16.373 4.31247 16.1535 4.31247 15.9319C4.31247 15.7102 4.35614 15.4907 4.44098 15.286C4.52582 15.0812 4.65016 14.8951 4.80692 14.7384L7.12536 12.4209L11.5794 16.875L9.26192 19.1962ZM22.1479 1.85249C22.0424 1.74716 21.8994 1.68799 21.7504 1.68799C21.6013 1.68799 21.4583 1.74716 21.3529 1.85249L18.5572 4.64718L17.9207 4.01156C17.3933 3.48429 16.678 3.18809 15.9322 3.18809C15.1865 3.18809 14.4712 3.48429 13.9438 4.01156L11.6254 6.32906L10.8979 5.60249C10.7912 5.50313 10.6502 5.44904 10.5045 5.45161C10.3587 5.45418 10.2197 5.51322 10.1166 5.61628C10.0136 5.71934 9.95455 5.85838 9.95198 6.0041C9.94941 6.14983 10.0035 6.29086 10.1029 6.39749L17.6029 13.8975C17.7095 13.9969 17.8505 14.0509 17.9963 14.0484C18.142 14.0458 18.281 13.9868 18.3841 13.8837C18.4871 13.7806 18.5462 13.6416 18.5487 13.4959C18.5513 13.3502 18.4972 13.2091 18.3979 13.1025L17.6713 12.375L19.9888 10.0566C20.5161 9.52913 20.8123 8.81389 20.8123 8.06812C20.8123 7.32234 20.5161 6.6071 19.9888 6.07968L19.3532 5.44312L22.1479 2.64749C22.2532 2.54202 22.3124 2.39906 22.3124 2.24999C22.3124 2.10093 22.2532 1.95796 22.1479 1.85249ZM19.1938 9.25874L16.8754 11.5791L12.4213 7.12499L14.7388 4.80656C14.8955 4.6498 15.0816 4.52545 15.2863 4.44061C15.4911 4.35577 15.7106 4.3121 15.9322 4.3121C16.1539 4.3121 16.3734 4.35577 16.5781 4.44061C16.7829 4.52545 16.969 4.6498 17.1257 4.80656L19.1938 6.87468C19.3506 7.03139 19.4749 7.21744 19.5597 7.42221C19.6446 7.62699 19.6882 7.84647 19.6882 8.06812C19.6882 8.28977 19.6446 8.50925 19.5597 8.71402C19.4749 8.9188 19.3506 9.10485 19.1938 9.26156V9.25874Z" fill="black"/>
</svg>
