<svg width="24" height="24" viewBox="0 0 24 24" fill="none" xmlns="http://www.w3.org/2000/svg">
<path d="M22.1479 6.35239C22.0424 6.24705 21.8994 6.18788 21.7504 6.18788C21.6013 6.18788 21.4583 6.24705 21.3529 6.35239L18.0004 9.70395L14.2963 5.99988L17.6479 2.64738C17.7472 2.54075 17.8013 2.39972 17.7987 2.25399C17.7962 2.10827 17.7371 1.96923 17.6341 1.86617C17.531 1.76311 17.392 1.70407 17.2463 1.7015C17.1005 1.69893 16.9595 1.75302 16.8529 1.85238L13.5004 5.20395L10.8979 2.60238C10.8464 2.54712 10.7843 2.50279 10.7153 2.47205C10.6463 2.44131 10.5718 2.42477 10.4963 2.42344C10.4207 2.42211 10.3457 2.436 10.2757 2.46429C10.2056 2.49258 10.142 2.53469 10.0886 2.58811C10.0352 2.64152 9.99306 2.70515 9.96477 2.77519C9.93648 2.84523 9.92258 2.92025 9.92392 2.99578C9.92525 3.0713 9.94178 3.14579 9.97252 3.21479C10.0033 3.28379 10.0476 3.34589 10.1029 3.39739L10.8294 4.12488L5.7313 9.22301C5.40035 9.55384 5.13782 9.94662 4.95871 10.3789C4.77959 10.8112 4.6874 11.2746 4.6874 11.7425C4.6874 12.2105 4.77959 12.6738 4.95871 13.1062C5.13782 13.5385 5.40035 13.9312 5.7313 14.2621L7.33723 15.8671L2.60286 20.6024C2.54759 20.6539 2.50327 20.716 2.47252 20.785C2.44178 20.854 2.42525 20.9285 2.42392 21.004C2.42258 21.0795 2.43648 21.1545 2.46477 21.2246C2.49306 21.2946 2.53517 21.3582 2.58858 21.4117C2.64199 21.4651 2.70562 21.5072 2.77566 21.5355C2.8457 21.5638 2.92072 21.5777 2.99625 21.5763C3.07178 21.575 3.14626 21.5585 3.21526 21.5277C3.28426 21.497 3.34636 21.4527 3.39786 21.3974L8.13317 16.663L9.73911 18.2689C10.4072 18.937 11.3133 19.3124 12.2582 19.3124C13.203 19.3124 14.1091 18.937 14.7772 18.2689L19.8754 13.1708L20.6029 13.8974C20.7095 13.9967 20.8505 14.0508 20.9963 14.0483C21.142 14.0457 21.281 13.9867 21.3841 13.8836C21.4871 13.7805 21.5462 13.6415 21.5487 13.4958C21.5513 13.3501 21.4972 13.209 21.3979 13.1024L18.7963 10.4999L22.1479 7.14738C22.2532 7.04192 22.3124 6.89895 22.3124 6.74988C22.3124 6.60082 22.2532 6.45785 22.1479 6.35239ZM13.9813 17.473C13.755 17.6994 13.4862 17.8789 13.1905 18.0014C12.8948 18.1239 12.5778 18.187 12.2577 18.187C11.9376 18.187 11.6206 18.1239 11.3249 18.0014C11.0292 17.8789 10.7605 17.6994 10.5341 17.473L6.52723 13.4661C6.30089 13.2398 6.12134 12.9711 5.99884 12.6753C5.87634 12.3796 5.81329 12.0626 5.81329 11.7425C5.81329 11.4224 5.87634 11.1055 5.99884 10.8097C6.12134 10.514 6.30089 10.2453 6.52723 10.0189L11.6254 4.92082L19.0794 12.3749L13.9813 17.473Z" fill="black"/>
</svg>
