<svg width="24" height="24" viewBox="0 0 24 24" fill="none" xmlns="http://www.w3.org/2000/svg">
<path d="M22.1479 1.85249C22.0424 1.74716 21.8994 1.68799 21.7504 1.68799C21.6013 1.68799 21.4583 1.74716 21.3529 1.85249L16.3072 6.89718L15.6707 6.26156C15.1433 5.73429 14.428 5.43809 13.6822 5.43809C12.9365 5.43809 12.2212 5.73429 11.6938 6.26156L9.37536 8.57906L8.64786 7.85249C8.54123 7.75313 8.40019 7.69904 8.25447 7.70161C8.10874 7.70418 7.9697 7.76322 7.86664 7.86628C7.76358 7.96934 7.70455 8.10838 7.70198 8.2541C7.69941 8.39983 7.7535 8.54086 7.85286 8.64749L8.57942 9.37499L6.26192 11.6934C5.73466 12.2209 5.43846 12.9361 5.43846 13.6819C5.43846 14.4276 5.73466 15.1429 6.26192 15.6703L6.89755 16.3069L1.85286 21.3525C1.79759 21.404 1.75327 21.4661 1.72252 21.5351C1.69178 21.6041 1.67525 21.6786 1.67392 21.7541C1.67258 21.8296 1.68648 21.9046 1.71477 21.9747C1.74306 22.0447 1.78517 22.1084 1.83858 22.1618C1.89199 22.2152 1.95562 22.2573 2.02566 22.2856C2.0957 22.3139 2.17072 22.3278 2.24625 22.3264C2.32178 22.3251 2.39626 22.3086 2.46526 22.2778C2.53426 22.2471 2.59636 22.2028 2.64786 22.1475L7.69348 17.1028L8.33005 17.7384C8.85747 18.2657 9.57271 18.5619 10.3185 18.5619C11.0643 18.5619 11.7795 18.2657 12.3069 17.7384L14.6254 15.4209L15.3529 16.1475C15.4595 16.2469 15.6005 16.3009 15.7463 16.2984C15.892 16.2958 16.031 16.2368 16.1341 16.1337C16.2371 16.0306 16.2962 15.8916 16.2987 15.7459C16.3013 15.6002 16.2472 15.4591 16.1479 15.3525L15.4213 14.625L17.7388 12.3066C18.2661 11.7791 18.5623 11.0639 18.5623 10.3181C18.5623 9.57234 18.2661 8.8571 17.7388 8.32968L17.1032 7.69312L22.1479 2.64749C22.2532 2.54202 22.3124 2.39906 22.3124 2.24999C22.3124 2.10093 22.2532 1.95796 22.1479 1.85249ZM11.5119 16.9462C11.3552 17.103 11.1692 17.2273 10.9644 17.3122C10.7596 17.397 10.5401 17.4407 10.3185 17.4407C10.0968 17.4407 9.87735 17.397 9.67258 17.3122C9.46781 17.2273 9.28175 17.103 9.12505 16.9462L7.05692 14.8753C6.90016 14.7186 6.77582 14.5325 6.69098 14.3278C6.60614 14.123 6.56247 13.9035 6.56247 13.6819C6.56247 13.4602 6.60614 13.2407 6.69098 13.036C6.77582 12.8312 6.90016 12.6451 7.05692 12.4884L9.37536 10.1709L13.8294 14.625L11.5119 16.9462ZM16.9438 11.5144L14.6254 13.8291L10.1713 9.37499L12.4888 7.05656C12.6455 6.8998 12.8316 6.77545 13.0363 6.69061C13.2411 6.60577 13.4606 6.5621 13.6822 6.5621C13.9039 6.5621 14.1234 6.60577 14.3281 6.69061C14.5329 6.77545 14.719 6.8998 14.8757 7.05656L16.9438 9.12468C17.1006 9.28139 17.2249 9.46744 17.3097 9.67221C17.3946 9.87698 17.4382 10.0965 17.4382 10.3181C17.4382 10.5398 17.3946 10.7593 17.3097 10.964C17.2249 11.1688 17.1006 11.3548 16.9438 11.5116V11.5144ZM8.47817 3.20906C8.42409 3.07084 8.42682 2.91685 8.48578 2.78064C8.54473 2.64443 8.65514 2.53704 8.79292 2.48187C8.93072 2.42671 9.08472 2.42824 9.22139 2.48613C9.35806 2.54402 9.46631 2.65358 9.52255 2.79093L10.2725 4.66593C10.3007 4.73463 10.3149 4.80822 10.3145 4.88246C10.314 4.9567 10.2989 5.03011 10.2699 5.09847C10.241 5.16683 10.1988 5.22878 10.1458 5.28075C10.0928 5.33272 10.03 5.37369 9.96106 5.40128C9.89214 5.42887 9.81844 5.44255 9.74421 5.44152C9.66998 5.44049 9.59669 5.42478 9.52855 5.39529C9.46042 5.3658 9.39881 5.32312 9.34725 5.2697C9.2957 5.21628 9.25523 5.15319 9.22817 5.08406L8.47817 3.20906ZM2.47817 8.79093C2.53362 8.65244 2.64181 8.54165 2.77895 8.48293C2.91608 8.42421 3.07093 8.42236 3.20942 8.47781L5.08442 9.22781C5.15356 9.25486 5.21665 9.29533 5.27007 9.34688C5.32349 9.39844 5.36617 9.46006 5.39566 9.52819C5.42515 9.59632 5.44086 9.66961 5.44189 9.74384C5.44291 9.81808 5.42924 9.89178 5.40165 9.9607C5.37405 10.0296 5.33309 10.0924 5.28112 10.1454C5.22915 10.1984 5.1672 10.2406 5.09884 10.2696C5.03048 10.2985 4.95707 10.3137 4.88283 10.3141C4.80859 10.3146 4.735 10.3003 4.6663 10.2722L2.7913 9.52218C2.65281 9.46673 2.54202 9.35854 2.48329 9.2214C2.42457 9.08427 2.42273 8.92942 2.47817 8.79093ZM21.5225 15.2091C21.4671 15.3475 21.3589 15.4583 21.2218 15.5171C21.0846 15.5758 20.9298 15.5776 20.7913 15.5222L18.9163 14.7722C18.7789 14.7159 18.6694 14.6077 18.6115 14.471C18.5536 14.3344 18.5521 14.1803 18.6072 14.0426C18.6624 13.9048 18.7698 13.7944 18.906 13.7354C19.0422 13.6765 19.1962 13.6737 19.3344 13.7278L21.2094 14.4778C21.3479 14.5333 21.4587 14.6414 21.5174 14.7786C21.5761 14.9157 21.578 15.0706 21.5225 15.2091ZM15.5225 20.7909C15.5507 20.8596 15.5649 20.9332 15.5645 21.0075C15.564 21.0817 15.5489 21.1551 15.5199 21.2235C15.491 21.2918 15.4488 21.3538 15.3958 21.4058C15.3428 21.4577 15.28 21.4987 15.2111 21.5263C15.1421 21.5539 15.0684 21.5675 14.9942 21.5665C14.92 21.5655 14.8467 21.5498 14.7786 21.5203C14.7104 21.4908 14.6488 21.4481 14.5973 21.3947C14.5457 21.3413 14.5052 21.2782 14.4782 21.2091L13.7282 19.3341C13.6741 19.1958 13.6768 19.0418 13.7358 18.9056C13.7947 18.7694 13.9051 18.662 14.0429 18.6069C14.1807 18.5517 14.3347 18.5532 14.4714 18.6111C14.6081 18.669 14.7163 18.7786 14.7725 18.9159L15.5225 20.7909Z" fill="black"/>
</svg>
