<svg width="24" height="24" viewBox="0 0 24 24" fill="none" xmlns="http://www.w3.org/2000/svg">
<path d="M4.91612 3.37511C4.81315 3.27953 4.67813 3.22595 4.53763 3.22491C4.39714 3.22386 4.26134 3.27543 4.15695 3.36947C4.05257 3.46352 3.98716 3.59322 3.97359 3.73306C3.96001 3.8729 3.99927 4.01276 4.08362 4.12511L6.68144 6.98543C5.79175 7.12512 4.74362 7.50011 3.67675 8.36074C3.533 8.47628 3.41522 8.62083 3.33107 8.78494C3.24693 8.94906 3.19833 9.12907 3.18842 9.31323C3.17851 9.4974 3.20753 9.68158 3.27358 9.85378C3.33963 10.026 3.44122 10.1823 3.57175 10.3126L8.23206 14.9729L4.10237 19.0979C4.04711 19.1494 4.00278 19.2115 3.97204 19.2805C3.94129 19.3495 3.92476 19.424 3.92343 19.4995C3.9221 19.5751 3.93599 19.6501 3.96428 19.7201C3.99257 19.7902 4.03468 19.8538 4.08809 19.9072C4.14151 19.9606 4.20513 20.0027 4.27518 20.031C4.34522 20.0593 4.42024 20.0732 4.49577 20.0719C4.57129 20.0705 4.64578 20.054 4.71478 20.0233C4.78378 19.9925 4.84588 19.9482 4.89737 19.8929L9.02706 15.7632L13.6874 20.4273C13.8092 20.5493 13.9538 20.6462 14.1131 20.7123C14.2723 20.7784 14.4431 20.8125 14.6155 20.8126C14.6461 20.8126 14.6774 20.8126 14.7092 20.8126C14.8963 20.7993 15.0784 20.7461 15.2432 20.6565C15.408 20.5669 15.5517 20.443 15.6646 20.2932C16.1602 19.6431 16.5535 18.921 16.8308 18.152L19.0808 20.6317C19.1302 20.6876 19.1902 20.7332 19.2573 20.7658C19.3245 20.7983 19.3975 20.8172 19.472 20.8212C19.5465 20.8253 19.6211 20.8145 19.6914 20.7895C19.7617 20.7644 19.8263 20.7257 19.8814 20.6754C19.9366 20.6251 19.9812 20.5644 20.0127 20.4968C20.0442 20.4291 20.0618 20.3558 20.0647 20.2813C20.0676 20.2067 20.0556 20.1323 20.0295 20.0624C20.0033 19.9925 19.9635 19.9285 19.9124 19.8742L4.91612 3.37511ZM14.7646 19.6136C14.7483 19.6347 14.7278 19.6522 14.7043 19.6648C14.6807 19.6774 14.6548 19.6848 14.6282 19.6866C14.6016 19.6884 14.5749 19.6845 14.5499 19.6751C14.5249 19.6657 14.5022 19.6511 14.4833 19.6323L4.36675 9.51668C4.3478 9.49791 4.33308 9.47532 4.32356 9.45041C4.31403 9.42551 4.30994 9.39885 4.31153 9.37223C4.31313 9.34561 4.32039 9.31964 4.33282 9.29605C4.34525 9.27246 4.36257 9.25179 4.38362 9.23543C5.61925 8.23793 6.80612 8.02605 7.64519 8.0448L15.9374 17.1667C15.7339 18.1632 15.1977 19.0379 14.7646 19.6136ZM21.9289 9.61793L17.743 13.8161C17.691 13.8691 17.629 13.9113 17.5607 13.9402C17.4923 13.9691 17.4189 13.9843 17.3446 13.9847C17.2704 13.9851 17.1968 13.9708 17.1281 13.9427C17.0594 13.9145 16.997 13.873 16.9444 13.8206C16.8918 13.7682 16.8501 13.7059 16.8217 13.6373C16.7933 13.5687 16.7787 13.4952 16.7789 13.4209C16.7791 13.3467 16.7939 13.2732 16.8226 13.2048C16.8513 13.1363 16.8933 13.0742 16.9461 13.022L21.1321 8.82293C21.1496 8.8055 21.1636 8.78476 21.1731 8.76191C21.1826 8.73906 21.1875 8.71456 21.1875 8.6898C21.1875 8.66505 21.1826 8.64054 21.1731 8.61769C21.1636 8.59485 21.1496 8.57411 21.1321 8.55668L15.4433 2.86793C15.4259 2.85049 15.4052 2.83666 15.3825 2.82723C15.3597 2.81779 15.3353 2.81294 15.3107 2.81294C15.286 2.81294 15.2616 2.81779 15.2389 2.82723C15.2161 2.83666 15.1954 2.85049 15.178 2.86793L11.3136 6.74449C11.208 6.84878 11.0655 6.90712 10.9171 6.90679C10.7687 6.90646 10.6264 6.8475 10.5213 6.74274C10.4162 6.63799 10.3567 6.49593 10.3559 6.34752C10.355 6.19911 10.4128 6.05638 10.5167 5.95043L14.3821 2.07293C14.504 1.9509 14.6487 1.85409 14.808 1.78804C14.9674 1.72199 15.1382 1.68799 15.3107 1.68799C15.4831 1.68799 15.6539 1.72199 15.8133 1.78804C15.9726 1.85409 16.1174 1.9509 16.2392 2.07293L21.9289 7.76262C22.1748 8.00872 22.3129 8.34238 22.3129 8.69027C22.3129 9.03816 22.1748 9.37182 21.9289 9.61793Z" fill="black"/>
</svg>
