<svg width="24" height="24" viewBox="0 0 24 24" fill="none" xmlns="http://www.w3.org/2000/svg">
<path d="M21.9289 7.76164L16.2392 2.07195C16.1174 1.94992 15.9726 1.85311 15.8133 1.78706C15.6539 1.72101 15.4831 1.68701 15.3107 1.68701C15.1382 1.68701 14.9674 1.72101 14.808 1.78706C14.6487 1.85311 14.504 1.94992 14.3821 2.07195L9.27456 7.19726C8.38206 6.89258 6.08706 6.41539 3.67675 8.3607C3.533 8.47624 3.41522 8.62079 3.33107 8.7849C3.24693 8.94902 3.19833 9.12903 3.18842 9.31319C3.17851 9.49736 3.20753 9.68154 3.27358 9.85374C3.33963 10.0259 3.44122 10.1823 3.57175 10.3126L8.23206 14.9729L4.10237 19.0979C4.04711 19.1494 4.00278 19.2115 3.97204 19.2805C3.94129 19.3495 3.92476 19.424 3.92343 19.4995C3.9221 19.575 3.93599 19.65 3.96428 19.7201C3.99257 19.7901 4.03468 19.8538 4.08809 19.9072C4.14151 19.9606 4.20513 20.0027 4.27518 20.031C4.34522 20.0593 4.42024 20.0732 4.49577 20.0718C4.57129 20.0705 4.64578 20.054 4.71478 20.0232C4.78378 19.9925 4.84588 19.9482 4.89737 19.8929L9.02706 15.7632L13.6874 20.4273C13.8092 20.5493 13.9538 20.6462 14.1131 20.7123C14.2723 20.7784 14.4431 20.8125 14.6155 20.8126C14.6461 20.8126 14.6774 20.8126 14.7092 20.8126C14.8963 20.7993 15.0784 20.7461 15.2432 20.6565C15.408 20.5669 15.5517 20.443 15.6646 20.2932C17.5133 17.836 17.2724 15.8654 16.8327 14.7338L21.9299 9.61976C22.052 9.49779 22.1488 9.35293 22.2149 9.19347C22.2809 9.03402 22.3149 8.8631 22.3148 8.69051C22.3147 8.51791 22.2806 8.34703 22.2144 8.18764C22.1482 8.02825 22.0512 7.88349 21.9289 7.76164ZM21.133 8.82195L15.7639 14.2088C15.6808 14.2924 15.626 14.4 15.6073 14.5164C15.5887 14.6328 15.607 14.7522 15.6599 14.8576C16.5917 16.7213 15.4996 18.6376 14.7655 19.6126C14.7493 19.6338 14.7287 19.6512 14.7052 19.6638C14.6817 19.6764 14.6557 19.6839 14.6291 19.6856C14.6025 19.6874 14.5758 19.6835 14.5508 19.6741C14.5258 19.6648 14.5031 19.6502 14.4842 19.6313L4.36675 9.51664C4.3478 9.49787 4.33308 9.47528 4.32356 9.45037C4.31403 9.42547 4.30994 9.39881 4.31153 9.37219C4.31313 9.34558 4.32039 9.3196 4.33282 9.29601C4.34525 9.27242 4.36257 9.25175 4.38362 9.23539C5.5555 8.28945 6.6805 8.03914 7.543 8.03914C8.09855 8.03077 8.64961 8.1397 9.16019 8.35883C9.26616 8.41129 9.38598 8.42902 9.50261 8.4095C9.61925 8.38998 9.72676 8.33419 9.80987 8.25008L15.178 2.86789C15.1954 2.85046 15.2161 2.83663 15.2389 2.82719C15.2616 2.81775 15.286 2.8129 15.3107 2.8129C15.3353 2.8129 15.3597 2.81775 15.3825 2.82719C15.4052 2.83663 15.4259 2.85046 15.4433 2.86789L21.133 8.55664C21.1504 8.57405 21.1643 8.59473 21.1737 8.61749C21.1831 8.64026 21.188 8.66465 21.188 8.68929C21.188 8.71393 21.1831 8.73833 21.1737 8.7611C21.1643 8.78386 21.1504 8.80454 21.133 8.82195Z" fill="black"/>
</svg>
