<svg width="24" height="24" viewBox="0 0 24 24" fill="none" xmlns="http://www.w3.org/2000/svg">
<path d="M8.81246 19.5001C8.81246 19.6492 8.7532 19.7923 8.64771 19.8978C8.54222 20.0033 8.39914 20.0626 8.24996 20.0626H3.74996C3.38833 20.0617 3.03329 19.9658 2.72043 19.7844C2.40758 19.603 2.14791 19.3426 1.96747 19.0292C1.78703 18.7158 1.69217 18.3605 1.69238 17.9988C1.6926 17.6372 1.78789 17.282 1.96871 16.9688L5.41027 11.0213L3.65152 11.4901C3.50731 11.5286 3.3537 11.5083 3.22447 11.4335C3.09525 11.3588 3.001 11.2358 2.96246 11.0916C2.92392 10.9474 2.94425 10.7938 3.01897 10.6646C3.09369 10.5353 3.21668 10.4411 3.3609 10.4026L6.43308 9.58037C6.50474 9.56084 6.57956 9.55569 6.65321 9.56522C6.72687 9.57475 6.79791 9.59877 6.86223 9.6359C6.92656 9.67303 6.98289 9.72253 7.02798 9.78155C7.07308 9.84056 7.10604 9.90793 7.12496 9.97974L7.94996 13.051C7.9691 13.1223 7.97401 13.1968 7.96439 13.27C7.95478 13.3432 7.93083 13.4139 7.89392 13.4779C7.85701 13.5418 7.80785 13.5979 7.74927 13.6429C7.69068 13.6879 7.6238 13.7209 7.55246 13.7401C7.50477 13.7529 7.45561 13.7595 7.40621 13.7597C7.28244 13.7596 7.16216 13.7187 7.06403 13.6432C6.96589 13.5678 6.89537 13.4621 6.8634 13.3426L6.39465 11.5801L2.94183 17.5313C2.85971 17.6735 2.8164 17.8349 2.81623 17.9991C2.81606 18.1634 2.85905 18.3248 2.94089 18.4672C3.02272 18.6096 3.14054 18.728 3.28253 18.8105C3.42452 18.8931 3.58571 18.9369 3.74996 18.9376H8.24996C8.39914 18.9376 8.54222 18.9968 8.64771 19.1023C8.7532 19.2078 8.81246 19.3509 8.81246 19.5001ZM22.0312 16.9688L19.8618 13.2188C19.784 13.0964 19.6619 13.0087 19.521 12.9742C19.38 12.9397 19.2312 12.961 19.1056 13.0336C18.98 13.1062 18.8873 13.2245 18.8469 13.3639C18.8065 13.5032 18.8215 13.6528 18.8887 13.7813L21.0581 17.5313C21.1402 17.6735 21.1835 17.8349 21.1837 17.9991C21.1839 18.1634 21.1409 18.3248 21.059 18.4672C20.9772 18.6096 20.8594 18.728 20.7174 18.8105C20.5754 18.8931 20.4142 18.9369 20.25 18.9376H13.3575L14.6475 17.6476C14.7468 17.5409 14.8009 17.3999 14.7983 17.2542C14.7958 17.1084 14.7367 16.9694 14.6337 16.8663C14.5306 16.7633 14.3916 16.7042 14.2459 16.7017C14.1001 16.6991 13.9591 16.7532 13.8525 16.8526L11.6025 19.1026C11.4971 19.208 11.438 19.351 11.438 19.5001C11.438 19.6491 11.4971 19.7921 11.6025 19.8976L13.8525 22.1476C13.9591 22.2469 14.1001 22.301 14.2459 22.2984C14.3916 22.2959 14.5306 22.2368 14.6337 22.1338C14.7367 22.0307 14.7958 21.8917 14.7983 21.746C14.8009 21.6002 14.7468 21.4592 14.6475 21.3526L13.3575 20.0626H20.25C20.6116 20.0617 20.9666 19.9658 21.2795 19.7844C21.5923 19.603 21.852 19.3426 22.0324 19.0292C22.2129 18.7158 22.3078 18.3605 22.3075 17.9988C22.3073 17.6372 22.212 17.282 22.0312 16.9688ZM12.8109 3.28131L16.2534 9.22881L14.4946 8.76006C14.3549 8.7327 14.2099 8.75937 14.0891 8.8347C13.9682 8.91004 13.8804 9.02841 13.8434 9.16595C13.8064 9.30348 13.8229 9.44993 13.8897 9.57574C13.9565 9.70154 14.0685 9.79735 14.2031 9.84381L17.2762 10.6679C17.4203 10.7062 17.5737 10.6858 17.7027 10.6111C17.8318 10.5364 17.9259 10.4135 17.9643 10.2694L18.7884 7.19631C18.811 7.12398 18.8187 7.04784 18.8111 6.97245C18.8035 6.89706 18.7808 6.82399 18.7443 6.7576C18.7077 6.69122 18.6582 6.6329 18.5986 6.58614C18.539 6.53938 18.4705 6.50515 18.3973 6.4855C18.3242 6.46584 18.2478 6.46118 18.1727 6.47178C18.0977 6.48237 18.0256 6.50802 17.9608 6.54717C17.8959 6.58633 17.8396 6.63819 17.7953 6.69963C17.7509 6.76107 17.7195 6.83084 17.7028 6.90475L17.2293 8.66912L13.7812 2.71881C13.5995 2.40757 13.3395 2.14937 13.027 1.96992C12.7144 1.79047 12.3603 1.69604 12 1.69604C11.6396 1.69604 11.2855 1.79047 10.973 1.96992C10.6604 2.14937 10.4004 2.40757 10.2187 2.71881L8.04371 6.46881C7.97233 6.59778 7.95444 6.74962 7.99387 6.89166C8.03331 7.03369 8.12692 7.15457 8.25457 7.22829C8.38223 7.302 8.53371 7.32266 8.67644 7.28583C8.81917 7.24899 8.94174 7.15759 9.01777 7.03131L11.189 3.28131C11.2714 3.13924 11.3897 3.02131 11.532 2.93934C11.6744 2.85737 11.8357 2.81422 12 2.81422C12.1642 2.81422 12.3256 2.85737 12.4679 2.93934C12.6102 3.02131 12.7285 3.13924 12.8109 3.28131Z" fill="black"/>
</svg>
