<svg width="24" height="24" viewBox="0 0 24 24" fill="none" xmlns="http://www.w3.org/2000/svg">
<path d="M23.0628 9.75005C23.0626 9.20027 22.9012 8.6626 22.5987 8.20353C22.2962 7.74446 21.8658 7.38413 21.3606 7.16708C20.8555 6.95002 20.2979 6.88578 19.7566 6.98228C19.2154 7.07878 18.7143 7.3318 18.3153 7.71005C16.6878 6.82036 14.719 6.29724 12.6612 6.20443L13.2134 2.89036L15.1972 3.19599C15.2442 3.69155 15.4689 4.15336 15.8298 4.49623C16.1907 4.83909 16.6634 5.03987 17.1607 5.06153C17.658 5.08318 18.1464 4.92424 18.5357 4.61404C18.925 4.30383 19.189 3.8633 19.279 3.37371C19.3689 2.88412 19.2788 2.37851 19.0252 1.95017C18.7716 1.52184 18.3716 1.19968 17.8991 1.04313C17.4265 0.886578 16.9133 0.906206 16.4541 1.09839C15.9949 1.29057 15.6208 1.64235 15.4006 2.0888L12.8356 1.69411C12.6896 1.67161 12.5405 1.70747 12.4207 1.79396C12.3009 1.88044 12.2199 2.0106 12.1953 2.1563L11.5222 6.19599C9.39966 6.26536 7.35873 6.79411 5.68529 7.71005C5.41335 7.44666 5.09104 7.24087 4.73767 7.10503C4.38429 6.96919 4.00713 6.9061 3.62878 6.91952C3.25044 6.93294 2.8787 7.02261 2.53584 7.18316C2.19298 7.3437 1.88606 7.57181 1.63348 7.85382C1.3809 8.13583 1.18785 8.46593 1.06591 8.82433C0.943966 9.18274 0.895637 9.56208 0.923819 9.93961C0.952001 10.3171 1.05611 10.6851 1.22992 11.0214C1.40372 11.3578 1.64364 11.6555 1.93529 11.8969C1.77179 12.4156 1.68833 12.9562 1.68779 13.5001C1.68779 15.4932 2.78841 17.3522 4.78623 18.7351C6.72029 20.0747 9.28154 20.8126 12.0003 20.8126C14.719 20.8126 17.2803 20.0747 19.2143 18.7351C21.2122 17.3522 22.3128 15.4932 22.3128 13.5001C22.3125 12.9563 22.2294 12.4157 22.0662 11.8969C22.3776 11.6323 22.6279 11.3034 22.8 10.9328C22.972 10.5622 23.0617 10.1587 23.0628 9.75005ZM17.2503 2.06255C17.4357 2.06255 17.617 2.11754 17.7711 2.22055C17.9253 2.32356 18.0455 2.46998 18.1164 2.64129C18.1874 2.81259 18.2059 3.00109 18.1698 3.18295C18.1336 3.36481 18.0443 3.53185 17.9132 3.66296C17.7821 3.79408 17.615 3.88336 17.4332 3.91954C17.2513 3.95571 17.0628 3.93715 16.8915 3.86619C16.7202 3.79523 16.5738 3.67507 16.4708 3.5209C16.3678 3.36673 16.3128 3.18547 16.3128 3.00005C16.3128 2.75141 16.4116 2.51295 16.5874 2.33714C16.7632 2.16132 17.0016 2.06255 17.2503 2.06255ZM21.1081 11.2041C20.9909 11.2736 20.9029 11.3833 20.8605 11.5128C20.8181 11.6423 20.8241 11.7828 20.8775 11.9082C21.0814 12.4142 21.1868 12.9545 21.1878 13.5001C21.1878 16.9116 17.0628 19.6876 12.0003 19.6876C6.93779 19.6876 2.81279 16.9116 2.81279 13.5001C2.81395 12.9558 2.91895 12.4168 3.12216 11.9119C3.17665 11.7862 3.18338 11.6449 3.14109 11.5146C3.0988 11.3843 3.0104 11.2739 2.89248 11.2041C2.67696 11.0765 2.49255 10.9026 2.35262 10.6948C2.21269 10.4871 2.12076 10.2509 2.08348 10.0032C2.0462 9.75553 2.06452 9.50268 2.1371 9.26297C2.20969 9.02327 2.33472 8.80273 2.50312 8.61734C2.67153 8.43196 2.87909 8.28639 3.11074 8.19119C3.34239 8.09599 3.59233 8.05355 3.84243 8.06694C4.09252 8.08034 4.3365 8.14923 4.55666 8.26863C4.77682 8.38803 4.96765 8.55493 5.11529 8.75724C5.19637 8.86864 5.31553 8.94641 5.45014 8.97578C5.58476 9.00516 5.72548 8.98411 5.8456 8.91662C5.85654 8.91092 5.86718 8.90466 5.87747 8.89787C7.56591 7.87505 9.73997 7.31255 12.0003 7.31255C14.2597 7.31255 16.4328 7.87505 18.1212 8.89693L18.1362 8.90724C18.2571 8.98139 18.4016 9.00714 18.5406 8.97933C18.6797 8.95151 18.8031 8.87219 18.8862 8.75724C19.0339 8.55493 19.2247 8.38803 19.4449 8.26863C19.665 8.14923 19.909 8.08034 20.1591 8.06694C20.4092 8.05355 20.6591 8.09599 20.8908 8.19119C21.1224 8.28639 21.33 8.43196 21.4984 8.61734C21.6668 8.80273 21.7918 9.02327 21.8644 9.26297C21.937 9.50268 21.9553 9.75553 21.918 10.0032C21.8808 10.2509 21.7888 10.4871 21.6489 10.6948C21.509 10.9026 21.3246 11.0765 21.109 11.2041H21.1081ZM15.4972 16.2366C15.567 16.3684 15.5816 16.5225 15.5379 16.6651C15.4941 16.8077 15.3955 16.927 15.2637 16.9969C14.2587 17.5306 13.1382 17.8097 12.0003 17.8097C10.8624 17.8097 9.74184 17.5306 8.73685 16.9969C8.60812 16.9254 8.51257 16.8062 8.47073 16.665C8.42889 16.5238 8.4441 16.3719 8.51308 16.2417C8.58207 16.1116 8.69933 16.0138 8.83968 15.9692C8.98003 15.9245 9.13228 15.9368 9.26373 16.0032C10.1064 16.451 11.046 16.6852 12.0003 16.6852C12.9545 16.6852 13.8942 16.451 14.7369 16.0032C14.8686 15.9333 15.0228 15.9187 15.1653 15.9625C15.3079 16.0063 15.4273 16.1049 15.4972 16.2366ZM8.25029 13.3126C7.9907 13.3126 7.73694 13.2356 7.5211 13.0914C7.30526 12.9471 7.13704 12.7422 7.0377 12.5023C6.93836 12.2625 6.91236 11.9986 6.96301 11.744C7.01365 11.4894 7.13865 11.2555 7.32221 11.072C7.50577 10.8884 7.73963 10.7634 7.99423 10.7128C8.24883 10.6621 8.51273 10.6881 8.75256 10.7875C8.99239 10.8868 9.19737 11.055 9.34159 11.2709C9.48581 11.4867 9.56279 11.7405 9.56279 12.0001C9.56279 12.3481 9.42451 12.682 9.17837 12.9281C8.93222 13.1743 8.59838 13.3126 8.25029 13.3126ZM17.0628 12.0001C17.0628 12.2596 16.9858 12.5134 16.8416 12.7292C16.6974 12.9451 16.4924 13.1133 16.2526 13.2126C16.0127 13.312 15.7488 13.338 15.4942 13.2873C15.2396 13.2367 15.0058 13.1117 14.8222 12.9281C14.6387 12.7446 14.5137 12.5107 14.463 12.2561C14.4124 12.0015 14.4384 11.7376 14.5377 11.4978C14.637 11.258 14.8053 11.053 15.0211 10.9087C15.2369 10.7645 15.4907 10.6876 15.7503 10.6876C16.0984 10.6876 16.4322 10.8258 16.6784 11.072C16.9245 11.3181 17.0628 11.652 17.0628 12.0001Z" fill="black"/>
</svg>
