<svg width="24" height="24" viewBox="0 0 24 24" fill="none" xmlns="http://www.w3.org/2000/svg">
<path d="M22.0254 18.4903C21.8954 18.5634 21.7416 18.5819 21.598 18.5416C21.4543 18.5013 21.3326 18.4057 21.2595 18.2756L14.6707 6.5625H12.5623V7.5C12.5623 7.64918 12.503 7.79226 12.3975 7.89775C12.292 8.00324 12.149 8.0625 11.9998 8.0625C11.8506 8.0625 11.7075 8.00324 11.602 7.89775C11.4966 7.79226 11.4373 7.64918 11.4373 7.5V6.5625H9.32885L2.7401 18.2756C2.70432 18.3408 2.65597 18.3982 2.59786 18.4446C2.53975 18.4909 2.47303 18.5253 2.40155 18.5457C2.33008 18.5661 2.25526 18.5722 2.18143 18.5635C2.10761 18.5548 2.03623 18.5316 1.97143 18.4952C1.90663 18.4587 1.8497 18.4098 1.80391 18.3513C1.75813 18.2927 1.72441 18.2257 1.7047 18.154C1.68499 18.0823 1.67969 18.0074 1.68909 17.9337C1.69849 17.86 1.72241 17.7888 1.75948 17.7244L8.03791 6.5625H2.24979C2.1006 6.5625 1.95753 6.50324 1.85204 6.39775C1.74655 6.29226 1.68729 6.14918 1.68729 6C1.68729 5.85082 1.74655 5.70774 1.85204 5.60225C1.95753 5.49676 2.1006 5.4375 2.24979 5.4375H21.7498C21.899 5.4375 22.042 5.49676 22.1475 5.60225C22.253 5.70774 22.3123 5.85082 22.3123 6C22.3123 6.14918 22.253 6.29226 22.1475 6.39775C22.042 6.50324 21.899 6.5625 21.7498 6.5625H15.9617L22.2429 17.7244C22.279 17.7889 22.302 17.86 22.3106 17.9334C22.3192 18.0069 22.3132 18.0813 22.293 18.1524C22.2728 18.2236 22.2388 18.29 22.1928 18.348C22.1469 18.406 22.09 18.4544 22.0254 18.4903ZM11.9998 10.6875C11.8506 10.6875 11.7075 10.7468 11.602 10.8523C11.4966 10.9577 11.4373 11.1008 11.4373 11.25V12.75C11.4373 12.8992 11.4966 13.0423 11.602 13.1477C11.7075 13.2532 11.8506 13.3125 11.9998 13.3125C12.149 13.3125 12.292 13.2532 12.3975 13.1477C12.503 13.0423 12.5623 12.8992 12.5623 12.75V11.25C12.5623 11.1008 12.503 10.9577 12.3975 10.8523C12.292 10.7468 12.149 10.6875 11.9998 10.6875ZM11.9998 15.9375C11.8506 15.9375 11.7075 15.9968 11.602 16.1023C11.4966 16.2077 11.4373 16.3508 11.4373 16.5V18C11.4373 18.1492 11.4966 18.2923 11.602 18.3977C11.7075 18.5032 11.8506 18.5625 11.9998 18.5625C12.149 18.5625 12.292 18.5032 12.3975 18.3977C12.503 18.2923 12.5623 18.1492 12.5623 18V16.5C12.5623 16.3508 12.503 16.2077 12.3975 16.1023C12.292 15.9968 12.149 15.9375 11.9998 15.9375Z" fill="black"/>
</svg>
