<svg width="24" height="24" viewBox="0 0 24 24" fill="none" xmlns="http://www.w3.org/2000/svg">
<path d="M20.7993 4.42881C20.7794 4.10947 20.6434 3.80842 20.4171 3.58226C20.1908 3.3561 19.8896 3.2204 19.5703 3.20069C18.4162 3.13225 15.4668 3.23725 13.019 5.68506L12.5174 6.18756H6.97026C6.79798 6.18716 6.62732 6.22092 6.46817 6.2869C6.30903 6.35288 6.16454 6.44976 6.04307 6.57194L2.82276 9.79131C2.65034 9.96379 2.52938 10.1809 2.47345 10.4183C2.41753 10.6557 2.42885 10.9039 2.50614 11.1352C2.58344 11.3666 2.72366 11.5717 2.91107 11.7278C3.09847 11.8839 3.32566 11.9847 3.56714 12.0188L7.23557 12.5307L11.4693 16.7644L11.9812 20.4376C12.0156 20.6789 12.1166 20.9058 12.2728 21.093C12.429 21.2802 12.6342 21.4201 12.8655 21.4972C13.0967 21.5743 13.3449 21.5855 13.5821 21.5295C13.8194 21.4734 14.0363 21.3525 14.2087 21.1801L17.429 17.9598C17.5511 17.8383 17.648 17.6938 17.714 17.5346C17.7799 17.3755 17.8137 17.2048 17.8134 17.0326V11.4826L18.3149 10.981C20.7618 8.53131 20.8678 5.58381 20.7993 4.42881ZM3.57276 10.7813C3.5627 10.7488 3.56165 10.7142 3.56974 10.6812C3.57784 10.6482 3.59476 10.618 3.6187 10.5938L6.83807 7.36694C6.87323 7.33207 6.92075 7.31252 6.97026 7.31256H11.3924L7.30026 11.4038L3.72464 10.9051C3.69011 10.9012 3.65743 10.8875 3.6305 10.8655C3.60357 10.8436 3.58352 10.8143 3.57276 10.7813ZM16.6874 17.0297C16.6872 17.0794 16.6673 17.1269 16.6321 17.1619L13.4137 20.3813C13.3892 20.4061 13.3584 20.4235 13.3245 20.4317C13.2907 20.4399 13.2553 20.4385 13.2222 20.4277C13.1891 20.4169 13.1597 20.3971 13.1372 20.3705C13.1147 20.344 13.1001 20.3117 13.0949 20.2772L12.5962 16.6997L16.6874 12.6076V17.0297ZM17.519 10.186L11.9999 15.7041L8.29589 12.0001L13.8149 6.48006C14.5546 5.73561 15.4451 5.15804 16.4264 4.78614C17.4078 4.41423 18.4573 4.25659 19.5046 4.32381C19.5497 4.32758 19.5918 4.34749 19.6234 4.37987C19.6549 4.41226 19.6736 4.45494 19.6762 4.50006C19.7427 5.5466 19.5848 6.59526 19.2129 7.57575C18.841 8.55624 18.2638 9.44589 17.5199 10.1851L17.519 10.186ZM9.37495 17.8416C8.96995 18.7351 7.60589 20.8126 3.74995 20.8126C3.60076 20.8126 3.45769 20.7533 3.3522 20.6478C3.24671 20.5423 3.18745 20.3992 3.18745 20.2501C3.18745 16.3941 5.26495 15.0301 6.15839 14.6251C6.22561 14.5943 6.29823 14.577 6.37211 14.5743C6.44599 14.5716 6.51969 14.5835 6.58898 14.6093C6.65828 14.635 6.72182 14.6742 6.77598 14.7245C6.83014 14.7748 6.87386 14.8353 6.90464 14.9026C6.93541 14.9698 6.95265 15.0424 6.95536 15.1163C6.95807 15.1902 6.94621 15.2639 6.92044 15.3332C6.89467 15.4025 6.85551 15.466 6.80518 15.5202C6.75486 15.5743 6.69436 15.618 6.62714 15.6488C5.97089 15.946 4.51495 16.9163 4.33307 19.6716C7.08839 19.4897 8.0587 18.0291 8.35589 17.3776C8.38666 17.3103 8.43038 17.2498 8.48454 17.1995C8.5387 17.1492 8.60224 17.11 8.67154 17.0843C8.74083 17.0585 8.81453 17.0466 8.88841 17.0493C8.96229 17.052 9.03491 17.0693 9.10214 17.1001C9.16936 17.1308 9.22986 17.1746 9.28018 17.2287C9.33051 17.2829 9.36967 17.3464 9.39544 17.4157C9.42121 17.485 9.43307 17.5587 9.43036 17.6326C9.42765 17.7065 9.41041 17.7791 9.37964 17.8463L9.37495 17.8416Z" fill="black"/>
</svg>
