<svg width="24" height="24" viewBox="0 0 24 24" fill="none" xmlns="http://www.w3.org/2000/svg">
<path d="M21.9291 7.01166L16.9894 2.07197C16.8676 1.95008 16.7229 1.85339 16.5636 1.78742C16.4044 1.72145 16.2337 1.6875 16.0613 1.6875C15.8889 1.6875 15.7183 1.72145 15.559 1.78742C15.3998 1.85339 15.2551 1.95008 15.1332 2.07197L2.07099 15.1323C1.9491 15.2542 1.85241 15.3989 1.78644 15.5581C1.72048 15.7174 1.68652 15.888 1.68652 16.0604C1.68652 16.2328 1.72048 16.4035 1.78644 16.5627C1.85241 16.722 1.9491 16.8667 2.07099 16.9885L7.01068 21.9282C7.13256 22.0501 7.27725 22.1468 7.4365 22.2128C7.59575 22.2787 7.76643 22.3127 7.93881 22.3127C8.11118 22.3127 8.28186 22.2787 8.44111 22.2128C8.60036 22.1468 8.74505 22.0501 8.86693 21.9282L21.9291 8.86791C22.051 8.74603 22.1477 8.60133 22.2137 8.44208C22.2796 8.28284 22.3136 8.11215 22.3136 7.93978C22.3136 7.76741 22.2796 7.59673 22.2137 7.43748C22.1477 7.27823 22.051 7.13354 21.9291 7.01166ZM21.1332 8.07197L8.07193 21.1323C8.05452 21.1497 8.03384 21.1635 8.01108 21.173C7.98831 21.1824 7.96391 21.1873 7.93927 21.1873C7.91463 21.1873 7.89024 21.1824 7.86747 21.173C7.84471 21.1635 7.82403 21.1497 7.80662 21.1323L2.86693 16.1935C2.8495 16.1761 2.83567 16.1554 2.82623 16.1327C2.8168 16.1099 2.81194 16.0855 2.81194 16.0609C2.81194 16.0362 2.8168 16.0118 2.82623 15.9891C2.83567 15.9663 2.8495 15.9456 2.86693 15.9282L6.00006 12.7951L8.60256 15.3976C8.65405 15.4529 8.71615 15.4972 8.78515 15.5279C8.85415 15.5587 8.92864 15.5752 9.00416 15.5765C9.07969 15.5779 9.15471 15.564 9.22475 15.5357C9.2948 15.5074 9.35842 15.4653 9.41183 15.4119C9.46525 15.3585 9.50736 15.2948 9.53565 15.2248C9.56394 15.1548 9.57783 15.0797 9.5765 15.0042C9.57517 14.9287 9.55864 14.8542 9.52789 14.7852C9.49715 14.7162 9.45282 14.6541 9.39756 14.6026L6.79506 12.0001L9.00006 9.7951L11.6026 12.3976C11.7092 12.497 11.8502 12.551 11.9959 12.5485C12.1417 12.5459 12.2807 12.4869 12.3838 12.3838C12.4868 12.2808 12.5459 12.1417 12.5484 11.996C12.551 11.8503 12.4969 11.7092 12.3976 11.6026L9.79506 9.00009L12.0001 6.79603L14.6026 9.39759C14.7092 9.49695 14.8502 9.55105 14.9959 9.54848C15.1417 9.54591 15.2807 9.48687 15.3838 9.38381C15.4868 9.28075 15.5459 9.14171 15.5484 8.99599C15.551 8.85026 15.4969 8.70923 15.3976 8.6026L12.796 6.00009L15.9282 2.86791C15.9456 2.85047 15.9663 2.83664 15.989 2.82721C16.0118 2.81777 16.0362 2.81292 16.0608 2.81292C16.0855 2.81292 16.1099 2.81777 16.1326 2.82721C16.1554 2.83664 16.1761 2.85047 16.1935 2.86791L21.1332 7.80666C21.1506 7.82407 21.1644 7.84475 21.1739 7.86751C21.1833 7.89028 21.1882 7.91467 21.1882 7.93931C21.1882 7.96395 21.1833 7.98835 21.1739 8.01111C21.1644 8.03388 21.1506 8.05456 21.1332 8.07197Z" fill="black"/>
</svg>
