<svg width="24" height="24" viewBox="0 0 24 24" fill="none" xmlns="http://www.w3.org/2000/svg">
<path d="M23.0068 16.2563C22.9609 16.1608 22.8889 16.0802 22.7992 16.0238C22.7094 15.9674 22.6056 15.9375 22.4996 15.9375H13.3121V13.3125H20.2496C20.3579 13.312 20.4638 13.2801 20.5545 13.2208C20.6451 13.1615 20.7167 13.0773 20.7607 12.9783C20.8047 12.8793 20.8191 12.7697 20.8023 12.6627C20.7855 12.5557 20.7381 12.4558 20.6659 12.375L13.3121 4.28255V0.75005C13.3121 0.633808 13.2761 0.520418 13.2091 0.425474C13.142 0.330529 13.0472 0.258693 12.9376 0.219844C12.828 0.180995 12.7091 0.177042 12.5972 0.208529C12.4854 0.240015 12.386 0.305394 12.3127 0.395675L2.56274 12.3957C2.49578 12.4782 2.45357 12.578 2.44101 12.6836C2.42845 12.7891 2.44605 12.8961 2.49177 12.992C2.53749 13.088 2.60945 13.169 2.69933 13.2257C2.78921 13.2825 2.89332 13.3126 2.99961 13.3125H12.1871V15.9375H1.49961C1.39359 15.9374 1.28969 15.9673 1.1999 16.0237C1.11011 16.0801 1.03808 16.1607 0.99212 16.2562C0.94616 16.3518 0.92814 16.4584 0.940136 16.5637C0.952132 16.669 0.993657 16.7688 1.05992 16.8516L3.83492 20.3204C3.9579 20.474 4.11385 20.598 4.29122 20.6831C4.46859 20.7683 4.66284 20.8126 4.85961 20.8125H19.1396C19.3364 20.8126 19.5306 20.7683 19.708 20.6831C19.8854 20.598 20.0413 20.474 20.1643 20.3204L22.9393 16.8516C23.0055 16.7688 23.047 16.669 23.0589 16.5637C23.0708 16.4584 23.0528 16.3518 23.0068 16.2563ZM18.9755 12.1875H13.3121V5.95505L18.9755 12.1875ZM4.1818 12.1875L12.1871 2.33442V12.1875H4.1818ZM19.2859 19.6172C19.2683 19.6392 19.246 19.6569 19.2207 19.669C19.1954 19.6812 19.1677 19.6875 19.1396 19.6875H4.85961C4.83152 19.6875 4.8038 19.6812 4.77848 19.669C4.75317 19.6569 4.73091 19.6392 4.71336 19.6172L2.66961 17.0625H21.3259L19.2859 19.6172Z" fill="black"/>
</svg>
