<svg width="24" height="24" viewBox="0 0 24 24" fill="none" xmlns="http://www.w3.org/2000/svg">
<path d="M14.9414 10.5C14.8997 10.439 14.8705 10.3704 14.8553 10.2981C14.8401 10.2257 14.8394 10.1512 14.853 10.0786C14.8667 10.0059 14.8945 9.93674 14.935 9.87489C14.9754 9.81305 15.0276 9.75977 15.0886 9.7181L21.4317 5.37654C21.5549 5.29225 21.7066 5.26036 21.8533 5.28787C22 5.31539 22.1298 5.40006 22.2141 5.52326C22.2984 5.64646 22.3302 5.7981 22.3027 5.94482C22.2752 6.09154 22.1905 6.22131 22.0673 6.3056L15.7233 10.6462C15.6002 10.7305 15.4487 10.7624 15.3021 10.735C15.1554 10.7076 15.0257 10.623 14.9414 10.5ZM22.2183 18.4772C22.134 18.6002 22.0043 18.6848 21.8576 18.7122C21.711 18.7396 21.5595 18.7077 21.4364 18.6234L12.7495 12.6815L8.53078 15.5681C8.85999 16.2922 8.90655 17.1133 8.66132 17.87C8.41609 18.6267 7.8968 19.2643 7.20543 19.6577C6.51406 20.0511 5.7006 20.1718 4.92481 19.996C4.14902 19.8203 3.46698 19.3608 3.01266 18.7079C2.55833 18.0549 2.36455 17.2557 2.46938 16.4672C2.57421 15.6787 2.97008 14.9579 3.57922 14.4463C4.18837 13.9348 4.96676 13.6695 5.76152 13.7026C6.55628 13.7356 7.30996 14.0646 7.87453 14.625C7.87998 14.6317 7.88593 14.6379 7.89234 14.6437L11.753 12L7.89609 9.35998L7.87453 9.37498C7.31083 9.93601 6.55775 10.266 5.76318 10.3003C4.9686 10.3345 4.18993 10.0705 3.58007 9.55999C2.97021 9.04951 2.5732 8.32949 2.46702 7.54129C2.36084 6.7531 2.55315 5.95369 3.00618 5.30002C3.45922 4.64636 4.14025 4.18567 4.91556 4.00841C5.69086 3.83115 6.50443 3.95013 7.1965 4.34199C7.88858 4.73385 8.40916 5.37027 8.65603 6.1263C8.9029 6.88232 8.85823 7.70333 8.53078 8.4281L22.0664 17.6906C22.1284 17.7319 22.1816 17.7852 22.2229 17.8472C22.2642 17.9093 22.2927 17.9789 22.3069 18.0521C22.321 18.1253 22.3204 18.2006 22.3052 18.2735C22.29 18.3465 22.2605 18.4157 22.2183 18.4772ZM7.08328 8.58279C7.37163 8.29431 7.56797 7.9268 7.64747 7.52674C7.72697 7.12668 7.68607 6.71203 7.52994 6.33522C7.37381 5.9584 7.10945 5.63634 6.77029 5.40975C6.43114 5.18316 6.03241 5.06223 5.62453 5.06223C5.21665 5.06223 4.81792 5.18316 4.47877 5.40975C4.13961 5.63634 3.87526 5.9584 3.71912 6.33522C3.56299 6.71203 3.52209 7.12668 3.60159 7.52674C3.68109 7.9268 3.87743 8.29431 4.16578 8.58279C4.35655 8.77576 4.58372 8.92897 4.83412 9.03353C5.08452 9.13809 5.35318 9.19193 5.62453 9.19193C5.89588 9.19193 6.16454 9.13809 6.41494 9.03353C6.66534 8.92897 6.89251 8.77576 7.08328 8.58279ZM7.68703 16.875C7.68687 16.3978 7.52127 15.9355 7.21845 15.5667C6.91562 15.198 6.4943 14.9456 6.02628 14.8527C5.55826 14.7597 5.07249 14.8319 4.65174 15.057C4.23099 15.282 3.90128 15.646 3.71881 16.0869C3.53633 16.5278 3.51237 17.0183 3.651 17.4749C3.78964 17.9315 4.0823 18.3259 4.47911 18.5909C4.87593 18.8559 5.35234 18.9751 5.8272 18.9282C6.30205 18.8813 6.74595 18.6712 7.08328 18.3337C7.27528 18.1425 7.42749 17.9151 7.53112 17.6648C7.63475 17.4144 7.68774 17.146 7.68703 16.875Z" fill="black"/>
</svg>
