<svg width="24" height="24" viewBox="0 0 24 24" fill="none" xmlns="http://www.w3.org/2000/svg">
<g clip-path="url(#clip0_4002_20488)">
<path d="M19.1471 4.85052C19.2525 4.95598 19.3116 5.09895 19.3116 5.24801C19.3116 5.39708 19.2525 5.54005 19.1471 5.64552L13.8971 10.8955C13.7913 10.9995 13.6486 11.0575 13.5003 11.0568C13.3519 11.0561 13.2098 10.9968 13.1049 10.8918C13 10.7868 12.9409 10.6447 12.9404 10.4963C12.9399 10.3479 12.998 10.2053 13.1021 10.0996L18.3521 4.84958C18.4577 4.74436 18.6008 4.68537 18.7498 4.68554C18.8989 4.68572 19.0418 4.74505 19.1471 4.85052ZM23.0621 5.47583C23.0637 6.07219 22.9471 6.66295 22.7189 7.21394C22.4907 7.76492 22.1555 8.2652 21.7328 8.68583L16.7415 13.6771C16.6201 13.7993 16.4756 13.8961 16.3164 13.9621C16.1573 14.0281 15.9866 14.0619 15.8143 14.0615H14.2496C14.1999 14.0615 14.1522 14.0812 14.1171 14.1164C14.0819 14.1515 14.0621 14.1992 14.0621 14.249V15.8268C14.0616 16.1127 13.9682 16.3907 13.7959 16.619C13.7803 16.6394 13.7634 16.6588 13.7453 16.6771L12.9953 17.4271C12.8734 17.549 12.7287 17.6457 12.5694 17.7116C12.4102 17.7776 12.2395 17.8115 12.0671 17.8115C11.8948 17.8115 11.7241 17.7776 11.5648 17.7116C11.4056 17.6457 11.2609 17.549 11.139 17.4271L9.25277 15.5408L1.89714 22.8974C1.79051 22.9967 1.64947 23.0508 1.50375 23.0483C1.35802 23.0457 1.21898 22.9867 1.11592 22.8836C1.01286 22.7805 0.953831 22.6415 0.95126 22.4958C0.948688 22.3501 1.00278 22.209 1.10214 22.1024L8.45777 14.7458L6.57152 12.8596C6.44962 12.7377 6.35293 12.593 6.28697 12.4338C6.221 12.2745 6.18705 12.1038 6.18705 11.9315C6.18705 11.7591 6.221 11.5884 6.28697 11.4291C6.35293 11.2699 6.44962 11.1252 6.57152 11.0033L7.32152 10.2533C7.33932 10.2347 7.35877 10.2178 7.37964 10.2027C7.60776 10.0303 7.88592 9.93718 8.17183 9.93739H9.74964C9.79937 9.93739 9.84706 9.91764 9.88222 9.88247C9.91739 9.84731 9.93714 9.79962 9.93714 9.74989V8.18427C9.93672 8.01184 9.97047 7.84104 10.0364 7.68174C10.1024 7.52243 10.1993 7.37778 10.3215 7.25614L15.3118 2.26489C15.9469 1.63006 16.7559 1.19777 17.6366 1.02269C18.5172 0.847612 19.4301 0.937603 20.2596 1.28128C21.0892 1.62497 21.7982 2.2069 22.297 2.95352C22.7959 3.70014 23.0621 4.5779 23.0621 5.47583ZM21.9371 5.47583C21.937 4.80053 21.7366 4.14045 21.3614 3.579C20.9861 3.01755 20.4529 2.57994 19.829 2.32148C19.2051 2.06302 18.5186 1.99531 17.8563 2.12691C17.1939 2.25851 16.5855 2.58351 16.1078 3.06083L11.1165 8.05114C11.0991 8.06866 11.0854 8.08944 11.0761 8.11228C11.0667 8.13513 11.062 8.15959 11.0621 8.18427V9.74989C11.0621 9.92225 11.0282 10.0929 10.9622 10.2522C10.8963 10.4114 10.7996 10.5561 10.6777 10.678C10.5558 10.7998 10.4112 10.8965 10.2519 10.9625C10.0927 11.0284 9.922 11.0624 9.74964 11.0624H8.17183C8.13912 11.0623 8.1069 11.0703 8.07808 11.0858L7.36464 11.7993C7.34721 11.8167 7.33338 11.8374 7.32394 11.8601C7.31451 11.8829 7.30965 11.9073 7.30965 11.9319C7.30965 11.9566 7.31451 11.981 7.32394 12.0037C7.33338 12.0265 7.34721 12.0472 7.36464 12.0646L11.9331 16.633C11.9682 16.6679 12.0157 16.6875 12.0653 16.6875C12.1148 16.6875 12.1623 16.6679 12.1975 16.633L12.9118 15.9196C12.9273 15.8908 12.9354 15.8585 12.9353 15.8258V14.2499C12.9353 13.9018 13.0735 13.568 13.3197 13.3218C13.5658 13.0757 13.8997 12.9374 14.2478 12.9374H15.8125C15.8621 12.9372 15.9096 12.9173 15.9446 12.8821L20.935 7.89177C21.2535 7.57541 21.5062 7.19897 21.6782 6.78425C21.8502 6.36954 21.9383 5.92481 21.9371 5.47583Z" fill="black"/>
</g>
<defs>
<clipPath id="clip0_4002_20488">
<rect width="24" height="24" fill="white"/>
</clipPath>
</defs>
</svg>
