<svg width="24" height="24" viewBox="0 0 24 24" fill="none" xmlns="http://www.w3.org/2000/svg">
<path d="M19.148 17.6476C19.0032 17.7923 18.8883 17.9642 18.8099 18.1534C18.7316 18.3425 18.6912 18.5453 18.6912 18.7501C18.6912 18.9548 18.7316 19.1576 18.8099 19.3467C18.8883 19.5359 19.0032 19.7078 19.148 19.8526C19.2032 19.9041 19.2476 19.9662 19.2783 20.0352C19.309 20.1042 19.3256 20.1786 19.3269 20.2542C19.3282 20.3297 19.3143 20.4047 19.2861 20.4748C19.2578 20.5448 19.2157 20.6084 19.1622 20.6618C19.1088 20.7153 19.0452 20.7574 18.9752 20.7857C18.9051 20.8139 18.8301 20.8278 18.7546 20.8265C18.679 20.8252 18.6046 20.8086 18.5356 20.7779C18.4666 20.7472 18.4045 20.7028 18.353 20.6476C18.1036 20.3985 17.9058 20.1027 17.7709 19.7771C17.6359 19.4515 17.5665 19.1025 17.5665 18.7501C17.5665 18.3976 17.6359 18.0486 17.7709 17.723C17.9058 17.3975 18.1036 17.1017 18.353 16.8526L19.2314 15.9732C19.5155 15.6791 19.6728 15.2852 19.6692 14.8763C19.6657 14.4674 19.5016 14.0763 19.2124 13.7872C18.9232 13.4981 18.532 13.3342 18.1231 13.3308C17.7142 13.3274 17.3203 13.4848 17.0264 13.7691L10.7686 20.0269C10.2652 20.5303 9.58249 20.8131 8.87062 20.8131C8.15874 20.8131 7.47602 20.5303 6.97265 20.0269C6.46928 19.5236 6.18648 18.8408 6.18648 18.129C6.18648 17.4171 6.46928 16.7344 6.97265 16.231L16.2314 6.97318C16.5155 6.67912 16.6728 6.28519 16.6692 5.87629C16.6657 5.46739 16.5016 5.07625 16.2124 4.78716C15.9232 4.49808 15.532 4.33419 15.1231 4.33081C14.7142 4.32744 14.3203 4.48485 14.0264 4.76912L7.76765 11.0269C7.26428 11.5303 6.58156 11.8131 5.86968 11.8131C5.1578 11.8131 4.47508 11.5303 3.97171 11.0269C3.46834 10.5236 3.18555 9.84084 3.18555 9.12896C3.18555 8.41709 3.46834 7.73437 3.97171 7.231L7.85109 3.35256C7.90313 3.2996 7.96515 3.25747 8.03356 3.22859C8.10197 3.19972 8.17542 3.18468 8.24967 3.18433C8.32392 3.18399 8.39751 3.19835 8.46618 3.22658C8.53486 3.25482 8.59726 3.29637 8.6498 3.34884C8.70233 3.40132 8.74396 3.46367 8.77228 3.53232C8.80059 3.60096 8.81504 3.67453 8.81478 3.74878C8.81452 3.82303 8.79957 3.8965 8.77077 3.96494C8.74198 4.03339 8.69992 4.09545 8.64702 4.14756L4.76765 8.02693C4.4835 8.321 4.32626 8.71492 4.32981 9.12383C4.33335 9.53273 4.49741 9.92387 4.78662 10.213C5.07583 10.502 5.46704 10.6659 5.87594 10.6693C6.28485 10.6727 6.67871 10.5153 6.97265 10.231L13.2305 3.97318C13.7338 3.46981 14.4166 3.18702 15.1284 3.18702C15.8403 3.18702 16.523 3.46981 17.0264 3.97318C17.5298 4.47656 17.8126 5.15928 17.8126 5.87115C17.8126 6.58303 17.5298 7.26575 17.0264 7.76912L7.76765 17.0269C7.4835 17.321 7.32626 17.7149 7.32981 18.1238C7.33335 18.5327 7.49741 18.9239 7.78662 19.213C8.07583 19.502 8.46704 19.6659 8.87594 19.6693C9.28485 19.6727 9.67871 19.5153 9.97265 19.231L16.2314 12.9732C16.7348 12.4698 17.4175 12.187 18.1294 12.187C18.8412 12.187 19.524 12.4698 20.0273 12.9732C20.5307 13.4766 20.8135 14.1593 20.8135 14.8712C20.8135 15.583 20.5307 16.2657 20.0273 16.7691L19.148 17.6476Z" fill="black"/>
</svg>
