<svg width="24" height="24" viewBox="0 0 24 24" fill="none" xmlns="http://www.w3.org/2000/svg">
<path d="M23.6667 14.625C23.543 14.4881 21.3914 12.1481 17.9133 10.8281C17.7727 9.09469 17.1511 7.51781 16.132 6.32812C14.7877 4.7625 12.8433 3.9375 10.4995 3.9375C5.76421 3.9375 2.6714 8.19187 2.54203 8.37281C2.49894 8.43289 2.4681 8.50087 2.45128 8.57287C2.43447 8.64486 2.43199 8.71947 2.44401 8.79242C2.45602 8.86537 2.48228 8.93524 2.5213 8.99804C2.56032 9.06085 2.61132 9.11535 2.6714 9.15844C2.73148 9.20153 2.79946 9.23236 2.87146 9.24918C2.94345 9.266 3.01806 9.26847 3.09101 9.25646C3.16396 9.24444 3.23383 9.21818 3.29663 9.17916C3.35943 9.14015 3.41394 9.08914 3.45703 9.02906C3.48515 8.98781 6.35109 5.0625 10.4995 5.0625C12.503 5.0625 14.1558 5.75156 15.2742 7.05656C16.0486 7.95844 16.553 9.13219 16.7386 10.4372C15.5799 10.1067 14.381 9.93856 13.1761 9.9375C10.778 9.9375 8.76984 10.5609 7.36359 11.7394C6.13546 12.7706 5.43046 14.2087 5.43046 15.6769C5.42488 16.244 5.53207 16.8065 5.7458 17.3318C5.95954 17.8572 6.27554 18.3348 6.67546 18.7369C7.55203 19.605 8.76234 20.0625 10.1808 20.0625C15.0305 20.0625 17.7323 16.0228 17.932 12.0581C20.9367 13.3228 22.807 15.3478 22.8323 15.3769C22.9348 15.4751 23.0706 15.531 23.2126 15.5333C23.3546 15.5356 23.4921 15.4841 23.5977 15.3892C23.7033 15.2943 23.7691 15.163 23.7819 15.0216C23.7947 14.8802 23.7535 14.7392 23.6667 14.6269V14.625ZM15.0933 16.6434C14.242 17.6897 12.697 18.9375 10.1808 18.9375C8.43703 18.9375 6.56203 17.9175 6.56203 15.6797C6.56203 13.4559 8.63297 11.0625 13.1808 11.0625C14.4162 11.0666 15.6435 11.2633 16.8183 11.6456C16.8052 13.4944 16.1789 15.3131 15.0933 16.6434Z" fill="black"/>
</svg>
