<svg width="24" height="24" viewBox="0 0 24 24" fill="none" xmlns="http://www.w3.org/2000/svg">
<path d="M12 10.3125C12.7788 10.3125 13.5401 10.0816 14.1876 9.64891C14.8351 9.21625 15.3398 8.6013 15.6378 7.88182C15.9358 7.16233 16.0138 6.37063 15.8619 5.60683C15.7099 4.84303 15.3349 4.14144 14.7843 3.59077C14.2336 3.0401 13.532 2.66509 12.7682 2.51316C12.0044 2.36123 11.2127 2.43921 10.4932 2.73723C9.77372 3.03525 9.15877 3.53993 8.72611 4.18744C8.29345 4.83496 8.06252 5.59624 8.06252 6.375C8.06252 7.41929 8.47736 8.42081 9.21579 9.15923C9.95421 9.89766 10.9557 10.3125 12 10.3125ZM12 3.5625C12.5563 3.5625 13.1 3.72745 13.5626 4.03649C14.0251 4.34554 14.3856 4.78479 14.5984 5.2987C14.8113 5.81262 14.867 6.37812 14.7585 6.92369C14.65 7.46926 14.3821 7.9704 13.9888 8.36374C13.5954 8.75707 13.0943 9.02494 12.5487 9.13346C12.0031 9.24198 11.4376 9.18628 10.9237 8.97341C10.4098 8.76054 9.97055 8.40006 9.66151 7.93754C9.35247 7.47503 9.18752 6.93126 9.18752 6.375C9.18752 5.62908 9.48384 4.91371 10.0113 4.38626C10.5387 3.85882 11.2541 3.5625 12 3.5625ZM19.3125 21C19.3125 21.1492 19.2533 21.2923 19.1478 21.3977C19.0423 21.5032 18.8992 21.5625 18.75 21.5625H5.25002C5.13551 21.5631 5.02355 21.5287 4.92909 21.464C4.83464 21.3993 4.76219 21.3073 4.72142 21.2003C4.68066 21.0932 4.67352 20.9764 4.70097 20.8652C4.72842 20.754 4.78914 20.6539 4.87502 20.5781L14.3044 12.2578C13.443 11.9114 12.5146 11.7633 11.5882 11.8245C10.6617 11.8857 9.76092 12.1546 8.95253 12.6113C8.14415 13.068 7.4489 13.7008 6.91832 14.4627C6.38774 15.2246 6.03544 16.0962 5.88752 17.0128C5.86638 17.1446 5.79904 17.2647 5.69753 17.3514C5.59602 17.4381 5.46697 17.4859 5.33346 17.4863C5.30208 17.4866 5.27073 17.4844 5.23971 17.4797C5.1665 17.4683 5.09627 17.4425 5.03305 17.4039C4.96983 17.3653 4.91487 17.3145 4.87131 17.2546C4.82775 17.1947 4.79647 17.1267 4.77925 17.0546C4.76202 16.9826 4.75921 16.9078 4.77096 16.8347C4.95225 15.7036 5.39672 14.631 6.06857 13.7032C6.74041 12.7754 7.62082 12.0184 8.63885 11.4932C9.65688 10.9681 10.7841 10.6894 11.9295 10.6797C13.075 10.6701 14.2067 10.9296 15.2335 11.4375L17.625 9.32813C17.7369 9.22942 17.8834 9.1792 18.0323 9.18851C18.1813 9.19783 18.3204 9.26593 18.4191 9.37781C18.5178 9.4897 18.568 9.63622 18.5587 9.78514C18.5494 9.93405 18.4813 10.0732 18.3694 10.1719L6.73783 20.4375H18.75C18.8992 20.4375 19.0423 20.4968 19.1478 20.6023C19.2533 20.7077 19.3125 20.8508 19.3125 21ZM18.0075 13.83C18.8599 15.0533 19.3155 16.5091 19.3125 18C19.3125 18.1492 19.2533 18.2923 19.1478 18.3977C19.0423 18.5032 18.8992 18.5625 18.75 18.5625C18.6008 18.5625 18.4578 18.5032 18.3523 18.3977C18.2468 18.2923 18.1875 18.1492 18.1875 18C18.19 16.7388 17.8048 15.5072 17.0841 14.4722C17.0024 14.3497 16.972 14.2 16.9994 14.0553C17.0269 13.9106 17.11 13.7824 17.2309 13.6983C17.3518 13.6142 17.5009 13.5809 17.6461 13.6055C17.7913 13.6302 17.9211 13.7108 18.0075 13.83Z" fill="black"/>
</svg>
