<svg width="24" height="24" viewBox="0 0 24 24" fill="none" xmlns="http://www.w3.org/2000/svg">
<path d="M16.4996 15.1875C15.9986 15.1873 15.5032 15.293 15.046 15.4977C14.5888 15.7024 14.18 16.0015 13.8464 16.3753L9.26206 13.4287C9.4599 12.9784 9.56206 12.4918 9.56206 12C9.56206 11.5081 9.4599 11.0215 9.26206 10.5712L13.8464 7.62464C14.4445 8.29178 15.272 8.70906 16.1641 8.7933C17.0561 8.87755 17.9471 8.62258 18.6595 8.07922C19.3719 7.53585 19.8534 6.74399 20.0081 5.86145C20.1627 4.97891 19.9791 4.07051 19.4939 3.31729C19.0087 2.56407 18.2574 2.02134 17.3899 1.79728C16.5224 1.57322 15.6023 1.68427 14.813 2.10831C14.0237 2.53235 13.4232 3.23823 13.1311 4.08527C12.839 4.93231 12.8769 5.85831 13.2371 6.67871L8.65268 9.62527C8.17172 9.08741 7.53878 8.70828 6.83762 8.53804C6.13646 8.3678 5.40014 8.41447 4.72609 8.67189C4.05204 8.92931 3.47204 9.38534 3.06285 9.97962C2.65366 10.5739 2.43457 11.2784 2.43457 12C2.43457 12.7215 2.65366 13.426 3.06285 14.0203C3.47204 14.6146 4.05204 15.0706 4.72609 15.328C5.40014 15.5854 6.13646 15.6321 6.83762 15.4619C7.53878 15.2916 8.17172 14.9125 8.65268 14.3746L13.2371 17.3212C12.9293 18.0242 12.8568 18.8077 13.0302 19.5552C13.2036 20.3027 13.6138 20.9742 14.1997 21.4698C14.7855 21.9654 15.5157 22.2586 16.2817 22.3057C17.0476 22.3529 17.8082 22.1514 18.4504 21.7314C19.0927 21.3114 19.5821 20.6952 19.8459 19.9747C20.1097 19.2541 20.1337 18.4675 19.9145 17.7322C19.6953 16.9968 19.2445 16.3519 18.6292 15.8933C18.0138 15.4348 17.2669 15.1873 16.4996 15.1875ZM16.4996 2.81246C16.9816 2.81246 17.4529 2.95541 17.8538 3.22325C18.2546 3.49109 18.567 3.87177 18.7515 4.31717C18.936 4.76256 18.9843 5.25266 18.8902 5.72549C18.7962 6.19832 18.564 6.63264 18.2231 6.97353C17.8822 7.31442 17.4479 7.54657 16.9751 7.64062C16.5023 7.73467 16.0122 7.6864 15.5668 7.50191C15.1214 7.31742 14.7407 7.005 14.4728 6.60416C14.205 6.20331 14.0621 5.73205 14.0621 5.24996C14.0621 4.60349 14.3189 3.9835 14.776 3.52638C15.2331 3.06926 15.8531 2.81246 16.4996 2.81246ZM5.99956 14.4375C5.51746 14.4375 5.0462 14.2945 4.64535 14.0267C4.24451 13.7588 3.93209 13.3781 3.7476 12.9327C3.56311 12.4874 3.51484 11.9973 3.60889 11.5244C3.70294 11.0516 3.93509 10.6173 4.27598 10.2764C4.61687 9.93549 5.05119 9.70334 5.52402 9.60929C5.99685 9.51524 6.48695 9.56351 6.93235 9.748C7.37774 9.93249 7.75843 10.2449 8.02626 10.6458C8.2941 11.0466 8.43706 11.5179 8.43706 12C8.43706 12.6464 8.18025 13.2664 7.72313 13.7235C7.26601 14.1806 6.64602 14.4375 5.99956 14.4375ZM16.4996 21.1875C16.0175 21.1875 15.5462 21.0445 15.1454 20.7767C14.7445 20.5088 14.4321 20.1281 14.2476 19.6827C14.0631 19.2374 14.0148 18.7473 14.1089 18.2744C14.2029 17.8016 14.4351 17.3673 14.776 17.0264C15.1169 16.6855 15.5512 16.4533 16.024 16.3593C16.4969 16.2652 16.987 16.3135 17.4323 16.498C17.8777 16.6825 18.2584 16.9949 18.5263 17.3958C18.7941 17.7966 18.9371 18.2679 18.9371 18.75C18.9371 19.0701 18.874 19.387 18.7515 19.6827C18.629 19.9785 18.4495 20.2472 18.2231 20.4735C17.9968 20.6999 17.7281 20.8794 17.4323 21.0019C17.1366 21.1244 16.8197 21.1875 16.4996 21.1875Z" fill="black"/>
</svg>
