<svg width="24" height="24" viewBox="0 0 24 24" fill="none" xmlns="http://www.w3.org/2000/svg">
<path d="M22.2606 6.62727C22.1956 6.42463 22.0717 6.24594 21.9047 6.11403C21.7378 5.98211 21.5353 5.90295 21.3231 5.88665L17.7456 5.6054L16.3675 2.34383C16.2846 2.14914 16.1462 1.98311 15.9697 1.86642C15.7932 1.74972 15.5863 1.6875 15.3746 1.6875C15.163 1.6875 14.9561 1.74972 14.7796 1.86642C14.603 1.98311 14.4647 2.14914 14.3818 2.34383L13.0056 5.60446L9.42902 5.88571C9.21732 5.90102 9.015 5.97907 8.84786 6.1099C8.68073 6.24073 8.55638 6.41839 8.49068 6.62021C8.42498 6.82204 8.42092 7.03886 8.47901 7.243C8.53711 7.44714 8.65472 7.62934 8.81683 7.76633L11.5356 10.0613L10.705 13.4916C10.6556 13.696 10.6679 13.9104 10.7403 14.1078C10.8128 14.3052 10.942 14.4767 11.1118 14.6007C11.2838 14.7273 11.4894 14.8 11.7026 14.8097C11.9159 14.8194 12.1273 14.7656 12.31 14.6551L15.3746 12.812L18.4393 14.656C18.6219 14.7664 18.8331 14.8202 19.0462 14.8105C19.2593 14.8008 19.4647 14.7281 19.6365 14.6016C19.8065 14.4778 19.9359 14.3063 20.0084 14.1089C20.0808 13.9115 20.093 13.697 20.0434 13.4926L19.2184 10.0623L21.9371 7.76727C22.0983 7.63096 22.2152 7.44969 22.2728 7.24662C22.3304 7.04355 22.3262 6.82791 22.2606 6.62727ZM18.2218 9.42758C18.1413 9.49458 18.0811 9.58274 18.0479 9.68212C18.0148 9.78151 18.0101 9.88817 18.0343 9.99008L18.9165 13.6332L15.6653 11.6738C15.5777 11.6211 15.4774 11.5932 15.3751 11.5932C15.2729 11.5932 15.1725 11.6211 15.085 11.6738L11.83 13.6323L12.7121 9.98915C12.7364 9.88723 12.7317 9.78057 12.6985 9.68119C12.6654 9.5818 12.6052 9.49365 12.5246 9.42665L9.65027 6.99852L13.435 6.69946C13.5378 6.69141 13.6365 6.65523 13.7201 6.59487C13.8038 6.53452 13.8692 6.45232 13.9093 6.35727L15.3746 2.88852L16.84 6.35727C16.88 6.45232 16.9455 6.53452 17.0292 6.59487C17.1128 6.65523 17.2115 6.69141 17.3143 6.69946L21.099 6.99852L18.2218 9.42758ZM8.12683 11.4179L2.64714 16.8976C2.54051 16.9969 2.39947 17.051 2.25375 17.0485C2.10802 17.0459 1.96898 16.9869 1.86592 16.8838C1.76286 16.7807 1.70383 16.6417 1.70126 16.496C1.69869 16.3503 1.75278 16.2092 1.85214 16.1026L7.33183 10.6229C7.43846 10.5235 7.57949 10.4694 7.72522 10.472C7.87095 10.4746 8.00998 10.5336 8.11304 10.6367C8.2161 10.7397 8.27514 10.8788 8.27771 11.0245C8.28028 11.1702 8.22619 11.3113 8.12683 11.4179ZM9.1412 16.3585C9.1935 16.4108 9.23499 16.4728 9.2633 16.5411C9.29161 16.6094 9.30618 16.6826 9.30618 16.7565C9.30618 16.8304 9.29161 16.9036 9.2633 16.9719C9.23499 17.0402 9.1935 17.1022 9.1412 17.1545L4.14714 22.1476C4.04051 22.2469 3.89947 22.301 3.75375 22.2985C3.60802 22.2959 3.46898 22.2369 3.36592 22.1338C3.26286 22.0307 3.20383 21.8917 3.20126 21.746C3.19869 21.6003 3.25278 21.4592 3.35214 21.3526L8.34339 16.3585C8.39567 16.3059 8.45782 16.2642 8.52628 16.2357C8.59474 16.2073 8.66815 16.1926 8.7423 16.1926C8.81644 16.1926 8.88985 16.2073 8.95831 16.2357C9.02677 16.2642 9.08893 16.3059 9.1412 16.3585ZM15.985 16.2648C16.0903 16.3702 16.1495 16.5132 16.1495 16.6623C16.1495 16.8113 16.0903 16.9543 15.985 17.0598L10.8953 22.1485C10.7886 22.2479 10.6476 22.302 10.5019 22.2994C10.3561 22.2968 10.2171 22.2378 10.114 22.1347C10.011 22.0317 9.95196 21.8926 9.94938 21.7469C9.94681 21.6012 10.0009 21.4602 10.1003 21.3535L15.1871 16.2638C15.2394 16.211 15.3017 16.169 15.3704 16.1404C15.439 16.1117 15.5126 16.097 15.587 16.097C15.6614 16.097 15.735 16.1117 15.8036 16.1404C15.8722 16.169 15.9345 16.211 15.9868 16.2638L15.985 16.2648Z" fill="black"/>
</svg>
