<svg width="24" height="24" viewBox="0 0 24 24" fill="none" xmlns="http://www.w3.org/2000/svg">
<path d="M20.0629 4.5V8.25C20.0629 8.39918 20.0036 8.54226 19.8981 8.64775C19.7926 8.75324 19.6495 8.8125 19.5004 8.8125C19.3512 8.8125 19.2081 8.75324 19.1026 8.64775C18.9971 8.54226 18.9379 8.39918 18.9379 8.25V5.8575L14.5194 10.2769C14.4139 10.3824 14.2707 10.4417 14.1215 10.4417C13.9722 10.4417 13.829 10.3824 13.7235 10.2769C13.6179 10.1713 13.5586 10.0282 13.5586 9.87891C13.5586 9.72964 13.6179 9.58648 13.7235 9.48094L18.1429 5.0625H15.7504C15.6012 5.0625 15.4581 5.00324 15.3526 4.89775C15.2471 4.79226 15.1879 4.64918 15.1879 4.5C15.1879 4.35082 15.2471 4.20774 15.3526 4.10225C15.4581 3.99676 15.6012 3.9375 15.7504 3.9375H19.5004C19.6495 3.9375 19.7926 3.99676 19.8981 4.10225C20.0036 4.20774 20.0629 4.35082 20.0629 4.5ZM19.5004 15.1875C19.3512 15.1875 19.2081 15.2468 19.1026 15.3523C18.9971 15.4577 18.9379 15.6008 18.9379 15.75V18.1425L4.89786 4.1025C4.79123 4.00314 4.65019 3.94905 4.50447 3.95162C4.35874 3.95419 4.2197 4.01322 4.11664 4.11628C4.01358 4.21934 3.95455 4.35838 3.95198 4.50411C3.94941 4.64983 4.0035 4.79087 4.10286 4.8975L18.1429 18.9375H15.7504C15.6012 18.9375 15.4581 18.9968 15.3526 19.1023C15.2471 19.2077 15.1879 19.3508 15.1879 19.5C15.1879 19.6492 15.2471 19.7923 15.3526 19.8977C15.4581 20.0032 15.6012 20.0625 15.7504 20.0625H19.5004C19.6495 20.0625 19.7926 20.0032 19.8981 19.8977C20.0036 19.7923 20.0629 19.6492 20.0629 19.5V15.75C20.0629 15.6008 20.0036 15.4577 19.8981 15.3523C19.7926 15.2468 19.6495 15.1875 19.5004 15.1875ZM9.4813 13.7231L4.10286 19.1025C4.04759 19.154 4.00327 19.2161 3.97252 19.2851C3.94178 19.3541 3.92525 19.4286 3.92392 19.5041C3.92258 19.5796 3.93648 19.6547 3.96477 19.7247C3.99306 19.7947 4.03517 19.8584 4.08858 19.9118C4.14199 19.9652 4.20562 20.0073 4.27566 20.0356C4.3457 20.0639 4.42072 20.0778 4.49625 20.0764C4.57178 20.0751 4.64626 20.0586 4.71526 20.0278C4.78426 19.9971 4.84636 19.9528 4.89786 19.8975L10.2772 14.5191C10.3828 14.4135 10.4421 14.2704 10.4421 14.1211C10.4421 13.9718 10.3828 13.8287 10.2772 13.7231C10.1717 13.6176 10.0285 13.5583 9.87927 13.5583C9.73 13.5583 9.58684 13.6176 9.4813 13.7231Z" fill="black"/>
</svg>
