<svg width="24" height="24" viewBox="0 0 24 24" fill="none" xmlns="http://www.w3.org/2000/svg">
<path d="M17.4371 6.75V5.0625H7.16961L12.4393 11.6484C12.5192 11.7482 12.5627 11.8722 12.5627 12C12.5627 12.1278 12.5192 12.2518 12.4393 12.3516L7.16961 18.9375H17.4371V17.25C17.4371 17.1008 17.4964 16.9577 17.6019 16.8523C17.7074 16.7468 17.8504 16.6875 17.9996 16.6875C18.1488 16.6875 18.2919 16.7468 18.3974 16.8523C18.5028 16.9577 18.5621 17.1008 18.5621 17.25V19.5C18.5621 19.6492 18.5028 19.7923 18.3974 19.8977C18.2919 20.0032 18.1488 20.0625 17.9996 20.0625H5.99961C5.89359 20.0626 5.78969 20.0328 5.6999 19.9764C5.61011 19.92 5.53808 19.8394 5.49212 19.7438C5.44616 19.6483 5.42814 19.5417 5.44014 19.4364C5.45213 19.331 5.49366 19.2312 5.55992 19.1484L11.2787 12L5.55992 4.85156C5.49366 4.7688 5.45213 4.66899 5.44014 4.56364C5.42814 4.4583 5.44616 4.35171 5.49212 4.25617C5.53808 4.16062 5.61011 4.08001 5.6999 4.02363C5.78969 3.96725 5.89359 3.93739 5.99961 3.9375H17.9996C18.1488 3.9375 18.2919 3.99676 18.3974 4.10225C18.5028 4.20774 18.5621 4.35082 18.5621 4.5V6.75C18.5621 6.89918 18.5028 7.04226 18.3974 7.14775C18.2919 7.25324 18.1488 7.3125 17.9996 7.3125C17.8504 7.3125 17.7074 7.25324 17.6019 7.14775C17.4964 7.04226 17.4371 6.89918 17.4371 6.75Z" fill="black"/>
</svg>
