<svg width="24" height="24" viewBox="0 0 24 24" fill="none" xmlns="http://www.w3.org/2000/svg">
<path d="M21.7499 15.9375H5.68114C5.99427 15.3244 6.31208 14.6859 6.62427 14.0353C6.75753 14.0571 6.89235 14.0681 7.02739 14.0681C8.36145 14.0681 9.94208 13.0256 11.7458 10.9537C11.8396 11.235 11.9521 11.5397 12.0908 11.85C12.7368 13.2984 13.5608 14.0428 14.5415 14.0625H14.578C15.404 14.0625 16.2383 13.5216 17.1093 12.4144C17.6558 13.1887 18.9018 14.0625 21.7499 14.0625C21.8991 14.0625 22.0422 14.0032 22.1476 13.8977C22.2531 13.7923 22.3124 13.6492 22.3124 13.5C22.3124 13.3508 22.2531 13.2077 22.1476 13.1023C22.0422 12.9968 21.8991 12.9375 21.7499 12.9375C18.029 12.9375 17.8236 11.3803 17.8124 11.2444C17.8169 11.1235 17.7811 11.0045 17.7107 10.9061C17.6403 10.8077 17.5392 10.7354 17.4233 10.7006C17.304 10.6653 17.1765 10.6699 17.0601 10.7137C16.9436 10.7576 16.8447 10.8382 16.7783 10.9434C15.6383 12.6937 14.8968 12.9431 14.563 12.9375C13.5524 12.9178 12.7715 10.7175 12.5511 9.65625C12.5296 9.5515 12.4787 9.45506 12.4043 9.37824C12.3299 9.30141 12.2351 9.24739 12.1311 9.2225C12.0271 9.1976 11.9182 9.20287 11.817 9.23769C11.7159 9.2725 11.6268 9.33542 11.5602 9.41906C9.80989 11.6119 8.24989 12.8437 7.14177 12.93C9.37489 8.0475 10.0527 4.94062 9.20895 3.44812C8.94739 2.98687 8.40552 2.4375 7.30396 2.4375C5.89771 2.4375 4.7727 3.80812 4.22708 6.19687C3.58864 8.99437 3.94864 12.375 5.58927 13.5937C5.2002 14.4037 4.80177 15.195 4.41552 15.9375H2.24989C2.10071 15.9375 1.95763 15.9968 1.85214 16.1023C1.74666 16.2077 1.68739 16.3508 1.68739 16.5C1.68739 16.6492 1.74666 16.7923 1.85214 16.8977C1.95763 17.0032 2.10071 17.0625 2.24989 17.0625H3.82114C2.68583 19.1794 1.78114 20.6869 1.76802 20.7103C1.72731 20.7736 1.69973 20.8445 1.68692 20.9187C1.6741 20.9929 1.67631 21.0689 1.69341 21.1422C1.71051 21.2155 1.74216 21.2847 1.78647 21.3455C1.83079 21.4064 1.88687 21.4577 1.95139 21.4965C2.01592 21.5353 2.08757 21.5608 2.16211 21.5713C2.23665 21.5819 2.31256 21.5775 2.38533 21.5582C2.4581 21.5389 2.52626 21.5052 2.58577 21.4591C2.64528 21.4129 2.69493 21.3553 2.73177 21.2897C2.74677 21.2653 3.81552 19.4831 5.0952 17.0625H21.7499C21.8991 17.0625 22.0422 17.0032 22.1476 16.8977C22.2531 16.7923 22.3124 16.6492 22.3124 16.5C22.3124 16.3508 22.2531 16.2077 22.1476 16.1023C22.0422 15.9968 21.8991 15.9375 21.7499 15.9375ZM5.32395 6.44719C5.72333 4.695 6.50052 3.5625 7.30396 3.5625C7.90395 3.5625 8.11395 3.79781 8.22927 4.00219C8.60427 4.65844 8.79177 6.64125 6.08427 12.5334C5.1177 11.5678 4.75583 8.93437 5.32395 6.44719Z" fill="black"/>
</svg>
