<svg width="24" height="24" viewBox="0 0 24 24" fill="none" xmlns="http://www.w3.org/2000/svg">
<path d="M22.9242 9.37971L17.6742 3.37971C17.6214 3.3193 17.5562 3.27089 17.4831 3.23774C17.41 3.20459 17.3307 3.18747 17.2504 3.18752H6.75045C6.67055 3.18688 6.59143 3.20328 6.51837 3.23561C6.4453 3.26794 6.37996 3.31546 6.3267 3.37502L1.0767 9.37502C0.986115 9.47964 0.937279 9.61398 0.939527 9.75235C0.941776 9.89071 0.994951 10.0234 1.08888 10.125L11.5889 21.375C11.6415 21.4315 11.7052 21.4766 11.776 21.5074C11.8468 21.5382 11.9232 21.5541 12.0004 21.5541C12.0777 21.5541 12.1541 21.5382 12.2249 21.5074C12.2957 21.4766 12.3594 21.4315 12.412 21.375L22.912 10.125C23.0047 10.0237 23.057 9.89196 23.0593 9.75467C23.0615 9.61738 23.0135 9.48402 22.9242 9.37971ZM7.11982 10.3125L10.3636 18.421L2.79513 10.3125H7.11982ZM15.6698 10.3125L12.0004 19.485L8.33107 10.3125H15.6698ZM8.62545 9.18752L12.0004 4.68752L15.3754 9.18752H8.62545ZM16.8811 10.3125H21.2058L13.6373 18.421L16.8811 10.3125ZM21.2611 9.18752H16.7817L13.1254 4.31252H16.9954L21.2611 9.18752ZM7.00545 4.31252H10.8754L7.2192 9.18752H2.73982L7.00545 4.31252Z" fill="black"/>
</svg>
