<svg width="24" height="24" viewBox="0 0 24 24" fill="none" xmlns="http://www.w3.org/2000/svg">
<path d="M16.3125 13.1251C16.3125 13.3105 16.2575 13.4918 16.1545 13.646C16.0515 13.8001 15.905 13.9203 15.7337 13.9913C15.5624 14.0622 15.3739 14.0808 15.1921 14.0446C15.0102 14.0084 14.8432 13.9191 14.7121 13.788C14.5809 13.6569 14.4917 13.4899 14.4555 13.308C14.4193 13.1262 14.4379 12.9377 14.5088 12.7663C14.5798 12.595 14.7 12.4486 14.8541 12.3456C15.0083 12.2426 15.1896 12.1876 15.375 12.1876C15.6236 12.1876 15.8621 12.2864 16.0379 12.4622C16.2137 12.638 16.3125 12.8765 16.3125 13.1251ZM11.8125 8.62511C11.8125 8.43969 11.7575 8.25844 11.6545 8.10427C11.5515 7.9501 11.405 7.82993 11.2337 7.75898C11.0624 7.68802 10.8739 7.66945 10.6921 7.70563C10.5102 7.7418 10.3432 7.83109 10.2121 7.9622C10.0809 8.09331 9.99166 8.26036 9.95549 8.44222C9.91931 8.62407 9.93788 8.81257 10.0088 8.98388C10.0798 9.15519 10.2 9.3016 10.3541 9.40462C10.5083 9.50763 10.6896 9.56261 10.875 9.56261C11.1236 9.56261 11.3621 9.46384 11.5379 9.28803C11.7137 9.11221 11.8125 8.87375 11.8125 8.62511ZM18.7143 5.19105C16.9439 3.45415 14.5679 2.47306 12.0878 2.45485C9.6077 2.43664 7.21753 3.38273 5.42179 5.09345C3.62604 6.80416 2.5652 9.14566 2.46318 11.6237C2.36116 14.1018 3.22593 16.5226 4.87497 18.3751C4.92366 18.4321 4.98325 18.4788 5.05023 18.5124C5.11722 18.5461 5.19025 18.566 5.26504 18.571C5.33983 18.576 5.41487 18.566 5.48575 18.5416C5.55663 18.5172 5.62192 18.4789 5.67777 18.4289C5.73363 18.379 5.77894 18.3183 5.81103 18.2506C5.84312 18.1828 5.86134 18.1094 5.86463 18.0345C5.86792 17.9596 5.85621 17.8848 5.83019 17.8145C5.80417 17.7442 5.76436 17.6798 5.7131 17.6251C4.63753 16.4176 3.93121 14.9268 3.67805 13.3296C3.4249 11.7325 3.63555 10.0963 4.28498 8.6154C4.93441 7.13448 5.99531 5.87113 7.34165 4.97544C8.68798 4.07976 10.2631 3.58939 11.88 3.56261H12C13.6287 3.56283 15.2225 4.03443 16.5891 4.92049C17.9557 5.80655 19.0366 7.0692 19.7014 8.55603C20.3662 10.0429 20.5865 11.6903 20.3357 13.2996C20.0848 14.9089 19.3736 16.4112 18.2878 17.6251C18.1883 17.7364 18.1371 17.8826 18.1455 18.0316C18.1538 18.1806 18.2211 18.3202 18.3323 18.4196C18.4436 18.5191 18.5898 18.5703 18.7388 18.5619C18.8878 18.5536 19.0274 18.4864 19.1268 18.3751C20.7639 16.5448 21.6342 14.1548 21.5572 11.7004C21.4802 9.24596 20.462 6.9152 18.7134 5.19105H18.7143ZM14.25 15.9376H12.75C10.6265 15.9376 8.06247 14.1817 8.06247 12.0001C8.06273 11.7802 8.08092 11.5608 8.11685 11.3439C8.1307 11.2704 8.12976 11.1949 8.1141 11.1218C8.09843 11.0487 8.06835 10.9795 8.02562 10.9181C7.98288 10.8568 7.92835 10.8046 7.8652 10.7646C7.80205 10.7245 7.73156 10.6975 7.65785 10.685C7.58414 10.6726 7.50868 10.6749 7.43588 10.692C7.36309 10.709 7.29442 10.7404 7.2339 10.7843C7.17337 10.8282 7.1222 10.8837 7.08338 10.9476C7.04456 11.0114 7.01886 11.0824 7.00778 11.1564C6.96083 11.4352 6.93731 11.7174 6.93747 12.0001C6.93747 13.337 7.61247 14.6251 8.83778 15.6189C9.96278 16.5367 11.3934 17.0626 12.75 17.0626H14.25C14.4986 17.0626 14.7371 17.1614 14.9129 17.3372C15.0887 17.513 15.1875 17.7515 15.1875 18.0001C15.1875 18.2488 15.0887 18.4872 14.9129 18.663C14.7371 18.8388 14.4986 18.9376 14.25 18.9376H8.99997C8.45296 18.9376 7.92836 19.1549 7.54156 19.5417C7.15477 19.9285 6.93747 20.4531 6.93747 21.0001C6.93747 21.5471 7.15477 22.0717 7.54156 22.4585C7.92836 22.8453 8.45296 23.0626 8.99997 23.0626C9.14916 23.0626 9.29223 23.0034 9.39772 22.8979C9.50321 22.7924 9.56247 22.6493 9.56247 22.5001C9.56247 22.3509 9.50321 22.2079 9.39772 22.1024C9.29223 21.9969 9.14916 21.9376 8.99997 21.9376C8.75133 21.9376 8.51288 21.8388 8.33706 21.663C8.16124 21.4872 8.06247 21.2488 8.06247 21.0001C8.06247 20.7515 8.16124 20.513 8.33706 20.3372C8.51288 20.1614 8.75133 20.0626 8.99997 20.0626H14.25C14.797 20.0626 15.3216 19.8453 15.7084 19.4585C16.0952 19.0717 16.3125 18.5471 16.3125 18.0001C16.3125 17.4531 16.0952 16.9285 15.7084 16.5417C15.3216 16.1549 14.797 15.9376 14.25 15.9376Z" fill="black"/>
</svg>
