<svg width="24" height="24" viewBox="0 0 24 24" fill="none" xmlns="http://www.w3.org/2000/svg">
<path d="M20.7967 14.1158C20.8143 14.1876 20.8177 14.2621 20.8065 14.3352C20.7953 14.4083 20.7698 14.4784 20.7315 14.5416C20.6932 14.6048 20.6428 14.6599 20.5832 14.7036C20.5236 14.7473 20.456 14.7789 20.3842 14.7964L17.8886 15.4096L18.5448 17.8546C18.564 17.9259 18.5689 18.0003 18.5593 18.0736C18.5496 18.1468 18.5257 18.2174 18.4888 18.2814C18.4519 18.3454 18.4027 18.4015 18.3441 18.4465C18.2855 18.4915 18.2187 18.5245 18.1473 18.5436C18.0998 18.5558 18.051 18.5621 18.002 18.5624C17.8781 18.5625 17.7576 18.5216 17.6593 18.4462C17.5609 18.3707 17.4903 18.2649 17.4583 18.1452L16.713 15.3749L12.5626 12.9739V17.7674L14.6476 19.8524C14.7029 19.9039 14.7472 19.966 14.778 20.035C14.8087 20.104 14.8253 20.1785 14.8266 20.254C14.8279 20.3295 14.814 20.4045 14.7857 20.4746C14.7574 20.5446 14.7153 20.6082 14.6619 20.6617C14.6085 20.7151 14.5449 20.7572 14.4748 20.7855C14.4048 20.8138 14.3298 20.8277 14.2543 20.8263C14.1787 20.825 14.1042 20.8085 14.0352 20.7777C13.9662 20.747 13.9041 20.7027 13.8526 20.6474L12.0001 18.7958L10.1476 20.6474C10.041 20.7467 9.89998 20.8008 9.75425 20.7983C9.60852 20.7957 9.46949 20.7367 9.36643 20.6336C9.26337 20.5305 9.20433 20.3915 9.20176 20.2458C9.19919 20.1001 9.25328 19.959 9.35264 19.8524L11.4376 17.7674V12.9739L7.28733 15.3749L6.54389 18.1499C6.51101 18.2687 6.43998 18.3735 6.34173 18.448C6.24348 18.5226 6.12346 18.5627 6.00014 18.5624C5.95112 18.5621 5.90232 18.5558 5.85483 18.5436C5.78348 18.5245 5.71661 18.4915 5.65802 18.4465C5.59943 18.4015 5.55028 18.3454 5.51337 18.2814C5.47646 18.2174 5.45251 18.1468 5.4429 18.0736C5.43328 18.0003 5.43818 17.9259 5.45733 17.8546L6.11358 15.4096L3.61795 14.7964C3.473 14.7609 3.3481 14.6692 3.27074 14.5416C3.19338 14.4139 3.1699 14.2608 3.20545 14.1158C3.24101 13.9709 3.33269 13.846 3.46034 13.7686C3.58798 13.6913 3.74112 13.6678 3.88608 13.7033L6.72014 14.3999L10.8751 11.9999L6.71827 9.59988L3.8842 10.2964C3.84034 10.3072 3.79531 10.3126 3.75014 10.3124C3.61246 10.3127 3.47945 10.2624 3.37632 10.1712C3.2732 10.08 3.20711 9.95408 3.19059 9.81739C3.17407 9.6807 3.20825 9.54269 3.28667 9.42952C3.36509 9.31635 3.48229 9.23586 3.61608 9.20332L6.1117 8.5902L5.45545 6.1452C5.43462 6.07331 5.42834 5.99798 5.43699 5.92363C5.44564 5.84928 5.46904 5.77741 5.50582 5.71222C5.5426 5.64703 5.59202 5.58983 5.65118 5.54398C5.71035 5.49814 5.77807 5.46456 5.85038 5.44522C5.92269 5.42588 5.99813 5.42117 6.07228 5.43135C6.14643 5.44154 6.21781 5.46643 6.28222 5.50455C6.34664 5.54267 6.40279 5.59327 6.4474 5.65337C6.49201 5.71348 6.52418 5.78188 6.54202 5.85457L7.28545 8.62957L11.4376 11.0258V6.23239L9.35264 4.14739C9.25328 4.04075 9.19919 3.89972 9.20176 3.75399C9.20433 3.60827 9.26337 3.46923 9.36643 3.36617C9.46949 3.26311 9.60852 3.20407 9.75425 3.2015C9.89998 3.19893 10.041 3.25302 10.1476 3.35238L12.0001 5.20395L13.8526 3.35238C13.9593 3.25302 14.1003 3.19893 14.246 3.2015C14.3918 3.20407 14.5308 3.26311 14.6339 3.36617C14.7369 3.46923 14.796 3.60827 14.7985 3.75399C14.8011 3.89972 14.747 4.04075 14.6476 4.14739L12.5626 6.23239V11.0258L16.713 8.62957L17.4564 5.85457C17.4742 5.78188 17.5064 5.71348 17.551 5.65337C17.5956 5.59327 17.6518 5.54267 17.7162 5.50455C17.7806 5.46643 17.852 5.44154 17.9261 5.43135C18.0003 5.42117 18.0757 5.42588 18.148 5.44522C18.2203 5.46456 18.2881 5.49814 18.3472 5.54398C18.4064 5.58983 18.4558 5.64703 18.4926 5.71222C18.5294 5.77741 18.5528 5.84928 18.5614 5.92363C18.5701 5.99798 18.5638 6.07331 18.543 6.1452L17.8867 8.5902L20.3823 9.20332C20.516 9.23583 20.633 9.31616 20.7115 9.42913C20.7899 9.54211 20.8242 9.6799 20.8079 9.81646C20.7917 9.95302 20.7259 10.0789 20.6231 10.1703C20.5204 10.2616 20.3877 10.3122 20.2501 10.3124C20.205 10.3126 20.1599 10.3072 20.1161 10.2964L17.282 9.59988L13.1251 11.9999L17.282 14.3999L20.1161 13.7033C20.1879 13.6857 20.2624 13.6824 20.3355 13.6935C20.4085 13.7047 20.4787 13.7302 20.5419 13.7685C20.6051 13.8068 20.6601 13.8572 20.7039 13.9168C20.7476 13.9764 20.7791 14.044 20.7967 14.1158Z" fill="black"/>
</svg>
