<svg width="24" height="24" viewBox="0 0 24 24" fill="none" xmlns="http://www.w3.org/2000/svg">
<path d="M17.9998 1.6875H9.74977C9.40167 1.6875 9.06783 1.82578 8.82169 2.07192C8.57555 2.31806 8.43727 2.6519 8.43727 3V10.2666L4.75008 13.9547C4.24775 14.4486 3.8482 15.037 3.57449 15.6861C3.30077 16.3352 3.15831 17.0321 3.15532 17.7366C3.15233 18.441 3.28888 19.1391 3.55708 19.7905C3.82528 20.4419 4.21983 21.0337 4.71795 21.5318C5.21607 22.0299 5.80791 22.4245 6.45931 22.6927C7.1107 22.9609 7.80876 23.0974 8.51321 23.0944C9.21765 23.0915 9.91453 22.949 10.5636 22.6753C11.2127 22.4016 11.8012 22.002 12.2951 21.4997L18.7085 15.0872C18.9005 14.896 19.0527 14.6686 19.1564 14.4182C19.26 14.1678 19.313 13.8994 19.3123 13.6284V3C19.3123 2.6519 19.174 2.31806 18.9278 2.07192C18.6817 1.82578 18.3479 1.6875 17.9998 1.6875ZM9.74977 2.8125H17.9998C18.0495 2.8125 18.0972 2.83225 18.1323 2.86742C18.1675 2.90258 18.1873 2.95027 18.1873 3V4.6875H9.56227V3C9.56227 2.95027 9.58202 2.90258 9.61718 2.86742C9.65235 2.83225 9.70004 2.8125 9.74977 2.8125ZM11.5001 20.7047C10.7066 21.4758 9.64148 21.9037 8.53503 21.8958C7.42858 21.8879 6.36968 21.4449 5.58728 20.6625C4.80488 19.8801 4.36184 18.8212 4.35394 17.7147C4.34605 16.6083 4.77393 15.5432 5.54508 14.7497L9.39727 10.8975C9.50278 10.7921 9.56213 10.6491 9.56227 10.5V5.8125H18.1873V9.96937C16.9504 10.1091 15.8081 10.6991 14.9782 11.6268C14.1484 12.5546 13.6888 13.7552 13.6873 15C13.6847 15.9638 13.9604 16.9079 14.4813 17.7188L11.5001 20.7047ZM17.9126 14.2913L15.3016 16.9031C14.9785 16.321 14.81 15.6658 14.8123 15C14.8134 14.0536 15.1551 13.1392 15.7747 12.4238C16.3944 11.7085 17.2507 11.2399 18.1873 11.1038V13.6284C18.1876 13.7516 18.1635 13.8736 18.1163 13.9874C18.0692 14.1011 17.9999 14.2044 17.9126 14.2913Z" fill="black"/>
</svg>
