<svg width="24" height="24" viewBox="0 0 24 24" fill="none" xmlns="http://www.w3.org/2000/svg">
<path d="M10.8521 14.6025L19.8521 5.6025C19.9587 5.50314 20.0997 5.44905 20.2454 5.45162C20.3912 5.45419 20.5302 5.51322 20.6333 5.61628C20.7363 5.71934 20.7954 5.85838 20.7979 6.00411C20.8005 6.14983 20.7464 6.29087 20.6471 6.3975L11.6471 15.3975C11.5404 15.4969 11.3994 15.551 11.2537 15.5484C11.1079 15.5458 10.9689 15.4868 10.8658 15.3837C10.7628 15.2807 10.7037 15.1416 10.7012 14.9959C10.6986 14.8502 10.7527 14.7091 10.8521 14.6025ZM11.9996 8.0625C12.6715 8.06182 13.339 8.17075 13.9758 8.385C14.1173 8.43261 14.2719 8.42208 14.4056 8.35571C14.5393 8.28934 14.6412 8.17257 14.6888 8.03109C14.7364 7.88962 14.7259 7.73502 14.6595 7.60131C14.5931 7.46761 14.4763 7.36574 14.3349 7.31812C13.1695 6.9253 11.9239 6.83273 10.7133 7.04897C9.50264 7.26521 8.3661 7.78328 7.40879 8.55526C6.45149 9.32723 5.70434 10.3282 5.23646 11.4655C4.76859 12.6028 4.5951 13.8397 4.73206 15.0619C4.74735 15.2001 4.8133 15.3277 4.91718 15.4202C5.02106 15.5126 5.1555 15.5633 5.29456 15.5625C5.31547 15.5639 5.33645 15.5639 5.35737 15.5625C5.50552 15.546 5.64107 15.4714 5.73423 15.355C5.8274 15.2386 5.87056 15.09 5.85424 14.9419C5.82783 14.7122 5.81374 14.4812 5.81206 14.25C5.81404 12.6096 6.46657 11.0369 7.62652 9.87697C8.78648 8.71702 10.3591 8.06448 11.9996 8.0625ZM21.1871 9.55313C21.1533 9.48738 21.107 9.42893 21.0506 9.3811C20.9943 9.33327 20.9291 9.297 20.8588 9.27437C20.7884 9.25173 20.7143 9.24317 20.6407 9.24918C20.567 9.25519 20.4953 9.27564 20.4296 9.30938C20.3638 9.34311 20.3054 9.38946 20.2575 9.44578C20.2097 9.50211 20.1734 9.5673 20.1508 9.63764C20.1282 9.70798 20.1196 9.78209 20.1256 9.85574C20.1316 9.92939 20.1521 10.0011 20.1858 10.0669C20.7522 11.1785 21.0871 12.3935 21.1703 13.6384C21.2534 14.8832 21.0831 16.132 20.6696 17.3091C20.6571 17.3466 20.633 17.3793 20.6009 17.4024C20.5687 17.4254 20.5301 17.4377 20.4905 17.4375H3.51143C3.47163 17.4365 3.4331 17.4233 3.40107 17.3996C3.36903 17.376 3.34505 17.3431 3.33237 17.3053C2.84885 15.9195 2.70357 14.4383 2.90861 12.985C3.11366 11.5316 3.66311 10.1484 4.51115 8.95049C5.3592 7.75258 6.48128 6.77472 7.78388 6.09841C9.08648 5.4221 10.5319 5.06693 11.9996 5.0625H12.0839C13.5098 5.07161 14.9135 5.41587 16.1817 6.0675C16.2477 6.10129 16.3197 6.12176 16.3936 6.12773C16.4675 6.1337 16.5419 6.12506 16.6124 6.10229C16.683 6.07953 16.7484 6.04309 16.8049 5.99505C16.8613 5.94702 16.9078 5.88833 16.9416 5.82234C16.9754 5.75635 16.9958 5.68436 17.0018 5.61046C17.0078 5.53656 16.9991 5.46221 16.9764 5.39165C16.9536 5.32109 16.9172 5.25571 16.8691 5.19923C16.8211 5.14276 16.7624 5.09629 16.6964 5.0625C15.2715 4.33174 13.6947 3.94637 12.0933 3.9375H11.9996C10.3507 3.93831 8.72602 4.33428 7.26168 5.09222C5.79734 5.85016 4.53597 6.948 3.58325 8.29377C2.63053 9.63953 2.0142 11.194 1.7859 12.827C1.55761 14.46 1.72399 16.1239 2.27112 17.6794C2.36135 17.9366 2.52902 18.1597 2.75111 18.3178C2.9732 18.4759 3.2388 18.5614 3.51143 18.5625H20.4867C20.7587 18.5618 21.0238 18.477 21.2457 18.3198C21.4676 18.1625 21.6354 17.9405 21.7261 17.6841C22.1915 16.3629 22.3836 14.9609 22.291 13.5633C22.1983 12.1656 21.8227 10.8013 21.1871 9.55313Z" fill="black"/>
</svg>
