<svg width="24" height="24" viewBox="0 0 24 24" fill="none" xmlns="http://www.w3.org/2000/svg">
<path d="M10.313 4.5V19.5C10.313 19.6492 10.2537 19.7923 10.1482 19.8977C10.0427 20.0032 9.89967 20.0625 9.75048 20.0625C9.6013 20.0625 9.45822 20.0032 9.35273 19.8977C9.24725 19.7923 9.18798 19.6492 9.18798 19.5V12.5625H3.60892L5.64798 14.6025C5.70325 14.654 5.74757 14.7161 5.77832 14.7851C5.80906 14.8541 5.82559 14.9286 5.82693 15.0041C5.82826 15.0796 5.81436 15.1547 5.78607 15.2247C5.75778 15.2947 5.71567 15.3584 5.66226 15.4118C5.60885 15.4652 5.54522 15.5073 5.47518 15.5356C5.40514 15.5639 5.33012 15.5778 5.25459 15.5764C5.17906 15.5751 5.10458 15.5586 5.03558 15.5278C4.96658 15.4971 4.90448 15.4528 4.85298 15.3975L1.85298 12.3975C1.74764 12.292 1.68848 12.1491 1.68848 12C1.68848 11.8509 1.74764 11.708 1.85298 11.6025L4.85298 8.6025C4.95961 8.50314 5.10065 8.44905 5.24637 8.45162C5.3921 8.45419 5.53114 8.51322 5.6342 8.61628C5.73726 8.71934 5.79629 8.85838 5.79886 9.00411C5.80143 9.14983 5.74734 9.29087 5.64798 9.3975L3.60892 11.4375H9.18798V4.5C9.18798 4.35082 9.24725 4.20774 9.35273 4.10225C9.45822 3.99676 9.6013 3.9375 9.75048 3.9375C9.89967 3.9375 10.0427 3.99676 10.1482 4.10225C10.2537 4.20774 10.313 4.35082 10.313 4.5ZM22.148 11.6025L19.148 8.6025C19.0414 8.50314 18.9003 8.44905 18.7546 8.45162C18.6089 8.45419 18.4698 8.51322 18.3668 8.61628C18.2637 8.71934 18.2047 8.85838 18.2021 9.00411C18.1995 9.14983 18.2536 9.29087 18.353 9.3975L20.392 11.4375H14.813V4.5C14.813 4.35082 14.7537 4.20774 14.6482 4.10225C14.5427 3.99676 14.3997 3.9375 14.2505 3.9375C14.1013 3.9375 13.9582 3.99676 13.8527 4.10225C13.7472 4.20774 13.688 4.35082 13.688 4.5V19.5C13.688 19.6492 13.7472 19.7923 13.8527 19.8977C13.9582 20.0032 14.1013 20.0625 14.2505 20.0625C14.3997 20.0625 14.5427 20.0032 14.6482 19.8977C14.7537 19.7923 14.813 19.6492 14.813 19.5V12.5625H20.392L18.353 14.6025C18.2977 14.654 18.2534 14.7161 18.2226 14.7851C18.1919 14.8541 18.1754 14.9286 18.174 15.0041C18.1727 15.0796 18.1866 15.1547 18.2149 15.2247C18.2432 15.2947 18.2853 15.3584 18.3387 15.4118C18.3921 15.4652 18.4557 15.5073 18.5258 15.5356C18.5958 15.5639 18.6708 15.5778 18.7464 15.5764C18.8219 15.5751 18.8964 15.5586 18.9654 15.5278C19.0344 15.4971 19.0965 15.4528 19.148 15.3975L22.148 12.3975C22.2533 12.292 22.3125 12.1491 22.3125 12C22.3125 11.8509 22.2533 11.708 22.148 11.6025Z" fill="black"/>
</svg>
