<svg width="24" height="24" viewBox="0 0 24 24" fill="none" xmlns="http://www.w3.org/2000/svg">
<path d="M1.21882 10.2385L11.7188 16.2385C11.8043 16.2879 11.9013 16.3139 12.0001 16.3139C12.0988 16.3139 12.1958 16.2879 12.2813 16.2385L22.7813 10.2385C22.8674 10.1893 22.939 10.1182 22.9888 10.0325C23.0386 9.94668 23.0648 9.84926 23.0648 9.75008C23.0648 9.6509 23.0386 9.55348 22.9888 9.4677C22.939 9.38192 22.8674 9.31083 22.7813 9.26164L12.2813 3.26164C12.1958 3.21227 12.0988 3.18628 12.0001 3.18628C11.9013 3.18628 11.8043 3.21227 11.7188 3.26164L1.21882 9.26164C1.1327 9.31083 1.06111 9.38192 1.01132 9.4677C0.961535 9.55348 0.935311 9.6509 0.935311 9.75008C0.935311 9.84926 0.961535 9.94668 1.01132 10.0325C1.06111 10.1182 1.1327 10.1893 1.21882 10.2385ZM12.0001 4.39789L21.3666 9.75008L12.0001 15.1023L2.63351 9.75008L12.0001 4.39789ZM22.9885 13.2188C23.0252 13.283 23.0489 13.3537 23.0583 13.427C23.0677 13.5003 23.0625 13.5747 23.0431 13.6461C23.0237 13.7174 22.9904 13.7841 22.9451 13.8426C22.8999 13.901 22.8436 13.95 22.7794 13.9866L12.2794 19.9866C12.1939 20.036 12.0969 20.062 11.9982 20.062C11.8995 20.062 11.8025 20.036 11.7169 19.9866L1.21695 13.9866C1.0874 13.912 0.9928 13.7891 0.953945 13.6447C0.91509 13.5004 0.935167 13.3465 1.00976 13.217C1.08435 13.0874 1.20735 12.9928 1.35169 12.954C1.49604 12.9151 1.6499 12.9352 1.77945 13.0098L11.9982 18.8504L22.2169 13.0098C22.2812 12.9725 22.3523 12.9483 22.426 12.9386C22.4997 12.9289 22.5746 12.934 22.6463 12.9534C22.7181 12.9728 22.7853 13.0063 22.844 13.0519C22.9027 13.0974 22.9518 13.1542 22.9885 13.2188Z" fill="black"/>
</svg>
