<svg width="24" height="24" viewBox="0 0 24 24" fill="none" xmlns="http://www.w3.org/2000/svg">
<path d="M18.6481 12.0001L21.4888 7.03131C21.5382 6.94571 21.5642 6.84859 21.5641 6.74974C21.5641 6.65089 21.538 6.5538 21.4884 6.46825C21.4389 6.3827 21.3677 6.31171 21.282 6.26244C21.1963 6.21316 21.0992 6.18734 21.0003 6.18756H15.3275L12.4888 1.21881C12.4396 1.13269 12.3685 1.06111 12.2827 1.01132C12.1969 0.961527 12.0995 0.935303 12.0003 0.935303C11.9011 0.935303 11.8037 0.961527 11.7179 1.01132C11.6322 1.06111 11.5611 1.13269 11.5119 1.21881L8.6722 6.18756H3.00032C2.90147 6.18734 2.80431 6.21316 2.71862 6.26244C2.63293 6.31171 2.56173 6.3827 2.51221 6.46825C2.46269 6.5538 2.43658 6.65089 2.43652 6.74974C2.43647 6.84859 2.46246 6.94571 2.51189 7.03131L5.35064 12.0001L2.51189 16.9688C2.46246 17.0544 2.43647 17.1515 2.43652 17.2504C2.43658 17.3492 2.46269 17.4463 2.51221 17.5319C2.56173 17.6174 2.63293 17.6884 2.71862 17.7377C2.80431 17.787 2.90147 17.8128 3.00032 17.8126H8.6722L11.5119 22.7813C11.5611 22.8674 11.6322 22.939 11.7179 22.9888C11.8037 23.0386 11.9011 23.0648 12.0003 23.0648C12.0995 23.0648 12.1969 23.0386 12.2827 22.9888C12.3685 22.939 12.4396 22.8674 12.4888 22.7813L15.3275 17.8126H21.0003C21.0992 17.8128 21.1963 17.787 21.282 17.7377C21.3677 17.6884 21.4389 17.6174 21.4884 17.5319C21.538 17.4463 21.5641 17.3492 21.5641 17.2504C21.5642 17.1515 21.5382 17.0544 21.4888 16.9688L18.6481 12.0001ZM20.0309 7.31256L18.0003 10.8666L15.9697 7.31256H20.0309ZM17.3525 12.0001L14.675 16.6876H9.3247L6.6472 12.0001L9.3247 7.31256H14.675L17.3525 12.0001ZM12.0003 2.6335L14.0319 6.18756H9.96782L12.0003 2.6335ZM3.9697 7.31256H8.02907L6.00032 10.8666L3.9697 7.31256ZM3.9697 16.6801L6.00032 13.1335L8.02907 16.6876L3.9697 16.6801ZM12.0003 21.3666L9.96782 17.8126H14.0319L12.0003 21.3666ZM15.9697 16.6876L18.0003 13.1335L20.0309 16.6876H15.9697Z" fill="black"/>
</svg>
