<svg width="24" height="24" viewBox="0 0 24 24" fill="none" xmlns="http://www.w3.org/2000/svg">
<path d="M21.4512 10.771L15.4221 8.57814L13.2293 2.54908C13.1376 2.29679 12.9704 2.07885 12.7505 1.92485C12.5307 1.77084 12.2687 1.68823 12.0003 1.68823C11.7318 1.68823 11.4699 1.77084 11.25 1.92485C11.0301 2.07885 10.8629 2.29679 10.7712 2.54908L8.57838 8.57814L2.54932 10.771C2.29704 10.8627 2.0791 11.0299 1.92509 11.2497C1.77109 11.4696 1.68848 11.7316 1.68848 12C1.68848 12.2685 1.77109 12.5304 1.92509 12.7503C2.0791 12.9702 2.29704 13.1373 2.54932 13.2291L8.57838 15.4219L10.7712 21.451C10.8629 21.7032 11.0301 21.9212 11.25 22.0752C11.4699 22.2292 11.7318 22.3118 12.0003 22.3118C12.2687 22.3118 12.5307 22.2292 12.7505 22.0752C12.9704 21.9212 13.1376 21.7032 13.2293 21.451L15.4221 15.4219L21.4512 13.2291C21.7035 13.1373 21.9214 12.9702 22.0754 12.7503C22.2294 12.5304 22.312 12.2685 22.312 12C22.312 11.7316 22.2294 11.4696 22.0754 11.2497C21.9214 11.0299 21.7035 10.8627 21.4512 10.771ZM21.0668 12.1772L14.7912 14.4591C14.7139 14.4872 14.6437 14.5319 14.5856 14.59C14.5274 14.6482 14.4827 14.7183 14.4546 14.7956L12.1728 21.0713C12.1583 21.1051 12.1343 21.1339 12.1036 21.1542C12.073 21.1745 12.037 21.1853 12.0003 21.1853C11.9635 21.1853 11.9275 21.1745 11.8969 21.1542C11.8662 21.1339 11.8422 21.1051 11.8278 21.0713L9.54589 14.7956C9.5178 14.7183 9.47311 14.6482 9.41496 14.59C9.35681 14.5319 9.28661 14.4872 9.20932 14.4591L2.9337 12.1725C2.89987 12.1581 2.87103 12.1341 2.85076 12.1034C2.83049 12.0727 2.81968 12.0368 2.81968 12C2.81968 11.9633 2.83049 11.9273 2.85076 11.8966C2.87103 11.866 2.89987 11.8419 2.9337 11.8275L9.20932 9.54564C9.28661 9.51755 9.35681 9.47286 9.41496 9.41471C9.47311 9.35656 9.5178 9.28637 9.54589 9.20908L11.8278 2.93345C11.8422 2.89963 11.8662 2.87079 11.8969 2.85052C11.9275 2.83025 11.9635 2.81944 12.0003 2.81944C12.037 2.81944 12.073 2.83025 12.1036 2.85052C12.1343 2.87079 12.1583 2.89963 12.1728 2.93345L14.4546 9.20908C14.4827 9.28637 14.5274 9.35656 14.5856 9.41471C14.6437 9.47286 14.7139 9.51755 14.7912 9.54564L21.0668 11.8275C21.1006 11.8419 21.1295 11.866 21.1498 11.8966C21.17 11.9273 21.1808 11.9633 21.1808 12C21.1808 12.0368 21.17 12.0727 21.1498 12.1034C21.1295 12.1341 21.1006 12.1581 21.0668 12.1725V12.1772Z" fill="black"/>
</svg>
