<svg width="24" height="24" viewBox="0 0 24 24" fill="none" xmlns="http://www.w3.org/2000/svg">
<path d="M21.8439 10.6238L21.3695 11.0325C21.3142 11.0844 21.2489 11.1245 21.1777 11.1505C21.1065 11.1765 21.0307 11.1878 20.955 11.1838C20.8793 11.1797 20.8052 11.1604 20.7371 11.127C20.6691 11.0936 20.6084 11.0468 20.5589 10.9894C20.5094 10.932 20.472 10.8651 20.449 10.7929C20.426 10.7207 20.4178 10.6445 20.4249 10.569C20.4321 10.4936 20.4544 10.4203 20.4906 10.3537C20.5268 10.287 20.576 10.2284 20.6355 10.1813L21.1098 9.77254C21.1454 9.74318 21.1709 9.70353 21.183 9.65904C21.1951 9.61455 21.1931 9.56741 21.1773 9.5241C21.1651 9.48133 21.1398 9.44344 21.105 9.41571C21.0703 9.38798 21.0277 9.3718 20.9833 9.36942L20.207 9.3066C20.0578 9.29417 19.9197 9.22299 19.823 9.10871C19.7263 8.99443 19.679 8.84641 19.6914 8.69723C19.7038 8.54804 19.775 8.40991 19.8893 8.31321C20.0036 8.21651 20.1516 8.16917 20.3008 8.1816L21.0761 8.24442C21.3422 8.26323 21.5965 8.36174 21.8058 8.52711C22.0152 8.69249 22.1699 8.91707 22.2498 9.1716C22.3339 9.42662 22.3402 9.70089 22.2679 9.9595C22.1957 10.2181 22.048 10.4494 21.8439 10.6238ZM16.3642 14.2641L16.7467 15.8785C16.7758 16.0016 16.8456 16.1114 16.9448 16.19C17.0439 16.2686 17.1667 16.3114 17.2933 16.3116C17.3372 16.3119 17.381 16.3065 17.4236 16.2957C17.4955 16.2787 17.5633 16.2477 17.6233 16.2045C17.6832 16.1613 17.734 16.1067 17.7729 16.0438C17.8117 15.981 17.8377 15.9111 17.8496 15.8382C17.8614 15.7652 17.8587 15.6907 17.8417 15.6188L17.538 14.3372L18.3695 13.62C18.4255 13.5718 18.4714 13.513 18.5046 13.447C18.5378 13.381 18.5577 13.3091 18.5632 13.2354C18.5686 13.1617 18.5595 13.0876 18.5363 13.0175C18.5131 12.9473 18.4764 12.8824 18.4281 12.8264C18.3798 12.7705 18.321 12.7246 18.255 12.6914C18.189 12.6581 18.1171 12.6382 18.0434 12.6328C17.9698 12.6274 17.8957 12.6365 17.8255 12.6597C17.7554 12.6828 17.6905 12.7196 17.6345 12.7679L16.5442 13.7054C16.4653 13.7727 16.4066 13.8605 16.3745 13.9591C16.3424 14.0577 16.3382 14.1633 16.3623 14.2641H16.3642ZM18.7295 19.3688C18.7144 19.295 18.6846 19.225 18.6419 19.1629C18.5992 19.1008 18.5445 19.048 18.481 19.0075C18.4175 18.9669 18.3465 18.9396 18.2722 18.927C18.1979 18.9145 18.1219 18.917 18.0486 18.9344C17.9753 18.9518 17.9062 18.9837 17.8455 19.0283C17.7848 19.0729 17.7336 19.1293 17.6951 19.194C17.6566 19.2587 17.6314 19.3306 17.6212 19.4052C17.6109 19.4798 17.6158 19.5558 17.6355 19.6285L17.7592 20.1507C17.7714 20.1951 17.7694 20.2422 17.7534 20.2855C17.7374 20.3287 17.7083 20.3658 17.6701 20.3916C17.6355 20.4184 17.5935 20.4336 17.5498 20.4353C17.5061 20.437 17.4629 20.425 17.4264 20.401L16.7973 20.0138C16.7344 19.9751 16.6645 19.9491 16.5916 19.9374C16.5186 19.9257 16.4441 19.9285 16.3722 19.9456C16.3004 19.9627 16.2326 19.9938 16.1727 20.0371C16.1129 20.0804 16.0621 20.1351 16.0234 20.198C15.9847 20.2609 15.9588 20.3308 15.9471 20.4038C15.9354 20.4767 15.9381 20.5513 15.9552 20.6231C15.9724 20.695 16.0034 20.7628 16.0468 20.8226C16.0901 20.8825 16.1447 20.9332 16.2076 20.9719L16.8376 21.3591C17.0653 21.4984 17.3291 21.5671 17.5958 21.5564C17.8625 21.5457 18.12 21.4562 18.3358 21.2991C18.5516 21.1421 18.7159 20.9245 18.808 20.674C18.9001 20.4235 18.9159 20.1514 18.8533 19.8919L18.7295 19.3688ZM16.4551 9.00004L14.9889 8.88192C14.8856 8.87353 14.7867 8.83679 14.703 8.77575C14.6193 8.71471 14.5541 8.63173 14.5145 8.53598L12.5626 3.81567V17.4094L13.3492 17.8922C13.4122 17.931 13.4669 17.9817 13.5103 18.0416C13.5536 18.1014 13.5848 18.1693 13.6019 18.2412C13.6191 18.3131 13.6219 18.3877 13.6102 18.4607C13.5985 18.5336 13.5726 18.6036 13.5339 18.6666C13.4952 18.7296 13.4444 18.7843 13.3846 18.8277C13.3247 18.871 13.2569 18.9022 13.185 18.9193C13.113 18.9365 13.0385 18.9393 12.9655 18.9276C12.8925 18.9159 12.8225 18.89 12.7595 18.8513L12.0001 18.3825L7.16452 21.3591C6.93687 21.4984 6.67302 21.5671 6.40634 21.5564C6.13966 21.5457 5.88214 21.4562 5.66636 21.2991C5.45058 21.1421 5.28624 20.9245 5.19413 20.674C5.10202 20.4235 5.08627 20.1514 5.14889 19.8919L6.46139 14.3372L2.15639 10.6238C1.95346 10.4493 1.80684 10.2186 1.73508 9.96073C1.66332 9.7029 1.66965 9.42958 1.75327 9.17535C1.83362 8.92088 1.98874 8.69651 2.19843 8.53147C2.40813 8.36642 2.66267 8.26835 2.92889 8.25004L8.57733 7.79348L10.7542 2.52473C10.8558 2.27777 11.0284 2.06656 11.2503 1.91793C11.4721 1.7693 11.7331 1.68994 12.0001 1.68994C12.2672 1.68994 12.5282 1.7693 12.75 1.91793C12.9718 2.06656 13.1445 2.27777 13.2461 2.52473L15.423 7.79348L16.548 7.88723C16.6971 7.89966 16.8353 7.97085 16.932 8.08513C17.0287 8.19941 17.076 8.34742 17.0636 8.4966C17.0511 8.64579 16.98 8.78392 16.8657 8.88062C16.7514 8.97732 16.6034 9.02466 16.4542 9.01223L16.4551 9.00004ZM11.4376 17.4113V3.81567L9.48576 8.53973C9.44622 8.63548 9.381 8.71846 9.29729 8.7795C9.21359 8.84054 9.11465 8.87728 9.01139 8.88567L3.01889 9.36942C2.97447 9.3718 2.9319 9.38798 2.89711 9.41571C2.86232 9.44344 2.83706 9.48133 2.82483 9.5241C2.80904 9.56741 2.80705 9.61455 2.81913 9.65904C2.83122 9.70353 2.85679 9.74318 2.89233 9.77254L7.45795 13.71C7.53584 13.7772 7.5938 13.8645 7.62554 13.9624C7.65727 14.0602 7.66157 14.1649 7.63795 14.265L6.24295 20.1507C6.2312 20.1956 6.23393 20.2431 6.25077 20.2863C6.26761 20.3296 6.29768 20.3664 6.3367 20.3916C6.3713 20.4184 6.41338 20.4336 6.45708 20.4353C6.50077 20.437 6.54391 20.425 6.58045 20.401L11.4376 17.4113Z" fill="black"/>
</svg>
