<svg width="24" height="24" viewBox="0 0 24 24" fill="none" xmlns="http://www.w3.org/2000/svg">
<path d="M16.2107 7.7887C15.9886 6.46429 15.406 5.22664 14.5268 4.21147C13.6477 3.19631 12.506 2.44284 11.2269 2.03369C9.94786 1.62454 8.58082 1.57552 7.27572 1.892C5.97063 2.20848 4.77789 2.87823 3.82831 3.82782C2.87872 4.7774 2.20896 5.97014 1.89248 7.27524C1.57601 8.58033 1.62503 9.94737 2.03418 11.2264C2.44332 12.5055 3.1968 13.6472 4.21196 14.5263C5.22712 15.4055 6.46477 15.9881 7.78918 16.2103C8.01137 17.5347 8.59397 18.7723 9.4731 19.7875C10.3522 20.8026 11.4939 21.5561 12.773 21.9653C14.0521 22.3744 15.4191 22.4234 16.7242 22.107C18.0293 21.7905 19.222 21.1207 20.1716 20.1711C21.1212 19.2216 21.791 18.0288 22.1074 16.7237C22.4239 15.4186 22.3749 14.0516 21.9658 12.7725C21.5566 11.4934 20.8031 10.3517 19.788 9.47261C18.7728 8.59348 17.5352 8.01088 16.2107 7.7887ZM21.1879 14.9999C21.1876 15.2791 21.1682 15.5578 21.1298 15.8343L16.0898 10.7934C16.2382 10.2071 16.3132 9.60469 16.3129 8.99995C16.3129 8.98401 16.3129 8.96807 16.3129 8.95213C17.6956 9.24871 18.9344 10.0114 19.8219 11.1123C20.7094 12.2133 21.1917 13.5858 21.1879 14.9999ZM13.7545 14.549L18.9576 19.7521C18.4082 20.2096 17.7836 20.5683 17.1117 20.8124L11.9742 15.674C12.6189 15.387 13.2186 15.0081 13.7545 14.549ZM14.5495 13.754C15.0087 13.2178 15.3876 12.6178 15.6745 11.9728L20.8129 17.1112C20.5677 17.7834 20.2076 18.408 19.7489 18.9571L14.5495 13.754ZM2.81293 8.99995C2.81293 7.77617 3.17582 6.57988 3.85572 5.56235C4.53561 4.54483 5.50196 3.75176 6.63258 3.28344C7.7632 2.81512 9.0073 2.69259 10.2076 2.93134C11.4078 3.17008 12.5103 3.75938 13.3757 4.62472C14.241 5.49006 14.8303 6.59257 15.069 7.79282C15.3078 8.99308 15.1853 10.2372 14.7169 11.3678C14.2486 12.4984 13.4556 13.4648 12.438 14.1447C11.4205 14.8246 10.2242 15.1874 9.00043 15.1874C7.36002 15.1855 5.78735 14.5329 4.6274 13.373C3.46745 12.213 2.81492 10.6404 2.81293 8.99995ZM8.95262 16.3124H9.00043C9.60518 16.3127 10.2076 16.2377 10.7939 16.0893L15.8348 21.1293C14.2916 21.3426 12.7248 20.9647 11.4485 20.0714C10.1722 19.1781 9.28066 17.8354 8.95262 16.3124Z" fill="black"/>
</svg>
