<svg width="24" height="24" viewBox="0 0 24 24" fill="none" xmlns="http://www.w3.org/2000/svg">
<path d="M8.06272 16.8751C8.06272 17.0605 8.00774 17.2417 7.90472 17.3959C7.80171 17.5501 7.65529 17.6703 7.48399 17.7412C7.31268 17.8122 7.12418 17.8307 6.94232 17.7946C6.76047 17.7584 6.59342 17.6691 6.46231 17.538C6.3312 17.4069 6.24191 17.2398 6.20573 17.058C6.16956 16.8761 6.18813 16.6876 6.25908 16.5163C6.33004 16.345 6.4502 16.1986 6.60437 16.0956C6.75855 15.9926 6.9398 15.9376 7.12522 15.9376C7.37386 15.9376 7.61232 16.0363 7.78813 16.2122C7.96395 16.388 8.06272 16.6264 8.06272 16.8751ZM22.3127 14.6429V19.5001C22.3127 19.8482 22.1744 20.182 21.9283 20.4281C21.6822 20.6743 21.3483 20.8126 21.0002 20.8126H7.12522C6.88703 20.8127 6.64928 20.7923 6.4146 20.7516C5.39092 20.5647 4.48289 19.9801 3.88895 19.1256C3.295 18.2711 3.06346 17.2163 3.24491 16.1916L5.58866 2.7732C5.61786 2.60317 5.68043 2.4406 5.77277 2.29488C5.86511 2.14915 5.98538 2.02315 6.12666 1.92414C6.26794 1.82514 6.42742 1.75508 6.59591 1.71802C6.7644 1.68095 6.93856 1.67762 7.10835 1.7082L12.2337 2.61945C12.5753 2.68113 12.8787 2.87567 13.0772 3.1605C13.2758 3.44532 13.3534 3.79722 13.293 4.13913L12.1052 10.9304L18.7615 8.51632C19.0874 8.39861 19.4466 8.41455 19.7608 8.56067C20.075 8.7068 20.3187 8.97124 20.4387 9.29632L22.2283 14.1919C22.2799 14.3369 22.3084 14.4891 22.3127 14.6429ZM9.83741 17.3616L12.1877 3.94507C12.1965 3.89663 12.1859 3.84667 12.1582 3.80597C12.1305 3.76528 12.0879 3.73712 12.0396 3.72757L6.91147 2.81257H6.8796C6.84355 2.81276 6.80847 2.82424 6.77928 2.84538C6.75907 2.85963 6.74186 2.87773 6.72867 2.89864C6.71548 2.91956 6.70655 2.94288 6.70241 2.96726L4.35866 16.3857C4.22846 17.117 4.39286 17.8702 4.81599 18.4807C5.23912 19.0913 5.88661 19.5096 6.6171 19.6444C6.97412 19.7082 7.34024 19.7005 7.69427 19.6218C8.0483 19.5432 8.38321 19.395 8.6796 19.186C8.98346 18.974 9.24214 18.7037 9.44059 18.3908C9.63903 18.078 9.77329 17.7287 9.83553 17.3635L9.83741 17.3616ZM10.6108 18.5963L21.0668 14.8126C21.1123 14.7959 21.1496 14.7623 21.1708 14.7188C21.181 14.6976 21.1867 14.6745 21.1877 14.651C21.1886 14.6274 21.1848 14.604 21.1765 14.5819L19.3868 9.68726C19.3693 9.64171 19.3347 9.60477 19.2904 9.58429C19.2462 9.56381 19.1956 9.5614 19.1496 9.57757L11.8812 12.211L10.9437 17.5613C10.8814 17.9207 10.7694 18.2697 10.6108 18.5982V18.5963ZM21.1877 15.9629L10.908 19.6876H21.0002C21.0499 19.6876 21.0976 19.6678 21.1328 19.6327C21.168 19.5975 21.1877 19.5498 21.1877 19.5001V15.9629Z" fill="black"/>
</svg>
