<svg width="24" height="24" viewBox="0 0 24 24" fill="none" xmlns="http://www.w3.org/2000/svg">
<path d="M22.1479 6.35239L17.6479 1.85238C17.5412 1.75302 17.4002 1.69893 17.2545 1.7015C17.1087 1.70407 16.9697 1.76311 16.8666 1.86617C16.7636 1.96923 16.7046 2.10827 16.702 2.25399C16.6994 2.39972 16.7535 2.54075 16.8529 2.64738L18.7044 4.49988L15.7504 7.45395L12.3979 4.10238C12.3464 4.04712 12.2843 4.00279 12.2153 3.97205C12.1463 3.9413 12.0718 3.92477 11.9963 3.92344C11.9207 3.92211 11.8457 3.936 11.7757 3.96429C11.7056 3.99258 11.642 4.03469 11.5886 4.08811C11.5352 4.14152 11.4931 4.20515 11.4648 4.27519C11.4365 4.34523 11.4226 4.42025 11.4239 4.49578C11.4252 4.5713 11.4418 4.64579 11.4725 4.71479C11.5033 4.78379 11.5476 4.84589 11.6029 4.89739L12.3294 5.62488L4.32223 13.6321C4.20011 13.7538 4.10328 13.8984 4.03731 14.0577C3.97134 14.217 3.93754 14.3878 3.93786 14.5602V19.2664L1.85286 21.3524C1.79759 21.4039 1.75327 21.466 1.72252 21.535C1.69178 21.604 1.67525 21.6785 1.67392 21.754C1.67258 21.8295 1.68648 21.9045 1.71477 21.9746C1.74306 22.0446 1.78517 22.1082 1.83858 22.1617C1.89199 22.2151 1.95562 22.2572 2.02566 22.2855C2.0957 22.3138 2.17072 22.3277 2.24625 22.3263C2.32178 22.325 2.39626 22.3085 2.46526 22.2777C2.53426 22.247 2.59636 22.2027 2.64786 22.1474L4.7338 20.0624H9.44005C9.61246 20.0627 9.78323 20.0289 9.94252 19.9629C10.1018 19.897 10.2465 19.8001 10.3682 19.678L18.3754 11.6708L19.1029 12.3974C19.2095 12.4967 19.3505 12.5508 19.4963 12.5483C19.642 12.5457 19.781 12.4867 19.8841 12.3836C19.9871 12.2805 20.0462 12.1415 20.0487 11.9958C20.0513 11.8501 19.9972 11.709 19.8979 11.6024L16.5463 8.24988L19.5004 5.29582L21.3529 7.14738C21.4595 7.24674 21.6005 7.30084 21.7463 7.29827C21.892 7.2957 22.031 7.23666 22.1341 7.1336C22.2371 7.03054 22.2962 6.8915 22.2987 6.74578C22.3013 6.60005 22.2472 6.45902 22.1479 6.35239ZM9.57223 18.8821C9.53723 18.9173 9.4897 18.9372 9.44005 18.9374H5.06286V14.5602C5.06307 14.5105 5.08296 14.463 5.11817 14.428L6.93786 12.6083L8.97786 14.6474C9.02936 14.7027 9.09146 14.747 9.16046 14.7777C9.22945 14.8085 9.30394 14.825 9.37947 14.8263C9.45499 14.8277 9.53002 14.8138 9.60006 14.7855C9.6701 14.7572 9.73372 14.7151 9.78714 14.6617C9.84055 14.6082 9.88266 14.5446 9.91095 14.4746C9.93924 14.4045 9.95314 14.3295 9.9518 14.254C9.95047 14.1785 9.93394 14.104 9.9032 14.035C9.87245 13.966 9.82812 13.9039 9.77286 13.8524L7.7338 11.8124L9.18786 10.3583L11.2279 12.3974C11.3345 12.4967 11.4755 12.5508 11.6213 12.5483C11.767 12.5457 11.906 12.4867 12.0091 12.3836C12.1121 12.2805 12.1712 12.1415 12.1737 11.9958C12.1763 11.8501 12.1222 11.709 12.0229 11.6024L9.9838 9.56238L13.1254 6.42082L17.5794 10.8749L9.57223 18.8821Z" fill="black"/>
</svg>
