<svg width="24" height="24" viewBox="0 0 24 24" fill="none" xmlns="http://www.w3.org/2000/svg">
<path d="M23.1229 5.90625L18.2694 3.25688C18.187 3.21135 18.0945 3.18748 18.0004 3.1875H15.0004C14.8512 3.1875 14.7081 3.24676 14.6026 3.35225C14.4971 3.45774 14.4379 3.60082 14.4379 3.75C14.4379 4.39647 14.1811 5.01645 13.7239 5.47357C13.2668 5.93069 12.6468 6.1875 12.0004 6.1875C11.3539 6.1875 10.7339 5.93069 10.2768 5.47357C9.81966 5.01645 9.56286 4.39647 9.56286 3.75C9.56286 3.60082 9.50359 3.45774 9.3981 3.35225C9.29262 3.24676 9.14954 3.1875 9.00036 3.1875H6.00036C5.90593 3.18732 5.813 3.2112 5.73036 3.25688L0.877858 5.90625C0.575955 6.06558 0.349451 6.338 0.2479 6.66392C0.146349 6.98983 0.178019 7.34269 0.335983 7.64531L2.14348 11.0963C2.25903 11.314 2.43209 11.496 2.64383 11.6223C2.85557 11.7485 3.09789 11.8143 3.34442 11.8125H5.43786V19.5C5.43786 19.8481 5.57614 20.1819 5.82228 20.4281C6.06842 20.6742 6.40226 20.8125 6.75036 20.8125H17.2504C17.5985 20.8125 17.9323 20.6742 18.1784 20.4281C18.4246 20.1819 18.5629 19.8481 18.5629 19.5V11.8125H20.6572C20.9038 11.8143 21.1461 11.7485 21.3578 11.6223C21.5696 11.496 21.7426 11.314 21.8582 11.0963L23.6657 7.64531C23.8236 7.34258 23.8551 6.98962 23.7534 6.6637C23.6516 6.33777 23.4249 6.06542 23.1229 5.90625ZM3.34161 10.6875C3.30045 10.6889 3.25969 10.6791 3.22369 10.6591C3.18768 10.6391 3.1578 10.6097 3.13723 10.5741L1.33255 7.125C1.32237 7.10434 1.31649 7.08184 1.31524 7.05885C1.314 7.03585 1.31742 7.01284 1.3253 6.99121C1.33319 6.96957 1.34537 6.94976 1.36111 6.93295C1.37686 6.91615 1.39584 6.90271 1.41692 6.89344L5.43786 4.69781V10.6875H3.34161ZM17.4379 19.5C17.4379 19.5497 17.4181 19.5974 17.3829 19.6326C17.3478 19.6677 17.3001 19.6875 17.2504 19.6875H6.75036C6.70063 19.6875 6.65294 19.6677 6.61777 19.6326C6.58261 19.5974 6.56286 19.5497 6.56286 19.5V4.3125H8.48286C8.61948 5.14637 9.04805 5.90452 9.69204 6.45158C10.336 6.99864 11.1535 7.29899 11.9985 7.29899C12.8435 7.29899 13.6609 6.99864 14.3049 6.45158C14.9489 5.90452 15.3775 5.14637 15.5141 4.3125H17.4379V19.5ZM22.6691 7.125L20.8616 10.575C20.841 10.6107 20.8112 10.6401 20.7752 10.6601C20.7392 10.68 20.6984 10.6899 20.6572 10.6884H18.5629V4.69781L22.5847 6.89156C22.6059 6.90101 22.6249 6.91465 22.6406 6.93164C22.6564 6.94864 22.6685 6.96865 22.6763 6.99046C22.6841 7.01228 22.6874 7.03544 22.686 7.05856C22.6846 7.08169 22.6785 7.10429 22.6682 7.125H22.6691Z" fill="black"/>
</svg>
