<svg width="24" height="24" viewBox="0 0 24 24" fill="none" xmlns="http://www.w3.org/2000/svg">
<path d="M23.7887 15.5888L21.699 8.62504C21.6195 8.35356 21.4538 8.1153 21.2271 7.94619C21.0003 7.77709 20.7247 7.6863 20.4418 7.68754H19.4996C19.3504 7.68754 19.2073 7.7468 19.1019 7.85229C18.9964 7.95778 18.9371 8.10086 18.9371 8.25004C18.9371 8.39923 18.9964 8.5423 19.1019 8.64779C19.2073 8.75328 19.3504 8.81254 19.4996 8.81254H20.4418C20.4826 8.81181 20.5225 8.82441 20.5555 8.84844C20.5885 8.87247 20.6128 8.9066 20.6246 8.94567L22.4996 15.1875H19.1677L17.199 8.62504C17.1195 8.35356 16.9538 8.1153 16.7271 7.94619C16.5003 7.77709 16.2247 7.6863 15.9418 7.68754H14.9996C14.8504 7.68754 14.7073 7.7468 14.6019 7.85229C14.4964 7.95778 14.4371 8.10086 14.4371 8.25004C14.4371 8.39923 14.4964 8.5423 14.6019 8.64779C14.7073 8.75328 14.8504 8.81254 14.9996 8.81254H15.9418C15.9826 8.81181 16.0225 8.82441 16.0555 8.84844C16.0885 8.87247 16.1128 8.9066 16.1246 8.94567L17.9996 15.1875H14.6677L12.699 8.62504C12.6195 8.35356 12.4538 8.1153 12.2271 7.94619C12.0003 7.77709 11.7247 7.6863 11.4418 7.68754H3.5621C3.27842 7.68528 3.00174 7.77559 2.77402 7.94478C2.5463 8.11396 2.37996 8.35279 2.30023 8.62504L0.213354 15.5813V15.586V15.6C0.209352 15.612 0.206219 15.6242 0.203979 15.6366C0.203619 15.6381 0.203619 15.6398 0.203979 15.6413C0.188011 15.7223 0.190072 15.8058 0.210015 15.8859C0.229957 15.9661 0.267292 16.0408 0.31937 16.1049C0.371447 16.1689 0.43699 16.2208 0.511346 16.2567C0.585701 16.2925 0.667045 16.3116 0.749604 16.3125H23.2496C23.3373 16.3126 23.4237 16.2921 23.5021 16.2528C23.5804 16.2135 23.6485 16.1564 23.7009 16.086C23.7533 16.0157 23.7885 15.9342 23.8037 15.8478C23.819 15.7615 23.8138 15.6728 23.7887 15.5888ZM3.3746 8.94567C3.38664 8.90581 3.4116 8.87109 3.44555 8.84699C3.4795 8.82288 3.52051 8.81076 3.5621 8.81254H11.4465C11.4866 8.81288 11.5256 8.82609 11.5576 8.85022C11.5897 8.87436 11.6132 8.90814 11.6246 8.9466L13.4996 15.1875H1.50523L3.3746 8.94567Z" fill="black"/>
</svg>
