<svg width="24" height="24" viewBox="0 0 24 24" fill="none" xmlns="http://www.w3.org/2000/svg">
<path d="M22.9686 11.6878L18.6908 5.27156C18.5709 5.09183 18.4085 4.94449 18.2179 4.8426C18.0274 4.74071 17.8147 4.68744 17.5986 4.6875H2.99986C2.89796 4.68735 2.79793 4.71488 2.71046 4.76716C2.62299 4.81943 2.55136 4.89449 2.50323 4.9843C2.4551 5.07412 2.43227 5.17532 2.43718 5.2771C2.44209 5.37889 2.47455 5.47742 2.53111 5.56219L6.82392 12L2.53111 18.4378C2.47455 18.5226 2.44209 18.6211 2.43718 18.7229C2.43227 18.8247 2.4551 18.9259 2.50323 19.0157C2.55136 19.1055 2.62299 19.1806 2.71046 19.2328C2.79793 19.2851 2.89796 19.3127 2.99986 19.3125H17.5986C17.8147 19.3126 18.0274 19.2593 18.2179 19.1574C18.4085 19.0555 18.5709 18.9082 18.6908 18.7284L22.9686 12.3122C23.0303 12.2198 23.0632 12.1111 23.0632 12C23.0632 11.8889 23.0303 11.7802 22.9686 11.6878ZM17.7552 18.1041C17.7381 18.1297 17.7149 18.1507 17.6878 18.1652C17.6607 18.1798 17.6303 18.1874 17.5995 18.1875H4.0508L7.96861 12.3122C8.03028 12.2198 8.06319 12.1111 8.06319 12C8.06319 11.8889 8.03028 11.7802 7.96861 11.6878L4.0508 5.8125H17.5986C17.6294 5.81256 17.6597 5.8202 17.6869 5.83475C17.714 5.8493 17.7371 5.87032 17.7542 5.89594L21.8239 12L17.7552 18.1041Z" fill="black"/>
</svg>
