<svg width="24" height="24" viewBox="0 0 24 24" fill="none" xmlns="http://www.w3.org/2000/svg">
<path d="M22.6791 12.8831L13.3678 3.57188C13.2461 3.44975 13.1014 3.35292 12.9422 3.28695C12.7829 3.22098 12.6121 3.18718 12.4397 3.1875H3.75C3.60082 3.1875 3.45774 3.24677 3.35225 3.35225C3.24677 3.45774 3.1875 3.60082 3.1875 3.75V12.4397C3.18718 12.6121 3.22098 12.7829 3.28695 12.9422C3.35292 13.1014 3.44975 13.2461 3.57188 13.3678L12.8831 22.6791C13.005 22.801 13.1497 22.8976 13.3089 22.9636C13.4682 23.0296 13.6389 23.0635 13.8113 23.0635C13.9836 23.0635 14.1543 23.0296 14.3136 22.9636C14.4728 22.8976 14.6175 22.801 14.7394 22.6791L22.6791 14.7394C22.801 14.6175 22.8976 14.4728 22.9636 14.3136C23.0296 14.1543 23.0635 13.9836 23.0635 13.8113C23.0635 13.6389 23.0296 13.4682 22.9636 13.3089C22.8976 13.1497 22.801 13.005 22.6791 12.8831ZM21.8831 13.9434L13.9434 21.8831C13.926 21.9006 13.9053 21.9144 13.8826 21.9238C13.8598 21.9333 13.8354 21.9381 13.8108 21.9381C13.7861 21.9381 13.7617 21.9333 13.739 21.9238C13.7162 21.9144 13.6955 21.9006 13.6781 21.8831L4.36781 12.5719C4.3326 12.5369 4.31271 12.4893 4.3125 12.4397V4.3125H12.4397C12.4893 4.31271 12.5369 4.3326 12.5719 4.36781L21.8831 13.6781C21.9006 13.6955 21.9144 13.7162 21.9238 13.739C21.9333 13.7617 21.9381 13.7861 21.9381 13.8108C21.9381 13.8354 21.9333 13.8598 21.9238 13.8826C21.9144 13.9053 21.9006 13.926 21.8831 13.9434ZM8.8125 7.875C8.8125 8.06042 8.75752 8.24168 8.6545 8.39585C8.55149 8.55002 8.40507 8.67018 8.23377 8.74114C8.06246 8.8121 7.87396 8.83066 7.6921 8.79449C7.51025 8.75831 7.3432 8.66903 7.21209 8.53791C7.08098 8.4068 6.99169 8.23976 6.95552 8.0579C6.91934 7.87604 6.93791 7.68754 7.00887 7.51624C7.07982 7.34493 7.19998 7.19851 7.35416 7.0955C7.50833 6.99249 7.68958 6.9375 7.875 6.9375C8.12364 6.9375 8.3621 7.03627 8.53791 7.21209C8.71373 7.38791 8.8125 7.62636 8.8125 7.875Z" fill="black"/>
</svg>
