<svg width="24" height="24" viewBox="0 0 24 24" fill="none" xmlns="http://www.w3.org/2000/svg">
<path d="M20.6304 7.87503C21.6548 10.0154 21.8473 12.46 21.1706 14.7344C20.4938 17.0087 18.9962 18.9504 16.9683 20.1826C14.9404 21.4148 12.5271 21.8495 10.1967 21.4023C7.86635 20.9552 5.78528 19.658 4.35752 17.7628C2.92976 15.8675 2.25718 13.5093 2.47035 11.1461C2.68351 8.7828 3.76722 6.58304 5.51108 4.97386C7.25494 3.36468 9.53452 2.46089 11.9073 2.43795C14.28 2.41501 16.5767 3.27455 18.3513 4.84972L20.6013 2.59972C20.7072 2.4957 20.8498 2.43773 20.9982 2.43842C21.1466 2.43911 21.2887 2.49841 21.3936 2.6034C21.4984 2.70839 21.5576 2.85057 21.5581 2.99896C21.5586 3.14735 21.5005 3.28994 21.3963 3.39565L12.3963 12.3957C12.3442 12.4486 12.2821 12.4906 12.2137 12.5194C12.1453 12.5482 12.0718 12.5632 11.9975 12.5634C11.9233 12.5637 11.8497 12.5492 11.7811 12.5209C11.7124 12.4926 11.6501 12.451 11.5976 12.3984C11.5451 12.3459 11.5036 12.2835 11.4753 12.2148C11.4471 12.1461 11.4327 12.0726 11.4331 11.9983C11.4334 11.924 11.4485 11.8506 11.4774 11.7822C11.5062 11.7138 11.5484 11.6518 11.6013 11.5997L14.3566 8.84347C13.6387 8.30667 12.7592 8.03088 11.8633 8.06169C10.9675 8.0925 10.1089 8.42807 9.42962 9.01293C8.75031 9.59779 8.29089 10.3969 8.1273 11.2783C7.9637 12.1596 8.10573 13.0704 8.52989 13.8601C8.95406 14.6497 9.63497 15.2711 10.4601 15.6213C11.2852 15.9716 12.2052 16.0298 13.0679 15.7864C13.9306 15.543 14.6844 15.0125 15.2048 14.2826C15.7252 13.5527 15.9809 12.6671 15.9298 11.7722C15.9213 11.623 15.9725 11.4766 16.072 11.3651C16.1715 11.2537 16.3112 11.1863 16.4604 11.1778C16.6096 11.1694 16.756 11.2205 16.8675 11.3201C16.9789 11.4196 17.0463 11.5593 17.0548 11.7085C17.1222 12.8661 16.7903 14.0118 16.1143 14.9541C15.4384 15.8963 14.4594 16.5779 13.3412 16.885C12.223 17.192 11.0332 17.1058 9.97091 16.6408C8.9086 16.1758 8.03811 15.3603 7.50501 14.3304C6.97191 13.3006 6.80852 12.119 7.04215 10.9832C7.27577 9.84734 7.89226 8.82614 8.78852 8.09032C9.68479 7.35451 10.8065 6.9487 11.9661 6.94074C13.1257 6.93278 14.2528 7.32315 15.1591 8.04659L17.5535 5.65128C15.9803 4.27949 13.9541 3.54019 11.8671 3.57651C9.78017 3.61283 7.78091 4.42218 6.2564 5.84788C4.73189 7.27358 3.79059 9.21422 3.61472 11.2941C3.43884 13.3739 4.04092 15.4451 5.30438 17.1065C6.56784 18.768 8.40281 19.9015 10.454 20.2878C12.5053 20.674 14.6269 20.2855 16.4081 19.1973C18.1893 18.1092 19.5034 16.3988 20.096 14.3975C20.6886 12.3961 20.5176 10.246 19.616 8.36347C19.5839 8.29686 19.5653 8.22459 19.5612 8.15078C19.557 8.07698 19.5674 8.00308 19.5919 7.9333C19.6163 7.86353 19.6542 7.79924 19.7035 7.74413C19.7527 7.68901 19.8124 7.64413 19.879 7.61206C19.9456 7.57999 20.0178 7.56135 20.0917 7.55721C20.1655 7.55307 20.2394 7.5635 20.3091 7.58792C20.3789 7.61234 20.4432 7.65027 20.4983 7.69953C20.5534 7.74879 20.5983 7.80842 20.6304 7.87503Z" fill="black"/>
</svg>
