<svg width="24" height="24" viewBox="0 0 24 24" fill="none" xmlns="http://www.w3.org/2000/svg">
<path d="M20.25 6.18762H13.3575L16.8975 2.64762C16.9969 2.54098 17.051 2.39995 17.0484 2.25422C17.0458 2.1085 16.9868 1.96946 16.8837 1.8664C16.7807 1.76334 16.6416 1.70431 16.4959 1.70173C16.3502 1.69916 16.2091 1.75326 16.1025 1.85262L12 5.95418L7.8975 1.85262C7.846 1.79735 7.7839 1.75302 7.7149 1.72228C7.6459 1.69154 7.57142 1.675 7.49589 1.67367C7.42036 1.67234 7.34534 1.68623 7.2753 1.71452C7.20526 1.74281 7.14164 1.78492 7.08822 1.83834C7.03481 1.89175 6.9927 1.95538 6.96441 2.02542C6.93612 2.09546 6.92222 2.17048 6.92356 2.24601C6.92489 2.32153 6.94142 2.39602 6.97216 2.46502C7.00291 2.53402 7.04724 2.59612 7.1025 2.64762L10.6425 6.18762H3.75C3.4019 6.18762 3.06806 6.3259 2.82192 6.57204C2.57578 6.81818 2.4375 7.15202 2.4375 7.50012V18.7501C2.4375 19.0982 2.57578 19.4321 2.82192 19.6782C3.06806 19.9243 3.4019 20.0626 3.75 20.0626H20.25C20.5981 20.0626 20.9319 19.9243 21.1781 19.6782C21.4242 19.4321 21.5625 19.0982 21.5625 18.7501V7.50012C21.5625 7.15202 21.4242 6.81818 21.1781 6.57204C20.9319 6.3259 20.5981 6.18762 20.25 6.18762ZM3.5625 18.7501V7.50012C3.5625 7.45039 3.58225 7.4027 3.61742 7.36753C3.65258 7.33237 3.70027 7.31262 3.75 7.31262H13.6875V18.9376H3.75C3.70027 18.9376 3.65258 18.9179 3.61742 18.8827C3.58225 18.8475 3.5625 18.7998 3.5625 18.7501ZM20.4375 18.7501C20.4375 18.7998 20.4177 18.8475 20.3826 18.8827C20.3474 18.9179 20.2997 18.9376 20.25 18.9376H14.8125V7.31262H20.25C20.2997 7.31262 20.3474 7.33237 20.3826 7.36753C20.4177 7.4027 20.4375 7.45039 20.4375 7.50012V18.7501ZM18.5625 10.8751C18.5625 11.0605 18.5075 11.2418 18.4045 11.396C18.3015 11.5501 18.1551 11.6703 17.9838 11.7413C17.8125 11.8122 17.624 11.8308 17.4421 11.7946C17.2602 11.7584 17.0932 11.6691 16.9621 11.538C16.831 11.4069 16.7417 11.2399 16.7055 11.058C16.6693 10.8762 16.6879 10.6877 16.7589 10.5163C16.8298 10.345 16.95 10.1986 17.1042 10.0956C17.2583 9.9926 17.4396 9.93762 17.625 9.93762C17.8736 9.93762 18.1121 10.0364 18.2879 10.2122C18.4637 10.388 18.5625 10.6265 18.5625 10.8751ZM18.5625 15.3751C18.5625 15.5605 18.5075 15.7418 18.4045 15.896C18.3015 16.0501 18.1551 16.1703 17.9838 16.2413C17.8125 16.3122 17.624 16.3308 17.4421 16.2946C17.2602 16.2584 17.0932 16.1691 16.9621 16.038C16.831 15.9069 16.7417 15.7399 16.7055 15.558C16.6693 15.3762 16.6879 15.1877 16.7589 15.0164C16.8298 14.845 16.95 14.6986 17.1042 14.5956C17.2583 14.4926 17.4396 14.4376 17.625 14.4376C17.8736 14.4376 18.1121 14.5364 18.2879 14.7122C18.4637 14.888 18.5625 15.1265 18.5625 15.3751Z" fill="black"/>
</svg>
