<svg width="24" height="24" viewBox="0 0 24 24" fill="none" xmlns="http://www.w3.org/2000/svg">
<path d="M21.3351 2.59688C21.2446 2.51876 21.1346 2.46681 21.0168 2.44666C20.899 2.4265 20.7779 2.4389 20.6666 2.4825L1.66725 9.91782C1.43616 10.0082 1.24064 10.1712 1.11006 10.3822C0.979476 10.5932 0.920881 10.8409 0.943071 11.0881C0.965262 11.3352 1.06704 11.5685 1.23312 11.7529C1.3992 11.9373 1.62062 12.0628 1.86412 12.1106L6.93787 13.1072V18.75C6.93798 19.0116 7.01626 19.2672 7.16266 19.484C7.30906 19.7008 7.51691 19.8689 7.75953 19.9667C8.00215 20.0646 8.26846 20.0877 8.5243 20.0331C8.78014 19.9785 9.01383 19.8487 9.19538 19.6603L11.6929 17.07L15.591 20.4872C15.829 20.6978 16.1357 20.8141 16.4535 20.8144C16.5923 20.8141 16.7302 20.7922 16.8623 20.7497C17.0788 20.6812 17.2736 20.5571 17.4272 20.3898C17.5809 20.2225 17.688 20.0178 17.7379 19.7963L21.546 3.24094C21.5728 3.12455 21.5673 3.00307 21.5301 2.88957C21.4929 2.77608 21.4255 2.67488 21.3351 2.59688ZM2.06756 11.0034C2.06397 10.9938 2.06397 10.9831 2.06756 10.9734C2.0718 10.9702 2.07655 10.9676 2.08162 10.9659L17.0544 5.10469L7.37006 12.0422L2.08162 11.0072L2.06756 11.0034ZM8.38538 18.8784C8.35954 18.9053 8.3263 18.9238 8.2899 18.9316C8.2535 18.9395 8.21559 18.9363 8.18099 18.9225C8.1464 18.9087 8.11669 18.885 8.09566 18.8543C8.07462 18.8235 8.06321 18.7872 8.06287 18.75V13.8853L10.8463 16.3228L8.38538 18.8784ZM16.6419 19.5422C16.635 19.5739 16.6197 19.6031 16.5976 19.6269C16.5755 19.6506 16.5474 19.668 16.5163 19.6772C16.4846 19.6883 16.4504 19.6907 16.4174 19.6841C16.3844 19.6775 16.3538 19.6622 16.3288 19.6397L8.40412 12.6881L20.1566 4.26563L16.6419 19.5422Z" fill="black"/>
</svg>
