<svg width="24" height="24" viewBox="0 0 24 24" fill="none" xmlns="http://www.w3.org/2000/svg">
<path d="M18.7651 5.23875C17.4278 3.90128 15.7239 2.99042 13.869 2.62134C12.014 2.25226 10.0912 2.44156 8.34382 3.16528C6.59643 3.88901 5.10289 5.11466 4.05209 6.68723C3.00129 8.2598 2.44043 10.1087 2.44043 12C2.44043 13.8913 3.00129 15.7402 4.05209 17.3128C5.10289 18.8854 6.59643 20.111 8.34382 20.8347C10.0912 21.5584 12.014 21.7477 13.869 21.3787C15.7239 21.0096 17.4278 20.0987 18.7651 18.7613C19.6597 17.8771 20.3699 16.8242 20.8546 15.6636C21.3394 14.503 21.589 13.2578 21.589 12C21.589 10.7422 21.3394 9.49698 20.8546 8.33638C20.3699 7.17577 19.6597 6.12289 18.7651 5.23875ZM6.03103 6.03375C7.46601 4.59731 9.37261 3.7291 11.3982 3.58969C11.2585 5.61426 10.3883 7.5192 8.94947 8.95032C7.5172 10.389 5.61134 11.2588 3.58603 11.3981C3.72628 9.37336 4.59479 7.46782 6.03103 6.03375ZM3.58135 12.5278C5.90874 12.39 8.10425 11.4014 9.7501 9.75C11.4024 8.10738 12.3927 5.91441 12.5326 3.58875C14.5842 3.71294 16.5194 4.58367 17.973 6.03666C19.4267 7.48965 20.2984 9.42443 20.4235 11.4759C18.099 11.6214 15.9075 12.6101 14.2603 14.2567C12.613 15.9032 11.6234 18.0943 11.477 20.4188C9.42396 20.2956 7.48714 19.4248 6.03241 17.9709C4.57767 16.5171 3.70574 14.5808 3.58135 12.5278ZM17.9692 17.9653C16.534 19.4013 14.6274 20.2692 12.602 20.4084C12.7471 18.385 13.6169 16.4816 15.0518 15.0476C16.4867 13.6135 18.3906 12.7448 20.4142 12.6009C20.2741 14.626 19.4056 16.5319 17.9692 17.9663V17.9653Z" fill="black"/>
</svg>
