<svg width="24" height="24" viewBox="0 0 24 24" fill="none" xmlns="http://www.w3.org/2000/svg">
<path d="M10.875 12.42L4.125 18.42C4.01311 18.5194 3.86629 18.5703 3.71685 18.5616C3.56741 18.5528 3.42758 18.485 3.32812 18.3731C3.22867 18.2612 3.17773 18.1144 3.18652 17.9649C3.19531 17.8155 3.26311 17.6757 3.375 17.5762L9.65625 12L3.375 6.4209C3.26311 6.32144 3.19531 6.18161 3.18652 6.03217C3.17773 5.88272 3.22867 5.73591 3.32812 5.62402C3.42758 5.51213 3.56741 5.44434 3.71685 5.43555C3.86629 5.42675 4.01311 5.47769 4.125 5.57715L10.875 11.5771C10.9349 11.6299 10.9828 11.6948 11.0156 11.7676C11.0485 11.8403 11.0654 11.9192 11.0654 11.999C11.0654 12.0788 11.0485 12.1577 11.0156 12.2305C10.9828 12.3032 10.9349 12.3681 10.875 12.4209V12.42ZM20.25 17.4375H11.25C11.1008 17.4375 10.9577 17.4967 10.8523 17.6022C10.7468 17.7077 10.6875 17.8508 10.6875 18C10.6875 18.1491 10.7468 18.2922 10.8523 18.3977C10.9577 18.5032 11.1008 18.5625 11.25 18.5625H20.25C20.3992 18.5625 20.5423 18.5032 20.6477 18.3977C20.7532 18.2922 20.8125 18.1491 20.8125 18C20.8125 17.8508 20.7532 17.7077 20.6477 17.6022C20.5423 17.4967 20.3992 17.4375 20.25 17.4375Z" fill="black"/>
</svg>
