<svg width="24" height="24" viewBox="0 0 24 24" fill="none" xmlns="http://www.w3.org/2000/svg">
<path d="M5.76094 16.259C5.82789 16.2907 5.90043 16.3088 5.97441 16.3124C6.04838 16.3159 6.12233 16.3049 6.19202 16.2798C6.2617 16.2547 6.32575 16.2161 6.38047 16.1662C6.4352 16.1163 6.47954 16.0561 6.51094 15.989L8.12156 12.5624H15.8784L17.4909 15.989C17.5363 16.0857 17.6083 16.1674 17.6985 16.2247C17.7886 16.282 17.8932 16.3124 18 16.3124C18.0827 16.3126 18.1643 16.2944 18.2391 16.259C18.3061 16.2276 18.3664 16.1833 18.4163 16.1285C18.4662 16.0738 18.5048 16.0098 18.5298 15.9401C18.5549 15.8704 18.566 15.7964 18.5624 15.7225C18.5589 15.6485 18.5407 15.5759 18.5091 15.509L12.5091 2.759C12.4636 2.66236 12.3916 2.58065 12.3015 2.52342C12.2114 2.46618 12.1068 2.43579 12 2.43579C11.8932 2.43579 11.7886 2.46618 11.6985 2.52342C11.6084 2.58065 11.5364 2.66236 11.4909 2.759L5.49094 15.509C5.45927 15.5759 5.44113 15.6485 5.43756 15.7225C5.43399 15.7964 5.44507 15.8704 5.47016 15.9401C5.49524 16.0098 5.53384 16.0738 5.58374 16.1285C5.63364 16.1833 5.69386 16.2276 5.76094 16.259ZM12 4.32087L15.3488 11.4374H8.65125L12 4.32087ZM20.8125 20.2499C20.8125 20.3991 20.7532 20.5422 20.6477 20.6477C20.5423 20.7532 20.3992 20.8124 20.25 20.8124H3.75C3.60082 20.8124 3.45774 20.7532 3.35225 20.6477C3.24676 20.5422 3.1875 20.3991 3.1875 20.2499C3.1875 20.1007 3.24676 19.9577 3.35225 19.8522C3.45774 19.7467 3.60082 19.6874 3.75 19.6874H20.25C20.3992 19.6874 20.5423 19.7467 20.6477 19.8522C20.7532 19.9577 20.8125 20.1007 20.8125 20.2499Z" fill="black"/>
</svg>
