<svg width="24" height="24" viewBox="0 0 24 24" fill="none" xmlns="http://www.w3.org/2000/svg">
<path d="M20.8125 11.9999C20.8125 12.1491 20.7532 12.2921 20.6477 12.3976C20.5423 12.5031 20.3992 12.5624 20.25 12.5624H10.5C10.3508 12.5624 10.2077 12.5031 10.1023 12.3976C9.99676 12.2921 9.9375 12.1491 9.9375 11.9999C9.9375 11.8507 9.99676 11.7076 10.1023 11.6021C10.2077 11.4966 10.3508 11.4374 10.5 11.4374H20.25C20.3992 11.4374 20.5423 11.4966 20.6477 11.6021C20.7532 11.7076 20.8125 11.8507 20.8125 11.9999ZM10.5 6.56238H20.25C20.3992 6.56238 20.5423 6.50312 20.6477 6.39763C20.7532 6.29214 20.8125 6.14907 20.8125 5.99988C20.8125 5.8507 20.7532 5.70763 20.6477 5.60214C20.5423 5.49665 20.3992 5.43738 20.25 5.43738H10.5C10.3508 5.43738 10.2077 5.49665 10.1023 5.60214C9.99676 5.70763 9.9375 5.8507 9.9375 5.99988C9.9375 6.14907 9.99676 6.29214 10.1023 6.39763C10.2077 6.50312 10.3508 6.56238 10.5 6.56238ZM20.25 17.4374H3.75C3.60082 17.4374 3.45774 17.4966 3.35225 17.6021C3.24676 17.7076 3.1875 17.8507 3.1875 17.9999C3.1875 18.1491 3.24676 18.2921 3.35225 18.3976C3.45774 18.5031 3.60082 18.5624 3.75 18.5624H20.25C20.3992 18.5624 20.5423 18.5031 20.6477 18.3976C20.7532 18.2921 20.8125 18.1491 20.8125 17.9999C20.8125 17.8507 20.7532 17.7076 20.6477 17.6021C20.5423 17.4966 20.3992 17.4374 20.25 17.4374ZM3.3525 13.1474C3.45797 13.2527 3.60094 13.3119 3.75 13.3119C3.89906 13.3119 4.04203 13.2527 4.1475 13.1474L7.8975 9.39738C8.00284 9.29192 8.06201 9.14895 8.06201 8.99988C8.06201 8.85082 8.00284 8.70785 7.8975 8.60239L4.1475 4.85238C4.04087 4.75302 3.89983 4.69893 3.75411 4.7015C3.60838 4.70407 3.46934 4.76311 3.36628 4.86617C3.26322 4.96923 3.20419 5.10827 3.20162 5.25399C3.19905 5.39972 3.25314 5.54075 3.3525 5.64739L6.70406 8.99988L3.3525 12.3524C3.24716 12.4579 3.18799 12.6008 3.18799 12.7499C3.18799 12.8989 3.24716 13.0419 3.3525 13.1474Z" fill="black"/>
</svg>
