<svg width="24" height="24" viewBox="0 0 24 24" fill="none" xmlns="http://www.w3.org/2000/svg">
<path d="M19.8746 20.6663C19.82 20.7161 19.7561 20.7546 19.6865 20.7797C19.617 20.8047 19.5432 20.8158 19.4693 20.8123C19.3955 20.8089 19.3231 20.7909 19.2562 20.7594C19.1894 20.7279 19.1293 20.6835 19.0796 20.6288L12.5621 13.4551V18.1876H14.9996C15.1488 18.1876 15.2919 18.2468 15.3974 18.3523C15.5029 18.4578 15.5621 18.6009 15.5621 18.7501C15.5621 18.8993 15.5029 19.0423 15.3974 19.1478C15.2919 19.2533 15.1488 19.3126 14.9996 19.3126H8.99962C8.85044 19.3126 8.70736 19.2533 8.60188 19.1478C8.49639 19.0423 8.43712 18.8993 8.43712 18.7501C8.43712 18.6009 8.49639 18.4578 8.60188 18.3523C8.70736 18.2468 8.85044 18.1876 8.99962 18.1876H11.4371V12.2176L5.81212 6.03008V8.25008C5.81212 8.39926 5.75286 8.54234 5.64737 8.64782C5.54188 8.75331 5.39881 8.81258 5.24962 8.81258C5.10044 8.81258 4.95736 8.75331 4.85188 8.64782C4.74639 8.54234 4.68712 8.39926 4.68712 8.25008V5.25008C4.68746 5.12944 4.72657 5.0121 4.79869 4.91539L4.08337 4.12508C3.99902 4.01272 3.95976 3.87286 3.97333 3.73302C3.98691 3.59318 4.05232 3.46348 4.1567 3.36944C4.26109 3.2754 4.39689 3.22383 4.53738 3.22487C4.67788 3.22591 4.8129 3.2795 4.91587 3.37508L19.9159 19.8751C20.0148 19.9857 20.0659 20.131 20.0582 20.2792C20.0505 20.4274 19.9845 20.5666 19.8746 20.6663ZM9.91744 5.81258H11.4371V7.54039C11.4371 7.68957 11.4964 7.83265 11.6019 7.93814C11.7074 8.04363 11.8504 8.10289 11.9996 8.10289C12.1488 8.10289 12.2919 8.04363 12.3974 7.93814C12.5029 7.83265 12.5621 7.68957 12.5621 7.54039V5.81258H18.1871V8.25008C18.1871 8.39926 18.2464 8.54234 18.3519 8.64782C18.4574 8.75331 18.6004 8.81258 18.7496 8.81258C18.8988 8.81258 19.0419 8.75331 19.1474 8.64782C19.2529 8.54234 19.3121 8.39926 19.3121 8.25008V5.25008C19.3121 5.10089 19.2529 4.95782 19.1474 4.85233C19.0419 4.74684 18.8988 4.68758 18.7496 4.68758H9.91744C9.76825 4.68758 9.62518 4.74684 9.51969 4.85233C9.4142 4.95782 9.35494 5.10089 9.35494 5.25008C9.35494 5.39926 9.4142 5.54234 9.51969 5.64783C9.62518 5.75331 9.76825 5.81258 9.91744 5.81258Z" fill="black"/>
</svg>
