<svg width="24" height="24" viewBox="0 0 24 24" fill="none" xmlns="http://www.w3.org/2000/svg">
<path d="M8.00916 5.01095C7.96374 4.91431 7.89175 4.8326 7.8016 4.77537C7.71145 4.71814 7.60688 4.68774 7.5001 4.68774C7.39332 4.68774 7.28875 4.71814 7.1986 4.77537C7.10846 4.8326 7.03646 4.91431 6.99104 5.01095L0.991039 17.761C0.927511 17.896 0.920219 18.0507 0.970765 18.1911C1.02131 18.3315 1.12556 18.446 1.26057 18.5095C1.39558 18.5731 1.5503 18.5804 1.69069 18.5298C1.83108 18.4793 1.94564 18.375 2.00916 18.24L3.62166 14.8125H11.3785L12.991 18.2391C13.0225 18.3059 13.0668 18.3659 13.1215 18.4157C13.1761 18.4654 13.24 18.5039 13.3095 18.5289C13.379 18.5539 13.4528 18.565 13.5266 18.5615C13.6004 18.558 13.6728 18.5401 13.7396 18.5086C13.8065 18.4772 13.8665 18.4328 13.9162 18.3782C13.9659 18.3235 14.0044 18.2596 14.0294 18.1901C14.0545 18.1206 14.0656 18.0469 14.0621 17.9731C14.0586 17.8993 14.0406 17.8269 14.0092 17.76L8.00916 5.01095ZM4.15135 13.6875L7.5001 6.57095L10.8489 13.6875H4.15135ZM18.7501 9.18751C17.6054 9.18751 16.7148 9.49501 16.1035 10.1006C16.0511 10.1527 16.0094 10.2146 15.9809 10.2828C15.9524 10.351 15.9375 10.4241 15.9373 10.498C15.937 10.5719 15.9513 10.6452 15.9794 10.7136C16.0074 10.7819 16.0486 10.8441 16.1007 10.8966C16.2059 11.0025 16.3488 11.0623 16.4981 11.0628C16.572 11.0631 16.6453 11.0488 16.7136 11.0207C16.782 10.9927 16.8442 10.9515 16.8967 10.8994C17.2885 10.5103 17.9129 10.3125 18.7501 10.3125C20.0945 10.3125 21.1876 11.2378 21.1876 12.375V13.0538C20.5021 12.4876 19.6391 12.1809 18.7501 12.1875C16.786 12.1875 15.1876 13.6172 15.1876 15.375C15.1876 17.1328 16.786 18.5625 18.7501 18.5625C19.6391 18.5691 20.5021 18.2624 21.1876 17.6963V18C21.1876 18.1492 21.2469 18.2923 21.3524 18.3978C21.4578 18.5032 21.6009 18.5625 21.7501 18.5625C21.8993 18.5625 22.0424 18.5032 22.1479 18.3978C22.2533 18.2923 22.3126 18.1492 22.3126 18V12.375C22.3126 10.6172 20.7189 9.18751 18.7501 9.18751ZM18.7501 17.4375C17.4057 17.4375 16.3126 16.5122 16.3126 15.375C16.3126 14.2378 17.4057 13.3125 18.7501 13.3125C20.0945 13.3125 21.1876 14.2378 21.1876 15.375C21.1876 16.5122 20.0945 17.4375 18.7501 17.4375Z" fill="black"/>
</svg>
