<svg width="24" height="24" viewBox="0 0 24 24" fill="none" xmlns="http://www.w3.org/2000/svg">
<path d="M20.813 11.9999C20.813 12.1491 20.7537 12.2921 20.6482 12.3976C20.5427 12.5031 20.3997 12.5624 20.2505 12.5624H10.5005C10.3513 12.5624 10.2082 12.5031 10.1027 12.3976C9.99724 12.2921 9.93798 12.1491 9.93798 11.9999C9.93798 11.8507 9.99724 11.7076 10.1027 11.6021C10.2082 11.4966 10.3513 11.4374 10.5005 11.4374H20.2505C20.3997 11.4374 20.5427 11.4966 20.6482 11.6021C20.7537 11.7076 20.813 11.8507 20.813 11.9999ZM10.5005 6.56238H20.2505C20.3997 6.56238 20.5427 6.50312 20.6482 6.39763C20.7537 6.29214 20.813 6.14907 20.813 5.99988C20.813 5.8507 20.7537 5.70763 20.6482 5.60214C20.5427 5.49665 20.3997 5.43738 20.2505 5.43738H10.5005C10.3513 5.43738 10.2082 5.49665 10.1027 5.60214C9.99724 5.70763 9.93798 5.8507 9.93798 5.99988C9.93798 6.14907 9.99724 6.29214 10.1027 6.39763C10.2082 6.50312 10.3513 6.56238 10.5005 6.56238ZM20.2505 17.4374H3.75048C3.6013 17.4374 3.45822 17.4966 3.35273 17.6021C3.24724 17.7076 3.18798 17.8507 3.18798 17.9999C3.18798 18.1491 3.24724 18.2921 3.35273 18.3976C3.45822 18.5031 3.6013 18.5624 3.75048 18.5624H20.2505C20.3997 18.5624 20.5427 18.5031 20.6482 18.3976C20.7537 18.2921 20.813 18.1491 20.813 17.9999C20.813 17.8507 20.7537 17.7076 20.6482 17.6021C20.5427 17.4966 20.3997 17.4374 20.2505 17.4374ZM6.75048 13.3124C6.86166 13.3123 6.97032 13.2792 7.06273 13.2174C7.15514 13.1556 7.22716 13.0678 7.2697 12.9651C7.31223 12.8624 7.32337 12.7493 7.30171 12.6403C7.28004 12.5312 7.22655 12.431 7.14798 12.3524L3.79642 8.99988L7.14798 5.64739C7.24734 5.54075 7.30143 5.39972 7.29886 5.25399C7.29629 5.10827 7.23726 4.96923 7.1342 4.86617C7.03114 4.76311 6.8921 4.70407 6.74637 4.7015C6.60065 4.69893 6.45961 4.75302 6.35298 4.85238L2.60298 8.60239C2.49764 8.70785 2.43848 8.85082 2.43848 8.99988C2.43848 9.14895 2.49764 9.29192 2.60298 9.39738L6.35298 13.1474C6.45837 13.2529 6.60135 13.3123 6.75048 13.3124Z" fill="black"/>
</svg>
