<svg width="24" height="24" viewBox="0 0 24 24" fill="none" xmlns="http://www.w3.org/2000/svg">
<path d="M23.0621 13.5001C23.0621 13.6493 23.0029 13.7924 22.8974 13.8979C22.7919 14.0033 22.6488 14.0626 22.4996 14.0626H17.9996C17.8952 14.0626 17.7928 14.0335 17.7039 13.9786C17.6151 13.9237 17.5432 13.8451 17.4965 13.7517C17.4498 13.6582 17.43 13.5536 17.4394 13.4496C17.4488 13.3456 17.487 13.2462 17.5496 13.1626L21.5968 7.7673C21.7418 7.57279 21.8431 7.34933 21.8939 7.11213C21.9446 6.87493 21.9437 6.62957 21.891 6.39278C21.8384 6.15599 21.7353 5.93332 21.5889 5.73997C21.4424 5.54661 21.2559 5.38711 21.0423 5.27232C20.8286 5.15754 20.5926 5.09017 20.3505 5.07482C20.1085 5.05947 19.8659 5.09649 19.6394 5.18335C19.4129 5.27022 19.2078 5.4049 19.0381 5.5782C18.8684 5.7515 18.738 5.95936 18.6559 6.18761C18.6036 6.32482 18.4997 6.43614 18.3665 6.4978C18.2332 6.55947 18.0811 6.56658 17.9427 6.51762C17.8043 6.46866 17.6905 6.36751 17.6256 6.23578C17.5608 6.10405 17.55 5.95218 17.5956 5.81261C17.6916 5.54361 17.8278 5.29074 17.9996 5.06261C18.4479 4.46587 19.1149 4.07166 19.8539 3.9667C20.5928 3.86174 21.3432 4.05462 21.94 4.50292C22.5367 4.95122 22.9309 5.61821 23.0359 6.35716C23.1408 7.09611 22.9479 7.8465 22.4996 8.44323L19.1246 12.9376H22.4996C22.6488 12.9376 22.7919 12.9969 22.8974 13.1024C23.0029 13.2078 23.0621 13.3509 23.0621 13.5001ZM13.8681 7.07542C13.7554 6.97777 13.6086 6.92885 13.4599 6.93939C13.3112 6.94994 13.1727 7.0191 13.075 7.13167L8.62464 12.2664L4.17433 7.13167C4.12674 7.07328 4.06791 7.02504 4.00133 6.98981C3.93475 6.95458 3.86177 6.93309 3.78672 6.9266C3.71167 6.92011 3.63608 6.92877 3.56444 6.95205C3.4928 6.97533 3.42657 7.01276 3.36967 7.06212C3.31277 7.11149 3.26636 7.17177 3.23321 7.23941C3.20005 7.30705 3.18081 7.38066 3.17664 7.45587C3.17247 7.53108 3.18345 7.60637 3.20893 7.67726C3.23441 7.74815 3.27386 7.81319 3.32496 7.86855L7.88027 13.1251L3.32496 18.3817C3.27386 18.437 3.23441 18.5021 3.20893 18.573C3.18345 18.6438 3.17247 18.7191 3.17664 18.7943C3.18081 18.8696 3.20005 18.9432 3.23321 19.0108C3.26636 19.0784 3.31277 19.1387 3.36967 19.1881C3.42657 19.2375 3.4928 19.2749 3.56444 19.2982C3.63608 19.3214 3.71167 19.3301 3.78672 19.3236C3.86177 19.3171 3.93475 19.2956 4.00133 19.2604C4.06791 19.2252 4.12674 19.1769 4.17433 19.1185L8.62464 13.9839L13.075 19.1185C13.1741 19.226 13.3112 19.2906 13.4571 19.2986C13.6031 19.3067 13.7465 19.2577 13.8569 19.1619C13.9673 19.0661 14.0361 18.9311 14.0487 18.7854C14.0613 18.6398 14.0167 18.495 13.9243 18.3817L9.36902 13.1251L13.9243 7.86855C14.022 7.75588 14.0709 7.60906 14.0604 7.46034C14.0498 7.31162 13.9807 7.17318 13.8681 7.07542Z" fill="black"/>
</svg>
