<svg width="24" height="24" viewBox="0 0 24 24" fill="none" xmlns="http://www.w3.org/2000/svg">
<path d="M22.2966 14.7441L21.1716 5.74406C21.1092 5.24526 20.8668 4.78642 20.4899 4.45375C20.1131 4.12108 19.6277 3.9375 19.125 3.9375H3C2.6519 3.9375 2.31806 4.07578 2.07192 4.32192C1.82578 4.56806 1.6875 4.9019 1.6875 5.25V13.5C1.6875 13.8481 1.82578 14.1819 2.07192 14.4281C2.31806 14.6742 2.6519 14.8125 3 14.8125H7.15219L10.7466 22.0012C10.7933 22.0948 10.8651 22.1735 10.954 22.2284C11.043 22.2834 11.1454 22.3125 11.25 22.3125C12.1948 22.3125 13.101 21.9372 13.7691 21.2691C14.4372 20.601 14.8125 19.6948 14.8125 18.75V17.0625H20.25C20.5425 17.0625 20.8316 17.0003 21.0982 16.88C21.3647 16.7598 21.6027 16.5842 21.7963 16.3649C21.9898 16.1457 22.1345 15.8878 22.2208 15.6083C22.307 15.3289 22.3329 15.0343 22.2966 14.7441ZM6.9375 13.6875H3C2.95027 13.6875 2.90258 13.6677 2.86742 13.6326C2.83225 13.5974 2.8125 13.5497 2.8125 13.5V5.25C2.8125 5.20027 2.83225 5.15258 2.86742 5.11742C2.90258 5.08225 2.95027 5.0625 3 5.0625H6.9375V13.6875ZM20.9531 15.6206C20.8655 15.7208 20.7574 15.801 20.6361 15.8556C20.5147 15.9103 20.3831 15.9382 20.25 15.9375H14.25C14.1008 15.9375 13.9577 15.9968 13.8523 16.1023C13.7468 16.2077 13.6875 16.3508 13.6875 16.5V18.75C13.6874 19.3383 13.4746 19.9067 13.0883 20.3504C12.702 20.7941 12.1683 21.0831 11.5856 21.1641L8.0625 14.1169V5.0625H19.125C19.3535 5.06256 19.574 5.14605 19.7453 5.29728C19.9165 5.4485 20.0267 5.65705 20.055 5.88375L21.18 14.8837C21.1973 15.0157 21.1859 15.1497 21.1468 15.2769C21.1076 15.404 21.0416 15.5213 20.9531 15.6206Z" fill="black"/>
</svg>
