<svg width="24" height="24" viewBox="0 0 24 24" fill="none" xmlns="http://www.w3.org/2000/svg">
<path d="M23.648 8.60249L19.898 4.85249C19.7925 4.74716 19.6495 4.68799 19.5005 4.68799C19.3514 4.68799 19.2085 4.74716 19.103 4.85249L15.7505 8.20499L12.398 4.85249C12.2925 4.74716 12.1495 4.68799 12.0005 4.68799C11.8514 4.68799 11.7085 4.74716 11.603 4.85249L8.25048 8.20499L4.89798 4.85249C4.79251 4.74716 4.64954 4.68799 4.50048 4.68799C4.35142 4.68799 4.20845 4.74716 4.10298 4.85249L0.352982 8.60249C0.247644 8.70796 0.188477 8.85093 0.188477 8.99999C0.188477 9.14906 0.247644 9.29202 0.352982 9.39749L4.10298 13.1475C4.20845 13.2528 4.35142 13.312 4.50048 13.312C4.64954 13.312 4.79251 13.2528 4.89798 13.1475L8.25048 9.79499L11.2055 12.75L7.85298 16.1025C7.74764 16.208 7.68848 16.3509 7.68848 16.5C7.68848 16.6491 7.74764 16.792 7.85298 16.8975L11.603 20.6475C11.7085 20.7528 11.8514 20.812 12.0005 20.812C12.1495 20.812 12.2925 20.7528 12.398 20.6475L16.148 16.8975C16.2533 16.792 16.3125 16.6491 16.3125 16.5C16.3125 16.3509 16.2533 16.208 16.148 16.1025L12.7955 12.75L15.7505 9.79499L19.103 13.1475C19.2085 13.2528 19.3514 13.312 19.5005 13.312C19.6495 13.312 19.7925 13.2528 19.898 13.1475L23.648 9.39749C23.7533 9.29202 23.8125 9.14906 23.8125 8.99999C23.8125 8.85093 23.7533 8.70796 23.648 8.60249ZM4.50048 11.9541L1.54642 8.99999L4.50048 6.04593L7.45454 8.99999L4.50048 11.9541ZM12.0005 19.4541L9.04642 16.5L12.0005 13.5459L14.9545 16.5L12.0005 19.4541ZM12.0005 11.9541L9.04642 8.99999L12.0005 6.04593L14.9545 8.99999L12.0005 11.9541ZM19.5005 11.9541L16.5464 8.99999L19.5005 6.04593L22.4545 8.99999L19.5005 11.9541Z" fill="black"/>
</svg>
