<svg width="24" height="24" viewBox="0 0 24 24" fill="none" xmlns="http://www.w3.org/2000/svg">
<path d="M22.223 19.9471L12.6671 5.01559L14.723 1.80371C14.771 1.74207 14.8056 1.67113 14.8246 1.5954C14.8436 1.51967 14.8466 1.44081 14.8335 1.36384C14.8204 1.28687 14.7914 1.21348 14.7483 1.14833C14.7053 1.08319 14.6491 1.02771 14.5835 0.985448C14.5178 0.943182 14.4441 0.915048 14.367 0.902835C14.2899 0.890623 14.211 0.8946 14.1355 0.914514C14.06 0.934427 13.9895 0.969841 13.9285 1.0185C13.8674 1.06716 13.8171 1.128 13.7809 1.19715L11.9996 3.97215L10.2184 1.19715C10.1836 1.1255 10.1339 1.06205 10.0728 1.01101C10.0116 0.959972 9.94034 0.922503 9.86361 0.901085C9.78689 0.879668 9.70649 0.874789 9.62775 0.886773C9.549 0.898757 9.47369 0.92733 9.40681 0.9706C9.33993 1.01387 9.28301 1.07085 9.2398 1.13777C9.1966 1.20469 9.1681 1.28003 9.15619 1.35879C9.14428 1.43755 9.14924 1.51794 9.17073 1.59464C9.19223 1.67134 9.22976 1.74261 9.28086 1.80371L11.3321 5.01559L1.78086 19.9471C1.72679 20.0318 1.69637 20.1294 1.69275 20.2297C1.68913 20.3301 1.71245 20.4296 1.76029 20.5179C1.80813 20.6062 1.87874 20.6801 1.96479 20.7319C2.05083 20.7837 2.14918 20.8115 2.24961 20.8125H21.7496C21.8504 20.8124 21.9494 20.7851 22.0361 20.7337C22.1228 20.6822 22.1941 20.6084 22.2425 20.52C22.2909 20.4315 22.3146 20.3317 22.3112 20.2309C22.3078 20.1301 22.2773 20.0321 22.223 19.9471ZM7.74711 19.6875L11.9996 13.0434L16.2521 19.6875H7.74711ZM17.5909 19.6875L12.4768 11.6971C12.4259 11.6178 12.3559 11.5525 12.2731 11.5073C12.1904 11.4621 12.0976 11.4384 12.0034 11.4384C11.9091 11.4384 11.8163 11.4621 11.7336 11.5073C11.6509 11.5525 11.5808 11.6178 11.5299 11.6971L6.41211 19.6875H3.28086L11.9996 6.05902L20.7184 19.6875H17.5909Z" fill="black"/>
</svg>
