<svg width="24" height="24" viewBox="0 0 24 24" fill="none" xmlns="http://www.w3.org/2000/svg">
<path d="M21.9811 6.63094C21.857 6.49128 21.7047 6.37954 21.5342 6.3031C21.3637 6.22666 21.1789 6.18726 20.9921 6.1875H16.3121V6C16.3121 4.85625 15.8577 3.75935 15.049 2.9506C14.2402 2.14185 13.1433 1.6875 11.9996 1.6875C10.8558 1.6875 9.75894 2.14185 8.95019 2.9506C8.14144 3.75935 7.68709 4.85625 7.68709 6V6.1875H3.00709C2.82099 6.18622 2.63675 6.22453 2.46659 6.29988C2.29643 6.37524 2.14424 6.48592 2.02011 6.62458C1.89599 6.76324 1.80278 6.92672 1.74665 7.10415C1.69053 7.28159 1.67278 7.46893 1.69459 7.65375L3.03052 18.9037C3.06954 19.2241 3.2247 19.5189 3.4666 19.7325C3.7085 19.9461 4.02034 20.0635 4.34302 20.0625H19.6562C19.9788 20.0635 20.2907 19.9461 20.5326 19.7325C20.7745 19.5189 20.9296 19.2241 20.9687 18.9037L22.3046 7.65375C22.3257 7.4701 22.3079 7.28405 22.2521 7.10779C22.1964 6.93153 22.1041 6.76903 21.9811 6.63094ZM8.81209 6C8.81209 5.15462 9.14791 4.34387 9.74568 3.7461C10.3435 3.14832 11.1542 2.8125 11.9996 2.8125C12.845 2.8125 13.6557 3.14832 14.2535 3.7461C14.8513 4.34387 15.1871 5.15462 15.1871 6V6.1875H8.81209V6ZM19.8493 18.7716C19.8439 18.8185 19.821 18.8616 19.7852 18.8923C19.7494 18.9231 19.7033 18.9392 19.6562 18.9375H4.34302C4.29586 18.9392 4.24978 18.9231 4.21398 18.8923C4.17818 18.8616 4.1553 18.8185 4.1499 18.7716L2.81209 7.52156C2.80893 7.49576 2.8114 7.46957 2.81933 7.44481C2.82726 7.42005 2.84046 7.3973 2.85802 7.37812C2.87653 7.35716 2.89935 7.34044 2.92491 7.32912C2.95048 7.31779 2.97819 7.31212 3.00615 7.3125H7.68709V9.75C7.68709 9.89918 7.74635 10.0423 7.85184 10.1477C7.95733 10.2532 8.1004 10.3125 8.24959 10.3125C8.39877 10.3125 8.54184 10.2532 8.64733 10.1477C8.75282 10.0423 8.81209 9.89918 8.81209 9.75V7.3125H15.1871V9.75C15.1871 9.89918 15.2464 10.0423 15.3518 10.1477C15.4573 10.2532 15.6004 10.3125 15.7496 10.3125C15.8988 10.3125 16.0418 10.2532 16.1473 10.1477C16.2528 10.0423 16.3121 9.89918 16.3121 9.75V7.3125H20.9921C21.02 7.31212 21.0478 7.31779 21.0733 7.32912C21.0989 7.34044 21.1217 7.35716 21.1402 7.37812C21.1578 7.3973 21.171 7.42005 21.1789 7.44481C21.1868 7.46957 21.1893 7.49576 21.1861 7.52156L19.8493 18.7716Z" fill="black"/>
</svg>
