<svg width="24" height="24" viewBox="0 0 24 24" fill="none" xmlns="http://www.w3.org/2000/svg">
<path d="M22.3121 5.25V11.25C22.3121 11.3992 22.2529 11.5423 22.1474 11.6477C22.0419 11.7532 21.8988 11.8125 21.7496 11.8125C21.6005 11.8125 21.4574 11.7532 21.3519 11.6477C21.2464 11.5423 21.1871 11.3992 21.1871 11.25V6.6075L13.1471 14.6475C13.0417 14.7528 12.8987 14.812 12.7496 14.812C12.6006 14.812 12.4576 14.7528 12.3521 14.6475L8.99964 11.2959L2.64714 17.6475C2.54051 17.7469 2.39947 17.801 2.25375 17.7984C2.10802 17.7958 1.96898 17.7368 1.86592 17.6337C1.76286 17.5307 1.70383 17.3916 1.70126 17.2459C1.69869 17.1002 1.75278 16.9591 1.85214 16.8525L8.60214 10.1025C8.70761 9.99716 8.85058 9.93799 8.99964 9.93799C9.1487 9.93799 9.29167 9.99716 9.39714 10.1025L12.7496 13.4541L20.3921 5.8125H15.7496C15.6005 5.8125 15.4574 5.75324 15.3519 5.64775C15.2464 5.54226 15.1871 5.39918 15.1871 5.25C15.1871 5.10082 15.2464 4.95774 15.3519 4.85225C15.4574 4.74676 15.6005 4.6875 15.7496 4.6875H21.7496C21.8988 4.6875 22.0419 4.74676 22.1474 4.85225C22.2529 4.95774 22.3121 5.10082 22.3121 5.25Z" fill="black"/>
</svg>
