<svg width="24" height="24" viewBox="0 0 24 24" fill="none" xmlns="http://www.w3.org/2000/svg">
<path d="M22.3121 12.0001V18.0001C22.3121 18.1493 22.2529 18.2924 22.1474 18.3979C22.0419 18.5034 21.8988 18.5626 21.7496 18.5626H15.7496C15.6005 18.5626 15.4574 18.5034 15.3519 18.3979C15.2464 18.2924 15.1871 18.1493 15.1871 18.0001C15.1871 17.8509 15.2464 17.7079 15.3519 17.6024C15.4574 17.4969 15.6005 17.4376 15.7496 17.4376H20.3921L12.7496 9.79607L9.39714 13.1476C9.29167 13.253 9.1487 13.3121 8.99964 13.3121C8.85058 13.3121 8.70761 13.253 8.60214 13.1476L1.85214 6.39763C1.75278 6.291 1.69869 6.14996 1.70126 6.00424C1.70383 5.85851 1.76286 5.71947 1.86592 5.61641C1.96898 5.51335 2.10802 5.45432 2.25375 5.45175C2.39947 5.44918 2.54051 5.50327 2.64714 5.60263L8.99964 11.9542L12.3521 8.60263C12.4576 8.49729 12.6006 8.43812 12.7496 8.43812C12.8987 8.43812 13.0417 8.49729 13.1471 8.60263L21.1871 16.6426V12.0001C21.1871 11.8509 21.2464 11.7079 21.3519 11.6024C21.4574 11.4969 21.6005 11.4376 21.7496 11.4376C21.8988 11.4376 22.0419 11.4969 22.1474 11.6024C22.2529 11.7079 22.3121 11.8509 22.3121 12.0001Z" fill="black"/>
</svg>
