<svg width="24" height="24" viewBox="0 0 24 24" fill="none" xmlns="http://www.w3.org/2000/svg">
<path d="M22.0377 17.7274L13.8384 3.48958C13.65 3.16937 13.3814 2.9039 13.0589 2.71946C12.7364 2.53501 12.3714 2.43799 11.9999 2.43799C11.6284 2.43799 11.2634 2.53501 10.941 2.71946C10.6185 2.9039 10.3498 3.16937 10.1615 3.48958L1.96212 17.7274C1.78163 18.0363 1.68652 18.3877 1.68652 18.7455C1.68652 19.1033 1.78163 19.4547 1.96212 19.7636C2.14792 20.0861 2.41626 20.3533 2.73953 20.5376C3.06281 20.722 3.42936 20.8169 3.80149 20.8127H20.1984C20.5702 20.8166 20.9363 20.7215 21.2593 20.5371C21.5822 20.3528 21.8502 20.0858 22.0359 19.7636C22.2166 19.4549 22.3121 19.1036 22.3124 18.7458C22.3127 18.388 22.2179 18.0365 22.0377 17.7274ZM21.0618 19.2002C20.9742 19.3509 20.848 19.4754 20.6962 19.5611C20.5445 19.6468 20.3726 19.6905 20.1984 19.6877H3.80149C3.62723 19.6905 3.45538 19.6468 3.30362 19.5611C3.15185 19.4754 3.02567 19.3509 2.93805 19.2002C2.8559 19.0624 2.81253 18.905 2.81253 18.7446C2.81253 18.5842 2.8559 18.4267 2.93805 18.289L11.1365 4.05114C11.2261 3.90225 11.3527 3.77907 11.504 3.69356C11.6553 3.60804 11.8261 3.5631 11.9999 3.5631C12.1737 3.5631 12.3445 3.60804 12.4958 3.69356C12.6471 3.77907 12.7737 3.90225 12.8634 4.05114L21.0627 18.289C21.1448 18.4268 21.188 18.5843 21.1878 18.7447C21.1876 18.9051 21.1441 19.0625 21.0618 19.2002Z" fill="black"/>
</svg>
