<svg width="24" height="24" viewBox="0 0 24 24" fill="none" xmlns="http://www.w3.org/2000/svg">
<path d="M8.25036 14.8125H20.2504C20.5985 14.8125 20.9323 14.6742 21.1784 14.4281C21.4246 14.1819 21.5629 13.8481 21.5629 13.5V6.75C21.5629 6.4019 21.4246 6.06806 21.1784 5.82192C20.9323 5.57578 20.5985 5.4375 20.2504 5.4375H17.0629V3.75C17.0629 3.4019 16.9246 3.06806 16.6784 2.82192C16.4323 2.57578 16.0985 2.4375 15.7504 2.4375H12.7504C12.4023 2.4375 12.0684 2.57578 11.8223 2.82192C11.5761 3.06806 11.4379 3.4019 11.4379 3.75V5.4375H8.25036C7.90226 5.4375 7.56842 5.57578 7.32228 5.82192C7.07614 6.06806 6.93786 6.4019 6.93786 6.75V13.5C6.93786 13.8481 7.07614 14.1819 7.32228 14.4281C7.56842 14.6742 7.90226 14.8125 8.25036 14.8125ZM12.5629 3.75C12.5629 3.70027 12.5826 3.65258 12.6178 3.61742C12.6529 3.58225 12.7006 3.5625 12.7504 3.5625H15.7504C15.8001 3.5625 15.8478 3.58225 15.8829 3.61742C15.9181 3.65258 15.9379 3.70027 15.9379 3.75V5.4375H12.5629V3.75ZM8.06286 6.75C8.06286 6.70027 8.08261 6.65258 8.11778 6.61742C8.15294 6.58225 8.20063 6.5625 8.25036 6.5625H20.2504C20.3001 6.5625 20.3478 6.58225 20.3829 6.61742C20.4181 6.65258 20.4379 6.70027 20.4379 6.75V13.5C20.4379 13.5497 20.4181 13.5974 20.3829 13.6326C20.3478 13.6677 20.3001 13.6875 20.2504 13.6875H8.25036C8.20063 13.6875 8.15294 13.6677 8.11778 13.6326C8.08261 13.5974 8.06286 13.5497 8.06286 13.5V6.75ZM8.06286 21C8.06286 21.2596 7.98588 21.5133 7.84166 21.7292C7.69744 21.945 7.49246 22.1133 7.25263 22.2126C7.0128 22.3119 6.7489 22.3379 6.4943 22.2873C6.2397 22.2366 6.00584 22.1116 5.82228 21.9281C5.63873 21.7445 5.51372 21.5107 5.46308 21.2561C5.41244 21.0015 5.43843 20.7376 5.53777 20.4977C5.63711 20.2579 5.80533 20.0529 6.02117 19.9087C6.23701 19.7645 6.49077 19.6875 6.75036 19.6875C7.09846 19.6875 7.4323 19.8258 7.67844 20.0719C7.92458 20.3181 8.06286 20.6519 8.06286 21ZM21.5629 21C21.5629 21.2596 21.4859 21.5133 21.3417 21.7292C21.1974 21.945 20.9925 22.1133 20.7526 22.2126C20.5128 22.3119 20.2489 22.3379 19.9943 22.2873C19.7397 22.2366 19.5058 22.1116 19.3223 21.9281C19.1387 21.7445 19.0137 21.5107 18.9631 21.2561C18.9124 21.0015 18.9384 20.7376 19.0378 20.4977C19.1371 20.2579 19.3053 20.0529 19.5212 19.9087C19.737 19.7645 19.9908 19.6875 20.2504 19.6875C20.5985 19.6875 20.9323 19.8258 21.1784 20.0719C21.4246 20.3181 21.5629 20.6519 21.5629 21ZM23.0629 17.25C23.0629 17.3992 23.0036 17.5423 22.8981 17.6477C22.7926 17.7532 22.6495 17.8125 22.5004 17.8125H3.00036C2.85118 17.8125 2.7081 17.7532 2.60261 17.6477C2.49712 17.5423 2.43786 17.3992 2.43786 17.25C2.43786 17.1008 2.49712 16.9577 2.60261 16.8523C2.7081 16.7468 2.85118 16.6875 3.00036 16.6875H3.93786V7.06031C3.93765 7.01066 3.91776 6.96313 3.88255 6.92813L1.85286 4.8975C1.79759 4.846 1.75327 4.7839 1.72252 4.7149C1.69178 4.6459 1.67525 4.57142 1.67392 4.49589C1.67258 4.42036 1.68648 4.34534 1.71477 4.2753C1.74306 4.20526 1.78517 4.14164 1.83858 4.08822C1.89199 4.03481 1.95562 3.9927 2.02566 3.96441C2.0957 3.93612 2.17072 3.92222 2.24625 3.92356C2.32178 3.92489 2.39626 3.94142 2.46526 3.97216C2.53426 4.00291 2.59636 4.04723 2.64786 4.1025L4.67848 6.13219C4.80061 6.25389 4.89744 6.39855 4.96341 6.55784C5.02938 6.71713 5.06318 6.8879 5.06286 7.06031V16.6875H22.5004C22.6495 16.6875 22.7926 16.7468 22.8981 16.8523C23.0036 16.9577 23.0629 17.1008 23.0629 17.25Z" fill="black"/>
</svg>
