<svg width="24" height="24" viewBox="0 0 24 24" fill="none" xmlns="http://www.w3.org/2000/svg">
<path d="M8.06286 20.9999C8.06286 21.2595 7.98588 21.5132 7.84166 21.7291C7.69744 21.9449 7.49246 22.1131 7.25263 22.2125C7.0128 22.3118 6.7489 22.3378 6.4943 22.2872C6.2397 22.2365 6.00584 22.1115 5.82228 21.9279C5.63873 21.7444 5.51372 21.5105 5.46308 21.2559C5.41244 21.0013 5.43843 20.7374 5.53777 20.4976C5.63711 20.2578 5.80533 20.0528 6.02117 19.9086C6.23701 19.7643 6.49077 19.6874 6.75036 19.6874C7.09846 19.6874 7.4323 19.8257 7.67844 20.0718C7.92458 20.3179 8.06286 20.6518 8.06286 20.9999ZM20.2504 19.6874C19.9908 19.6874 19.737 19.7643 19.5212 19.9086C19.3053 20.0528 19.1371 20.2578 19.0378 20.4976C18.9384 20.7374 18.9124 21.0013 18.9631 21.2559C19.0137 21.5105 19.1387 21.7444 19.3223 21.9279C19.5058 22.1115 19.7397 22.2365 19.9943 22.2872C20.2489 22.3378 20.5128 22.3118 20.7526 22.2125C20.9925 22.1131 21.1974 21.9449 21.3417 21.7291C21.4859 21.5132 21.5629 21.2595 21.5629 20.9999C21.5629 20.6518 21.4246 20.3179 21.1784 20.0718C20.9323 19.8257 20.5985 19.6874 20.2504 19.6874ZM22.5004 16.6874H5.06286V7.06018C5.06318 6.88777 5.02938 6.717 4.96341 6.55771C4.89744 6.39842 4.80061 6.25376 4.67848 6.13206L2.64786 4.10237C2.59636 4.04711 2.53426 4.00278 2.46526 3.97204C2.39626 3.94129 2.32178 3.92476 2.24625 3.92343C2.17072 3.92209 2.0957 3.93599 2.02566 3.96428C1.95562 3.99257 1.89199 4.03468 1.83858 4.08809C1.78517 4.14151 1.74306 4.20513 1.71477 4.27517C1.68648 4.34521 1.67258 4.42024 1.67392 4.49576C1.67525 4.57129 1.69178 4.64578 1.72252 4.71477C1.75327 4.78377 1.79759 4.84587 1.85286 4.89737L3.88255 6.928C3.91776 6.963 3.93765 7.01054 3.93786 7.06018V16.6874H3.00036C2.85118 16.6874 2.7081 16.7466 2.60261 16.8521C2.49712 16.9576 2.43786 17.1007 2.43786 17.2499C2.43786 17.3991 2.49712 17.5421 2.60261 17.6476C2.7081 17.7531 2.85118 17.8124 3.00036 17.8124H22.5004C22.6495 17.8124 22.7926 17.7531 22.8981 17.6476C23.0036 17.5421 23.0629 17.3991 23.0629 17.2499C23.0629 17.1007 23.0036 16.9576 22.8981 16.8521C22.7926 16.7466 22.6495 16.6874 22.5004 16.6874Z" fill="black"/>
</svg>
