<svg width="24" height="24" viewBox="0 0 24 24" fill="none" xmlns="http://www.w3.org/2000/svg">
<path d="M23.0191 6.53517C22.9766 6.43233 22.9046 6.34439 22.8121 6.28248C22.7197 6.22057 22.6109 6.18747 22.4997 6.18736H19.5372C19.1623 5.51137 18.6149 4.94693 17.9506 4.55165C17.2864 4.15636 16.5292 3.94439 15.7562 3.93736C15.1949 3.93016 14.6377 4.03527 14.1175 4.2465C13.5973 4.45773 13.1246 4.77081 12.7272 5.16736C12.3176 5.56925 11.9924 6.04898 11.7709 6.57834C11.5494 7.1077 11.4359 7.67601 11.4372 8.24986V9.06173C7.49967 8.12423 4.25593 4.88798 4.21843 4.85423C4.14288 4.77921 4.04759 4.72717 3.94363 4.70416C3.83967 4.68115 3.73132 4.68811 3.63117 4.72425C3.53101 4.76038 3.44317 4.8242 3.37785 4.90828C3.31253 4.99236 3.27242 5.09325 3.26217 5.19923C2.86374 9.62611 4.1453 12.582 5.29093 14.2827C5.88316 15.1736 6.6132 15.9647 7.45374 16.6264C6.00155 18.4077 3.57811 19.3349 3.55186 19.3452C3.4718 19.3748 3.39953 19.4223 3.34053 19.484C3.28153 19.5457 3.23735 19.62 3.21133 19.7013C3.18531 19.7826 3.17814 19.8687 3.19036 19.9532C3.20258 20.0377 3.23387 20.1183 3.28186 20.1889C3.37467 20.3277 4.29155 21.5624 7.49968 21.5624C14.0509 21.5624 19.5212 16.4999 20.0453 9.99923L22.8972 7.1483C22.9759 7.06961 23.0294 6.96936 23.0511 6.86022C23.0728 6.75108 23.0617 6.63796 23.0191 6.53517ZM19.1022 9.35236C19.0053 9.44901 18.947 9.57767 18.9381 9.71423C18.5556 15.7274 13.5306 20.4374 7.49968 20.4374C6.18718 20.4374 5.36593 20.2114 4.86905 19.9874C5.92843 19.4549 7.6553 18.4049 8.71749 16.812C8.75985 16.7483 8.78877 16.6766 8.80247 16.6014C8.81617 16.5261 8.81437 16.4488 8.79717 16.3742C8.77981 16.2992 8.74721 16.2285 8.70141 16.1666C8.65562 16.1047 8.59759 16.0528 8.53093 16.0142C8.51874 16.0067 7.29999 15.2774 6.18718 13.603C4.87468 11.6249 4.24749 9.22767 4.31218 6.45736C5.70718 7.63861 8.58436 9.74705 11.9059 10.3011C11.9866 10.3147 12.0693 10.3106 12.1482 10.289C12.2272 10.2674 12.3004 10.2288 12.3629 10.176C12.4254 10.1231 12.4756 10.0573 12.51 9.98305C12.5444 9.9088 12.5622 9.82794 12.5622 9.74611V8.24986C12.5613 7.82504 12.6454 7.40433 12.8094 7.01247C12.9735 6.6206 13.2142 6.26548 13.5175 5.96798C13.8095 5.67644 14.1568 5.44616 14.5389 5.29064C14.9211 5.13513 15.3305 5.05751 15.7431 5.06236C17.0022 5.0783 18.1806 5.84705 18.6719 6.97486C18.7156 7.07518 18.7878 7.16055 18.8793 7.2205C18.9709 7.28045 19.078 7.31237 19.1875 7.31236H21.1412L19.1022 9.35236Z" fill="black"/>
</svg>
