<svg width="24" height="24" viewBox="0 0 24 24" fill="none" xmlns="http://www.w3.org/2000/svg">
<path d="M16.21 7.78982C15.988 6.46528 15.4055 5.22746 14.5264 4.21212C13.6473 3.19678 12.5056 2.44314 11.2265 2.03386C9.94736 1.62459 8.58022 1.57548 7.27503 1.89193C5.96983 2.20838 4.77698 2.87816 3.82733 3.82782C2.87767 4.77747 2.20789 5.97031 1.89144 7.27551C1.57499 8.58071 1.6241 9.94785 2.03337 11.227C2.44265 12.5061 3.19629 13.6478 4.21163 14.5269C5.22697 15.406 6.46479 15.9885 7.78933 16.2104C8.01133 17.535 8.5938 18.7728 9.47288 19.7882C10.3519 20.8035 11.4937 21.5571 12.7728 21.9664C14.0519 22.3757 15.4191 22.4248 16.7243 22.1083C18.0295 21.7919 19.2223 21.1221 20.172 20.1725C21.1216 19.2228 21.7914 18.03 22.1079 16.7248C22.4243 15.4196 22.3752 14.0524 21.9659 12.7733C21.5566 11.4942 20.803 10.3524 19.7877 9.47336C18.7723 8.59429 17.5345 8.01181 16.21 7.78982ZM21.1871 15.0001C21.1868 15.2793 21.1674 15.558 21.129 15.8345L16.089 10.7936C16.2374 10.2073 16.3124 9.60488 16.3121 9.00013C16.3121 8.9842 16.3121 8.9692 16.3121 8.9542C17.6921 9.25549 18.9277 10.0192 19.8143 11.1187C20.7009 12.2183 21.1853 13.5877 21.1871 15.0001ZM4.24746 5.04295L9.45058 10.2461C8.99142 10.7823 8.61247 11.3823 8.32558 12.0273L3.18715 6.88888C3.43129 6.21694 3.79003 5.59238 4.24746 5.04295ZM12.5837 14.0429L9.95871 11.4179C10.3597 10.8557 10.8514 10.364 11.4137 9.96295L14.0387 12.5879C13.6374 13.1489 13.1457 13.6393 12.5837 14.0392V14.0429ZM15.1871 9.00013C15.1882 9.88976 14.9963 10.769 14.6246 11.5773L12.4225 9.37513C13.2307 9.0035 14.11 8.81158 14.9996 8.81263C15.0606 8.81263 15.1215 8.81263 15.1825 8.81263C15.1871 8.87826 15.1871 8.9392 15.1871 9.00013ZM10.2456 9.45107L5.04246 4.24795C5.59189 3.79052 6.21645 3.43177 6.8884 3.18763L12.0259 8.32607C11.3812 8.61304 10.7815 8.99199 10.2456 9.45107ZM8.81215 15.0001C8.8111 14.1105 9.00301 13.2312 9.37465 12.4229L11.5768 14.6251C10.7685 14.9968 9.88928 15.1887 8.99965 15.1876C8.93871 15.1876 8.87777 15.1876 8.81215 15.1829C8.81215 15.122 8.81215 15.0611 8.81215 15.0001ZM13.7537 14.5492L18.9568 19.7523C18.4074 20.2097 17.7828 20.5685 17.1109 20.8126L11.9734 15.6742C12.6181 15.3872 13.2178 15.0083 13.7537 14.5492ZM14.5487 13.7542C15.0079 13.218 15.3868 12.618 15.6737 11.9729L20.8121 17.1114C20.5669 17.7836 20.2068 18.4082 19.7481 18.9573L14.5487 13.7542ZM15.0456 7.68857H14.9996C14.3949 7.68835 13.7925 7.7633 13.2062 7.9117L8.16527 2.87076C8.44175 2.83239 8.72052 2.81297 8.99965 2.81263C10.4121 2.81453 11.7815 3.29889 12.8811 4.18548C13.9806 5.07207 14.7443 6.30769 15.0456 7.68763V7.68857ZM2.81215 9.00013C2.81248 8.72101 2.8319 8.44223 2.87027 8.16576L7.91027 13.2067C7.76187 13.793 7.68692 14.3954 7.68715 15.0001C7.68715 15.0161 7.68715 15.0311 7.68715 15.0461C6.3072 14.7448 5.07158 13.9811 4.18499 12.8816C3.2984 11.782 2.81404 10.4126 2.81215 9.00013ZM8.95371 16.3126H8.99965C9.60439 16.3129 10.2068 16.2379 10.7931 16.0895L15.834 21.1295C15.5575 21.1679 15.2788 21.1873 14.9996 21.1876C13.5872 21.1857 12.2178 20.7014 11.1182 19.8148C10.0187 18.9282 9.255 17.6926 8.95371 16.3126Z" fill="black"/>
</svg>
