<svg width="24" height="24" viewBox="0 0 24 24" fill="none" xmlns="http://www.w3.org/2000/svg">
<path d="M23.8124 12.7501C23.8124 12.8993 23.7531 13.0424 23.6476 13.1478C23.5422 13.2533 23.3991 13.3126 23.2499 13.3126H21.5624V15.0001C21.5624 15.1493 21.5031 15.2924 21.3976 15.3978C21.2922 15.5033 21.1491 15.5626 20.9999 15.5626C20.8507 15.5626 20.7076 15.5033 20.6021 15.3978C20.4967 15.2924 20.4374 15.1493 20.4374 15.0001V13.3126H18.7499C18.6007 13.3126 18.4576 13.2533 18.3521 13.1478C18.2467 13.0424 18.1874 12.8993 18.1874 12.7501C18.1874 12.6009 18.2467 12.4578 18.3521 12.3523C18.4576 12.2469 18.6007 12.1876 18.7499 12.1876H20.4374V10.5001C20.4374 10.3509 20.4967 10.2078 20.6021 10.1023C20.7076 9.99686 20.8507 9.93759 20.9999 9.93759C21.1491 9.93759 21.2922 9.99686 21.3976 10.1023C21.5031 10.2078 21.5624 10.3509 21.5624 10.5001V12.1876H23.2499C23.3991 12.1876 23.5422 12.2469 23.6476 12.3523C23.7531 12.4578 23.8124 12.6009 23.8124 12.7501ZM18.4302 18.3882C18.4804 18.4444 18.5188 18.51 18.5431 18.5813C18.5674 18.6525 18.5772 18.7279 18.5718 18.803C18.5665 18.8781 18.5461 18.9514 18.5119 19.0184C18.4777 19.0855 18.4304 19.145 18.3728 19.1935C18.3152 19.242 18.2484 19.2783 18.1765 19.3005C18.1045 19.3227 18.0288 19.3302 17.9539 19.3226C17.879 19.315 17.8064 19.2924 17.7404 19.2563C17.6744 19.2201 17.6163 19.171 17.5696 19.112C15.6468 16.8235 13.0021 15.5626 10.1249 15.5626C7.24771 15.5626 4.60396 16.8235 2.68021 19.112C2.58276 19.221 2.44665 19.2879 2.30076 19.2983C2.15486 19.3087 2.01065 19.2618 1.89871 19.1677C1.78676 19.0736 1.71589 18.9395 1.70112 18.794C1.68635 18.6485 1.72884 18.5029 1.81959 18.3882C3.29427 16.6323 5.15615 15.4201 7.21865 14.836C5.99996 14.1876 5.03309 13.1503 4.47185 11.8891C3.91062 10.6279 3.78726 9.21527 4.12139 7.87588C4.45552 6.53648 5.22795 5.34729 6.3158 4.49748C7.40366 3.64766 8.74446 3.18604 10.1249 3.18604C11.5053 3.18604 12.8461 3.64766 13.934 4.49748C15.0219 5.34729 15.7943 6.53648 16.1284 7.87588C16.4625 9.21527 16.3392 10.6279 15.7779 11.8891C15.2167 13.1503 14.2498 14.1876 13.0311 14.836C15.0936 15.4201 16.9555 16.6323 18.4302 18.3882ZM10.1249 14.4376C11.1262 14.4376 12.1049 14.1407 12.9375 13.5844C13.77 13.0281 14.4189 12.2375 14.802 11.3124C15.1852 10.3874 15.2855 9.36948 15.0901 8.38745C14.8948 7.40542 14.4126 6.50337 13.7046 5.79537C12.9966 5.08736 12.0946 4.60521 11.1125 4.40987C10.1305 4.21453 9.11262 4.31479 8.18756 4.69795C7.26251 5.08112 6.47186 5.73 5.91558 6.56252C5.35931 7.39504 5.0624 8.37383 5.0624 9.37509C5.06389 10.7173 5.59773 12.0041 6.54682 12.9532C7.4959 13.9023 8.7827 14.4361 10.1249 14.4376Z" fill="black"/>
</svg>
