<svg width="24" height="24" viewBox="0 0 24 24" fill="none" xmlns="http://www.w3.org/2000/svg">
<path d="M13.0311 14.836C14.2498 14.1876 15.2166 13.1503 15.7779 11.8891C16.3391 10.6279 16.4625 9.21527 16.1283 7.87588C15.7942 6.53648 15.0218 5.34729 13.9339 4.49748C12.8461 3.64766 11.5053 3.18604 10.1248 3.18604C8.74438 3.18604 7.40358 3.64766 6.31573 4.49748C5.22787 5.34729 4.45544 6.53648 4.12131 7.87588C3.78718 9.21527 3.91054 10.6279 4.47178 11.8891C5.03301 13.1503 5.99988 14.1876 7.21857 14.836C5.15607 15.4201 3.29232 16.6323 1.81763 18.3882C1.72689 18.5029 1.6844 18.6485 1.69917 18.794C1.71394 18.9395 1.78481 19.0736 1.89675 19.1677C2.0087 19.2618 2.15291 19.3087 2.29881 19.2983C2.4447 19.2879 2.58081 19.221 2.67826 19.112C4.60388 16.8226 7.24763 15.5626 10.1248 15.5626C13.002 15.5626 15.6467 16.8226 17.5695 19.112C17.6162 19.171 17.6743 19.2201 17.7403 19.2563C17.8063 19.2924 17.879 19.315 17.9539 19.3226C18.0288 19.3302 18.1044 19.3227 18.1764 19.3005C18.2483 19.2783 18.3151 19.242 18.3727 19.1935C18.4303 19.145 18.4776 19.0855 18.5118 19.0184C18.546 18.9514 18.5664 18.8781 18.5717 18.803C18.5771 18.7279 18.5673 18.6525 18.543 18.5813C18.5187 18.51 18.4803 18.4444 18.4301 18.3882C16.9554 16.6323 15.0936 15.4201 13.0311 14.836ZM5.06232 9.37509C5.06232 8.37383 5.35923 7.39504 5.91551 6.56252C6.47178 5.73 7.26244 5.08112 8.18749 4.69795C9.11254 4.31479 10.1304 4.21453 11.1125 4.40987C12.0945 4.60521 12.9965 5.08736 13.7045 5.79537C14.4126 6.50337 14.8947 7.40542 15.09 8.38745C15.2854 9.36948 15.1851 10.3874 14.802 11.3124C14.4188 12.2375 13.7699 13.0281 12.9374 13.5844C12.1049 14.1407 11.1261 14.4376 10.1248 14.4376C8.78262 14.4361 7.49582 13.9023 6.54674 12.9532C5.59766 12.0041 5.06381 10.7173 5.06232 9.37509ZM23.6473 12.3976L20.6473 15.3976C20.5419 15.5029 20.3989 15.5621 20.2498 15.5621C20.1008 15.5621 19.9578 15.5029 19.8523 15.3976L18.3523 13.8976C18.253 13.791 18.1989 13.6499 18.2014 13.5042C18.204 13.3585 18.263 13.2194 18.3661 13.1164C18.4692 13.0133 18.6082 12.9543 18.7539 12.9517C18.8997 12.9491 19.0407 13.0032 19.1473 13.1026L20.2498 14.2042L22.8523 11.6026C22.9038 11.5473 22.9659 11.503 23.0349 11.4723C23.1039 11.4415 23.1784 11.425 23.2539 11.4236C23.3295 11.4223 23.4045 11.4362 23.4745 11.4645C23.5446 11.4928 23.6082 11.5349 23.6616 11.5883C23.715 11.6417 23.7571 11.7054 23.7854 11.7754C23.8137 11.8454 23.8276 11.9205 23.8263 11.996C23.8249 12.0715 23.8084 12.146 23.7777 12.215C23.7469 12.284 23.7026 12.3461 23.6473 12.3976Z" fill="black"/>
</svg>
