<svg width="24" height="24" viewBox="0 0 24 24" fill="none" xmlns="http://www.w3.org/2000/svg">
<path d="M23.8124 12.7501C23.8124 12.8993 23.7531 13.0424 23.6476 13.1479C23.5422 13.2534 23.3991 13.3126 23.2499 13.3126H18.7499C18.6007 13.3126 18.4576 13.2534 18.3521 13.1479C18.2467 13.0424 18.1874 12.8993 18.1874 12.7501C18.1874 12.6009 18.2467 12.4579 18.3521 12.3524C18.4576 12.2469 18.6007 12.1876 18.7499 12.1876H23.2499C23.3991 12.1876 23.5422 12.2469 23.6476 12.3524C23.7531 12.4579 23.8124 12.6009 23.8124 12.7501ZM18.4302 18.3883C18.4804 18.4444 18.5188 18.51 18.5431 18.5813C18.5674 18.6525 18.5772 18.7279 18.5718 18.803C18.5665 18.8781 18.5461 18.9514 18.5119 19.0185C18.4777 19.0855 18.4304 19.1451 18.3728 19.1935C18.3152 19.242 18.2484 19.2784 18.1765 19.3006C18.1045 19.3227 18.0288 19.3303 17.9539 19.3227C17.879 19.315 17.8064 19.2925 17.7404 19.2563C17.6744 19.2201 17.6163 19.1711 17.5696 19.112C15.6468 16.8236 13.0021 15.5626 10.1249 15.5626C7.24771 15.5626 4.60396 16.8236 2.68021 19.112C2.58276 19.2211 2.44665 19.2879 2.30076 19.2983C2.15486 19.3087 2.01065 19.2619 1.89871 19.1677C1.78676 19.0736 1.71589 18.9396 1.70112 18.794C1.68635 18.6485 1.72884 18.503 1.81959 18.3883C3.29427 16.6323 5.15615 15.4201 7.21865 14.837C5.99996 14.1886 5.03309 13.1513 4.47185 11.8901C3.91062 10.6289 3.78726 9.21625 4.12139 7.87685C4.45552 6.53746 5.22795 5.34827 6.3158 4.49845C7.40366 3.64864 8.74446 3.18701 10.1249 3.18701C11.5053 3.18701 12.8461 3.64864 13.934 4.49845C15.0219 5.34827 15.7943 6.53746 16.1284 7.87685C16.4625 9.21625 16.3392 10.6289 15.7779 11.8901C15.2167 13.1513 14.2498 14.1886 13.0311 14.837C15.0936 15.4201 16.9555 16.6323 18.4302 18.3883ZM10.1249 14.4376C11.1262 14.4376 12.1049 14.1407 12.9375 13.5844C13.77 13.0282 14.4189 12.2375 14.802 11.3125C15.1852 10.3874 15.2855 9.36952 15.0901 8.38749C14.8948 7.40546 14.4126 6.50341 13.7046 5.79541C12.9966 5.0874 12.0946 4.60525 11.1125 4.40991C10.1305 4.21457 9.11262 4.31482 8.18756 4.69799C7.26251 5.08116 6.47186 5.73004 5.91558 6.56256C5.35931 7.39508 5.0624 8.37387 5.0624 9.37513C5.06389 10.7173 5.59773 12.0041 6.54682 12.9532C7.4959 13.9023 8.7827 14.4361 10.1249 14.4376Z" fill="black"/>
</svg>
