<svg width="24" height="24" viewBox="0 0 24 24" fill="none" xmlns="http://www.w3.org/2000/svg">
<path d="M23.6471 12.3975L21.3971 14.6475C21.2917 14.7528 21.1487 14.812 20.9996 14.812C20.8506 14.812 20.7076 14.7528 20.6021 14.6475L18.3521 12.3975C18.2969 12.346 18.2526 12.2839 18.2218 12.2149C18.1911 12.1459 18.1745 12.0714 18.1732 11.9959C18.1719 11.9203 18.1858 11.8453 18.2141 11.7753C18.2423 11.7052 18.2844 11.6416 18.3379 11.5882C18.3913 11.5348 18.4549 11.4927 18.5249 11.4644C18.595 11.4361 18.67 11.4222 18.7455 11.4235C18.8211 11.4249 18.8955 11.4414 18.9645 11.4721C19.0335 11.5029 19.0956 11.5472 19.1471 11.6025L20.4371 12.8915V12C20.4379 10.2135 19.8717 8.47281 18.8199 7.02873C17.7681 5.58465 16.2851 4.51168 14.5845 3.96438C12.8839 3.41707 11.0535 3.42368 9.35685 3.98325C7.66024 4.54282 6.18503 5.62647 5.1437 7.0781C5.10163 7.14056 5.04744 7.19393 4.98436 7.23505C4.92128 7.27617 4.85058 7.30421 4.77645 7.3175C4.70233 7.33079 4.6263 7.32906 4.55285 7.31241C4.47941 7.29577 4.41006 7.26455 4.34891 7.2206C4.28776 7.17665 4.23606 7.12087 4.19687 7.05657C4.15768 6.99227 4.1318 6.92075 4.12076 6.84626C4.10972 6.77177 4.11376 6.69582 4.13262 6.62292C4.15149 6.55001 4.1848 6.48164 4.23058 6.42185C5.41089 4.77709 7.08274 3.54936 9.00537 2.91545C10.928 2.28155 13.0022 2.27418 14.9293 2.89441C16.8564 3.51464 18.5369 4.73046 19.7289 6.3668C20.9209 8.00313 21.5628 9.97553 21.5621 12V12.8915L22.8521 11.6025C22.9036 11.5472 22.9657 11.5029 23.0347 11.4721C23.1037 11.4414 23.1782 11.4249 23.2537 11.4235C23.3293 11.4222 23.4043 11.4361 23.4743 11.4644C23.5444 11.4927 23.608 11.5348 23.6614 11.5882C23.7148 11.6416 23.7569 11.7052 23.7852 11.7753C23.8135 11.8453 23.8274 11.9203 23.8261 11.9959C23.8248 12.0714 23.8082 12.1459 23.7775 12.2149C23.7467 12.2839 23.7024 12.346 23.6471 12.3975ZM19.7668 17.5781C18.5863 19.2221 16.9145 20.449 14.9922 21.0824C13.07 21.7158 10.9963 21.723 9.06968 21.1028C7.14308 20.4827 5.46293 19.2673 4.27106 17.6315C3.07919 15.9957 2.43708 14.0239 2.43714 12V11.1084L1.14714 12.3975C1.04051 12.4968 0.899475 12.5509 0.753749 12.5484C0.608023 12.5458 0.468984 12.4868 0.365924 12.3837C0.262865 12.2806 0.203831 12.1416 0.20126 11.9959C0.198688 11.8501 0.252781 11.7091 0.352141 11.6025L2.60214 9.35248C2.70761 9.24714 2.85058 9.18797 2.99964 9.18797C3.1487 9.18797 3.29167 9.24714 3.39714 9.35248L5.64714 11.6025C5.70241 11.654 5.74673 11.7161 5.77748 11.7851C5.80822 11.8541 5.82475 11.9286 5.82608 12.0041C5.82742 12.0796 5.81352 12.1546 5.78523 12.2247C5.75694 12.2947 5.71483 12.3583 5.66142 12.4118C5.60801 12.4652 5.54438 12.5073 5.47434 12.5356C5.4043 12.5639 5.32928 12.5778 5.25375 12.5764C5.17822 12.5751 5.10374 12.5586 5.03474 12.5278C4.96574 12.4971 4.90364 12.4527 4.85214 12.3975L3.56214 11.1084V12C3.56055 14.1489 4.38215 16.2168 5.85808 17.7787C6.74189 16.4045 8.06295 15.3681 9.60808 14.8369C8.83761 14.3237 8.25273 13.5762 7.9399 12.7049C7.62707 11.8337 7.60291 10.8849 7.87098 9.9988C8.13905 9.11274 8.68513 8.33646 9.42848 7.78473C10.1718 7.23301 11.073 6.93512 11.9987 6.93512C12.9244 6.93512 13.8256 7.23301 14.5689 7.78473C15.3123 8.33646 15.8584 9.11274 16.1264 9.9988C16.3945 10.8849 16.3703 11.8337 16.0575 12.7049C15.7447 13.5762 15.1598 14.3237 14.3893 14.8369C15.935 15.3686 17.2562 16.406 18.1393 17.7815C18.395 17.5111 18.6324 17.2239 18.85 16.9219C18.892 16.8594 18.9462 16.806 19.0093 16.7649C19.0724 16.7238 19.1431 16.6957 19.2172 16.6825C19.2913 16.6692 19.3674 16.6709 19.4408 16.6875C19.5142 16.7042 19.5836 16.7354 19.6447 16.7794C19.7059 16.8233 19.7576 16.8791 19.7968 16.9434C19.836 17.0077 19.8619 17.0792 19.8729 17.1537C19.8839 17.2282 19.8799 17.3041 19.861 17.377C19.8422 17.4499 19.8089 17.5183 19.7631 17.5781H19.7668ZM11.9996 14.4375C12.6301 14.4375 13.2463 14.2505 13.7705 13.9003C14.2947 13.55 14.7033 13.0522 14.9445 12.4698C15.1858 11.8873 15.2489 11.2464 15.1259 10.6281C15.0029 10.0098 14.6993 9.44185 14.2535 8.99607C13.8078 8.55029 13.2398 8.24671 12.6215 8.12372C12.0032 8.00073 11.3623 8.06386 10.7798 8.30511C10.1974 8.54636 9.69958 8.95491 9.34933 9.4791C8.99908 10.0033 8.81214 10.6195 8.81214 11.25C8.81214 12.0954 9.14797 12.9061 9.74574 13.5039C10.3435 14.1017 11.1543 14.4375 11.9996 14.4375ZM11.9996 20.4375C13.9296 20.4357 15.8009 19.7741 17.3031 18.5625C16.753 17.6475 15.9756 16.8904 15.0463 16.3648C14.1171 15.8393 13.0677 15.563 12.0001 15.563C10.9325 15.563 9.88311 15.8393 8.95388 16.3648C8.02464 16.8904 7.2472 17.6475 6.69714 18.5625C8.1966 19.7783 10.0692 20.4405 11.9996 20.4375Z" fill="black"/>
</svg>
