<svg width="24" height="24" viewBox="0 0 24 24" fill="none" xmlns="http://www.w3.org/2000/svg">
<path d="M15.9379 5.25023C15.9379 5.10104 15.9972 4.95797 16.1027 4.85248C16.2082 4.74699 16.3512 4.68773 16.5004 4.68773H21.0004C21.1496 4.68773 21.2927 4.74699 21.3982 4.85248C21.5037 4.95797 21.5629 5.10104 21.5629 5.25023C21.5629 5.39941 21.5037 5.54249 21.3982 5.64798C21.2927 5.75347 21.1496 5.81273 21.0004 5.81273H16.5004C16.3512 5.81273 16.2082 5.75347 16.1027 5.64798C15.9972 5.54249 15.9379 5.39941 15.9379 5.25023ZM21.0182 8.81273C21.7154 10.7891 21.7433 12.9398 21.0977 14.9336C20.4521 16.9274 19.1688 18.6535 17.4455 19.8461C15.7223 21.0387 13.6546 21.6315 11.5612 21.5333C9.46786 21.435 7.46486 20.6511 5.86088 19.3023C4.2569 17.9535 3.14094 16.1148 2.68495 14.0693C2.22895 12.0238 2.45822 9.88511 3.33744 7.98277C4.21666 6.08043 5.69703 4.51998 7.55046 3.54185C9.40389 2.56373 11.5275 2.22221 13.5942 2.56992C13.6681 2.58099 13.7391 2.60669 13.803 2.64551C13.8669 2.68433 13.9224 2.7355 13.9663 2.79603C14.0102 2.85656 14.0415 2.92522 14.0586 2.99801C14.0756 3.07081 14.078 3.14627 14.0655 3.21998C14.053 3.29369 14.026 3.36419 13.986 3.42733C13.946 3.49048 13.8938 3.54501 13.8324 3.58775C13.7711 3.63048 13.7018 3.66056 13.6287 3.67623C13.5556 3.69189 13.4801 3.69283 13.4067 3.67898C12.9419 3.60174 12.4716 3.56286 12.0004 3.56273C10.3535 3.56186 8.74235 4.04327 7.36587 4.94753C5.98939 5.8518 4.90782 7.13933 4.25468 8.65122C3.60153 10.1631 3.40539 11.8331 3.69046 13.4552C3.97554 15.0773 4.72936 16.5804 5.85887 17.779C6.74268 16.4047 8.06374 15.3684 9.60887 14.8371C8.8384 14.3239 8.25352 13.5765 7.94069 12.7052C7.62786 11.8339 7.6037 10.8851 7.87177 9.99905C8.13984 9.11299 8.68592 8.33671 9.42927 7.78499C10.1726 7.23326 11.0738 6.93537 11.9995 6.93537C12.9252 6.93537 13.8264 7.23326 14.5697 7.78499C15.3131 8.33671 15.8591 9.11299 16.1272 9.99905C16.3953 10.8851 16.3711 11.8339 16.0583 12.7052C15.7455 13.5765 15.1606 14.3239 14.3901 14.8371C15.9352 15.3684 17.2563 16.4047 18.1401 17.779C19.2025 16.6518 19.9341 15.2539 20.2548 13.7385C20.5754 12.2231 20.4727 10.6486 19.9579 9.18773C19.9312 9.11763 19.9188 9.0429 19.9214 8.96794C19.924 8.89297 19.9416 8.81928 19.9731 8.75121C20.0046 8.68313 20.0494 8.62204 20.1048 8.57154C20.1603 8.52103 20.2253 8.48213 20.296 8.45712C20.3667 8.43211 20.4417 8.42149 20.5166 8.4259C20.5915 8.43031 20.6647 8.44965 20.732 8.48278C20.7993 8.51592 20.8593 8.56218 20.9085 8.61884C20.9576 8.6755 20.9949 8.74143 21.0182 8.81273ZM12.0004 14.4377C12.6309 14.4377 13.2471 14.2508 13.7713 13.9005C14.2955 13.5503 14.704 13.0525 14.9453 12.47C15.1866 11.8876 15.2497 11.2467 15.1267 10.6284C15.0037 10.0101 14.7001 9.4421 14.2543 8.99633C13.8086 8.55055 13.2406 8.24697 12.6223 8.12398C12.004 8.00098 11.3631 8.06411 10.7806 8.30536C10.1982 8.54662 9.70037 8.95517 9.35012 9.47935C8.99987 10.0035 8.81293 10.6198 8.81293 11.2502C8.81293 12.0956 9.14876 12.9064 9.74653 13.5041C10.3443 14.1019 11.1551 14.4377 12.0004 14.4377ZM12.0004 20.4377C13.9309 20.4407 15.8035 19.7786 17.3029 18.5627C16.7528 17.648 15.9754 16.8911 15.0463 16.3657C14.1171 15.8402 13.0679 15.5641 12.0004 15.5641C10.933 15.5641 9.88373 15.8402 8.95459 16.3657C8.02545 16.8911 7.24805 17.648 6.69793 18.5627C8.19739 19.7786 10.07 20.4407 12.0004 20.4377Z" fill="black"/>
</svg>
