<svg width="24" height="24" viewBox="0 0 24 24" fill="none" xmlns="http://www.w3.org/2000/svg">
<path d="M10.5558 14.853C11.6003 14.261 12.4195 13.3398 12.8856 12.2333C13.3517 11.1268 13.4384 9.8971 13.1323 8.73611C12.8261 7.57511 12.1443 6.5481 11.1932 5.81528C10.2421 5.08247 9.0752 4.68506 7.87453 4.68506C6.67385 4.68506 5.50693 5.08247 4.55582 5.81528C3.60471 6.5481 2.9229 7.57511 2.61675 8.73611C2.31061 9.8971 2.39734 11.1268 2.86342 12.2333C3.3295 13.3398 4.14872 14.261 5.19328 14.853C3.25731 15.4702 1.59472 16.7386 0.487963 18.4427C0.406409 18.5677 0.377828 18.7199 0.408508 18.8659C0.439188 19.0119 0.526615 19.1398 0.651557 19.2213C0.776499 19.3029 0.928721 19.3314 1.07474 19.3008C1.22075 19.2701 1.3486 19.1827 1.43015 19.0577C2.12822 17.9844 3.08331 17.1025 4.20871 16.4919C5.33411 15.8814 6.59418 15.5616 7.87453 15.5616C9.15487 15.5616 10.4149 15.8814 11.5403 16.4919C12.6657 17.1025 13.6208 17.9844 14.3189 19.0577C14.4058 19.169 14.5313 19.2436 14.6706 19.2667C14.81 19.2897 14.9528 19.2595 15.0709 19.182C15.189 19.1046 15.2736 18.9855 15.308 18.8486C15.3423 18.7116 15.3239 18.5667 15.2564 18.4427C14.1508 16.7395 12.49 15.4712 10.5558 14.853ZM3.56203 10.1252C3.56203 9.27228 3.81495 8.4385 4.28881 7.72932C4.76268 7.02013 5.4362 6.46738 6.2242 6.14098C7.01221 5.81458 7.87931 5.72918 8.71585 5.89558C9.5524 6.06197 10.3208 6.4727 10.9239 7.07581C11.527 7.67893 11.9378 8.44734 12.1042 9.28389C12.2706 10.1204 12.1852 10.9875 11.8588 11.7755C11.5324 12.5635 10.9796 13.2371 10.2704 13.7109C9.56124 14.1848 8.72746 14.4377 7.87453 14.4377C6.73124 14.4362 5.6352 13.9814 4.82677 13.173C4.01834 12.3645 3.56351 11.2685 3.56203 10.1252ZM23.3433 19.219C23.2184 19.3004 23.0664 19.329 22.9205 19.2984C22.7746 19.2678 22.6468 19.1806 22.5652 19.0558C21.8683 17.9824 20.9139 17.1005 19.789 16.4903C18.664 15.8802 17.4043 15.5613 16.1245 15.5627C15.9753 15.5627 15.8323 15.5034 15.7268 15.398C15.6213 15.2925 15.562 15.1494 15.562 15.0002C15.562 14.851 15.6213 14.708 15.7268 14.6025C15.8323 14.497 15.9753 14.4377 16.1245 14.4377C16.7596 14.4371 17.3866 14.2962 17.9609 14.0251C18.5352 13.7541 19.0426 13.3595 19.4467 12.8696C19.8508 12.3798 20.1418 11.8067 20.2988 11.1914C20.4558 10.5761 20.475 9.93365 20.3549 9.31005C20.2349 8.68645 19.9786 8.09706 19.6044 7.58398C19.2302 7.0709 18.7473 6.6468 18.1902 6.34198C17.6331 6.03716 17.0155 5.85915 16.3816 5.82065C15.7477 5.78215 15.1132 5.88412 14.5233 6.11927C14.4546 6.1474 14.381 6.16166 14.3067 6.16121C14.2325 6.16076 14.1591 6.14563 14.0907 6.11667C14.0224 6.08771 13.9604 6.04551 13.9085 5.9925C13.8565 5.93949 13.8155 5.87671 13.7879 5.80779C13.7603 5.73887 13.7467 5.66517 13.7477 5.59094C13.7487 5.51671 13.7644 5.44341 13.7939 5.37528C13.8234 5.30715 13.8661 5.24553 13.9195 5.19398C13.9729 5.14242 14.036 5.10195 14.1052 5.0749C15.3847 4.56478 16.8101 4.55929 18.0935 5.05953C19.3769 5.55977 20.4227 6.52845 21.0195 7.76991C21.6163 9.01137 21.7197 10.4331 21.3088 11.7478C20.8979 13.0626 20.0033 14.1724 18.8058 14.853C20.7417 15.4702 22.4043 16.7386 23.5111 18.4427C23.5915 18.568 23.619 18.72 23.5876 18.8655C23.5561 19.011 23.4683 19.1381 23.3433 19.219Z" fill="black"/>
</svg>
