<svg width="24" height="24" viewBox="0 0 24 24" fill="none" xmlns="http://www.w3.org/2000/svg">
<path d="M13.0311 15.587C14.2498 14.9386 15.2166 13.9013 15.7779 12.6401C16.3391 11.3789 16.4625 9.96625 16.1283 8.62685C15.7942 7.28746 15.0218 6.09827 13.9339 5.24845C12.8461 4.39864 11.5053 3.93701 10.1248 3.93701C8.74438 3.93701 7.40358 4.39864 6.31573 5.24845C5.22787 6.09827 4.45544 7.28746 4.12131 8.62685C3.78718 9.96625 3.91054 11.3789 4.47178 12.6401C5.03301 13.9013 5.99988 14.9386 7.21857 15.587C5.15607 16.1701 3.29232 17.3823 1.81763 19.1383C1.72689 19.253 1.6844 19.3985 1.69917 19.544C1.71394 19.6896 1.78481 19.8236 1.89675 19.9177C2.0087 20.0119 2.15291 20.0587 2.29881 20.0483C2.4447 20.0379 2.58081 19.9711 2.67826 19.862C4.60388 17.5736 7.24763 16.3126 10.1248 16.3126C13.002 16.3126 15.6467 17.5736 17.5695 19.862C17.6162 19.9211 17.6743 19.9701 17.7403 20.0063C17.8063 20.0425 17.879 20.065 17.9539 20.0727C18.0288 20.0803 18.1044 20.0727 18.1764 20.0506C18.2483 20.0284 18.3151 19.992 18.3727 19.9435C18.4303 19.8951 18.4776 19.8355 18.5118 19.7685C18.546 19.7014 18.5664 19.6281 18.5717 19.553C18.5771 19.4779 18.5673 19.4025 18.543 19.3313C18.5187 19.26 18.4803 19.1944 18.4301 19.1383C16.9554 17.3823 15.0936 16.1701 13.0311 15.587ZM5.06232 10.1251C5.06232 9.12387 5.35923 8.14508 5.91551 7.31256C6.47178 6.48004 7.26244 5.83116 8.18749 5.44799C9.11254 5.06482 10.1304 4.96457 11.1125 5.15991C12.0945 5.35525 12.9965 5.8374 13.7045 6.5454C14.4126 7.25341 14.8947 8.15546 15.09 9.13749C15.2854 10.1195 15.1851 11.1374 14.802 12.0625C14.4188 12.9875 13.7699 13.7782 12.9374 14.3344C12.1049 14.8907 11.1261 15.1876 10.1248 15.1876C8.78262 15.1861 7.49582 14.6523 6.54674 13.7032C5.59766 12.7541 5.06381 11.4673 5.06232 10.1251ZM19.2673 6.2242C19.7919 7.45783 20.0623 8.7846 20.0623 10.1251C20.0623 11.4657 19.7919 12.7924 19.2673 14.0261C19.2018 14.1519 19.0912 14.2483 18.9576 14.2961C18.824 14.3438 18.6774 14.3393 18.547 14.2835C18.4165 14.2276 18.3121 14.1246 18.2544 13.995C18.1968 13.8654 18.1902 13.7187 18.2361 13.5845C18.7013 12.4905 18.9411 11.3139 18.9411 10.1251C18.9411 8.93633 18.7013 7.75974 18.2361 6.66576C18.1902 6.53152 18.1968 6.38491 18.2544 6.2553C18.3121 6.12569 18.4165 6.02264 18.547 5.96681C18.6774 5.91097 18.824 5.90647 18.9576 5.9542C19.0912 6.00193 19.2018 6.09837 19.2673 6.2242ZM23.0623 10.1251C23.0658 11.8775 22.711 13.612 22.0198 15.2223C21.9552 15.3502 21.8443 15.4486 21.7096 15.4975C21.5749 15.5464 21.4267 15.542 21.2951 15.4853C21.1636 15.4286 21.0586 15.3239 21.0016 15.1924C20.9446 15.061 20.94 14.9127 20.9886 14.7779C21.6165 13.3071 21.9401 11.7244 21.9401 10.1251C21.9401 8.52588 21.6165 6.94316 20.9886 5.47232C20.94 5.33755 20.9446 5.18932 21.0016 5.05787C21.0586 4.92642 21.1636 4.82166 21.2951 4.76496C21.4267 4.70827 21.5749 4.70391 21.7096 4.75278C21.8443 4.80165 21.9552 4.90007 22.0198 5.02795C22.711 6.63822 23.0658 8.37279 23.0623 10.1251Z" fill="black"/>
</svg>
