<svg width="24" height="24" viewBox="0 0 24 24" fill="none" xmlns="http://www.w3.org/2000/svg">
<path d="M15.9372 5.25011C15.9372 5.10092 15.9965 4.95785 16.102 4.85236C16.2075 4.74687 16.3505 4.68761 16.4997 4.68761H18.1872V3.00011C18.1872 2.85092 18.2465 2.70785 18.352 2.60236C18.4575 2.49687 18.6005 2.43761 18.7497 2.43761C18.8989 2.43761 19.042 2.49687 19.1475 2.60236C19.253 2.70785 19.3122 2.85092 19.3122 3.00011V4.68761H20.9997C21.1489 4.68761 21.292 4.74687 21.3975 4.85236C21.503 4.95785 21.5622 5.10092 21.5622 5.25011C21.5622 5.39929 21.503 5.54236 21.3975 5.64785C21.292 5.75334 21.1489 5.81261 20.9997 5.81261H19.3122V7.50011C19.3122 7.64929 19.253 7.79236 19.1475 7.89785C19.042 8.00334 18.8989 8.06261 18.7497 8.06261C18.6005 8.06261 18.4575 8.00334 18.352 7.89785C18.2465 7.79236 18.1872 7.64929 18.1872 7.50011V5.81261H16.4997C16.3505 5.81261 16.2075 5.75334 16.102 5.64785C15.9965 5.54236 15.9372 5.39929 15.9372 5.25011ZM21.43 10.4064C21.7659 12.4035 21.4584 14.4557 20.5519 16.2667C19.6454 18.0777 18.1868 19.5538 16.3867 20.4818C14.5867 21.4098 12.5382 21.7417 10.5372 21.4297C8.53622 21.1176 6.68614 20.1777 5.25411 18.7457C3.82208 17.3137 2.88219 15.4636 2.57015 13.4626C2.2581 11.4616 2.59005 9.41317 3.51805 7.6131C4.44606 5.81304 5.92211 4.35446 7.7331 3.44796C9.54409 2.54146 11.5963 2.23394 13.5935 2.56979C13.6674 2.58086 13.7384 2.60656 13.8023 2.64539C13.8662 2.68421 13.9217 2.73538 13.9656 2.79591C14.0094 2.85643 14.0408 2.9251 14.0579 2.99789C14.0749 3.07068 14.0773 3.14614 14.0648 3.21986C14.0523 3.29357 14.0253 3.36406 13.9853 3.42721C13.9453 3.49035 13.8931 3.54489 13.8317 3.58763C13.7704 3.63036 13.7011 3.66044 13.628 3.67611C13.5549 3.69177 13.4794 3.6927 13.406 3.67886C12.9412 3.60162 12.4709 3.56274 11.9997 3.56261C10.3528 3.56174 8.74164 4.04315 7.36516 4.94741C5.98868 5.85167 4.90711 7.13921 4.25396 8.65109C3.60081 10.163 3.40467 11.833 3.68975 13.4551C3.97483 15.0772 4.72865 16.5803 5.85816 17.7789C6.74197 16.4046 8.06303 15.3682 9.60816 14.837C8.83769 14.3238 8.2528 13.5763 7.93998 12.7051C7.62715 11.8338 7.60298 10.885 7.87106 9.99893C8.13913 9.11287 8.68521 8.33659 9.42856 7.78486C10.1719 7.23314 11.0731 6.93525 11.9988 6.93525C12.9245 6.93525 13.8257 7.23314 14.569 7.78486C15.3124 8.33659 15.8584 9.11287 16.1265 9.99893C16.3946 10.885 16.3704 11.8338 16.0576 12.7051C15.7448 13.5763 15.1599 14.3238 14.3894 14.837C15.9345 15.3682 17.2556 16.4046 18.1394 17.7789C19.616 16.2172 20.4383 14.1493 20.4372 12.0001C20.437 11.529 20.3982 11.0586 20.321 10.5939C20.3071 10.5204 20.3081 10.4449 20.3237 10.3718C20.3394 10.2987 20.3695 10.2295 20.4122 10.1681C20.4549 10.1068 20.5095 10.0546 20.5726 10.0145C20.6358 9.97452 20.7063 9.94749 20.78 9.93503C20.8537 9.92257 20.9291 9.92492 21.0019 9.94196C21.0747 9.959 21.1434 9.99038 21.2039 10.0343C21.2644 10.0781 21.3156 10.1337 21.3544 10.1975C21.3933 10.2614 21.419 10.3324 21.43 10.4064ZM11.9997 14.4376C12.6301 14.4376 13.2464 14.2507 13.7706 13.9004C14.2948 13.5502 14.7033 13.0523 14.9446 12.4699C15.1858 11.8875 15.249 11.2466 15.126 10.6283C15.003 10.0099 14.6994 9.44198 14.2536 8.9962C13.8078 8.55042 13.2399 8.24684 12.6216 8.12385C12.0033 8.00086 11.3624 8.06399 10.7799 8.30524C10.1975 8.54649 9.69966 8.95504 9.34941 9.47923C8.99916 10.0034 8.81222 10.6197 8.81222 11.2501C8.81222 12.0955 9.14804 12.9062 9.74582 13.504C10.3436 14.1018 11.1543 14.4376 11.9997 14.4376ZM11.9997 20.4376C13.9302 20.4406 15.8028 19.7785 17.3022 18.5626C16.7521 17.6479 15.9747 16.891 15.0456 16.3655C14.1164 15.8401 13.0671 15.5639 11.9997 15.5639C10.9323 15.5639 9.88302 15.8401 8.95388 16.3655C8.02474 16.891 7.24733 17.6479 6.69722 18.5626C8.19668 19.7785 10.0693 20.4406 11.9997 20.4376Z" fill="black"/>
</svg>
