<svg width="24" height="24" viewBox="0 0 24 24" fill="none" xmlns="http://www.w3.org/2000/svg">
<path d="M9.20544 3.42549C9.18696 3.35396 9.18276 3.27949 9.19307 3.20633C9.20338 3.13318 9.228 3.06277 9.26552 2.99913C9.30304 2.9355 9.35273 2.87987 9.41175 2.83544C9.47077 2.79101 9.53796 2.75863 9.6095 2.74017C11.1775 2.33531 12.8227 2.33531 14.3907 2.74017C14.4647 2.75631 14.5346 2.78719 14.5963 2.83097C14.658 2.87476 14.7103 2.93054 14.7499 2.99499C14.7896 3.05944 14.8158 3.13122 14.8271 3.20605C14.8383 3.28088 14.8344 3.3572 14.8154 3.43047C14.7965 3.50373 14.763 3.57242 14.7169 3.63242C14.6708 3.69243 14.6131 3.74251 14.5471 3.77969C14.4812 3.81686 14.4085 3.84035 14.3333 3.84876C14.2581 3.85716 14.182 3.85031 14.1095 3.82861C12.7259 3.47138 11.2743 3.47138 9.89075 3.82861C9.74642 3.86595 9.59316 3.84447 9.46466 3.76888C9.33616 3.69329 9.24292 3.56978 9.20544 3.42549ZM3.17731 10.1324C3.22612 10.1461 3.2766 10.153 3.32731 10.153C3.45031 10.1529 3.5699 10.1126 3.66777 10.0381C3.76563 9.96356 3.83639 9.85903 3.86919 9.74049C4.2529 8.36596 4.97897 7.11121 5.9795 6.09361C6.03127 6.04092 6.07215 5.97854 6.09981 5.91005C6.12748 5.84156 6.14138 5.76829 6.14073 5.69442C6.14008 5.62055 6.12488 5.54754 6.09601 5.47955C6.06714 5.41155 6.02516 5.34991 5.97247 5.29814C5.91977 5.24637 5.8574 5.20549 5.78891 5.17782C5.72041 5.15016 5.64714 5.13626 5.57328 5.13691C5.49941 5.13756 5.4264 5.15276 5.3584 5.18163C5.29041 5.2105 5.22877 5.25248 5.177 5.30517C4.04285 6.45928 3.21972 7.88201 2.7845 9.44049C2.76485 9.51171 2.75943 9.5861 2.76853 9.65942C2.77764 9.73274 2.80111 9.80354 2.83758 9.86779C2.87406 9.93204 2.92284 9.98848 2.98113 10.0339C3.03942 10.0793 3.10608 10.1127 3.17731 10.1324ZM14.1095 20.1702C12.7259 20.5274 11.2743 20.5274 9.89075 20.1702C9.81826 20.1485 9.74214 20.1416 9.66694 20.15C9.59174 20.1584 9.51901 20.1819 9.4531 20.2191C9.38719 20.2563 9.32946 20.3064 9.28336 20.3664C9.23726 20.4264 9.20375 20.4951 9.18482 20.5683C9.16589 20.6416 9.16193 20.7179 9.17319 20.7927C9.18445 20.8676 9.21069 20.9393 9.25034 21.0038C9.28999 21.0682 9.34223 21.124 9.40394 21.1678C9.46566 21.2116 9.53557 21.2425 9.6095 21.2586C11.1775 21.6635 12.8227 21.6635 14.3907 21.2586C14.5352 21.2213 14.6589 21.1282 14.7347 20.9996C14.8105 20.8711 14.8321 20.7178 14.7948 20.5733C14.7575 20.4288 14.6644 20.3051 14.5358 20.2293C14.4073 20.1536 14.254 20.1319 14.1095 20.1692V20.1702ZM20.1301 9.74142C20.1629 9.85997 20.2337 9.96449 20.3315 10.039C20.4294 10.1135 20.549 10.1539 20.672 10.1539C20.7227 10.154 20.7732 10.147 20.822 10.1333C20.9657 10.0935 21.0877 9.9982 21.1611 9.86847C21.2346 9.73874 21.2536 9.58514 21.2139 9.44142C20.7809 7.8807 19.9587 6.45552 18.8242 5.29955C18.7184 5.19914 18.5778 5.14375 18.4319 5.14504C18.2861 5.14634 18.1465 5.20423 18.0425 5.3065C17.9385 5.40878 17.8783 5.54743 17.8746 5.69323C17.8709 5.83903 17.924 5.98056 18.0226 6.08799C19.0227 7.10802 19.7478 8.36501 20.1301 9.74142ZM21.2157 14.5592C20.7292 16.3139 19.7507 17.8926 18.3957 19.1089C18.3316 19.1668 18.255 19.2091 18.1718 19.2326C18.0886 19.2561 18.0012 19.2601 17.9162 19.2443C17.8313 19.2286 17.7511 19.1934 17.6819 19.1416C17.6127 19.0899 17.5564 19.0229 17.5173 18.9458C17 17.9269 16.2108 17.0712 15.2369 16.4735C14.2631 15.8757 13.1428 15.5593 12.0001 15.5593C10.8575 15.5593 9.73715 15.8757 8.76332 16.4735C7.78949 17.0712 7.0002 17.9269 6.48294 18.9458C6.44374 19.0228 6.38733 19.0898 6.31807 19.1415C6.2488 19.1932 6.16856 19.2283 6.08356 19.2439C6.04987 19.2503 6.01566 19.2534 5.98137 19.2533C5.84286 19.253 5.70933 19.2016 5.60637 19.1089C4.25069 17.8929 3.27148 16.3141 2.7845 14.5592C2.76297 14.4875 2.75598 14.4123 2.76391 14.3378C2.77185 14.2634 2.79456 14.1913 2.83072 14.1258C2.86688 14.0602 2.91576 14.0026 2.97449 13.9562C3.03322 13.9097 3.10062 13.8755 3.17274 13.8555C3.24487 13.8355 3.32026 13.83 3.39451 13.8395C3.46876 13.849 3.54037 13.8732 3.60515 13.9107C3.66992 13.9482 3.72656 13.9983 3.77173 14.058C3.81691 14.1177 3.84972 14.1858 3.86825 14.2583C4.2344 15.5771 4.9166 16.7867 5.85575 17.7824C6.73894 16.4065 8.06003 15.3685 9.60575 14.8358C8.83528 14.3226 8.25039 13.5751 7.93757 12.7039C7.62474 11.8326 7.60058 10.8838 7.86865 9.99775C8.13672 9.11169 8.6828 8.33541 9.42615 7.78368C10.1695 7.23195 11.0706 6.93407 11.9964 6.93407C12.9221 6.93407 13.8233 7.23195 14.5666 7.78368C15.3099 8.33541 15.856 9.11169 16.1241 9.99775C16.3922 10.8838 16.368 11.8326 16.0552 12.7039C15.7423 13.5751 15.1575 14.3226 14.387 14.8358C15.9327 15.3685 17.2538 16.4065 18.137 17.7824C19.0763 16.7872 19.7585 15.5778 20.1245 14.2592C20.1424 14.1861 20.1748 14.1174 20.2198 14.057C20.2648 13.9967 20.3214 13.946 20.3864 13.9079C20.4513 13.8698 20.5232 13.8452 20.5979 13.8354C20.6725 13.8257 20.7483 13.831 20.8209 13.8511C20.8934 13.8711 20.9612 13.9056 21.0202 13.9523C21.0792 13.9991 21.1282 14.0572 21.1643 14.1232C21.2004 14.1893 21.2229 14.2619 21.2305 14.3368C21.238 14.4117 21.2305 14.4873 21.2082 14.5592H21.2157ZM12.0001 14.4374C12.6306 14.4374 13.2468 14.2504 13.771 13.9002C14.2952 13.5499 14.7037 13.0521 14.945 12.4697C15.1862 11.8872 15.2494 11.2463 15.1264 10.628C15.0034 10.0097 14.6998 9.44174 14.254 8.99596C13.8082 8.55018 13.2403 8.2466 12.622 8.12361C12.0037 8.00062 11.3628 8.06374 10.7803 8.30499C10.1979 8.54625 9.70006 8.9548 9.34981 9.47898C8.99957 10.0032 8.81262 10.6194 8.81262 11.2499C8.81262 12.0952 9.14845 12.906 9.74622 13.5038C10.344 14.1015 11.1547 14.4374 12.0001 14.4374Z" fill="black"/>
</svg>
