<svg width="24" height="24" viewBox="0 0 24 24" fill="none" xmlns="http://www.w3.org/2000/svg">
<path d="M13.0311 14.836C14.2498 14.1876 15.2166 13.1503 15.7779 11.8891C16.3391 10.6279 16.4625 9.21527 16.1283 7.87588C15.7942 6.53648 15.0218 5.34729 13.9339 4.49748C12.8461 3.64766 11.5053 3.18604 10.1248 3.18604C8.74438 3.18604 7.40358 3.64766 6.31573 4.49748C5.22787 5.34729 4.45544 6.53648 4.12131 7.87588C3.78718 9.21527 3.91054 10.6279 4.47178 11.8891C5.03301 13.1503 5.99988 14.1876 7.21857 14.836C5.15607 15.4201 3.29232 16.6323 1.81763 18.3882C1.72689 18.5029 1.6844 18.6485 1.69917 18.794C1.71394 18.9395 1.78481 19.0736 1.89675 19.1677C2.0087 19.2618 2.15291 19.3087 2.29881 19.2983C2.4447 19.2879 2.58081 19.221 2.67826 19.112C4.60295 16.8226 7.24763 15.5626 10.1248 15.5626C13.002 15.5626 15.6467 16.8226 17.5695 19.112C17.6162 19.171 17.6743 19.2201 17.7403 19.2563C17.8063 19.2924 17.879 19.315 17.9539 19.3226C18.0288 19.3302 18.1044 19.3227 18.1764 19.3005C18.2483 19.2783 18.3151 19.242 18.3727 19.1935C18.4303 19.145 18.4776 19.0855 18.5118 19.0184C18.546 18.9514 18.5664 18.8781 18.5717 18.803C18.5771 18.7279 18.5673 18.6525 18.543 18.5813C18.5187 18.51 18.4803 18.4444 18.4301 18.3882C16.9554 16.6323 15.0936 15.4201 13.0311 14.836ZM5.06232 9.37509C5.06232 8.37383 5.35923 7.39504 5.91551 6.56252C6.47178 5.73 7.26244 5.08112 8.18749 4.69795C9.11254 4.31479 10.1304 4.21453 11.1125 4.40987C12.0945 4.60521 12.9965 5.08736 13.7045 5.79537C14.4126 6.50337 14.8947 7.40542 15.09 8.38745C15.2854 9.36948 15.1851 10.3874 14.802 11.3124C14.4188 12.2375 13.7699 13.0281 12.9374 13.5844C12.1049 14.1407 11.1261 14.4376 10.1248 14.4376C8.78262 14.4361 7.49582 13.9023 6.54674 12.9532C5.59766 12.0041 5.06381 10.7173 5.06232 9.37509ZM23.5545 13.5751L22.9995 13.2554C23.0833 12.9237 23.0833 12.5764 22.9995 12.2448L23.5545 11.9251C23.6838 11.8505 23.7782 11.7276 23.8168 11.5834C23.8555 11.4393 23.8354 11.2856 23.7608 11.1563C23.6862 11.0271 23.5633 10.9327 23.4191 10.894C23.2749 10.8553 23.1213 10.8755 22.992 10.9501L22.4361 11.2717C22.1912 11.0335 21.8909 10.8598 21.5623 10.7663V10.1251C21.5623 9.97591 21.5031 9.83284 21.3976 9.72735C21.2921 9.62186 21.149 9.56259 20.9998 9.56259C20.8506 9.56259 20.7076 9.62186 20.6021 9.72735C20.4966 9.83284 20.4373 9.97591 20.4373 10.1251V10.7663C20.1087 10.8598 19.8085 11.0335 19.5636 11.2717L19.0076 10.9501C18.8783 10.8755 18.7247 10.8553 18.5805 10.894C18.4364 10.9327 18.3135 11.0271 18.2389 11.1563C18.1643 11.2856 18.1441 11.4393 18.1828 11.5834C18.2215 11.7276 18.3158 11.8505 18.4451 11.9251L19.0001 12.2448C18.9163 12.5764 18.9163 12.9237 19.0001 13.2554L18.4451 13.5751C18.3158 13.6497 18.2215 13.7726 18.1828 13.9168C18.1441 14.0609 18.1643 14.2146 18.2389 14.3438C18.3135 14.4731 18.4364 14.5675 18.5805 14.6062C18.7247 14.6449 18.8783 14.6247 19.0076 14.5501L19.5636 14.2285C19.8085 14.4667 20.1087 14.6404 20.4373 14.7338V15.3751C20.4373 15.5243 20.4966 15.6674 20.6021 15.7728C20.7076 15.8783 20.8506 15.9376 20.9998 15.9376C21.149 15.9376 21.2921 15.8783 21.3976 15.7728C21.5031 15.6674 21.5623 15.5243 21.5623 15.3751V14.7338C21.8909 14.6404 22.1912 14.4667 22.4361 14.2285L22.992 14.5501C23.1213 14.6247 23.2749 14.6449 23.4191 14.6062C23.5633 14.5675 23.6862 14.4731 23.7608 14.3438C23.8354 14.2146 23.8555 14.0609 23.8168 13.9168C23.7782 13.7726 23.6838 13.6497 23.5545 13.5751ZM20.9998 13.6876C20.8144 13.6876 20.6331 13.6326 20.479 13.5296C20.3248 13.4266 20.2046 13.2802 20.1337 13.1089C20.0627 12.9376 20.0442 12.7491 20.0803 12.5672C20.1165 12.3853 20.2058 12.2183 20.3369 12.0872C20.468 11.9561 20.6351 11.8668 20.8169 11.8306C20.9988 11.7944 21.1873 11.813 21.3586 11.884C21.5299 11.9549 21.6763 12.0751 21.7793 12.2292C21.8823 12.3834 21.9373 12.5647 21.9373 12.7501C21.9373 12.9987 21.8386 13.2372 21.6627 13.413C21.4869 13.5888 21.2485 13.6876 20.9998 13.6876Z" fill="black"/>
</svg>
