<svg width="24" height="24" viewBox="0 0 24 24" fill="none" xmlns="http://www.w3.org/2000/svg">
<path d="M21.3971 18.3975L18.3971 21.3975C18.2905 21.4969 18.1495 21.5509 18.0037 21.5484C17.858 21.5458 17.719 21.4868 17.6159 21.3837C17.5129 21.2806 17.4538 21.1416 17.4513 20.9959C17.4487 20.8502 17.5028 20.7091 17.6021 20.6025L19.6412 18.5625H7.49964C7.35046 18.5625 7.20738 18.5032 7.10189 18.3977C6.9964 18.2923 6.93714 18.1492 6.93714 18V5.10843L4.89714 7.14749C4.79051 7.24685 4.64947 7.30095 4.50375 7.29838C4.35802 7.2958 4.21898 7.23677 4.11592 7.13371C4.01286 7.03065 3.95383 6.89161 3.95126 6.74588C3.94869 6.60016 4.00278 6.45912 4.10214 6.35249L7.10214 3.35249C7.20761 3.24716 7.35058 3.18799 7.49964 3.18799C7.6487 3.18799 7.79167 3.24716 7.89714 3.35249L10.8971 6.35249C10.9524 6.40399 10.9967 6.46609 11.0275 6.53509C11.0582 6.60409 11.0748 6.67857 11.0761 6.7541C11.0774 6.82963 11.0635 6.90465 11.0352 6.97469C11.0069 7.04473 10.9648 7.10836 10.9114 7.16177C10.858 7.21519 10.7944 7.25729 10.7243 7.28559C10.6543 7.31388 10.5793 7.32777 10.5037 7.32644C10.4282 7.3251 10.3537 7.30857 10.2847 7.27783C10.2157 7.24709 10.1536 7.20276 10.1021 7.14749L8.06214 5.10843V17.4375H19.6412L17.6021 15.3975C17.5028 15.2909 17.4487 15.1498 17.4513 15.0041C17.4538 14.8584 17.5129 14.7193 17.6159 14.6163C17.719 14.5132 17.858 14.4542 18.0037 14.4516C18.1495 14.449 18.2905 14.5031 18.3971 14.6025L21.3971 17.6025C21.5025 17.708 21.5616 17.8509 21.5616 18C21.5616 18.1491 21.5025 18.292 21.3971 18.3975Z" fill="black"/>
</svg>
