<svg width="24" height="24" viewBox="0 0 24 24" fill="none" xmlns="http://www.w3.org/2000/svg">
<path d="M18.7499 6.9375C17.7034 6.93849 16.683 7.26376 15.8289 7.86856C14.9749 8.47336 14.3293 9.32795 13.9809 10.3148C13.6326 11.3016 13.5986 12.3721 13.8836 13.379C14.1687 14.3859 14.7588 15.2797 15.5727 15.9375H8.42711C9.35611 15.1868 9.98974 14.1317 10.216 12.9589C10.4422 11.7861 10.2465 10.5711 9.66341 9.52864C9.08033 8.4862 8.14744 7.68351 7.02968 7.26246C5.91193 6.84142 4.68129 6.82916 3.55537 7.22783C2.42944 7.62651 1.48073 8.41045 0.876983 9.44105C0.273234 10.4717 0.0533279 11.6825 0.256145 12.8596C0.458961 14.0367 1.07144 15.1042 1.98529 15.8733C2.89914 16.6424 4.0555 17.0636 5.24992 17.0625H18.7499C20.0926 17.0625 21.3802 16.5291 22.3297 15.5797C23.2791 14.6303 23.8124 13.3427 23.8124 12C23.8124 10.6573 23.2791 9.36967 22.3297 8.42027C21.3802 7.47087 20.0926 6.9375 18.7499 6.9375ZM1.31242 12C1.31242 11.2212 1.54335 10.46 1.97601 9.81244C2.40867 9.16492 3.02362 8.66024 3.74311 8.36222C4.46259 8.0642 5.25429 7.98623 6.01809 8.13816C6.78189 8.29009 7.48349 8.6651 8.03416 9.21577C8.58483 9.76644 8.95984 10.468 9.11177 11.2318C9.2637 11.9956 9.18572 12.7873 8.8877 13.5068C8.58968 14.2263 8.085 14.8413 7.43748 15.2739C6.78996 15.7066 6.02869 15.9375 5.24992 15.9375C4.20563 15.9375 3.20412 15.5227 2.46569 14.7842C1.72727 14.0458 1.31242 13.0443 1.31242 12ZM18.7499 15.9375C17.9712 15.9375 17.2099 15.7066 16.5624 15.2739C15.9148 14.8413 15.4102 14.2263 15.1121 13.5068C14.8141 12.7873 14.7362 11.9956 14.8881 11.2318C15.04 10.468 15.415 9.76644 15.9657 9.21577C16.5164 8.6651 17.218 8.29009 17.9818 8.13816C18.7456 7.98623 19.5373 8.0642 20.2567 8.36222C20.9762 8.66024 21.5912 9.16492 22.0238 9.81244C22.4565 10.46 22.6874 11.2212 22.6874 12C22.6874 13.0443 22.2726 14.0458 21.5342 14.7842C20.7957 15.5227 19.7942 15.9375 18.7499 15.9375Z" fill="black"/>
</svg>
