<svg width="24" height="24" viewBox="0 0 24 24" fill="none" xmlns="http://www.w3.org/2000/svg">
<path d="M22.0377 17.7274L13.8384 3.48958C13.65 3.16937 13.3814 2.9039 13.0589 2.71946C12.7364 2.53501 12.3714 2.43799 11.9999 2.43799C11.6284 2.43799 11.2634 2.53501 10.941 2.71946C10.6185 2.9039 10.3498 3.16937 10.1615 3.48958L1.96212 17.7274C1.78163 18.0363 1.68652 18.3877 1.68652 18.7455C1.68652 19.1033 1.78163 19.4547 1.96212 19.7636C2.14792 20.0861 2.41626 20.3533 2.73953 20.5376C3.06281 20.722 3.42936 20.8169 3.80149 20.8127H20.1984C20.5702 20.8166 20.9363 20.7215 21.2593 20.5371C21.5822 20.3528 21.8502 20.0858 22.0359 19.7636C22.2166 19.4549 22.3121 19.1036 22.3124 18.7458C22.3127 18.388 22.2179 18.0365 22.0377 17.7274ZM21.0618 19.2002C20.9742 19.3509 20.848 19.4754 20.6962 19.5611C20.5445 19.6468 20.3726 19.6905 20.1984 19.6877H3.80149C3.62723 19.6905 3.45538 19.6468 3.30362 19.5611C3.15185 19.4754 3.02567 19.3509 2.93805 19.2002C2.8561 19.0624 2.81284 18.905 2.81284 18.7446C2.81284 18.5842 2.8561 18.4268 2.93805 18.289L11.1365 4.05114C11.2261 3.90225 11.3527 3.77907 11.504 3.69356C11.6553 3.60804 11.8261 3.5631 11.9999 3.5631C12.1737 3.5631 12.3445 3.60804 12.4958 3.69356C12.6471 3.77907 12.7737 3.90225 12.8634 4.05114L21.0627 18.289C21.1446 18.4269 21.1877 18.5843 21.1875 18.7447C21.1873 18.9051 21.1439 19.0624 21.0618 19.2002ZM11.4374 13.5002V9.75021C11.4374 9.60102 11.4967 9.45795 11.6022 9.35246C11.7077 9.24697 11.8507 9.18771 11.9999 9.18771C12.1491 9.18771 12.2922 9.24697 12.3977 9.35246C12.5032 9.45795 12.5624 9.60102 12.5624 9.75021V13.5002C12.5624 13.6494 12.5032 13.7925 12.3977 13.898C12.2922 14.0034 12.1491 14.0627 11.9999 14.0627C11.8507 14.0627 11.7077 14.0034 11.6022 13.898C11.4967 13.7925 11.4374 13.6494 11.4374 13.5002ZM12.9374 16.8752C12.9374 17.0606 12.8824 17.2419 12.7794 17.3961C12.6764 17.5502 12.53 17.6704 12.3587 17.7413C12.1874 17.8123 11.9989 17.8309 11.817 17.7947C11.6352 17.7585 11.4681 17.6692 11.337 17.5381C11.2059 17.407 11.1166 17.24 11.0804 17.0581C11.0443 16.8762 11.0628 16.6877 11.1338 16.5164C11.2047 16.3451 11.3249 16.1987 11.4791 16.0957C11.6333 15.9927 11.8145 15.9377 11.9999 15.9377C12.2486 15.9377 12.487 16.0365 12.6628 16.2123C12.8387 16.3881 12.9374 16.6266 12.9374 16.8752Z" fill="black"/>
</svg>
