<svg width="24" height="24" viewBox="0 0 24 24" fill="none" xmlns="http://www.w3.org/2000/svg">
<path d="M11.4379 12.7502V7.50019C11.4379 7.351 11.4972 7.20793 11.6026 7.10244C11.7081 6.99695 11.8512 6.93769 12.0004 6.93769C12.1496 6.93769 12.2927 6.99695 12.3981 7.10244C12.5036 7.20793 12.5629 7.351 12.5629 7.50019V12.7502C12.5629 12.8994 12.5036 13.0424 12.3981 13.1479C12.2927 13.2534 12.1496 13.3127 12.0004 13.3127C11.8512 13.3127 11.7081 13.2534 11.6026 13.1479C11.4972 13.0424 11.4379 12.8994 11.4379 12.7502ZM12.0004 15.1877C11.815 15.1877 11.6337 15.2427 11.4795 15.3457C11.3254 15.4487 11.2052 15.5951 11.1343 15.7664C11.0633 15.9377 11.0447 16.1262 11.0809 16.3081C11.1171 16.4899 11.2064 16.657 11.3375 16.7881C11.4686 16.9192 11.6356 17.0085 11.8175 17.0447C11.9994 17.0808 12.1879 17.0623 12.3592 16.9913C12.5305 16.9204 12.6769 16.8002 12.7799 16.646C12.8829 16.4919 12.9379 16.3106 12.9379 16.1252C12.9379 15.8765 12.8391 15.6381 12.6633 15.4623C12.4875 15.2865 12.249 15.1877 12.0004 15.1877ZM22.3129 12.0002C22.3135 12.172 22.2799 12.3422 22.214 12.5009C22.1482 12.6596 22.0515 12.8036 21.9295 12.9246L12.9295 21.9302C12.6836 22.1741 12.3514 22.3109 12.0051 22.3109C11.6588 22.3109 11.3265 22.1741 11.0807 21.9302L2.0807 12.9246C1.95916 12.8033 1.86272 12.6592 1.79693 12.5006C1.73113 12.3419 1.69727 12.1719 1.69727 12.0002C1.69727 11.8285 1.73113 11.6584 1.79693 11.4998C1.86272 11.3412 1.95916 11.1971 2.0807 11.0758L11.0854 2.07019C11.3312 1.8263 11.6635 1.68945 12.0098 1.68945C12.3561 1.68945 12.6883 1.8263 12.9341 2.07019L21.9341 11.0758C22.0553 11.1972 22.1512 11.3414 22.2162 11.5C22.2812 11.6587 22.3141 11.8287 22.3129 12.0002ZM21.1879 12.0002C21.188 11.9762 21.1833 11.9524 21.1741 11.9302C21.1649 11.9079 21.1515 11.8878 21.1345 11.8708L12.1298 2.86519C12.0949 2.83195 12.0486 2.8134 12.0004 2.8134C11.9522 2.8134 11.9059 2.83195 11.871 2.86519L2.86633 11.8708C2.83309 11.9057 2.81454 11.952 2.81454 12.0002C2.81454 12.0484 2.83309 12.0947 2.86633 12.1296L11.871 21.1352C11.9059 21.1684 11.9522 21.187 12.0004 21.187C12.0486 21.187 12.0949 21.1684 12.1298 21.1352L21.1345 12.1296C21.1515 12.1126 21.1649 12.0924 21.1741 12.0702C21.1833 12.048 21.188 12.0242 21.1879 12.0002Z" fill="black"/>
</svg>
