<svg width="24" height="24" viewBox="0 0 24 24" fill="none" xmlns="http://www.w3.org/2000/svg">
<path d="M20.6836 16.7419C20.7307 16.7988 20.7662 16.8644 20.788 16.935C20.8098 17.0056 20.8175 17.0798 20.8106 17.1533C20.8038 17.2269 20.7825 17.2984 20.7479 17.3637C20.7134 17.429 20.6664 17.4869 20.6095 17.5341C19.0279 18.8466 17.6095 19.3153 16.3204 19.3153C14.6151 19.3153 13.1207 18.5034 11.7323 17.7497C9.2948 16.426 7.19106 15.2831 4.10949 17.8434C3.9935 17.9387 3.84443 17.9839 3.69508 17.9692C3.54572 17.9546 3.40832 17.8812 3.31309 17.7652C3.21786 17.6492 3.17261 17.5001 3.18729 17.3508C3.20197 17.2014 3.27538 17.064 3.39137 16.9688C7.0598 13.9266 9.8273 15.4303 12.2686 16.7569C14.7098 18.0835 16.8098 19.2234 19.8914 16.6631C19.9485 16.6162 20.0144 16.5811 20.0851 16.5596C20.1559 16.5382 20.2302 16.531 20.3038 16.5383C20.3774 16.5456 20.4488 16.5673 20.5139 16.6023C20.5791 16.6372 20.6367 16.6847 20.6836 16.7419ZM19.8914 11.4159C16.8098 13.9725 14.7051 12.8288 12.2686 11.5097C9.83199 10.1906 7.0598 8.67564 3.39137 11.7188C3.27637 11.814 3.20391 11.951 3.18994 12.0997C3.17596 12.2483 3.22161 12.3964 3.31684 12.5114C3.41207 12.6264 3.54908 12.6989 3.69773 12.7128C3.84638 12.7268 3.9945 12.6812 4.10949 12.5859C7.19106 10.0294 9.29574 11.1722 11.7323 12.4922C13.1207 13.2422 14.6151 14.0588 16.3204 14.0588C17.6132 14.0588 19.0279 13.59 20.6095 12.2775C20.7244 12.1823 20.7967 12.0453 20.8106 11.8968C20.8245 11.7482 20.7788 11.6002 20.6836 11.4853C20.5883 11.3705 20.4514 11.2981 20.3028 11.2842C20.1542 11.2703 20.0062 11.316 19.8914 11.4113V11.4159ZM4.10949 7.3322C7.19106 4.77564 9.29574 5.91939 11.7323 7.23845C13.1254 7.99689 14.6151 8.81251 16.3204 8.81251C17.6132 8.81251 19.0279 8.34376 20.6095 7.03126C20.6664 6.98411 20.7134 6.92621 20.7479 6.86088C20.7824 6.79555 20.8037 6.72407 20.8106 6.65051C20.8175 6.57695 20.8098 6.50275 20.788 6.43216C20.7662 6.36156 20.7307 6.29595 20.6836 6.23907C20.6364 6.1822 20.5785 6.13516 20.5132 6.10066C20.4478 6.06615 20.3764 6.04485 20.3028 6.03798C20.2292 6.0311 20.155 6.03878 20.0844 6.06057C20.0139 6.08237 19.9482 6.11786 19.8914 6.16501C16.8098 8.72157 14.7051 7.57782 12.2686 6.25876C9.83199 4.9397 7.0598 3.42376 3.39137 6.46876C3.2765 6.56399 3.20416 6.70095 3.19027 6.84952C3.17638 6.99808 3.22208 7.14608 3.31731 7.26095C3.41253 7.37582 3.5495 7.44816 3.69806 7.46205C3.84662 7.47594 3.99462 7.43024 4.10949 7.33501V7.3322Z" fill="black"/>
</svg>
