<svg width="24" height="24" viewBox="0 0 24 24" fill="none" xmlns="http://www.w3.org/2000/svg">
<path d="M16.8156 16.3127H10.2747C10.1886 16.9666 9.95376 17.5921 9.58811 18.141C9.22246 18.6899 8.73578 19.1476 8.16551 19.4789C7.59524 19.8103 6.95656 20.0064 6.29862 20.0522C5.64067 20.098 4.98098 19.9923 4.37028 19.7432C3.75959 19.4941 3.21417 19.1083 2.77597 18.6154C2.33777 18.1224 2.01846 17.5356 1.84262 16.8999C1.66678 16.2642 1.63908 15.5967 1.76166 14.9487C1.88423 14.3006 2.15381 13.6893 2.54967 13.1618C2.59405 13.1027 2.64964 13.0529 2.71326 13.0153C2.77688 12.9777 2.84728 12.953 2.92045 12.9426C2.99362 12.9322 3.06813 12.9363 3.13971 12.9547C3.21129 12.973 3.27855 13.0054 3.33764 13.0497C3.39674 13.0941 3.44651 13.1497 3.48412 13.2133C3.52173 13.2769 3.54645 13.3473 3.55685 13.4205C3.56725 13.4937 3.56314 13.5682 3.54475 13.6398C3.52636 13.7113 3.49405 13.7786 3.44967 13.8377C3.0339 14.3884 2.80999 15.0602 2.81217 15.7502C2.81217 16.5956 3.148 17.4063 3.74577 18.0041C4.34354 18.6019 5.15429 18.9377 5.99967 18.9377C6.84505 18.9377 7.6558 18.6019 8.25357 18.0041C8.85135 17.4063 9.18717 16.5956 9.18717 15.7502C9.18717 15.601 9.24644 15.4579 9.35192 15.3525C9.45741 15.247 9.60049 15.1877 9.74967 15.1877H16.8156C16.9433 14.9185 17.1589 14.7007 17.4268 14.5702C17.6947 14.4397 17.999 14.4043 18.2898 14.4698C18.5805 14.5352 18.8403 14.6976 19.0264 14.9304C19.2126 15.1631 19.314 15.4522 19.314 15.7502C19.314 16.0482 19.2126 16.3373 19.0264 16.57C18.8403 16.8028 18.5805 16.9652 18.2898 17.0306C17.999 17.0961 17.6947 17.0607 17.4268 16.9302C17.1589 16.7997 16.9433 16.5819 16.8156 16.3127ZM5.99967 17.0627C6.23573 17.0625 6.46735 16.9985 6.67014 16.8777C6.87293 16.7569 7.03937 16.5836 7.15195 16.3761C7.26452 16.1686 7.31905 15.9346 7.30979 15.6987C7.30054 15.4629 7.22784 15.2339 7.09936 15.0358L10.5137 9.4877C10.5522 9.42461 10.5779 9.35456 10.5893 9.28153C10.6008 9.20851 10.5977 9.13396 10.5803 9.06213C10.5629 8.9903 10.5315 8.9226 10.4879 8.86292C10.4443 8.80323 10.3894 8.75271 10.3262 8.71426C9.90078 8.45175 9.54304 8.09284 9.28191 7.66654C9.02078 7.24023 8.86359 6.75849 8.82303 6.26021C8.78247 5.76194 8.85967 5.2611 9.04842 4.79818C9.23716 4.33525 9.53214 3.92321 9.90953 3.59534C10.2869 3.26747 10.7361 3.03297 11.2209 2.91077C11.7057 2.78858 12.2124 2.78212 12.7001 2.89192C13.1878 3.00171 13.6429 3.22469 14.0285 3.54283C14.4141 3.86097 14.7195 4.26536 14.92 4.72333C14.9485 4.79248 14.9905 4.85526 15.0436 4.90798C15.0966 4.9607 15.1597 5.00231 15.229 5.03037C15.2984 5.05843 15.3726 5.07238 15.4474 5.07141C15.5222 5.07043 15.596 5.05454 15.6646 5.02468C15.7332 4.99482 15.7951 4.95157 15.8468 4.89748C15.8985 4.84339 15.9388 4.77954 15.9655 4.70966C15.9922 4.63979 16.0047 4.56529 16.0022 4.49053C15.9998 4.41576 15.9824 4.34224 15.9512 4.27426C15.6901 3.67561 15.2964 3.14409 14.7998 2.71982C14.3033 2.29555 13.7168 1.98961 13.0847 1.82509C12.4527 1.66057 11.7915 1.64177 11.1511 1.7701C10.5107 1.89844 9.90779 2.17056 9.38792 2.56592C8.86805 2.96129 8.44477 3.46957 8.15003 4.05242C7.85529 4.63527 7.69679 5.27745 7.68648 5.9305C7.67618 6.58355 7.81434 7.23041 8.09055 7.82226C8.36675 8.41412 8.77378 8.9355 9.28092 9.34708L6.14217 14.4452C6.0953 14.4405 6.04842 14.4377 5.99967 14.4377C5.65158 14.4377 5.31774 14.576 5.07159 14.8221C4.82545 15.0683 4.68717 15.4021 4.68717 15.7502C4.68717 16.0983 4.82545 16.4321 5.07159 16.6783C5.31774 16.9244 5.65158 17.0627 5.99967 17.0627ZM17.9997 11.4377C17.3923 11.4372 16.7917 11.565 16.2372 11.8127L13.0994 6.71364C13.258 6.46864 13.3305 6.17775 13.3053 5.88696C13.2801 5.59617 13.1587 5.32206 12.9603 5.10799C12.7619 4.89392 12.4978 4.7521 12.2097 4.70494C11.9217 4.65779 11.6261 4.708 11.3698 4.84763C11.1135 4.98726 10.911 5.20834 10.7945 5.47593C10.6779 5.74351 10.6538 6.04232 10.726 6.32512C10.7983 6.60792 10.9628 6.85856 11.1934 7.03742C11.4241 7.21627 11.7078 7.31314 11.9997 7.3127C12.0473 7.31272 12.0949 7.3099 12.1422 7.30426L15.5547 12.8515C15.6335 12.9783 15.7591 13.0689 15.9044 13.1036C16.0494 13.138 16.2021 13.1134 16.329 13.0352C16.7487 12.7771 17.2224 12.6198 17.7131 12.5756C18.2037 12.5314 18.6979 12.6015 19.1569 12.7804C19.6159 12.9594 20.0272 13.2423 20.3584 13.607C20.6897 13.9716 20.9319 14.4081 21.0661 14.8821C21.2002 15.3561 21.2227 15.8548 21.1317 16.339C21.0407 16.8232 20.8387 17.2796 20.5416 17.6726C20.2445 18.0656 19.8603 18.3843 19.4193 18.6038C18.9782 18.8233 18.4923 18.9376 17.9997 18.9377C17.8505 18.9377 17.7074 18.997 17.6019 19.1025C17.4964 19.2079 17.4372 19.351 17.4372 19.5002C17.4372 19.6494 17.4964 19.7925 17.6019 19.8979C17.7074 20.0034 17.8505 20.0627 17.9997 20.0627C19.1434 20.0627 20.2403 19.6083 21.0491 18.7996C21.8578 17.9908 22.3122 16.8939 22.3122 15.7502C22.3122 14.6065 21.8578 13.5096 21.0491 12.7008C20.2403 11.8921 19.1434 11.4377 17.9997 11.4377Z" fill="black"/>
</svg>
