<svg width="24" height="24" viewBox="0 0 24 24" fill="none" xmlns="http://www.w3.org/2000/svg">
<path d="M23.7832 17.8218C23.7359 17.6803 23.6344 17.5634 23.501 17.4968C23.3676 17.4302 23.2131 17.4193 23.0716 17.4665L21.281 18.0618L18.4985 12.4987C18.4522 12.4058 18.3811 12.3276 18.293 12.2727C18.205 12.2178 18.1035 12.1882 17.9998 12.1874H10.3123V9.5671C10.3741 9.5671 10.437 9.5671 10.4998 9.5671H15.7498C15.899 9.5671 16.042 9.50784 16.1475 9.40235C16.253 9.29686 16.3123 9.15379 16.3123 9.0046C16.3123 8.85542 16.253 8.71234 16.1475 8.60685C16.042 8.50137 15.899 8.4421 15.7498 8.4421H10.4998C10.437 8.4421 10.3751 8.4421 10.3123 8.4421V7.25616C10.9952 7.11677 11.602 6.72877 12.0151 6.1674C12.4282 5.60602 12.6181 4.91126 12.548 4.21781C12.478 3.52436 12.1529 2.88162 11.6359 2.4142C11.1189 1.94678 10.4468 1.68799 9.74977 1.68799C9.05279 1.68799 8.38064 1.94678 7.86363 2.4142C7.34661 2.88162 7.02157 3.52436 6.95152 4.21781C6.88146 4.91126 7.07139 5.60602 7.48448 6.1674C7.89756 6.72877 8.50437 7.11677 9.18727 7.25616V8.56866C7.59238 8.89252 6.17472 9.79743 5.2095 11.1077C4.24427 12.418 3.80035 14.0402 3.9639 15.6594C4.12746 17.2786 4.88682 18.7793 6.09459 19.8701C7.30235 20.9609 8.87234 21.5641 10.4998 21.5624C13.5579 21.5624 16.3123 19.4924 17.0445 16.6405C17.0629 16.569 17.0671 16.4945 17.0568 16.4214C17.0465 16.3482 17.0219 16.2778 16.9844 16.2142C16.9468 16.1506 16.8972 16.0949 16.8381 16.0505C16.7791 16.0061 16.7119 15.9737 16.6404 15.9552C16.5689 15.9368 16.4944 15.9326 16.4213 15.9429C16.3481 15.9532 16.2777 15.9778 16.2141 16.0153C16.1504 16.0528 16.0948 16.1025 16.0504 16.1616C16.0059 16.2206 15.9736 16.2878 15.9551 16.3593C15.3467 18.7227 13.0488 20.4374 10.4998 20.4374C9.17249 20.437 7.8912 19.951 6.89739 19.0712C5.90359 18.1915 5.2659 16.9785 5.1045 15.6611C4.94311 14.3437 5.26916 13.0127 6.0212 11.919C6.77325 10.8253 7.89935 10.0445 9.18727 9.72367V12.7499C9.18727 12.8991 9.24654 13.0422 9.35203 13.1477C9.45752 13.2532 9.60059 13.3124 9.74977 13.3124H17.652L20.4963 19.0012C20.557 19.1222 20.6594 19.2174 20.7846 19.269C20.9098 19.3207 21.0495 19.3254 21.1779 19.2824L23.4279 18.5324C23.5691 18.4851 23.6859 18.3838 23.7525 18.2506C23.8191 18.1173 23.8301 17.9631 23.7832 17.8218ZM8.06227 4.49991C8.06227 4.16616 8.16124 3.8399 8.34667 3.56239C8.53209 3.28488 8.79565 3.06859 9.104 2.94087C9.41235 2.81314 9.75165 2.77973 10.079 2.84484C10.4063 2.90995 10.707 3.07067 10.943 3.30667C11.179 3.54267 11.3397 3.84336 11.4049 4.1707C11.47 4.49804 11.4365 4.83734 11.3088 5.14569C11.1811 5.45404 10.9648 5.71759 10.6873 5.90302C10.4098 6.08844 10.0835 6.18741 9.74977 6.18741C9.30222 6.18741 8.873 6.00962 8.55653 5.69316C8.24006 5.37669 8.06227 4.94747 8.06227 4.49991Z" fill="black"/>
</svg>
