<svg width="24" height="24" viewBox="0 0 24 24" fill="none" xmlns="http://www.w3.org/2000/svg">
<path d="M16.4997 7.3125C17.0559 7.3125 17.5997 7.14755 18.0622 6.83851C18.5247 6.52947 18.8852 6.09022 19.0981 5.5763C19.3109 5.06238 19.3666 4.49688 19.2581 3.95131C19.1496 3.40574 18.8817 2.9046 18.4884 2.51126C18.0951 2.11793 17.5939 1.85006 17.0483 1.74154C16.5028 1.63302 15.9373 1.68872 15.4234 1.90159C14.9094 2.11446 14.4702 2.47495 14.1611 2.93746C13.8521 3.39997 13.6872 3.94374 13.6872 4.5C13.6872 5.24592 13.9835 5.96129 14.5109 6.48874C15.0384 7.01619 15.7537 7.3125 16.4997 7.3125ZM16.4997 2.8125C16.8334 2.8125 17.1597 2.91147 17.4372 3.0969C17.7147 3.28232 17.931 3.54587 18.0587 3.85422C18.1864 4.16257 18.2198 4.50187 18.1547 4.82922C18.0896 5.15656 17.9289 5.45724 17.6929 5.69324C17.4569 5.92924 17.1562 6.08996 16.8289 6.15508C16.5015 6.22019 16.1622 6.18677 15.8539 6.05905C15.5455 5.93132 15.282 5.71503 15.0965 5.43753C14.9111 5.16002 14.8122 4.83376 14.8122 4.5C14.8122 4.05245 14.9899 3.62323 15.3064 3.30676C15.6229 2.99029 16.0521 2.8125 16.4997 2.8125ZM15.5622 15.75C15.5622 16.8996 15.2213 18.0234 14.5826 18.9793C13.9439 19.9351 13.0361 20.6801 11.974 21.1201C10.9119 21.56 9.7432 21.6751 8.61569 21.4508C7.48818 21.2265 6.45249 20.673 5.63959 19.8601C4.8267 19.0472 4.27311 18.0115 4.04884 16.884C3.82456 15.7564 3.93967 14.5877 4.3796 13.5257C4.81954 12.4636 5.56454 11.5558 6.5204 10.9171C7.47626 10.2784 8.60005 9.9375 9.74965 9.9375C9.89884 9.9375 10.0419 9.99677 10.1474 10.1023C10.2529 10.2077 10.3122 10.3508 10.3122 10.5C10.3122 10.6492 10.2529 10.7923 10.1474 10.8977C10.0419 11.0032 9.89884 11.0625 9.74965 11.0625C8.82255 11.0625 7.91627 11.3374 7.14542 11.8525C6.37456 12.3676 5.77375 13.0996 5.41897 13.9562C5.06418 14.8127 4.97135 15.7552 5.15222 16.6645C5.33309 17.5738 5.77953 18.409 6.43509 19.0646C7.09065 19.7201 7.92588 20.1666 8.83517 20.3474C9.74445 20.5283 10.687 20.4355 11.5435 20.0807C12.4 19.7259 13.1321 19.1251 13.6472 18.3542C14.1622 17.5834 14.4372 16.6771 14.4372 15.75C14.4372 15.6008 14.4964 15.4577 14.6019 15.3523C14.7074 15.2468 14.8505 15.1875 14.9997 15.1875C15.1488 15.1875 15.2919 15.2468 15.3974 15.3523C15.5029 15.4577 15.5622 15.6008 15.5622 15.75ZM19.1847 12.3938C19.2376 12.4583 19.2755 12.5339 19.2956 12.615C19.3158 12.6961 19.3175 12.7806 19.3009 12.8625L17.8009 20.3625C17.775 20.4896 17.7059 20.6037 17.6055 20.6857C17.505 20.7677 17.3793 20.8125 17.2497 20.8125C17.2122 20.8124 17.1748 20.8087 17.1381 20.8013C16.9919 20.7718 16.8634 20.6856 16.7808 20.5615C16.6982 20.4374 16.6682 20.2856 16.6975 20.1394L18.0634 13.3125H11.9997C11.9009 13.3126 11.8038 13.2866 11.7183 13.2373C11.6327 13.1879 11.5617 13.1169 11.5122 13.0314C11.4628 12.9459 11.4368 12.8489 11.4368 12.7501C11.4368 12.6513 11.4628 12.5543 11.5122 12.4688L13.4875 9.03C12.1363 8.27914 10.5904 7.95276 9.05103 8.0934C7.51171 8.23404 6.05046 8.83517 4.85778 9.81844C4.80108 9.86738 4.73518 9.9045 4.66394 9.92763C4.59271 9.95076 4.51757 9.95943 4.44294 9.95313C4.36831 9.94683 4.29569 9.9257 4.22933 9.89096C4.16298 9.85622 4.10423 9.80858 4.05654 9.75083C4.00884 9.69309 3.97316 9.6264 3.95158 9.55468C3.93001 9.48295 3.92297 9.40765 3.93089 9.33317C3.9388 9.25869 3.96151 9.18655 3.99768 9.12096C4.03385 9.05538 4.08276 8.99768 4.14153 8.95125C5.58881 7.75705 7.37948 7.05596 9.25286 6.95007C11.1262 6.84418 12.9845 7.339 14.5572 8.3625C14.6771 8.44104 14.7625 8.5624 14.7959 8.70179C14.8294 8.84119 14.8084 8.98809 14.7372 9.1125L12.9718 12.1875H18.7497C18.8329 12.1875 18.9151 12.2061 18.9903 12.2417C19.0656 12.2774 19.1319 12.3293 19.1847 12.3938Z" fill="black"/>
</svg>
