<svg width="24" height="24" viewBox="0 0 24 24" fill="none" xmlns="http://www.w3.org/2000/svg">
<path d="M12.9374 19.1248C12.9374 19.3103 12.8824 19.4915 12.7794 19.6457C12.6764 19.7999 12.53 19.92 12.3587 19.991C12.1874 20.0619 11.9989 20.0805 11.817 20.0443C11.6352 20.0081 11.4681 19.9189 11.337 19.7877C11.2059 19.6566 11.1166 19.4896 11.0804 19.3077C11.0443 19.1259 11.0628 18.9374 11.1338 18.7661C11.2047 18.5948 11.3249 18.4483 11.4791 18.3453C11.6333 18.2423 11.8145 18.1873 11.9999 18.1873C12.2486 18.1873 12.487 18.2861 12.6628 18.4619C12.8387 18.6377 12.9374 18.8762 12.9374 19.1248ZM4.91618 3.37483C4.8132 3.27925 4.67818 3.22567 4.53769 3.22462C4.39719 3.22358 4.26139 3.27515 4.15701 3.36919C4.05262 3.46323 3.98721 3.59294 3.97364 3.73278C3.96007 3.87262 3.99932 4.01248 4.08368 4.12483L5.74962 5.96046C4.35898 6.55413 3.06024 7.34335 1.89274 8.30421C1.83532 8.351 1.7877 8.40867 1.75262 8.47391C1.71754 8.53915 1.69569 8.61068 1.68833 8.68438C1.68097 8.75809 1.68824 8.83253 1.70972 8.90342C1.7312 8.97431 1.76647 9.04026 1.81351 9.09748C1.86055 9.1547 1.91842 9.20207 1.98382 9.23686C2.04921 9.27166 2.12083 9.2932 2.19457 9.30024C2.26831 9.30728 2.34271 9.29969 2.41351 9.2779C2.4843 9.25611 2.5501 9.22056 2.60712 9.17327C3.79354 8.19612 5.12518 7.4101 6.55399 6.84358L9.03649 9.57452C7.53054 9.97925 6.12305 10.6871 4.90024 11.6548C4.78326 11.7476 4.7079 11.883 4.69076 12.0313C4.67362 12.1796 4.71609 12.3286 4.80883 12.4456C4.90158 12.5626 5.03699 12.638 5.18529 12.6551C5.33359 12.6722 5.48263 12.6298 5.59962 12.537C6.85698 11.5407 8.32944 10.8515 9.89993 10.5242L12.8184 13.7351C12.5467 13.7032 12.2734 13.6872 11.9999 13.6873C10.533 13.6835 9.10325 14.1483 7.91899 15.0139C7.82303 15.0838 7.75164 15.1822 7.71505 15.2952C7.67845 15.4081 7.67852 15.5297 7.71525 15.6426C7.75197 15.7555 7.82348 15.8539 7.91952 15.9237C8.01556 15.9934 8.13122 16.031 8.24993 16.0311C8.36894 16.0315 8.48494 15.9937 8.58087 15.9233C9.37959 15.3425 10.3131 14.9748 11.2933 14.8549C12.2736 14.735 13.2682 14.8669 14.1834 15.238L19.0837 20.6248C19.1841 20.7352 19.3243 20.8012 19.4734 20.8082C19.6225 20.8153 19.7683 20.7628 19.8787 20.6623C19.9891 20.5619 20.055 20.4217 20.0621 20.2726C20.0691 20.1235 20.0166 19.9777 19.9162 19.8673L4.91618 3.37483ZM22.1071 8.3014C19.256 5.96648 15.6851 4.6896 11.9999 4.68733C11.3179 4.68763 10.6365 4.73084 9.95993 4.81671C9.88535 4.82446 9.81307 4.84704 9.74734 4.88313C9.68162 4.91921 9.62377 4.96808 9.5772 5.02684C9.53063 5.08561 9.49628 5.15309 9.47617 5.22533C9.45606 5.29756 9.45059 5.37309 9.46009 5.44747C9.46959 5.52184 9.49387 5.59357 9.53149 5.65843C9.56911 5.72329 9.61932 5.77998 9.67917 5.82515C9.73901 5.87032 9.80729 5.90308 9.87997 5.92149C9.95266 5.93989 10.0283 5.94358 10.1024 5.93233C10.7318 5.85239 11.3655 5.81231 11.9999 5.81233C15.4246 5.81413 18.7432 7.0006 21.3927 9.17046C21.4498 9.21774 21.5156 9.2533 21.5863 9.27509C21.6571 9.29688 21.7316 9.30447 21.8053 9.29743C21.879 9.29038 21.9506 9.26885 22.016 9.23405C22.0814 9.19926 22.1393 9.15189 22.1863 9.09467C22.2334 9.03744 22.2687 8.97149 22.2901 8.9006C22.3116 8.82971 22.3189 8.75528 22.3115 8.68157C22.3042 8.60787 22.2823 8.53634 22.2472 8.4711C22.2122 8.40586 22.1645 8.34819 22.1071 8.3014ZM18.4002 12.5389C18.5003 12.6161 18.6235 12.6574 18.7499 12.6561C18.8667 12.6561 18.9805 12.6198 19.0757 12.5522C19.1709 12.4845 19.2427 12.389 19.2811 12.2787C19.3195 12.1685 19.3227 12.049 19.2902 11.9369C19.2577 11.8248 19.1911 11.7255 19.0996 11.653C17.7039 10.5485 16.0701 9.78424 14.3277 9.42077C14.2549 9.40457 14.1796 9.40301 14.1062 9.41617C14.0328 9.42934 13.9628 9.45698 13.9001 9.49747C13.8375 9.53796 13.7836 9.59051 13.7414 9.65204C13.6993 9.71358 13.6698 9.78288 13.6547 9.85592C13.6396 9.92896 13.6392 10.0043 13.6534 10.0775C13.6677 10.1507 13.6964 10.2203 13.7378 10.2823C13.7793 10.3443 13.8326 10.3975 13.8948 10.4387C13.9569 10.4799 14.0267 10.5083 14.0999 10.5223C15.6707 10.8508 17.1432 11.5413 18.4002 12.5389Z" fill="black"/>
</svg>
