<svg width="24" height="24" viewBox="0 0 24 24" fill="none" xmlns="http://www.w3.org/2000/svg">
<path d="M12.9374 19.1248C12.9374 19.3102 12.8824 19.4914 12.7794 19.6456C12.6764 19.7998 12.53 19.92 12.3587 19.9909C12.1874 20.0619 11.9989 20.0804 11.817 20.0443C11.6352 20.0081 11.4681 19.9188 11.337 19.7877C11.2059 19.6566 11.1166 19.4895 11.0804 19.3077C11.0443 19.1258 11.0628 18.9373 11.1338 18.766C11.2047 18.5947 11.3249 18.4483 11.4791 18.3453C11.6333 18.2423 11.8145 18.1873 11.9999 18.1873C12.2486 18.1873 12.487 18.286 12.6628 18.4619C12.8387 18.6377 12.9374 18.8761 12.9374 19.1248ZM22.1071 8.30133C19.2574 5.96396 15.6856 4.68652 11.9999 4.68652C8.31424 4.68652 4.74247 5.96396 1.89274 8.30133C1.83532 8.34812 1.7877 8.40579 1.75262 8.47104C1.71754 8.53628 1.69569 8.6078 1.68833 8.68151C1.68097 8.75522 1.68824 8.82965 1.70972 8.90054C1.7312 8.97143 1.76647 9.03738 1.81351 9.0946C1.86055 9.15183 1.91842 9.19919 1.98382 9.23399C2.04921 9.26878 2.12083 9.29032 2.19457 9.29736C2.26831 9.30441 2.34271 9.29682 2.41351 9.27503C2.4843 9.25324 2.5501 9.21768 2.60712 9.1704C5.25555 6.99849 8.57482 5.81151 11.9999 5.81151C15.425 5.81151 18.7443 6.99849 21.3927 9.1704C21.4498 9.21768 21.5156 9.25324 21.5863 9.27503C21.6571 9.29682 21.7316 9.30441 21.8053 9.29736C21.879 9.29032 21.9506 9.26878 22.016 9.23399C22.0814 9.19919 22.1393 9.15183 22.1863 9.0946C22.2334 9.03738 22.2687 8.97143 22.2901 8.90054C22.3116 8.82965 22.3189 8.75522 22.3115 8.68151C22.3042 8.6078 22.2823 8.53628 22.2472 8.47104C22.2122 8.40579 22.1645 8.34812 22.1071 8.30133ZM19.0996 11.6566C17.079 10.0568 14.5772 9.18636 11.9999 9.18636C9.42264 9.18636 6.92089 10.0568 4.90024 11.6566C4.78326 11.7494 4.7079 11.8848 4.69076 12.0331C4.67362 12.1814 4.71609 12.3304 4.80883 12.4474C4.90158 12.5644 5.03699 12.6398 5.18529 12.6569C5.33359 12.674 5.48263 12.6316 5.59962 12.5388C7.42134 11.0969 9.6766 10.3124 11.9999 10.3124C14.3233 10.3124 16.5785 11.0969 18.4002 12.5388C18.5003 12.6161 18.6235 12.6574 18.7499 12.656C18.8667 12.656 18.9805 12.6197 19.0757 12.5521C19.1709 12.4845 19.2427 12.3889 19.2811 12.2787C19.3195 12.1684 19.3227 12.049 19.2902 11.9368C19.2577 11.8247 19.1911 11.7255 19.0996 11.6529V11.6566ZM16.0809 15.0138C14.895 14.1512 13.4663 13.6866 11.9999 13.6866C10.5335 13.6866 9.10484 14.1512 7.91899 15.0138C7.80195 15.1029 7.72446 15.2343 7.70314 15.3799C7.68181 15.5254 7.71834 15.6735 7.8049 15.7924C7.89146 15.9114 8.02116 15.9916 8.16621 16.0161C8.31126 16.0405 8.46011 16.0072 8.58087 15.9232C9.5744 15.2005 10.7714 14.8113 11.9999 14.8113C13.2285 14.8113 14.4255 15.2005 15.419 15.9232C15.5396 16.0109 15.6901 16.0472 15.8374 16.024C15.9847 16.0008 16.1168 15.92 16.2046 15.7995C16.2924 15.6789 16.3286 15.5283 16.3054 15.381C16.2822 15.2337 16.2014 15.1016 16.0809 15.0138Z" fill="black"/>
</svg>
