<svg width="24" height="24" viewBox="0 0 24 24" fill="none" xmlns="http://www.w3.org/2000/svg">
<path d="M12.9374 19.1248C12.9374 19.3102 12.8824 19.4915 12.7794 19.6457C12.6764 19.7998 12.53 19.92 12.3587 19.9909C12.1874 20.0619 11.9989 20.0805 11.817 20.0443C11.6352 20.0081 11.4681 19.9188 11.337 19.7877C11.2059 19.6566 11.1166 19.4896 11.0804 19.3077C11.0443 19.1258 11.0628 18.9373 11.1338 18.766C11.2047 18.5947 11.3249 18.4483 11.4791 18.3453C11.6333 18.2423 11.8145 18.1873 11.9999 18.1873C12.2486 18.1873 12.487 18.2861 12.6628 18.4619C12.8387 18.6377 12.9374 18.8762 12.9374 19.1248ZM19.5449 7.4998L21.3974 5.6473C21.4968 5.54067 21.5509 5.39964 21.5483 5.25391C21.5457 5.10819 21.4867 4.96915 21.3836 4.86609C21.2806 4.76303 21.1415 4.70399 20.9958 4.70142C20.8501 4.69885 20.7091 4.75294 20.6024 4.8523L18.7499 6.7048L16.8974 4.8523C16.7908 4.75294 16.6498 4.69885 16.504 4.70142C16.3583 4.70399 16.2193 4.76303 16.1162 4.86609C16.0132 4.96915 15.9541 5.10819 15.9515 5.25391C15.949 5.39964 16.0031 5.54067 16.1024 5.6473L17.9549 7.4998L16.1024 9.3523C16.0472 9.4038 16.0028 9.4659 15.9721 9.5349C15.9413 9.6039 15.9248 9.67839 15.9235 9.75391C15.9222 9.82944 15.936 9.90446 15.9643 9.9745C15.9926 10.0445 16.0347 10.1082 16.0882 10.1616C16.1416 10.215 16.2052 10.2571 16.2752 10.2854C16.3453 10.3137 16.4203 10.3276 16.4958 10.3262C16.5713 10.3249 16.6458 10.3084 16.7148 10.2776C16.7838 10.2469 16.8459 10.2026 16.8974 10.1473L18.7499 8.29481L20.6024 10.1473C20.7091 10.2467 20.8501 10.3008 20.9958 10.2982C21.1415 10.2956 21.2806 10.2366 21.3836 10.1335C21.4867 10.0305 21.5457 9.89142 21.5483 9.7457C21.5509 9.59997 21.4968 9.45894 21.3974 9.3523L19.5449 7.4998ZM16.0809 15.0139C14.895 14.1513 13.4663 13.6866 11.9999 13.6866C10.5335 13.6866 9.10484 14.1513 7.91899 15.0139C7.80195 15.103 7.72446 15.2344 7.70314 15.3799C7.68181 15.5254 7.71834 15.6735 7.8049 15.7925C7.89146 15.9114 8.02116 15.9917 8.16621 16.0161C8.31126 16.0406 8.46011 16.0072 8.58087 15.9232C9.5744 15.2006 10.7714 14.8113 11.9999 14.8113C13.2285 14.8113 14.4255 15.2006 15.419 15.9232C15.5396 16.011 15.6901 16.0472 15.8374 16.024C15.9847 16.0008 16.1168 15.9201 16.2046 15.7995C16.2924 15.6789 16.3286 15.5284 16.3054 15.3811C16.2822 15.2337 16.2014 15.1017 16.0809 15.0139ZM12.7227 5.82637C12.8719 5.83358 13.0179 5.78123 13.1285 5.68084C13.239 5.58045 13.3052 5.44024 13.3124 5.29105C13.3196 5.14187 13.2673 4.99593 13.1669 4.88534C13.0665 4.77476 12.9263 4.70858 12.7771 4.70137C12.5193 4.68918 12.2577 4.68262 11.9999 4.68262C8.31419 4.6862 4.74318 5.96476 1.89274 8.30137C1.83532 8.34816 1.7877 8.40583 1.75262 8.47107C1.71754 8.53631 1.69569 8.60784 1.68833 8.68154C1.68097 8.75525 1.68824 8.82968 1.70972 8.90057C1.7312 8.97146 1.76647 9.03741 1.81351 9.09464C1.86055 9.15186 1.91842 9.19923 1.98382 9.23402C2.04921 9.26882 2.12083 9.29035 2.19457 9.2974C2.26831 9.30444 2.34271 9.29685 2.41351 9.27506C2.4843 9.25327 2.5501 9.21771 2.60712 9.17043C5.25666 7.00057 8.57526 5.8141 11.9999 5.8123C12.2399 5.8123 12.4837 5.81793 12.7227 5.82918V5.82637ZM12.7115 10.3339C12.8607 10.3441 13.0078 10.2946 13.1205 10.1963C13.2332 10.098 13.3022 9.95899 13.3124 9.8098C13.3226 9.66062 13.2731 9.5135 13.1749 9.4008C13.0766 9.2881 12.9376 9.21906 12.7884 9.20887C12.5268 9.19105 12.2615 9.18168 11.9999 9.18168C9.42118 9.17213 6.91646 10.0433 4.90024 11.6511C4.78326 11.7438 4.7079 11.8792 4.69076 12.0275C4.67362 12.1758 4.71609 12.3249 4.80883 12.4418C4.90158 12.5588 5.03699 12.6342 5.18529 12.6513C5.33359 12.6685 5.48263 12.626 5.59962 12.5332C7.41764 11.0852 9.67574 10.3017 11.9999 10.3123C12.2362 10.3123 12.4762 10.3207 12.7115 10.3367V10.3339Z" fill="black"/>
</svg>
