<svg width="24" height="24" viewBox="0 0 24 24" fill="none" xmlns="http://www.w3.org/2000/svg">
<path d="M12.9375 19.1252C12.9375 19.3106 12.8825 19.4919 12.7795 19.6461C12.6765 19.8002 12.5301 19.9204 12.3588 19.9913C12.1875 20.0623 11.999 20.0809 11.8171 20.0447C11.6352 20.0085 11.4682 19.9192 11.3371 19.7881C11.206 19.657 11.1167 19.49 11.0805 19.3081C11.0443 19.1262 11.0629 18.9377 11.1339 18.7664C11.2048 18.5951 11.325 18.4487 11.4792 18.3457C11.6333 18.2427 11.8146 18.1877 12 18.1877C12.2486 18.1877 12.4871 18.2865 12.6629 18.4623C12.8387 18.6381 12.9375 18.8766 12.9375 19.1252ZM16.0809 15.0143C14.8951 14.1517 13.4664 13.687 12 13.687C10.5336 13.687 9.10492 14.1517 7.91906 15.0143C7.80202 15.1034 7.72454 15.2348 7.70321 15.3803C7.68189 15.5258 7.71842 15.6739 7.80498 15.7929C7.89153 15.9118 8.02124 15.9921 8.16628 16.0165C8.31133 16.041 8.46018 16.0076 8.58094 15.9236C9.57447 15.201 10.7714 14.8117 12 14.8117C13.2286 14.8117 14.4255 15.201 15.4191 15.9236C15.5397 16.0114 15.6902 16.0476 15.8375 16.0244C15.9848 16.0012 16.1169 15.9205 16.2047 15.7999C16.2924 15.6793 16.3287 15.5288 16.3055 15.3815C16.2823 15.2341 16.2015 15.1021 16.0809 15.0143Z" fill="black"/>
</svg>
