<svg width="24" height="24" viewBox="0 0 24 24" fill="none" xmlns="http://www.w3.org/2000/svg">
<path d="M19.0693 9.77156L17.0283 2.84062C16.994 2.72429 16.9229 2.62218 16.8258 2.54953C16.7286 2.47688 16.6106 2.43758 16.4893 2.4375H7.5099C7.38859 2.43758 7.27056 2.47688 7.17342 2.54953C7.07627 2.62218 7.00521 2.72429 6.97084 2.84062L4.9299 9.77156C4.61965 10.8007 4.60334 11.896 4.88281 12.9339C5.16229 13.9718 5.72641 14.9108 6.51146 15.645C7.85693 16.9066 9.59696 17.6647 11.4371 17.7909V21.9375H8.24959C8.1004 21.9375 7.95733 21.9968 7.85184 22.1023C7.74635 22.2077 7.68709 22.3508 7.68709 22.5C7.68709 22.6492 7.74635 22.7923 7.85184 22.8977C7.95733 23.0032 8.1004 23.0625 8.24959 23.0625H15.7496C15.8988 23.0625 16.0418 23.0032 16.1473 22.8977C16.2528 22.7923 16.3121 22.6492 16.3121 22.5C16.3121 22.3508 16.2528 22.2077 16.1473 22.1023C16.0418 21.9968 15.8988 21.9375 15.7496 21.9375H12.5621V17.7909C14.4022 17.6645 16.1421 16.9064 17.4877 15.645C18.2728 14.9108 18.8369 13.9718 19.1164 12.9339C19.3958 11.896 19.3795 10.8007 19.0693 9.77156ZM7.93084 3.5625H16.0683L17.9912 10.0903C18.0155 10.1747 18.038 10.2591 18.0577 10.3434C15.9446 11.1938 13.5418 10.275 12.2537 9.62344C9.75896 8.35969 7.82584 8.28187 6.4524 8.58L7.93084 3.5625ZM16.7199 14.8228C15.4402 16.021 13.7527 16.6876 11.9996 16.6876C10.2465 16.6876 8.55902 16.021 7.27928 14.8228C6.64719 14.231 6.19319 13.4742 5.96855 12.6379C5.74391 11.8016 5.75759 10.9192 6.00803 10.0903L6.0774 9.855C7.23428 9.43688 9.10178 9.28781 11.7455 10.6266C12.7768 11.1469 14.4315 11.8116 16.2005 11.8116C16.8756 11.8161 17.5467 11.7093 18.1871 11.4956C18.1806 12.1207 18.0473 12.7379 17.7951 13.3098C17.5428 13.8818 17.1771 14.3965 16.7199 14.8228Z" fill="black"/>
</svg>
