<svg width="24" height="24" viewBox="0 0 24 24" fill="none" xmlns="http://www.w3.org/2000/svg">
<path d="M21.0857 6.53918C21.0515 6.45484 20.9975 6.38004 20.9281 6.32119C20.8587 6.26234 20.7761 6.2212 20.6873 6.20129C20.5986 6.18138 20.5063 6.18329 20.4184 6.20687C20.3306 6.23045 20.2497 6.275 20.1829 6.33668L16.3325 9.8898L14.5035 9.49699L14.1107 7.66793L17.6638 3.81762C17.7255 3.75074 17.77 3.66991 17.7936 3.58204C17.8172 3.49418 17.8191 3.4019 17.7992 3.31313C17.7793 3.22436 17.7381 3.14174 17.6793 3.07237C17.6204 3.00299 17.5456 2.94892 17.4613 2.9148C16.2403 2.41983 14.8985 2.30384 13.6107 2.58194C12.3229 2.86003 11.1485 3.51933 10.2406 4.47403C9.33258 5.42874 8.733 6.63464 8.51983 7.93481C8.30666 9.23497 8.48978 10.5692 9.04535 11.7639L3.29004 16.7326C3.27973 16.7411 3.27035 16.7504 3.26004 16.7607C2.99873 17.0219 2.79143 17.332 2.64996 17.6733C2.50849 18.0146 2.43563 18.3805 2.43555 18.7499C2.43537 19.4961 2.73161 20.2118 3.2591 20.7395C3.78659 21.2672 4.50212 21.5638 5.24829 21.564C5.99445 21.5642 6.71011 21.2679 7.23785 20.7404C7.24817 20.7301 7.25754 20.7207 7.26598 20.7104L12.2347 14.9551C13.4294 15.5107 14.7636 15.6938 16.0638 15.4806C17.364 15.2675 18.5699 14.6679 19.5246 13.7599C20.4793 12.8519 21.1386 11.6776 21.4167 10.3898C21.6948 9.10193 21.5788 7.76019 21.0838 6.53918H21.0857ZM15.0004 14.4376C14.0822 14.4372 13.1792 14.2044 12.3754 13.7607C12.2623 13.6981 12.1312 13.6764 12.004 13.6991C11.8768 13.7218 11.7613 13.7876 11.6769 13.8854L6.42879 19.9576C6.11014 20.2629 5.68458 20.4312 5.24331 20.4265C4.80204 20.4218 4.38019 20.2444 4.06815 19.9323C3.75611 19.6203 3.57872 19.1984 3.57399 18.7572C3.56926 18.3159 3.73757 17.8903 4.04285 17.5717L10.1141 12.3273C10.2127 12.2426 10.2789 12.1263 10.3014 11.9983C10.324 11.8703 10.3015 11.7384 10.2379 11.6251C9.72875 10.7042 9.49779 9.65538 9.57298 8.60581C9.64817 7.55624 10.0263 6.55104 10.6615 5.71211C11.2966 4.87318 12.1616 4.23658 13.1514 3.8795C14.1412 3.52243 15.2134 3.46022 16.2379 3.70043L13.086 7.11855C13.025 7.18486 12.9807 7.26486 12.9571 7.35182C12.9334 7.43878 12.931 7.53015 12.95 7.61824L13.4797 10.0886C13.5024 10.1946 13.5553 10.2918 13.632 10.3685C13.7087 10.4451 13.8059 10.498 13.9119 10.5207L16.3822 11.0504C16.4703 11.0695 16.5617 11.067 16.6486 11.0434C16.7356 11.0197 16.8156 10.9755 16.8819 10.9145L20.2963 7.76262C20.4816 8.56038 20.4846 9.38968 20.3049 10.1887C20.1252 10.9878 19.7675 11.736 19.2585 12.3776C18.7494 13.0192 18.1021 13.5377 17.3649 13.8943C16.6276 14.251 15.8194 14.4367 15.0004 14.4376Z" fill="black"/>
</svg>
