<svg xmlns="http://www.w3.org/2000/svg" width="430" height="430" fill="none" viewBox="0 0 430 430"><g stroke-linecap="round" stroke-linejoin="round" stroke-width="12"><path stroke="#121331" d="M62.76 319.48V362h-34V153.55a20.82 20.82 0 0 1 17-8.8 20.82 20.82 0 0 1 17 8.8v121.84m304.469 44.09v42.5h34.01v-86.59"/><path stroke="#121331" d="M401.23 275.38H28.76v44.09h372.47z"/><path stroke="#08a88a" d="M174.43 185.21h143.74a83.07 83.07 0 0 1 83.07 83.07v6.93H174.43z"/><path stroke="#121331" d="M89.74 225.39v-3.19a21.05 21.05 0 0 1 21.05-21.05h29.66a6.3 6.3 0 0 1 6.3 6.3v17.94a21.05 21.05 0 0 1-6.165 14.885 21.05 21.05 0 0 1-14.885 6.165h-14.91a21.05 21.05 0 0 1-21.05-21.05"/><path stroke="#08a88a" d="M210.43 185.21v90"/><path stroke="#121331" d="M176.68 107.46h34.43l-34.43 34.43h34.43m31.48-73.87h34.43l-34.43 34.44h34.43"/></g></svg>