<svg xmlns="http://www.w3.org/2000/svg" width="430" height="430" fill="none" viewBox="0 0 430 430"><path stroke="#121331" stroke-miterlimit="14.96" stroke-width="12" d="M373.9 269.3c0-8.3-6.7-15-15-15H71.1c-8.3 0-15 6.7-15 15v48.5c0 8.3 6.7 15 15 15h287.8c8.3 0 15-6.7 15-15z"/><path fill="#08a88a" d="M206.5 276.7c4.1 0 7.5 3.2 7.5 7.2s-3.4 7.2-7.5 7.2-7.5-3.2-7.5-7.2 3.4-7.2 7.5-7.2m23.399 0c4.1 0 7.5 3.2 7.5 7.2s-3.4 7.2-7.5 7.2-7.5-3.2-7.5-7.2 3.4-7.2 7.5-7.2m23.401 0c4.1 0 7.5 3.2 7.5 7.2s-3.4 7.2-7.5 7.2-7.5-3.2-7.5-7.2 3.3-7.2 7.5-7.2m23.3 0c4.1 0 7.5 3.2 7.5 7.2s-3.4 7.2-7.5 7.2-7.5-3.2-7.5-7.2 3.4-7.2 7.5-7.2m23.4 0c4.1 0 7.5 3.2 7.5 7.2s-3.4 7.2-7.5 7.2-7.5-3.2-7.5-7.2 3.4-7.2 7.5-7.2m23.399 0c4.1 0 7.5 3.2 7.5 7.2s-3.4 7.2-7.5 7.2-7.5-3.2-7.5-7.2 3.4-7.2 7.5-7.2m23.401 0c4.1 0 7.5 3.2 7.5 7.2s-3.4 7.2-7.5 7.2-7.5-3.2-7.5-7.2 3.3-7.2 7.5-7.2m-140.3 23.4c4.1 0 7.5 3.2 7.5 7.2s-3.4 7.2-7.5 7.2-7.5-3.2-7.5-7.2 3.4-7.2 7.5-7.2m23.399 0c4.1 0 7.5 3.2 7.5 7.2s-3.4 7.2-7.5 7.2-7.5-3.2-7.5-7.2 3.4-7.2 7.5-7.2m23.401 0c4.1 0 7.5 3.2 7.5 7.2s-3.4 7.2-7.5 7.2-7.5-3.2-7.5-7.2 3.3-7.2 7.5-7.2m23.3 0c4.1 0 7.5 3.2 7.5 7.2s-3.4 7.2-7.5 7.2-7.5-3.2-7.5-7.2 3.4-7.2 7.5-7.2m23.4 0c4.1 0 7.5 3.2 7.5 7.2s-3.4 7.2-7.5 7.2-7.5-3.2-7.5-7.2 3.4-7.2 7.5-7.2m23.399 0c4.1 0 7.5 3.2 7.5 7.2s-3.4 7.2-7.5 7.2-7.5-3.2-7.5-7.2 3.4-7.2 7.5-7.2m23.401 0c4.1 0 7.5 3.2 7.5 7.2s-3.4 7.2-7.5 7.2-7.5-3.2-7.5-7.2 3.3-7.2 7.5-7.2"/><path stroke="#08a88a" stroke-miterlimit="14.96" stroke-width="10" d="M101.8 280.4c8.3 0 15 6.7 15 15s-6.7 15-15 15-15-6.7-15-15 6.7-15 15-15Z"/><path stroke="#121331" stroke-miterlimit="14.96" stroke-width="12" d="M373.9 190.7c0-8.3-6.7-15-15-15H71.1c-8.3 0-15 6.7-15 15v48.5c0 8.3 6.7 15 15 15h287.8c8.3 0 15-6.7 15-15z"/><path fill="#08a88a" d="M206.5 198.2c4.1 0 7.5 3.2 7.5 7.2s-3.4 7.2-7.5 7.2-7.5-3.2-7.5-7.2 3.4-7.2 7.5-7.2m23.399 0c4.1 0 7.5 3.2 7.5 7.2s-3.4 7.2-7.5 7.2-7.5-3.2-7.5-7.2 3.4-7.2 7.5-7.2m23.401 0c4.1 0 7.5 3.2 7.5 7.2s-3.4 7.2-7.5 7.2-7.5-3.2-7.5-7.2 3.3-7.2 7.5-7.2m23.3 0c4.1 0 7.5 3.2 7.5 7.2s-3.4 7.2-7.5 7.2-7.5-3.2-7.5-7.2c.1-4 3.4-7.2 7.5-7.2m23.4 0c4.1 0 7.5 3.2 7.5 7.2s-3.4 7.2-7.5 7.2-7.5-3.2-7.5-7.2 3.4-7.2 7.5-7.2m23.399 0c4.1 0 7.5 3.2 7.5 7.2s-3.4 7.2-7.5 7.2-7.5-3.2-7.5-7.2 3.4-7.2 7.5-7.2m23.401 0c4.1 0 7.5 3.2 7.5 7.2s-3.4 7.2-7.5 7.2-7.5-3.2-7.5-7.2 3.3-7.2 7.5-7.2m-140.3 23.4c4.1 0 7.5 3.2 7.5 7.2s-3.4 7.2-7.5 7.2-7.5-3.2-7.5-7.2 3.4-7.2 7.5-7.2m23.399 0c4.1 0 7.5 3.2 7.5 7.2s-3.4 7.2-7.5 7.2-7.5-3.2-7.5-7.2 3.4-7.2 7.5-7.2m23.401 0c4.1 0 7.5 3.2 7.5 7.2s-3.4 7.2-7.5 7.2-7.5-3.2-7.5-7.2 3.3-7.2 7.5-7.2m23.3 0c4.1 0 7.5 3.2 7.5 7.2s-3.4 7.2-7.5 7.2-7.5-3.2-7.5-7.2c.1-4 3.4-7.2 7.5-7.2m23.4 0c4.1 0 7.5 3.2 7.5 7.2s-3.4 7.2-7.5 7.2-7.5-3.2-7.5-7.2 3.4-7.2 7.5-7.2m23.399 0c4.1 0 7.5 3.2 7.5 7.2s-3.4 7.2-7.5 7.2-7.5-3.2-7.5-7.2 3.4-7.2 7.5-7.2m23.401 0c4.1 0 7.5 3.2 7.5 7.2s-3.4 7.2-7.5 7.2-7.5-3.2-7.5-7.2 3.3-7.2 7.5-7.2"/><path stroke="#08a88a" stroke-miterlimit="14.96" stroke-width="10" d="M101.8 201.9c8.3 0 15 6.7 15 15s-6.7 15-15 15-15-6.7-15-15 6.7-15 15-15Z"/><path stroke="#121331" stroke-miterlimit="14.96" stroke-width="12" d="M373.9 112.2c0-8.3-6.7-15-15-15H71.1c-8.3 0-15 6.7-15 15v48.5c0 8.3 6.7 15 15 15h287.8c8.3 0 15-6.7 15-15z"/><path fill="#08a88a" d="M206.5 119.6c4.1 0 7.5 3.2 7.5 7.2s-3.4 7.2-7.5 7.2-7.5-3.2-7.5-7.2c0-3.9 3.4-7.2 7.5-7.2m23.399 0c4.1 0 7.5 3.2 7.5 7.2s-3.4 7.2-7.5 7.2-7.5-3.2-7.5-7.2c0-3.9 3.4-7.2 7.5-7.2m23.401 0c4.1 0 7.5 3.2 7.5 7.2s-3.4 7.2-7.5 7.2-7.5-3.2-7.5-7.2c0-3.9 3.3-7.2 7.5-7.2m23.3 0c4.1 0 7.5 3.2 7.5 7.2s-3.4 7.2-7.5 7.2-7.5-3.2-7.5-7.2c.1-3.9 3.4-7.2 7.5-7.2m23.4 0c4.1 0 7.5 3.2 7.5 7.2s-3.4 7.2-7.5 7.2-7.5-3.2-7.5-7.2c0-3.9 3.4-7.2 7.5-7.2m23.399 0c4.1 0 7.5 3.2 7.5 7.2s-3.4 7.2-7.5 7.2-7.5-3.2-7.5-7.2c0-3.9 3.4-7.2 7.5-7.2m23.401 0c4.1 0 7.5 3.2 7.5 7.2s-3.4 7.2-7.5 7.2-7.5-3.2-7.5-7.2c0-3.9 3.3-7.2 7.5-7.2"/><path fill="#08a88a" d="M346.8 119.6c4.1 0 7.5 3.2 7.5 7.2s-3.4 7.2-7.5 7.2-7.5-3.2-7.5-7.2c0-3.9 3.3-7.2 7.5-7.2M206.5 143c4.1 0 7.5 3.2 7.5 7.2s-3.4 7.2-7.5 7.2-7.5-3.2-7.5-7.2 3.4-7.2 7.5-7.2m23.399 0c4.1 0 7.5 3.2 7.5 7.2s-3.4 7.2-7.5 7.2-7.5-3.2-7.5-7.2 3.4-7.2 7.5-7.2m23.401 0c4.1 0 7.5 3.2 7.5 7.2s-3.4 7.2-7.5 7.2-7.5-3.2-7.5-7.2 3.3-7.2 7.5-7.2"/><path fill="#08a88a" d="M253.3 143c4.1 0 7.5 3.2 7.5 7.2s-3.4 7.2-7.5 7.2-7.5-3.2-7.5-7.2 3.3-7.2 7.5-7.2m23.3 0c4.1 0 7.5 3.2 7.5 7.2s-3.4 7.2-7.5 7.2-7.5-3.2-7.5-7.2c.1-4 3.4-7.2 7.5-7.2m23.4 0c4.1 0 7.5 3.2 7.5 7.2s-3.4 7.2-7.5 7.2-7.5-3.2-7.5-7.2 3.4-7.2 7.5-7.2m23.399 0c4.1 0 7.5 3.2 7.5 7.2s-3.4 7.2-7.5 7.2-7.5-3.2-7.5-7.2 3.4-7.2 7.5-7.2m23.401 0c4.1 0 7.5 3.2 7.5 7.2s-3.4 7.2-7.5 7.2-7.5-3.2-7.5-7.2 3.3-7.2 7.5-7.2"/><path stroke="#08a88a" stroke-miterlimit="14.96" stroke-width="10" d="M101.8 123.3c8.3 0 15 6.7 15 15s-6.7 15-15 15-15-6.7-15-15 6.7-15 15-15Z"/></svg>