<svg xmlns="http://www.w3.org/2000/svg" width="430" height="430" fill="none" viewBox="0 0 430 430"><g stroke-linecap="round" stroke-linejoin="round" stroke-miterlimit="10" stroke-width="12"><path stroke="#7fd099" d="M255.2 71.2h-20.5m-38.8 0h-20.5"/><path stroke="#101e2a" d="M265.6 238.6s13-29.8-2.4-57.6m-95.8 0c-15.5 27.8-2.4 57.6-2.4 57.6m160.5 27.599c1.8 1.5 3.1 3.1 4 4.7 9.6 17.3-3.8 78.8-3.8 78.8s25.6 12.9 17.3 25.4h-52.3s-8-54.9-1-77.5c0 0-28.3 5.5-46.5-6.5m51.9-39.499c-13.2-4.3-26.2-7.3-31.4-8.5M226.2 84.5c5.1-2.9 8.4-7.8 8.4-13.3 0-8.9-8.7-16.2-19.4-16.2s-19.4 7.2-19.4 16.2c0 5.5 3.3 10.4 8.4 13.3m-99 181.801c-1.7 1.5-3 3-3.9 4.6-9.6 17.3 3.8 78.8 3.8 78.8s-25.6 12.9-17.3 25.3h52.3s8-54.9 1-77.5c0 0 28.1 5.4 46.3-6.3m-20.5-48.002c-5.4 1.2-18.3 4.2-31.4 8.5"/><path stroke="#7fd099" d="M226.7 299h-22.9c-8.2 0-15.5-4.5-18.3-11.1L165 238.6c18.4 24.1 82.2 25 100.6 0L245 287.9c-2.8 6.7-10.1 11.1-18.3 11.1"/><path stroke="#101e2a" d="M263.1 181s.1.1 0 0c1.1 1.8 17.8 28.5 55.3 28.6l-22.2 38.2c-.4 1.3-.8 2.5-1.1 3.8-6.4 26 18.8 31.3 18.8 31.3l11.6-16.7 28.3-40.6c11-15.8 5.7-37.7-11.3-46.7L322.4 166c-16-10.3-33.3-18.1-51.3-23.4-9.1-2.7-18.3-4.7-27.7-6m-56 0c-28.1 4-55.2 14-79.3 29.5L88 179c-17 9-22.3 30.9-11.3 46.7l28.4 40.7 11.5 16.5s25.1-5.3 18.8-31.2c-.3-1.2-.7-2.5-1.1-3.8l-22.2-38.2c37.5-.1 54.2-26.9 55.2-28.5v-.1"/><path stroke="#101e2a" d="M263.1 181c0 10.5-11.7 19-26.2 19-9 0-17-3.3-21.7-8.3-4.7 5-12.7 8.3-21.7 8.3-14.5 0-26.2-8.5-26.2-19m40.9-26.401h28.9c3.5 0 6.3-2.8 6.3-6.3v-43.5c0-11.6-9.5-21.1-21.1-21.1h-14.2c-11.6 0-21.1 9.5-21.1 21.1v28.7c.2 11.6 9.6 21.1 21.2 21.1"/></g></svg>