<svg xmlns="http://www.w3.org/2000/svg" width="430" height="431" fill="none" viewBox="0 0 430 431"><g stroke-linecap="round" stroke-linejoin="round" stroke-miterlimit="10" stroke-width="12"><path stroke="#08a88a" d="M263.5 89.422c1.1-4 1.6-8.2 1.6-12.5 0-10.2-3.1-19.6-8.4-27.5-8.9-13.2-24-22-41.1-22-16.4 0-30.9 8-39.9 20.3-6 8.2-9.6 18.3-9.6 29.2 0 3.7.4 7.2 1.2 10.7"/><path stroke="#121331" d="M248.4 256.021h7.6c45.8 0 83 37.2 83 83v27.8c0 7.6-5.7 14-13.3 14.9l-29 3.4c-7.9.9-15.7 2.9-23.1 6-19 7.9-39.2 11.9-59.4 11.9-20.1 0-40.2-3.9-59.1-11.8l-.2-.1c-7.7-3.2-15.8-5.3-24.1-6.3l-27.5-3.2c-7.6-.8-13.3-7.2-13.3-14.8v-27.8c0-45.8 37.2-83 83-83h7.6m0 .001v-19.2m-27.2-91 .5 14.3 1 29.6c.6 16.1 7.4 30.4 18.2 40.8 2.3 2.3 4.9 4.3 7.5 6.2 9.6 6.7 21.3 10.6 33.9 10.6s24.3-3.9 33.9-10.6c13.4-9.2 22.8-23.8 25.1-40.7.3-2.1.5-4.1.6-6.3l1-29.6.5-14.3"/><path stroke="#121331" d="M157.6 257.422c.4 4.1 2.3 8.2 5.2 12.3 22.4 31.1 81.1 31.1 103.4 0 2.9-4 4.8-8.2 5.2-12.3m-23-1.4v-19.2"/><path stroke="#08a88a" d="M280.1 132.622v13.2h-25.8l-10.9-32.5-22.9 32.5h-71.6v-13.2c.1-29.4 19-53.6 47.1-62 5.7-1.7 11.9-2.7 18.5-2.7s12.8 1 18.5 2.7c28.2 8.4 47.1 32.6 47.1 62m-65.6 189.8v.1m0 52.9v.1"/><path stroke="#121331" d="M154.9 189.822v6.9c0 8.8-7.2 16-16 16s-16-7.2-16-16v-30.9c0-4.4 1.8-8.4 4.7-11.3s6.9-4.7 11.3-4.7c6.8 0 12.7 4.3 15 10.4m120.2 29.6v6.9c0 8.8 7.2 16 16 16s16-7.2 16-16v-30.9c0-8.8-7.2-16-16-16-4.4 0-8.4 1.8-11.3 4.7-1.6 1.6-2.8 3.5-3.7 5.7"/><path stroke="#08a88a" d="M221.2 214.622h7.5c3.1 0 5.6-2.5 5.6-5.6s-2.5-5.6-5.6-5.6h-7.5c-3.1 0-5.6 2.5-5.6 5.6s2.5 5.6 5.6 5.6"/><path stroke="#121331" d="M123 194.221v-63.7c0-25.2 10.3-48.1 26.9-64.6 16.6-16.6 39.5-26.9 64.6-26.9 50.3 0 91.5 41.2 91.5 91.5v63.7"/><path stroke="#08a88a" d="m233.8 209.021 15.5-2.3c6.4-.9 12.5-3.2 18-6.7 13.7-8.8 38.9-24.4 38.9-24.4m-91.7 173.9v.2"/></g></svg>