<svg xmlns="http://www.w3.org/2000/svg" width="430" height="430" fill="none" viewBox="0 0 430 430"><g stroke-linecap="round" stroke-linejoin="round" stroke-width="12"><path stroke="#101e2a" d="m215 231 90 36.705v107.294l-90-36.705zm90 36.705L395 231v107.294l-90 36.705m0-180.706 90 36.706M35 231l90 36.705v107.294l-90-36.705zm90 36.705L215 231v107.294L125 375m0-180.707-90 36.706"/><path stroke="#7fd099" d="m125 87 90 36.705v107.294l-90-36.705zm90.001 36.705 90-36.705v107.294l-90 36.705M215 50.293l90 36.706m-90-36.706-90 36.706"/></g></svg>