<svg xmlns="http://www.w3.org/2000/svg" width="430" height="430" fill="none" viewBox="0 0 430 430"><mask id="maMErzJxyVa" width="110" height="145" x="10" y="200" maskUnits="userSpaceOnUse" style="mask-type:alpha"><path fill="#D9D9D9" d="M105.651 200c-16.132 17.976-19.7 44.966-6.969 67.018 5.278 9.142 12.692 16.282 21.248 21.154l-18.795 56.385H10V200z"/></mask><g mask="url(#maMErzJxyVa)"><path stroke="#08a88a" stroke-linecap="round" stroke-linejoin="round" stroke-width="12" d="M119.958 243.268c-18.599-2.601-37.767 6.039-47.734 23.302-9.967 17.264-7.866 38.184 3.686 52.99a47.4 47.4 0 0 1-17.152-5.916c-22.719-13.117-30.503-42.167-17.386-64.886s42.167-30.503 64.886-17.386a47.4 47.4 0 0 1 13.7 11.896"/></g><path stroke="#08a88a" stroke-linecap="round" stroke-linejoin="round" stroke-width="12" d="M65 80h135.156c14.412 0 26.788 10.25 29.474 24.409l12.847 67.728-43.356 3.943C136.772 181.751 79.689 140.859 65 80"/><path stroke="#08a88a" stroke-linecap="round" stroke-width="12" d="M76.417 110h80m-57.61 30h80"/><path stroke="#121331" stroke-linecap="round" stroke-linejoin="round" stroke-width="12" d="M350 70V35c-16.569 0-30 13.432-30 30v5h-14.012c-33.137 0-60 26.863-60 60l-3.512 42.137-100.73 9.158a44.8 44.8 0 0 0-11.03 2.423 57.6 57.6 0 0 0-11.031 4.915c-27.445 15.846-36.848 50.94-21.003 78.385 5.278 9.142 12.692 16.282 21.248 21.154L100.987 345l25 55h35l-25-55 11.134-33.403c18.233-6.924 31.607-23.712 33.607-43.846l72.05-6.55c15.113-1.374 28.84-7.167 39.953-16.034l42.329 20.089-28.589 49.516 30.311 17.5 37.618-65.155c5.476-9.486 2.304-21.613-7.117-27.201l-50.115-29.731a74.9 74.9 0 0 0 3.82-23.676s.45-13.121 0-21.509c-.74-13.787-5-35-5-35H325l18.648 18.648A21.7 21.7 0 0 0 358.982 155c16.342 0 26.812-17.389 19.165-31.832z"/></svg>