<svg width="639" height="264" viewBox="0 0 639 264" fill="none" xmlns="http://www.w3.org/2000/svg">
<path d="M93.8 191.2C96 191.2 97.6 190.6 99.4 189.4V214.6C95.6 218 89.2 221 82.4 221C72.8 221 65.8 216 60.2 207.6C53.8 198 47.8 192.2 41.4 190.6V219H7V77H41.4V162.8C50.4 162.8 56.6 147.2 56.6 135.4H90.6C90.6 152.8 84.8 173.2 65 175.8C71.8 176.6 77 179.6 81.6 184.4C86.2 189.2 89.4 191.2 93.8 191.2ZM161.009 133.4C171.809 133.4 180.009 141.2 180.009 153.6C180.009 166.4 171.209 174.2 162.209 174.2C154.209 174.2 149.409 171 145.809 165.4C142.209 169.4 141.009 173.6 141.009 178.2V219H106.609V135.4H141.009V146.8C146.209 137.6 153.609 133.4 161.009 133.4ZM224.948 133.4C249.148 133.4 268.748 153.2 268.748 177.4C268.748 201.2 249.148 221 224.948 221C200.748 221 181.148 201.2 181.148 177.4C181.148 153.2 200.748 133.4 224.948 133.4ZM224.948 192.2C232.548 192.2 238.948 187 240.148 180C238.948 180.2 237.748 180.4 236.548 180.4C226.948 180.4 218.748 173 218.148 163.6C213.348 166.2 210.748 171.6 210.748 177.4C210.748 185.6 216.348 192.2 224.948 192.2ZM324.256 192C325.656 192.2 327.056 192.4 328.456 192.4C335.256 192.4 342.656 189.8 348.456 186V216.6C342.656 219.2 333.856 220.8 326.056 220.8C300.056 220.8 276.656 206 276.656 176.2C276.656 154 295.456 133.4 319.456 133.4C338.056 133.4 349.656 140 359.456 156.2L324.256 192ZM317.456 160.6C310.056 160.6 305.856 167.2 305.856 172.6C305.856 175.2 306.456 177.6 307.456 179.8L323.856 163C322.056 161.2 319.856 160.6 317.456 160.6ZM453.175 191.2C455.375 191.2 456.975 190.6 458.775 189.4V214.6C454.975 218 448.575 221 441.775 221C432.175 221 425.175 216 419.575 207.6C413.175 198 407.175 192.2 400.775 190.6V219H366.375V77H400.775V162.8C409.775 162.8 415.975 147.2 415.975 135.4H449.975C449.975 152.8 444.175 173.2 424.375 175.8C431.175 176.6 436.375 179.6 440.975 184.4C445.575 189.2 448.775 191.2 453.175 191.2ZM510.584 192C511.984 192.2 513.384 192.4 514.784 192.4C521.584 192.4 528.984 189.8 534.784 186V216.6C528.984 219.2 520.184 220.8 512.384 220.8C486.384 220.8 462.984 206 462.984 176.2C462.984 154 481.784 133.4 505.784 133.4C524.384 133.4 535.984 140 545.784 156.2L510.584 192ZM503.784 160.6C496.384 160.6 492.184 167.2 492.184 172.6C492.184 175.2 492.784 177.6 493.784 179.8L510.184 163C508.384 161.2 506.184 160.6 503.784 160.6ZM605.15 133.4C615.95 133.4 624.15 141.2 624.15 153.6C624.15 166.4 615.35 174.2 606.35 174.2C598.35 174.2 593.55 171 589.95 165.4C586.35 169.4 585.15 173.6 585.15 178.2V219H550.75V135.4H585.15V146.8C590.35 137.6 597.75 133.4 605.15 133.4Z" fill="#F6F6F5"></path>
<path d="M8.368 262.76V241.416H11.568V262.76H8.368ZM40.3448 262.76L28.5368 246.376V262.76H25.3368V241.416H28.6328L40.2488 257.416V241.416H43.4488V262.76H40.3448ZM62.3965 262.76V244.232H55.7725V241.416H72.1885V244.232H65.5965V262.76H62.3965ZM84.5243 262.76V241.416H98.8603V244.232H87.7243V250.472H98.6363V253.288H87.7243V259.944H98.8603V262.76H84.5243ZM124.156 262.76L119.068 254.536H115.068V262.76H111.868V241.416H120.86C124.924 241.416 127.708 244.04 127.708 247.976C127.708 251.816 125.116 253.864 122.396 254.216L127.868 262.76H124.156ZM124.412 247.976C124.412 245.736 122.748 244.232 120.444 244.232H115.068V251.72H120.444C122.748 251.72 124.412 250.216 124.412 247.976ZM155.881 262.76L154.153 258.344H143.689L141.961 262.76H138.441L146.921 241.416H150.921L159.401 262.76H155.881ZM148.905 244.2L144.617 255.496H153.225L148.905 244.2ZM179.854 263.144C173.774 263.144 168.91 258.664 168.91 252.104C168.91 245.544 173.774 241.064 179.854 241.064C184.046 241.064 186.67 243.08 188.334 245.576L185.614 247.016C184.494 245.224 182.382 243.912 179.854 243.912C175.534 243.912 172.206 247.304 172.206 252.104C172.206 256.872 175.534 260.296 179.854 260.296C182.382 260.296 184.494 258.984 185.614 257.192L188.334 258.632C186.638 261.128 184.046 263.144 179.854 263.144ZM205.74 262.76V244.232H199.116V241.416H215.532V244.232H208.94V262.76H205.74ZM227.868 262.76V241.416H231.068V262.76H227.868ZM251.109 262.76L242.629 241.416H246.277L253.093 259.272L259.941 241.416H263.589L255.109 262.76H251.109ZM275.149 262.76V241.416H289.485V244.232H278.349V250.472H289.261V253.288H278.349V259.944H289.485V262.76H275.149Z" fill="#F6F6F5"></path>
<path d="M75.49 119.704C73.972 120.892 71.794 121.354 69.814 121.354C65.458 121.354 62.62 117.394 62.62 113.302V73.8998H70.144V112.312C70.144 113.83 71.332 114.688 72.784 114.688C73.774 114.688 74.764 114.292 75.49 113.632V119.704ZM108.203 114.688C109.193 114.688 110.183 114.292 110.975 113.632V119.704C109.391 120.892 107.213 121.354 105.233 121.354C102.527 121.354 99.9528 119.704 98.7648 116.866C96.8508 119.902 93.8148 121.354 90.2508 121.354C82.8588 121.354 78.1068 115.348 78.1068 108.22C78.1068 101.158 82.8588 95.1518 90.2508 95.1518C93.3528 95.1518 96.0588 96.2078 98.0388 98.5838V95.6798H105.563V112.312C105.563 113.83 106.751 114.688 108.203 114.688ZM92.0328 115.084C94.6728 115.084 97.1148 113.302 98.0388 110.794V105.646C97.1148 103.138 94.7388 101.356 92.0328 101.356C88.3368 101.356 85.5648 104.59 85.5648 108.22C85.5648 111.85 88.3368 115.084 92.0328 115.084ZM129.592 95.1518C132.496 95.1518 134.806 97.4618 134.806 100.3C134.806 103.138 132.496 105.514 129.592 105.514C128.074 105.514 126.622 104.788 125.632 103.6C124.312 104.326 123.52 105.844 123.124 107.824V120.76H115.6V95.6798H123.124V99.3098C124.51 96.9998 126.886 95.1518 129.592 95.1518ZM167.564 114.688C168.554 114.688 169.544 114.292 170.336 113.632V119.704C168.752 120.892 166.574 121.354 164.594 121.354C161.888 121.354 159.314 119.704 158.126 116.866C156.212 119.902 153.176 121.354 149.612 121.354C142.22 121.354 137.468 115.348 137.468 108.22C137.468 101.158 142.22 95.1518 149.612 95.1518C152.714 95.1518 155.42 96.2078 157.4 98.5838V95.6798H164.924V112.312C164.924 113.83 166.112 114.688 167.564 114.688ZM151.394 115.084C154.034 115.084 156.476 113.302 157.4 110.794V105.646C156.476 103.138 154.1 101.356 151.394 101.356C147.698 101.356 144.926 104.59 144.926 108.22C144.926 111.85 147.698 115.084 151.394 115.084Z" fill="#F6F6F5"></path>
<path d="M314.999 90.6441V114.403C314.999 116.152 314.305 117.829 313.068 119.066C311.832 120.303 310.155 120.999 308.406 121H290.957V84.0508H308.406C310.154 84.0508 311.831 84.7456 313.068 85.9819C314.304 87.2186 314.999 88.8955 314.999 90.6441Z" fill="#BBF490"></path>
<path d="M242.478 98.6914V120.984H224.342C226.091 120.984 227.768 120.29 229.005 119.053C230.243 117.817 230.938 116.14 230.939 114.391V110.223L234.608 106.558L242.478 98.6914Z" fill="#7FD099"></path>
<path d="M290.957 84.0508H266.719V121H290.957V84.0508Z" fill="#BBF490"></path>
<g style="mix-blend-mode:multiply" opacity="0.5">
<path d="M242.482 98.6914V120.984H224.346C226.095 120.984 227.772 120.29 229.009 119.053C230.246 117.817 230.942 116.14 230.943 114.391V110.223L234.612 106.558L242.482 98.6914Z" fill="#7FD099"></path>
</g>
<g style="mix-blend-mode:multiply" opacity="0.5">
<path d="M290.955 84.0508H266.717V121H290.955V84.0508Z" fill="#BBF490"></path>
</g>
<path d="M266.719 84.0508V121H242.48V98.6921L251.756 89.4199L257.122 84.0508H266.719Z" fill="#7FD099"></path>
<path d="M298.371 42.8013L286.034 55.1378L259.91 29.0139L272.258 16.6697C272.87 16.0568 273.597 15.5706 274.398 15.2388C275.198 14.9071 276.056 14.7363 276.922 14.7363C277.789 14.7363 278.647 14.9071 279.447 15.2388C280.247 15.5706 280.974 16.0568 281.587 16.6697L298.386 33.4686C298.999 34.0818 299.484 34.8096 299.815 35.611C300.147 36.4124 300.316 37.2712 300.315 38.138C300.313 39.0051 300.141 39.8632 299.807 40.6634C299.474 41.4637 298.985 42.1899 298.371 42.8013Z" fill="#FF6B9D" fill-opacity="0.45"></path>
<path d="M230.949 78.8242V114.405C230.948 116.154 230.253 117.831 229.015 119.068C227.778 120.304 226.101 120.999 224.352 120.999H200.593C199.727 120.999 198.87 120.829 198.07 120.498C197.269 120.167 196.542 119.681 195.93 119.069C195.318 118.456 194.832 117.729 194.501 116.929C194.17 116.129 194 115.271 194 114.405V78.8242H230.949Z" fill="#F4F4F4"></path>
<path d="M234.618 106.559L230.949 110.225V102.891L234.618 106.559Z" fill="#F4F4F4"></path>
<g style="mix-blend-mode:multiply" opacity="0.5">
<path d="M234.616 106.557L230.947 110.223V102.889L234.616 106.557Z" fill="#F4F4F4"></path>
</g>
<path d="M251.757 89.419L242.481 98.6912L234.618 106.558L230.949 102.889V68.6113L246.388 84.0499L251.757 89.419Z" fill="#FF6B9D"></path>
<g style="mix-blend-mode:multiply" opacity="0.5">
<path d="M251.755 89.419L242.479 98.6912L234.616 106.558L230.947 102.889V68.6113L246.386 84.0499L251.755 89.419Z" fill="#FF6B9D"></path>
</g>
<path d="M230.949 6.59332V78.8251H194V6.59332C194 4.84467 194.695 3.16763 195.931 1.93114C197.168 0.69466 198.845 0 200.593 0H224.352C226.101 0 227.778 0.694547 229.015 1.93092C230.253 3.16729 230.948 4.84433 230.949 6.59332Z" fill="#30353A"></path>
<path d="M206.898 66.9233V39.7188" stroke="#F4F4F4" stroke-width="7" stroke-linecap="round" stroke-linejoin="round"></path>
<path d="M218.047 66.9233V52.1875" stroke="#F4F4F4" stroke-width="7" stroke-linecap="round" stroke-linejoin="round"></path>
<path d="M218.182 109.051H218.227" stroke="#101E2A" stroke-width="12" stroke-linecap="round" stroke-linejoin="round"></path>
<path d="M268.896 72.2782L257.122 84.0517L251.757 89.4208L246.388 84.0517L230.949 68.6131V57.9731L242.772 46.1543L268.896 72.2782Z" fill="#FF6B9D"></path>
<path d="M286.034 55.1376L268.895 72.2764L242.771 46.1525V46.1487L259.91 29.0137L286.034 55.1376Z" fill="#FF6B9D" fill-opacity="0.45"></path>
<g style="mix-blend-mode:multiply" opacity="0.5">
<path d="M286.034 55.1376L268.895 72.2764L242.771 46.1525V46.1487L259.91 29.0137L286.034 55.1376Z" fill="#FF6B9D" fill-opacity="0.45"></path>
</g>
</svg>