<svg width="1690" height="721" viewBox="0 0 1690 721" fill="none" xmlns="http://www.w3.org/2000/svg">
<path d="M237.693 523.515C243.717 523.515 248.099 521.872 253.028 518.586V587.585C242.622 596.894 225.096 605.109 206.475 605.109C180.186 605.109 161.018 591.418 145.683 568.419C128.157 542.133 111.726 526.253 94.2008 521.872V599.632H0V210.83H94.2008V445.754C118.846 445.754 135.824 403.041 135.824 370.732H228.93C228.93 418.374 213.047 474.23 158.827 481.349C177.448 483.539 191.688 491.753 204.284 504.896C216.881 518.039 225.644 523.515 237.693 523.515Z" fill="#101E2A"/>
<path d="M421.738 365.256C451.313 365.256 473.768 386.612 473.768 420.564C473.768 455.611 449.67 476.968 425.024 476.968C403.117 476.968 389.973 468.206 380.115 452.873C370.257 463.825 366.97 475.325 366.97 487.92V599.632H272.77V370.732H366.97V401.945C381.21 376.755 401.474 365.256 421.738 365.256Z" fill="#101E2A"/>
<path d="M596.829 365.256C663.098 365.256 716.77 419.469 716.77 485.73C716.77 550.895 663.098 605.109 596.829 605.109C530.56 605.109 476.887 550.895 476.887 485.73C476.887 419.469 530.56 365.256 596.829 365.256ZM596.829 526.253C617.641 526.253 635.166 512.015 638.452 492.849C635.166 493.396 631.88 493.944 628.594 493.944C602.306 493.944 579.851 473.682 578.208 447.945C565.063 455.063 557.944 469.849 557.944 485.73C557.944 508.182 573.279 526.253 596.829 526.253Z" fill="#101E2A"/>
<path d="M868.773 525.705C872.606 526.253 876.44 526.8 880.274 526.8C898.895 526.8 919.159 519.681 935.042 509.277V593.061C919.159 600.18 895.061 604.561 873.702 604.561C802.503 604.561 738.425 564.038 738.425 482.444C738.425 421.659 789.907 365.256 855.628 365.256C906.562 365.256 938.328 383.327 965.164 427.683L868.773 525.705ZM850.152 439.73C829.887 439.73 818.386 457.802 818.386 472.587C818.386 479.706 820.029 486.277 822.768 492.301L867.677 446.302C862.748 441.373 856.724 439.73 850.152 439.73Z" fill="#101E2A"/>
<path d="M1221.8 523.515C1227.83 523.515 1232.21 521.872 1237.14 518.586V587.585C1226.73 596.894 1209.21 605.109 1190.59 605.109C1164.3 605.109 1145.13 591.418 1129.79 568.419C1112.27 542.133 1095.84 526.253 1078.31 521.872V599.632H984.11V210.83H1078.31V445.754C1102.96 445.754 1119.93 403.041 1119.93 370.732H1213.04C1213.04 418.374 1197.16 474.23 1142.94 481.349C1161.56 483.539 1175.8 491.753 1188.39 504.896C1200.99 518.039 1209.75 523.515 1221.8 523.515Z" fill="#101E2A"/>
<path d="M1379.01 525.705C1382.85 526.253 1386.68 526.8 1390.51 526.8C1409.13 526.8 1429.4 519.681 1445.28 509.277V593.061C1429.4 600.18 1405.3 604.561 1383.94 604.561C1312.74 604.561 1248.66 564.038 1248.66 482.444C1248.66 421.659 1300.15 365.256 1365.87 365.256C1416.8 365.256 1448.57 383.327 1475.4 427.683L1379.01 525.705ZM1360.39 439.73C1340.13 439.73 1328.63 457.802 1328.63 472.587C1328.63 479.706 1330.27 486.277 1333.01 492.301L1377.92 446.302C1372.99 441.373 1366.96 439.73 1360.39 439.73Z" fill="#101E2A"/>
<path d="M1637.97 365.256C1667.55 365.256 1690 386.612 1690 420.564C1690 455.611 1665.9 476.968 1641.26 476.968C1619.35 476.968 1606.21 468.206 1596.35 452.873C1586.49 463.825 1583.2 475.325 1583.2 487.92V599.632H1489V370.732H1583.2V401.945C1597.44 376.755 1617.71 365.256 1637.97 365.256Z" fill="#101E2A"/>
<path d="M3.74612 719.45V661.009H12.509V719.45H3.74612Z" fill="#101E2A"/>
<path d="M91.3111 719.45L58.9761 674.59V719.45H50.2132V661.009H59.239L91.0482 704.818V661.009H99.811V719.45H91.3111Z" fill="#101E2A"/>
<path d="M151.697 719.45V668.72H133.558V661.009H178.512V668.72H160.46V719.45H151.697Z" fill="#101E2A"/>
<path d="M212.292 719.45V661.009H251.55V668.72H221.055V685.805H250.936V693.515H221.055V711.74H251.55V719.45H212.292Z" fill="#101E2A"/>
<path d="M320.819 719.45L306.886 696.932H295.933V719.45H287.17V661.009H311.794C322.922 661.009 330.546 668.194 330.546 678.971C330.546 689.485 323.448 695.092 316 696.056L330.984 719.45H320.819ZM321.52 678.971C321.52 672.838 316.964 668.72 310.654 668.72H295.933V689.222H310.654C316.964 689.222 321.52 685.104 321.52 678.971Z" fill="#101E2A"/>
<path d="M407.696 719.45L402.964 707.359H374.309L369.577 719.45H359.938L383.16 661.009H394.113L417.335 719.45H407.696ZM388.592 668.632L376.85 699.561H400.422L388.592 668.632Z" fill="#101E2A"/>
<path d="M473.341 720.502C456.692 720.502 443.372 708.235 443.372 690.273C443.372 672.312 456.692 660.045 473.341 660.045C484.82 660.045 492.006 665.565 496.563 672.399L489.114 676.342C486.047 671.436 480.264 667.843 473.341 667.843C461.511 667.843 452.398 677.131 452.398 690.273C452.398 703.328 461.511 712.704 473.341 712.704C480.264 712.704 486.047 709.111 489.114 704.205L496.563 708.147C491.918 714.982 484.82 720.502 473.341 720.502Z" fill="#101E2A"/>
<path d="M544.229 719.45V668.72H526.09V661.009H571.043V668.72H552.992V719.45H544.229Z" fill="#101E2A"/>
<path d="M604.824 719.45V661.009H613.586V719.45H604.824Z" fill="#101E2A"/>
<path d="M668.466 719.45L645.244 661.009H655.234L673.899 709.9L692.651 661.009H702.641L679.42 719.45H668.466Z" fill="#101E2A"/>
<path d="M734.298 719.45V661.009H773.556V668.72H743.061V685.805H772.943V693.515H743.061V711.74H773.556V719.45H734.298Z" fill="#101E2A"/>
<path d="M187.553 327.756C183.396 331.009 177.432 332.274 172.009 332.274C160.081 332.274 152.309 321.431 152.309 310.227V202.342H172.913V307.516C172.913 311.673 176.166 314.022 180.143 314.022C182.854 314.022 185.565 312.938 187.553 311.131V327.756Z" fill="#101E2A"/>
<path d="M277.133 314.022C279.844 314.022 282.555 312.938 284.724 311.131V327.756C280.386 331.009 274.422 332.274 269 332.274C261.59 332.274 254.541 327.756 251.288 319.985C246.047 328.298 237.733 332.274 227.973 332.274C207.731 332.274 194.718 315.829 194.718 296.312C194.718 276.976 207.731 260.531 227.973 260.531C236.468 260.531 243.878 263.423 249.3 269.928V261.977H269.904V307.516C269.904 311.673 273.157 314.022 277.133 314.022ZM232.853 315.106C240.083 315.106 246.77 310.227 249.3 303.36V289.264C246.77 282.397 240.263 277.518 232.853 277.518C222.732 277.518 215.141 286.373 215.141 296.312C215.141 306.251 222.732 315.106 232.853 315.106Z" fill="#101E2A"/>
<path d="M335.706 260.531C343.659 260.531 349.984 266.856 349.984 274.627C349.984 282.397 343.659 288.903 335.706 288.903C331.55 288.903 327.573 286.915 324.862 283.662C321.248 285.65 319.079 289.807 317.995 295.228V330.647H297.391V261.977H317.995V271.916C321.79 265.591 328.296 260.531 335.706 260.531Z" fill="#101E2A"/>
<path d="M439.688 314.022C442.399 314.022 445.11 312.938 447.279 311.131V327.756C442.941 331.009 436.977 332.274 431.555 332.274C424.145 332.274 417.096 327.756 413.843 319.985C408.602 328.298 400.288 332.274 390.528 332.274C370.286 332.274 357.273 315.829 357.273 296.312C357.273 276.976 370.286 260.531 390.528 260.531C399.023 260.531 406.433 263.423 411.855 269.928V261.977H432.459V307.516C432.459 311.673 435.712 314.022 439.688 314.022ZM395.408 315.106C402.637 315.106 409.325 310.227 411.855 303.36V289.264C409.325 282.397 402.818 277.518 395.408 277.518C385.287 277.518 377.696 286.373 377.696 296.312C377.696 306.251 385.287 315.106 395.408 315.106Z" fill="#101E2A"/>
<path d="M843.424 248.187V313.239C843.424 318.028 841.522 322.622 838.136 326.009C834.75 329.396 830.158 331.299 825.369 331.303H777.587V230.134H825.369C830.157 230.134 834.749 232.037 838.136 235.422C841.521 238.808 843.424 243.399 843.424 248.187Z" fill="#BBF490"/>
<path d="M644.834 270.223V331.261H595.169C599.959 331.261 604.552 329.359 607.939 325.974C611.328 322.589 613.232 317.997 613.235 313.208V301.797L644.834 270.223Z" fill="#7FD099"/>
<path d="M777.587 230.134H711.213V331.303H777.587V230.134Z" fill="#BBF490"/>
<path d="M644.843 270.223V331.261H595.179C599.968 331.261 604.561 329.359 607.949 325.974C611.337 322.589 613.241 317.997 613.244 313.208V301.797L644.843 270.223Z" fill="#7FD099"/>
<path d="M777.584 230.134H711.209V331.302H777.584V230.134Z" fill="#BBF490"/>
<path d="M711.213 230.134V331.303H644.838V270.223L684.932 230.134H711.213Z" fill="#7FD099"/>
<path d="M797.888 117.194L764.106 150.972L692.569 79.4433L726.382 45.6445C728.058 43.9663 730.05 42.6349 732.241 41.7266C734.433 40.8182 736.782 40.3507 739.155 40.3507C741.527 40.3507 743.876 40.8182 746.069 41.7266C748.26 42.6349 750.251 43.9663 751.928 45.6445L797.93 91.6406C799.608 93.3197 800.939 95.3122 801.845 97.5065C802.752 99.7007 803.217 102.052 803.213 104.425C803.209 106.8 802.737 109.149 801.823 111.34C800.91 113.532 799.572 115.52 797.888 117.194Z" fill="#FF6B9D" fill-opacity="0.45"/>
<path d="M613.261 215.827V313.25C613.258 318.039 611.354 322.63 607.965 326.016C604.578 329.401 599.985 331.303 595.195 331.303H530.135C527.763 331.304 525.415 330.838 523.224 329.931C521.033 329.024 519.042 327.695 517.365 326.018C515.688 324.341 514.358 322.351 513.451 320.159C512.544 317.969 512.078 315.621 512.08 313.25V215.827H613.261Z" fill="#F4F4F4"/>
<path d="M623.31 291.763L613.264 301.798V281.717L623.31 291.763Z" fill="#F4F4F4"/>
<path d="M623.304 291.762L613.257 301.797V281.716L623.304 291.762Z" fill="#F4F4F4"/>
<path d="M670.243 244.835L644.843 270.223L623.31 291.763L613.264 281.717V187.863L670.243 244.835Z" fill="#FF6B9D"/>
<path d="M670.237 244.835L644.834 270.223L623.304 291.762L613.257 281.716V187.862L670.237 244.835Z" fill="#FF6B9D"/>
<path d="M613.261 18.0528V215.827H512.08V18.0528C512.08 13.2649 513.982 8.67311 517.368 5.28756C520.754 1.90201 525.346 0 530.135 0H595.195C599.985 0 604.578 1.9017 607.965 5.28694C611.354 8.67218 613.258 13.264 613.261 18.0528Z" fill="#30353A"/>
<path d="M717.176 197.898L670.243 244.835L613.264 187.863V158.731L645.639 126.37L717.176 197.898Z" fill="#FF6B9D"/>
<path d="M764.106 150.972L717.173 197.897L645.635 126.369V126.358L692.569 79.4433L764.106 150.972Z" fill="#FF6B9D" fill-opacity="0.45"/>
<path d="M764.106 150.972L717.173 197.897L645.635 126.369V126.358L692.569 79.4433L764.106 150.972Z" fill="#FF6B9D" fill-opacity="0.45"/>
</svg>
