<svg xmlns="http://www.w3.org/2000/svg" version="1.1" xmlns:xlink="http://www.w3.org/1999/xlink" xmlns:svgjs="http://svgjs.dev/svgjs" width="430" height="430"><svg xmlns="http://www.w3.org/2000/svg" width="430" height="430" style="width:100%;height:100%;transform:translate3d(0,0,0)" viewBox="0 0 430 430"><defs><clipPath id="SvgjsClipPath1068"><path d="M0 0h430v430H0z"></path></clipPath><clipPath id="SvgjsClipPath1067"><path d="M0 0h430v430H0z"></path></clipPath></defs><g clip-path="url(#a)"><g clip-path="url(#b)" style="display:block"><g style="display:block"><path fill="#BAF490" d="M375.12 294.778v62.88c0 9.64-7.82 17.46-17.45 17.46l-112.18-.105v-97.79l112.18.105c9.63 0 17.45 7.81 17.45 17.45" class="quinary"></path><path fill="#7ED099" d="m207.24 282.058-.05 93.04-71.98.02c-.075 0-45.706-2.159-45.706-11.799l-17.497-31.802 63.043-28.619z" class="quaternary"></path><path fill="#7ED099" d="m24.04-63.52-.05 93.04h-47.98c-.075 0-45.706-2.159-45.706-11.799l-17.497-31.802L-24.15-42.7z" class="quaternary" opacity=".5" style="mix-blend-mode:multiply" transform="translate(159.2 345.598)"></path><path fill="#BAF490" d="M32.075-48.895v97.79h-65.4v-97.79z" class="quinary" opacity=".5" style="mix-blend-mode:multiply" transform="translate(279.415 326.223)"></path><path fill="#7ED099" d="M247.59 277.328v97.79h-64.4l.05-93.04-.17 9.46-.07-14.21z" class="quaternary"></path></g><g style="display:block"><path fill="#FFC5BA" d="m331.109 168.159-32.649 32.65-69.141-69.14v-.01l32.641-32.64c6.82-6.82 17.87-6.82 24.69 0l44.459 44.46c6.82 6.82 6.82 17.87 0 24.68" class="secondary"></path><path fill="#E4DFE9" d="m162.38 336.9-9.71 9.7-48-59.91z" class="primary"></path><path fill="#E4DFE9" d="m4.855.005-9.71 9.7-48-59.91z" class="primary" opacity=".5" style="mix-blend-mode:multiply" transform="translate(157.525 336.895)"></path><path fill="#FF785E" d="m207.74 291.54-24.55 24.54-20.81 20.82-57.71-50.21 34.5-62.22z" class="tertiary"></path><path fill="#FF785E" d="m27.535 4.855-24.55 24.54-20.81 20.82-57.71-50.21 34.5-62.22L27.2-34.855z" class="tertiary" opacity=".5" style="mix-blend-mode:multiply" transform="translate(180.205 286.685)"></path><path fill="#FFC5BA" d="m306.96 192.31-53.86 53.86-69.14-69.14v-.01l53.86-53.85z" class="secondary"></path><path fill="#FFC5BA" d="M57.25 11.89 11.89 57.25l-69.14-69.14v-.01l45.36-45.35z" class="secondary" opacity=".5" style="mix-blend-mode:multiply" transform="translate(241.21 188.92)"></path><path fill="#FF785E" d="m253.85 245.42-31.91 31.91-14.575 14.585-68.57-67.07.375-.535 45.54-48.03z" class="tertiary"></path></g><g style="display:block"><path fill="#E4DFE9" d="m152.775 258.5-.105 99.17c0 9.64-7.82 17.45-17.46 17.45H72.33c-.6 0-1.2-.03-1.78-.09-.3-.03-.59-.07-.88-.11a17.4 17.4 0 0 1-3.34-.86c-.44-.16-.88-.34-1.3-.54-.15-.07-.3-.14-.46-.22-.14-.06-.27-.13-.41-.21-.14-.07-.28-.15-.41-.22-.1-.06-.19-.11-.29-.17-.14-.08-.28-.17-.42-.26a1 1 0 0 1-.19-.12 19 19 0 0 1-1.46-1.06c-.24-.2-.48-.4-.72-.61-.03-.02-.05-.04-.07-.06-.21-.19-.42-.39-.61-.59-.32-.31-.62-.63-.9-.97l-.32-.38c-.1-.12-.2-.25-.3-.38s-.19-.26-.29-.39c-.25-.34-.48-.68-.7-1.04-.1-.16-.2-.32-.29-.49-.08-.14-.16-.28-.24-.43-.08-.14-.15-.29-.22-.43a3 3 0 0 1-.18-.37c-.15-.31-.29-.63-.41-.95-.11-.26-.21-.53-.3-.8-.04-.09-.07-.18-.1-.28-.06-.17-.11-.35-.16-.53-.06-.17-.11-.35-.15-.53-.14-.56-.26-1.13-.35-1.7-.04-.29-.08-.58-.11-.88-.06-.58-.09-1.18-.09-1.78l.105-99.17z" class="primary"></path><path fill="#636D78" d="M152.67 72.33V263.5H54.88V72.33c0-9.64 7.81-17.45 17.45-17.45h62.88c9.64 0 17.46 7.81 17.46 17.45" class="senary"></path><path fill="none" stroke="#E4DFE9" stroke-linecap="round" stroke-linejoin="round" stroke-width="7" d="M89.024 231.998v-72m29.5 71.999v-39" class="primary"></path><path fill="none" stroke="#393346" stroke-linecap="round" stroke-linejoin="round" stroke-width="12" d="M118.878 343.497h.072" class="septenary"></path></g><path fill="#E4DFE9" d="M152.67 263.5H54.88" class="primary" style="display:block"></path></g></g></svg><style>@media (prefers-color-scheme: light) { :root { filter: none; } }
@media (prefers-color-scheme: dark) { :root { filter: none; } }
</style></svg>