<svg xmlns="http://www.w3.org/2000/svg" width="1905" height="2373" viewBox="0 0 1905 2373" fill="none"><path d="M21.9194 1376.98C42.0734 1425.49 111.935 1408.21 160.256 1387.62C248.057 1350.22 288.617 1323.78 356.262 1265.58C303.581 1334.75 245.756 1423.85 223.389 1516.98C215.79 1548.63 211.586 1584.48 229.628 1611.57C256.373 1651.71 315.726 1650.8 362.114 1637.55C434.651 1616.84 500.379 1577.67 564.028 1537.18C720.238 1437.81 869.766 1327.93 1011.27 1208.55C982.223 1238.32 934.759 1360.69 961.015 1392.94C995.932 1435.84 1134.17 1370.03 1171.51 1351.71C1434.55 1222.68 1660.35 1100.31 1712.55 1046.75C1796.36 960.74 1611.47 982.588 1611.47 982.588C1691.66 916.693 1756.98 846.815 1816.98 762.113C1850.89 714.227 1864.24 638.194 1835.93 597.505C1772.08 505.724 1583.77 620.123 1583.77 620.123C1635.46 587.58 1712.17 510.598 1746.14 459.833C1859.39 290.636 1750.13 260.308 1686.29 267.292C1612.86 275.323 1477.02 330.602 1435.77 368.263C1450.53 327.577 1511.7 230.38 1431.89 182.494C1328.46 120.432 579.857 410.228 410.327 549.619C230.755 697.267 410.475 703.518 410.475 703.518C258.298 776.381 129.674 897.502 47.8074 1045.03C36.8554 1064.77 27.1334 1090.71 41.2474 1108.33C64.5864 1137.45 177.216 1087.67 209.805 1074.37C209.805 1074.37 -8.4326 1303.94 21.9194 1376.98Z" fill="white"></path><path d="M1013.93 213.994C1001.89 175.016 1002.78 132.446 990.06 93.7164C983.803 74.6634 973.298 55.8004 956.261 47.0384C947.145 42.3504 936.868 40.9304 926.763 40.3874C882.083 37.9864 836.771 52.0144 800.224 79.5624C780.631 94.3314 762.763 114.35 757.945 139.434C754.596 156.871 757.936 175.168 764.395 191.578C770.854 207.988 782.921 234.822 792.305 249.534L1013.93 213.992L1013.93 213.994Z" fill="#F07C9E"></path><path d="M1013.93 213.995C1007.98 194.723 1005.19 174.572 1002.35 154.442C962.515 151.674 917.221 156.136 878.123 168.545C859.303 174.518 840.702 181.556 823.672 191.55C807.534 201.02 793.12 212.956 779.453 225.794C783.796 234.748 788.295 243.25 792.305 249.536L1013.93 213.994L1013.93 213.995Z" fill="#18422C"></path><path d="M871.048 185.785C950.035 165.364 1046.59 166.816 1106.96 221.69C1120.05 233.585 1131.94 247.316 1138.71 263.656C1152.59 297.191 1147.7 340.112 1125.83 369.084C1103.97 398.056 1079.37 417.698 1047.02 434.155C983.226 466.607 899.625 479.181 830.723 459.817C790.557 448.529 751.565 430.002 727.529 395.899C715.037 378.174 705.097 357.369 705.897 335.699C707.913 281.101 771.261 211.584 871.049 185.786L871.048 185.785Z" fill="#EE4677"></path><path d="M884.749 226.144C913.781 218.663 944.018 215.092 973.984 217.094C1002.81 219.02 1031.8 226.501 1056.1 242.559C1068.95 251.048 1080.97 262.065 1089.48 274.957C1097.98 287.821 1101.9 303.02 1101.9 318.366C1101.89 333.487 1098.12 348.744 1090.39 361.795C1086.43 368.493 1081.37 374.565 1076.19 380.346C1071.09 386.033 1065.62 391.381 1059.79 396.316C1035.57 416.822 1005.33 430.218 974.876 438.398C943.237 446.895 909.576 449.983 877.051 445.329C861.301 443.075 845.86 438.832 831.015 433.131C816.806 427.675 802.968 420.541 791.079 410.96C778.582 400.889 768.503 388.132 761.523 373.673C757.873 366.113 755.202 357.874 754.59 349.466C754.18 343.829 754.638 338.685 755.711 333.506C760.148 312.097 773.686 293.246 789.135 278.091C809.572 258.043 834.951 243.167 861.738 233.321C869.284 230.548 876.968 228.168 884.749 226.147C888.483 225.177 886.9 219.388 883.154 220.361C852.79 228.25 823.774 241.798 799.128 261.318C779.963 276.497 762.884 295.828 753.868 318.816C749.859 329.038 747.602 340.249 748.747 351.242C750.571 368.755 759.461 385.13 770.314 398.71C790.476 423.937 821.41 437.891 851.876 446.249C884.536 455.209 919.332 455.224 952.545 449.462C985.394 443.763 1017.96 432.155 1046 413.946C1059.32 405.296 1071.44 394.897 1081.9 382.936C1087.21 376.863 1092.39 370.497 1096.37 363.456C1100.24 356.603 1103.14 349.159 1105.04 341.526C1108.89 326.15 1108.93 309.677 1104.76 294.363C1100.25 277.796 1090.2 264.009 1077.87 252.314C1055.79 231.363 1027.35 219.113 997.59 213.915C966.941 208.563 935.358 209.949 904.85 215.563C897.564 216.904 890.328 218.512 883.154 220.361C879.418 221.324 881.001 227.111 884.749 226.146V226.144Z" fill="#F6B936"></path><path d="M897.744 270.584C919.553 264.965 942.212 262.292 964.732 263.796C986.29 265.236 1007.99 270.846 1026.19 282.867C1035.74 289.18 1044.71 297.391 1051.05 306.994C1057.39 316.597 1060.3 327.873 1060.3 339.302C1060.29 350.56 1057.49 361.908 1051.74 371.625C1048.79 376.615 1045.02 381.135 1041.16 385.442C1037.32 389.724 1033.2 393.75 1028.81 397.466C1010.67 412.82 988.008 422.835 965.205 428.959C941.521 435.32 916.297 437.661 891.946 434.177C880.088 432.48 868.462 429.285 857.285 424.993C846.715 420.934 836.389 415.619 827.544 408.491C818.177 400.942 810.639 391.406 805.407 380.567C802.719 374.999 800.739 368.909 800.289 362.715C800.117 360.354 800.155 357.985 800.377 355.629C800.418 355.191 800.469 354.755 800.519 354.318C800.539 354.143 800.62 353.583 800.521 354.277C800.555 354.037 800.59 353.796 800.627 353.556C800.764 352.665 800.925 351.778 801.108 350.895C802.727 343.081 805.486 336.887 809.551 330.113C814.196 322.374 819.562 315.896 826.083 309.5C841.342 294.532 860.318 283.371 880.419 275.983C886.1 273.895 891.886 272.103 897.744 270.581C901.478 269.611 899.895 263.822 896.149 264.795C873.156 270.769 851.218 281.044 832.558 295.823C818.018 307.339 805.128 322.008 798.291 339.441C795.252 347.19 793.541 355.72 794.409 364.052C795.805 377.454 802.557 389.922 810.864 400.315C826.117 419.4 849.551 429.975 872.599 436.298C897.322 443.081 923.647 443.078 948.787 438.717C973.576 434.417 998.166 425.643 1019.33 411.902C1029.41 405.356 1038.59 397.49 1046.5 388.438C1050.54 383.819 1054.49 378.976 1057.51 373.622C1060.46 368.409 1062.67 362.74 1064.12 356.934C1067.05 345.231 1067.08 332.687 1063.91 321.03C1060.48 308.437 1052.84 297.935 1043.47 289.044C1026.76 273.185 1005.24 263.878 982.701 259.943C959.485 255.889 935.592 256.931 912.483 261.184C906.997 262.194 901.55 263.404 896.149 264.795C892.413 265.758 893.995 271.546 897.743 270.581L897.744 270.584Z" fill="#F6B936"></path><path d="M1048.07 659.827C1032.7 612.137 990.238 482.676 995.527 424.166C940.18 429.489 934.118 429.93 891.774 423.723C897.095 458.307 890.444 601.965 891.774 668.473L1048.07 659.827Z" fill="#18422C"></path><path d="M1312.2 1828.39C1260.97 1909.1 1230.75 1970.55 1177.36 2049.86C1201.72 2063.29 1226.07 2076.71 1250.42 2090.13C1264.5 2097.89 1279.31 2106.36 1287.07 2120.44C1292.32 2129.98 1293.74 2141.1 1294.89 2151.93C1302.72 2225.32 1302.79 2299.54 1295.1 2372.96C1216.97 2307.73 1135.17 2246.9 1050.22 2190.84C1046.84 2188.61 1043.27 2186.17 1041.71 2182.43C1040.38 2179.24 1040.75 2175.61 1041.14 2172.17C1048.1 2111.15 1055.07 2050.12 1062.03 1989.1C1030.85 2029.43 1007.38 2075.71 993.273 2124.7C980.223 2112.49 967.173 2100.28 954.123 2088.08C950.77 2084.94 947.254 2081.53 946.222 2077.06C945.017 2071.83 947.485 2066.54 949.911 2061.76C1006.74 1949.79 1077.98 1845.15 1161.33 1751.24L1312.2 1828.38L1312.2 1828.39Z" fill="#18422C"></path><path d="M1183.02 2098.71C1208.05 2108.3 1231.82 2121.16 1253.59 2136.79C1258.38 2140.23 1264.18 2143.76 1267.29 2148.93C1270.49 2154.27 1269.87 2160.98 1269.77 2166.93C1269.51 2181.87 1269.26 2196.8 1269.01 2211.73C1268.72 2228.49 1268.44 2245.25 1268.15 2262C1268.09 2265.87 1274.09 2265.87 1274.15 2262C1274.67 2231.48 1275.19 2200.95 1275.71 2170.42C1275.82 2163.68 1276.58 2156.33 1274.29 2149.85C1271.97 2143.3 1266.71 2139.07 1261.32 2135.05C1250.3 2126.82 1238.73 2119.32 1226.73 2112.61C1213.19 2105.03 1199.1 2098.47 1184.62 2092.92C1183.11 2092.34 1181.33 2093.56 1180.93 2095.02C1180.46 2096.71 1181.51 2098.13 1183.02 2098.71V2098.71Z" fill="#F6B936"></path><path d="M1210.48 1921.29C1196.83 1946.83 1183 1972.28 1169 1997.62C1165.05 2004.77 1161.09 2011.91 1157.11 2019.05C1155.23 2022.42 1160.41 2025.45 1162.29 2022.07C1176.39 1996.78 1190.32 1971.39 1204.07 1945.91C1207.95 1938.72 1211.81 1931.52 1215.66 1924.32C1217.48 1920.92 1212.3 1917.88 1210.48 1921.29Z" fill="#F6B936"></path><path d="M443.286 1871.18C350.273 1893.3 285.768 1916.27 192.194 1935.88C200.288 1962.49 208.383 1989.09 216.477 2015.7C221.157 2031.08 225.864 2047.47 221.603 2062.97C218.717 2073.47 211.981 2082.43 205.258 2091C159.683 2149.06 107.975 2202.31 51.2719 2249.56C40.7599 2148.33 24.5539 2047.69 2.75692 1948.27C1.88992 1944.31 1.03192 1940.08 2.52092 1936.31C3.79492 1933.09 6.58592 1930.75 9.26892 1928.55C56.8139 1889.67 104.36 1850.79 151.905 1811.91C101.429 1819.07 52.3389 1835.87 8.06292 1861.15C7.22192 1843.3 6.38192 1825.45 5.54092 1807.6C5.32492 1803.01 5.18292 1798.12 7.56292 1794.19C10.3409 1789.61 15.8029 1787.53 20.8749 1785.8C139.684 1745.18 263.717 1719.86 388.942 1710.67L443.287 1871.18L443.286 1871.18Z" fill="#18422C"></path><path d="M162.184 1974.84C173.657 1999.65 181.82 2025.99 186.483 2052.92C187.529 2058.96 189.269 2065.94 186.851 2071.86C184.601 2077.37 179.511 2081.52 175.397 2085.61C165.038 2095.9 154.678 2106.19 144.319 2116.48C132.665 2128.06 121.01 2139.64 109.356 2151.22C106.613 2153.94 110.855 2158.18 113.599 2155.46C134.848 2134.35 156.096 2113.24 177.345 2092.13C182.027 2087.48 187.384 2082.95 190.817 2077.24C194.631 2070.89 194.252 2063.87 193.17 2056.82C191.055 2043.04 187.978 2029.39 184.038 2016.02C179.584 2000.89 173.982 1986.12 167.365 1971.81C166.685 1970.34 164.563 1969.97 163.26 1970.73C161.751 1971.62 161.501 1973.36 162.184 1974.84Z" fill="#F6B936"></path><path d="M305.591 1866.83C277.955 1875.63 250.258 1884.24 222.502 1892.65C214.73 1895.01 206.954 1897.35 199.173 1899.67C195.483 1900.78 197.054 1906.57 200.768 1905.46C228.556 1897.15 256.287 1888.65 283.958 1879.96C291.706 1877.53 299.448 1875.08 307.187 1872.61C308.73 1872.12 309.724 1870.53 309.282 1868.92C308.865 1867.4 307.142 1866.33 305.592 1866.83L305.591 1866.83Z" fill="#F6B936"></path><path d="M1312.87 1571C1237.04 1648.88 1072.11 1715.32 1101.37 1783.16C1151.36 1845.42 1210.89 1889.05 1279.1 1930.57C1307.77 1948.02 1341.36 1963.86 1373.81 1955.27C1400.53 1948.19 1422.6 1927.84 1437.72 1904.7C1542.32 1744.58 1478.64 1703.31 1544.32 1551.05C1554.55 1527.31 1646.28 1436.95 1650.06 1411.38C1661.71 1332.76 1590.73 1304.2 1548.31 1287.67C1399.85 1229.85 1294.91 1112.09 1198.57 962.16C1124.57 986.54 904.216 1010.99 832.011 1040.26C764.173 1213.85 817.284 1446.06 794.546 1580.35C789.286 1611.41 782.495 1642.96 766.076 1669.85C748.312 1698.94 726.264 1708.67 678.378 1702.69C551.759 1686.86 442.09 1666.85 315.243 1680.74C299.434 1682.47 281.653 1686.04 273.24 1699.53C267.425 1708.86 267.701 1720.61 268.364 1731.59C272.886 1806.35 285.192 1986.72 307.863 2058.11C309.844 2064.35 312.171 2070.96 317.414 2074.88C324.653 2080.3 334.747 2078.74 343.604 2076.94C458.622 2053.51 554.808 1932.62 670.397 1912.19C809.759 1887.56 949.41 1896.71 989.636 1836.37C1041.51 1758.55 993.157 1740.84 1039.52 1674.75C1133.29 1541.07 1079.99 1382.11 1072.01 1202.53C1101.94 1258.4 1137.19 1243.77 1163.22 1293.66C1196.68 1357.78 1175.76 1388.76 1255 1413.38C1349.76 1442.81 1386.69 1495.18 1312.87 1571L1312.87 1571Z" fill="#EE4677"></path><path d="M501.37 1044.24C592.527 1099.73 579.641 1127.23 683.602 1151.32C687.338 1065.89 711.789 1017.94 715.526 932.51C679.612 908.567 594.372 873.803 489.398 860.681C446.833 855.36 344.41 840.729 344.41 840.729C410.178 848.782 451.513 813.022 563.887 815.456C662.311 807.611 721.589 794.474 813.958 759.589C816.715 794.848 821.842 813.451 831.25 891.275C835.24 940.491 838.927 1003.82 832.012 1040.26C902.827 1031.08 979.236 1017.86 1060.04 999.018C1108.73 987.667 1154.94 975.229 1198.57 962.159C1198.57 962.159 1177.09 935.17 1187.83 830.762C1200.08 711.639 1182.41 686.429 1182.41 686.429C1296.81 752.937 1470.7 677.847 1578.8 722.343C1487.53 771.146 1425.12 727.212 1328.73 764.908C1326.97 765.598 1325.11 766.362 1323.97 767.872C1322.45 769.876 1322.58 772.635 1322.77 775.141C1327.22 831.405 1390.75 911.763 1401.89 967.093C1534.96 916.201 1495.1 870.192 1637.33 862.01C1681.9 859.446 1766.26 810.789 1791.63 799.492C1924.88 740.16 1896.46 649.883 1792.96 625.24C1737.09 611.938 1646.76 603.577 1618.71 585.335C1568.88 552.94 1521.7 534.134 1443.22 539.454C1410.93 541.643 1358.09 547.435 1320.59 534.792C1260.03 514.371 1146.72 471.384 1001.29 487.79L1004.84 631.559C1004.84 631.559 896.206 499.097 893.324 498.875C859.837 496.299 756.76 506.191 715.525 534.789C684.051 556.618 652.954 590.043 618.423 606.618C585.169 622.58 533.023 632.615 496.048 637.212C326.247 658.321 271.299 668.082 170.158 705.05C73.7207 740.299 -38.5073 820.906 19.8486 866C78.2046 911.094 140.894 969.753 303.174 995.026C428.207 1014.5 455.478 1016.31 501.368 1044.24L501.37 1044.24Z" fill="#C6F097"></path><path d="M857.854 382.96C874.448 418.518 890.449 452.892 926.008 474.227C934.228 479.159 949.996 481.661 959.196 478.968C969.224 476.033 979.455 466.406 984.087 457.04C1002.17 420.471 1010.23 383.492 1009.89 342.697C1009.77 328.026 1007.43 311.49 995.616 302.79C989.183 298.053 980.989 296.527 973.073 295.453C934.328 290.2 897.4 296.181 870.245 311.644C858.447 318.362 848.049 328.074 847.295 342.809C846.864 351.222 852.016 370.449 857.854 382.96Z" fill="#18422C"></path><path d="M877.848 338.187C865.298 340.036 849.651 344.066 839.101 346.492C838.483 346.634 837.812 346.811 837.439 347.323C837.006 347.92 837.137 348.74 837.288 349.462C838.092 353.314 839.063 357.175 839.867 361.028C842.391 360.293 845.752 359.421 847.831 359.048C848.9 370.054 851.741 381.18 858.215 390.145C864.69 399.109 875.274 404.637 886.323 405.066C892.414 405.302 899.496 404.398 903.674 402.406C919.897 394.669 925.808 379.089 924.998 362.623C924.663 355.821 922.963 345.663 920.904 339.171C920.625 338.291 920.31 337.358 919.587 336.784C919.014 336.33 918.27 336.159 917.55 336.034C909.1 334.559 894.077 335.814 877.846 338.188L877.848 338.187Z" fill="#F6B936"></path><path d="M980.55 325.424C993.141 323.875 1009.3 323.607 1020.11 323.146C1020.74 323.119 1021.44 323.111 1021.93 323.506C1022.51 323.966 1022.6 324.792 1022.65 325.528C1022.89 329.456 1022.98 333.436 1023.23 337.363C1020.6 337.324 1017.13 337.376 1015.03 337.568C1016.92 348.463 1017.13 359.944 1013.27 370.306C1009.41 380.668 1000.67 388.806 990.131 392.153C984.321 393.998 977.253 395.006 972.697 394.194C955.002 391.041 945.167 377.589 941.577 361.499C940.094 354.852 939.036 344.607 939.298 337.802C939.334 336.88 939.389 335.896 939.934 335.151C940.366 334.561 941.038 334.199 941.699 333.887C949.454 330.222 964.271 327.444 980.55 325.424Z" fill="#F6B936"></path><path d="M922.283 354.137C922.671 353.789 923.064 353.449 923.472 353.126C923.132 353.394 923.165 353.354 923.497 353.127C923.712 352.98 923.923 352.829 924.14 352.686C925.062 352.077 926.028 351.534 927.026 351.061C927.106 351.023 927.854 350.683 927.379 350.89C926.904 351.097 927.662 350.783 927.746 350.751C928.233 350.567 928.725 350.398 929.223 350.246C930.283 349.921 931.36 349.682 932.452 349.493C932.923 349.412 932.831 349.464 932.416 349.495C932.675 349.476 932.934 349.441 933.193 349.421C933.711 349.38 934.231 349.356 934.751 349.35C935.79 349.337 936.832 349.392 937.864 349.521C936.926 349.404 938.261 349.614 938.569 349.681C939.119 349.802 939.641 349.989 940.18 350.141C940.75 350.303 939.643 349.794 940.123 350.127C940.308 350.255 940.551 350.392 940.753 350.491C941.263 350.742 940.309 350.037 940.686 350.454C941.126 350.94 940.137 349.553 940.767 350.523C942.048 352.495 944.815 353.497 946.924 352.137C948.894 350.867 949.91 348.092 948.538 345.98C945.116 340.713 937.8 339.822 932.029 340.54C925.976 341.293 920.476 343.684 915.919 347.771C914.161 349.347 914.194 352.552 915.919 354.135C917.796 355.858 920.408 355.817 922.283 354.135V354.137Z" fill="#F6B936"></path><path d="M912.851 377.278C910.37 375.081 907.692 373.084 904.93 371.257C902.604 369.719 900.145 368.215 897.519 367.212C898.929 360.922 900.957 354.799 902.683 348.591C903.079 347.168 901.219 346.038 900.176 347.132C895.728 351.794 890.996 356.441 887.973 362.17C884.194 356.422 880.652 350.396 875.576 345.697C874.526 344.725 872.598 345.666 873.069 347.156C875.138 353.71 876.731 360.425 878.139 367.153C872.077 367.23 865.933 367.65 860.043 369.086C858.8 369.389 858.566 371.212 859.685 371.828C865.487 375.021 872.265 376.312 878.873 376.735C876.148 380.949 873.156 385.032 871.184 389.663C870.604 391.025 871.806 392.424 873.236 391.715C878.65 389.031 883.529 385.351 887.612 380.905C890.821 386.444 893.831 392.102 897.341 397.459C898.208 398.783 899.963 398.148 900.136 396.702C900.508 393.599 899.969 390.375 899.292 387.349C898.628 384.382 897.876 381.432 897.139 378.481C902.015 379.022 906.898 379.485 911.791 379.837C913.066 379.929 913.801 378.117 912.852 377.276L912.851 377.278Z" fill="#EE4677"></path><path d="M1005.63 366.304C1003.15 364.107 1000.47 362.11 997.708 360.283C995.382 358.745 992.923 357.241 990.297 356.238C991.707 349.948 993.735 343.825 995.461 337.617C995.857 336.194 993.997 335.064 992.954 336.158C988.506 340.82 983.774 345.467 980.751 351.196C976.972 345.448 973.43 339.422 968.354 334.723C967.304 333.751 965.376 334.692 965.847 336.182C967.916 342.736 969.509 349.451 970.917 356.179C964.855 356.256 958.711 356.676 952.821 358.112C951.578 358.415 951.344 360.238 952.463 360.854C958.265 364.047 965.043 365.338 971.651 365.761C968.926 369.975 965.934 374.058 963.962 378.689C963.382 380.051 964.584 381.45 966.014 380.741C971.428 378.057 976.307 374.377 980.39 369.931C983.599 375.47 986.609 381.128 990.119 386.485C990.986 387.809 992.741 387.174 992.914 385.728C993.286 382.625 992.747 379.401 992.07 376.375C991.406 373.408 990.654 370.458 989.917 367.507C994.793 368.048 999.676 368.511 1004.57 368.863C1005.84 368.955 1006.58 367.143 1005.63 366.302L1005.63 366.304Z" fill="#EE4677"></path><path d="M887.367 502.749C879.481 502.796 871.552 504.653 863.959 506.624C853.881 509.24 843.972 512.505 834.16 515.978C823.434 519.775 812.815 523.87 802.264 528.128C792.504 532.068 782.801 536.151 773.149 540.35C766.369 543.299 759.611 546.301 752.897 549.398C752.35 549.65 751.803 549.904 751.256 550.158C750.069 550.71 749.55 552.355 749.877 553.546C750.238 554.859 751.446 555.684 752.77 555.748C762.647 556.229 772.527 556.645 782.407 557.064C794.714 557.585 807.022 558.099 819.329 558.635C832.21 559.196 845.091 559.779 857.968 560.426C869.405 561 880.84 561.616 892.266 562.381C900.264 562.917 908.282 563.455 916.24 564.443C916.574 564.484 916.907 564.533 917.242 564.571C916.323 564.466 917.15 564.559 917.579 564.62L916.255 559.606C915.219 560.805 914.074 561.899 912.851 562.906C912.705 563.026 911.995 563.586 912.302 563.351C911.983 563.595 911.659 563.832 911.332 564.066C910.618 564.577 909.89 565.067 909.151 565.541C906.02 567.55 902.714 569.276 899.384 570.927C892.541 574.319 885.455 577.324 878.96 581.374C875.695 583.41 872.499 585.746 869.972 588.671C868.602 590.257 868.929 593.19 871.296 593.685C889.108 597.412 906.737 602.105 924.09 607.582C942.937 613.531 961.503 620.319 979.066 629.304C983.491 631.568 987.843 633.98 992.061 636.609C994.02 637.83 995.95 639.098 997.84 640.425C998.725 641.046 999.6 641.68 1000.47 642.328C1001.44 643.06 1001.67 643.235 1002.78 644.138C1004.04 645.158 1005.79 645.367 1007.02 644.138C1008.08 643.084 1008.29 640.922 1007.02 639.895C992.732 628.297 975.629 620.403 958.675 613.549C939.941 605.976 920.613 599.856 901.097 594.646C891.756 592.152 882.355 589.878 872.892 587.898L874.216 592.912C875.252 591.713 876.397 590.619 877.62 589.612C877.766 589.492 878.476 588.932 878.169 589.167C878.488 588.923 878.812 588.686 879.139 588.452C879.853 587.941 880.581 587.451 881.32 586.977C884.451 584.968 887.757 583.242 891.087 581.591C897.93 578.199 905.016 575.194 911.511 571.144C914.776 569.108 917.972 566.772 920.499 563.847C921.793 562.349 921.606 559.179 919.175 558.833C911.567 557.749 903.882 557.195 896.22 556.652C885.14 555.867 874.047 555.252 862.954 554.678C850.157 554.017 837.356 553.427 824.554 552.862C811.963 552.306 799.37 551.778 786.777 551.247C776.477 550.812 766.178 550.382 755.88 549.896C754.844 549.847 753.807 549.797 752.771 549.747L754.285 555.337C760.462 552.466 766.683 549.687 772.921 546.952C777.263 545.048 781.617 543.169 785.981 541.316C786.512 541.091 787.042 540.866 787.573 540.641C787.692 540.591 788.497 540.251 788.064 540.434C788.379 540.301 788.695 540.168 789.01 540.035C790.245 539.515 791.481 538.998 792.718 538.483C795.17 537.462 797.625 536.449 800.084 535.445C810.501 531.193 820.983 527.096 831.562 523.264C841.564 519.641 851.658 516.223 861.914 513.385C866.203 512.198 870.524 511.113 874.889 510.244C876.798 509.864 878.715 509.533 880.641 509.254C881.262 509.164 880.477 509.273 880.658 509.25C880.892 509.221 881.125 509.19 881.359 509.162C881.782 509.111 882.205 509.063 882.629 509.02C883.462 508.935 884.297 508.866 885.134 508.818C885.878 508.776 886.623 508.752 887.368 508.748C891.228 508.725 891.236 502.725 887.368 502.748L887.367 502.749Z" fill="#18422C"></path><path d="M1002.01 641.22C998.337 654.396 994.519 668.132 995.96 681.944C996.584 687.924 998.05 693.751 1000.71 699.164C1003.42 704.704 1007.44 709.271 1012.27 713.067C1017.03 716.809 1022.12 720.095 1026.22 724.611C1029.71 728.464 1032.46 732.989 1034.52 737.758C1038.8 747.674 1040.12 758.723 1039.83 769.44C1039.09 796.122 1027.62 821.228 1026.56 847.883C1026.09 859.439 1027.98 871.703 1035.24 881.057C1038.69 885.498 1043.21 888.83 1047.7 892.139C1051.75 895.12 1056.07 898.201 1058.93 902.413C1062.39 907.494 1063.17 913.58 1063.16 919.594C1063.15 926.546 1062.48 933.526 1061.9 940.449C1060.7 954.953 1059.03 969.413 1057.27 983.858C1056.83 987.441 1056.39 991.023 1055.95 994.605C1055.75 996.216 1057.47 997.605 1058.95 997.605C1060.73 997.605 1061.75 996.22 1061.95 994.605C1063.73 980.161 1065.51 965.715 1066.93 951.23C1067.64 943.931 1068.26 936.623 1068.73 929.305C1069.15 922.918 1069.54 916.485 1068.38 910.148C1067.32 904.323 1064.57 899.129 1060.44 894.901C1056.6 890.97 1051.95 887.959 1047.61 884.631C1043.36 881.376 1039.63 877.705 1037.1 872.943C1034.47 868.01 1033.18 862.392 1032.72 856.852C1031.65 844.051 1034.3 831.184 1037.1 818.762C1040.14 805.285 1043.7 791.894 1045.22 778.13C1047.57 756.885 1043.93 732.315 1027.34 717.251C1022.7 713.033 1017.2 709.865 1012.67 705.524C1008.53 701.567 1005.63 696.56 1003.9 691.121C999.925 678.607 1001.92 665.419 1005.06 652.958C1005.91 649.561 1006.85 646.187 1007.79 642.813C1008.83 639.088 1003.04 637.498 1002.01 641.218L1002.01 641.22Z" fill="#18422C"></path><path d="M1010.82 496.889C1032.95 497.236 1055.06 498.408 1077.1 500.397C1099.74 502.44 1122.31 505.342 1144.66 509.554C1156.58 511.801 1168.43 514.43 1180.15 517.606V511.82C1163.78 517.071 1147.41 522.323 1131.05 527.574C1114.68 532.825 1098.47 538.026 1082.18 543.252C1072.93 546.22 1063.68 549.188 1054.43 552.157C1051.8 553.003 1051.37 557.319 1054.43 557.943C1068.85 560.873 1083.5 562.434 1097.89 565.499L1097.17 560.016C1085.85 567.104 1074.4 573.982 1063.43 581.623C1049.19 591.541 1035.64 602.523 1023.54 614.978C1015.82 622.924 1008.71 631.459 1002.31 640.504C1001.37 641.827 1002.07 643.841 1003.38 644.609C1004.89 645.488 1006.55 644.859 1007.49 643.533C1018.18 628.427 1031.05 614.967 1045.18 603.048C1056.95 593.125 1069.64 584.326 1082.71 576.058C1088.51 572.39 1094.38 568.838 1100.2 565.198C1102.26 563.907 1102.11 560.276 1099.48 559.715C1085.1 556.65 1070.44 555.089 1056.03 552.159V557.945C1072.39 552.694 1088.76 547.442 1105.13 542.191C1121.41 536.965 1137.7 531.739 1153.99 526.513C1163.24 523.545 1172.49 520.577 1181.74 517.608C1184.49 516.724 1184.69 512.622 1181.74 511.822C1160.35 506.022 1138.5 501.997 1116.57 498.926C1093.65 495.716 1070.58 493.539 1047.47 492.225C1035.27 491.531 1023.05 491.082 1010.82 490.891C1006.96 490.83 1006.96 496.83 1010.82 496.891L1010.82 496.889Z" fill="#18422C"></path><path d="M1585.62 722.653C1601.49 716.082 1617.51 709.87 1633.66 704.034C1649.82 698.198 1665.96 692.785 1682.29 687.719C1691.56 684.841 1700.88 682.086 1710.22 679.45C1713.93 678.403 1712.36 672.612 1708.63 673.664C1692.1 678.328 1675.67 683.365 1659.37 688.783C1643.07 694.201 1627.04 699.938 1611.08 706.068C1602.02 709.55 1593 713.152 1584.02 716.868C1582.53 717.487 1581.46 718.858 1581.93 720.558C1582.32 721.972 1584.11 723.277 1585.62 722.653Z" fill="#18422C"></path><path d="M337.761 836.398C336.051 836.209 334.342 836.007 332.635 835.794C331.817 835.692 331 835.587 330.183 835.481C329.717 835.42 329.25 835.358 328.784 835.296C329.323 835.368 328.829 835.302 328.73 835.289C328.443 835.25 328.156 835.211 327.87 835.172C323.839 834.619 319.814 834.018 315.794 833.383C306.783 831.959 297.798 830.365 288.842 828.629C270.443 825.062 252.095 820.983 234.096 815.738C229.679 814.451 225.284 813.085 220.933 811.591C218.966 810.915 217.008 810.213 215.064 809.475C214.192 809.144 213.323 808.805 212.458 808.458C212.02 808.282 211.583 808.104 211.146 807.924C210.99 807.86 210.834 807.794 210.679 807.73C210.362 807.597 210.37 807.6 210.704 807.741C210.552 807.676 210.401 807.612 210.249 807.546C208.761 806.907 207.033 807.103 206.144 808.622C205.405 809.886 205.723 812.084 207.22 812.727C222.692 819.369 239.178 823.666 255.515 827.578C274.001 832.005 292.677 835.688 311.44 838.728C320.183 840.145 328.956 841.426 337.761 842.4C339.374 842.578 340.761 840.893 340.761 839.4C340.761 837.63 339.379 836.579 337.761 836.4V836.398Z" fill="#18422C"></path><path d="M1293.2 1333.79C1282.35 1316.17 1265.82 1298.22 1245.17 1299.57C1235.31 1300.22 1226.35 1305.3 1217.79 1310.26C1204.99 1317.67 1192.2 1325.08 1179.4 1332.48C1192.34 1371.5 1193.74 1394.34 1255 1413.37C1287.45 1423.45 1313.11 1436.22 1329.87 1451.7C1329.77 1449.04 1329.61 1446.4 1329.39 1443.79C1326.12 1404.97 1313.61 1366.97 1293.2 1333.79Z" fill="#F07C9E"></path><path d="M1388.33 1256.55C1394.76 1294.82 1414.08 1331.72 1445.27 1354.82C1476.45 1377.91 1519.95 1385.37 1555.32 1369.42C1569.8 1362.89 1582.46 1352.87 1593.81 1341.77C1600.55 1335.17 1606.86 1328.12 1612.7 1320.69C1592.19 1304.96 1567.37 1295.1 1548.31 1287.67C1488.57 1264.41 1435.89 1231.43 1387.98 1190.57C1384.92 1212.51 1384.67 1234.74 1388.33 1256.55Z" fill="#F07C9E"></path><path d="M1376.17 1680.45C1357.67 1705.16 1342.05 1733.74 1341.21 1764.6C1339.9 1812.46 1374.32 1854.35 1413.4 1882.02C1422.31 1888.33 1431.54 1894.15 1440.92 1899.74C1532.23 1757.39 1488.9 1709.96 1529.95 1588.32C1469.17 1590.1 1413.22 1630.99 1376.17 1680.45Z" fill="#F07C9E"></path><path d="M1233.28 1772.37C1229.16 1760.54 1221.3 1750.43 1213.45 1740.67C1197.69 1721.07 1181.39 1701.89 1164.6 1683.16C1119.18 1717.16 1087.06 1749.99 1101.37 1783.16C1133.45 1823.12 1169.47 1855.4 1209.19 1884.38C1218.36 1866.89 1225.76 1848.48 1231.11 1829.46C1236.35 1810.84 1239.64 1790.65 1233.28 1772.37Z" fill="#F07C9E"></path><path d="M880.396 1792.36C863.498 1782.7 843.537 1779.02 824.115 1780.28C783.5 1782.93 745.355 1807.61 724.853 1842.77C713.615 1862.05 707.683 1884.13 706.945 1906.43C794.151 1894.16 878.013 1891.67 933.728 1873.28C932.639 1868.56 931.395 1863.88 929.934 1859.24C921.392 1832.16 905.056 1806.45 880.396 1792.36Z" fill="#F07C9E"></path><path d="M1015.31 1394.37C1005.49 1416.73 1006.47 1442.79 1014.15 1465.97C1021.84 1489.14 1035.78 1509.76 1051.33 1528.58C1061.84 1541.29 1073.5 1553.53 1086.6 1563.5C1100.98 1491.86 1092.43 1414.49 1083.34 1331.93C1055.58 1347.44 1027.94 1365.64 1015.31 1394.37Z" fill="#F07C9E"></path><path d="M882.232 1555.13C907.385 1535.54 918.811 1502.17 918.716 1470.29C918.621 1438.41 908.459 1407.46 897.219 1377.63C890.369 1359.44 882.936 1341.18 871.135 1325.74C852.469 1301.33 825.502 1286.82 795.975 1277.04C795.34 1386.3 806.82 1493.42 795.971 1571.01C798.409 1571.54 800.857 1572.02 803.328 1572.42C830.679 1576.8 860.382 1572.16 882.233 1555.13L882.232 1555.13Z" fill="#F07C9E"></path><path d="M352.956 1729.66C364.579 1752.69 386.781 1768.69 410.107 1779.73C428.669 1788.5 448.817 1794.77 469.349 1794.55C489.881 1794.33 510.871 1787.04 524.886 1772.03C537.033 1759.02 543.05 1741.5 547.23 1724.2C550.222 1711.82 552.433 1699.26 553.865 1686.6C484.43 1678.28 416.804 1672.95 344.24 1678.14C342.659 1695.89 344.978 1713.84 352.957 1729.66L352.956 1729.66Z" fill="#F07C9E"></path><path d="M451.535 1937.42C415.714 1912.68 370.829 1904.62 327.306 1903.67C312.257 1903.34 297.217 1903.79 282.18 1904.49C288.562 1964.97 297.028 2023.99 307.864 2058.11C309.845 2064.35 312.172 2070.96 317.415 2074.88C324.654 2080.3 334.748 2078.74 343.605 2076.94C398.395 2065.78 448.912 2032.5 499.288 1998.5C490.493 1974.14 473.026 1952.26 451.536 1937.42H451.535Z" fill="#F07C9E"></path><path d="M768.363 1677.9C763.715 1695.35 751.935 1710.6 736.42 1719.84C731.98 1722.48 727.49 1724.52 722.615 1726.08C721.072 1726.58 720.078 1728.16 720.52 1729.77C720.937 1731.29 722.661 1732.36 724.21 1731.87C742.931 1725.87 758.956 1712.26 768.113 1694.88C770.684 1690 772.729 1684.82 774.148 1679.49C775.143 1675.76 769.358 1674.16 768.363 1677.9Z" fill="#18422C"></path><path d="M311.359 1715.98C311.315 1737.8 311.715 1759.61 312.571 1781.41C313.427 1803.21 314.748 1825.21 316.518 1847.07C318.288 1868.92 320.491 1890.52 323.15 1912.18C325.815 1933.88 328.918 1955.54 332.469 1977.11C336.02 1998.69 340.042 2020.31 344.501 2041.78C345.053 2044.43 345.612 2047.09 346.177 2049.74C346.981 2053.52 352.766 2051.92 351.963 2048.15C347.42 2026.81 343.311 2005.38 339.652 1983.87C336.02 1962.52 332.821 1941.09 330.08 1919.61C327.319 1897.97 325.004 1876.27 323.14 1854.53C321.276 1832.79 319.874 1811.24 318.911 1789.55C317.943 1767.75 317.425 1745.94 317.362 1724.12C317.354 1721.41 317.354 1718.69 317.359 1715.98C317.367 1712.12 311.367 1712.11 311.359 1715.98Z" fill="#18422C"></path><path d="M1146.81 1766.17C1158.16 1779.93 1170.27 1793.06 1183.07 1805.47C1195.77 1817.8 1209.14 1829.42 1223.1 1840.3C1237.27 1851.33 1252 1861.63 1267.27 1871.08C1282.32 1880.39 1297.88 1888.88 1313.85 1896.51C1330.04 1904.25 1346.67 1911.11 1363.62 1917.02C1365.68 1917.74 1367.74 1918.44 1369.81 1919.13C1371.35 1919.65 1373.09 1918.54 1373.5 1917.04C1373.95 1915.4 1372.95 1913.86 1371.4 1913.35C1354.73 1907.78 1338.37 1901.31 1322.42 1893.94C1306.42 1886.54 1290.82 1878.27 1275.71 1869.19C1260.54 1860.07 1245.86 1850.14 1231.76 1839.44C1217.81 1828.87 1204.45 1817.5 1191.73 1805.47C1178.88 1793.31 1166.68 1780.44 1155.24 1766.94C1153.84 1765.28 1152.44 1763.61 1151.05 1761.93C1150.02 1760.68 1147.88 1760.86 1146.81 1761.93C1145.57 1763.17 1145.78 1764.92 1146.81 1766.17Z" fill="#18422C"></path><path d="M822.187 742.306C820.783 727.681 819.379 713.057 817.975 698.432C817.82 696.819 816.707 695.432 814.975 695.432C813.473 695.432 811.819 696.809 811.975 698.432C813.379 713.057 814.783 727.681 816.187 742.306C816.342 743.919 817.455 745.306 819.187 745.306C820.689 745.306 822.343 743.929 822.187 742.306Z" fill="#18422C"></path><path d="M1176.9 661.946L1179.56 675.248C1179.87 676.79 1181.78 677.817 1183.25 677.342C1184.89 676.812 1185.67 675.303 1185.34 673.652C1184.46 669.218 1183.57 664.784 1182.68 660.35C1182.38 658.808 1180.46 657.781 1178.99 658.256C1177.36 658.786 1176.57 660.295 1176.9 661.946Z" fill="#18422C"></path><path d="M1041.75 693.922C1044.1 693.922 1046.36 691.852 1046.25 689.422C1046.14 686.992 1044.27 684.922 1041.75 684.922C1039.4 684.922 1037.14 686.992 1037.25 689.422C1037.36 691.852 1039.23 693.922 1041.75 693.922Z" fill="#18422C"></path><path d="M1067.69 778.721C1070.04 778.721 1072.3 776.651 1072.19 774.221C1072.08 771.791 1070.21 769.721 1067.69 769.721C1065.33 769.721 1063.08 771.791 1063.19 774.221C1063.3 776.651 1065.16 778.721 1067.69 778.721Z" fill="#18422C"></path><path d="M1062.7 854.539C1065.05 854.539 1067.31 852.469 1067.2 850.039C1067.09 847.609 1065.22 845.539 1062.7 845.539C1060.35 845.539 1058.09 847.609 1058.2 850.039C1058.31 852.469 1060.18 854.539 1062.7 854.539Z" fill="#18422C"></path><path d="M1088.04 932.9C1090.4 932.9 1092.65 930.83 1092.54 928.4C1092.43 925.97 1090.57 923.9 1088.04 923.9C1085.69 923.9 1083.43 925.97 1083.54 928.4C1083.65 930.83 1085.52 932.9 1088.04 932.9Z" fill="#18422C"></path><path d="M813.781 184.406C801.637 155.828 790.485 126.83 780.325 97.4883C771.645 106.999 764.491 117.876 760.402 130.099C775.831 150.34 793.793 168.651 813.781 184.406Z" fill="#EE4677"></path><path d="M849.818 52.3828C834.261 58.1938 819.365 66.0058 805.594 75.6718C823.049 104.483 844.519 132.454 865.24 158.569C858.458 123.334 852.432 87.9448 849.817 52.3828H849.818Z" fill="#EE4677"></path><path d="M929.834 40.585C928.811 40.51 927.788 40.443 926.768 40.388C911.959 39.592 897.082 40.612 882.477 43.32C895.209 77.854 908.538 105.168 921.112 141.609C924.229 105.404 926.992 73.478 929.834 40.585Z" fill="#EE4677"></path><path d="M980.748 72.2496C974.688 61.5736 966.704 52.4086 956.263 47.0386C955.739 46.7696 955.211 46.5136 954.68 46.2656C956.589 76.5686 959.445 109.081 966.999 135.623C969.623 115.63 974.707 93.9676 980.748 72.2496Z" fill="#EE4677"></path><path d="M1390.92 1004.67C1330.97 1068.94 1248.38 1135.3 1167.81 1170.42C1115.12 1193.4 1067.11 1212.4 1011.82 1228.14C955.483 1244.18 902.366 1262.83 845.219 1275.69C845.219 1275.69 850.769 1212.17 892.388 1178.75C965.195 1120.3 1060.62 1096.46 1150.48 1071.09C1191.39 1059.54 1390.92 1004.67 1390.92 1004.67Z" fill="#18422C"></path><path d="M1174.26 793.178C1211.46 871.068 1289.02 965.985 1332.36 1040.33C1350.95 1030.34 1362.19 1025.41 1382.37 1010.53C1390.02 1004.88 1397.17 996.655 1396.89 987.145C1396.72 981.247 1393.54 975.916 1390.44 970.891C1357.82 917.863 1318.57 856.702 1285.94 803.674C1280.18 794.302 1264.61 772.645 1258.12 763.757C1255 759.481 1251.09 754.971 1245.82 754.544C1242.62 754.285 1239.53 755.617 1236.59 756.919C1214.61 766.674 1196.17 776.762 1174.26 793.178Z" fill="#C6F097"></path><path d="M1356.88 974.539C1359.95 974.539 1363.18 973.2 1365.36 971.024C1367.44 968.943 1369.01 965.528 1368.88 962.539C1368.58 956.037 1363.6 950.539 1356.88 950.539C1353.8 950.539 1350.57 951.878 1348.39 954.054C1346.31 956.135 1344.74 959.55 1344.88 962.539C1345.17 969.041 1350.15 974.539 1356.88 974.539Z" fill="#F6B936"></path><path d="M1333.22 935.168C1336.29 935.168 1339.52 933.829 1341.7 931.653C1343.78 929.572 1345.35 926.157 1345.22 923.168C1344.92 916.666 1339.94 911.168 1333.22 911.168C1330.14 911.168 1326.91 912.507 1324.73 914.683C1322.65 916.764 1321.08 920.179 1321.22 923.168C1321.51 929.67 1326.49 935.168 1333.22 935.168Z" fill="#EE4677"></path><path d="M1339.28 1012.67C1342.36 1012.67 1345.59 1011.33 1347.77 1009.16C1349.85 1007.08 1351.42 1003.66 1351.28 1000.67C1350.99 994.17 1346.01 988.672 1339.28 988.672C1336.2 988.672 1332.97 990.011 1330.8 992.187C1328.72 994.268 1327.15 997.683 1327.28 1000.67C1327.57 1007.17 1332.55 1012.67 1339.28 1012.67Z" fill="#EE4677"></path><path d="M1313.55 972.572C1316.62 972.572 1319.86 971.233 1322.03 969.057C1324.11 966.976 1325.68 963.561 1325.55 960.572C1325.26 954.07 1320.27 948.572 1313.55 948.572C1310.47 948.572 1307.24 949.911 1305.06 952.087C1302.98 954.168 1301.41 957.583 1301.55 960.572C1301.84 967.074 1306.82 972.572 1313.55 972.572Z" fill="#F07C9E"></path><path d="M1307.84 894.834C1310.92 894.834 1314.15 893.495 1316.33 891.319C1318.41 889.238 1319.97 885.823 1319.84 882.834C1319.55 876.332 1314.57 870.834 1307.84 870.834C1304.76 870.834 1301.53 872.173 1299.35 874.349C1297.27 876.43 1295.71 879.845 1295.84 882.834C1296.13 889.336 1301.11 894.834 1307.84 894.834Z" fill="#F07C9E"></path><path d="M1283.85 857.363C1286.93 857.363 1290.16 856.024 1292.34 853.848C1294.42 851.767 1295.99 848.352 1295.85 845.363C1295.56 838.861 1290.58 833.363 1283.85 833.363C1280.77 833.363 1277.54 834.702 1275.37 836.878C1273.29 838.959 1271.72 842.374 1271.85 845.363C1272.14 851.865 1277.12 857.363 1283.85 857.363Z" fill="#F6B936"></path><path d="M1288.98 935.488C1292.05 935.488 1295.29 934.149 1297.46 931.973C1299.54 929.892 1301.11 926.477 1300.98 923.488C1300.69 916.986 1295.7 911.488 1288.98 911.488C1285.9 911.488 1282.67 912.827 1280.49 915.003C1278.41 917.084 1276.84 920.499 1276.98 923.488C1277.27 929.99 1282.25 935.488 1288.98 935.488Z" fill="#F6B936"></path><path d="M1260.81 896.16C1263.89 896.16 1267.12 894.821 1269.3 892.645C1271.38 890.564 1272.95 887.149 1272.81 884.16C1272.52 877.658 1267.54 872.16 1260.81 872.16C1257.74 872.16 1254.5 873.499 1252.33 875.675C1250.25 877.756 1248.68 881.171 1248.81 884.16C1249.1 890.662 1254.09 896.16 1260.81 896.16Z" fill="#EE4677"></path><path d="M1255.41 814.439C1258.48 814.439 1261.72 813.1 1263.89 810.924C1265.97 808.843 1267.54 805.428 1267.41 802.439C1267.12 795.937 1262.13 790.439 1255.41 790.439C1252.33 790.439 1249.1 791.778 1246.92 793.954C1244.84 796.035 1243.27 799.45 1243.41 802.439C1243.7 808.941 1248.68 814.439 1255.41 814.439Z" fill="#EE4677"></path><path d="M1232.37 853.236C1235.45 853.236 1238.68 851.897 1240.86 849.721C1242.94 847.64 1244.51 844.225 1244.37 841.236C1244.08 834.734 1239.1 829.236 1232.37 829.236C1229.29 829.236 1226.06 830.575 1223.89 832.751C1221.81 834.832 1220.24 838.247 1220.37 841.236C1220.66 847.738 1225.64 853.236 1232.37 853.236Z" fill="#F07C9E"></path><path d="M1206.64 814.4C1209.71 814.4 1212.95 813.061 1215.12 810.885C1217.2 808.804 1218.77 805.389 1218.64 802.4C1218.35 795.898 1213.36 790.4 1206.64 790.4C1203.56 790.4 1200.33 791.739 1198.15 793.915C1196.07 795.996 1194.5 799.411 1194.64 802.4C1194.93 808.902 1199.91 814.4 1206.64 814.4Z" fill="#F6B936"></path><path d="M1174.26 793.178C1105.27 824.767 1044.3 826.763 965.82 824.767C958.548 898.422 967.645 1016.21 1002.18 1145.34C1046.03 1146.59 1097.29 1137.36 1133.2 1128.93C1243.49 1103.06 1283.51 1075.28 1332.36 1040.33C1332.36 1040.33 1286.17 951.133 1174.26 793.178Z" fill="#F07C9E"></path><path d="M845.217 1275.69C860.424 1167.5 844.949 1013.11 851.203 904.372C824.6 901.916 809.303 899.256 777.605 900.854C765.577 901.46 752.284 905.141 745.925 915.368C741.982 921.711 741.617 929.564 741.366 937.028C738.713 1015.79 737.368 1107.77 734.714 1186.53C734.245 1200.45 735.528 1234.19 736.16 1248.1C736.464 1254.79 737.433 1262.28 742.702 1266.42C745.899 1268.94 750.092 1269.69 754.101 1270.37C784.111 1275.44 810.625 1277.7 845.217 1275.69Z" fill="#C6F097"></path><path d="M851.201 904.372C868.494 884.027 881.526 863.682 898.819 843.337C906.232 834.616 914.152 825.535 924.93 821.684C938.042 817 952.488 820.739 965.817 824.766C973.576 925.582 984.354 1040.58 1002.18 1145.34C990.204 1145.34 971.053 1150.28 958.945 1167.28C927.686 1211.18 885.786 1247.09 845.216 1275.69C842.335 1249.77 845.881 919.208 851.202 904.372H851.201Z" fill="#F6B936"></path><path d="M865.209 936.106C876.977 924.412 887.76 911.761 899.082 899.644C904.707 893.625 910.431 887.681 916.493 882.098C919.147 879.654 921.876 877.3 924.702 875.058C925.702 874.264 923.502 875.97 924.664 875.088C924.98 874.848 925.297 874.611 925.616 874.375C926.269 873.894 926.928 873.422 927.596 872.962C928.808 872.128 930.048 871.331 931.323 870.595C931.99 870.21 932.667 869.841 933.356 869.494C933.669 869.337 933.984 869.183 934.301 869.036C934.425 868.978 934.551 868.923 934.675 868.865C935.68 868.393 934.02 869.072 933.982 869.149C934.137 868.833 935.618 868.528 935.966 868.418C936.536 868.237 937.115 868.079 937.7 867.953C937.979 867.893 938.261 867.849 938.541 867.795C939.141 867.679 936.521 868.001 938.012 867.881C938.562 867.837 939.116 867.826 939.667 867.861C940.382 867.906 941.022 868.267 938.98 867.743C939.22 867.805 939.472 867.828 939.714 867.885C939.955 867.942 940.193 868.008 940.428 868.084C940.545 868.122 940.66 868.169 940.777 868.206C941.689 868.495 939.2 867.514 939.959 867.857C941.473 868.54 942.918 868.92 944.582 868.462C945.974 868.079 947.482 867.003 948.168 865.705C949.555 863.081 949.07 858.874 946.015 857.496C943.346 856.292 940.554 855.613 937.605 855.922C934.243 856.273 931.306 857.252 928.244 858.677C922.072 861.549 916.604 866.044 911.504 870.48C898.581 881.723 887.234 894.736 875.733 907.388C869.509 914.235 863.288 921.098 856.723 927.622C854.493 929.838 854.34 933.92 856.723 936.107C859.124 938.311 862.829 938.471 865.208 936.107L865.209 936.106Z" fill="#F07C9E"></path><path d="M866.394 984.785C878.173 972.807 889.044 959.978 900.663 947.848C906.048 942.227 911.587 936.722 917.551 931.711C918.247 931.126 918.949 930.549 919.658 929.979C919.963 929.734 920.269 929.492 920.576 929.25C920.764 929.101 921.381 928.626 920.623 929.21C919.811 929.836 920.615 929.218 920.8 929.079C922.155 928.053 923.536 927.062 924.95 926.119C927.497 924.42 930.153 922.868 932.947 921.61C933.113 921.535 933.281 921.464 933.446 921.389C934.097 921.092 932.001 921.975 932.883 921.627C933.254 921.481 933.623 921.333 933.997 921.194C934.685 920.939 935.382 920.706 936.085 920.497C936.806 920.283 937.536 920.096 938.272 919.939C938.632 919.862 938.993 919.793 939.356 919.732C940.894 919.471 938.207 919.837 939.076 919.759C940.49 919.633 941.889 919.565 943.307 919.684C943.423 919.694 943.538 919.708 943.654 919.717C944.648 919.791 942.964 919.593 942.866 919.601C943.183 919.574 943.585 919.716 943.897 919.778C944.625 919.923 945.34 920.115 946.047 920.339C949.039 921.289 952.727 919.224 953.428 916.148C954.174 912.874 952.441 909.785 949.237 908.767C935.868 904.522 922.641 912.534 912.485 920.457C899.522 930.569 888.522 943.093 877.512 955.224C871.065 962.328 864.639 969.457 857.911 976.299C855.708 978.539 855.509 982.58 857.911 984.784C860.29 986.968 864.045 987.175 866.396 984.784L866.394 984.785Z" fill="#EE4677"></path><path d="M868.747 1029.86C879.958 1017.62 890.904 1005.11 902.802 993.523C905.623 990.775 908.499 988.082 911.457 985.481C912.895 984.216 914.353 982.973 915.834 981.758C916.531 981.186 917.234 980.62 917.942 980.061C918.156 979.892 919.225 979.058 918.456 979.656C917.723 980.226 918.363 979.73 918.548 979.589C918.78 979.413 919.013 979.237 919.247 979.062C921.998 977.003 924.841 975.059 927.808 973.324C929.135 972.548 930.487 971.814 931.867 971.137C932.529 970.812 933.199 970.507 933.872 970.205C935.096 969.655 932.733 970.657 933.633 970.304C934.029 970.149 934.422 969.989 934.82 969.841C936.305 969.286 937.823 968.813 939.368 968.454C940.085 968.287 940.807 968.154 941.534 968.032C942.737 967.831 939.899 968.214 941.324 968.065C941.656 968.03 941.99 968.002 942.323 967.98C943.723 967.889 945.091 967.97 946.486 968.074C947.369 968.14 945.547 967.99 945.611 967.956C945.69 967.914 946.098 968.035 946.207 968.055C946.564 968.119 946.919 968.193 947.273 968.276C947.983 968.443 948.682 968.652 949.371 968.889C952.342 969.913 956.063 967.721 956.752 964.698C957.512 961.36 955.742 958.413 952.561 957.317C939.888 952.949 926.375 959.43 916.113 966.586C902.478 976.095 890.774 988.188 879.497 1000.31C873.021 1007.28 866.685 1014.36 860.263 1021.38C858.143 1023.69 857.803 1027.6 860.263 1029.86C862.572 1031.98 866.484 1032.33 868.748 1029.86L868.747 1029.86Z" fill="#F07C9E"></path><path d="M868.081 1079.08C882.298 1064.86 896.181 1050.29 910.71 1036.39C916.338 1031 922.076 1025.71 928.144 1020.82C928.775 1020.31 929.412 1019.81 930.048 1019.31C930.781 1018.73 929.563 1019.68 929.539 1019.7C929.696 1019.59 929.851 1019.46 930.007 1019.34C930.392 1019.05 930.779 1018.76 931.167 1018.47C932.429 1017.53 933.709 1016.62 935.013 1015.74C937.34 1014.17 939.743 1012.7 942.255 1011.44C942.855 1011.14 943.46 1010.85 944.073 1010.58C944.205 1010.52 944.339 1010.46 944.471 1010.4C945.356 1010 942.931 1011.02 943.828 1010.67C944.154 1010.55 944.477 1010.41 944.805 1010.29C945.95 1009.86 947.119 1009.5 948.309 1009.22C948.884 1009.08 949.463 1008.99 950.042 1008.88C950.807 1008.73 948.855 1009.01 948.985 1009.01C949.146 1009.02 949.357 1008.97 949.518 1008.95C949.781 1008.92 950.045 1008.9 950.31 1008.89C951.418 1008.82 952.526 1008.86 953.625 1009.01C955.03 1009.2 956.918 1008.2 957.869 1007.25C958.91 1006.21 959.692 1004.5 959.625 1003.01C959.555 1001.46 959.047 999.846 957.869 998.764C956.612 997.61 955.3 997.231 953.625 997.007C948.392 996.304 943.147 997.968 938.414 1000.04C933.026 1002.39 928.13 1005.77 923.483 1009.34C909.709 1019.92 897.456 1032.37 885.251 1044.68C876.692 1053.31 868.191 1062 859.596 1070.59C857.374 1072.82 857.208 1076.89 859.596 1079.08C861.984 1081.27 865.71 1081.45 868.081 1079.08Z" fill="#EE4677"></path><path d="M869.413 1125.64C881.257 1112.87 893.459 1100.39 906.555 1088.89C909.707 1086.13 912.912 1083.42 916.185 1080.8C916.971 1080.17 917.762 1079.54 918.556 1078.92C918.766 1078.76 918.98 1078.6 919.188 1078.43C919.077 1078.52 918.097 1079.27 918.922 1078.64C919.343 1078.32 919.763 1078 920.185 1077.68C921.794 1076.47 923.422 1075.28 925.069 1074.12C931.079 1069.88 937.367 1065.97 944.049 1062.88C944.497 1062.67 944.947 1062.46 945.399 1062.27C945.598 1062.18 945.798 1062.09 945.997 1062C946.672 1061.7 944.657 1062.55 945.606 1062.17C946.44 1061.83 947.275 1061.5 948.119 1061.18C949.789 1060.57 951.483 1060.01 953.202 1059.55C954.785 1059.12 956.388 1058.77 958.007 1058.5C958.192 1058.47 958.378 1058.45 958.563 1058.42C959.536 1058.26 957.205 1058.58 957.936 1058.5C958.348 1058.46 958.758 1058.4 959.171 1058.37C959.981 1058.29 960.794 1058.25 961.607 1058.23C964.742 1058.14 967.755 1055.53 967.607 1052.23C967.465 1049.05 964.968 1046.14 961.607 1046.23C947.223 1046.62 933.664 1053.84 921.994 1061.7C907.38 1071.54 894.158 1083.43 881.618 1095.75C874.542 1102.71 867.676 1109.88 860.928 1117.15C858.793 1119.45 858.479 1123.39 860.928 1125.64C863.249 1127.77 867.133 1128.09 869.413 1125.64Z" fill="#F07C9E"></path><path d="M872.74 1174.85C885.789 1160.3 898.866 1145.73 912.78 1131.99C918.917 1125.93 925.226 1120.03 931.87 1114.53C932.567 1113.95 933.269 1113.38 933.974 1112.81C934.371 1112.49 934.769 1112.17 935.169 1111.86C935.367 1111.7 935.566 1111.54 935.764 1111.39C935.931 1111.26 936.822 1110.57 936.047 1111.17C935.311 1111.73 936.406 1110.89 936.622 1110.73C937.013 1110.43 937.405 1110.14 937.798 1109.85C938.57 1109.27 939.348 1108.71 940.132 1108.15C942.93 1106.16 945.807 1104.27 948.789 1102.57C950.351 1101.68 951.942 1100.84 953.567 1100.07C953.922 1099.9 954.279 1099.73 954.638 1099.57C954.893 1099.46 956.317 1098.84 955.248 1099.29C954.179 1099.75 955.57 1099.17 955.846 1099.06C956.192 1098.93 956.539 1098.8 956.888 1098.67C958.307 1098.16 959.752 1097.71 961.219 1097.36C961.956 1097.18 962.698 1097.02 963.446 1096.9C963.608 1096.87 963.773 1096.85 963.934 1096.82C964.739 1096.66 963.055 1096.93 963.067 1096.93C963.361 1096.79 963.955 1096.83 964.268 1096.8C967.386 1096.52 970.422 1094.24 970.268 1090.8C970.133 1087.79 967.616 1084.5 964.268 1084.8C950.071 1086.07 937.701 1094.68 926.831 1103.25C912.555 1114.52 899.798 1127.69 887.398 1140.95C879.571 1149.32 871.903 1157.84 864.253 1166.37C862.158 1168.7 861.776 1172.58 864.253 1174.85C866.541 1176.95 870.501 1177.35 872.738 1174.85L872.74 1174.85Z" fill="#EE4677"></path><path d="M866.672 1229.98C881.177 1215.05 894.401 1198.93 908.318 1183.47C915.548 1175.43 922.918 1167.51 930.677 1159.99C934.355 1156.42 938.124 1152.94 942.031 1149.63C943.786 1148.14 945.59 1146.71 947.381 1145.27C945.741 1146.59 947.463 1145.21 947.854 1144.92C948.252 1144.62 948.653 1144.32 949.054 1144.03C949.998 1143.33 950.952 1142.65 951.917 1141.99C955.664 1139.41 959.586 1137.05 963.743 1135.2C963.93 1135.11 964.119 1135.03 964.306 1134.95C964.777 1134.74 962.654 1135.62 963.882 1135.13C964.327 1134.95 964.77 1134.77 965.219 1134.61C966.161 1134.26 967.114 1133.94 968.079 1133.66C969.005 1133.39 969.941 1133.15 970.885 1132.96C971.309 1132.87 971.734 1132.79 972.161 1132.72C972.372 1132.69 972.585 1132.66 972.795 1132.63C970.551 1133.03 971.707 1132.77 972.249 1132.71C973.884 1132.54 975.288 1132.16 976.492 1130.96C977.533 1129.92 978.316 1128.21 978.249 1126.71C978.116 1123.75 975.592 1120.36 972.249 1120.71C963.908 1121.6 956.22 1125.02 949.166 1129.45C940.781 1134.72 933.135 1141.21 925.912 1147.96C909.758 1163.05 895.357 1179.93 880.806 1196.54C873.41 1204.98 866.011 1213.44 858.187 1221.49C855.997 1223.74 855.776 1227.76 858.187 1229.97C860.554 1232.15 864.335 1232.38 866.672 1229.98Z" fill="#F07C9E"></path><path d="M770.953 981.311C774.03 981.311 777.262 979.972 779.438 977.796C781.519 975.715 783.087 972.3 782.953 969.311C782.662 962.809 777.68 957.311 770.953 957.311C767.876 957.311 764.644 958.65 762.468 960.826C760.387 962.907 758.819 966.322 758.953 969.311C759.244 975.813 764.226 981.311 770.953 981.311Z" fill="#F6B936"></path><path d="M768.387 1039.39C771.464 1039.39 774.696 1038.06 776.872 1035.88C778.953 1033.8 780.521 1030.38 780.387 1027.39C780.096 1020.89 775.114 1015.39 768.387 1015.39C765.31 1015.39 762.078 1016.73 759.902 1018.91C757.821 1020.99 756.253 1024.41 756.387 1027.39C756.678 1033.9 761.66 1039.39 768.387 1039.39Z" fill="#EE4677"></path><path d="M816.176 953.377C819.253 953.377 822.485 952.038 824.661 949.862C826.742 947.781 828.31 944.366 828.176 941.377C827.885 934.875 822.903 929.377 816.176 929.377C813.099 929.377 809.867 930.716 807.691 932.892C805.61 934.973 804.042 938.388 804.176 941.377C804.467 947.879 809.449 953.377 816.176 953.377Z" fill="#EE4677"></path><path d="M815.289 1013.68C818.366 1013.68 821.598 1012.34 823.774 1010.16C825.855 1008.08 827.423 1004.67 827.289 1001.68C826.998 995.176 822.016 989.678 815.289 989.678C812.212 989.678 808.98 991.017 806.804 993.193C804.723 995.274 803.155 998.689 803.289 1001.68C803.58 1008.18 808.562 1013.68 815.289 1013.68Z" fill="#F07C9E"></path><path d="M766.961 1099.7C770.038 1099.7 773.27 1098.36 775.446 1096.18C777.527 1094.1 779.095 1090.68 778.961 1087.7C778.67 1081.19 773.688 1075.7 766.961 1075.7C763.884 1075.7 760.652 1077.03 758.476 1079.21C756.395 1081.29 754.827 1084.71 754.961 1087.7C755.252 1094.2 760.234 1099.7 766.961 1099.7Z" fill="#F07C9E"></path><path d="M766.074 1156.01C769.151 1156.01 772.383 1154.67 774.559 1152.49C776.64 1150.41 778.208 1146.99 778.074 1144.01C777.783 1137.5 772.801 1132.01 766.074 1132.01C762.997 1132.01 759.765 1133.34 757.589 1135.52C755.508 1137.6 753.94 1141.02 754.074 1144.01C754.365 1150.51 759.347 1156.01 766.074 1156.01Z" fill="#F6B936"></path><path d="M815.289 1069.99C818.366 1069.99 821.598 1068.65 823.774 1066.47C825.855 1064.39 827.423 1060.98 827.289 1057.99C826.998 1051.49 822.016 1045.99 815.289 1045.99C812.212 1045.99 808.98 1047.33 806.804 1049.5C804.723 1051.58 803.155 1055 803.289 1057.99C803.58 1064.49 808.562 1069.99 815.289 1069.99Z" fill="#F6B936"></path><path d="M817.508 1131.18C820.585 1131.18 823.817 1129.84 825.993 1127.66C828.074 1125.58 829.642 1122.16 829.508 1119.18C829.217 1112.67 824.235 1107.18 817.508 1107.18C814.431 1107.18 811.199 1108.51 809.023 1110.69C806.942 1112.77 805.374 1116.19 805.508 1119.18C805.799 1125.68 810.781 1131.18 817.508 1131.18Z" fill="#EE4677"></path><path d="M766.074 1221.18C769.151 1221.18 772.383 1219.84 774.559 1217.67C776.64 1215.59 778.208 1212.17 778.074 1209.18C777.783 1202.68 772.801 1197.18 766.074 1197.18C762.997 1197.18 759.765 1198.52 757.589 1200.7C755.508 1202.78 753.94 1206.19 754.074 1209.18C754.365 1215.69 759.347 1221.18 766.074 1221.18Z" fill="#EE4677"></path><path d="M817.508 1196.35C820.585 1196.35 823.817 1195.01 825.993 1192.84C828.074 1190.76 829.642 1187.34 829.508 1184.35C829.217 1177.85 824.235 1172.35 817.508 1172.35C814.431 1172.35 811.199 1173.69 809.023 1175.87C806.942 1177.95 805.374 1181.36 805.508 1184.35C805.799 1190.86 810.781 1196.35 817.508 1196.35Z" fill="#F07C9E"></path><path d="M817.508 1255.32C820.585 1255.32 823.817 1253.99 825.993 1251.81C828.074 1249.73 829.642 1246.31 829.508 1243.32C829.217 1236.82 824.235 1231.32 817.508 1231.32C814.431 1231.32 811.199 1232.66 809.023 1234.84C806.942 1236.92 805.374 1240.34 805.508 1243.32C805.799 1249.83 810.781 1255.32 817.508 1255.32Z" fill="#F6B936"></path><path d="M631.393 938.441C668.283 941.726 820.789 970.309 818.097 985.604C816.057 997.837 783.53 997.494 765.014 994.971C731.057 990.345 697.099 985.718 663.142 981.092C719.715 990.33 832.381 1010.62 829.582 1023.45C829.328 1033.21 807.07 1034.36 797.309 1034.17C741.523 1033.06 710.319 1028.58 655.39 1018.79C712.872 1030.2 810.223 1049.16 809.988 1061.94C809.556 1069.93 793.49 1071.49 779.806 1069.91C732.508 1064.44 695.269 1059.32 648.601 1049.88C688.888 1059.41 766.492 1079.2 762.119 1088.63C759.121 1095.53 741.615 1095.77 734.835 1095.12C681.594 1090.04 655.008 1083.26 605.043 1067.96" fill="#18422C"></path><path d="M1427.16 772.691C1391.45 782.491 1246.47 837.768 1251.84 852.339C1256.02 864.013 1287.97 857.885 1305.74 852.106C1338.33 841.508 1370.92 830.91 1403.51 820.312C1349.49 839.473 1242.23 879.495 1247.27 891.628C1249.26 901.187 1271.37 898.355 1280.94 896.427C1335.64 885.407 1365.54 875.446 1417.85 856.026C1363.32 877.492 1270.9 913.482 1273.41 926.016C1275.26 933.801 1291.34 932.47 1304.52 928.478C1350.09 914.68 1385.83 903.01 1430.07 885.416C1392.12 901.96 1319.28 935.251 1325.26 943.76C1329.44 950.007 1346.71 947.134 1353.27 945.289C1404.75 930.804 1429.71 919.403 1476.15 895.454" fill="#18422C"></path><path d="M1516.18 898.536C1491.73 917.423 1468.43 941.648 1401.89 967.094C1390.76 911.764 1327.23 831.406 1322.78 775.142C1322.58 772.636 1322.46 769.877 1323.97 767.873C1325.12 766.363 1326.97 765.599 1328.73 764.909C1384.34 743.162 1428.64 748.583 1473.7 747.693L1516.17 898.537L1516.18 898.536Z" fill="#EE4677"></path><path d="M544.043 1073.37C591.898 1110.2 599.666 1131.87 683.602 1151.32C687.338 1065.9 711.789 1017.94 715.526 932.51C690.664 915.935 642.164 894.175 579.843 877.998L544.043 1073.37Z" fill="#EE4677"></path><path d="M1015.1 953.498C1018.84 967.866 1022.72 982.196 1026.74 996.487C1027.27 998.366 1029.99 997.567 1029.63 995.689C1024.3 967.915 1018.99 940.128 1014.76 912.162C1010.56 884.345 1007.44 856.327 1006.54 828.195C1006.51 827.231 1006.49 826.266 1006.46 825.301C999.694 825.325 992.815 825.277 985.805 825.174C989.171 842.217 992.716 859.225 996.481 876.185C1002.23 902.064 1008.43 927.841 1015.1 953.498Z" fill="#EE4677"></path><path d="M1054.1 948.737C1057.91 964.76 1062.05 980.71 1066.77 996.49C1067.34 998.394 1069.93 997.552 1069.66 995.692C1064.65 960.082 1060.75 924.316 1057.97 888.463C1056.29 866.846 1055.02 845.197 1054.15 823.531C1045.83 824.189 1037.4 824.637 1028.83 824.918C1030.86 835.63 1032.88 846.343 1034.94 857.051C1040.81 887.714 1046.88 918.357 1054.1 948.737Z" fill="#EE4677"></path><path d="M1106.83 945.161C1111.18 958.689 1115.59 972.2 1120.16 985.659C1120.77 987.472 1123.56 986.744 1123.05 984.862C1118.47 967.952 1114.23 950.954 1110.32 933.877C1106.41 916.801 1102.83 899.648 1099.6 882.431C1096.36 865.214 1093.47 847.934 1090.91 830.603C1090.35 826.827 1089.82 823.047 1089.29 819.266C1082.15 820.462 1074.97 821.453 1067.73 822.25C1072.3 836.339 1076.79 850.454 1081.26 864.573C1089.77 891.44 1098.19 918.335 1106.83 945.161Z" fill="#EE4677"></path><path d="M1158.03 933.307C1164.31 945.618 1170.78 957.837 1177.41 969.963C1178.21 971.421 1180.75 970.429 1180.15 968.807C1174.47 953.385 1168.92 937.914 1163.59 922.369C1158.25 906.82 1153.12 891.197 1148.28 875.486C1143.44 859.79 1138.89 844.005 1134.7 828.122C1133.1 822.049 1131.57 815.958 1130.08 809.857C1121.61 812.387 1113.18 814.531 1104.73 816.338C1111.61 833.396 1118.8 850.325 1126.32 867.109C1136.33 889.438 1146.9 911.513 1158.03 933.305L1158.03 933.307Z" fill="#EE4677"></path><path d="M1164.49 838.826C1171.4 850.27 1178.3 861.72 1185.21 873.165C1191.9 884.259 1198.6 895.349 1205.32 906.425C1211.2 916.114 1217.1 925.794 1223.06 935.44C1223.73 936.527 1224.4 937.614 1225.07 938.701C1226.09 940.339 1228.64 938.86 1227.66 937.187C1219.8 923.779 1212.46 910.066 1205.66 896.083C1198.9 882.149 1192.68 867.953 1187.02 853.531C1181.35 839.059 1176.24 824.366 1171.7 809.497C1170.34 805.035 1169.05 800.553 1167.8 796.061C1159.84 799.517 1151.98 802.569 1144.18 805.289C1144.31 805.503 1144.44 805.717 1144.58 805.932C1151.23 816.885 1157.87 827.854 1164.49 838.828L1164.49 838.826Z" fill="#EE4677"></path><path d="M1057.3 1022.32C1053.97 1008.71 1050.71 995.082 1047.54 981.436C1047.16 979.793 1044.41 980.382 1044.63 982.049C1047.6 1004.65 1049.75 1027.36 1051.9 1050.04C1054.26 1074.92 1056.47 1099.81 1059.04 1124.67C1059.64 1130.46 1060.25 1136.26 1060.91 1142.04C1070.01 1140.92 1079.03 1139.58 1087.77 1138.11C1083.66 1123.49 1079.63 1108.84 1075.71 1094.17C1069.33 1070.28 1063.19 1046.33 1057.3 1022.32L1057.3 1022.32Z" fill="#C6F097"></path><path d="M1156.27 993.639C1150.97 979.543 1145.59 965.479 1140.13 951.446C1139.43 949.666 1136.84 950.322 1137.23 952.244C1141.97 975.292 1146.41 998.401 1150.55 1021.57C1154.67 1044.65 1158.48 1067.79 1161.99 1090.97C1163.48 1100.82 1164.9 1110.69 1166.28 1120.55C1177.75 1117.41 1188.33 1114.24 1198.17 1111.02C1193.4 1096.94 1188.56 1082.88 1183.63 1068.85C1174.77 1043.69 1165.65 1018.61 1156.27 993.64V993.639Z" fill="#C6F097"></path><path d="M1016.15 1035.72C1013.02 1022.67 1009.81 1009.64 1006.53 996.626C1006.11 994.975 1003.75 995.269 1003.88 997.012C1005.53 1017.92 1006.91 1038.84 1008.01 1059.79C1009.1 1080.66 1009.92 1101.54 1010.47 1122.43C1010.67 1130.1 1010.82 1137.77 1010.94 1145.45C1020.52 1145.43 1030.36 1144.97 1040.26 1144.17C1037.59 1131.18 1034.86 1118.21 1032.04 1105.26C1026.99 1082.02 1021.69 1058.84 1016.15 1035.72Z" fill="#C6F097"></path><path d="M1242.99 1041.54C1237.47 1028.92 1231.89 1016.34 1226.21 1003.8C1220.74 991.739 1215.18 979.724 1209.45 967.795C1204.34 957.177 1199.1 946.618 1193.56 936.222C1192.94 935.063 1192.32 933.906 1191.69 932.751C1190.89 931.277 1188.41 932.276 1188.95 933.907C1192.52 944.711 1195.86 955.589 1199.08 966.502C1202.84 979.218 1206.41 991.987 1209.83 1004.8C1213.46 1018.37 1216.91 1031.98 1220.16 1045.65C1223.34 1059.03 1226.33 1072.46 1229.02 1085.95C1229.88 1090.25 1230.69 1094.56 1231.48 1098.87C1242.53 1094.37 1252.53 1089.77 1261.81 1085.05C1260.75 1082.58 1259.69 1080.11 1258.63 1077.64C1253.45 1065.59 1248.25 1053.55 1242.99 1041.54L1242.99 1041.54Z" fill="#C6F097"></path><path d="M1302.17 1020.17C1294.62 1007.82 1287.06 995.493 1279.43 983.205C1272.08 971.369 1264.67 959.57 1257.12 947.86C1250.54 937.652 1243.87 927.502 1236.93 917.531C1236.16 916.417 1235.38 915.307 1234.6 914.198C1233.68 912.901 1231.27 913.631 1231.86 915.354C1235.05 924.806 1238.77 934.085 1242.49 943.341C1247.65 956.189 1252.97 968.973 1258.31 981.747C1264.21 995.858 1270.15 1009.95 1276.06 1024.06C1281.53 1037.11 1286.98 1050.17 1292.29 1063.29C1292.77 1064.47 1293.24 1065.65 1293.72 1066.82C1302.69 1061.14 1311.26 1055.28 1319.9 1049.19C1313.98 1039.52 1308.08 1029.84 1302.17 1020.17Z" fill="#C6F097"></path><path d="M1105.42 1004.45C1101.45 991.356 1097.32 978.308 1093.04 965.31C1092.52 963.732 1089.98 964.129 1090.12 965.847C1091.97 988.452 1094.02 1011.04 1096.19 1033.62C1098.37 1056.19 1100.67 1078.76 1103.01 1101.32C1104.17 1112.44 1105.34 1123.56 1106.51 1134.68C1116.02 1132.81 1125.01 1130.85 1133.2 1128.93C1134.76 1128.56 1136.31 1128.2 1137.84 1127.83C1133.88 1110.09 1129.64 1092.41 1125.11 1074.81C1119.05 1051.22 1112.48 1027.76 1105.42 1004.45L1105.42 1004.45Z" fill="#C6F097"></path><path d="M33.1858 273.651C60.1388 266.422 87.6938 261.491 115.152 258.191C138.272 255.413 162.205 253.418 185.281 255.911C201.088 202.179 211.747 147.334 224.938 93.0089C227.96 80.5599 246.031 79.0989 249.038 91.5389C261.856 144.569 276.787 198.577 274.925 254.262C325.905 224.823 376.321 192.331 432.314 175.971C443.901 172.585 453.911 187.282 444.363 196.895C402.386 239.158 363.181 284.491 325.243 330.652C368.631 354.764 411.193 381.822 447.726 415.689C455.439 422.838 449.597 437.731 438.99 438.114C383.978 440.102 329.78 423.713 280.396 401.321C282.64 444.227 287.36 487.16 282.452 530.345C281.008 543.048 266.564 549.117 259.183 538.129C231.235 496.528 211.248 449.369 200.172 399.416C154.172 429.462 109.109 461.199 61.6798 488.678C49.9598 495.469 39.9328 483.793 44.6538 472.025C54.7818 446.778 71.9758 424.131 89.3568 403.542C106.396 383.357 123.991 363.639 141.493 343.857C104.108 329.093 66.9888 313.698 30.2598 297.411C20.6908 293.167 22.8718 276.415 33.1848 273.65L33.1858 273.651Z" fill="#EE4677"></path><path d="M1837.66 1344.18C1836.08 1327 1833.04 1309.96 1829.08 1293.33C1825.74 1279.32 1821.77 1265.01 1815.38 1252.16C1843.16 1231.49 1872.69 1213.56 1901.37 1194.27C1907.94 1189.85 1904.92 1179.06 1897.06 1179.98C1863.56 1183.9 1829.04 1186.81 1797.14 1199.81C1803.29 1163.94 1811.34 1127.74 1808.84 1091.76C1808.32 1084.31 1797.65 1081.66 1794.12 1089.25C1778.6 1122.65 1760.7 1155.1 1742.05 1186.99C1718.78 1166.99 1693.97 1148.1 1666.5 1134.16C1660.7 1131.22 1653.32 1137.8 1655.37 1144.03C1665.99 1176.36 1687.11 1204.29 1710.67 1228.13C1685.3 1236.02 1659.39 1242.48 1635.4 1254.57C1628.34 1258.13 1627.91 1267.81 1635.86 1269.74C1665.98 1277.04 1697.61 1278.53 1728.96 1274.26C1721.38 1307.37 1712.62 1340.31 1706.84 1373.7C1705.42 1381.95 1714.34 1385.27 1720.15 1380.01C1732.62 1368.73 1742.08 1353.9 1750.3 1339.41C1758.35 1325.21 1766.02 1310.78 1773.75 1296.39C1790.32 1314.92 1807.2 1333.15 1824.51 1350.96C1829.02 1355.6 1838.27 1350.75 1837.66 1344.18L1837.66 1344.18Z" fill="#F07C9E"></path><path d="M1662.96 209.394C1660.31 195.464 1656.47 181.766 1651.91 168.474C1648.07 157.282 1643.69 145.891 1637.45 135.884C1658.54 116.772 1681.27 99.7688 1703.21 81.7228C1708.24 77.5878 1704.91 68.9968 1698.56 70.3708C1671.46 76.2308 1643.45 81.3408 1618.38 94.5038C1620.58 64.6708 1624.3 34.4198 1619.41 5.18384C1618.39 -0.866157 1609.46 -2.19716 1607.17 4.29784C1597.11 32.8478 1585.04 60.8078 1572.31 88.3718C1551.68 73.8518 1529.89 60.3608 1506.32 51.1328C1501.34 49.1838 1495.82 55.1498 1497.99 60.0878C1509.24 85.6968 1528.73 106.871 1549.89 124.515C1529.76 132.975 1509.07 140.307 1490.4 152.101C1484.91 155.57 1485.33 163.52 1491.98 164.468C1517.2 168.057 1543.19 166.776 1568.5 160.799C1564.92 188.488 1560.36 216.123 1558.28 243.899C1557.76 250.762 1565.32 252.769 1569.66 248.007C1578.97 237.791 1585.53 224.917 1591.11 212.413C1596.58 200.154 1601.71 187.744 1606.89 175.363C1621.91 189.204 1637.16 202.783 1652.73 215.986C1656.79 219.426 1663.97 214.724 1662.96 209.394Z" fill="#C6F097"></path><path d="M150.228 599.082C133.157 592.704 123.384 576.444 117.963 559.884C116.357 554.978 115.076 549.973 114.005 544.925C113.692 543.449 111.36 543.789 111.389 545.279C111.564 554.132 108.869 562.903 106.321 571.288C102.829 582.606 94.6973 592.188 84.4403 598.02C83.6923 598.445 82.9313 598.866 82.1443 599.216C81.2163 599.628 81.3353 601.068 82.1443 601.516C90.2323 605.987 95.8003 614.182 100.218 622.054C105.41 631.307 109.348 641.228 112.831 651.232C114.537 656.132 116.118 661.073 117.661 666.026C118.025 667.196 119.969 667.388 120.229 666.026C123.828 647.194 127.641 627.28 139.84 611.852C142.926 607.949 146.496 604.415 150.545 601.516C151.509 600.826 151.337 599.497 150.228 599.082Z" fill="white"></path><path d="M677.612 101.635C660.631 95.2897 650.91 79.1157 645.517 62.6427C643.919 57.7627 642.645 52.7837 641.58 47.7617C641.269 46.2937 638.949 46.6317 638.978 48.1137C639.152 56.9197 636.471 65.6457 633.937 73.9867C630.464 85.2447 622.374 94.7767 612.171 100.579C611.427 101.002 610.67 101.421 609.887 101.769C608.964 102.179 609.082 103.612 609.887 104.056C617.932 108.503 623.472 116.656 627.866 124.486C633.031 133.691 636.948 143.56 640.413 153.511C642.11 158.385 643.683 163.3 645.218 168.227C645.581 169.391 647.514 169.581 647.773 168.227C651.353 149.494 655.146 129.684 667.281 114.338C670.351 110.456 673.902 106.94 677.93 104.056C678.888 103.37 678.717 102.047 677.614 101.635H677.612Z" fill="white"></path><path d="M90.8283 91.9704C69.3943 83.9614 57.1233 63.5464 50.3163 42.7534C48.3003 36.5934 46.6903 30.3084 45.3463 23.9704C44.9533 22.1174 42.0253 22.5444 42.0623 24.4144C42.2813 35.5304 38.8973 46.5434 35.6993 57.0714C31.3153 71.2824 21.1033 83.3144 8.22526 90.6364C7.28526 91.1704 6.33126 91.6994 5.34226 92.1384C4.17726 92.6554 4.32626 94.4644 5.34226 95.0254C15.4973 100.638 22.4893 110.929 28.0363 120.813C34.5553 132.431 39.5003 144.888 43.8733 157.449C46.0153 163.601 48.0013 169.805 49.9383 176.024C50.3963 177.493 52.8363 177.734 53.1623 176.024C57.6813 152.378 62.4693 127.374 77.7863 108.003C81.6613 103.103 86.1433 98.6654 91.2283 95.0254C92.4383 94.1594 92.2223 92.4904 90.8293 91.9694L90.8283 91.9704Z" fill="white"></path><path d="M1882.71 301.53C1867.58 295.876 1858.92 281.463 1854.11 266.784C1852.69 262.436 1851.55 257.998 1850.61 253.524C1850.33 252.216 1848.26 252.517 1848.29 253.838C1848.44 261.685 1846.05 269.461 1843.79 276.893C1840.7 286.925 1833.49 295.42 1824.4 300.589C1823.73 300.966 1823.06 301.339 1822.36 301.649C1821.54 302.014 1821.65 303.291 1822.36 303.687C1829.53 307.65 1834.47 314.915 1838.38 321.893C1842.99 330.095 1846.48 338.89 1849.56 347.757C1851.08 352.1 1852.48 356.48 1853.85 360.871C1854.17 361.908 1855.89 362.078 1856.12 360.871C1859.31 344.177 1862.69 326.525 1873.51 312.85C1876.24 309.39 1879.41 306.258 1883 303.688C1883.85 303.076 1883.7 301.898 1882.71 301.531V301.53Z" fill="white"></path><path d="M1870.9 940.236C1848.96 932.038 1836.4 911.14 1829.43 889.855C1827.36 883.55 1825.72 877.116 1824.34 870.628C1823.94 868.731 1820.94 869.168 1820.98 871.083C1821.2 882.461 1817.74 893.735 1814.47 904.512C1809.98 919.058 1799.53 931.375 1786.34 938.871C1785.38 939.418 1784.4 939.959 1783.39 940.408C1782.2 940.937 1782.35 942.789 1783.39 943.364C1793.79 949.11 1800.94 959.644 1806.62 969.762C1813.3 981.655 1818.36 994.406 1822.83 1007.26C1825.03 1013.56 1827.06 1019.91 1829.04 1026.28C1829.51 1027.78 1832.01 1028.03 1832.34 1026.28C1836.97 1002.07 1841.87 976.478 1857.55 956.649C1861.51 951.633 1866.1 947.091 1871.31 943.364C1872.55 942.477 1872.32 940.769 1870.9 940.236H1870.9Z" fill="white"></path><path d="M162.964 1584.04C141.023 1575.84 128.462 1554.94 121.495 1533.66C119.431 1527.35 117.784 1520.92 116.408 1514.43C116.006 1512.53 113.008 1512.97 113.046 1514.88C113.271 1526.26 109.807 1537.54 106.533 1548.31C102.045 1562.86 91.5921 1575.18 78.4101 1582.67C77.4481 1583.22 76.4711 1583.76 75.4591 1584.21C74.2671 1584.74 74.4191 1586.59 75.4591 1587.16C85.8541 1592.91 93.0111 1603.44 98.6891 1613.56C105.363 1625.46 110.424 1638.21 114.9 1651.06C117.092 1657.36 119.125 1663.71 121.108 1670.08C121.576 1671.58 124.074 1671.83 124.409 1670.08C129.035 1645.87 133.936 1620.28 149.615 1600.45C153.581 1595.43 158.17 1590.89 163.374 1587.16C164.612 1586.28 164.39 1584.57 162.964 1584.04Z" fill="white"></path><path d="M60.9288 1510.92C45.7968 1505.26 37.1338 1490.85 32.3288 1476.17C30.9048 1471.82 29.7688 1467.38 28.8198 1462.91C28.5428 1461.6 26.4748 1461.9 26.5008 1463.22C26.6558 1471.07 24.2668 1478.85 22.0088 1486.28C18.9138 1496.31 11.7048 1504.81 2.61279 1509.98C1.94979 1510.35 1.2758 1510.73 0.577795 1511.04C-0.244205 1511.4 -0.139205 1512.68 0.577795 1513.07C7.7468 1517.04 12.6828 1524.3 16.5988 1531.28C21.2018 1539.48 24.6918 1548.28 27.7788 1557.14C29.2908 1561.49 30.6928 1565.87 32.0608 1570.26C32.3838 1571.29 34.1068 1571.46 34.3368 1570.26C37.5278 1553.56 40.9078 1535.91 51.7208 1522.24C54.4568 1518.78 57.6208 1515.64 61.2108 1513.07C62.0648 1512.46 61.9118 1511.28 60.9288 1510.92Z" fill="white"></path><path d="M1221.9 99.1112C1204.92 92.7662 1195.2 76.5922 1189.8 60.1192C1188.2 55.2392 1186.93 50.2602 1185.87 45.2382C1185.55 43.7702 1183.23 44.1082 1183.26 45.5902C1183.44 54.3962 1180.76 63.1222 1178.22 71.4632C1174.75 82.7212 1166.66 92.2532 1156.46 98.0552C1155.71 98.4782 1154.96 98.8972 1154.17 99.2452C1153.25 99.6552 1153.37 101.088 1154.17 101.532C1162.22 105.979 1167.76 114.132 1172.15 121.962C1177.32 131.167 1181.23 141.036 1184.7 150.987C1186.4 155.861 1187.97 160.776 1189.5 165.703C1189.87 166.867 1191.8 167.057 1192.06 165.703C1195.64 146.97 1199.43 127.16 1211.57 111.814C1214.64 107.932 1218.19 104.416 1222.22 101.532C1223.17 100.846 1223 99.5232 1221.9 99.1112H1221.9Z" fill="white"></path><path d="M621.591 200.746C590.366 189.079 572.49 159.338 562.574 129.047C559.636 120.074 557.292 110.918 555.334 101.684C554.761 98.9838 550.496 99.6058 550.55 102.331C550.87 118.524 545.94 134.569 541.28 149.906C534.893 170.608 520.017 188.136 501.256 198.803C499.887 199.581 498.496 200.351 497.056 200.991C495.359 201.744 495.576 204.379 497.056 205.197C511.85 213.375 522.036 228.365 530.116 242.765C539.613 259.69 546.816 277.838 553.187 296.136C556.307 305.098 559.2 314.136 562.022 323.196C562.689 325.336 566.243 325.687 566.719 323.196C573.303 288.749 580.277 252.323 602.591 224.104C608.236 216.965 614.766 210.501 622.173 205.197C623.935 203.935 623.62 201.503 621.591 200.745V200.746Z" fill="white"></path><path d="M1854.58 147.652C1830.76 138.752 1817.12 116.065 1809.56 92.9586C1807.32 86.1136 1805.53 79.1296 1804.04 72.0856C1803.6 70.0266 1800.35 70.5006 1800.39 72.5796C1800.63 84.9316 1796.87 97.1706 1793.32 108.871C1788.44 124.662 1777.1 138.033 1762.79 146.171C1761.74 146.765 1760.68 147.352 1759.58 147.84C1758.29 148.415 1758.45 150.424 1759.58 151.049C1770.87 157.287 1778.64 168.722 1784.8 179.706C1792.04 192.617 1797.54 206.46 1802.4 220.418C1804.78 227.255 1806.99 234.149 1809.14 241.06C1809.65 242.693 1812.36 242.96 1812.72 241.06C1817.74 214.783 1823.06 186.997 1840.09 165.471C1844.39 160.025 1849.37 155.094 1855.02 151.049C1856.37 150.086 1856.13 148.232 1854.58 147.653L1854.58 147.652Z" fill="white"></path></svg>