<svg xmlns="http://www.w3.org/2000/svg" width="2000" height="2500" viewBox="0 0 2000 2500" fill="none"><path d="M972.467 204.441C963.727 192.31 950.056 183.968 934.381 182.379C935.487 177.427 936.09 172.286 936.09 167C936.09 128.203 904.639 96.752 865.842 96.752C833.897 96.752 806.95 118.083 798.422 147.272C790.229 141.906 780.441 138.775 769.916 138.775C741.139 138.775 717.811 162.103 717.811 190.88C717.811 195.378 718.381 199.742 719.452 203.905C718.907 203.884 718.361 203.864 717.811 203.864C715.523 203.864 713.294 204.095 711.103 204.441C690.667 207.667 675.023 225.308 675.023 246.651C675.023 270.282 694.179 289.438 717.81 289.438C718.626 289.438 719.435 289.41 720.24 289.365L720.223 289.438H919.313L918.554 288.431C921.904 289.086 925.362 289.438 928.903 289.438C958.543 289.438 982.571 265.41 982.571 235.77C982.571 224.073 978.818 213.258 972.465 204.44L972.467 204.441Z" fill="#59D5FC"></path><path d="M1706.19 215.144C1697.45 203.013 1683.78 194.671 1668.11 193.082C1669.21 188.13 1669.82 182.989 1669.82 177.703C1669.82 138.906 1638.37 107.455 1599.57 107.455C1567.62 107.455 1540.68 128.786 1532.15 157.976C1523.96 152.61 1514.17 149.479 1503.64 149.479C1474.87 149.479 1451.54 172.807 1451.54 201.584C1451.54 206.081 1452.11 210.446 1453.18 214.609C1452.63 214.588 1452.09 214.568 1451.54 214.568C1449.25 214.568 1447.02 214.799 1444.83 215.145C1424.39 218.371 1408.75 236.012 1408.75 257.355C1408.75 280.986 1427.91 300.142 1451.54 300.142C1452.35 300.142 1453.16 300.114 1453.97 300.069L1453.95 300.142H1653.04L1652.28 299.135C1655.63 299.79 1659.09 300.142 1662.63 300.142C1692.27 300.142 1716.3 276.114 1716.3 246.474C1716.3 234.777 1712.55 223.962 1706.19 215.144H1706.19Z" fill="#59D5FC"></path><path d="M1398.11 556.714C1389.37 544.583 1375.7 536.241 1360.03 534.652C1361.13 529.7 1361.73 524.559 1361.73 519.273C1361.73 480.476 1330.28 449.025 1291.49 449.025C1259.54 449.025 1232.6 470.356 1224.07 499.546C1215.87 494.18 1206.09 491.049 1195.56 491.049C1166.78 491.049 1143.46 514.377 1143.46 543.154C1143.46 547.652 1144.03 552.016 1145.1 556.179C1144.55 556.158 1144.01 556.138 1143.46 556.138C1141.17 556.138 1138.94 556.369 1136.75 556.715C1116.31 559.941 1100.67 577.582 1100.67 598.925C1100.67 622.556 1119.82 641.712 1143.45 641.712C1144.27 641.712 1145.08 641.684 1145.89 641.639L1145.87 641.712H1344.96L1344.2 640.705C1347.55 641.36 1351.01 641.712 1354.55 641.712C1384.19 641.712 1408.22 617.684 1408.22 588.044C1408.22 576.347 1404.46 565.532 1398.11 556.714H1398.11Z" fill="#59D5FC"></path><path d="M1680.2 1571.67H1645.82V2500H1680.2V1571.67Z" fill="#F07C9E"></path><path d="M1677.86 2025.14L1655.34 2001.01L1737.24 1924.6C1758.09 1905.15 1770.05 1877.64 1770.05 1849.13V1700.04H1803.05V1849.13C1803.05 1886.76 1787.27 1923.06 1759.76 1948.73L1677.86 2025.14Z" fill="#F07C9E"></path><path d="M1647.96 2197.63L1581.62 2122.36C1552.49 2089.31 1536.45 2046.85 1536.45 2002.79V1841.62H1569.45V2002.79C1569.45 2038.81 1582.56 2073.52 1606.38 2100.54L1672.72 2175.81L1647.96 2197.63Z" fill="#F07C9E"></path><path d="M1625.51 1963.76L1457.12 1795.37C1457.12 1888.37 1532.51 1963.76 1625.51 1963.76Z" fill="#18422C"></path><path d="M1457.12 1795.37L1625.51 1963.76C1625.51 1870.76 1550.12 1795.37 1457.12 1795.37Z" fill="#C6F097"></path><path d="M1662.15 1598.45V1360.31C1596.39 1426.07 1596.39 1532.69 1662.15 1598.45Z" fill="#18422C"></path><path d="M1662.15 1360.31V1598.45C1727.91 1532.69 1727.91 1426.07 1662.15 1360.31Z" fill="#C6F097"></path><path d="M1662.15 1598.54L1874.16 1490.09C1845.57 1578.58 1750.65 1627.14 1662.15 1598.54Z" fill="#C6F097"></path><path d="M1874.16 1490.09L1662.15 1598.54C1690.75 1510.05 1785.67 1461.49 1874.16 1490.09Z" fill="#18422C"></path><path d="M1662.15 1598.54L1450.14 1490.09C1478.74 1578.58 1573.66 1627.13 1662.15 1598.54Z" fill="#18422C"></path><path d="M1450.14 1490.09L1662.15 1598.54C1633.56 1510.05 1538.64 1461.49 1450.14 1490.09Z" fill="#C6F097"></path><path d="M1692.55 1795.37L1860.94 1626.98C1860.94 1719.98 1785.55 1795.37 1692.55 1795.37Z" fill="#18422C"></path><path d="M1860.94 1626.98L1692.55 1795.37C1692.55 1702.37 1767.94 1626.98 1860.94 1626.98Z" fill="#C6F097"></path><path d="M1677.86 2439.76L1655.34 2415.64L1737.24 2339.22C1758.09 2319.78 1770.05 2292.27 1770.05 2263.76V2114.67H1803.05V2263.76C1803.05 2301.39 1787.27 2337.69 1759.76 2363.35L1677.86 2439.76Z" fill="#F07C9E"></path><path d="M1692.55 2209.99L1860.94 2041.6C1860.94 2134.6 1785.55 2209.99 1692.55 2209.99Z" fill="#18422C"></path><path d="M1860.94 2041.6L1692.55 2209.99C1692.55 2116.99 1767.94 2041.6 1860.94 2041.6Z" fill="#C6F097"></path><path d="M476.215 99.3301C739.045 99.3301 952.43 312.715 952.43 575.545V998.254H0V575.545C0 312.714 213.385 99.3301 476.215 99.3301Z" fill="#F07C9E"></path><path d="M476.217 546.627C476.217 499.632 438.12 461.535 391.125 461.535V549.774H476.217V546.627Z" fill="#F8C3D0"></path><path d="M476.217 638.012V549.773H391.125V552.92C391.125 599.915 429.222 638.012 476.217 638.012Z" fill="#EE4677"></path><path d="M484.066 546.627C484.066 499.632 522.163 461.535 569.158 461.535V549.774H484.066V546.627Z" fill="#EE4677"></path><path d="M484.066 638.012V549.773H569.158V552.92C569.158 599.915 531.061 638.012 484.066 638.012Z" fill="#F8C3D0"></path><path d="M476.217 723.104C476.217 676.109 438.12 638.012 391.125 638.012V726.251H476.217V723.104Z" fill="#F8C3D0"></path><path d="M476.217 814.489V726.25H391.125V729.397C391.125 776.392 429.222 814.489 476.217 814.489Z" fill="#EE4677"></path><path d="M484.066 723.104C484.066 676.109 522.163 638.012 569.158 638.012V726.251H484.066V723.104Z" fill="#EE4677"></path><path d="M484.066 814.489V726.25H569.158V729.397C569.158 776.392 531.061 814.489 484.066 814.489Z" fill="#F8C3D0"></path><path d="M476.217 899.582C476.217 852.587 438.12 814.49 391.125 814.49V902.729H476.217V899.582Z" fill="#F8C3D0"></path><path d="M476.217 990.968V902.729H391.125V905.876C391.125 952.871 429.222 990.968 476.217 990.968Z" fill="#EE4677"></path><path d="M484.066 899.582C484.066 852.587 522.163 814.49 569.158 814.49V902.729H484.066V899.582Z" fill="#EE4677"></path><path d="M484.066 990.968V902.729H569.158V905.876C569.158 952.871 531.061 990.968 484.066 990.968Z" fill="#F8C3D0"></path><path d="M614.014 325.135C614.014 304.525 597.306 287.817 576.696 287.817C574.656 287.817 572.669 288.025 570.718 288.34C572.32 287.183 573.872 285.925 575.315 284.482C589.888 269.908 589.888 246.28 575.315 231.707C560.742 217.134 537.113 217.134 522.54 231.707C521.098 233.15 519.839 234.702 518.683 236.304C518.998 234.353 519.206 232.366 519.206 230.326C519.206 209.716 502.498 193.008 481.888 193.008C461.278 193.008 444.57 209.716 444.57 230.326C444.57 232.366 444.778 234.353 445.093 236.304C443.936 234.702 442.678 233.15 441.236 231.707C426.663 217.134 403.034 217.134 388.461 231.707C373.887 246.281 373.887 269.909 388.461 284.482C389.903 285.924 391.455 287.183 393.058 288.34C391.107 288.025 389.12 287.817 387.08 287.817C366.47 287.817 349.762 304.525 349.762 325.135C349.762 345.745 366.47 362.453 387.08 362.453C389.12 362.453 391.107 362.245 393.058 361.93C391.456 363.087 389.904 364.345 388.462 365.787C373.888 380.361 373.888 403.989 388.462 418.562C403.035 433.136 426.664 433.136 441.237 418.562C442.679 417.12 443.937 415.568 445.094 413.966C444.779 415.917 444.571 417.904 444.571 419.944C444.571 440.554 461.279 457.262 481.889 457.262C502.499 457.262 519.207 440.554 519.207 419.944C519.207 417.904 518.999 415.917 518.684 413.966C519.841 415.569 521.099 417.12 522.541 418.563C537.114 433.137 560.743 433.137 575.316 418.563C589.889 403.989 589.889 380.361 575.316 365.788C573.874 364.346 572.322 363.088 570.72 361.931C572.671 362.246 574.658 362.454 576.698 362.454C597.308 362.454 614.016 345.746 614.016 325.136L614.014 325.135Z" fill="#C6F097"></path><path d="M622.367 735.402C622.367 603.978 728.907 497.438 860.331 497.438V744.202H622.367V735.402Z" fill="#C6F097"></path><path d="M622.367 990.967V744.203H860.331V753.004C860.331 884.428 753.791 990.967 622.367 990.967Z" fill="#18422C"></path><path d="M337.909 735.402C337.909 603.978 231.369 497.438 99.9453 497.438V744.202H337.909V735.402Z" fill="#C6F097"></path><path d="M337.909 990.967V744.203H99.9453V753.004C99.9453 884.428 206.485 990.967 337.909 990.967Z" fill="#18422C"></path><path d="M491.598 377.594C517.592 376.454 538.318 355.027 538.318 328.752C538.318 327.533 538.258 326.329 538.171 325.133H491.599V377.594H491.598Z" fill="#F07C9E"></path><path d="M491.598 279.91V325.133H538.17C536.369 300.536 516.386 280.997 491.598 279.91Z" fill="#EE4677"></path><path d="M440.67 325.133C440.582 326.329 440.523 327.533 440.523 328.752C440.523 355.757 462.415 377.649 489.42 377.649C490.15 377.649 490.875 377.626 491.598 377.594V325.133H440.67Z" fill="#F8C3D0"></path><path d="M440.672 325.133H491.6V279.91C490.878 279.878 490.153 279.855 489.422 279.855C463.635 279.855 442.526 299.819 440.672 325.133Z" fill="#F8C3D0"></path><path d="M711.052 421.723C733.541 421.723 751.772 403.492 751.772 381.003C751.772 358.514 733.541 340.283 711.052 340.283C688.563 340.283 670.332 358.514 670.332 381.003C670.332 403.492 688.563 421.723 711.052 421.723Z" fill="#EE4677"></path><path d="M258.195 424.485C281.447 424.485 300.296 405.636 300.296 382.384C300.296 359.132 281.447 340.283 258.195 340.283C234.943 340.283 216.094 359.132 216.094 382.384C216.094 405.636 234.943 424.485 258.195 424.485Z" fill="#EE4677"></path><path d="M903.698 1074.59H0V1169.95H903.698V1074.59Z" fill="#18422C"></path><path d="M1000.43 1250.22H0V1345.58H1000.43V1250.22Z" fill="#18422C"></path><path d="M1097.2 1425.85H0V1521.21H1097.2V1425.85Z" fill="#18422C"></path><path d="M1169.86 1601.48H0V1696.84H1169.86V1601.48Z" fill="#18422C"></path><path d="M1238.09 1777.12H0V1872.47H1238.09V1777.12Z" fill="#18422C"></path><path d="M1302.26 1952.75H0V2048.1H1302.26V1952.75Z" fill="#18422C"></path><path d="M2000 616.18H1524.86V701.976H2000V616.18Z" fill="#F07C9E"></path><path d="M2000 726.318H1420.21V812.114H2000V726.318Z" fill="#F07C9E"></path><path d="M2000 836.455H1297.05V922.251H2000V836.455Z" fill="#F07C9E"></path><path d="M2000 946.592H1196.58V1032.39H2000V946.592Z" fill="#F07C9E"></path><path d="M2000 1056.73H1111.01V1142.53H2000V1056.73Z" fill="#F07C9E"></path><path d="M2000 1166.87H999.789V1252.66H2000V1166.87Z" fill="#F07C9E"></path><path d="M1801.14 64.1055C1910.89 64.1055 2000 153.21 2000 262.963V583.829H1602.28V262.963C1602.28 153.21 1691.39 64.1055 1801.14 64.1055Z" fill="#F07C9E"></path><path d="M1801.14 125.84C1879.2 125.84 1942.58 189.216 1942.58 267.277V527.734H1659.7V267.277C1659.7 189.216 1723.08 125.84 1801.14 125.84Z" fill="#061A11"></path><path d="M1771.27 264.209L1728.04 308.933C1747.22 327.904 1773.59 339.621 1802.7 339.621C1802.7 310.131 1790.68 283.452 1771.27 264.21V264.209Z" fill="#F8C3D0"></path><path d="M1696.51 233.428C1696.51 262.967 1708.57 289.684 1728.04 308.934L1771.27 264.21C1752.08 245.184 1725.67 233.428 1696.51 233.428Z" fill="#EE4677"></path><path d="M1841.52 264.209L1884.75 308.933C1865.57 327.904 1839.2 339.621 1810.09 339.621C1810.09 310.131 1822.11 283.452 1841.52 264.21V264.209Z" fill="#C6F097"></path><path d="M1916.28 233.428C1916.28 262.967 1904.22 289.684 1884.76 308.934L1841.52 264.21C1860.71 245.184 1887.13 233.428 1916.28 233.428Z" fill="#59D5FC"></path><path d="M1771.27 420.549L1728.04 375.825C1747.22 356.854 1773.59 345.137 1802.7 345.137C1802.7 374.627 1790.68 401.306 1771.27 420.548V420.549Z" fill="#59D5FC"></path><path d="M1696.51 451.33C1696.51 421.791 1708.57 395.074 1728.04 375.824L1771.27 420.548C1752.08 439.574 1725.67 451.33 1696.51 451.33Z" fill="#C6F097"></path><path d="M1841.52 420.549L1884.75 375.825C1865.57 356.854 1839.2 345.137 1810.09 345.137C1810.09 374.627 1822.11 401.306 1841.52 420.548V420.549Z" fill="#EE4677"></path><path d="M1916.28 451.33C1916.28 421.791 1904.22 395.074 1884.76 375.824L1841.52 420.548C1860.71 439.574 1887.13 451.33 1916.28 451.33Z" fill="#59D5FC"></path><path d="M1695.5 318.998L1697.63 370.085C1719.8 369.412 1741.72 360.349 1758.21 343.014C1740.65 326.303 1717.95 318.345 1695.5 318.998Z" fill="#C6F097"></path><path d="M1634.8 346.073C1652.39 362.811 1675.14 370.768 1697.63 370.085L1695.5 318.998C1673.3 319.644 1651.33 328.709 1634.8 346.073Z" fill="#59D5FC"></path><path d="M1779.75 233.683L1830.88 233.283C1831.31 255.456 1823.34 277.799 1806.85 295.133C1789.29 278.422 1780.21 256.144 1779.75 233.683Z" fill="#EE4677"></path><path d="M1803.79 171.723C1821.38 188.461 1830.45 210.785 1830.88 233.284L1779.75 233.684C1779.3 211.475 1787.26 189.086 1803.79 171.723Z" fill="#C6F097"></path><path d="M1833.04 446.657L1781.91 447.057C1781.48 424.884 1789.45 402.541 1805.94 385.207C1823.5 401.918 1832.58 424.196 1833.04 446.657Z" fill="#C6F097"></path><path d="M1809 508.617C1791.41 491.879 1782.34 469.555 1781.91 447.056L1833.04 446.656C1833.49 468.865 1825.53 491.254 1809 508.617Z" fill="#F8C3D0"></path><path d="M1917.29 365.759L1915.16 314.672C1892.99 315.345 1871.07 324.408 1854.58 341.743C1872.14 358.454 1894.84 366.412 1917.3 365.759H1917.29Z" fill="#F8C3D0"></path><path d="M1977.99 338.685C1960.4 321.947 1937.65 313.99 1915.16 314.673L1917.29 365.76C1939.5 365.114 1961.47 356.049 1977.99 338.685Z" fill="#EE4677"></path><path d="M752.121 2500L752.121 1502.18C752.121 1364.42 863.971 1252.57 1001.74 1252.57H1329.6V2500H752.121Z" fill="#EE4677"></path><path d="M953.397 2101.96L834.32 2043.16L1009.35 2267.07C1039.49 2206.03 1014.44 2132.1 953.397 2101.96Z" fill="#F07C9E"></path><path d="M890.273 2208.27L1009.35 2267.07L834.32 2043.16C804.176 2104.21 829.226 2178.13 890.273 2208.27Z" fill="#18422C"></path><path d="M1124.47 2072.39L1243.55 2013.59L1068.52 2237.5C1038.37 2176.46 1063.43 2102.53 1124.47 2072.39V2072.39Z" fill="#F07C9E"></path><path d="M1187.6 2178.71L1068.52 2237.51L1243.55 2013.59C1273.69 2074.64 1248.64 2148.56 1187.6 2178.71Z" fill="#18422C"></path><path d="M953.397 1912.03L834.32 1853.23L1009.35 2077.14C1039.49 2016.09 1014.44 1942.17 953.397 1912.03Z" fill="#F07C9E"></path><path d="M890.273 2018.34L1009.35 2077.14L834.32 1853.23C804.176 1914.27 829.226 1988.2 890.273 2018.34Z" fill="#18422C"></path><path d="M1124.47 1882.46L1243.55 1823.66L1068.52 2047.57C1038.37 1986.53 1063.43 1912.6 1124.47 1882.46Z" fill="#F07C9E"></path><path d="M1187.6 1988.77L1068.52 2047.57L1243.55 1823.66C1273.69 1884.7 1248.64 1958.63 1187.6 1988.77Z" fill="#18422C"></path><path d="M953.397 1722.09L834.32 1663.29L1009.35 1887.21C1039.49 1826.16 1014.44 1752.23 953.397 1722.09V1722.09Z" fill="#F07C9E"></path><path d="M890.273 1828.41L1009.35 1887.21L834.32 1663.29C804.176 1724.34 829.226 1798.26 890.273 1828.41Z" fill="#18422C"></path><path d="M1124.47 1692.52L1243.55 1633.72L1068.52 1857.64C1038.37 1796.59 1063.43 1722.67 1124.47 1692.52Z" fill="#F07C9E"></path><path d="M1187.6 1798.84L1068.52 1857.64L1243.55 1633.72C1273.69 1694.77 1248.64 1768.69 1187.6 1798.84Z" fill="#18422C"></path><path d="M818.051 2280.87C818.051 2401.89 916.16 2500 1037.18 2500V2280.87H818.051Z" fill="#F8C3D0"></path><path d="M1256.32 2280.87H1037.18V2500C1158.21 2500 1256.32 2401.89 1256.32 2280.87Z" fill="#C6F097"></path><path d="M1196.71 1499.98C1196.71 1475.1 1176.54 1454.92 1151.66 1454.92C1149.19 1454.92 1146.79 1455.18 1144.44 1455.56C1146.37 1454.16 1148.25 1452.64 1149.99 1450.9C1167.58 1433.3 1167.58 1404.77 1149.99 1387.18C1132.39 1369.58 1103.86 1369.58 1086.27 1387.18C1084.53 1388.92 1083.01 1390.79 1081.61 1392.73C1081.99 1390.37 1082.24 1387.97 1082.24 1385.51C1082.24 1360.63 1062.07 1340.45 1037.18 1340.45C1012.3 1340.45 992.127 1360.63 992.127 1385.51C992.127 1387.97 992.378 1390.37 992.758 1392.73C991.361 1390.79 989.842 1388.92 988.101 1387.18C970.505 1369.58 941.977 1369.58 924.381 1387.18C906.785 1404.77 906.785 1433.3 924.381 1450.9C926.122 1452.64 927.996 1454.16 929.931 1455.56C927.575 1455.18 925.176 1454.92 922.713 1454.92C897.829 1454.92 877.656 1475.1 877.656 1499.98C877.656 1524.86 897.829 1545.04 922.713 1545.04C925.176 1545.04 927.575 1544.79 929.93 1544.41C927.996 1545.8 926.122 1547.32 924.38 1549.06C906.784 1566.66 906.784 1595.19 924.38 1612.78C941.976 1630.38 970.504 1630.38 988.1 1612.78C989.841 1611.04 991.36 1609.17 992.757 1607.23C992.377 1609.59 992.126 1611.99 992.126 1614.45C992.126 1639.34 1012.3 1659.51 1037.18 1659.51C1062.07 1659.51 1082.24 1639.33 1082.24 1614.45C1082.24 1611.99 1081.99 1609.59 1081.61 1607.23C1083.01 1609.17 1084.53 1611.04 1086.27 1612.78C1103.86 1630.38 1132.39 1630.38 1149.99 1612.78C1167.58 1595.19 1167.58 1566.66 1149.99 1549.06C1148.25 1547.32 1146.37 1545.8 1144.44 1544.41C1146.79 1544.79 1149.19 1545.04 1151.65 1545.04C1176.54 1545.04 1196.71 1524.86 1196.71 1499.98H1196.71Z" fill="#C6F097"></path><path d="M1039.82 1563.32C1071.2 1561.94 1096.23 1536.07 1096.23 1504.35C1096.23 1502.88 1096.15 1501.42 1096.05 1499.98H1039.82L1039.82 1563.32Z" fill="#F07C9E"></path><path d="M1039.82 1445.38V1499.98H1096.05C1093.87 1470.28 1069.75 1446.69 1039.82 1445.38Z" fill="#EE4677"></path><path d="M978.326 1499.98C978.22 1501.42 978.148 1502.88 978.148 1504.35C978.148 1536.96 1004.58 1563.39 1037.19 1563.39C1038.07 1563.39 1038.94 1563.36 1039.82 1563.32V1499.98H978.326V1499.98Z" fill="#F8C3D0"></path><path d="M978.328 1499.98H1039.82V1445.38C1038.95 1445.34 1038.07 1445.31 1037.19 1445.31C1006.05 1445.31 980.567 1469.42 978.328 1499.98Z" fill="#F8C3D0"></path></svg>