<svg xmlns="http://www.w3.org/2000/svg" width="1826" height="2371" viewBox="0 0 1826 2371" fill="none"><path d="M1759.06 1159C1768.05 1160.98 1780.7 1160.45 1788.83 1156.13C1804.38 1147.85 1813.09 1128.47 1808.96 1111.35C1804.82 1094.22 1788.22 1081.1 1770.61 1080.69C1742.61 1080.03 1728.35 1099.22 1728.35 1118.42C1728.35 1130.5 1731.64 1152.97 1759.06 1159Z" fill="#59D5FC"></path><path d="M1629.07 1014.82C1643.5 1017.99 1663.8 1017.14 1676.84 1010.21C1701.79 996.931 1715.78 965.826 1709.14 938.351C1702.51 910.875 1675.87 889.82 1647.61 889.154C1602.67 888.095 1579.79 918.896 1579.79 949.698C1579.79 969.079 1585.07 1005.14 1629.07 1014.82Z" fill="#F07C9E"></path><path d="M1781.92 1711.96C1788 1713.3 1796.56 1712.94 1802.06 1710.02C1812.58 1704.42 1818.48 1691.3 1815.68 1679.72C1812.88 1668.13 1801.65 1659.25 1789.73 1658.97C1770.78 1658.53 1761.14 1671.51 1761.14 1684.5C1761.14 1692.67 1763.36 1707.88 1781.92 1711.96Z" fill="#EE4677"></path><path d="M1734.65 145.261C1741.79 146.832 1751.85 146.411 1758.3 142.977C1770.66 136.404 1777.58 121.004 1774.29 107.401C1771.01 93.7984 1757.82 83.3744 1743.83 83.0444C1721.58 82.5204 1710.25 97.7694 1710.25 113.019C1710.25 122.614 1712.87 140.468 1734.65 145.261Z" fill="#C6F097"></path><path d="M1634.16 375.896C1642.66 377.764 1654.61 377.264 1662.29 373.179C1676.98 365.363 1685.21 347.05 1681.3 330.874C1677.4 314.698 1661.71 302.302 1645.08 301.91C1618.62 301.287 1605.15 319.421 1605.15 337.555C1605.15 348.965 1608.26 370.197 1634.16 375.896Z" fill="#59D5FC"></path><path d="M1717.72 591.281C1732.55 594.544 1753.43 593.67 1766.84 586.536C1792.5 572.885 1806.87 540.901 1800.05 512.649C1793.23 484.397 1765.83 462.747 1736.78 462.062C1690.57 460.973 1667.04 492.645 1667.04 524.317C1667.04 544.246 1672.47 581.326 1717.72 591.281Z" fill="#EE4677"></path><path d="M1643.85 1317.91C1657.56 1330.18 1668.41 1345.36 1675.91 1362.15C1683.34 1378.76 1687.32 1396.99 1687.41 1415.18C1687.51 1435.3 1682.5 1455.16 1674.54 1473.56C1666.35 1492.49 1655.39 1510.28 1642.85 1526.63C1630.64 1542.56 1616.58 1557.12 1601.18 1569.99C1599.24 1571.61 1597.27 1573.21 1595.28 1574.78C1594.01 1575.79 1594.23 1577.97 1595.28 1579.02C1596.54 1580.28 1598.25 1580.03 1599.53 1579.02C1615.66 1566.26 1630.36 1551.72 1643.28 1535.71C1656.47 1519.37 1668.07 1501.56 1677.03 1482.54C1686.05 1463.37 1692.34 1442.75 1693.28 1421.5C1694.12 1402.59 1690.8 1383.46 1683.91 1365.85C1676.99 1348.16 1666.6 1331.85 1653.13 1318.42C1651.49 1316.79 1649.81 1315.21 1648.09 1313.66C1646.88 1312.58 1645.04 1312.47 1643.85 1313.66C1642.75 1314.76 1642.63 1316.82 1643.85 1317.91L1643.85 1317.91Z" fill="#C6F097"></path><path d="M195.061 962.493C212.67 966.367 237.458 965.329 253.375 956.86C283.837 940.653 300.906 902.681 292.806 869.14C284.706 835.599 252.183 809.896 217.688 809.083C162.831 807.79 134.898 845.392 134.898 882.993C134.898 906.653 141.344 950.675 195.06 962.493H195.061Z" fill="#59D5FC"></path><path d="M44.5432 741.312C55.9732 743.827 72.0622 743.153 82.3942 737.656C102.167 727.136 113.246 702.489 107.988 680.718C102.73 658.947 81.6202 642.263 59.2302 641.736C23.6232 640.897 5.49219 665.303 5.49219 689.71C5.49219 705.067 9.67618 733.642 44.5422 741.312H44.5432Z" fill="#EE4677"></path><path d="M79.9818 320.918C93.6938 323.935 112.997 323.126 125.392 316.532C149.113 303.912 162.405 274.342 156.097 248.224C149.789 222.106 124.464 202.09 97.6018 201.457C54.8838 200.45 33.1328 229.731 33.1328 259.011C33.1328 277.435 38.1528 311.716 79.9818 320.918Z" fill="#C6F097"></path><path d="M113.763 1362.66C120.978 1364.25 131.134 1363.83 137.656 1360.36C150.137 1353.72 157.131 1338.16 153.812 1324.42C150.493 1310.67 137.168 1300.14 123.034 1299.81C100.558 1299.28 89.1133 1314.69 89.1133 1330.09C89.1133 1339.79 91.7543 1357.82 113.763 1362.66Z" fill="#18422C"></path><path d="M172.162 124.731C178.474 126.12 187.358 125.747 193.064 122.712C203.983 116.903 210.101 103.293 207.197 91.27C204.293 79.247 192.637 70.035 180.272 69.744C160.609 69.281 150.598 82.758 150.598 96.236C150.598 104.716 152.908 120.496 172.162 124.731Z" fill="#F07C9E"></path><path d="M789.516 104.569C799.096 106.677 812.582 106.112 821.241 101.505C837.813 92.6884 847.1 72.0304 842.693 53.7824C838.286 35.5354 820.593 21.5514 801.826 21.1094C771.982 20.4064 756.785 40.8624 756.785 61.3194C756.785 74.1914 760.292 98.1414 789.515 104.57L789.516 104.569Z" fill="#EE4677"></path><path d="M36.794 1532.57C47.563 1534.94 62.724 1534.31 72.458 1529.13C91.088 1519.22 101.527 1495.99 96.574 1475.48C91.62 1454.97 71.73 1439.25 50.633 1438.75C17.083 1437.96 0 1460.95 0 1483.95C0 1498.42 3.94101 1525.35 36.794 1532.57Z" fill="#F07C9E"></path><path d="M946.175 146.099C951.884 147.355 959.922 147.018 965.083 144.273C974.96 139.018 980.494 126.706 977.868 115.831C975.242 104.956 964.697 96.6222 953.512 96.3582C935.725 95.9392 926.668 108.131 926.668 120.322C926.668 127.993 928.758 142.267 946.175 146.099Z" fill="#F07C9E"></path><path d="M264.84 2201.11C213.758 2227.93 179.492 2239.05 99.9224 2289.12C73.6534 2305.65 46.9323 2321.37 25.8673 2343.22C16.0803 2353.37 16.0233 2363.37 27.3293 2364.5C107.23 2372.48 222.18 2367.99 317.458 2362.72C365.866 2360.05 403.028 2352.68 435.881 2289.53C449.02 2264.27 463.618 2232.37 475.722 2214.51C477.879 2211.33 481.627 2208.9 485.683 2208.31C494.42 2207.03 497.626 2217.06 498.697 2225.05C502.351 2252.32 489.492 2301.71 493.89 2337.13C495.018 2346.22 497.089 2356.47 505.568 2361.38C511.127 2364.59 518.15 2364.64 524.726 2364.3C539.133 2363.57 598.766 2362.14 612.702 2358.73C616.055 2357.91 619.758 2356.75 621.275 2353.9C622.523 2351.57 621.892 2348.8 621.24 2346.27C594.347 2241.89 602.898 2117.97 588.585 2011.56L347.42 2009.57C346.408 2034.84 347.062 2089.11 340.843 2109.33C335.727 2125.96 326.464 2168.75 264.839 2201.11H264.84Z" fill="#18422C"></path><path d="M264.084 2199.81C230.254 2217.56 195.195 2232.81 161.613 2251.05C137.385 2264.21 113.923 2278.61 90.5517 2293.22C78.2417 2300.92 65.9196 2308.63 54.1586 2317.15C48.5346 2321.22 43.0356 2325.48 37.7576 2330C32.4076 2334.58 26.8306 2339.37 22.4126 2344.88C19.5036 2348.5 16.6286 2353.26 17.2756 2358.12C17.8186 2362.2 21.0576 2364.73 24.9016 2365.62C30.2786 2366.85 36.1886 2366.84 41.6806 2367.27C47.7316 2367.74 53.7886 2368.14 59.8486 2368.49C86.4366 2369.98 113.081 2370.41 139.707 2370.33C196.693 2370.16 253.657 2367.69 310.55 2364.6C329.54 2363.57 348.843 2362.56 367.097 2356.76C385.051 2351.05 400.643 2340.48 413.102 2326.39C430.397 2306.84 441.079 2282.7 452.655 2259.59C458.55 2247.81 464.461 2236.01 471.137 2224.66C473.954 2219.87 476.8 2213.63 481.971 2211.04C488.444 2207.8 493.208 2211.33 495.427 2217.51C498.85 2227.03 498.087 2238.13 497.441 2248.04C496.633 2260.44 495.047 2272.76 493.757 2285.11C492.43 2297.81 491.271 2310.59 491.488 2323.38C491.667 2333.91 491.994 2346.76 497.873 2355.92C504.332 2365.98 515.888 2366.2 526.655 2365.71C533.963 2365.39 541.275 2365.16 548.585 2364.88C567.04 2364.17 585.621 2363.68 603.985 2361.6C610.413 2360.88 621.76 2360.28 623.337 2352.48C623.913 2349.63 622.879 2346.64 622.189 2343.91C621.319 2340.47 620.489 2337.01 619.697 2333.55C618.136 2326.73 616.723 2319.87 615.436 2312.99C610.11 2284.52 606.941 2255.68 604.692 2226.82C600.162 2168.69 599.508 2110.31 594.498 2052.21C593.327 2038.63 591.896 2025.07 590.089 2011.56C589.981 2010.75 589.489 2010.07 588.589 2010.06C580.556 2010 572.523 2009.93 564.49 2009.86C545.307 2009.7 526.124 2009.55 506.941 2009.39C483.75 2009.2 460.56 2009 437.369 2008.81L377.199 2008.31C370.556 2008.26 363.914 2008.2 357.271 2008.15C354.176 2008.12 350.945 2007.83 347.856 2008.07C347.714 2008.08 347.566 2008.07 347.423 2008.07C346.589 2008.06 345.955 2008.76 345.923 2009.57C345.312 2025.14 345.279 2040.73 344.766 2056.31C344.248 2072.06 343.939 2088.27 340.703 2103.75C336.399 2124.34 327.28 2144.53 313.905 2160.76C300.33 2177.23 282.864 2189.89 264.085 2199.81C262.377 2200.72 263.892 2203.31 265.599 2202.4C294.836 2186.96 320.593 2164.43 334.029 2133.69C337.485 2125.78 340.014 2117.55 342.426 2109.28C346.576 2095.05 346.822 2079.39 347.451 2064.68C348.237 2046.32 348.202 2027.93 348.922 2009.57L347.422 2011.07C355.455 2011.13 363.488 2011.2 371.521 2011.26C390.704 2011.42 409.887 2011.58 429.07 2011.74C452.261 2011.93 475.451 2012.12 498.642 2012.32L558.812 2012.81C565.455 2012.87 572.097 2012.92 578.74 2012.98L584.901 2013.03C585.834 2013.04 587.252 2013.32 588.155 2013.06C588.276 2013.02 588.458 2013.06 588.588 2013.06L587.088 2011.56C594.589 2067.64 595.768 2124.32 598.754 2180.75C600.278 2209.55 602.195 2238.35 605.55 2266.99C607.144 2280.61 609.058 2294.2 611.437 2307.7C613.816 2321.2 617.137 2334.3 620.036 2347.62C620.507 2349.79 620.913 2352.31 619.288 2354.13C618.159 2355.39 616.408 2356.08 614.847 2356.59C613.286 2357.1 611.69 2357.46 610.083 2357.75C606.929 2358.32 603.73 2358.65 600.541 2358.96C591.599 2359.83 582.621 2360.33 573.651 2360.79C557.548 2361.61 541.43 2362.02 525.325 2362.78C518.983 2363.08 512.027 2363.37 506.328 2360.08C500.908 2356.96 498.241 2351.14 496.816 2345.29C494.011 2333.77 494.172 2321.44 494.743 2309.68C495.91 2285.62 500.642 2261.76 500.856 2237.66C500.933 2229.05 500.862 2218.18 495.371 2211.01C492.548 2207.33 488.371 2206.02 483.898 2207.15C478.152 2208.6 474.95 2212.8 471.948 2217.55C458.15 2239.38 447.729 2263.28 435.921 2286.2C425.429 2306.56 412.517 2326.53 393.691 2340.15C379.193 2350.64 362.239 2356.11 344.679 2358.72C335.336 2360.11 325.901 2360.76 316.476 2361.28C302.871 2362.03 289.264 2362.74 275.654 2363.4C247.543 2364.75 219.419 2365.87 191.284 2366.58C138.916 2367.89 86.2236 2368.3 33.9976 2363.63C29.6616 2363.24 21.6306 2363.8 20.3336 2358.29C18.9586 2352.45 24.7416 2346.47 28.3906 2342.78C38.5056 2332.54 49.8876 2323.66 61.7016 2315.47C73.5216 2307.28 85.7826 2299.76 97.9616 2292.13C110.141 2284.49 122.435 2276.9 134.872 2269.61C153.852 2258.48 173.189 2247.99 192.876 2238.16C208.984 2230.13 225.305 2222.53 241.471 2214.62C249.566 2210.65 257.617 2206.59 265.6 2202.41C267.31 2201.51 265.796 2198.92 264.086 2199.82L264.084 2199.81Z" fill="#18422C"></path><path d="M88.9469 2322.67C106.532 2311.35 124.419 2300.49 142.591 2290.14C160.762 2279.78 179.213 2269.91 197.918 2260.56C208.466 2255.28 219.095 2250.16 229.799 2245.21C231.549 2244.4 230.027 2241.81 228.285 2242.62C209.304 2251.41 190.559 2260.7 172.08 2270.5C153.602 2280.29 135.388 2290.59 117.467 2301.38C107.361 2307.46 97.3499 2313.69 87.4329 2320.08C85.8149 2321.12 87.3169 2323.72 88.9469 2322.67Z" fill="#C6F097"></path><path d="M323.997 2194.08C337.885 2179.76 348.601 2162.49 355.309 2143.7C357.22 2138.35 358.79 2132.89 360.025 2127.34C360.444 2125.46 357.553 2124.66 357.132 2126.54C352.876 2145.64 344.504 2163.72 332.72 2179.34C329.377 2183.77 325.739 2187.98 321.875 2191.96C320.53 2193.35 322.649 2195.47 323.996 2194.08L323.997 2194.08Z" fill="#C6F097"></path><path d="M586.44 1952.68C619.695 1988.89 644.237 2016.69 658.435 2063.75C665.29 2086.48 669.594 2111.25 661.873 2133.7C658.85 2142.49 652.621 2151.61 643.363 2152.41C638.856 2152.81 634.43 2151.11 630.403 2149.04C604.465 2135.75 592.834 2108.11 577.27 2083.47C575.327 2080.39 565.308 2061.83 561.868 2060.65C554.404 2058.08 550.953 2075.29 546.068 2087.92C540.652 2101.92 535.9 2115.77 529.21 2129.21C526.618 2134.41 523.017 2140.33 517.214 2140.7C511.566 2141.07 507.256 2135.94 504.074 2131.26C487.421 2106.77 473.457 2047.88 463.071 2052.66C457.951 2055.06 443.712 2090.66 426.924 2125.3C421.694 2136.1 408.907 2147.43 399.037 2140.61C394.98 2137.81 393.277 2132.74 391.935 2127.99C385.257 2104.4 383.096 2083.16 378.329 2058.54C376.487 2049.02 375.866 2040.94 370.868 2041.05C368.487 2041.1 366.437 2042.69 364.579 2044.18C335.371 2067.61 313.352 2102.65 277.486 2113.42C272.256 2114.99 266.403 2115.93 261.491 2113.54C249.873 2107.9 252.905 2090.62 258.335 2078.9C283.443 2024.7 322.048 1976.81 369.687 1940.78L586.44 1952.68V1952.68Z" fill="#C6F097"></path><path d="M1578.23 2201.11C1629.31 2227.93 1663.58 2239.05 1743.15 2289.12C1769.42 2305.65 1796.14 2321.37 1817.2 2343.22C1826.99 2353.37 1827.05 2363.37 1815.74 2364.5C1735.84 2372.48 1620.89 2367.99 1525.61 2362.72C1477.2 2360.05 1440.04 2352.68 1407.19 2289.53C1394.05 2264.27 1379.45 2232.37 1367.35 2214.51C1365.19 2211.33 1361.44 2208.9 1357.39 2208.31C1348.65 2207.03 1345.44 2217.06 1344.37 2225.05C1340.72 2252.32 1353.58 2301.71 1349.18 2337.13C1348.05 2346.22 1345.98 2356.47 1337.5 2361.38C1331.94 2364.59 1324.92 2364.64 1318.34 2364.3C1303.94 2363.57 1244.3 2362.14 1230.37 2358.73C1227.01 2357.91 1223.31 2356.75 1221.79 2353.9C1220.55 2351.57 1221.18 2348.8 1221.83 2346.27C1248.72 2241.89 1240.17 2117.97 1254.48 2011.56L1495.65 2009.57C1496.66 2034.84 1496.01 2089.11 1502.23 2109.33C1507.34 2125.96 1516.6 2168.75 1578.23 2201.11Z" fill="#18422C"></path><path d="M1577.47 2202.4C1610.57 2219.77 1644.87 2234.7 1677.77 2252.46C1701.34 2265.18 1724.22 2279.05 1746.92 2293.26C1770.89 2308.26 1795.57 2323.1 1815.41 2343.52C1818.84 2347.06 1824.51 2353.31 1822.58 2358.83C1820.75 2364.08 1812.23 2363.35 1807.8 2363.74C1795.8 2364.79 1783.77 2365.53 1771.73 2366.07C1745.35 2367.25 1718.94 2367.49 1692.55 2367.27C1636.87 2366.81 1581.2 2364.32 1525.61 2361.22C1507.48 2360.21 1489.06 2358.57 1471.91 2352.19C1453.76 2345.45 1438.72 2333.16 1426.87 2317.99C1410.53 2297.08 1400.14 2272 1388.17 2248.49C1382.6 2237.55 1376.96 2226.57 1370.29 2216.25C1367.27 2211.58 1363.55 2207.74 1357.78 2206.86C1353.6 2206.23 1349.94 2207.93 1347.46 2211.32C1342.07 2218.69 1342.1 2229.7 1342.22 2238.43C1342.39 2250.11 1343.77 2261.76 1345.04 2273.36C1346.43 2286.06 1347.88 2298.77 1348.41 2311.54C1348.89 2323.06 1349 2335.29 1345.94 2346.5C1344.37 2352.28 1341.42 2357.72 1335.9 2360.54C1330.26 2363.42 1323.56 2363.05 1317.43 2362.76C1310.56 2362.44 1303.68 2362.23 1296.8 2361.97C1278.44 2361.27 1260 2360.71 1241.7 2358.88C1238.67 2358.58 1235.63 2358.25 1232.64 2357.68C1230.86 2357.35 1229.08 2356.94 1227.39 2356.3C1225.89 2355.74 1224.36 2355 1223.43 2353.64C1221.98 2351.5 1222.71 2348.96 1223.27 2346.66C1226.59 2333.25 1229.54 2319.79 1231.9 2306.17C1236.7 2278.51 1239.61 2250.54 1241.7 2222.55C1245.97 2165.49 1246.69 2108.2 1251.66 2051.18C1252.82 2037.94 1254.22 2024.73 1255.98 2011.56L1254.48 2013.06C1262.51 2012.99 1270.55 2012.93 1278.58 2012.86L1336.13 2012.39C1359.32 2012.19 1382.51 2012 1405.7 2011.81L1465.87 2011.31C1472.51 2011.26 1479.16 2011.2 1485.8 2011.15L1491.96 2011.1C1492.89 2011.09 1494.32 2011.35 1495.21 2011.07C1495.33 2011.03 1495.52 2011.07 1495.65 2011.06L1494.15 2009.56C1494.78 2025.7 1494.8 2041.85 1495.36 2057.99C1495.9 2073.63 1496.27 2089.74 1499.59 2105.09C1504.12 2126.02 1513.42 2146.35 1527.04 2162.88C1540.76 2179.52 1558.49 2192.38 1577.47 2202.4C1579.18 2203.3 1580.69 2200.72 1578.98 2199.81C1549.99 2184.5 1524.61 2162.24 1511.43 2131.7C1508.09 2123.98 1505.6 2115.89 1503.34 2107.8C1499.33 2093.46 1499.15 2077.78 1498.55 2063.02C1497.82 2045.21 1497.84 2027.37 1497.15 2009.56C1497.11 2008.76 1496.48 2008.06 1495.65 2008.06C1487.61 2008.13 1479.58 2008.2 1471.55 2008.26L1414 2008.74C1390.81 2008.93 1367.62 2009.12 1344.43 2009.32L1284.26 2009.81C1277.61 2009.87 1270.97 2009.92 1264.33 2009.98C1261.23 2010 1258 2009.78 1254.91 2010.06C1254.77 2010.07 1254.62 2010.06 1254.48 2010.06C1253.59 2010.07 1253.09 2010.75 1252.98 2011.56C1245.34 2068.7 1244.25 2126.48 1241.14 2183.98C1239.56 2213.27 1237.53 2242.57 1233.95 2271.7C1232.19 2286.03 1230.04 2300.32 1227.35 2314.51C1226.04 2321.38 1224.61 2328.22 1223.03 2335.03C1222.26 2338.33 1221.46 2341.61 1220.63 2344.89C1219.91 2347.7 1219.04 2350.72 1220.04 2353.58C1222.48 2360.59 1233.59 2361 1239.85 2361.68C1248.59 2362.64 1257.37 2363.15 1266.15 2363.62C1283.07 2364.52 1300.01 2364.96 1316.93 2365.74C1328 2366.25 1339.74 2365.59 1345.81 2354.88C1351.28 2345.24 1351.53 2332.38 1351.6 2321.59C1351.76 2296.37 1346.98 2271.5 1345.52 2246.39C1344.95 2236.6 1344.12 2225 1348.31 2215.83C1350.99 2209.96 1356.19 2208.17 1361.92 2211.49C1366.97 2214.41 1369.96 2221.25 1372.79 2226.14C1386.41 2249.66 1396.86 2274.85 1410.33 2298.44C1421.02 2317.17 1434.71 2334.78 1453.2 2346.34C1468.36 2355.81 1485.72 2360.25 1503.31 2362.38C1513.67 2363.64 1524.09 2364.15 1534.5 2364.71C1548.39 2365.46 1562.29 2366.17 1576.18 2366.81C1604.88 2368.14 1633.58 2369.21 1662.3 2369.82C1690.18 2370.41 1718.08 2370.58 1745.96 2369.93C1758.84 2369.63 1771.72 2369.15 1784.58 2368.41C1790.61 2368.06 1796.65 2367.65 1802.68 2367.17C1807.99 2366.74 1814.16 2366.97 1819.26 2365.32C1830.17 2361.81 1825.01 2349.85 1819.69 2343.71C1810.54 2333.16 1798.93 2324.33 1787.62 2316.22C1775.82 2307.75 1763.47 2300.07 1751.15 2292.37C1738.54 2284.49 1725.94 2276.6 1713.13 2269.03C1693.46 2257.4 1673.41 2246.43 1652.97 2236.21C1636.65 2228.04 1620.1 2220.34 1603.71 2212.31C1595.41 2208.26 1587.16 2204.1 1578.98 2199.81C1577.27 2198.92 1575.76 2201.51 1577.47 2202.4L1577.47 2202.4Z" fill="#18422C"></path><path d="M1755.64 2320.08C1738.05 2308.76 1720.17 2297.9 1701.99 2287.55C1683.82 2277.19 1665.37 2267.32 1646.67 2257.97C1636.12 2252.69 1625.49 2247.57 1614.79 2242.62C1613.04 2241.81 1611.52 2244.4 1613.27 2245.21C1632.25 2254 1651 2263.29 1669.48 2273.09C1687.95 2282.88 1706.17 2293.18 1724.09 2303.97C1734.2 2310.05 1744.21 2316.28 1754.12 2322.67C1755.75 2323.72 1757.26 2321.12 1755.64 2320.08Z" fill="#C6F097"></path><path d="M1521.19 2191.96C1507.58 2177.92 1497.03 2160.95 1490.51 2142.51C1488.66 2137.29 1487.14 2131.95 1485.93 2126.54C1485.51 2124.66 1482.62 2125.46 1483.04 2127.34C1487.38 2146.8 1495.95 2165.31 1508.01 2181.19C1511.44 2185.7 1515.12 2190.01 1519.07 2194.08C1520.42 2195.47 1522.54 2193.35 1521.19 2191.96L1521.19 2191.96Z" fill="#C6F097"></path><path d="M1256.63 1952.68C1223.37 1988.89 1198.83 2016.69 1184.63 2063.75C1177.78 2086.48 1173.47 2111.25 1181.19 2133.7C1184.22 2142.49 1190.45 2151.61 1199.7 2152.41C1204.21 2152.81 1208.64 2151.11 1212.66 2149.04C1238.6 2135.75 1250.23 2108.11 1265.8 2083.47C1267.74 2080.39 1277.76 2061.83 1281.2 2060.65C1288.66 2058.08 1292.11 2075.29 1297 2087.92C1302.42 2101.92 1307.17 2115.77 1313.86 2129.21C1316.45 2134.41 1320.05 2140.33 1325.85 2140.7C1331.5 2141.07 1335.81 2135.94 1338.99 2131.26C1355.65 2106.77 1369.61 2047.88 1380 2052.66C1385.12 2055.06 1399.36 2090.66 1416.14 2125.3C1421.37 2136.1 1434.16 2147.43 1444.03 2140.61C1448.09 2137.81 1449.79 2132.74 1451.13 2127.99C1457.81 2104.4 1459.97 2083.16 1464.74 2058.54C1466.58 2049.02 1467.2 2040.94 1472.2 2041.05C1474.58 2041.1 1476.63 2042.69 1478.49 2044.18C1507.7 2067.61 1529.72 2102.65 1565.58 2113.42C1570.81 2114.99 1576.66 2115.93 1581.58 2113.54C1593.19 2107.9 1590.16 2090.62 1584.73 2078.9C1559.62 2024.7 1521.02 1976.81 1473.38 1940.78L1256.63 1952.68V1952.68Z" fill="#C6F097"></path><path d="M514.417 1990.78C540.321 1991.55 615.278 1989.61 638.085 1977.31C689.155 1949.76 669.851 1881.16 666.525 1823.22C661.971 1743.9 708.897 1674.24 704.343 1594.92C701.104 1538.49 697.95 1481.07 711.443 1426.19C724.936 1371.31 762.641 1319.71 813.866 1295.84C843.329 1282.11 901.657 1275.89 960.184 1295.84C989.016 1305.67 1033.34 1330.42 1073.25 1436.83C1101.45 1512.03 1069.26 1544.58 1109.16 1621.73C1183.14 1764.76 1109.47 1751.59 1153.06 1870.47C1167.69 1910.37 1156.84 1962.12 1169.98 1978.33C1182.68 1994 1204.81 1997.6 1224.89 1999.49C1317.45 2008.24 1439.13 2000.39 1530.66 1984.06C1551.7 1980.31 1574.42 1974.84 1587.64 1958.05C1597.77 1945.19 1604.4 1921.3 1606.59 1905.08C1628.83 1739.95 1633 1516.32 1588.69 1355.7C1530.16 1143.53 1416.13 1052.43 1227.55 988.571C1038.96 924.706 786.596 928.714 605.028 982.585C504.484 1012.42 413.484 1064.39 335.67 1162.16C276.797 1236.13 228.593 1421.29 213.584 1551.34C198.575 1681.39 203.319 1843.87 234.095 1942.26C247.22 1984.22 445.083 1988.73 514.414 1990.79L514.417 1990.78Z" fill="#EE4677"></path><mask id="mask0_358_7520" style="mask-type:luminance" maskUnits="userSpaceOnUse" x="205" y="941" width="1418" height="1063"><path d="M514.417 1990.78C540.321 1991.55 615.278 1989.61 638.085 1977.31C689.155 1949.76 669.851 1881.16 666.525 1823.22C661.971 1743.9 708.897 1674.24 704.343 1594.92C701.104 1538.49 697.95 1481.07 711.443 1426.19C724.936 1371.31 762.641 1319.71 813.866 1295.84C843.329 1282.11 901.657 1275.89 960.184 1295.84C989.016 1305.67 1033.34 1330.42 1073.25 1436.83C1101.45 1512.03 1069.26 1544.58 1109.16 1621.73C1183.14 1764.76 1109.47 1751.59 1153.06 1870.47C1167.69 1910.37 1156.84 1962.12 1169.98 1978.33C1182.68 1994 1204.81 1997.6 1224.89 1999.49C1317.45 2008.24 1439.13 2000.39 1530.66 1984.06C1551.7 1980.31 1574.42 1974.84 1587.64 1958.05C1597.77 1945.19 1604.4 1921.3 1606.59 1905.08C1628.83 1739.95 1633 1516.32 1588.69 1355.7C1530.16 1143.53 1416.13 1052.43 1227.55 988.571C1038.96 924.706 786.596 928.714 605.028 982.585C504.484 1012.42 413.484 1064.39 335.67 1162.16C276.797 1236.13 228.593 1421.29 213.584 1551.34C198.575 1681.39 203.319 1843.87 234.095 1942.26C247.22 1984.22 445.083 1988.73 514.414 1990.79L514.417 1990.78Z" fill="white"></path></mask><g mask="url(#mask0_358_7520)"><path d="M623.64 1822.58C649.962 1828.37 687.017 1826.82 710.81 1814.16C756.346 1789.94 781.861 1733.17 769.753 1683.04C757.645 1632.9 709.029 1594.47 657.464 1593.26C575.461 1591.33 533.707 1647.54 533.707 1703.74C533.707 1739.11 543.343 1804.92 623.64 1822.58Z" fill="#F07C9E"></path><path d="M623.64 1293.18C649.962 1298.97 687.017 1297.42 710.81 1284.76C756.346 1260.53 781.861 1203.77 769.753 1153.63C757.645 1103.49 709.029 1065.07 657.464 1063.85C575.461 1061.92 533.707 1118.13 533.707 1174.34C533.707 1209.7 543.343 1275.51 623.64 1293.18V1293.18Z" fill="#F07C9E"></path><path d="M1448.34 1543.25C1474.66 1549.04 1511.72 1547.49 1535.51 1534.83C1581.05 1510.6 1606.56 1453.84 1594.45 1403.7C1582.34 1353.56 1533.73 1315.14 1482.16 1313.92C1400.16 1311.99 1358.41 1368.2 1358.41 1424.41C1358.41 1459.77 1368.04 1525.58 1448.34 1543.25Z" fill="#C6F097"></path><path d="M227.093 1894.09C253.415 1899.88 290.47 1898.33 314.263 1885.67C359.799 1861.44 385.314 1804.68 373.206 1754.54C361.098 1704.4 312.482 1665.98 260.917 1664.76C178.914 1662.83 137.16 1719.04 137.16 1775.25C137.16 1810.61 146.796 1876.42 227.093 1894.09Z" fill="#F07C9E"></path><path d="M1017.21 1457.79C1043.53 1463.58 1080.59 1462.03 1104.38 1449.37C1149.92 1425.15 1175.43 1368.38 1163.32 1318.25C1151.22 1268.11 1102.6 1229.69 1051.03 1228.47C969.031 1226.54 927.277 1282.75 927.277 1338.95C927.277 1374.32 936.913 1440.13 1017.21 1457.79Z" fill="#F07C9E"></path><path d="M1522.67 2016.46C1548.99 2022.25 1586.05 2020.7 1609.84 2008.04C1655.38 1983.82 1680.89 1927.05 1668.78 1876.91C1656.68 1826.78 1608.06 1788.35 1556.5 1787.14C1474.49 1785.21 1432.74 1841.41 1432.74 1897.62C1432.74 1932.99 1442.37 1998.8 1522.67 2016.46Z" fill="#F07C9E"></path><path d="M391.441 1539.84C417.763 1545.63 454.818 1544.08 478.611 1531.42C524.147 1507.19 549.662 1450.43 537.554 1400.29C525.446 1350.15 476.83 1311.73 425.265 1310.52C343.262 1308.58 301.508 1364.79 301.508 1421C301.508 1456.37 311.144 1522.17 391.441 1539.84Z" fill="#F07C9E"></path><path d="M1136.34 1835.14C1162.66 1840.93 1199.71 1839.38 1223.51 1826.72C1269.04 1802.49 1294.56 1745.73 1282.45 1695.59C1270.34 1645.45 1221.72 1607.03 1170.16 1605.81C1088.16 1603.88 1046.4 1660.09 1046.4 1716.3C1046.4 1751.66 1056.04 1817.47 1136.34 1835.14Z" fill="#EE4677"></path></g><path d="M1276.61 895.215C1350.35 924.264 1515.66 1080.88 1511.14 1168.22C1500.71 1204.43 1421.49 1078.74 1342.98 1157.17C1302.9 1197.21 1280.09 1101.86 1177.91 1177.02C1118.73 1220.56 1090.51 1101.81 1023.88 1132.78C988.441 1149.25 961.376 1170.19 922.348 1172.17C897.161 1173.44 875.658 1129.86 841.24 1134.42C820.042 1137.23 782.661 1169.76 763.265 1178.77C719.705 1198.99 696.435 1139.24 648.426 1140.49C600.959 1141.74 568.902 1216.57 525.17 1198.07C497.588 1186.4 494.391 1144.85 467.829 1131.02C416.635 1104.36 332.376 1230.87 312.191 1176.8C291.153 1120.44 418.604 950.291 495.773 892.246L1276.61 895.217V895.215Z" fill="#18422C"></path><path d="M1240.29 807.184C1306.55 833.29 1455.12 974.04 1451.06 1052.54C1441.68 1085.07 1370.49 972.119 1299.93 1042.6C1263.91 1078.59 1243.41 992.893 1151.58 1060.44C1098.4 1099.57 1073.03 992.852 1013.15 1020.68C981.305 1035.49 956.982 1054.3 921.907 1056.08C899.271 1057.22 879.947 1018.06 849.015 1022.16C829.964 1024.68 796.369 1053.92 778.939 1062.01C739.791 1080.18 718.878 1026.48 675.733 1027.61C633.074 1028.73 604.265 1095.98 564.963 1079.36C540.175 1068.87 537.301 1031.53 513.43 1019.1C467.422 995.139 391.698 1108.84 373.558 1060.24C354.652 1009.59 469.191 856.678 538.544 804.512L1240.29 807.182L1240.29 807.184Z" fill="#F8C3D0"></path><path d="M1175.62 762.185C1229.14 783.269 1349.12 896.94 1345.84 960.336C1338.27 986.613 1280.78 895.389 1223.79 952.313C1194.7 981.375 1178.14 912.168 1103.98 966.724C1061.03 998.324 1040.54 912.135 992.184 934.611C966.463 946.566 946.819 961.763 918.492 963.197C900.211 964.122 884.604 932.492 859.623 935.802C844.237 937.841 817.106 961.453 803.028 967.988C771.412 982.665 754.522 939.296 719.677 940.209C685.225 941.112 661.958 995.426 630.217 981.999C610.198 973.531 607.877 943.372 588.598 933.332C551.441 913.982 490.286 1005.81 475.635 966.557C460.366 925.651 552.87 802.158 608.88 760.029L1175.62 762.185H1175.62Z" fill="#59D5FC"></path><path d="M768.236 902.341C923.829 904.089 1083.22 888.715 1236.99 864.889C1295.05 855.894 1357.6 841.642 1394.86 796.225C1430.2 753.151 1433.75 692.906 1433.55 637.192C1433.13 523.839 1422.12 327.495 1403.91 215.614C1393.71 152.942 1380.5 89.9929 1353.08 32.7199C1347.14 20.2949 1339.55 7.2609 1326.73 2.1989C1311.98 -3.6321 1295.33 3.0749 1281.78 11.3279C1211.98 53.8249 1176.43 133.767 1128.38 199.855C1117.63 214.63 1105.34 229.449 1088.36 236.176C1074.39 241.709 1052.66 244.651 1037.65 243.908C901.392 237.157 760.001 248.492 643.393 246.423C623.127 246.063 604.498 235.293 593.98 217.967C562.307 165.791 526.066 112.769 494.292 75.9769C477.076 56.0429 437.008 24.8039 419.086 20.7049C391.861 14.4789 378.003 41.6169 369.552 63.8959C342.973 133.968 329.219 314.621 330.288 465.601C330.874 548.341 335.389 630.663 351.113 711.897C359.172 753.53 370.009 795.837 394.479 830.47C423.918 872.137 553.188 899.924 768.236 902.341Z" fill="#C6F097"></path><path d="M907.205 313.497C913.777 328.976 914.853 353.734 916.516 378.01C918.298 404.03 917.291 430.724 922.403 456.299C924.125 464.915 925.94 473.764 930.718 481.138C941.468 497.725 962.178 507.077 981.576 515.96C999.547 524.189 1024.08 537.163 1024.16 556.929C1024.21 569.626 1013.49 578.886 1000.57 583.046C988.488 586.938 975.692 588.09 963.126 586.274C932.873 581.901 903.832 568.082 873.294 569.414C827.47 571.414 786.819 613.436 749.975 593.765C742.334 589.686 738.864 570.356 752.432 551.181C769.269 527.384 783.313 521.088 816.95 502.311C831.483 494.198 846.888 485.07 854.091 470.065C857.824 462.289 858.822 453.509 859.37 444.902C861.732 407.805 856.926 371.261 853.5 334.247C850.01 296.539 881.934 253.974 907.207 313.498L907.205 313.497Z" fill="#EE4677"></path><path d="M831.604 888.139C944.055 895.521 1066.67 886.665 1167 833.934C1231.15 800.215 1284.02 738.145 1294.04 664.976C1297.74 637.926 1295.04 608.542 1279.24 586.573C1259.02 558.459 1221.71 548.594 1187.68 550.664C1075.45 557.491 993.147 636.417 880.703 635.27C790.593 634.351 730.777 592.813 629.943 584.853C528.267 576.826 515.655 693.088 529.4 737.215C554.448 817.63 622.346 874.403 831.604 888.139Z" fill="#EE4677"></path><path d="M842.229 841.585C939.652 845.586 1032.43 842.755 1118.2 805.762C1173.04 782.106 1221.71 733.582 1235.62 685.689C1241.59 665.124 1244.42 637.194 1230.31 622.667C1212.25 604.076 1171.93 606.746 1145.4 613.048C1050.84 635.504 992.165 668.737 895.125 672.222C815.692 675.075 739.208 662.227 652.831 645.885C579.195 631.954 575.216 716.536 595.117 747.383C624.566 793.029 674.434 834.694 842.229 841.585Z" fill="#18422C"></path><path d="M945.554 685.734C995.435 755.568 1110.71 690.783 1190.37 695.453C1299.21 701.834 1399.73 782.615 1429.39 887.534C1450.37 961.785 1438.06 1040.84 1441.53 1117.92C1442.53 1139.97 1445.36 1163.32 1459.1 1180.59C1470.99 1195.55 1489.37 1203.71 1507.52 1209.7C1551.37 1224.17 1598.75 1229.46 1639.05 1252C1703.85 1288.23 1739.17 1366.91 1732.13 1440.81C1725.08 1514.72 1679.8 1582 1619.07 1624.69C1575.7 1655.17 1524.42 1674.29 1471.69 1679.64C1434.32 1683.43 1395.76 1680.25 1360.92 1666.22C1294.56 1639.5 1248.52 1575.89 1226.21 1507.92C1203.9 1439.95 1202.07 1367.17 1201.37 1295.64C1200.67 1224.1 1200.76 1151.56 1181.97 1082.53C1170.17 1039.19 1149.16 995.686 1111.46 971.253C1057.49 936.266 987.198 949.566 922.949 946.434C894.119 945.028 865.185 936.003 845.442 914.947C827.168 895.456 816.804 868.356 816.526 848.014C815.785 793.732 830.768 742.092 851.554 691.941C851.554 691.941 876.888 693.642 898.997 691.941C922.053 690.167 945.554 685.734 945.554 685.734Z" fill="#81C863"></path><path d="M1180.6 250.243C1196.21 230.035 1211.21 209.359 1225.56 188.244C1239.83 167.258 1253.47 145.841 1266.45 124.033C1273.77 111.724 1280.89 99.2887 1287.79 86.7387L1285.05 85.5827C1277.45 113.573 1272.15 142.175 1269.21 171.028C1268.48 178.247 1267.89 185.481 1267.45 192.725C1267.24 196.266 1267.06 199.809 1266.92 203.354C1266.8 206.214 1266.62 209.095 1266.92 211.95C1267.43 216.948 1269.67 222.36 1275.15 223.477C1280.59 224.586 1285.56 220.694 1288.96 216.889C1291.29 214.277 1293.12 211.32 1295 208.378C1297.23 204.883 1299.46 201.388 1301.69 197.893C1306.25 190.763 1310.8 183.633 1315.35 176.504L1312.56 175.747C1313.3 184.089 1314.05 192.431 1314.79 200.773C1315.15 204.805 1315.43 208.854 1315.88 212.877C1316.19 215.665 1316.93 218.439 1318.26 220.921C1319.39 223.018 1321.14 225.088 1323.53 225.707C1326.54 226.485 1328.75 224.664 1331.2 223.264C1332.43 222.562 1333.5 222.488 1334.31 223.795C1335.22 225.256 1335.63 227.088 1336.18 228.698C1337.56 232.691 1338.94 236.683 1340.32 240.676C1343.41 249.601 1346.49 258.525 1349.58 267.45C1350.21 269.264 1353.11 268.484 1352.47 266.652C1349.77 258.823 1347.06 250.995 1344.35 243.166C1343 239.252 1341.65 235.337 1340.29 231.423C1339.62 229.466 1338.94 227.509 1338.26 225.551C1337.77 224.109 1337.28 222.615 1336.29 221.423C1334.12 218.81 1331.09 219.731 1328.64 221.327C1326.52 222.709 1324.47 223.687 1322.44 221.641C1320.63 219.822 1319.73 217.138 1319.19 214.686C1318.42 211.135 1318.38 207.36 1318.06 203.747C1317.23 194.414 1316.39 185.081 1315.56 175.747C1315.43 174.289 1313.6 173.676 1312.76 174.99C1305.14 186.931 1297.72 199.037 1289.87 210.83C1287.22 214.803 1283.28 219.598 1278.33 220.562C1272.99 221.6 1270.38 216.406 1269.92 211.95C1269.63 209.176 1269.8 206.375 1269.91 203.596C1270.05 200.132 1270.22 196.669 1270.42 193.208C1270.83 186.367 1271.37 179.533 1272.04 172.713C1273.4 158.965 1275.3 145.272 1277.74 131.674C1280.47 116.436 1283.88 101.322 1287.94 86.3807C1288.38 84.7627 1286.03 83.7117 1285.19 85.2247C1272.89 107.597 1259.91 129.599 1246.27 151.186C1232.72 172.641 1218.52 193.687 1203.69 214.285C1195.33 225.911 1186.76 237.393 1178 248.729C1177.51 249.375 1177.91 250.403 1178.54 250.781C1179.31 251.242 1180.1 250.881 1180.59 250.243H1180.6Z" fill="#EE4677"></path><path d="M553.227 249.726C537.619 229.518 522.618 208.842 508.262 187.727C493.993 166.741 480.357 145.324 467.379 123.516C460.054 111.207 452.941 98.7724 446.038 86.2224C445.214 84.7234 442.853 85.7434 443.296 87.3784C450.525 114.017 455.691 141.215 458.666 168.658C459.413 175.552 460.026 182.46 460.501 189.378C460.955 195.989 461.435 202.647 461.473 209.276C461.498 213.589 461.014 219.608 456.231 221.324C451.318 223.086 446.467 218.274 443.634 214.882C441.391 212.197 439.632 209.125 437.754 206.184C435.612 202.829 433.469 199.474 431.327 196.118C427.042 189.408 422.757 182.697 418.472 175.987C417.634 174.675 415.807 175.284 415.677 176.744C414.939 185.003 414.2 193.263 413.462 201.522C413.099 205.586 412.81 209.664 412.369 213.72C412.087 216.311 411.305 218.994 409.912 221.211C408.769 223.029 406.961 224.519 404.737 223.597C402.062 222.488 399.85 219.683 396.669 221.092C393.678 222.417 392.947 226.61 391.994 229.366C390.641 233.28 389.288 237.195 387.935 241.109C384.877 249.955 381.819 258.802 378.761 267.648C378.129 269.477 381.026 270.262 381.654 268.446C384.387 260.539 387.121 252.632 389.854 244.725C391.207 240.811 392.56 236.896 393.913 232.982C394.617 230.947 395.316 228.91 396.024 226.876C396.397 225.803 396.92 223.886 398.277 223.705C399.515 223.539 400.868 224.794 401.832 225.406C403.031 226.166 404.31 226.766 405.742 226.879C408.296 227.081 410.439 225.548 411.903 223.589C415.815 218.355 415.598 211.18 416.151 204.991C416.993 195.575 417.834 186.159 418.676 176.744L415.881 177.501C419.898 183.792 423.915 190.083 427.932 196.374C429.985 199.589 432.038 202.805 434.092 206.02C435.915 208.875 437.645 211.823 439.627 214.571C442.687 218.815 447.002 223.572 452.427 224.511C457.852 225.45 462.205 221.751 463.639 216.724C464.341 214.265 464.495 211.648 464.471 209.103C464.439 205.587 464.23 202.064 464.05 198.553C463.687 191.467 463.181 184.388 462.532 177.323C461.208 162.899 459.296 148.526 456.804 134.256C454.002 118.211 450.453 102.3 446.187 86.5814L443.445 87.7374C455.751 110.109 468.729 132.111 482.367 153.698C495.921 175.153 510.123 196.199 524.946 216.797C533.312 228.423 541.879 239.905 550.635 251.241C551.134 251.887 551.919 252.217 552.687 251.779C553.322 251.418 553.719 250.367 553.225 249.727L553.227 249.726Z" fill="#EE4677"></path><path d="M1255.69 616.417C1172.12 616.41 1086 600.542 1031.56 540.035C990.888 494.825 974.333 433.982 961.45 374.934C955.549 347.887 950.899 317.115 967.663 294.303C976.528 282.239 989.427 272.61 1003.79 267.733C1116.98 229.312 1332.12 224.275 1449.09 253.895C1512 269.827 1529.29 289.056 1521.22 330.615C1507.4 401.708 1493.32 466.062 1463.51 532.661C1450.63 561.444 1410.47 616.43 1255.69 616.417Z" fill="#81C863"></path><path d="M1246.73 472.329C1259.25 461.412 1271.63 450.088 1281.18 436.495C1284.84 431.284 1288.15 425.475 1288.46 419.114C1288.99 408.26 1280.86 399.034 1277.97 388.559C1274.16 374.745 1279.98 359.706 1289.45 348.947C1298.91 338.188 1311.6 330.885 1324.04 323.777C1341.74 313.667 1359.44 303.557 1377.14 293.446C1375.65 293.044 1374.12 292.644 1372.56 292.248C1345.98 285.518 1312.81 281.116 1277.02 279.014C1274.54 281.424 1271.97 283.732 1269.34 285.93C1254.77 298.106 1238.2 307.651 1222.97 318.999C1207.7 330.379 1193.79 343.578 1181.62 358.228C1170.97 371.044 1161.19 387.529 1165.9 403.51C1171.24 421.594 1193.02 431.099 1198.1 449.255C1201.11 459.984 1197.4 471.729 1190.8 480.703C1184.19 489.677 1174.98 496.338 1165.72 502.544C1142.25 518.282 1117.49 532.087 1091.77 543.786C1109.04 553.176 1128.1 559.617 1148.04 563.875C1176.78 529.777 1212.9 501.819 1246.73 472.328L1246.73 472.329Z" fill="#18422C"></path><path d="M1118.37 393.017C1129.84 383.174 1141.2 372.694 1148.43 359.423C1150.71 355.235 1152.6 350.431 1151.52 345.784C1148.28 331.735 1124.57 334.063 1117.73 321.368C1114.5 315.362 1116.36 307.638 1120.48 302.201C1124.6 296.764 1130.59 293.111 1136.42 289.567C1141.24 286.634 1146.05 283.674 1150.86 280.715C1105.09 284.575 1062.25 291.98 1030.11 302.891C1019.06 306.641 1009.14 314.047 1002.32 323.324C989.432 340.867 993.008 364.532 997.546 385.332C1004.27 416.132 1012.29 447.564 1026.52 475.453C1053.27 444.169 1087.11 419.845 1118.37 393.016L1118.37 393.017Z" fill="#18422C"></path><path d="M1361.28 388.245C1355.53 394.979 1349.67 402.843 1350.36 411.667C1350.96 419.284 1356.36 425.711 1357.95 433.183C1360.9 447.034 1350.4 459.901 1340.03 469.539C1303.29 503.668 1258.96 528.264 1216.45 554.87C1208.93 559.578 1201.35 564.475 1194.5 570.112C1204.26 570.753 1214.07 571.041 1223.83 571.042C1342.86 571.052 1373.74 528.766 1383.65 506.63C1406.57 455.413 1417.4 405.922 1428.03 351.249C1430.03 340.951 1429.99 332.443 1427.42 325.221C1403.29 343.884 1381.08 365.035 1361.28 388.244L1361.28 388.245Z" fill="#18422C"></path><path d="M1190.8 480.704C1197.4 471.73 1201.11 459.986 1198.1 449.256C1193.02 431.1 1171.24 421.595 1165.9 403.511C1161.19 387.531 1170.97 371.046 1181.62 358.229C1193.79 343.579 1207.7 330.38 1222.97 319C1238.2 307.652 1254.77 298.106 1269.34 285.931C1271.97 283.733 1274.55 281.424 1277.02 279.015C1236.41 276.63 1192.42 277.211 1150.86 280.716C1146.05 283.675 1141.25 286.635 1136.42 289.568C1130.59 293.112 1124.61 296.765 1120.49 302.202C1116.37 307.639 1114.5 315.363 1117.73 321.369C1124.57 334.064 1148.28 331.736 1151.52 345.785C1152.6 350.432 1150.71 355.236 1148.43 359.424C1141.2 372.695 1129.84 383.175 1118.37 393.018C1087.11 419.847 1053.27 444.171 1026.52 475.455C1033.27 488.683 1041.4 501.118 1051.47 512.303C1063.18 525.327 1076.81 535.659 1091.77 543.79C1117.49 532.091 1142.26 518.285 1165.72 502.548C1174.98 496.342 1184.19 489.681 1190.8 480.707V480.704Z" fill="#F07C9E"></path><path d="M1340.03 469.539C1350.41 459.901 1360.9 447.034 1357.96 433.183C1356.37 425.711 1350.96 419.283 1350.37 411.667C1349.68 402.843 1355.54 394.978 1361.28 388.245C1381.08 365.036 1403.29 343.885 1427.42 325.222C1422.27 310.755 1406.92 301.471 1377.14 293.447C1359.44 303.557 1341.74 313.667 1324.05 323.778C1311.6 330.886 1298.92 338.189 1289.45 348.948C1279.99 359.707 1274.16 374.746 1277.97 388.56C1280.86 399.035 1288.99 408.261 1288.47 419.115C1288.16 425.476 1284.84 431.284 1281.18 436.496C1271.63 450.089 1259.25 461.413 1246.73 472.33C1212.91 501.821 1176.78 529.779 1148.04 563.877C1163.15 567.104 1178.76 569.079 1194.5 570.113C1201.35 564.476 1208.93 559.579 1216.46 554.871C1258.96 528.265 1303.29 503.669 1340.03 469.54L1340.03 469.539Z" fill="#EE4677"></path><path d="M897.63 680.553C886.225 714.627 891.973 754.074 913.195 783.185C934.822 812.854 969.283 829.848 1004.19 838.478C1046.17 848.853 1090.05 849.538 1132.82 854.714C1174.96 859.814 1217.42 867.601 1256.94 883.571C1274.64 890.723 1291.87 899.911 1306.4 912.408C1320.3 924.357 1331.08 939.213 1338.75 955.819C1354.95 990.87 1357.05 1030.52 1355.42 1068.51C1353.56 1111.83 1347.46 1155.12 1352.28 1198.46C1356.49 1236.29 1367.55 1273.3 1385.22 1307.04C1419.35 1372.16 1479.19 1422.93 1550.13 1443.31C1558.71 1445.78 1567.42 1447.76 1576.21 1449.29C1579.99 1449.95 1581.61 1444.17 1577.81 1443.5C1505.48 1430.88 1441.12 1385.97 1402.02 1324.14C1381.63 1291.9 1367.91 1255.67 1361.15 1218.16C1353.64 1176.39 1357.15 1134.5 1360.03 1092.48C1362.67 1053.97 1363.82 1014.72 1353.01 977.247C1348.12 960.29 1340.8 943.865 1330.36 929.575C1319.69 914.961 1306 903.059 1290.6 893.631C1256.53 872.77 1216.08 862.32 1177.12 855.272C1135.4 847.724 1093.17 845.311 1051.12 840.465C1012.33 835.995 972.176 827.339 940.68 802.861C911.717 780.352 895.589 745.292 898.096 708.577C898.712 699.561 900.55 690.712 903.417 682.148C904.645 678.478 898.852 676.904 897.63 680.553Z" fill="#18422C"></path><path d="M1250.35 766.28C1266.57 768.078 1282.66 773.166 1297.25 780.627C1312.18 788.267 1325.78 798.327 1337.65 810.17C1349.93 822.423 1360.15 836.495 1368.31 851.793C1377.08 868.246 1383.37 885.931 1387.54 904.088C1391.74 922.418 1393.75 941.198 1393.9 959.995C1393.92 962.292 1393.91 964.589 1393.88 966.886C1393.82 970.748 1399.82 970.75 1399.88 966.886C1400.17 947.565 1398.55 928.191 1394.77 909.234C1391 890.38 1384.99 871.953 1376.51 854.68C1368.54 838.429 1358.31 823.308 1345.92 810.091C1334.13 797.501 1320.41 786.587 1305.34 778.161C1290.39 769.796 1274 763.811 1257.05 761.17C1254.82 760.823 1252.59 760.529 1250.35 760.281C1248.74 760.102 1247.35 761.788 1247.35 763.281C1247.35 765.051 1248.73 766.102 1250.35 766.281L1250.35 766.28Z" fill="#C6F097"></path><path d="M511.654 629.007C595.23 629 681.349 613.132 735.787 552.625C776.461 507.415 793.015 446.572 805.898 387.524C811.799 360.477 816.45 329.705 799.686 306.893C790.821 294.829 777.922 285.2 763.555 280.323C650.371 241.902 435.226 236.865 318.261 266.485C255.347 282.417 238.054 301.646 246.132 343.205C259.95 414.298 274.027 478.652 303.838 545.251C316.722 574.034 356.883 629.02 511.654 629.007Z" fill="#81C863"></path><path d="M591.147 493.312C603.668 482.395 616.05 471.071 625.598 457.478C629.259 452.267 632.573 446.458 632.882 440.097C633.41 429.243 625.28 420.017 622.388 409.542C618.575 395.728 624.401 380.689 633.867 369.93C643.333 359.171 656.019 351.868 668.462 344.76C687.623 333.815 706.784 322.87 725.945 311.925C698.021 303.724 663.658 297.824 626.963 294.254C622.885 298.8 618.416 303.025 613.762 306.913C599.187 319.089 582.621 328.634 567.393 339.982C552.122 351.362 538.207 364.561 526.037 379.211C515.39 392.027 505.607 408.512 510.323 424.493C515.66 442.577 537.436 452.082 542.521 470.238C545.526 480.967 541.823 492.712 535.218 501.686C528.613 510.66 519.397 517.321 510.143 523.527C486.146 539.619 460.794 553.686 434.449 565.552C449.918 572.325 469.897 577.901 495.764 580.995C523.94 548.633 558.607 521.681 591.146 493.312H591.147Z" fill="#18422C"></path><path d="M462.789 413.998C474.258 404.155 485.621 393.675 492.851 380.404C495.133 376.216 497.016 371.412 495.943 366.765C492.698 352.716 468.99 355.044 462.153 342.349C458.918 336.343 460.784 328.619 464.904 323.182C469.024 317.745 475.012 314.092 480.841 310.548C491.677 303.959 502.461 297.286 513.226 290.582C468.784 291.956 426.958 296.691 394.79 304.837C346.407 317.089 333.108 331.877 339.32 363.838C348.181 409.425 357.186 451.409 373.222 493.795C399.603 463.772 432.414 440.067 462.789 413.997V413.998Z" fill="#18422C"></path><path d="M705.701 409.228C699.956 415.962 694.094 423.826 694.785 432.65C695.381 440.267 700.786 446.693 702.376 454.165C705.324 468.016 694.825 480.884 684.45 490.522C647.711 524.651 603.378 549.247 560.872 575.853C556.877 578.354 552.866 580.91 548.953 583.598C611.502 582.908 675.198 570.112 715.883 524.89C747.163 490.122 759.895 443.332 769.802 397.922C773.442 381.237 776.455 362.712 770.854 346.979C747.105 365.454 725.229 386.336 705.701 409.227V409.228Z" fill="#18422C"></path><path d="M535.22 501.686C541.825 492.712 545.528 480.968 542.523 470.238C537.437 452.082 515.662 442.577 510.325 424.493C505.609 408.513 515.392 392.028 526.039 379.211C538.209 364.561 552.124 351.362 567.395 339.982C582.623 328.634 599.189 319.088 613.764 306.913C618.418 303.025 622.887 298.8 626.965 294.254C590.002 290.659 550.687 289.425 513.227 290.583C502.463 297.288 491.678 303.96 480.842 310.549C475.013 314.093 469.025 317.746 464.905 323.183C460.785 328.62 458.919 336.344 462.154 342.35C468.991 355.045 492.699 352.717 495.944 366.766C497.017 371.413 495.134 376.217 492.852 380.405C485.621 393.676 474.258 404.156 462.79 413.999C432.415 440.069 399.604 463.773 373.223 493.797C376.419 502.245 379.889 510.709 383.699 519.221C389.401 531.959 402.056 551.369 434.451 565.553C460.795 553.688 486.147 539.62 510.145 523.528C519.399 517.322 528.615 510.661 535.22 501.687V501.686Z" fill="#EE4677"></path><path d="M684.45 490.522C694.825 480.884 705.323 468.017 702.376 454.166C700.786 446.694 695.381 440.266 694.785 432.65C694.094 423.826 699.956 415.961 705.701 409.228C725.229 386.337 747.105 365.454 770.854 346.98C769.473 343.099 767.575 339.386 765.024 335.915C758.206 326.637 748.287 319.232 737.238 315.482C733.61 314.251 729.835 313.068 725.946 311.926C706.785 322.871 687.624 333.816 668.463 344.761C656.02 351.869 643.333 359.172 633.868 369.931C624.402 380.69 618.576 395.729 622.389 409.543C625.281 420.018 633.411 429.244 632.883 440.098C632.573 446.459 629.259 452.267 625.599 457.479C616.051 471.072 603.669 482.396 591.148 493.313C558.609 521.683 523.941 548.634 495.766 580.996C509.862 582.682 525.695 583.634 543.518 583.633C545.329 583.633 547.142 583.62 548.955 583.6C552.867 580.912 556.878 578.355 560.874 575.854C603.38 549.248 647.712 524.652 684.452 490.523L684.45 490.522Z" fill="#F07C9E"></path><path d="M805.937 349.367C806.379 348.777 806.826 348.19 807.276 347.606L804.591 351.081C810.325 343.674 816.81 336.876 824.213 331.118L820.738 333.803C827.382 328.674 834.657 324.457 842.381 321.176L838.279 322.907C848.956 318.42 860.346 315.634 871.806 314.088L867.241 314.701C880.049 313.011 893.051 312.964 905.859 314.674L901.294 314.061C911.172 315.411 920.899 317.765 930.101 321.642L925.999 319.911C932.886 322.846 939.425 326.56 945.363 331.128L941.888 328.443C946.411 331.956 950.553 335.945 954.069 340.472L951.384 336.997C953.402 339.624 955.193 342.411 956.681 345.372C957.76 347.373 959.234 348.979 961.103 350.19C962.761 351.708 964.708 352.732 966.942 353.263C969.224 353.979 971.507 354.081 973.789 353.57C976.074 353.466 978.202 352.787 980.173 351.532C983.839 349.168 987.067 345.649 988.064 341.27L988.677 336.705C988.667 333.606 987.886 330.717 986.333 328.039C985.102 325.589 983.667 323.249 982.057 321.029C979.592 317.629 976.988 314.276 974.077 311.239C968.838 305.775 962.678 301.03 956.285 297.001C949.324 292.614 941.681 289.225 933.946 286.469C926.878 283.95 919.523 282.28 912.106 281.184C902.926 279.827 893.75 278.934 884.463 279.08C875.305 279.223 866.149 280.263 857.129 281.821C849.424 283.152 841.787 285.076 834.428 287.728C826.575 290.558 818.832 293.994 811.718 298.385C800.137 305.534 789.83 314.766 781.383 325.422C779.654 327.603 777.953 329.808 776.283 332.034C775.028 334.005 774.349 336.133 774.245 338.418C773.734 340.7 773.836 342.983 774.552 345.265C775.083 347.499 776.108 349.446 777.625 351.104C778.836 352.973 780.442 354.447 782.443 355.526C786.428 357.631 791.255 358.687 795.674 357.257L799.776 355.526C802.356 354 804.409 351.946 805.936 349.366L805.937 349.367Z" fill="#81C863"></path><path d="M1349.93 257.911C1371.26 259.447 1392.46 262.724 1413.49 266.577C1423.33 268.382 1433.15 270.347 1442.93 272.497C1451.33 274.345 1459.85 276.135 1468.06 278.733C1476.93 281.539 1486.03 285.546 1492.53 292.417C1495.24 295.292 1497.41 298.711 1498.59 302.5C1499.99 306.986 1499.52 311.596 1498.03 315.993C1494.79 325.517 1488.08 333.432 1484.15 342.651C1483.17 344.955 1482.01 347.533 1482.03 350.084C1482.05 352.754 1483.65 354.595 1485.82 355.933C1487.66 357.068 1489.45 358.019 1490.93 359.64C1492.2 361.031 1493.16 362.716 1493.79 364.489C1496.58 372.401 1494.09 381.784 1489.67 388.617C1483.94 397.474 1475.44 404.134 1469.4 412.775C1467.9 414.929 1466.57 417.194 1465.48 419.582C1464.68 421.325 1467.26 422.851 1468.07 421.096C1472.65 411.102 1481.27 403.986 1488.13 395.65C1491.23 391.896 1493.88 387.968 1495.63 383.406C1497.19 379.323 1498.06 374.868 1497.89 370.488C1497.74 366.414 1496.67 362.265 1494.22 358.952C1492.92 357.205 1491.33 355.734 1489.48 354.589C1487.51 353.368 1484.86 352.448 1485.04 349.679C1485.2 347.227 1486.48 344.651 1487.5 342.451C1488.63 340.027 1489.92 337.681 1491.25 335.366C1493.81 330.926 1496.57 326.588 1498.78 321.956C1500.82 317.683 1502.42 313.098 1502.46 308.314C1502.5 303.839 1501.05 299.451 1498.75 295.643C1494.01 287.802 1485.88 282.636 1477.64 279.094C1469.12 275.436 1460.08 273.34 1451.09 271.26C1441.58 269.063 1432.03 267.067 1422.45 265.219C1400.94 261.066 1379.23 257.534 1357.4 255.523C1354.91 255.294 1352.42 255.088 1349.93 254.909C1348 254.77 1348.01 257.771 1349.93 257.909L1349.93 257.911Z" fill="#C6F097"></path><path d="M1441.08 522.034C1429.44 547.188 1403.27 560.432 1378.03 568.224C1369.93 570.727 1361.7 572.824 1353.48 574.917C1351.61 575.393 1352.4 578.287 1354.28 577.81C1381.88 570.784 1411.29 562.98 1431.44 541.457C1436.4 536.156 1440.62 530.147 1443.67 523.548C1444.47 521.807 1441.89 520.282 1441.08 522.034Z" fill="#C6F097"></path><path d="M336.807 288.854C322.221 291.87 307.636 294.886 293.05 297.903C286.803 299.195 280.273 300.199 274.557 303.19C269.312 305.935 265.482 310.516 263.208 315.934C257.918 328.536 261.654 342.255 264.953 354.848C268.659 368.995 272.53 383.099 276.565 397.156C281.099 412.95 285.841 428.684 290.784 444.355C291.363 446.19 294.26 445.406 293.677 443.557C285.076 416.289 277.088 388.829 269.734 361.199C267.941 354.465 265.993 347.728 264.676 340.88C263.449 334.502 262.938 327.839 264.52 321.476C265.831 316.202 268.521 311.107 272.907 307.762C277.725 304.087 283.891 302.855 289.692 301.653C305.662 298.345 321.634 295.048 337.605 291.745C339.494 291.354 338.695 288.462 336.807 288.852V288.854Z" fill="#C6F097"></path><path d="M329.623 496.076C328.187 508.58 328.783 521.283 331.347 533.606C332.61 539.675 334.352 545.645 336.574 551.432C338.585 556.668 340.989 561.807 344.266 566.379C350.555 575.154 360.797 582.115 372.039 580.777C377.639 580.111 382.364 576.999 387.677 575.391C390.322 574.59 393.04 574.329 395.692 575.252C398.344 576.175 400.638 578.024 402.836 579.734C414.912 589.131 426.986 598.531 439.06 607.929C440.566 609.101 442.704 606.993 441.181 605.808C430.55 597.533 419.919 589.259 409.288 580.984C406.844 579.082 404.44 577.108 401.922 575.303C399.697 573.709 397.229 572.315 394.498 571.853C388.994 570.922 383.969 573.575 379.056 575.642C376.563 576.691 373.973 577.626 371.259 577.859C368.641 578.083 366.028 577.806 363.497 577.116C358.287 575.696 353.692 572.642 350.022 568.723C342.145 560.311 338.083 548.494 335.322 537.523C331.919 524.001 331.031 509.923 332.622 496.075C332.842 494.16 329.84 494.176 329.622 496.075L329.623 496.076Z" fill="#C6F097"></path></svg>