<svg xmlns="http://www.w3.org/2000/svg" width="1077" height="489" viewBox="0 0 1077 489" fill="none"><path d="M174.427 288.127H166V488.82H174.427V288.127Z" fill="#D4DF44"></path><path d="M170.213 276.072C170.213 228.536 131.677 190 84.1406 190V279.255H170.213V276.072Z" fill="#F8C3D0"></path><path d="M170.213 368.509V279.254H84.1406V282.437C84.1406 329.973 122.677 368.509 170.213 368.509Z" fill="#FF49BD"></path><path d="M169.871 276.072C169.871 228.536 208.407 190 255.943 190V279.255H169.871V276.072Z" fill="#FF49BD"></path><path d="M169.871 368.509V279.254H255.943V282.437C255.943 329.973 217.407 368.509 169.871 368.509Z" fill="#F8C3D0"></path><path d="M0 388.635C0 443.966 44.855 488.821 100.186 488.821H171.801L0 388.635Z" fill="#009828"></path><path d="M71.615 388.635H0L171.801 488.821C171.801 433.49 126.946 388.635 71.615 388.635Z" fill="#D4DF44"></path><path d="M342.016 388.635C342.016 443.966 297.161 488.821 241.83 488.821H170.215L342.016 388.635Z" fill="#009828"></path><path d="M270.401 388.635H342.016L170.215 488.821C170.215 433.49 215.07 388.635 270.401 388.635Z" fill="#D4DF44"></path><path d="M541.552 98.127H533.125V488.82H541.552V98.127Z" fill="#D4DF44"></path><path d="M537.338 86.072C537.338 38.536 498.802 0 451.266 0V89.2549H537.338V86.072Z" fill="#FF2477"></path><path d="M537.338 178.509V89.2539H451.266V92.437C451.266 139.973 489.802 178.509 537.338 178.509Z" fill="#FF49BD"></path><path d="M536.996 86.072C536.996 38.536 575.532 0 623.068 0V89.2549H536.996V86.072Z" fill="#FF49BD"></path><path d="M536.996 178.509V89.2539H623.068V92.437C623.068 139.973 584.532 178.509 536.996 178.509Z" fill="#FF2477"></path><path d="M367.125 388.635C367.125 443.966 411.98 488.821 467.311 488.821H538.926L367.125 388.635Z" fill="#009828"></path><path d="M438.74 388.635H367.125L538.926 488.821C538.926 433.49 494.071 388.635 438.74 388.635Z" fill="#D4DF44"></path><path d="M709.141 388.635C709.141 443.966 664.286 488.821 608.955 488.821H537.34L709.141 388.635Z" fill="#009828"></path><path d="M637.526 388.635H709.141L537.34 488.821C537.34 433.49 582.195 388.635 637.526 388.635Z" fill="#D4DF44"></path><path d="M367.125 221.033C367.125 276.364 411.98 321.219 467.311 321.219H538.926L367.125 221.033Z" fill="#009828"></path><path d="M438.74 221.033H367.125L538.926 321.219C538.926 265.888 494.071 221.033 438.74 221.033Z" fill="#D4DF44"></path><path d="M709.141 221.033C709.141 276.364 664.286 321.219 608.955 321.219H537.34L709.141 221.033Z" fill="#009828"></path><path d="M637.526 221.033H709.141L537.34 321.219C537.34 265.888 582.195 221.033 637.526 221.033Z" fill="#D4DF44"></path><path d="M908.677 288.127H900.25V488.82H908.677V288.127Z" fill="#D4DF44"></path><path d="M904.463 276.072C904.463 228.536 865.927 190 818.391 190V279.255H904.463V276.072Z" fill="#F8C3D0"></path><path d="M904.463 368.509V279.254H818.391V282.437C818.391 329.973 856.927 368.509 904.463 368.509Z" fill="#FF49BD"></path><path d="M904.121 276.072C904.121 228.536 942.657 190 990.193 190V279.255H904.121V276.072Z" fill="#FF49BD"></path><path d="M904.121 368.509V279.254H990.193V282.437C990.193 329.973 951.657 368.509 904.121 368.509Z" fill="#F8C3D0"></path><path d="M734.25 388.635C734.25 443.966 779.105 488.821 834.436 488.821H906.051L734.25 388.635Z" fill="#009828"></path><path d="M805.865 388.635H734.25L906.051 488.821C906.051 433.49 861.196 388.635 805.865 388.635Z" fill="#D4DF44"></path><path d="M1076.27 388.635C1076.27 443.966 1031.41 488.821 976.08 488.821H904.465L1076.27 388.635Z" fill="#009828"></path><path d="M1004.65 388.635H1076.27L904.465 488.821C904.465 433.49 949.32 388.635 1004.65 388.635Z" fill="#D4DF44"></path></svg>