<svg xmlns="http://www.w3.org/2000/svg" width="2000" height="2451" viewBox="0 0 2000 2451" fill="none"><path d="M425.785 124.387C415.689 110.375 399.899 100.739 381.794 98.904C383.072 93.185 383.768 87.246 383.768 81.141C383.768 36.328 347.44 0 302.628 0C265.73 0 234.605 24.638 224.755 58.354C215.292 52.156 203.986 48.54 191.829 48.54C158.591 48.54 131.645 75.485 131.645 108.724C131.645 113.919 132.303 118.96 133.541 123.769C132.911 123.745 132.281 123.721 131.645 123.721C129.002 123.721 126.428 123.988 123.897 124.387C100.292 128.113 82.2227 148.49 82.2227 173.142C82.2227 200.437 104.35 222.564 131.645 222.564C132.588 222.564 133.522 222.532 134.452 222.48L134.432 222.564H375.469C409.705 222.564 437.459 194.81 437.459 160.574C437.459 147.063 433.124 134.571 425.786 124.386L425.785 124.387Z" fill="#F9CD6B"></path><path d="M1718.91 189.11C1708.81 175.098 1693.02 165.462 1674.91 163.627C1676.19 157.908 1676.89 151.969 1676.89 145.864C1676.89 101.051 1640.56 64.7227 1595.75 64.7227C1558.85 64.7227 1527.73 89.3607 1517.88 123.077C1508.41 116.879 1497.11 113.263 1484.95 113.263C1451.71 113.263 1424.77 140.208 1424.77 173.447C1424.77 178.642 1425.42 183.683 1426.66 188.492C1426.03 188.468 1425.4 188.444 1424.77 188.444C1422.12 188.444 1419.55 188.711 1417.02 189.11C1393.41 192.836 1375.34 213.213 1375.34 237.865C1375.34 265.16 1397.47 287.287 1424.77 287.287C1425.71 287.287 1426.64 287.255 1427.57 287.203L1427.55 287.287H1668.59C1702.83 287.287 1730.58 259.533 1730.58 225.297C1730.58 211.786 1726.24 199.294 1718.91 189.109L1718.91 189.11Z" fill="#F9CD6B"></path><path d="M850.009 1590.81H0V2407.71H850.009V1590.81Z" fill="#F07C9E"></path><path d="M0 1590.81H75.761L0 1541.54V1590.81Z" fill="#18422C"></path><path d="M0 1533.19L88.602 1590.81H239.897L0 1434.81V1533.19Z" fill="#18422C"></path><path d="M0 1319.73L416.874 1590.81H568.169L0 1221.34V1319.73Z" fill="#18422C"></path><path d="M0 1426.46L252.738 1590.81H404.032L0 1328.08V1426.46Z" fill="#18422C"></path><path d="M850.009 1590.81L0 1032.96V1106.26L745.145 1590.81H850.009Z" fill="#18422C"></path><path d="M0 1114.61V1212.99L581.01 1590.81H732.304L0 1114.61Z" fill="#18422C"></path><path d="M745.145 1590.81L0 1106.26V1114.61L732.304 1590.81H745.145Z" fill="#C6F097"></path><path d="M0 1221.34L568.169 1590.81H581.01L0 1212.99V1221.34Z" fill="#C6F097"></path><path d="M0 1328.08L404.032 1590.81H416.874L0 1319.73V1328.08Z" fill="#C6F097"></path><path d="M0 1434.81L239.897 1590.81H252.738L0 1426.46V1434.81Z" fill="#C6F097"></path><path d="M0 1541.54L75.761 1590.81H88.602L0 1533.19V1541.54Z" fill="#C6F097"></path><mask id="mask0_358_7515" style="mask-type:luminance" maskUnits="userSpaceOnUse" x="0" y="1590" width="851" height="818"><path d="M850.009 1590.81H0V2407.71H850.009V1590.81Z" fill="white"></path></mask><g mask="url(#mask0_358_7515)"><path d="M56.9994 2280.93H-69.8126C-79.43 2280.93 -87.2266 2288.72 -87.2266 2298.34V2346.34C-87.2266 2355.96 -79.43 2363.75 -69.8126 2363.75H56.9994C66.6169 2363.75 74.4134 2355.96 74.4134 2346.34V2298.34C74.4134 2288.72 66.6169 2280.93 56.9994 2280.93Z" fill="#EE4677"></path><path d="M780.339 1623.43H653.527C643.91 1623.43 636.113 1631.22 636.113 1640.84V1688.84C636.113 1698.46 643.91 1706.25 653.527 1706.25H780.339C789.957 1706.25 797.753 1698.46 797.753 1688.84V1640.84C797.753 1631.22 789.957 1623.43 780.339 1623.43Z" fill="#EE4677"></path><path d="M56.9994 1957.85H-69.8126C-79.43 1957.85 -87.2266 1965.64 -87.2266 1975.26V2023.26C-87.2266 2032.88 -79.43 2040.67 -69.8126 2040.67H56.9994C66.6169 2040.67 74.4134 2032.88 74.4134 2023.26V1975.26C74.4134 1965.64 66.6169 1957.85 56.9994 1957.85Z" fill="#EE4677"></path><path d="M786.613 1951.03H659.801C650.183 1951.03 642.387 1958.82 642.387 1968.44V2016.44C642.387 2026.05 650.183 2033.85 659.801 2033.85H786.613C796.23 2033.85 804.027 2026.05 804.027 2016.44V1968.44C804.027 1958.82 796.23 1951.03 786.613 1951.03Z" fill="#EE4677"></path><path d="M782.718 2249.44H655.906C646.289 2249.44 638.492 2257.23 638.492 2266.85V2314.85C638.492 2324.47 646.289 2332.26 655.906 2332.26H782.718C792.336 2332.26 800.132 2324.47 800.132 2314.85V2266.85C800.132 2257.23 792.336 2249.44 782.718 2249.44Z" fill="#EE4677"></path><path d="M906.113 2087.7H779.301C769.683 2087.7 761.887 2095.5 761.887 2105.12V2153.11C761.887 2162.73 769.683 2170.53 779.301 2170.53H906.113C915.73 2170.53 923.527 2162.73 923.527 2153.11V2105.12C923.527 2095.5 915.73 2087.7 906.113 2087.7Z" fill="#EE4677"></path><path d="M182.171 1732.32H55.3593C45.7418 1732.32 37.9453 1740.11 37.9453 1749.73V1797.73C37.9453 1807.35 45.7418 1815.14 55.3593 1815.14H182.171C191.789 1815.14 199.585 1807.35 199.585 1797.73V1749.73C199.585 1740.11 191.789 1732.32 182.171 1732.32Z" fill="#EE4677"></path><path d="M302.941 1582.01H176.129C166.511 1582.01 158.715 1589.81 158.715 1599.43V1647.43C158.715 1657.04 166.511 1664.84 176.129 1664.84H302.941C312.558 1664.84 320.355 1657.04 320.355 1647.43V1599.43C320.355 1589.81 312.558 1582.01 302.941 1582.01Z" fill="#EE4677"></path><path d="M545.734 1683.7H418.922C409.304 1683.7 401.508 1691.49 401.508 1701.11V1749.11C401.508 1758.72 409.304 1766.52 418.922 1766.52H545.734C555.351 1766.52 563.148 1758.72 563.148 1749.11V1701.11C563.148 1691.49 555.351 1683.7 545.734 1683.7Z" fill="#EE4677"></path><path d="M899.55 1773.73H772.738C763.121 1773.73 755.324 1781.53 755.324 1791.15V1839.14C755.324 1848.76 763.121 1856.56 772.738 1856.56H899.55C909.168 1856.56 916.964 1848.76 916.964 1839.14V1791.15C916.964 1781.53 909.168 1773.73 899.55 1773.73Z" fill="#EE4677"></path><path d="M268.562 1957.85H141.75C132.132 1957.85 124.336 1965.64 124.336 1975.26V2023.26C124.336 2032.88 132.132 2040.67 141.75 2040.67H268.562C278.179 2040.67 285.976 2032.88 285.976 2023.26V1975.26C285.976 1965.64 278.179 1957.85 268.562 1957.85Z" fill="#EE4677"></path><path d="M205.671 2129.12H78.8593C69.2418 2129.12 61.4453 2136.91 61.4453 2146.53V2194.53C61.4453 2204.15 69.2418 2211.94 78.8593 2211.94H205.671C215.289 2211.94 223.085 2204.15 223.085 2194.53V2146.53C223.085 2136.91 215.289 2129.12 205.671 2129.12Z" fill="#EE4677"></path></g><path d="M447.711 1736.82C584.653 1736.82 695.832 1848 695.832 1984.95V2407.71H199.59V1984.95C199.59 1848 310.769 1736.82 447.711 1736.82Z" fill="#C6F097"></path><mask id="mask1_358_7515" style="mask-type:luminance" maskUnits="userSpaceOnUse" x="199" y="1736" width="497" height="672"><path d="M447.711 1736.82C584.653 1736.82 695.832 1848 695.832 1984.95V2407.71H199.59V1984.95C199.59 1848 310.769 1736.82 447.711 1736.82Z" fill="white"></path></mask><g mask="url(#mask1_358_7515)"><path d="M330.613 1736.82C467.555 1736.82 578.734 1848 578.734 1984.95V2407.71H82.4922V1984.95C82.4922 1848 193.671 1736.82 330.613 1736.82Z" fill="#18422C"></path><mask id="mask2_358_7515" style="mask-type:luminance" maskUnits="userSpaceOnUse" x="82" y="1736" width="497" height="672"><path d="M330.613 1736.82C467.555 1736.82 578.734 1848 578.734 1984.95V2407.71H82.4922V1984.95C82.4922 1848 193.671 1736.82 330.613 1736.82Z" fill="white"></path></mask><g mask="url(#mask2_358_7515)"><path d="M361.062 1868.15V1906.47L695.836 2036.09V1997.76L361.062 1868.15Z" fill="#C6F097"></path><path d="M361.062 2056.56V2094.89L695.836 2224.5V2186.18L361.062 2056.56Z" fill="#C6F097"></path><path d="M361.062 2239.46V2277.78L695.836 2407.4V2369.07L361.062 2239.46Z" fill="#C6F097"></path><path d="M390.426 1840.83V1964.39C424.545 1964.39 452.204 1936.73 452.204 1902.61C452.204 1868.49 424.545 1840.83 390.426 1840.83Z" fill="#F8C3D0"></path><path d="M328.648 1902.61C328.648 1936.73 356.307 1964.39 390.426 1964.39V1840.83C356.307 1840.83 328.648 1868.49 328.648 1902.61Z" fill="#EE4677"></path><path d="M390.426 2030.72V2154.27C424.545 2154.27 452.204 2126.61 452.204 2092.49C452.204 2058.37 424.545 2030.72 390.426 2030.72Z" fill="#EE4677"></path><path d="M328.648 2092.49C328.648 2126.61 356.307 2154.27 390.426 2154.27V2030.71C356.307 2030.71 328.648 2058.37 328.648 2092.49Z" fill="#F8C3D0"></path><path d="M390.426 2215.08V2338.64C424.545 2338.64 452.204 2310.98 452.204 2276.86C452.204 2242.74 424.545 2215.08 390.426 2215.08Z" fill="#F8C3D0"></path><path d="M328.648 2276.86C328.648 2310.98 356.307 2338.64 390.426 2338.64V2215.08C356.307 2215.08 328.648 2242.74 328.648 2276.86Z" fill="#EE4677"></path></g></g><path d="M1062.85 2204.11H1054.42V2404.8H1062.85V2204.11Z" fill="#C6F097"></path><path d="M1058.63 2192.06C1058.63 2144.52 1020.1 2105.98 972.562 2105.98V2195.24H1058.63V2192.06Z" fill="#F8C3D0"></path><path d="M1058.63 2284.49V2195.24H972.562V2198.42C972.562 2245.96 1011.1 2284.49 1058.63 2284.49Z" fill="#F07C9E"></path><path d="M1058.29 2192.06C1058.29 2144.52 1096.83 2105.98 1144.36 2105.98V2195.24H1058.29V2192.06Z" fill="#F07C9E"></path><path d="M1058.29 2284.49V2195.24H1144.36V2198.42C1144.36 2245.96 1105.83 2284.49 1058.29 2284.49Z" fill="#F8C3D0"></path><path d="M888.422 2304.62C888.422 2359.95 933.277 2404.81 988.608 2404.81H1060.22L888.422 2304.62Z" fill="#009828"></path><path d="M960.037 2304.62H888.422L1060.22 2404.81C1060.22 2349.47 1015.37 2304.62 960.037 2304.62Z" fill="#C6F097"></path><path d="M1230.44 2304.62C1230.44 2359.95 1185.58 2404.81 1130.25 2404.81H1058.64L1230.44 2304.62Z" fill="#009828"></path><path d="M1158.82 2304.62H1230.44L1058.64 2404.81C1058.64 2349.47 1103.49 2304.62 1158.82 2304.62Z" fill="#C6F097"></path><path d="M1429.97 2014.11H1421.55V2404.8H1429.97V2014.11Z" fill="#C6F097"></path><path d="M1425.76 2002.06C1425.76 1954.52 1387.22 1915.98 1339.69 1915.98V2005.24H1425.76V2002.06Z" fill="#EE4677"></path><path d="M1425.76 2094.49V2005.24H1339.69V2008.42C1339.69 2055.96 1378.22 2094.49 1425.76 2094.49Z" fill="#F07C9E"></path><path d="M1425.42 2002.06C1425.42 1954.52 1463.95 1915.98 1511.49 1915.98V2005.24H1425.42V2002.06Z" fill="#F07C9E"></path><path d="M1425.42 2094.49V2005.24H1511.49V2008.42C1511.49 2055.96 1472.95 2094.49 1425.42 2094.49Z" fill="#EE4677"></path><path d="M1255.55 2304.62C1255.55 2359.95 1300.4 2404.81 1355.73 2404.81H1427.35L1255.55 2304.62Z" fill="#009828"></path><path d="M1327.16 2304.62H1255.55L1427.35 2404.81C1427.35 2349.47 1382.49 2304.62 1327.16 2304.62Z" fill="#C6F097"></path><path d="M1597.56 2304.62C1597.56 2359.95 1552.71 2404.81 1497.38 2404.81H1425.76L1597.56 2304.62Z" fill="#009828"></path><path d="M1525.95 2304.62H1597.56L1425.76 2404.81C1425.76 2349.47 1470.62 2304.62 1525.95 2304.62Z" fill="#C6F097"></path><path d="M1255.55 2137.02C1255.55 2192.35 1300.4 2237.2 1355.73 2237.2H1427.35L1255.55 2137.02Z" fill="#009828"></path><path d="M1327.16 2137.02H1255.55L1427.35 2237.2C1427.35 2181.87 1382.49 2137.02 1327.16 2137.02Z" fill="#C6F097"></path><path d="M1597.56 2137.02C1597.56 2192.35 1552.71 2237.2 1497.38 2237.2H1425.76L1597.56 2137.02Z" fill="#009828"></path><path d="M1525.95 2137.02H1597.56L1425.76 2237.2C1425.76 2181.87 1470.62 2137.02 1525.95 2137.02Z" fill="#C6F097"></path><path d="M1797.1 2204.11H1788.67V2404.8H1797.1V2204.11Z" fill="#C6F097"></path><path d="M1792.88 2192.06C1792.88 2144.52 1754.35 2105.98 1706.81 2105.98V2195.24H1792.88V2192.06Z" fill="#F8C3D0"></path><path d="M1792.88 2284.49V2195.24H1706.81V2198.42C1706.81 2245.96 1745.35 2284.49 1792.88 2284.49Z" fill="#F07C9E"></path><path d="M1792.54 2192.06C1792.54 2144.52 1831.08 2105.98 1878.61 2105.98V2195.24H1792.54V2192.06Z" fill="#F07C9E"></path><path d="M1792.54 2284.49V2195.24H1878.61V2198.42C1878.61 2245.96 1840.08 2284.49 1792.54 2284.49Z" fill="#F8C3D0"></path><path d="M1622.67 2304.62C1622.67 2359.95 1667.53 2404.81 1722.86 2404.81H1794.47L1622.67 2304.62Z" fill="#009828"></path><path d="M1694.29 2304.62H1622.67L1794.47 2404.81C1794.47 2349.47 1749.62 2304.62 1694.29 2304.62Z" fill="#C6F097"></path><path d="M1964.69 2304.62C1964.69 2359.95 1919.83 2404.81 1864.5 2404.81H1792.89L1964.69 2304.62Z" fill="#009828"></path><path d="M1893.07 2304.62H1964.69L1792.89 2404.81C1792.89 2349.47 1837.74 2304.62 1893.07 2304.62Z" fill="#C6F097"></path><path d="M606.67 448.574H0V858.578H606.67V448.574Z" fill="#97D254"></path><path d="M930.971 399.707H1027.55V161.584H930.971V399.707Z" fill="#EE4677"></path><path d="M925.908 161.584H1032.6C1036.34 161.584 1039.36 158.558 1039.36 154.825V139.454C1039.36 135.721 1036.34 132.695 1032.6 132.695H925.908C922.175 132.695 919.149 135.721 919.149 139.454V154.825C919.149 158.558 922.175 161.584 925.908 161.584Z" fill="#EE4677"></path><path d="M606.672 858.579H1065.5V448.575L836.085 109.754L606.672 448.575V858.579Z" fill="#C6F097"></path><path d="M0 448.575L229.413 109.754H836.083L606.67 448.575H0Z" fill="#EE4677"></path><path d="M912.546 345.141C910.273 381.69 881.042 410.922 844.492 413.196V345.141H912.546Z" fill="#18422C"></path><path d="M844.492 267.914C881.041 270.188 910.272 299.419 912.546 335.968H844.492V267.914Z" fill="#009828"></path><path d="M835.321 413.196C798.771 410.922 769.539 381.69 767.266 345.141H835.321V413.196Z" fill="#009828"></path><path d="M767.266 335.97C769.54 299.42 798.772 270.19 835.321 267.916V335.97H767.266Z" fill="#18422C"></path><path d="M1065.5 446.074H606.672V451.074H1065.5V446.074Z" fill="#18422C"></path><path d="M502.391 582.873H427.453V657.809H502.391V582.873Z" fill="#F8C3D0"></path><path d="M420.988 582.873H346.051V657.809H420.988V582.873Z" fill="#EE4677"></path><path d="M502.391 664.275H427.453V739.213H502.391V664.275Z" fill="#EE4677"></path><path d="M420.988 664.275H346.051V739.213H420.988V664.275Z" fill="#F8C3D0"></path><path d="M243.18 582.873H168.242V657.809H243.18V582.873Z" fill="#F8C3D0"></path><path d="M161.777 582.873H86.8398V657.809H161.777V582.873Z" fill="#EE4677"></path><path d="M243.18 664.275H168.242V739.213H243.18V664.275Z" fill="#EE4677"></path><path d="M161.777 664.275H86.8398V739.213H161.777V664.275Z" fill="#F8C3D0"></path><mask id="mask3_358_7515" style="mask-type:luminance" maskUnits="userSpaceOnUse" x="0" y="109" width="837" height="340"><path d="M0 448.575L229.413 109.754H836.083L606.67 448.575H0Z" fill="white"></path></mask><g mask="url(#mask3_358_7515)"><path d="M-136.715 130.42L881.004 130.42V104.454L-136.715 104.454V130.42Z" fill="#F8C3D0"></path><path d="M-136.715 179.768L881.004 179.768V153.802L-136.715 153.802V179.768Z" fill="#F8C3D0"></path><path d="M-136.715 234.732L881.004 234.732V208.766L-136.715 208.766V234.732Z" fill="#F8C3D0"></path><path d="M-136.715 289.697L881.004 289.697V263.731L-136.715 263.731V289.697Z" fill="#F8C3D0"></path><path d="M-136.715 339.045L881.004 339.045V313.079L-136.715 313.079V339.045Z" fill="#F8C3D0"></path><path d="M-136.715 394.01L881.004 394.01V368.044L-136.715 368.044V394.01Z" fill="#F8C3D0"></path><path d="M-136.715 448.975L881.004 448.975V423.009L-136.715 423.009V448.975Z" fill="#F8C3D0"></path></g><path d="M930.971 187.115H1027.55V161.585H930.971V187.115Z" fill="#18422C"></path><path d="M836.086 541.391C881.135 541.391 917.655 577.911 917.655 622.96V858.58H835.324V541.41C835.579 541.408 835.83 541.391 836.086 541.391Z" fill="#F8C3D0"></path><path d="M754.516 622.96C754.516 578.166 790.627 541.821 835.323 541.41V858.58H754.516V622.96Z" fill="#F07C9E"></path><path d="M1116.04 858.578H0V910.305H1116.04V858.578Z" fill="#18422C"></path><path d="M1704.43 421.569C1759.56 421.569 1804.24 376.882 1804.24 321.758C1804.24 266.634 1759.56 221.947 1704.43 221.947C1649.31 221.947 1604.62 266.634 1604.62 321.758C1604.62 376.882 1649.31 421.569 1704.43 421.569Z" fill="#EE4677"></path><path d="M1704.43 628.379C1780.75 628.379 1842.61 566.515 1842.61 490.2C1842.61 413.886 1780.75 352.021 1704.43 352.021C1628.12 352.021 1566.25 413.886 1566.25 490.2C1566.25 566.515 1628.12 628.379 1704.43 628.379Z" fill="#EE4677"></path><path d="M1810.76 460.231L1807.36 456.564L1706.93 549.68V378.235L1775.04 293.929L1771.15 290.787L1706.93 370.279V240.775H1701.93V311.842L1656.32 264.978L1652.74 268.466L1701.93 319.01V503.11L1621.78 423.068L1618.24 426.606L1701.93 510.176V588.094L1589.19 479.831L1585.73 483.437L1701.93 595.026V877.669H1706.93V556.5L1810.76 460.231Z" fill="#18422C"></path><path d="M1478.65 744.774C1478.65 818.17 1538.15 877.669 1611.54 877.669H1706.54L1478.65 744.773V744.774Z" fill="#18422C"></path><path d="M1573.65 744.773H1478.65L1706.54 877.669C1706.54 804.273 1647.04 744.773 1573.65 744.773Z" fill="#009828"></path><path d="M1932.33 744.774C1932.33 818.17 1872.83 877.669 1799.43 877.669H1704.43L1932.33 744.773V744.774Z" fill="#18422C"></path><path d="M1837.33 744.773H1932.33L1704.43 877.669C1704.43 804.273 1763.93 744.773 1837.33 744.773Z" fill="#009828"></path><path d="M1353.47 499.129C1399.22 499.129 1436.31 462.042 1436.31 416.292C1436.31 370.542 1399.22 333.455 1353.47 333.455C1307.72 333.455 1270.63 370.542 1270.63 416.292C1270.63 462.042 1307.72 499.129 1353.47 499.129Z" fill="#EE4677"></path><path d="M1353.47 670.772C1416.81 670.772 1468.15 619.428 1468.15 556.091C1468.15 492.755 1416.81 441.41 1353.47 441.41C1290.13 441.41 1238.79 492.755 1238.79 556.091C1238.79 619.428 1290.13 670.772 1353.47 670.772Z" fill="#EE4677"></path><path d="M1441.66 531.164L1438.95 528.23L1355.47 605.628V463.14L1412.01 393.15L1408.9 390.637L1355.47 456.775V349.082H1351.47V408.248L1313.48 369.222L1310.62 372.012L1351.47 413.982V566.987L1284.81 500.428L1281.99 503.258L1351.47 572.639V637.514L1257.77 547.54L1255 550.425L1351.47 643.059V877.67H1355.47V611.084L1441.66 531.164Z" fill="#18422C"></path><path d="M1166.08 767.373C1166.08 828.288 1215.46 877.669 1276.38 877.669H1355.22L1166.08 767.373Z" fill="#18422C"></path><path d="M1244.92 767.373H1166.08L1355.22 877.669C1355.22 816.754 1305.84 767.373 1244.92 767.373Z" fill="#009828"></path><path d="M1542.61 767.373C1542.61 828.288 1493.23 877.669 1432.31 877.669H1353.47L1542.61 767.373Z" fill="#18422C"></path><path d="M1463.77 767.373H1542.61L1353.47 877.669C1353.47 816.754 1402.85 767.373 1463.77 767.373Z" fill="#009828"></path><path d="M2000 1071.09H1091V1727.75H2000V1071.09Z" fill="#C6F097"></path><path d="M1669.27 1268.61C1737.59 1268.61 1793.05 1324.07 1793.05 1392.39V1727.75H1545.5V1392.39C1545.5 1324.07 1600.96 1268.61 1669.27 1268.61Z" fill="#18422C"></path><path d="M1265.59 1176.62C1293.84 1176.62 1316.78 1199.56 1316.78 1227.81V1371.53H1214.4V1227.81C1214.4 1199.56 1237.34 1176.62 1265.59 1176.62H1265.59Z" fill="#18422C"></path><path d="M1412.37 1334.58C1440.62 1334.58 1463.56 1357.52 1463.56 1385.77V1529.49H1361.18V1385.77C1361.18 1357.52 1384.12 1334.58 1412.37 1334.58H1412.37Z" fill="#18422C"></path><path d="M1793.05 1642.34V1472H1683.62V1557.17H1574.51V1642.34H1465.39V1727.75H1574.51H1683.62H1683.94H1793.05H1793.36V1642.34H1793.05Z" fill="#F8C3D0"></path><path d="M1683.94 1629.48H1574.51V1642.34H1683.94V1629.48Z" fill="#18422C"></path><path d="M1771.13 1545.37H1683.62V1557.17H1771.13V1545.37Z" fill="#18422C"></path><path d="M1218.7 945.057H1858.52L1793.44 887.084H1277.44L1218.7 945.057Z" fill="#F07C9E"></path><path d="M1346.31 819.11H1717.14L1652.06 761.137H1405.05L1346.31 819.11Z" fill="#F07C9E"></path><path d="M1154.89 1008.03H1929.21L1864.13 950.057H1213.63L1154.89 1008.03Z" fill="#F07C9E"></path><path d="M1091 1071.09H2000L1934.83 1013.03H1149.82L1091 1071.09Z" fill="#F07C9E"></path><path d="M1282.5 882.083H1787.83L1722.75 824.109H1341.24L1282.5 882.083Z" fill="#F07C9E"></path><path d="M1468.85 698.162L1410.11 756.136H1646.44L1581.36 698.162H1468.85Z" fill="#F07C9E"></path><path d="M1522.23 645.484L1473.92 693.162H1575.75L1522.23 645.484Z" fill="#F07C9E"></path><path d="M1575.75 693.162H1473.92L1468.86 698.162H1581.37L1575.75 693.162Z" fill="#C6F097"></path><path d="M1405.05 761.137H1652.05L1646.44 756.137H1410.11L1405.05 761.137Z" fill="#C6F097"></path><path d="M1341.24 824.109H1722.75L1717.14 819.109H1346.31L1341.24 824.109Z" fill="#C6F097"></path><path d="M1277.43 887.084H1793.44L1787.83 882.084H1282.5L1277.43 887.084Z" fill="#C6F097"></path><path d="M1213.63 950.057H1864.14L1858.52 945.057H1218.7L1213.63 950.057Z" fill="#C6F097"></path><path d="M1149.82 1013.03H1934.83L1929.21 1008.03H1154.89L1149.82 1013.03Z" fill="#C6F097"></path><path d="M2000 1719.78H883.957V1771.5H2000V1719.78Z" fill="#18422C"></path><path d="M897.219 1297.77H909.317C973.216 1297.77 1025.09 1349.65 1025.09 1413.55H1012.99C949.096 1413.55 897.219 1361.67 897.219 1297.77Z" fill="#009828"></path><path d="M953.41 1026.09L968.269 1028.4C1046.75 1040.63 1100.54 1114.27 1088.31 1192.75L1073.45 1190.43C994.976 1178.21 941.185 1104.57 953.41 1026.09Z" fill="#009828"></path><path d="M1095.5 968.838L1105.92 981.054C1160.95 1045.58 1153.24 1142.64 1088.72 1197.67L1078.3 1185.45C1023.27 1120.93 1030.98 1023.87 1095.5 968.838Z" fill="#009828"></path><path d="M1229.84 1184.91V1198.19C1229.84 1268.33 1172.89 1325.28 1102.75 1325.28V1312C1102.75 1241.85 1159.69 1184.91 1229.84 1184.91Z" fill="#009828"></path><path d="M1155.45 1268.91L1147.87 1262.39L1096.25 1322.37V1192.77V1190.84V1038.81H1086.25V1179.77L1017.26 1103.38L1009.84 1110.08L1086.25 1194.69V1458.33L959.334 1351.83L952.906 1359.49L1086.25 1471.38V1611.21H1096.25V1337.7L1155.45 1268.91Z" fill="#18422C"></path><path d="M1028.74 1578.86H1232.06C1232.06 1656.63 1169.01 1719.67 1091.25 1719.67C1013.48 1719.67 950.438 1656.63 950.438 1578.86H1028.74Z" fill="#EE4677"></path><path d="M0 2404.71L0 2450.28H2000V2404.71H0Z" fill="#18422C"></path></svg>