<svg xmlns="http://www.w3.org/2000/svg" width="439" height="1160" viewBox="0 0 439 1160" fill="none"><path d="M135.345 761.506L16.2676 702.707L191.298 926.62C221.442 865.574 196.391 791.65 135.345 761.506Z" fill="#F07C9E"></path><path d="M72.2218 867.821L191.299 926.62L16.2688 702.707C-13.8752 763.753 11.1748 837.677 72.2218 867.821Z" fill="#EE4677"></path><path d="M306.421 731.938L425.498 673.139L250.468 897.052C220.324 836.006 245.375 762.081 306.421 731.937V731.938Z" fill="#F07C9E"></path><path d="M369.544 838.255L250.467 897.054L425.497 673.141C455.641 734.187 430.591 808.111 369.544 838.255Z" fill="#EE4677"></path><path d="M135.345 571.572L16.2676 512.773L191.298 736.686C221.442 675.64 196.391 601.716 135.345 571.572Z" fill="#F07C9E"></path><path d="M72.2218 677.887L191.299 736.687L16.2688 512.773C-13.8752 573.819 11.1748 647.743 72.2218 677.887Z" fill="#EE4677"></path><path d="M306.421 542.004L425.498 483.205L250.468 707.118C220.324 646.072 245.375 572.148 306.421 542.004Z" fill="#F07C9E"></path><path d="M369.544 648.319L250.467 707.118L425.497 483.205C455.641 544.251 430.591 618.175 369.544 648.319Z" fill="#EE4677"></path><path d="M135.345 381.639L16.2676 322.84L191.298 546.753C221.442 485.707 196.391 411.782 135.345 381.638V381.639Z" fill="#F07C9E"></path><path d="M72.2218 487.954L191.299 546.753L16.2688 322.84C-13.8752 383.886 11.1748 457.81 72.2218 487.954Z" fill="#EE4677"></path><path d="M306.421 352.068L425.498 293.27L250.468 517.182C220.324 456.136 245.375 382.212 306.421 352.068Z" fill="#F07C9E"></path><path d="M369.544 458.384L250.467 517.182L425.497 293.27C455.641 354.316 430.591 428.24 369.544 458.384Z" fill="#EE4677"></path><path d="M0 940.412C0 1061.44 98.109 1159.55 219.134 1159.55V940.412H0Z" fill="#18422C"></path><path d="M438.267 940.412H219.133V1159.55C340.157 1159.55 438.267 1061.44 438.267 940.412Z" fill="#9ACD43"></path><path d="M378.661 159.527C378.661 134.643 358.488 114.471 333.604 114.471C331.141 114.471 328.742 114.722 326.386 115.102C328.321 113.705 330.195 112.186 331.937 110.445C349.533 92.8491 349.533 64.321 331.937 46.725C314.341 29.129 285.812 29.129 268.216 46.725C266.475 48.467 264.955 50.341 263.559 52.275C263.939 49.92 264.19 47.52 264.19 45.057C264.19 20.173 244.017 0 219.133 0C194.249 0 174.076 20.173 174.076 45.057C174.076 47.52 174.327 49.919 174.707 52.275C173.31 50.34 171.791 48.467 170.05 46.725C152.454 29.129 123.926 29.129 106.33 46.725C88.7344 64.321 88.7344 92.8491 106.33 110.445C108.071 112.186 109.945 113.706 111.88 115.102C109.524 114.722 107.125 114.471 104.662 114.471C79.7785 114.471 59.6055 134.644 59.6055 159.527C59.6055 184.41 79.7785 204.584 104.662 204.584C107.125 204.584 109.524 204.333 111.879 203.953C109.945 205.35 108.071 206.869 106.329 208.61C88.7335 226.206 88.7335 254.734 106.329 272.33C123.925 289.926 152.453 289.926 170.049 272.33C171.79 270.589 173.309 268.715 174.706 266.781C174.326 269.136 174.075 271.535 174.075 273.998C174.075 298.882 194.248 319.054 219.132 319.054C244.016 319.054 264.189 298.881 264.189 273.998C264.189 271.535 263.938 269.136 263.558 266.78C264.955 268.715 266.474 270.588 268.215 272.33C285.811 289.926 314.339 289.926 331.935 272.33C349.531 254.734 349.531 226.206 331.935 208.61C330.194 206.869 328.32 205.35 326.385 203.953C328.741 204.333 331.14 204.584 333.602 204.584C358.486 204.584 378.659 184.411 378.659 159.527H378.661Z" fill="#9ACD43"></path><path d="M221.762 222.867C253.147 221.491 278.171 195.62 278.171 163.896C278.171 162.425 278.099 160.971 277.993 159.527H221.763L221.762 222.867Z" fill="#EE4677"></path><path d="M221.762 104.926V159.528H277.992C275.817 129.83 251.691 106.239 221.762 104.926Z" fill="#EE4677"></path><path d="M160.274 159.527C160.168 160.971 160.096 162.425 160.096 163.896C160.096 196.502 186.528 222.934 219.134 222.934C220.016 222.934 220.891 222.906 221.763 222.868V159.528H160.274V159.527Z" fill="#EE4677"></path><path d="M160.273 159.526H221.762V104.924C220.89 104.886 220.014 104.857 219.133 104.857C187.999 104.857 162.512 128.962 160.273 159.526Z" fill="#EE4677"></path></svg>