<svg xmlns="http://www.w3.org/2000/svg" width="2000" height="2500" viewBox="0 0 2000 2500" fill="none"><path d="M706.673 1114.33C316.388 1114.33 0 1430.72 0 1821V2500H696.73C900.152 2500 1065.06 2335.09 1065.06 2131.67V1426.75L714.319 1114.33H706.672L706.673 1114.33Z" fill="#5BAFE2"></path><path d="M714.32 1114.33L1065.06 1426.75V1114.33H714.32Z" fill="#F8C3D0"></path><path d="M365.218 1548.67C365.218 1548.67 371.769 1424.75 467.348 1367.4C562.927 1310.06 687.962 1355.03 687.962 1355.03C687.962 1355.03 701.759 1479.35 585.082 1549.36C470.87 1617.88 365.218 1548.67 365.218 1548.67Z" fill="#E3ECFF"></path><path d="M576.859 1538.23C617.807 1511.15 630.538 1456.37 605.034 1413.86C603.851 1411.89 602.587 1410 601.284 1408.15L525.938 1453.35L576.859 1538.23Z" fill="#F8C3D0"></path><path d="M482.04 1380.19L525.936 1453.35L601.282 1408.15C574.493 1370.1 523.199 1357.89 482.04 1380.19Z" fill="#FFE000"></path><path d="M443.545 1502.79C444.564 1504.81 445.636 1506.81 446.819 1508.78C473.032 1552.47 529.7 1566.64 573.39 1540.43C574.572 1539.72 575.722 1538.98 576.86 1538.23L525.938 1453.35L443.545 1502.79Z" fill="#EA1C24"></path><path d="M443.545 1502.79L525.938 1453.35L482.042 1380.19C480.842 1380.84 479.647 1381.51 478.465 1382.21C436.746 1407.24 421.973 1460.03 443.545 1502.79Z" fill="#F8C3D0"></path><path d="M556.287 1439.9C545.494 1424.57 524.829 1419.65 508.247 1428.63C507.764 1428.9 507.282 1429.16 506.806 1429.45C489.999 1439.53 484.047 1460.8 492.738 1478.03C493.149 1478.84 493.58 1479.65 494.057 1480.44C504.618 1498.04 527.447 1503.75 545.049 1493.19C545.525 1492.9 545.988 1492.61 546.447 1492.3C562.944 1481.4 568.073 1459.32 557.798 1442.2C557.321 1441.4 556.812 1440.64 556.287 1439.9Z" fill="black"></path><path d="M474.442 2330.15L129.508 2395.86L147.4 2045.18C151.408 1966.63 208.598 1901 285.864 1886.27L630.798 1820.56L612.906 2171.24C608.898 2249.79 551.708 2315.43 474.442 2330.15Z" fill="#FFE000"></path><path d="M385.006 2252.22L228.73 2281.99L236.836 2123.11C240.844 2044.56 298.034 1978.92 375.3 1964.2L531.576 1934.43L523.47 2093.31C519.462 2171.86 462.272 2237.5 385.006 2252.22Z" fill="#F8C3D0"></path><path d="M310.92 2187.67C314.928 2109.11 372.118 2043.48 449.384 2028.76C445.376 2107.31 388.186 2172.94 310.92 2187.67Z" fill="#EA1C24"></path><path d="M2000 279.197V632.807H1441.6V279.197C1441.6 125.104 1566.71 0 1720.8 0C1874.9 0 2000 125.104 2000 279.197Z" fill="#5BAFE2"></path><path d="M1656.25 50.1953C1820.35 50.1953 1953.38 183.222 1953.38 347.318V632.806H1660.43C1574.9 632.806 1505.57 563.471 1505.57 477.941V181.555L1653.04 50.1963H1656.25L1656.25 50.1953Z" fill="#EA1C24"></path><path d="M1653.04 50.1953L1505.57 181.555V50.1953H1653.04Z" fill="#F8C3D0"></path><path d="M1799.82 232.817C1799.82 232.817 1797.07 180.714 1756.88 156.603C1716.69 132.492 1664.12 151.401 1664.12 151.401C1664.12 151.401 1658.32 203.673 1707.38 233.106C1755.4 261.917 1799.82 232.817 1799.82 232.817Z" fill="#E3ECFF"></path><path d="M1710.83 228.426C1693.62 217.042 1688.26 194.008 1698.99 176.135C1699.48 175.306 1700.02 174.511 1700.56 173.734L1732.24 192.741L1710.83 228.426Z" fill="#F8C3D0"></path><path d="M1750.7 161.98L1732.24 192.742L1700.56 173.735C1711.83 157.739 1733.4 152.603 1750.7 161.98Z" fill="#FFE000"></path><path d="M1766.89 213.526C1766.46 214.375 1766.01 215.219 1765.51 216.048C1754.49 234.418 1730.66 240.375 1712.29 229.353C1711.79 229.055 1711.31 228.743 1710.83 228.427L1732.24 192.742L1766.89 213.526Z" fill="#5BAFE2"></path><path d="M1766.89 213.526L1732.24 192.742L1750.7 161.98C1751.2 162.253 1751.71 162.533 1752.2 162.831C1769.75 173.355 1775.96 195.551 1766.89 213.526Z" fill="#819300"></path><path d="M1719.48 187.084C1724.02 180.64 1732.71 178.57 1739.68 182.348C1739.89 182.458 1740.09 182.571 1740.29 182.691C1747.36 186.931 1749.86 195.873 1746.2 203.115C1746.03 203.457 1745.85 203.797 1745.65 204.131C1741.21 211.532 1731.61 213.932 1724.21 209.491C1724.01 209.371 1723.81 209.245 1723.62 209.118C1716.68 204.532 1714.53 195.252 1718.85 188.051C1719.05 187.717 1719.26 187.397 1719.48 187.084Z" fill="black"></path><path d="M1759.5 563.58L1905.91 582.559L1889.66 435.819C1886.02 402.949 1860.38 376.828 1827.58 372.577L1681.17 353.598L1697.42 500.338C1701.06 533.208 1726.71 559.329 1759.5 563.58Z" fill="#F8C3D0"></path><path d="M1795.1 528.64L1861.43 537.239L1854.06 470.757C1850.42 437.887 1824.78 411.766 1791.99 407.515L1725.65 398.916L1733.02 465.398C1736.66 498.268 1762.3 524.389 1795.1 528.64Z" fill="#819300"></path><path d="M1824.58 499.699C1820.94 466.829 1795.3 440.708 1762.5 436.457C1766.14 469.327 1791.78 495.448 1824.58 499.699Z" fill="#FFE000"></path><path d="M2000 631.477H1389.46V725.202H2000V631.477Z" fill="#F8C3D0"></path><path d="M482.79 0C216.152 0 0 216.152 0 482.79V946.674H475.997C614.972 946.674 727.634 834.012 727.634 695.037V213.443L488.014 0H482.79Z" fill="#F8C3D0"></path><path d="M488.014 0L727.634 213.443V0H488.014Z" fill="#F8C3D0"></path><path d="M249.512 296.737C249.512 296.737 253.987 212.076 319.286 172.898C384.585 133.721 470.007 164.446 470.007 164.446C470.007 164.446 479.433 249.381 399.721 297.206C321.693 344.021 249.512 296.736 249.512 296.736V296.737Z" fill="#E3ECFF"></path><path d="M394.103 289.603C422.078 271.105 430.776 233.678 413.352 204.636C412.544 203.289 411.679 201.998 410.789 200.734L359.312 231.618L394.102 289.602L394.103 289.603Z" fill="#5BAFE2"></path><path d="M329.324 181.634L359.314 231.619L410.79 200.735C392.488 174.743 357.444 166.398 329.325 181.634H329.324Z" fill="#FFE000"></path><path d="M303.023 265.391C303.719 266.771 304.452 268.142 305.26 269.488C323.168 299.337 361.883 309.016 391.731 291.108C392.538 290.624 393.324 290.117 394.102 289.603L359.313 231.619L303.023 265.391Z" fill="#EA1C24"></path><path d="M303.024 265.39L359.314 231.618L329.324 181.633C328.504 182.077 327.688 182.532 326.88 183.016C298.378 200.116 288.286 236.182 303.024 265.39Z" fill="#819300"></path><path d="M380.048 222.426C372.675 211.955 358.556 208.592 347.228 214.731C346.898 214.91 346.569 215.093 346.244 215.288C334.761 222.177 330.695 236.707 336.633 248.474C336.914 249.03 337.209 249.582 337.534 250.125C344.749 262.15 360.346 266.05 372.371 258.835C372.696 258.64 373.013 258.436 373.326 258.229C384.596 250.777 388.101 235.698 381.081 223.998C380.755 223.455 380.407 222.935 380.049 222.426H380.048Z" fill="black"></path><path d="M310.408 835.758L71.6973 859.543L105.155 621.995C112.65 568.784 155.55 527.592 209.022 522.264L447.733 498.479L414.275 736.027C406.78 789.238 363.88 830.43 310.408 835.758Z" fill="#EA1C24"></path><path d="M254.277 777.3L146.127 788.076L161.286 680.452C168.781 627.241 211.681 586.049 265.153 580.721L373.303 569.945L358.144 677.569C350.649 730.78 307.749 771.972 254.277 777.3Z" fill="#5BAFE2"></path><path d="M207.781 728.876C215.276 675.665 258.176 634.473 311.648 629.145C304.153 682.356 261.253 723.548 207.781 728.876Z" fill="#FFE000"></path><path d="M2000 1856.51L1495.07 1661.02V1609.2L2000 1804.69V1856.51Z" fill="#636B00"></path><path d="M2000 2078.52L1495.07 1883.03V1831.21L2000 2026.7V2078.52Z" fill="#636B00"></path><path d="M2000 2290.53L1495.07 2095.04V2043.22L2000 2238.71V2290.53Z" fill="#636B00"></path><path d="M1534.78 1572.26V1739.33C1580.91 1739.33 1618.31 1701.93 1618.31 1655.79C1618.31 1609.66 1580.91 1572.26 1534.78 1572.26Z" fill="#EA1C24"></path><path d="M1451.24 1655.79C1451.24 1701.93 1488.64 1739.33 1534.78 1739.33V1572.26C1488.64 1572.26 1451.24 1609.66 1451.24 1655.79Z" fill="#F8C3D0"></path><path d="M1534.78 1796.26V1963.33C1580.91 1963.33 1618.31 1925.93 1618.31 1879.79C1618.31 1833.66 1580.91 1796.26 1534.78 1796.26Z" fill="#EA1C24"></path><path d="M1451.24 1879.79C1451.24 1925.93 1488.64 1963.33 1534.78 1963.33V1796.26C1488.64 1796.26 1451.24 1833.66 1451.24 1879.79Z" fill="#F8C3D0"></path><path d="M1534.78 2010.25V2177.32C1580.91 2177.32 1618.31 2139.92 1618.31 2093.79C1618.31 2047.65 1580.91 2010.25 1534.78 2010.25Z" fill="#EA1C24"></path><path d="M1451.24 2093.79C1451.24 2139.92 1488.64 2177.32 1534.78 2177.32V2010.25C1488.64 2010.25 1451.24 2047.65 1451.24 2093.79Z" fill="#F8C3D0"></path><path d="M2000 2500L1495.07 2304.51V2252.69L2000 2448.18V2500Z" fill="#636B00"></path><path d="M1534.78 2219.72V2386.79C1580.91 2386.79 1618.31 2349.39 1618.31 2303.26C1618.31 2257.12 1580.91 2219.72 1534.78 2219.72Z" fill="#EA1C24"></path><path d="M1451.24 2303.26C1451.24 2349.39 1488.64 2386.79 1534.78 2386.79V2219.72C1488.64 2219.72 1451.24 2257.12 1451.24 2303.26Z" fill="#F8C3D0"></path><path d="M1757.12 1710.81C1757.15 1710.77 1757.18 1710.73 1757.2 1710.68C1757.21 1710.67 1757.21 1710.66 1757.22 1710.64C1757.24 1710.6 1757.26 1710.55 1757.28 1710.5C1757.28 1710.49 1757.29 1710.48 1757.29 1710.47C1757.86 1709.68 1758.2 1708.72 1758.22 1707.68L1761.8 1527.1C1761.85 1524.33 1759.66 1522.05 1756.9 1522C1756.86 1522 1756.83 1522 1756.8 1522C1754.08 1522 1751.85 1524.17 1751.8 1526.9L1748.4 1698.33L1675.88 1639.04C1673.74 1637.29 1670.59 1637.61 1668.85 1639.75C1667.1 1641.89 1667.41 1645.04 1669.55 1646.79L1723.39 1690.8L1659.99 1664.58C1657.44 1663.52 1654.52 1664.74 1653.46 1667.29C1652.41 1669.84 1653.62 1672.76 1656.17 1673.82L1718.22 1699.48L1646.6 1691.51C1643.84 1691.2 1641.38 1693.18 1641.07 1695.92C1640.77 1698.67 1642.74 1701.14 1645.49 1701.44L1752.22 1713.33C1752.39 1713.35 1752.57 1713.36 1752.74 1713.36C1752.75 1713.36 1752.76 1713.36 1752.77 1713.36C1752.8 1713.36 1752.82 1713.36 1752.85 1713.36C1753.04 1713.35 1753.23 1713.34 1753.41 1713.31C1753.48 1713.31 1753.55 1713.29 1753.61 1713.28C1753.66 1713.27 1753.71 1713.27 1753.76 1713.26C1753.87 1713.24 1753.98 1713.21 1754.09 1713.18C1754.15 1713.16 1754.21 1713.14 1754.27 1713.13C1754.35 1713.1 1754.43 1713.07 1754.51 1713.05C1754.56 1713.03 1754.61 1713.01 1754.66 1712.98C1754.94 1712.87 1755.21 1712.74 1755.46 1712.57C1755.51 1712.54 1755.56 1712.5 1755.61 1712.47C1755.74 1712.38 1755.87 1712.28 1755.99 1712.18C1756.05 1712.13 1756.11 1712.08 1756.16 1712.03C1756.28 1711.92 1756.4 1711.8 1756.51 1711.67C1756.55 1711.63 1756.59 1711.58 1756.63 1711.54C1756.63 1711.53 1756.64 1711.53 1756.64 1711.52C1756.65 1711.51 1756.66 1711.5 1756.67 1711.49C1756.72 1711.42 1756.77 1711.35 1756.82 1711.28C1756.93 1711.13 1757.03 1710.97 1757.12 1710.81V1710.81Z" fill="#F8C3D0"></path><path d="M1900.78 1763.68C1900.8 1763.64 1900.84 1763.6 1900.86 1763.56C1900.87 1763.54 1900.87 1763.52 1900.88 1763.51C1900.9 1763.47 1900.91 1763.42 1900.93 1763.38C1900.94 1763.36 1900.95 1763.35 1900.95 1763.34C1901.52 1762.54 1901.86 1761.58 1901.88 1760.53L1905.46 1528.42C1905.5 1525.66 1903.29 1523.38 1900.53 1523.34C1900.51 1523.34 1900.48 1523.34 1900.45 1523.34C1897.73 1523.34 1895.5 1525.53 1895.46 1528.26L1892.02 1751.17L1819.54 1691.92C1817.4 1690.17 1814.25 1690.48 1812.5 1692.62C1810.75 1694.76 1811.07 1697.91 1813.21 1699.66L1867.05 1743.67L1803.65 1717.45C1801.1 1716.4 1798.18 1717.61 1797.12 1720.16C1796.07 1722.71 1797.28 1725.64 1799.83 1726.69L1861.88 1752.36L1790.25 1744.38C1787.49 1744.08 1785.03 1746.05 1784.73 1748.8C1784.42 1751.54 1786.4 1754.01 1789.14 1754.32L1895.88 1766.21C1896.05 1766.22 1896.22 1766.23 1896.39 1766.23C1896.41 1766.23 1896.42 1766.24 1896.43 1766.24C1896.44 1766.24 1896.46 1766.23 1896.48 1766.23C1896.68 1766.23 1896.88 1766.21 1897.07 1766.19C1897.14 1766.18 1897.2 1766.17 1897.27 1766.16C1897.32 1766.15 1897.37 1766.14 1897.41 1766.13C1897.53 1766.11 1897.64 1766.08 1897.75 1766.05C1897.81 1766.03 1897.87 1766.02 1897.92 1766C1898 1765.98 1898.08 1765.95 1898.16 1765.92C1898.21 1765.9 1898.26 1765.88 1898.31 1765.86C1898.59 1765.75 1898.86 1765.61 1899.12 1765.44C1899.17 1765.41 1899.21 1765.38 1899.26 1765.35C1899.4 1765.25 1899.53 1765.15 1899.66 1765.05C1899.71 1765 1899.76 1764.96 1899.81 1764.91C1899.94 1764.79 1900.06 1764.67 1900.17 1764.54C1900.21 1764.5 1900.25 1764.46 1900.28 1764.42C1900.29 1764.41 1900.29 1764.41 1900.3 1764.4C1900.31 1764.39 1900.32 1764.37 1900.33 1764.36C1900.38 1764.3 1900.42 1764.22 1900.47 1764.15C1900.58 1764 1900.68 1763.85 1900.78 1763.68L1900.78 1763.68Z" fill="#F8C3D0"></path><path d="M1564.3 691.404C1804.93 691.404 2000 886.474 2000 1127.11V1545.74H1570.43C1445.01 1545.74 1343.34 1444.07 1343.34 1318.65V884.029L1559.58 691.404H1564.3H1564.3Z" fill="#819300"></path><path d="M1559.58 691.404L1343.34 884.029V691.404H1559.58Z" fill="#F8C3D0"></path><path d="M1774.82 959.199C1774.82 959.199 1770.78 882.795 1711.85 847.439C1652.92 812.083 1575.83 839.811 1575.83 839.811C1575.83 839.811 1567.33 916.462 1639.27 959.622C1709.68 1001.87 1774.82 959.198 1774.82 959.198V959.199Z" fill="#E3ECFF"></path><path d="M1644.34 952.759C1619.09 936.065 1611.24 902.289 1626.96 876.08C1627.69 874.864 1628.47 873.699 1629.28 872.559L1675.73 900.431L1644.34 952.76V952.759Z" fill="#F8C3D0"></path><path d="M1702.8 855.321L1675.73 900.43L1629.28 872.558C1645.79 849.101 1677.42 841.571 1702.8 855.321Z" fill="#FFE000"></path><path d="M1726.53 930.908C1725.9 932.154 1725.24 933.39 1724.51 934.606C1708.35 961.543 1673.41 970.279 1646.47 954.117C1645.75 953.68 1645.04 953.223 1644.34 952.759L1675.73 900.43L1726.53 930.908Z" fill="#EA1C24"></path><path d="M1726.53 930.909L1675.73 900.431L1702.79 855.322C1703.53 855.723 1704.27 856.133 1705 856.57C1730.72 872.002 1739.83 904.55 1726.53 930.91V930.909Z" fill="#F8C3D0"></path><path d="M1657.02 892.136C1663.67 882.686 1676.42 879.652 1686.64 885.191C1686.94 885.352 1687.23 885.518 1687.53 885.694C1697.89 891.911 1701.56 905.024 1696.2 915.643C1695.95 916.145 1695.68 916.643 1695.39 917.133C1688.88 927.985 1674.8 931.505 1663.95 924.993C1663.66 924.817 1663.37 924.633 1663.09 924.446C1652.92 917.721 1649.75 904.113 1656.09 893.554C1656.38 893.064 1656.7 892.595 1657.02 892.135V892.136Z" fill="black"></path><path d="M1715.7 1444.23L1930.4 1472.06L1906.56 1256.88C1901.22 1208.68 1863.62 1170.38 1815.53 1164.14L1600.83 1136.31L1624.67 1351.49C1630.01 1399.69 1667.61 1437.99 1715.7 1444.23Z" fill="#5BAFE2"></path><path d="M1767.9 1392.99L1865.17 1405.6L1854.37 1308.11C1849.03 1259.91 1811.43 1221.61 1763.34 1215.38L1666.06 1202.77L1676.86 1300.26C1682.2 1348.46 1719.8 1386.76 1767.9 1392.99Z" fill="#F8C3D0"></path><path d="M1811.13 1350.55C1805.79 1302.35 1768.19 1264.05 1720.1 1257.82C1725.44 1306.02 1763.04 1344.32 1811.13 1350.55Z" fill="#FFE000"></path><path d="M1088.26 424.402C1146.89 459.667 1165.82 535.778 1130.56 594.401L1020.49 528.188L1084.34 422.041L1088.26 424.402H1088.26Z" fill="#EA1C24"></path><path d="M974.266 355.826L1084.34 422.039L1020.49 528.186L1016.56 525.825C957.937 490.56 939.001 414.449 974.265 355.826H974.266Z" fill="#F8C3D0"></path><path d="M1212.09 228.869C1153.47 264.134 1134.53 340.245 1169.8 398.868L1279.87 332.655L1216.02 226.508L1212.09 228.869Z" fill="#F8C3D0"></path><path d="M1326.09 160.293L1216.02 226.506L1279.87 332.653L1283.8 330.292C1342.42 295.027 1361.36 218.916 1326.09 160.293Z" fill="#EA1C24"></path><path d="M1157.99 1028.84H1112.76V2500H1157.99V1028.84Z" fill="#636B00"></path><path d="M1135.81 879.626C1135.81 791.231 1064.15 719.572 975.754 719.572V885.545H1135.81V879.626Z" fill="#EA1C24"></path><path d="M1135.81 1051.52V885.547H975.754V891.466C975.754 979.861 1047.41 1051.52 1135.81 1051.52Z" fill="#F8C3D0"></path><path d="M1135.94 879.626C1135.94 791.231 1207.6 719.572 1295.99 719.572V885.545H1135.94V879.626Z" fill="#F8C3D0"></path><path d="M1135.94 1051.52V885.547H1295.99V891.466C1295.99 979.861 1224.33 1051.52 1135.94 1051.52Z" fill="#EA1C24"></path><path d="M1148.04 1895.63L1114.72 1865.37L1283.29 1679.74C1306.46 1654.23 1319.58 1621.2 1320.25 1586.74L1323.94 1396.92L1368.93 1397.8L1365.24 1587.62C1364.36 1632.96 1347.09 1676.42 1316.6 1709.99L1148.04 1895.63V1895.63Z" fill="#636B00"></path><path d="M1345.02 1275.06C1345.02 1186.67 1273.36 1115.01 1184.97 1115.01V1280.98H1345.02V1275.06Z" fill="#EA1C24"></path><path d="M1345.02 1446.96V1280.98H1184.97V1286.9C1184.97 1375.3 1256.63 1446.96 1345.02 1446.96Z" fill="#F8C3D0"></path><path d="M1345.15 1275.06C1345.15 1186.67 1416.81 1115.01 1505.21 1115.01V1280.98H1345.15V1275.06Z" fill="#F8C3D0"></path><path d="M1345.15 1446.96V1280.98H1505.21V1286.9C1505.21 1375.3 1433.55 1446.96 1345.15 1446.96Z" fill="#EA1C24"></path></svg>