<svg width="618" height="190" viewBox="0 0 618 190" fill="none" xmlns="http://www.w3.org/2000/svg">
<path d="M598.15 59.5C608.95 59.5 617.15 67.3 617.15 79.7C617.15 92.5 608.35 100.3 599.35 100.3C591.35 100.3 586.55 97.1 582.95 91.5C579.35 95.5 578.15 99.7 578.15 104.3V145.1H543.75V61.5H578.15V72.9C583.35 63.7 590.75 59.5 598.15 59.5Z" fill="#101E2A"/>
<path d="M503.584 118.1C504.984 118.3 506.384 118.5 507.784 118.5C514.584 118.5 521.984 115.9 527.784 112.1V142.7C521.984 145.3 513.184 146.9 505.384 146.9C479.384 146.9 455.984 132.1 455.984 102.3C455.984 80.1 474.784 59.5 498.784 59.5C517.384 59.5 528.984 66.1 538.784 82.3L503.584 118.1ZM496.784 86.7C489.384 86.7 485.184 93.3 485.184 98.7C485.184 101.3 485.784 103.7 486.784 105.9L503.184 89.1C501.384 87.3 499.184 86.7 496.784 86.7Z" fill="#101E2A"/>
<path d="M446.175 117.3C448.375 117.3 449.975 116.7 451.775 115.5V140.7C447.975 144.1 441.575 147.1 434.775 147.1C425.175 147.1 418.175 142.1 412.575 133.7C406.175 124.1 400.175 118.3 393.775 116.7V145.1H359.375V3.09961H393.775V88.8996C402.775 88.8996 408.975 73.2996 408.975 61.4996H442.975C442.975 78.8996 437.175 99.2996 417.375 101.9C424.175 102.7 429.375 105.7 433.975 110.5C438.575 115.3 441.775 117.3 446.175 117.3Z" fill="#101E2A"/>
<path d="M317.256 118.1C318.656 118.3 320.056 118.5 321.456 118.5C328.256 118.5 335.656 115.9 341.456 112.1V142.7C335.656 145.3 326.856 146.9 319.056 146.9C293.056 146.9 269.656 132.1 269.656 102.3C269.656 80.1 288.456 59.5 312.456 59.5C331.056 59.5 342.656 66.1 352.456 82.3L317.256 118.1ZM310.456 86.7C303.056 86.7 298.856 93.3 298.856 98.7C298.856 101.3 299.456 103.7 300.456 105.9L316.856 89.1C315.056 87.3 312.856 86.7 310.456 86.7Z" fill="#101E2A"/>
<path d="M217.948 59.5C242.148 59.5 261.748 79.3 261.748 103.5C261.748 127.3 242.148 147.1 217.948 147.1C193.748 147.1 174.148 127.3 174.148 103.5C174.148 79.3 193.748 59.5 217.948 59.5ZM217.948 118.3C225.548 118.3 231.948 113.1 233.148 106.1C231.948 106.3 230.748 106.5 229.548 106.5C219.948 106.5 211.748 99.1 211.148 89.7C206.348 92.3 203.748 97.7 203.748 103.5C203.748 111.7 209.348 118.3 217.948 118.3Z" fill="#101E2A"/>
<path d="M154.009 59.5C164.809 59.5 173.009 67.3 173.009 79.7C173.009 92.5 164.209 100.3 155.209 100.3C147.209 100.3 142.409 97.1 138.809 91.5C135.209 95.5 134.009 99.7 134.009 104.3V145.1H99.6094V61.5H134.009V72.9C139.209 63.7 146.609 59.5 154.009 59.5Z" fill="#101E2A"/>
<path d="M86.8 117.3C89 117.3 90.6 116.7 92.4 115.5V140.7C88.6 144.1 82.2 147.1 75.4 147.1C65.8 147.1 58.8 142.1 53.2 133.7C46.8 124.1 40.8 118.3 34.4 116.7V145.1H0V3.09961H34.4V88.8996C43.4 88.8996 49.6 73.2996 49.6 61.4996H83.6C83.6 78.8996 77.8 99.2996 58 101.9C64.8 102.7 70 105.7 74.6 110.5C79.2 115.3 82.4 117.3 86.8 117.3Z" fill="#101E2A"/>
<path d="M268.148 188.86V167.516H282.484V170.332H271.348V176.572H282.26V179.388H271.348V186.044H282.484V188.86H268.148Z" fill="#101E2A"/>
<path d="M244.109 188.86L235.629 167.516H239.277L246.093 185.372L252.941 167.516H256.589L248.109 188.86H244.109Z" fill="#101E2A"/>
<path d="M220.867 188.86V167.516H224.067V188.86H220.867Z" fill="#101E2A"/>
<path d="M198.739 188.86V170.332H192.115V167.516H208.531V170.332H201.939V188.86H198.739Z" fill="#101E2A"/>
<path d="M172.852 189.244C166.772 189.244 161.908 184.764 161.908 178.204C161.908 171.644 166.772 167.164 172.852 167.164C177.044 167.164 179.668 169.18 181.332 171.676L178.612 173.116C177.492 171.324 175.38 170.012 172.852 170.012C168.532 170.012 165.204 173.404 165.204 178.204C165.204 182.972 168.532 186.396 172.852 186.396C175.38 186.396 177.492 185.084 178.612 183.292L181.332 184.732C179.636 187.228 177.044 189.244 172.852 189.244Z" fill="#101E2A"/>
<path d="M148.881 188.86L147.153 184.444H136.689L134.961 188.86H131.441L139.921 167.516H143.921L152.401 188.86H148.881ZM141.905 170.3L137.617 181.596H146.225L141.905 170.3Z" fill="#101E2A"/>
<path d="M117.155 188.86L112.067 180.636H108.067V188.86H104.867V167.516H113.859C117.923 167.516 120.707 170.14 120.707 174.076C120.707 177.916 118.115 179.964 115.395 180.316L120.867 188.86H117.155ZM117.411 174.076C117.411 171.836 115.747 170.332 113.443 170.332H108.067V177.82H113.443C115.747 177.82 117.411 176.316 117.411 174.076Z" fill="#101E2A"/>
<path d="M77.5234 188.86V167.516H91.8594V170.332H80.7234V176.572H91.6354V179.388H80.7234V186.044H91.8594V188.86H77.5234Z" fill="#101E2A"/>
<path d="M55.3955 188.86V170.332H48.7715V167.516H65.1875V170.332H58.5955V188.86H55.3955Z" fill="#101E2A"/>
<path d="M33.3439 188.86L21.5359 172.476V188.86H18.3359V167.516H21.6319L33.2479 183.516V167.516H36.4479V188.86H33.3439Z" fill="#101E2A"/>
<path d="M1.36719 188.86V167.516H4.56719V188.86H1.36719Z" fill="#101E2A"/>
<path d="M160.563 40.788C161.553 40.788 162.543 40.392 163.335 39.732V45.804C161.751 46.992 159.573 47.454 157.593 47.454C154.887 47.454 152.313 45.804 151.125 42.966C149.211 46.002 146.175 47.454 142.611 47.454C135.219 47.454 130.467 41.448 130.467 34.32C130.467 27.258 135.219 21.252 142.611 21.252C145.713 21.252 148.419 22.308 150.399 24.684V21.78H157.923V38.412C157.923 39.93 159.111 40.788 160.563 40.788ZM144.393 41.184C147.033 41.184 149.475 39.402 150.399 36.894V31.746C149.475 29.238 147.099 27.456 144.393 27.456C140.697 27.456 137.925 30.69 137.925 34.32C137.925 37.95 140.697 41.184 144.393 41.184Z" fill="#101E2A"/>
<path d="M122.592 21.252C125.496 21.252 127.806 23.562 127.806 26.4C127.806 29.238 125.496 31.614 122.592 31.614C121.074 31.614 119.622 30.888 118.632 29.7C117.312 30.426 116.52 31.944 116.124 33.924V46.86H108.6V21.78H116.124V25.41C117.51 23.1 119.886 21.252 122.592 21.252Z" fill="#101E2A"/>
<path d="M101.201 40.788C102.191 40.788 103.181 40.392 103.973 39.732V45.804C102.389 46.992 100.211 47.454 98.2315 47.454C95.5255 47.454 92.9515 45.804 91.7635 42.966C89.8495 46.002 86.8135 47.454 83.2495 47.454C75.8575 47.454 71.1055 41.448 71.1055 34.32C71.1055 27.258 75.8575 21.252 83.2495 21.252C86.3515 21.252 89.0575 22.308 91.0375 24.684V21.78H98.5615V38.412C98.5615 39.93 99.7495 40.788 101.201 40.788ZM85.0315 41.184C87.6715 41.184 90.1135 39.402 91.0375 36.894V31.746C90.1135 29.238 87.7375 27.456 85.0315 27.456C81.3355 27.456 78.5635 30.69 78.5635 34.32C78.5635 37.95 81.3355 41.184 85.0315 41.184Z" fill="#101E2A"/>
<path d="M68.4891 45.804C66.9711 46.992 64.7931 47.454 62.8131 47.454C58.4571 47.454 55.6191 43.494 55.6191 39.402V0H63.1431V38.412C63.1431 39.93 64.3311 40.788 65.7831 40.788C66.7731 40.788 67.7631 40.392 68.4891 39.732V45.804Z" fill="#101E2A"/>
</svg>
